<?xml version="1.0" encoding="utf-8"?>
<!-- Generator: Adobe Illustrator 27.0.0, SVG Export Plug-In . SVG Version: 6.00 Build 0)  -->
<svg version="1.1" id="Capa_1" xmlns="http://www.w3.org/2000/svg" xmlns:xlink="http://www.w3.org/1999/xlink" x="0px" y="0px"
	 viewBox="0 0 148.6 39.39" style="enable-background:new 0 0 148.6 39.39;" xml:space="preserve">
<style type="text/css">
	.st0{fill:#090E38;}
	.st1{fill:url(#SVGID_1_);}
	.st2{fill:#161A42;}
	.st3{fill:url(#SVGID_00000023254506531824781210000010989474743131527317_);}
	.st4{fill:url(#SVGID_00000166636881950490115300000015038056703769070004_);}
	.st5{fill:#FFFFFF;}
	.st6{fill:#E9E9EB;}
	.st7{fill:#2280C3;}
	.st8{fill:#263A6B;}
	.st9{fill:#13183B;}
	.st10{fill:#EBEBFF;}
	.st11{fill:#15336C;}
	.st12{fill:#121D3E;}
	.st13{fill:#D8CE9E;}
	.st14{fill:#5F485A;}
	.st15{fill:#17316F;}
	.st16{fill:#0A1C4F;}
	.st17{fill:#1E1A55;}
	.st18{fill:#12193B;}
	.st19{fill:#D8CD9C;}
	.st20{fill:#544A55;}
	.st21{fill:#E0E1E3;}
	.st22{fill:#15193A;}
	.st23{fill:#D6CC89;}
	.st24{fill:#434642;}
	.st25{fill:#131543;}
	.st26{fill:#3E3B38;}
	.st27{fill:#181940;}
	.st28{fill:#D7CE9D;}
	.st29{fill:#806D64;}
	.st30{opacity:0.7;fill:#6FC4D8;}
	.st31{fill:#805AE4;}
	.st32{fill:#ECB40A;}
	.st33{fill:#10B78E;}
	.st34{fill:url(#SVGID_00000087388791378121737450000012932331084024127676_);}
	.st35{fill:url(#SVGID_00000146499584685565460500000012316618371861505962_);}
	.st36{fill:url(#SVGID_00000075159479692563272230000003781135182032933772_);}
	.st37{fill:url(#SVGID_00000117673824669529771130000004428557293359763612_);}
	.st38{fill:url(#SVGID_00000087388060973588412430000001893690754784368556_);}
	.st39{fill:url(#SVGID_00000074429772022448072910000007893191354767769778_);}
	.st40{fill:url(#SVGID_00000150821555297183877060000012305870129792347546_);}
	.st41{fill:url(#SVGID_00000095310144789985882840000016147874609786758027_);}
	.st42{fill:url(#SVGID_00000062883846752781274240000017918273080797476017_);}
	.st43{fill:url(#SVGID_00000142867450059774341480000002136624640333249952_);}
	.st44{fill:url(#SVGID_00000020388247341424529550000000775233865406482109_);}
	.st45{fill:url(#SVGID_00000084500165348419161370000002177360640034174116_);}
	.st46{fill:url(#SVGID_00000076587496447387568760000014806584592408357546_);}
	.st47{fill:url(#SVGID_00000013191269094276051600000009904140427963753657_);}
	.st48{fill:url(#SVGID_00000132046612086466467400000013869664607263153571_);}
	.st49{fill:url(#SVGID_00000148631364397200543860000004550266166539221417_);}
	.st50{fill:url(#SVGID_00000063595580361937693950000013445145251529984696_);}
	.st51{fill:url(#SVGID_00000094584300732987092550000012160260825148368546_);}
	.st52{fill:url(#SVGID_00000163759082857003304020000014118019207329639353_);}
	.st53{fill:url(#SVGID_00000081632989140661297000000011800943266842166153_);}
	.st54{fill:url(#SVGID_00000029743377905499428250000000049972778488591795_);}
	.st55{fill:url(#SVGID_00000062871794369065429800000000078831089870884240_);}
	.st56{fill:url(#SVGID_00000006668161507661691380000005514013288920773275_);}
	.st57{fill:url(#SVGID_00000152223242056268381470000002995913489809690025_);}
	.st58{fill:url(#SVGID_00000141423476523810285660000017301730981563634584_);}
	.st59{fill:url(#SVGID_00000090275993363396623560000004807729198651938480_);}
	.st60{clip-path:url(#SVGID_00000137837108619321714690000007019770253163739817_);fill:#FFFFFF;}
	.st61{fill:none;stroke:#805AE4;stroke-miterlimit:10;}
	.st62{fill:url(#SVGID_00000141435998623937235440000010813734207634120601_);}
	.st63{fill:url(#SVGID_00000009553177561036469910000017462980008606486185_);}
	.st64{fill:url(#SVGID_00000174596284030917208390000011873739219898986130_);}
	.st65{fill:url(#SVGID_00000162319934413572017530000005377455571271137719_);}
	.st66{fill:url(#SVGID_00000000212207857495519630000011162225716836110766_);}
	.st67{fill:url(#SVGID_00000143594619721373207780000011379822733436048801_);}
	.st68{fill:url(#SVGID_00000085969383783334515010000018353103858660277139_);}
	.st69{fill:url(#SVGID_00000154385477167895992340000012913029416812259766_);}
	.st70{fill:url(#SVGID_00000150824245832315522210000018211839285103154095_);}
	.st71{fill:url(#SVGID_00000147219189482217557660000006596752703406282885_);}
	.st72{fill:url(#SVGID_00000004527966602521980020000008879853435852808874_);}
	.st73{fill:url(#SVGID_00000024698820884004402200000004636729371028236938_);}
	.st74{fill:#DDBB1B;}
	.st75{fill:#49CA80;}
	.st76{fill:#CF78C6;}
	.st77{fill:#BDACFF;}
	.st78{fill:#37368D;}
	.st79{fill:#E11E5E;}
	.st80{fill:#EB9F49;}
	.st81{fill:#FF6B6B;}
	.st82{fill:#38ABE6;}
	.st83{fill:url(#SVGID_00000031892847980295375740000005626402276837805736_);}
	.st84{fill:url(#SVGID_00000123429505057079974030000008814056065666119567_);}
	.st85{fill:url(#SVGID_00000172404094248405395070000013650976261227796906_);}
	.st86{fill:#E78A7E;}
	.st87{fill:#E69C78;}
	.st88{fill:#FF80E7;}
	.st89{fill:#E86480;}
	.st90{fill:url(#SVGID_00000016794091730559989630000006293633244389985201_);}
	.st91{fill:url(#SVGID_00000005226537373072346420000016988471082211361463_);}
	.st92{fill:url(#SVGID_00000182497382526526503820000017934281711109666489_);}
	.st93{fill:url(#SVGID_00000060742812636138849680000003774426499221108096_);}
	.st94{fill:url(#SVGID_00000068649805520289301020000009635583026942109344_);}
	.st95{fill:url(#SVGID_00000039116853911817483910000008648821424608831643_);}
	.st96{fill:url(#SVGID_00000176043721926565414350000004502964824329238167_);}
	.st97{fill:url(#SVGID_00000139290093363960747980000010332048230411142306_);}
	.st98{fill:url(#SVGID_00000122696910275369579430000003974593837814193577_);}
	.st99{fill:url(#SVGID_00000125578484666326564560000012183795305000668557_);}
	.st100{fill:url(#SVGID_00000117660162316943634820000014930632920112861842_);}
	.st101{fill:url(#SVGID_00000080912888589968724240000008549769402170574504_);}
	.st102{fill:url(#SVGID_00000117645946414091024150000015747248931550962109_);}
	.st103{fill:url(#SVGID_00000122682659363270126420000017817082110968151687_);}
	.st104{fill:url(#SVGID_00000044860290356074953780000009307034518778596518_);}
	.st105{fill:url(#SVGID_00000139292579665269587680000003506256380817309349_);}
	.st106{fill:url(#SVGID_00000145046471365292325370000001944249322657855648_);}
	.st107{fill:url(#SVGID_00000011736392242744022340000007128890321595460275_);}
	.st108{fill:url(#SVGID_00000061434993957237568800000009741346488157499043_);}
	.st109{fill:url(#SVGID_00000074433011683393074460000018218335868954292354_);}
	.st110{fill:url(#SVGID_00000093156711819309963660000014601954972790612923_);}
	.st111{fill:url(#SVGID_00000006672688672767337600000000239139736499575192_);}
	.st112{fill:url(#SVGID_00000052795684524184558460000013138946952063179170_);}
	.st113{fill:url(#SVGID_00000071519310896381295900000000015323174138343090_);}
	.st114{fill:url(#SVGID_00000156579570679919223680000011045009384657891987_);}
	.st115{fill:url(#SVGID_00000001652886037550933630000004835900348316663726_);}
	.st116{fill:url(#SVGID_00000141429416347432620540000010456855337010170792_);}
	.st117{fill:url(#SVGID_00000131328618537515268200000001403681407381620661_);}
	.st118{fill:url(#SVGID_00000071523233150000084170000017293679873765310130_);}
	.st119{fill:url(#SVGID_00000049907008979929602240000015931878629591451839_);}
	.st120{fill:url(#SVGID_00000183210482730024756240000007451681617348739237_);}
	.st121{fill:url(#SVGID_00000083069255579869596120000001405396734610087586_);}
	.st122{fill:url(#SVGID_00000119823896410310318290000002096780563154049457_);}
	.st123{fill:url(#SVGID_00000023998353300559728680000010084097157201221044_);}
	.st124{fill:url(#SVGID_00000047018481193438059750000002151523388135721908_);}
	.st125{fill:url(#SVGID_00000128451193603874163570000008974680287693955715_);}
	.st126{fill:url(#SVGID_00000149355493577498211020000016939880824084574886_);}
	.st127{fill:url(#SVGID_00000168796599705827811090000004133539084119404449_);}
	.st128{fill:url(#SVGID_00000051351551587754221690000018239142044066947466_);}
	.st129{fill:url(#SVGID_00000181068393722061282480000015633931474423910024_);}
	.st130{fill:url(#SVGID_00000109714436364504294250000010657729086328538509_);}
	.st131{fill:url(#SVGID_00000097491994770279142120000001425010373083682179_);}
	.st132{fill:url(#SVGID_00000088107882257807243300000017795881098304357807_);}
	.st133{fill:url(#SVGID_00000003073954304629539740000004109790485606946451_);}
	.st134{fill:url(#SVGID_00000155849398864191197460000000914253261085339577_);}
	.st135{fill:url(#SVGID_00000125591046069987438330000006017928555854494348_);}
	.st136{fill:url(#SVGID_00000080195167347155860690000001420555473434604460_);}
	.st137{fill:url(#SVGID_00000134246275745600378200000011053680254363587240_);}
	.st138{fill:url(#SVGID_00000124127960892434844840000006936044666254107052_);}
	.st139{fill:url(#SVGID_00000014633976054916807170000012973446631845977227_);}
	.st140{fill:url(#SVGID_00000089551715281828113560000012636661717272665488_);}
	.st141{fill:url(#SVGID_00000168116132793536778450000012535160257856741294_);}
	.st142{fill:url(#SVGID_00000147909451194973177790000017447298083567702146_);}
	.st143{fill:url(#SVGID_00000079486113529907659510000003948184075602972843_);}
	.st144{fill:url(#SVGID_00000179628431600870825390000008980090775094839684_);}
	.st145{fill:url(#SVGID_00000172399667153615183650000009774268854405267119_);}
	.st146{fill:url(#SVGID_00000133486981269992449390000013109445799439716026_);}
	.st147{fill:url(#SVGID_00000009569674027347259200000016167945482057353137_);}
	.st148{fill:url(#SVGID_00000173142365287030177410000003072202051116372643_);}
	.st149{fill:url(#SVGID_00000117664518701264410690000007601135929993676707_);}
	.st150{fill:url(#SVGID_00000076573254477338173410000011667091469634793606_);}
	.st151{fill:url(#SVGID_00000000936915718787094350000014191420873456217260_);}
	.st152{fill:url(#SVGID_00000164500420761945918520000016968581414244666270_);}
	.st153{fill:url(#SVGID_00000182519410504069020270000007033198504769127047_);}
	.st154{fill:url(#SVGID_00000183935165029835541130000008065397931545185173_);}
	.st155{fill:url(#SVGID_00000057865473698944674500000017608846509647653016_);}
	.st156{fill:url(#SVGID_00000071520831505390751030000013486808608097014657_);}
	.st157{fill:url(#SVGID_00000130623741668728903690000007366270922441257865_);}
	.st158{fill:url(#SVGID_00000049196344515439148950000005604604546328896930_);}
	.st159{fill:url(#SVGID_00000062890509767032912890000007750493269461997743_);}
	.st160{fill:url(#SVGID_00000127015904481151990850000006042153128373148351_);}
	.st161{fill:url(#SVGID_00000165947675228856395800000009891137214366451100_);}
	.st162{fill:url(#SVGID_00000119091912107216079580000011553626350731523246_);}
	.st163{fill:none;stroke:#090E38;stroke-width:2;stroke-miterlimit:10;}
	.st164{fill:#803CFF;}
	.st165{fill:none;stroke:#803CFF;stroke-miterlimit:10;}
	.st166{fill:#848698;}
	.st167{fill:url(#SVGID_00000147910233953132475420000004225093264823495306_);}
	.st168{fill:url(#SVGID_00000182491851790398080100000014069870336351382925_);}
	.st169{fill:url(#SVGID_00000060741357532410341800000012102262495524541064_);}
	.st170{fill:url(#SVGID_00000121260605413458380580000001142651651738337469_);}
	.st171{fill:url(#SVGID_00000064330488453570625230000009751690516685571713_);}
	.st172{fill:url(#SVGID_00000148646188961579557120000005785328696940964245_);}
	.st173{fill:url(#SVGID_00000112606124773343672450000004213588598582931096_);}
	.st174{fill:url(#SVGID_00000014627636262258249540000014327046195387950980_);}
	.st175{fill:#22274C;}
	.st176{fill:url(#SVGID_00000013908286789872647140000012965049635434852020_);}
	.st177{fill:url(#SVGID_00000040562954363080868380000018177166827911550896_);}
	.st178{fill:url(#SVGID_00000065049760112424174060000001506991793996184761_);}
	.st179{fill:url(#SVGID_00000006696860997913919430000006186363053261075612_);}
	.st180{fill:url(#SVGID_00000034810737862235307860000007179923520593842851_);}
	.st181{fill:url(#SVGID_00000083803147975145560500000011708622901481314469_);}
	.st182{fill:url(#SVGID_00000103964131965169277300000013456584897362623162_);}
	.st183{fill:url(#SVGID_00000085213135906371995210000017749533691431856033_);}
	.st184{fill:url(#SVGID_00000106148229543893482880000010320643354286945951_);}
	.st185{fill:url(#SVGID_00000098904859946233817430000014185694992547512717_);}
	.st186{fill:url(#SVGID_00000072251365657598140370000001830413346732867714_);}
	.st187{fill:url(#SVGID_00000041265946661719614640000008776967355038080924_);}
	.st188{fill:url(#SVGID_00000162330690119607467630000015668255430871064488_);}
	.st189{fill:url(#SVGID_00000109736215264681503600000002170787391249864624_);}
	.st190{fill:url(#SVGID_00000157987646163503191770000013837955622681264515_);}
	.st191{fill:url(#SVGID_00000109001940527494467590000011076579044746209198_);}
	.st192{fill:url(#SVGID_00000013873273446951756480000015024698710946053029_);}
	.st193{fill:url(#SVGID_00000155857417856763419900000000916503871172651909_);}
	.st194{fill:url(#SVGID_00000082350286714658351320000004097092636217430419_);}
	.st195{fill:url(#SVGID_00000177471038723130853440000003111032717309125521_);}
	.st196{fill:url(#SVGID_00000180363965684853812150000012477743248588292017_);}
	.st197{fill:url(#SVGID_00000178180019098855094160000017642751692258510782_);}
	.st198{fill:url(#SVGID_00000117660282348801047170000007182890588096054408_);}
	.st199{fill:url(#SVGID_00000162316004397080255470000005045042323632413369_);}
	.st200{fill:url(#SVGID_00000052104462419475145190000011992190106131330999_);}
	.st201{fill:url(#SVGID_00000178926193701759882820000006428108035997329337_);}
	.st202{fill:url(#SVGID_00000000915997980480602470000000347424461504693926_);}
	.st203{fill:url(#SVGID_00000090282352946508304650000000697789398138996923_);}
	.st204{fill:url(#SVGID_00000072968635981326287900000003333020744952288176_);}
	.st205{fill:url(#SVGID_00000015317862682697668470000000982325903911497138_);}
	.st206{fill:url(#SVGID_00000111186493119809309870000005493152918061587878_);}
	.st207{fill:url(#SVGID_00000142134452598371551880000003358610500402991794_);}
	.st208{fill:url(#SVGID_00000039843404310387231020000004138861067089415594_);}
	.st209{fill:url(#SVGID_00000148652703156791826290000013495168024195970188_);}
	.st210{fill:url(#SVGID_00000037691089017921517630000011698270890078297505_);}
	.st211{fill:url(#SVGID_00000179619370068094856750000008485999099143606674_);}
	.st212{fill:none;stroke:#FFFFFF;stroke-linecap:round;stroke-miterlimit:10;}
	.st213{fill:url(#SVGID_00000151539591140650512880000013312785662081580469_);}
	.st214{fill:url(#SVGID_00000065062372220219080860000011084813854443332501_);}
	.st215{fill:url(#SVGID_00000057849214072721503300000001059529404985130164_);}
	.st216{fill:url(#SVGID_00000026163652993286955170000012743938907473454733_);}
	.st217{fill:url(#SVGID_00000011008564311551134900000010689535888258175628_);}
	.st218{fill:url(#SVGID_00000182518757423391859410000000944971364219263903_);}
	.st219{fill:url(#SVGID_00000085238032429700561940000004608682985254558906_);}
	.st220{fill:url(#SVGID_00000098929807347382948850000017535100600304543887_);}
	.st221{fill:url(#SVGID_00000182499426030276847080000011859928985779871371_);}
	.st222{fill:url(#SVGID_00000054982126977375275410000012202048404218594221_);}
	.st223{fill:url(#SVGID_00000158732874915028659950000013218744900960516777_);}
	.st224{fill:url(#SVGID_00000054255294505398829630000001212502891816376977_);}
	.st225{fill:url(#SVGID_00000152984924586933875350000015904635601668730497_);}
	.st226{fill:url(#SVGID_00000132772691829221487880000017382127906415879563_);}
	.st227{fill:url(#SVGID_00000139259244048391960760000000557822365628125571_);}
	.st228{fill:url(#SVGID_00000062152484158255421930000011231996590620375184_);}
	.st229{fill:url(#SVGID_00000027601276811614167960000011387329373142138543_);}
	.st230{fill:url(#SVGID_00000018924449901153955620000014398312164337839531_);}
	.st231{fill:url(#SVGID_00000108296336891393474880000015751184092124745352_);}
	.st232{fill:url(#SVGID_00000132078569450013798950000012541174433374126483_);}
	.st233{fill:url(#SVGID_00000111882503907355807760000008312311810454643100_);}
	.st234{fill:none;stroke:#22274C;stroke-width:0.5;stroke-miterlimit:10;}
	.st235{fill:url(#SVGID_00000020387156763120035540000009255094214439264702_);}
	.st236{fill:none;stroke:#22274C;stroke-miterlimit:10;}
	.st237{fill:url(#SVGID_00000041269520499910287760000004437593324338439613_);}
	.st238{fill:url(#SVGID_00000074406875868356182830000016558995999655512483_);}
	.st239{fill:url(#SVGID_00000044877213179258451170000008182298192715557291_);}
	.st240{fill:url(#SVGID_00000152242991780236798370000004459297387777466045_);}
	.st241{fill:url(#SVGID_00000039135599059228219050000000689561516734581171_);}
	.st242{fill:url(#SVGID_00000047017616029710426040000002432123475653312900_);}
	.st243{fill:url(#SVGID_00000165938299154338586820000012821942250347974837_);}
	.st244{fill:url(#SVGID_00000018221674129121169690000004723504102782095546_);}
	.st245{fill:url(#SVGID_00000043447611726385525720000008085885376843276938_);}
	.st246{fill:url(#SVGID_00000135673147151872524650000007830611786040360095_);}
	.st247{fill:url(#SVGID_00000057856811658910232910000012563804649850482050_);}
	.st248{fill:url(#SVGID_00000178887479764665306140000001618087931380085950_);}
	.st249{fill:none;stroke:#E11E5E;stroke-miterlimit:10;}
	.st250{fill:url(#SVGID_00000086665840451853928810000007865727136380427905_);}
	.st251{fill:url(#SVGID_00000023995503338093596790000008068387418704546709_);}
	.st252{fill:url(#SVGID_00000021107746607029376940000007154009733731138185_);}
	.st253{fill:url(#SVGID_00000034055609415126526610000001395908188093519540_);}
	.st254{fill:url(#SVGID_00000054983392784614432250000004936037741691493277_);}
	.st255{fill:url(#SVGID_00000104668194099489048230000011260422771481305985_);}
	.st256{fill:url(#SVGID_00000167380133634810222150000017981483743609144466_);}
	.st257{fill:url(#SVGID_00000122720695549995352610000006519587733199974272_);}
	.st258{fill:url(#SVGID_00000140699799292275727410000009636633363907716504_);}
	.st259{fill:url(#SVGID_00000024717263966139603740000002479007966186825639_);}
	.st260{fill:url(#SVGID_00000125568618627311722600000002577834954284662420_);}
	.st261{fill:url(#SVGID_00000079482475390463217280000008511253825831997072_);}
	.st262{fill:url(#SVGID_00000162350609786623584100000002579792955260678804_);}
	.st263{fill:url(#SVGID_00000026852184425571564930000012580430719552446392_);}
	.st264{fill:url(#SVGID_00000176007619355030538450000005003229781404477091_);}
	.st265{fill:url(#SVGID_00000162336586879662756850000013653639578227095958_);}
	.st266{fill:url(#SVGID_00000013879574329837360420000008377472900830539173_);}
	.st267{fill:url(#SVGID_00000062189056458797650310000017176011327673173166_);}
	.st268{fill:url(#SVGID_00000115504215002663443130000007833495969034233236_);}
	.st269{fill:url(#SVGID_00000127754105120768057060000012253499722333026980_);}
	.st270{fill:url(#SVGID_00000096769576874167072160000012308259488682083222_);}
	.st271{fill:url(#SVGID_00000075143181541691565640000015398475362966727847_);}
	.st272{fill:url(#SVGID_00000142161719111866321950000014153152441515432890_);}
	.st273{fill:none;stroke:#FFFFFF;stroke-width:0.75;stroke-miterlimit:10;}
	.st274{fill:none;stroke:#FFFFFF;stroke-width:0.75;stroke-linecap:round;stroke-miterlimit:10;}
	.st275{fill-rule:evenodd;clip-rule:evenodd;fill:none;stroke:#FFFFFF;stroke-width:0.5;stroke-miterlimit:10;}
	
		.st276{fill-rule:evenodd;clip-rule:evenodd;fill:none;stroke:#FFFFFF;stroke-width:0.5;stroke-linecap:round;stroke-miterlimit:10;}
	.st277{fill:url(#SVGID_00000013184951838938317390000007514910281458998417_);}
	.st278{fill:url(#SVGID_00000052106095515950552370000002426797749912483206_);}
	.st279{fill:url(#SVGID_00000033350687585547423420000003651600121213667471_);}
	.st280{fill:url(#SVGID_00000090983159906654561200000010824000214935419537_);}
	.st281{fill:url(#SVGID_00000059308691914906744440000005255780940644323481_);}
	.st282{fill:url(#SVGID_00000155134995608736811380000010384352182270122129_);}
	.st283{fill:url(#SVGID_00000023981759351031809730000003622069329252402108_);}
	.st284{fill:url(#SVGID_00000072239435331136540300000003061163115627625904_);}
	.st285{fill:url(#SVGID_00000170278798010082410790000007957114381485833648_);}
	.st286{fill:url(#SVGID_00000111182120652234820160000008031425486067646396_);}
	.st287{fill:url(#SVGID_00000084508124828549067300000004136185781270935222_);}
	.st288{fill:url(#SVGID_00000116948411652471507020000009407940111136067746_);}
	.st289{fill:url(#SVGID_00000024683299052575487740000016145009975637579173_);}
	.st290{fill:url(#SVGID_00000130640981631875468260000009568228175351698103_);}
	.st291{fill:url(#SVGID_00000112598493653866660350000014768562284993429400_);}
	.st292{fill:url(#SVGID_00000018233895879529113810000005443738851824556706_);}
	.st293{fill:url(#SVGID_00000025434130823649551330000012421326319789564307_);}
	.st294{fill:url(#SVGID_00000147199000486539581720000011907931836706564799_);}
	.st295{fill:url(#SVGID_00000112624819834596723490000009964601745425621904_);}
	.st296{fill:url(#SVGID_00000008112195668561319380000011953766866095595420_);}
	.st297{fill:url(#SVGID_00000092456720093087743540000011368635873163786423_);}
	.st298{fill:url(#SVGID_00000166664105453193642840000010001159382834216348_);}
	.st299{fill:url(#SVGID_00000003793580754520177970000001124745131371327414_);}
	.st300{fill:url(#SVGID_00000111164449430131707880000018251310726174389687_);}
	.st301{fill:url(#SVGID_00000116949605038303750540000014283194896003430804_);}
	.st302{clip-path:url(#SVGID_00000172435625999743545630000001382619897322574476_);fill:#22264C;}
	.st303{clip-path:url(#SVGID_00000142873349073042238930000014643938147190094232_);fill:#FFFFFF;}
	.st304{clip-path:url(#SVGID_00000143578747168205298420000014672791006376110209_);fill:#FFFFFF;}
	.st305{clip-path:url(#SVGID_00000075869976929782238250000017437769447203740545_);fill:#FFFFFF;}
	.st306{clip-path:url(#SVGID_00000041262742012867025240000012759227089624967864_);fill:#FFFFFF;}
	.st307{clip-path:url(#SVGID_00000060021575661839965010000004033359418413967257_);fill:#FFFFFF;}
	.st308{clip-path:url(#SVGID_00000062160276866390914240000002362285175726222220_);fill:#FFFFFF;}
	.st309{clip-path:url(#SVGID_00000116202831573583434470000007656978642679778462_);fill:#FFFFFF;}
	.st310{clip-path:url(#SVGID_00000022546843471579816460000017401661393800870841_);fill:#FFFFFF;}
	.st311{clip-path:url(#SVGID_00000024707398567435399770000010321285806407718306_);fill:#FFFFFF;}
	.st312{clip-path:url(#SVGID_00000008838544645384869230000016945838340531033236_);fill:#FFFFFF;}
	.st313{clip-path:url(#SVGID_00000158004350985529406580000001619034345822973585_);fill:#FFFFFF;}
	.st314{fill:url(#SVGID_00000031893126129830498080000008646913976985795996_);}
	.st315{fill:url(#SVGID_00000010291988659121804330000015387642956789141683_);}
	.st316{fill:url(#SVGID_00000091723781648601287250000017156654714227596467_);}
	.st317{fill:url(#SVGID_00000000216856966299839920000009336163352010357171_);}
	.st318{fill:url(#SVGID_00000106136957590859036610000004621553819760995722_);}
	.st319{fill:url(#SVGID_00000160149079816177814540000002191112408610711693_);}
	.st320{fill:url(#SVGID_00000101097191908036021130000017738827110002409609_);}
	.st321{fill:url(#SVGID_00000031901753792595656690000009251177724242633125_);}
	.st322{fill:url(#SVGID_00000062172691998978134220000010949356246856772277_);}
	.st323{fill:url(#SVGID_00000103953660650676016460000005395703896163495574_);}
	.st324{fill:url(#SVGID_00000078026104537437928100000015806281380059274153_);}
	.st325{fill:url(#SVGID_00000143596121039665643800000006063965849169506215_);}
	.st326{fill:url(#SVGID_00000127735965418226037860000017921082540181025928_);}
	.st327{fill:url(#SVGID_00000013193545352364820900000009321670418077757058_);}
	.st328{fill:url(#SVGID_00000089556951818110806690000013291266657736629424_);}
	.st329{fill:url(#SVGID_00000049933201334499053500000008575401433235718274_);}
	.st330{fill:url(#SVGID_00000046317180701589144680000002450177284034389427_);}
	.st331{fill:url(#SVGID_00000045576961614532570590000002335805589810633125_);}
	.st332{fill:url(#SVGID_00000021805077635802208190000010333526387869298353_);}
	.st333{fill:url(#SVGID_00000033357670294348855450000001497409335106898618_);}
	.st334{fill:url(#SVGID_00000183239561447829970900000007791851278026577849_);}
	.st335{fill:url(#SVGID_00000165930640065874037430000016242268914668554407_);}
	.st336{fill:url(#SVGID_00000024688178387646010870000016388164253391746204_);}
	.st337{fill:url(#SVGID_00000097492689280634840610000007171469771253535665_);}
	.st338{fill:url(#SVGID_00000151514662476042583150000005673529402722207674_);}
	.st339{fill:url(#SVGID_00000175307800495916780800000005577238016815236236_);}
	.st340{fill:url(#SVGID_00000179623247511064849940000001322603894187526807_);}
	.st341{fill:url(#SVGID_00000177448623540997199640000011148807911542487478_);}
	.st342{fill:url(#SVGID_00000016052372770023788300000001589124726964445340_);}
	.st343{fill:url(#SVGID_00000002360863031180216810000002073248145124395170_);}
	.st344{fill:url(#SVGID_00000165227132858445849020000017202711094048271283_);}
	.st345{fill:url(#SVGID_00000168115200966945022770000004467611120746767010_);}
	.st346{fill:url(#SVGID_00000038403645492458720950000000122853328205512097_);}
	.st347{fill:url(#SVGID_00000182519469557847679300000004086918717344732338_);}
	.st348{fill:url(#SVGID_00000068663653943790511750000009198544452142507928_);}
	.st349{fill:url(#SVGID_00000010294142267481230490000016120276123195186101_);}
	.st350{fill:url(#SVGID_00000098199856473923078700000002271286792108628136_);}
	.st351{fill:url(#SVGID_00000105405121899894169020000002638219120668881584_);}
	.st352{fill:url(#SVGID_00000091001263493358925400000009425560300960682404_);}
	.st353{fill:url(#SVGID_00000084496389910255906930000012121018801422567827_);}
	.st354{fill:#8A8989;}
	.st355{fill:#616160;}
	.st356{fill-rule:evenodd;clip-rule:evenodd;fill:#FFFFFF;}
	.st357{fill-rule:evenodd;clip-rule:evenodd;fill:#8A8989;}
	.st358{fill-rule:evenodd;clip-rule:evenodd;fill:#797879;}
	.st359{clip-path:url(#XMLID_00000093861318758054634370000010088974915471431862_);}
	.st360{opacity:0.2;fill:#E1E3E7;}
	.st361{fill-rule:evenodd;clip-rule:evenodd;fill:#616160;}
	.st362{fill:#E1E3E7;}
	.st363{fill:#FFFFFF;stroke:#FFFFFF;stroke-width:4;stroke-miterlimit:10;}
	.st364{fill:#58595B;}
	.st365{fill:#80A926;}
	.st366{clip-path:url(#SVGID_00000102517537959593416750000010469916687179441551_);}
	.st367{clip-path:url(#SVGID_00000021814477422348585670000012365226340651153838_);}
	.st368{clip-path:url(#SVGID_00000147937481027501042820000008719065634457240487_);}
	.st369{clip-path:url(#SVGID_00000051365473674472203580000013862619224549539766_);}
	.st370{clip-path:url(#SVGID_00000004527466188839107650000003975533984173815475_);}
	.st371{clip-path:url(#SVGID_00000145779986735384565660000000040496849348587178_);}
	.st372{clip-path:url(#SVGID_00000042011497322189533370000010415884136068075655_);}
	.st373{clip-path:url(#SVGID_00000132053127971130783700000013629684070297127102_);}
	.st374{clip-path:url(#SVGID_00000021816191757192666850000002035437733370920878_);}
	.st375{clip-path:url(#SVGID_00000064324148409812858990000000879773891466552496_);}
	.st376{fill:#1D1E1C;}
	.st377{opacity:0.36;}
	.st378{opacity:0.57;}
	.st379{fill:none;}
	.st380{fill:#01CEA6;}
	.st381{fill:#01261F;}
	.st382{fill:#E68000;}
	.st383{fill:#261400;}
	.st384{fill:#E63D80;}
	.st385{fill:#2D0013;}
	.st386{fill:#3695BB;}
	.st387{fill:#032732;}
	.st388{fill:#CDE4EC;}
	.st389{fill:#DA80E7;}
	.st390{fill:#B072BD;}
	.st391{fill:#855994;}
	.st392{fill:#180024;}
	.st393{fill:#DD80EA;}
	.st394{fill:#BB80E7;}
	.st395{fill:#9B77C0;}
	.st396{fill:#C080ED;}
	.st397{fill:#1F0140;}
	.st398{fill:#80619A;}
	.st399{fill:url(#SVGID_00000123405803369714116720000017255607574205064064_);}
	.st400{fill:url(#SVGID_00000108277076253091073350000012755177075509438382_);}
	.st401{fill:url(#SVGID_00000005973272205617765850000012225196869130525079_);}
	.st402{fill:url(#SVGID_00000180338943745272049810000011327915957799968156_);}
	.st403{fill:url(#SVGID_00000164502163875942734790000007648172108242042252_);}
	.st404{fill:url(#SVGID_00000059307613364715378450000012948314974612981149_);}
	.st405{fill:url(#SVGID_00000122687220222515379110000001879612628097205393_);}
	.st406{fill:url(#SVGID_00000083782791891663914300000007567714572335399359_);}
	.st407{fill:url(#SVGID_00000109719278813203641290000018243294859909999238_);}
	.st408{fill:url(#SVGID_00000179617099742636763820000005195276633451683999_);}
	.st409{fill:url(#SVGID_00000087384417638102604340000002968471579006164361_);}
	.st410{fill:url(#SVGID_00000098904514153971968390000015343221022662916274_);}
	.st411{fill:none;stroke:#464A69;stroke-miterlimit:10;}
	.st412{fill:url(#SVGID_00000104679481730530223110000000852372873379952028_);}
	.st413{fill:url(#SVGID_00000018935562799498470910000002271662946856921510_);}
	.st414{fill:url(#SVGID_00000157299949113286817840000011956677217461481381_);}
	.st415{fill:url(#SVGID_00000111873194700599708900000007204399043389937568_);}
	.st416{fill:url(#SVGID_00000141433507504741006310000013498883610002706570_);}
	.st417{fill:url(#SVGID_00000154397588435776854860000011268379779926619560_);}
	.st418{fill:url(#SVGID_00000120537185012139519010000006458394669110304949_);}
	.st419{fill:url(#SVGID_00000088104043048607053190000004634146013698505643_);}
	.st420{fill:url(#SVGID_00000152966783267542019770000004850003629797676689_);}
	.st421{fill:url(#SVGID_00000074420466891557328700000003184344550235156111_);}
	.st422{fill:url(#SVGID_00000021098498523881616180000004699573304989311138_);}
	.st423{fill:url(#SVGID_00000039104109444915081870000009791325604227729589_);}
	.st424{fill:url(#SVGID_00000079481182963830522430000012505261694991225224_);}
	.st425{fill:url(#SVGID_00000089534059603385952250000016246904229819134856_);}
	.st426{fill:none;stroke:#22274C;stroke-width:0.75;stroke-miterlimit:10;}
	.st427{fill:none;stroke:#FFFFFF;stroke-width:2;stroke-miterlimit:10;}
	.st428{fill:url(#SVGID_00000004538429330434838180000008979984377835537597_);}
	.st429{fill:url(#SVGID_00000074439528619837191310000014440866744411767709_);}
	.st430{fill:url(#SVGID_00000147899303664853821010000002872305581750226563_);}
	.st431{fill:url(#SVGID_00000067921983560819076850000009192097277904318134_);}
	.st432{fill:url(#SVGID_00000079480075041655522830000001269599305093249944_);}
	.st433{fill:url(#SVGID_00000139977596764251006520000016965745537246488756_);}
	.st434{fill:url(#SVGID_00000004507534483371156900000008566378089259094939_);}
	.st435{fill:url(#SVGID_00000135673400174160820560000017923644891421499787_);}
	.st436{fill:url(#SVGID_00000004530800542566366360000002914012204874633374_);}
	.st437{fill:url(#SVGID_00000053518389926196387710000009483448494868503171_);}
	.st438{fill:url(#SVGID_00000062912680622838929630000015480238894799179435_);}
	.st439{fill:url(#SVGID_00000136375716830128199400000011687278191602041010_);}
	.st440{fill:url(#SVGID_00000065070641136805133550000011621346445556915594_);}
	.st441{fill:url(#SVGID_00000176732918985587665760000008687266024885367696_);}
	.st442{fill:url(#SVGID_00000135678816290690007780000016573910998062429064_);}
	.st443{fill:url(#SVGID_00000055665590909890510650000006471643942740102280_);}
	.st444{fill:url(#SVGID_00000021083688916684099390000017566881415679397022_);}
	.st445{fill:url(#SVGID_00000152250746989942814070000009214009224317865117_);}
	.st446{fill:url(#SVGID_00000055675455753204204110000014666588015119456128_);}
	.st447{fill:url(#SVGID_00000170265267118812388290000007812368450816210082_);}
	.st448{fill:url(#SVGID_00000038381655120254645860000006185159063901111713_);}
	.st449{fill:url(#SVGID_00000060732763955707251780000001308537679059217815_);}
	.st450{fill:url(#SVGID_00000088842920759065718200000010381033864235550381_);}
	.st451{fill:url(#SVGID_00000104664290333491563710000016712072872316081047_);}
	.st452{fill:url(#SVGID_00000097459848986734579940000002575696096465583243_);}
	.st453{fill:url(#SVGID_00000044881027618846792210000017128685186717559226_);}
	.st454{fill:url(#SVGID_00000070831559481446688240000004747658856876049283_);}
	.st455{fill:none;stroke:#8F8F8F;stroke-width:0.75;stroke-miterlimit:10;}
	.st456{fill:#8F8F8F;stroke:#8F8F8F;stroke-width:0.25;stroke-miterlimit:10;}
	.st457{fill:#8F8F8F;}
	.st458{fill:none;stroke:#8F8F8F;stroke-width:0.25;stroke-miterlimit:10;}
	.st459{fill:url(#SVGID_00000135678570846298328240000005906798453639337887_);}
	.st460{fill:url(#SVGID_00000086689306232244930780000014405403514399502778_);}
	.st461{fill:url(#SVGID_00000065792090225799922640000009202898826281780918_);}
	.st462{fill:url(#SVGID_00000111159626735617184320000005834170417081691807_);}
	.st463{fill:url(#SVGID_00000127740150575670131610000007963964226352886413_);}
	.st464{fill:url(#SVGID_00000030447263905448909460000014006467108386260137_);}
	.st465{fill:url(#SVGID_00000046307685652301323770000014421353876030363834_);}
	.st466{fill:url(#SVGID_00000111900381619548255080000008773068153215760544_);}
	.st467{fill:url(#SVGID_00000170965607990297680630000014480013059571026823_);}
	.st468{fill:url(#SVGID_00000010991781045483339520000015937709374111374749_);}
</style>
<g>
	<g>
		<path class="st5" d="M0,5.02C0,2.27,2.32,0,5.07,0s5.07,2.27,5.07,5.02s-2.32,5.07-5.07,5.07S0,7.76,0,5.02z M0.69,12.25h8.77
			v26.4H0.69V12.25z"/>
		<path class="st5" d="M24.87,12.25h4.54v8.4h-4.54v18.01h-8.77V20.65h-3.33v-8.4h3.33c0-7.39,4.33-11.88,13.31-11.35v8.13
			C26.61,8.82,24.87,9.82,24.87,12.25z"/>
		<path class="st5" d="M58.83,1.69v36.96h-8.77v-2.43c-1.69,2.01-4.12,3.17-7.5,3.17c-7.08,0-12.41-6.02-12.41-13.94
			s5.33-13.94,12.41-13.94c3.38,0,5.81,1.16,7.5,3.17V1.69H58.83z M50.06,25.45c0-3.43-2.27-5.76-5.54-5.76
			c-3.27,0-5.54,2.32-5.54,5.76s2.27,5.76,5.54,5.76C47.79,31.21,50.06,28.88,50.06,25.45z"/>
	</g>
	<g>
		<path class="st5" d="M68.33,15.36c-0.3,0-0.45-0.15-0.45-0.45V2.15c0-0.3,0.15-0.45,0.45-0.45h5.2c1.76,0,3.04,0.4,3.83,1.19
			c0.79,0.79,1.19,2.07,1.19,3.83v3.6c0,1.75-0.4,3.03-1.19,3.83c-0.79,0.8-2.07,1.2-3.83,1.2H68.33z M68.78,14.45h4.75
			c1,0,1.8-0.13,2.41-0.4c0.6-0.27,1.04-0.71,1.31-1.31c0.27-0.6,0.4-1.41,0.4-2.41v-3.6c0-1-0.13-1.8-0.4-2.41
			c-0.27-0.6-0.71-1.04-1.31-1.31c-0.6-0.27-1.41-0.4-2.41-0.4h-4.75V14.45z"/>
		<path class="st5" d="M82.68,15.36c-0.13,0-0.24-0.04-0.32-0.13c-0.09-0.09-0.13-0.19-0.13-0.32V2.13c0-0.13,0.04-0.24,0.13-0.32
			c0.09-0.09,0.19-0.13,0.32-0.13c0.13,0,0.24,0.04,0.32,0.13C83.09,1.9,83.13,2,83.13,2.13V14.9c0,0.13-0.04,0.24-0.13,0.32
			C82.91,15.31,82.81,15.36,82.68,15.36z"/>
		<path class="st5" d="M91.18,15.36c-1.53,0-2.64-0.35-3.34-1.04c-0.69-0.69-1.04-1.81-1.04-3.34v-4.9c0-1.55,0.35-2.66,1.04-3.35
			c0.69-0.69,1.8-1.03,3.32-1.03h2.61c1.32,0,2.29,0.27,2.91,0.82c0.63,0.55,0.96,1.43,1.01,2.65c0.01,0.15-0.02,0.27-0.09,0.35
			c-0.08,0.08-0.19,0.12-0.34,0.12c-0.29,0-0.45-0.15-0.47-0.45c-0.04-0.97-0.29-1.65-0.75-2.02c-0.46-0.38-1.21-0.57-2.27-0.57
			h-2.61c-0.85,0-1.52,0.11-2.03,0.33c-0.5,0.22-0.87,0.59-1.09,1.09c-0.22,0.51-0.33,1.19-0.33,2.04v4.9
			c0,0.85,0.11,1.53,0.34,2.03c0.23,0.51,0.59,0.87,1.1,1.1c0.51,0.23,1.18,0.34,2.03,0.34h2.59c0.76,0,1.36-0.1,1.81-0.29
			c0.44-0.19,0.76-0.51,0.95-0.95c0.19-0.44,0.29-1.04,0.29-1.81V9.94l-2.59-0.02c-0.3,0-0.45-0.15-0.45-0.45
			c0-0.3,0.15-0.45,0.45-0.45l3.04,0.02c0.3,0,0.45,0.15,0.45,0.45v1.92c0,1.39-0.31,2.39-0.93,3.01c-0.62,0.62-1.63,0.93-3.02,0.93
			H91.18z"/>
		<path class="st5" d="M101.62,15.36c-0.13,0-0.24-0.04-0.32-0.13c-0.09-0.09-0.13-0.19-0.13-0.32V2.13c0-0.13,0.04-0.24,0.13-0.32
			c0.09-0.09,0.19-0.13,0.32-0.13c0.13,0,0.24,0.04,0.32,0.13c0.09,0.09,0.13,0.19,0.13,0.32V14.9c0,0.13-0.04,0.24-0.13,0.32
			C101.85,15.31,101.75,15.36,101.62,15.36z"/>
		<path class="st5" d="M109.97,15.38c-0.13,0-0.24-0.04-0.32-0.13c-0.09-0.09-0.13-0.19-0.13-0.32V2.59h-4.72
			c-0.13,0-0.24-0.04-0.32-0.13c-0.09-0.09-0.13-0.19-0.13-0.32s0.04-0.24,0.13-0.32c0.09-0.09,0.19-0.13,0.32-0.13h10.36
			c0.13,0,0.24,0.04,0.32,0.13c0.09,0.09,0.13,0.19,0.13,0.32s-0.04,0.24-0.13,0.32c-0.09,0.09-0.19,0.13-0.32,0.13h-4.72v12.34
			c0,0.13-0.04,0.24-0.13,0.32C110.2,15.34,110.1,15.38,109.97,15.38z"/>
		<path class="st5" d="M114.91,15.31c-0.27-0.13-0.35-0.33-0.24-0.6l5.42-12.66c0.09-0.23,0.26-0.35,0.52-0.35h0.06
			c0.24,0,0.41,0.12,0.52,0.35l5.39,12.66c0.12,0.27,0.04,0.47-0.24,0.6c-0.27,0.11-0.47,0.04-0.58-0.24l-1.52-3.58h-7.18
			l-1.54,3.58C115.39,15.35,115.19,15.43,114.91,15.31z M117.44,10.59h6.41l-3.18-7.46L117.44,10.59z"/>
		<path class="st5" d="M129.47,15.36c-0.3,0-0.45-0.15-0.45-0.45V2.15c0-0.3,0.15-0.45,0.45-0.45c0.3,0,0.45,0.15,0.45,0.45v12.3
			h6.75c0.3,0,0.45,0.15,0.45,0.45c0,0.3-0.15,0.45-0.45,0.45H129.47z"/>
		<path class="st5" d="M71.41,38.71c-1.3,0-2.25-0.3-2.85-0.9c-0.6-0.6-0.9-1.54-0.9-2.84c0-0.13,0.04-0.24,0.13-0.32
			c0.09-0.09,0.19-0.13,0.32-0.13c0.13,0,0.24,0.04,0.32,0.13c0.09,0.09,0.13,0.19,0.13,0.32c0,1.04,0.21,1.77,0.63,2.2
			c0.42,0.42,1.16,0.63,2.22,0.63h3.11c1.06,0,1.8-0.21,2.22-0.63c0.42-0.42,0.63-1.15,0.63-2.2c0-1.05-0.21-1.78-0.63-2.2
			c-0.42-0.42-1.16-0.63-2.22-0.63h-3.04c-1.24,0-2.14-0.28-2.71-0.85c-0.57-0.56-0.85-1.46-0.85-2.69c0-1.23,0.28-2.13,0.85-2.69
			c0.56-0.56,1.46-0.85,2.69-0.85h3.17c1.23,0,2.13,0.28,2.69,0.84c0.56,0.56,0.85,1.45,0.85,2.68c0,0.13-0.04,0.24-0.13,0.32
			c-0.09,0.09-0.19,0.13-0.32,0.13c-0.13,0-0.24-0.04-0.32-0.13c-0.09-0.09-0.13-0.19-0.13-0.32c0-0.96-0.2-1.64-0.59-2.03
			c-0.39-0.39-1.07-0.58-2.04-0.58h-3.17c-0.97,0-1.65,0.2-2.04,0.59c-0.39,0.39-0.59,1.07-0.59,2.04c0,0.97,0.2,1.65,0.59,2.04
			c0.4,0.39,1.08,0.59,2.06,0.59h3.04c1.31,0,2.26,0.3,2.86,0.9c0.6,0.6,0.9,1.54,0.9,2.84s-0.3,2.24-0.9,2.84
			c-0.6,0.6-1.55,0.9-2.86,0.9H71.41z"/>
		<path class="st5" d="M86.11,38.73c-1.53,0-2.64-0.35-3.34-1.04c-0.69-0.69-1.04-1.81-1.04-3.34v-4.9c0-1.55,0.35-2.66,1.04-3.35
			c0.69-0.69,1.8-1.03,3.32-1.03h2.61c1.32,0,2.29,0.27,2.91,0.82c0.63,0.55,0.96,1.43,1.01,2.65c0.01,0.15-0.02,0.27-0.09,0.35
			c-0.08,0.08-0.19,0.12-0.34,0.12c-0.29,0-0.45-0.15-0.47-0.45c-0.04-0.97-0.29-1.65-0.75-2.02c-0.46-0.38-1.21-0.57-2.27-0.57
			h-2.61c-0.85,0-1.52,0.11-2.03,0.33c-0.5,0.22-0.87,0.59-1.09,1.09c-0.22,0.51-0.33,1.19-0.33,2.04v4.9
			c0,0.85,0.11,1.53,0.34,2.03c0.23,0.51,0.59,0.87,1.1,1.1c0.51,0.23,1.18,0.34,2.03,0.34h2.59c1.06,0,1.81-0.19,2.27-0.57
			c0.46-0.38,0.71-1.05,0.75-2.02c0.02-0.3,0.18-0.45,0.47-0.45c0.15,0,0.26,0.04,0.34,0.12c0.08,0.08,0.11,0.2,0.09,0.35
			c-0.05,1.22-0.39,2.1-1.01,2.65c-0.63,0.55-1.6,0.83-2.91,0.83H86.11z"/>
		<path class="st5" d="M96.53,38.73c-0.15,0-0.26-0.04-0.34-0.11c-0.08-0.08-0.11-0.19-0.11-0.34V25.52c0-0.15,0.04-0.26,0.11-0.34
			c0.08-0.08,0.19-0.11,0.34-0.11c0.15,0,0.26,0.04,0.34,0.11c0.08,0.08,0.11,0.19,0.11,0.34v5.82h9.13v-5.82
			c0-0.15,0.04-0.26,0.11-0.34c0.08-0.08,0.19-0.11,0.34-0.11c0.15,0,0.26,0.04,0.34,0.11c0.08,0.08,0.11,0.19,0.11,0.34v12.75
			c0,0.15-0.04,0.26-0.11,0.34c-0.08,0.08-0.19,0.11-0.34,0.11c-0.15,0-0.26-0.04-0.34-0.11c-0.08-0.08-0.11-0.19-0.11-0.34v-6.02
			h-9.13v6.02c0,0.15-0.04,0.26-0.11,0.34C96.79,38.69,96.68,38.73,96.53,38.73z"/>
		<path class="st5" d="M115.06,38.73c-1.53,0-2.64-0.35-3.34-1.04c-0.69-0.69-1.04-1.81-1.04-3.34v-4.9c0-1.55,0.35-2.67,1.04-3.36
			c0.69-0.69,1.8-1.03,3.32-1.02h2.61c1.53,0,2.64,0.35,3.34,1.04c0.69,0.69,1.04,1.81,1.04,3.34v4.9c0,1.53-0.35,2.64-1.04,3.34
			c-0.69,0.69-1.81,1.04-3.34,1.04H115.06z M115.06,37.82h2.59c0.85,0,1.53-0.11,2.03-0.34c0.51-0.23,0.87-0.59,1.1-1.1
			s0.34-1.18,0.34-2.03v-4.9c0-0.85-0.11-1.53-0.34-2.03c-0.23-0.51-0.59-0.87-1.1-1.1c-0.51-0.23-1.18-0.34-2.03-0.34h-2.61
			c-0.85-0.01-1.52,0.1-2.03,0.32c-0.5,0.22-0.87,0.59-1.09,1.1c-0.22,0.51-0.33,1.19-0.33,2.05v4.9c0,0.85,0.11,1.53,0.34,2.03
			s0.59,0.87,1.1,1.1C113.53,37.71,114.21,37.82,115.06,37.82z"/>
		<path class="st5" d="M129.86,38.73c-1.53,0-2.64-0.35-3.34-1.04c-0.69-0.69-1.04-1.81-1.04-3.34v-4.9c0-1.55,0.35-2.67,1.04-3.36
			c0.69-0.69,1.8-1.03,3.32-1.02h2.61c1.53,0,2.64,0.35,3.34,1.04c0.69,0.69,1.04,1.81,1.04,3.34v4.9c0,1.53-0.35,2.64-1.04,3.34
			c-0.69,0.69-1.81,1.04-3.34,1.04H129.86z M129.86,37.82h2.59c0.85,0,1.53-0.11,2.03-0.34c0.51-0.23,0.87-0.59,1.1-1.1
			c0.23-0.51,0.34-1.18,0.34-2.03v-4.9c0-0.85-0.11-1.53-0.34-2.03c-0.23-0.51-0.59-0.87-1.1-1.1c-0.51-0.23-1.18-0.34-2.03-0.34
			h-2.61c-0.85-0.01-1.52,0.1-2.03,0.32c-0.5,0.22-0.87,0.59-1.09,1.1c-0.22,0.51-0.33,1.19-0.33,2.05v4.9
			c0,0.85,0.11,1.53,0.34,2.03s0.59,0.87,1.1,1.1C128.33,37.71,129.01,37.82,129.86,37.82z"/>
		<path class="st5" d="M140.95,38.73c-0.3,0-0.45-0.15-0.45-0.45V25.52c0-0.3,0.15-0.45,0.45-0.45c0.3,0,0.45,0.15,0.45,0.45v12.3
			h6.75c0.3,0,0.45,0.15,0.45,0.45s-0.15,0.45-0.45,0.45H140.95z"/>
	</g>
</g>
</svg>
