<?xml version="1.0" encoding="utf-8"?>
<!-- Generator: Adobe Illustrator 27.0.0, SVG Export Plug-In . SVG Version: 6.00 Build 0)  -->
<svg version="1.1" id="Capa_1" xmlns="http://www.w3.org/2000/svg" xmlns:xlink="http://www.w3.org/1999/xlink" x="0px" y="0px"
	 viewBox="0 0 171.59 162.95" style="enable-background:new 0 0 171.59 162.95;" xml:space="preserve">
<style type="text/css">
	.st0{fill:#090E38;}
	.st1{fill:url(#SVGID_1_);}
	.st2{fill:#161A42;}
	.st3{fill:url(#SVGID_00000098218245334178340280000017526602763040999579_);}
	.st4{fill:url(#SVGID_00000012446224808861460610000008101080882540554887_);}
	.st5{fill:#FFFFFF;}
	.st6{fill:#E9E9EB;}
	.st7{fill:#2280C3;}
	.st8{fill:#263A6B;}
	.st9{fill:#13183B;}
	.st10{fill:#EBEBFF;}
	.st11{fill:#15336C;}
	.st12{fill:#121D3E;}
	.st13{fill:#D8CE9E;}
	.st14{fill:#5F485A;}
	.st15{fill:#17316F;}
	.st16{fill:#0A1C4F;}
	.st17{fill:#1E1A55;}
	.st18{fill:#12193B;}
	.st19{fill:#D8CD9C;}
	.st20{fill:#544A55;}
	.st21{fill:#E0E1E3;}
	.st22{fill:#15193A;}
	.st23{fill:#D6CC89;}
	.st24{fill:#434642;}
	.st25{fill:#131543;}
	.st26{fill:#3E3B38;}
	.st27{fill:#181940;}
	.st28{fill:#D7CE9D;}
	.st29{fill:#806D64;}
	.st30{opacity:0.7;fill:#6FC4D8;}
	.st31{fill:#805AE4;}
	.st32{fill:#ECB40A;}
	.st33{fill:#10B78E;}
	.st34{fill:url(#SVGID_00000107589496257667974030000010679183472158961282_);}
	.st35{fill:url(#SVGID_00000039833211887710008680000006578700762907036557_);}
	.st36{fill:url(#SVGID_00000019639114186304489420000007368897919688968591_);}
	.st37{fill:url(#SVGID_00000012452845012419176950000006998505447320739742_);}
	.st38{fill:url(#SVGID_00000042725797203901670270000002865220835437358488_);}
	.st39{fill:url(#SVGID_00000007417027619389901410000007078580655410384313_);}
	.st40{fill:url(#SVGID_00000178182790600901967010000001236280234728470702_);}
	.st41{fill:url(#SVGID_00000109013248192609414520000009153600464615957642_);}
	.st42{fill:url(#SVGID_00000084504518055425551150000015273645116731024279_);}
	.st43{fill:url(#SVGID_00000080167962591529071800000009848682177053522346_);}
	.st44{fill:url(#SVGID_00000032642509807541856940000007263100795728791951_);}
	.st45{fill:url(#SVGID_00000121260703804284687030000010226769134716997307_);}
	.st46{fill:url(#SVGID_00000008133467108593667340000006444452199646401456_);}
	.st47{fill:url(#SVGID_00000035501706537847720310000009886602075511813009_);}
	.st48{fill:url(#SVGID_00000098183413054612231170000006225491886948722586_);}
	.st49{fill:url(#SVGID_00000041266549456684389040000011244149682601854861_);}
	.st50{fill:url(#SVGID_00000161596901866566209030000010829327900168853921_);}
	.st51{fill:url(#SVGID_00000001624850712232289340000008420386516114188447_);}
	.st52{fill:url(#SVGID_00000156583153138963623780000008836972460339062672_);}
	.st53{fill:url(#SVGID_00000180352572800545845600000013686710143077951924_);}
	.st54{fill:url(#SVGID_00000011710935515439624250000007078678132477154718_);}
	.st55{fill:url(#SVGID_00000176042770419833317740000009916556316607101119_);}
	.st56{fill:url(#SVGID_00000173160508644654174820000002378816985007414656_);}
	.st57{fill:url(#SVGID_00000022557822743219134850000018287698643556135843_);}
	.st58{fill:url(#SVGID_00000089547423571913878690000009065669765075266188_);}
	.st59{fill:url(#SVGID_00000148653806649819676230000013747687006482520456_);}
	.st60{clip-path:url(#SVGID_00000172415961970355632310000005865177966467276979_);fill:#FFFFFF;}
	.st61{fill:none;stroke:#805AE4;stroke-miterlimit:10;}
	.st62{fill:url(#SVGID_00000054979380875792592870000007567800494764592776_);}
	.st63{fill:url(#SVGID_00000059994905355935421000000011235488960473763755_);}
	.st64{fill:url(#SVGID_00000170262493852251503090000012129269236082393253_);}
	.st65{fill:url(#SVGID_00000168103900253172558960000002321824384013673887_);}
	.st66{fill:url(#SVGID_00000142158190307859418830000010659846503652735618_);}
	.st67{fill:url(#SVGID_00000109726144890399707340000007598564241351610023_);}
	.st68{fill:url(#SVGID_00000167366115870144706080000015594566299677696179_);}
	.st69{fill:url(#SVGID_00000165229168327747084380000017908829352305736366_);}
	.st70{fill:url(#SVGID_00000166675266646649916340000005042196584021239708_);}
	.st71{fill:url(#SVGID_00000091705086522810319010000001731403171677163963_);}
	.st72{fill:url(#SVGID_00000017502297331444296920000016664596845543426482_);}
	.st73{fill:url(#SVGID_00000098219557209911706960000008081418668023942586_);}
	.st74{fill:#DDBB1B;}
	.st75{fill:#49CA80;}
	.st76{fill:#CF78C6;}
	.st77{fill:#BDACFF;}
	.st78{fill:#37368D;}
	.st79{fill:#E11E5E;}
	.st80{fill:#EB9F49;}
	.st81{fill:#FF6B6B;}
	.st82{fill:#38ABE6;}
	.st83{fill:url(#SVGID_00000020364817070615545400000008719430914912079515_);}
	.st84{fill:url(#SVGID_00000115515838499382626980000013278582372224052106_);}
	.st85{fill:url(#SVGID_00000119103608244511059130000012399748528156516763_);}
	.st86{fill:#E78A7E;}
	.st87{fill:#E69C78;}
	.st88{fill:#FF80E7;}
	.st89{fill:#E86480;}
	.st90{fill:url(#SVGID_00000134969087609635339460000005522632515787306406_);}
	.st91{fill:url(#SVGID_00000155860269693548173060000004737347203906433703_);}
	.st92{fill:url(#SVGID_00000155837860645037827610000010903075649049080457_);}
	.st93{fill:url(#SVGID_00000146479811644319554250000018013338271399975303_);}
	.st94{fill:url(#SVGID_00000132088803831649301550000008293275200565241785_);}
	.st95{fill:url(#SVGID_00000168114450048714850170000012887170694422482102_);}
	.st96{fill:url(#SVGID_00000059989796658367813350000006846820173953145216_);}
	.st97{fill:url(#SVGID_00000120537455257908470590000004332192112580767132_);}
	.st98{fill:url(#SVGID_00000127731686167781550810000004596933176826719894_);}
	.st99{fill:url(#SVGID_00000144334130543638668460000016601221480551235513_);}
	.st100{fill:url(#SVGID_00000098913718697783499800000013901280237821439390_);}
	.st101{fill:url(#SVGID_00000150817034943498413110000008693702618386521492_);}
	.st102{fill:url(#SVGID_00000176030326195138979900000010104181448665831350_);}
	.st103{fill:url(#SVGID_00000117646175844308601800000000009239019598208429_);}
	.st104{fill:url(#SVGID_00000124850280180856280370000005741182398590684046_);}
	.st105{fill:url(#SVGID_00000001652952793906236070000015930775930580627084_);}
	.st106{fill:url(#SVGID_00000050641486301814850400000007979917874738283674_);}
	.st107{fill:url(#SVGID_00000162317680792663879490000015728985111020604041_);}
	.st108{fill:url(#SVGID_00000080916569846550981460000003976541641924915607_);}
	.st109{fill:url(#SVGID_00000170978845711041448680000006396720593300820366_);}
	.st110{fill:url(#SVGID_00000030476473191114133440000012724002936808466611_);}
	.st111{fill:url(#SVGID_00000113313045697051072950000014896385202606975141_);}
	.st112{fill:url(#SVGID_00000147202390061792266330000010887995923783803532_);}
	.st113{fill:url(#SVGID_00000127762589114516848900000013020378282298591380_);}
	.st114{fill:url(#SVGID_00000169519669067049567140000000374661732772832917_);}
	.st115{fill:url(#SVGID_00000067232668418881867590000009240643013266023102_);}
	.st116{fill:url(#SVGID_00000089537351765318143890000002011251414977137808_);}
	.st117{fill:url(#SVGID_00000180336399466754574610000014760208734459366034_);}
	.st118{fill:url(#SVGID_00000051348258370258216310000016513742308392604329_);}
	.st119{fill:url(#SVGID_00000129906091638018276910000012113572309880418176_);}
	.st120{fill:url(#SVGID_00000026145595056706957130000018210985678253606332_);}
	.st121{fill:url(#SVGID_00000029013365516098161350000018130760827738756024_);}
	.st122{fill:url(#SVGID_00000137829510354938700550000017558843829134853290_);}
	.st123{fill:url(#SVGID_00000124144268944041425780000018389185714271287435_);}
	.st124{fill:url(#SVGID_00000159444983291357240600000010392681530429444994_);}
	.st125{fill:url(#SVGID_00000039826482189662201750000018199736686267347388_);}
	.st126{fill:url(#SVGID_00000023959274723334345150000014667832901936053135_);}
	.st127{fill:url(#SVGID_00000056422943511577564160000002884762032880375741_);}
	.st128{fill:url(#SVGID_00000183952648966832517960000008578631803542902669_);}
	.st129{fill:url(#SVGID_00000020377803561948568050000018115905441320480944_);}
	.st130{fill:url(#SVGID_00000147203834223244893480000001811812012535117198_);}
	.st131{fill:url(#SVGID_00000170967226071891296660000005341322483202974868_);}
	.st132{fill:url(#SVGID_00000066499832720158040130000003105424210167753138_);}
	.st133{fill:url(#SVGID_00000052095845470572524550000017999230687016259511_);}
	.st134{fill:url(#SVGID_00000050632224359673093740000000170069871445158786_);}
	.st135{fill:url(#SVGID_00000019654435901313207740000001432027140833643165_);}
	.st136{fill:url(#SVGID_00000023981016723404828480000002115962673439461761_);}
	.st137{fill:url(#SVGID_00000086692765702617059270000009182855716089900160_);}
	.st138{fill:url(#SVGID_00000100344892870718857660000017205914198312497851_);}
	.st139{fill:url(#SVGID_00000034802680486772185000000011373093056328281243_);}
	.st140{fill:url(#SVGID_00000173863546996333006580000005102289958216784785_);}
	.st141{fill:url(#SVGID_00000121972020988973237050000015818919027255466403_);}
	.st142{fill:url(#SVGID_00000046305773340224931430000015278389398612468378_);}
	.st143{fill:url(#SVGID_00000171708553606122867250000018138888114694024593_);}
	.st144{fill:url(#SVGID_00000139974926148760540190000008809723988729682078_);}
	.st145{fill:url(#SVGID_00000088825361483994546970000010362948957334722209_);}
	.st146{fill:url(#SVGID_00000178185199361025239980000009878263990958717084_);}
	.st147{fill:url(#SVGID_00000066499038136026395880000012709685964736005280_);}
	.st148{fill:url(#SVGID_00000041995529684934812020000015374105790780263319_);}
	.st149{fill:url(#SVGID_00000181768756164787492440000008612675119039878057_);}
	.st150{fill:url(#SVGID_00000088117252123196570650000000499243782468832667_);}
	.st151{fill:url(#SVGID_00000128473258224333337330000011978798391987346070_);}
	.st152{fill:url(#SVGID_00000102545590308264187750000005452481569637938090_);}
	.st153{fill:url(#SVGID_00000153705667448352944190000002573454793008564903_);}
	.st154{fill:url(#SVGID_00000062189188659305638200000002637348055282198950_);}
	.st155{fill:url(#SVGID_00000017476972375610527320000005363433264706626224_);}
	.st156{fill:url(#SVGID_00000103958433260311229870000016051547346250679938_);}
	.st157{fill:url(#SVGID_00000005975773108203264570000013979096716667340458_);}
	.st158{fill:url(#SVGID_00000096747602672177549720000004602968930031963817_);}
	.st159{fill:url(#SVGID_00000135664677074976002300000001084494073416096170_);}
	.st160{fill:url(#SVGID_00000109727542672077418160000001070697811212636606_);}
	.st161{fill:url(#SVGID_00000129204529850784122440000013466850285721689731_);}
	.st162{fill:url(#SVGID_00000013154188688569638190000012021034267643227303_);}
	.st163{fill:none;stroke:#090E38;stroke-width:2;stroke-miterlimit:10;}
	.st164{fill:#803CFF;}
	.st165{fill:none;stroke:#803CFF;stroke-miterlimit:10;}
	.st166{fill:#848698;}
	.st167{fill:url(#SVGID_00000111192342360033887960000018354478668125730209_);}
	.st168{fill:url(#SVGID_00000031208203259477172700000010094157111886855345_);}
	.st169{fill:url(#SVGID_00000087370599293324723830000010770189659167734440_);}
	.st170{fill:url(#SVGID_00000162322556327738792730000001353128507674809499_);}
	.st171{fill:url(#SVGID_00000105411527603048657720000005617659945742903486_);}
	.st172{fill:url(#SVGID_00000129194844167646209310000001234898301489196433_);}
	.st173{fill:url(#SVGID_00000020382116798923915080000010686558485283767988_);}
	.st174{fill:url(#SVGID_00000062158826740231148920000002351661754332531857_);}
	.st175{fill:#22274C;}
	.st176{fill:url(#SVGID_00000073689115780741608530000002792881741248750473_);}
	.st177{fill:url(#SVGID_00000056404533838870301040000017992010348266409095_);}
	.st178{fill:url(#SVGID_00000003792721092163118360000010326836017950191235_);}
	.st179{fill:url(#SVGID_00000054237519192551782540000007123458441175128993_);}
	.st180{fill:url(#SVGID_00000036959590170563168180000005360695991880569481_);}
	.st181{fill:url(#SVGID_00000015350950523572957080000011507153994974233230_);}
	.st182{fill:url(#SVGID_00000123413508854224926240000013207440255603145144_);}
	.st183{fill:url(#SVGID_00000023265955022500922790000014974376384435469191_);}
	.st184{fill:url(#SVGID_00000016795232718849579680000005679983320664527275_);}
	.st185{fill:url(#SVGID_00000037672719783969290160000017843620457113035657_);}
	.st186{fill:url(#SVGID_00000054962371684262141560000010916139182586660753_);}
	.st187{fill:url(#SVGID_00000124875229304774498800000006696881575047302034_);}
	.st188{fill:url(#SVGID_00000052070853085362096570000004969136336083218834_);}
	.st189{fill:url(#SVGID_00000099624972844789162910000015683230589348530878_);}
	.st190{fill:url(#SVGID_00000059992300607377163730000010519104371993500604_);}
	.st191{fill:url(#SVGID_00000098216677927752827970000004546920971436793488_);}
	.st192{fill:url(#SVGID_00000039821578835027169800000002425346636399848082_);}
	.st193{fill:url(#SVGID_00000071541363652641881600000010966182934227950229_);}
	.st194{fill:url(#SVGID_00000024004175147834949540000002946258204853772685_);}
	.st195{fill:url(#SVGID_00000114793058931433347900000012868104718524300981_);}
	.st196{fill:url(#SVGID_00000158015990135133531390000002220770324783256493_);}
	.st197{fill:url(#SVGID_00000059294010429001562360000002374318336432703144_);}
	.st198{fill:url(#SVGID_00000044861178721260419480000005567459366788952747_);}
	.st199{fill:url(#SVGID_00000005981981886971673210000014114127354790253735_);}
	.st200{fill:url(#SVGID_00000164476208146004170430000010987052223605070001_);}
	.st201{fill:url(#SVGID_00000020379039168307911580000005324362889566766220_);}
	.st202{fill:url(#SVGID_00000005268814479205544250000004400200376197114268_);}
	.st203{fill:url(#SVGID_00000082344354105187529310000011842578307098786963_);}
	.st204{fill:url(#SVGID_00000119808033789270008340000000643732599689129356_);}
	.st205{fill:url(#SVGID_00000080921861622666313660000015387838330054056099_);}
	.st206{fill:url(#SVGID_00000162353137552402598880000001749614024086329789_);}
	.st207{fill:url(#SVGID_00000077287018501823722030000006413021894629040005_);}
	.st208{fill:url(#SVGID_00000065772986528772589100000005954555713336324486_);}
	.st209{fill:url(#SVGID_00000162351220439910148450000011741779962655370908_);}
	.st210{fill:url(#SVGID_00000030472711780573872490000009022226692377853360_);}
	.st211{fill:url(#SVGID_00000074406914911387397080000017806407107254616470_);}
	.st212{fill:none;stroke:#FFFFFF;stroke-linecap:round;stroke-miterlimit:10;}
	.st213{fill:url(#SVGID_00000071547336309633048130000006751922554778983319_);}
	.st214{fill:url(#SVGID_00000000943239600053928860000011629436481323925434_);}
	.st215{fill:url(#SVGID_00000147910937286930478180000001871193539136829841_);}
	.st216{fill:url(#SVGID_00000172403609090301229570000002570160270706093465_);}
	.st217{fill:url(#SVGID_00000154403082308244463390000014008291049305057425_);}
	.st218{fill:url(#SVGID_00000052825317891270700090000009422901184654059683_);}
	.st219{fill:url(#SVGID_00000071555446072177362350000003120241286120018095_);}
	.st220{fill:url(#SVGID_00000039112192905848296120000012062360304457958074_);}
	.st221{fill:url(#SVGID_00000118369576517318793960000013148837856587782285_);}
	.st222{fill:url(#SVGID_00000106143950290561737570000009889513835909259404_);}
	.st223{fill:url(#SVGID_00000166642450874234936270000006611964480584967586_);}
	.st224{fill:url(#SVGID_00000116214370602967389860000003941671347042275513_);}
	.st225{fill:url(#SVGID_00000060726672661748164450000009248993660231058346_);}
	.st226{fill:url(#SVGID_00000101794263521736019770000012242913501510237569_);}
	.st227{fill:url(#SVGID_00000044866651294327020570000006468748651928172934_);}
	.st228{fill:url(#SVGID_00000029745418326281126510000017021643918067562657_);}
	.st229{fill:url(#SVGID_00000051378560524276279100000011621265418813402545_);}
	.st230{fill:url(#SVGID_00000181778235581778709370000012341745533993003915_);}
	.st231{fill:url(#SVGID_00000025407633013490951430000002218766744383836589_);}
	.st232{fill:url(#SVGID_00000040541602324317604630000017305203848687962775_);}
	.st233{fill:url(#SVGID_00000056387439014834456850000013181434061556487605_);}
	.st234{fill:none;stroke:#22274C;stroke-width:0.5;stroke-miterlimit:10;}
	.st235{fill:url(#SVGID_00000021820479931201376800000002356953571429725350_);}
	.st236{fill:none;stroke:#22274C;stroke-miterlimit:10;}
	.st237{fill:url(#SVGID_00000012455282909786359200000015901806209013436309_);}
	.st238{fill:url(#SVGID_00000123408742254761212960000000053039329033121689_);}
	.st239{fill:url(#SVGID_00000000918719844663902950000015556345607048338615_);}
	.st240{fill:url(#SVGID_00000036935390502220497630000017312513985971351453_);}
	.st241{fill:url(#SVGID_00000132807785414068861120000008819028620937947578_);}
	.st242{fill:url(#SVGID_00000080199804890360590840000000080622022039758253_);}
	.st243{fill:url(#SVGID_00000007396873153448589570000006707383211278357173_);}
	.st244{fill:url(#SVGID_00000172432469643249350110000001018464555615689142_);}
	.st245{fill:url(#SVGID_00000127031900790687155530000000641380463403773362_);}
	.st246{fill:url(#SVGID_00000080902379709770337310000016203088701017101478_);}
	.st247{fill:url(#SVGID_00000042006463557601788790000014457500204665832321_);}
	.st248{fill:url(#SVGID_00000093890881921782679810000007581541507772417425_);}
	.st249{fill:none;stroke:#E11E5E;stroke-miterlimit:10;}
	.st250{fill:url(#SVGID_00000111892164742708778670000002502933321949747586_);}
	.st251{fill:url(#SVGID_00000003082025383387775210000001713284289272049343_);}
	.st252{fill:url(#SVGID_00000026134545138643778240000016814160309130230679_);}
	.st253{fill:url(#SVGID_00000134250699942407698790000005531745201802888632_);}
	.st254{fill:url(#SVGID_00000132792642619056954770000012452000326272276132_);}
	.st255{fill:url(#SVGID_00000142858874877618976620000007933645381407514538_);}
	.st256{fill:url(#SVGID_00000135688394560263679530000002525446580725496227_);}
	.st257{fill:url(#SVGID_00000064311639697945883170000004368774118329658022_);}
	.st258{fill:url(#SVGID_00000044866435096784740190000017251369538738690494_);}
	.st259{fill:url(#SVGID_00000034069444717253914570000017459931365191813523_);}
	.st260{fill:url(#SVGID_00000005963068102501698030000011669869269327243145_);}
	.st261{fill:url(#SVGID_00000155107000299962150850000010176309386110252180_);}
	.st262{fill:url(#SVGID_00000000936394450402796300000009469774066146637471_);}
	.st263{fill:url(#SVGID_00000166676928183371744290000007428959026573507463_);}
	.st264{fill:url(#SVGID_00000052071565630386930710000016498959159081498037_);}
	.st265{fill:url(#SVGID_00000138540560564742968360000010190436688397740734_);}
	.st266{fill:url(#SVGID_00000070807711892980090230000012875930859914811523_);}
	.st267{fill:url(#SVGID_00000046340422820389986810000000514199823303853987_);}
	.st268{fill:url(#SVGID_00000147209344305385629440000014804844628820263334_);}
	.st269{fill:url(#SVGID_00000136392655072168416550000014683947680560567980_);}
	.st270{fill:url(#SVGID_00000144330397979498673390000009389956736230463392_);}
	.st271{fill:url(#SVGID_00000129913723273291285960000014746083819241005696_);}
	.st272{fill:url(#SVGID_00000060751442415218436410000010237580016767960509_);}
	.st273{fill:none;stroke:#FFFFFF;stroke-width:0.75;stroke-miterlimit:10;}
	.st274{fill:none;stroke:#FFFFFF;stroke-width:0.75;stroke-linecap:round;stroke-miterlimit:10;}
	.st275{fill-rule:evenodd;clip-rule:evenodd;fill:none;stroke:#FFFFFF;stroke-width:0.5;stroke-miterlimit:10;}
	
		.st276{fill-rule:evenodd;clip-rule:evenodd;fill:none;stroke:#FFFFFF;stroke-width:0.5;stroke-linecap:round;stroke-miterlimit:10;}
	.st277{fill:url(#SVGID_00000127035977245138528130000016649369357512098462_);}
	.st278{fill:url(#SVGID_00000123405849913944318020000008918170080006635671_);}
	.st279{fill:url(#SVGID_00000044883597933999129450000004661434790802674354_);}
	.st280{fill:url(#SVGID_00000073696261707467281800000014908995618368008612_);}
	.st281{fill:url(#SVGID_00000068656299557558574920000007538839111812679099_);}
	.st282{fill:url(#SVGID_00000066476303085032343130000016726886978950833300_);}
	.st283{fill:url(#SVGID_00000067944421334497528090000010358225242327585200_);}
	.st284{fill:url(#SVGID_00000156567785916904570710000006519701016391937947_);}
	.st285{fill:url(#SVGID_00000146476290199602920760000011222782386585593243_);}
	.st286{fill:url(#SVGID_00000005982543001419415240000012627765255260730264_);}
	.st287{fill:url(#SVGID_00000091732769830908786270000000943362486475769751_);}
	.st288{fill:url(#SVGID_00000057838916743580311110000004578124991674829239_);}
	.st289{fill:url(#SVGID_00000097482820374761267060000014852179346072515501_);}
	.st290{fill:url(#SVGID_00000072270534331659203210000014627789744156251056_);}
	.st291{fill:url(#SVGID_00000179636836230751384250000007457898064745488522_);}
	.st292{fill:url(#SVGID_00000031909452496406993480000002173335035777340809_);}
	.st293{fill:url(#SVGID_00000005249849764230546760000001938462517380397744_);}
	.st294{fill:url(#SVGID_00000153706533022862533100000016517606650632880284_);}
	.st295{fill:url(#SVGID_00000062902828894538059530000017578923487595761286_);}
	.st296{fill:url(#SVGID_00000155105946133172337470000006308469045990763444_);}
	.st297{fill:url(#SVGID_00000014610351911410176640000006245885896569712048_);}
	.st298{fill:url(#SVGID_00000153693661353482359600000017093038281359585433_);}
	.st299{fill:url(#SVGID_00000134250924379290053650000017373981899554345119_);}
	.st300{fill:url(#SVGID_00000047017892985626113270000013447958225071647890_);}
	.st301{fill:url(#SVGID_00000144295630012864711320000005485403787224447642_);}
	.st302{clip-path:url(#SVGID_00000138566692504834108890000010308402145339129263_);fill:#22264C;}
	.st303{clip-path:url(#SVGID_00000098915012395492235270000003084811234825299378_);fill:#FFFFFF;}
	.st304{clip-path:url(#SVGID_00000036970318947567501100000003899500891518195634_);fill:#FFFFFF;}
	.st305{clip-path:url(#SVGID_00000049908085834452849850000006108401109672926397_);fill:#FFFFFF;}
	.st306{clip-path:url(#SVGID_00000099656814599773163630000013941973576449462966_);fill:#FFFFFF;}
	.st307{clip-path:url(#SVGID_00000031195489033167750210000004084065882314482615_);fill:#FFFFFF;}
	.st308{clip-path:url(#SVGID_00000182516204476634354660000005790858373351051151_);fill:#FFFFFF;}
	.st309{clip-path:url(#SVGID_00000039854806742848620990000017975196646121183157_);fill:#FFFFFF;}
	.st310{clip-path:url(#SVGID_00000049914160870850888170000004035541602548635837_);fill:#FFFFFF;}
	.st311{clip-path:url(#SVGID_00000170960590018701512230000011499484578467252106_);fill:#FFFFFF;}
	.st312{clip-path:url(#SVGID_00000155107737614411344640000014537380078797371272_);fill:#FFFFFF;}
	.st313{clip-path:url(#SVGID_00000106870198982521350310000016093111148914604713_);fill:#FFFFFF;}
	.st314{fill:url(#SVGID_00000088839601704726568110000001167254689768034452_);}
	.st315{fill:url(#SVGID_00000093150827805412708900000000032284118517367446_);}
	.st316{fill:url(#SVGID_00000119798310864437653470000016225432601520516243_);}
	.st317{fill:url(#SVGID_00000088098318371760381620000011339807010962951832_);}
	.st318{fill:url(#SVGID_00000001633842321570415340000002200514617190330755_);}
	.st319{fill:url(#SVGID_00000081645132777534216520000008771617968973757366_);}
	.st320{fill:url(#SVGID_00000104680572385826976270000002016555276015859901_);}
	.st321{fill:url(#SVGID_00000057832360517911305270000006571842945999087270_);}
	.st322{fill:url(#SVGID_00000085220623108879063200000000272045226018602656_);}
	.st323{fill:url(#SVGID_00000023265811847019998170000012609466625284852364_);}
	.st324{fill:url(#SVGID_00000119078620428059646420000013988282156048310412_);}
	.st325{fill:url(#SVGID_00000090275906707538852370000011111178267605270437_);}
	.st326{fill:url(#SVGID_00000003794727172186583160000004595255820538266788_);}
	.st327{fill:url(#SVGID_00000059306441441150103350000017204872850295960199_);}
	.st328{fill:url(#SVGID_00000145739237871378151420000015970819718618605200_);}
	.st329{fill:url(#SVGID_00000171705673885467617280000003529403221004247704_);}
	.st330{fill:url(#SVGID_00000127011912144821688600000010609393603582375822_);}
	.st331{fill:url(#SVGID_00000088124470979925899930000016752353652559423934_);}
	.st332{fill:url(#SVGID_00000077319378432591220640000010520545762448909458_);}
	.st333{fill:url(#SVGID_00000075128376894972605060000015741523900835286189_);}
	.st334{fill:url(#SVGID_00000175319432197755512610000001212563861972282509_);}
	.st335{fill:url(#SVGID_00000048465363097975802020000007190282320645606301_);}
	.st336{fill:url(#SVGID_00000036218583213566937470000014871602728648551609_);}
	.st337{fill:url(#SVGID_00000082345638601826772310000000119471031437764006_);}
	.st338{fill:url(#SVGID_00000138537370793252037580000003359166423980323255_);}
	.st339{fill:url(#SVGID_00000117644982298878994220000012899467861571225477_);}
	.st340{fill:url(#SVGID_00000128459053621136236140000014416164836353424266_);}
	.st341{fill:url(#SVGID_00000176039779627381297700000010604355052732753051_);}
	.st342{fill:url(#SVGID_00000072964824110931205170000011732356509100397992_);}
	.st343{fill:url(#SVGID_00000163061177836538415440000009455354690800014268_);}
	.st344{fill:url(#SVGID_00000054960144229947582420000004066808133508791688_);}
	.st345{fill:url(#SVGID_00000049929338937250279570000001259865264275532427_);}
	.st346{fill:url(#SVGID_00000067228004297338876340000010147042898714982294_);}
	.st347{fill:url(#SVGID_00000143582404960010688920000016793726111893700771_);}
	.st348{fill:url(#SVGID_00000016761214309890336340000012078549700339876225_);}
	.st349{fill:url(#SVGID_00000087405979472106171810000008124736459914824576_);}
	.st350{fill:url(#SVGID_00000085971116103835746550000001268275620073252027_);}
	.st351{fill:url(#SVGID_00000120534993626948517210000004280218305621661325_);}
	.st352{fill:url(#SVGID_00000128456831629496182660000009249752166820997817_);}
	.st353{fill:url(#SVGID_00000116939136218552806430000010090810663650771586_);}
	.st354{fill:#8A8989;}
	.st355{fill:#616160;}
	.st356{fill-rule:evenodd;clip-rule:evenodd;fill:#FFFFFF;}
	.st357{fill-rule:evenodd;clip-rule:evenodd;fill:#8A8989;}
	.st358{fill-rule:evenodd;clip-rule:evenodd;fill:#797879;}
	.st359{clip-path:url(#XMLID_00000045589762298834112890000001738842689648837535_);}
	.st360{opacity:0.2;fill:#E1E3E7;}
	.st361{fill-rule:evenodd;clip-rule:evenodd;fill:#616160;}
	.st362{fill:#E1E3E7;}
	.st363{fill:#FFFFFF;stroke:#FFFFFF;stroke-width:4;stroke-miterlimit:10;}
	.st364{fill:#58595B;}
	.st365{fill:#80A926;}
	.st366{clip-path:url(#SVGID_00000062876645747218640270000007547034835534372770_);}
	.st367{clip-path:url(#SVGID_00000036250066317306606730000008374089216719337346_);}
	.st368{clip-path:url(#SVGID_00000104701176297229219050000000991147400657769917_);}
	.st369{clip-path:url(#SVGID_00000145740543871096692300000010083329240417168281_);}
	.st370{clip-path:url(#SVGID_00000042712637458680071450000002322284972668855444_);}
	.st371{clip-path:url(#SVGID_00000031187667788176635790000016342966226199711889_);}
	.st372{clip-path:url(#SVGID_00000067947342962721220350000003375152085044656800_);}
	.st373{clip-path:url(#SVGID_00000159433652282165588150000003401467375617791620_);}
	.st374{clip-path:url(#SVGID_00000057145984543843888350000000455984312983118010_);}
	.st375{clip-path:url(#SVGID_00000120538294334857292460000013138679115099440039_);}
	.st376{fill:#1D1E1C;}
	.st377{opacity:0.36;}
	.st378{opacity:0.57;}
	.st379{fill:none;}
	.st380{fill:#01CEA6;}
	.st381{fill:#01261F;}
	.st382{fill:#E68000;}
	.st383{fill:#261400;}
	.st384{fill:#E63D80;}
	.st385{fill:#2D0013;}
	.st386{fill:#3695BB;}
	.st387{fill:#032732;}
	.st388{fill:#CDE4EC;}
	.st389{fill:#DA80E7;}
	.st390{fill:#B072BD;}
	.st391{fill:#855994;}
	.st392{fill:#180024;}
	.st393{fill:#DD80EA;}
	.st394{fill:#BB80E7;}
	.st395{fill:#9B77C0;}
	.st396{fill:#C080ED;}
	.st397{fill:#1F0140;}
	.st398{fill:#80619A;}
	.st399{fill:url(#SVGID_00000056388611980546695400000002840284258783699875_);}
	.st400{fill:url(#SVGID_00000128467785361673326890000013850291330035639202_);}
	.st401{fill:url(#SVGID_00000136405294635848522270000000895279703544208821_);}
	.st402{fill:url(#SVGID_00000087414016376981603780000006694206993958500522_);}
	.st403{fill:url(#SVGID_00000124873567204537860840000011952707331291510669_);}
	.st404{fill:url(#SVGID_00000141415377199449601560000000825540264009248700_);}
	.st405{fill:url(#SVGID_00000155863592128586441410000005200589844156063132_);}
	.st406{fill:url(#SVGID_00000005228572124593963670000013839237347782441099_);}
	.st407{fill:url(#SVGID_00000170994135676954182410000013804361089349468550_);}
	.st408{fill:url(#SVGID_00000097497572860745846160000003385473492177215917_);}
	.st409{fill:url(#SVGID_00000111159692412313461350000005657715659082681274_);}
	.st410{fill:url(#SVGID_00000036241389586610110000000013452640529838618761_);}
	.st411{fill:none;stroke:#464A69;stroke-miterlimit:10;}
	.st412{fill:url(#SVGID_00000091728384060821520390000007945333322576951476_);}
	.st413{fill:url(#SVGID_00000059990748042090544520000008972741919391093931_);}
	.st414{fill:url(#SVGID_00000065070621189234846220000012939361236868060295_);}
	.st415{fill:url(#SVGID_00000136386238326620150050000003425768763413313969_);}
	.st416{fill:url(#SVGID_00000143607934512312082800000004559561106322464905_);}
	.st417{fill:url(#SVGID_00000147913963133397040800000009864981727686774149_);}
	.st418{fill:url(#SVGID_00000106853017573969462240000002204572345395463565_);}
	.st419{fill:url(#SVGID_00000034790033332361166530000005258801917651477418_);}
	.st420{fill:url(#SVGID_00000096016777154454285950000000815980871329458816_);}
	.st421{fill:url(#SVGID_00000173857618666730957120000012432940358348794544_);}
	.st422{fill:url(#SVGID_00000088133912239031522660000000432031286249473172_);}
	.st423{fill:url(#SVGID_00000059281625488080620290000005101441432256021893_);}
	.st424{fill:url(#SVGID_00000088824515543709714030000005190430519741891994_);}
	.st425{fill:url(#SVGID_00000031202225887438196290000018153203277945409158_);}
	.st426{fill:none;stroke:#22274C;stroke-width:0.75;stroke-miterlimit:10;}
	.st427{fill:none;stroke:#FFFFFF;stroke-width:2;stroke-miterlimit:10;}
	.st428{fill:url(#SVGID_00000127744700535553187360000009394875461348321691_);}
	.st429{fill:url(#SVGID_00000113320038304640156260000006884360065966013624_);}
	.st430{fill:url(#SVGID_00000114049752695545096020000003375960457202805944_);}
	.st431{fill:url(#SVGID_00000183246416713584857920000004081255106113160890_);}
	.st432{fill:url(#SVGID_00000088119166065062321160000011568548450571614384_);}
	.st433{fill:url(#SVGID_00000138533283299422000470000013899435856319996574_);}
	.st434{fill:url(#SVGID_00000122710258680558305320000017531948070228495775_);}
	.st435{fill:url(#SVGID_00000034785318836131556330000015791183417531456144_);}
	.st436{fill:url(#SVGID_00000167354150165996687570000009679008882201055363_);}
	.st437{fill:url(#SVGID_00000011717068126085947700000007901841841884521616_);}
	.st438{fill:url(#SVGID_00000057849138918083712320000008878943104418740120_);}
	.st439{fill:url(#SVGID_00000060015522767012894340000010055993917631992989_);}
	.st440{fill:url(#SVGID_00000045619991567108029470000017264214979026874805_);}
	.st441{fill:url(#SVGID_00000067921499612279602120000014869873780575819929_);}
	.st442{fill:url(#SVGID_00000101072851353508399200000005216222711847423917_);}
	.st443{fill:url(#SVGID_00000173856869186493599840000004157716873020598960_);}
	.st444{fill:url(#SVGID_00000020373219767177683710000009483676843719586213_);}
	.st445{fill:url(#SVGID_00000173864846734539298960000015435793493891476895_);}
	.st446{fill:url(#SVGID_00000017492094063125853950000014919988208331923630_);}
	.st447{fill:url(#SVGID_00000110444754075957677690000014141880847457428624_);}
	.st448{fill:url(#SVGID_00000091693720304281381300000008887668495376072379_);}
	.st449{fill:url(#SVGID_00000147184210505328919240000001890044476826893725_);}
	.st450{fill:url(#SVGID_00000029010976968714935040000004957151103338831539_);}
	.st451{fill:url(#SVGID_00000182499213416601851920000000986472722702719633_);}
	.st452{fill:url(#SVGID_00000098209209862284900630000017146850830191009152_);}
	.st453{fill:url(#SVGID_00000160869556804990029800000014723420428939798207_);}
	.st454{fill:url(#SVGID_00000031183418782428166580000004076519217778097597_);}
	.st455{fill:none;stroke:#8F8F8F;stroke-width:0.75;stroke-miterlimit:10;}
	.st456{fill:#8F8F8F;stroke:#8F8F8F;stroke-width:0.25;stroke-miterlimit:10;}
	.st457{fill:#8F8F8F;}
	.st458{fill:none;stroke:#8F8F8F;stroke-width:0.25;stroke-miterlimit:10;}
	.st459{fill:url(#SVGID_00000053521951922514266170000009834309873172285335_);}
	.st460{fill:url(#SVGID_00000075854318408340400400000018369811876318730113_);}
	.st461{fill:url(#SVGID_00000111188469558340123830000015741825046469598848_);}
	.st462{fill:url(#SVGID_00000123430136500983821330000018025517012124783512_);}
	.st463{fill:url(#SVGID_00000042007716184539073690000001678863461810062989_);}
	.st464{fill:url(#SVGID_00000160168674577568372190000012014280969172571825_);}
	.st465{fill:url(#SVGID_00000012444482351557237220000005057403287969111741_);}
	.st466{fill:url(#SVGID_00000170964216152284690580000012878091260339402682_);}
	.st467{fill:url(#SVGID_00000044153058275442946070000004899975392402481299_);}
	.st468{fill:url(#SVGID_00000008835375790943964740000016570677235531798715_);}
</style>
<g>
	<g>
		<g>
			<linearGradient id="SVGID_1_" gradientUnits="userSpaceOnUse" x1="0" y1="91.5195" x2="171.5864" y2="91.5195">
				<stop  offset="0" style="stop-color:#F48061"/>
				<stop  offset="0.1229" style="stop-color:#EBC91B"/>
				<stop  offset="0.5" style="stop-color:#49D881"/>
				<stop  offset="1" style="stop-color:#38B9F4"/>
			</linearGradient>
			<path class="st1" d="M166.88,21.09c2.05,0,3.71,1.66,3.71,3.71v133.44c0,2.05-1.66,3.71-3.71,3.71H4.71
				c-2.05,0-3.71-1.66-3.71-3.71V24.8c0-2.05,1.66-3.71,3.71-3.71H166.88 M166.88,20.09H4.71C2.11,20.09,0,22.2,0,24.8v133.44
				c0,2.6,2.11,4.71,4.71,4.71h162.17c2.6,0,4.71-2.11,4.71-4.71V24.8C171.59,22.2,169.47,20.09,166.88,20.09L166.88,20.09z"/>
		</g>
		<circle class="st0" cx="85.79" cy="21.09" r="20.09"/>
		<g>
			<g>
				
					<linearGradient id="SVGID_00000144310620682068073690000006481249956401086125_" gradientUnits="userSpaceOnUse" x1="100.7004" y1="35.999" x2="70.886" y2="6.1846">
					<stop  offset="0" style="stop-color:#F48061"/>
					<stop  offset="0.1229" style="stop-color:#EBC91B"/>
					<stop  offset="0.5" style="stop-color:#49D881"/>
					<stop  offset="1" style="stop-color:#38B9F4"/>
				</linearGradient>
				<path style="fill:url(#SVGID_00000144310620682068073690000006481249956401086125_);" d="M85.79,1c11.1,0,20.09,9,20.09,20.09
					s-9,20.09-20.09,20.09s-20.09-9-20.09-20.09S74.7,1,85.79,1 M85.79,0C74.16,0,64.7,9.46,64.7,21.09s9.46,21.09,21.09,21.09
					s21.09-9.46,21.09-21.09S97.42,0,85.79,0L85.79,0z"/>
			</g>
		</g>
	</g>
	<g>
		<line class="st455" x1="16.21" y1="125.68" x2="155.34" y2="125.68"/>
		<g>
			<g>
				<path class="st456" d="M43.41,147.15h-5.15c-0.32,0-0.58-0.26-0.58-0.58v-6.99c0-0.32,0.26-0.58,0.58-0.58h7.53
					c0.32,0,0.58,0.26,0.58,0.58v2.76h-0.22v-2.76c0-0.2-0.16-0.36-0.36-0.36h-7.53c-0.2,0-0.36,0.16-0.36,0.36v6.99
					c0,0.2,0.16,0.36,0.36,0.36h5v-2.27c0-0.32,0.26-0.58,0.58-0.58h2.08c0.13,0,0.25,0.08,0.3,0.2c0.05,0.12,0.02,0.26-0.07,0.36
					l-2.34,2.34C43.71,147.09,43.57,147.15,43.41,147.15z M43.85,144.3c-0.2,0-0.36,0.16-0.36,0.36v2.26
					c0.07-0.01,0.13-0.05,0.18-0.1l2.34-2.34c0.05-0.05,0.03-0.1,0.02-0.12c-0.01-0.02-0.03-0.07-0.1-0.07H43.85z"/>
			</g>
			<g>
				<rect x="39.18" y="141.73" class="st457" width="0.43" height="0.43"/>
				<rect x="40.82" y="141.73" class="st457" width="0.43" height="0.43"/>
				<rect x="42.46" y="141.73" class="st457" width="0.43" height="0.43"/>
				<rect x="44.1" y="141.73" class="st457" width="0.43" height="0.43"/>
				<rect x="39.18" y="143.23" class="st457" width="0.43" height="0.43"/>
				<rect x="40.82" y="143.23" class="st457" width="0.43" height="0.43"/>
				<rect x="42.46" y="143.23" class="st457" width="0.43" height="0.43"/>
				<rect x="39.18" y="144.73" class="st457" width="0.43" height="0.43"/>
				<rect x="40.82" y="144.73" class="st457" width="0.43" height="0.43"/>
			</g>
			<g>
				<line class="st458" x1="39.39" y1="137.99" x2="39.39" y2="139.91"/>
				<line class="st458" x1="42.03" y1="137.99" x2="42.03" y2="139.91"/>
				<line class="st458" x1="44.66" y1="137.99" x2="44.66" y2="139.91"/>
			</g>
		</g>
	</g>
	<g>
		<path class="st5" d="M90.73,18.68c0,0.05,0,0.11,0,0.16c0,2.31,0,4.61,0,6.92c0,0.16,0.03,0.21,0.2,0.2c0.62-0.01,1.24,0,1.87,0
			c0.49,0,0.7,0.2,0.69,0.68c-0.01,0.55,0.04,1.11-0.03,1.66c-0.12,0.81-0.71,1.45-1.46,1.59c-0.13,0.02-0.27,0.02-0.4,0.02
			c-3.09,0-6.18-0.02-9.28,0.01c-1.21,0.01-1.91-0.91-1.96-1.88c0-0.09,0-0.18,0-0.27c0-3.1,0-6.2,0-9.29
			c0-0.18-0.05-0.22-0.22-0.22c-0.63,0.01-1.26,0.01-1.88,0c-0.44,0-0.65-0.21-0.65-0.65c0-0.49,0-0.99,0-1.48
			c0-1.1,0.72-1.82,1.82-1.82c2.52,0,5.04,0,7.56,0c0.15,0,0.23-0.03,0.3-0.18c0.15-0.37,0.46-0.56,0.86-0.58
			c0.27-0.01,0.33-0.07,0.34-0.34c0.02-0.41,0.22-0.71,0.59-0.87c0.38-0.16,0.73-0.1,1.04,0.17c0.24,0.21,0.28,0.21,0.52,0
			c0.3-0.26,0.65-0.32,1.02-0.17c0.37,0.15,0.57,0.44,0.6,0.84c0.02,0.31,0.06,0.34,0.37,0.37c0.4,0.03,0.69,0.23,0.85,0.6
			c0.16,0.37,0.09,0.72-0.17,1.02c-0.21,0.24-0.21,0.28,0,0.52c0.27,0.31,0.33,0.66,0.17,1.04c-0.16,0.38-0.46,0.57-0.87,0.59
			c-0.27,0.01-0.29,0.05-0.16,0.29c0.15,0.26,0.36,0.44,0.61,0.59c0.25,0.15,0.5,0.29,0.74,0.44c0.18,0.11,0.25,0.26,0.21,0.43
			c-0.04,0.17-0.18,0.27-0.4,0.28c-0.31,0.01-0.31,0.01-0.17,0.28c0.15,0.29,0.16,0.45,0.02,0.58c-0.19,0.17-0.39,0.09-0.58,0
			c-0.34-0.17-0.67-0.35-1-0.53C91.41,19.42,91.04,19.1,90.73,18.68z M80.76,15.04c0.3,0.43,0.32,0.88,0.32,1.34
			c-0.01,2.77,0,5.54,0,8.31c0,1.07,0,2.13,0,3.2c0,0.36,0.09,0.69,0.33,0.96c0.38,0.43,0.96,0.44,1.35,0.02
			c0.25-0.27,0.34-0.6,0.34-0.96c0-0.41,0-0.83,0-1.24c0-0.52,0.19-0.71,0.7-0.71c2,0,4,0,6,0c0.15,0,0.19-0.04,0.19-0.19
			c0-2.32,0-4.63,0-6.95c0-0.05,0.03-0.11-0.04-0.16c-0.5,0.82-1.36,1.16-2.15,1.57c-0.05,0.03-0.1,0.04-0.15,0.05
			c-0.15,0.03-0.29,0.02-0.39-0.12c-0.1-0.13-0.09-0.27-0.02-0.41c0.02-0.04,0.05-0.09,0.07-0.13c0.14-0.27,0.14-0.27-0.17-0.28
			c-0.22-0.01-0.35-0.1-0.4-0.28c-0.05-0.17,0.02-0.31,0.21-0.42c0.25-0.15,0.5-0.3,0.76-0.45c0.24-0.15,0.46-0.33,0.6-0.58
			c0.14-0.24,0.12-0.27-0.15-0.28c-0.42-0.02-0.72-0.22-0.88-0.6c-0.16-0.38-0.09-0.73,0.18-1.04c0.09-0.1,0.18-0.18,0.12-0.33
			c-0.07-0.17-0.26-0.31-0.42-0.31c-2.05,0-4.1,0-6.15,0C80.93,15.04,80.87,15.04,80.76,15.04z M83.45,29.17
			c0.05,0.01,0.07,0.01,0.09,0.01c2.74,0,5.47,0,8.21,0c0.16,0,0.31-0.05,0.45-0.14c0.29-0.19,0.45-0.46,0.51-0.79
			c0.08-0.44,0.01-0.89,0.04-1.33c0.01-0.18-0.03-0.23-0.22-0.23c-2.22,0.01-4.44,0.01-6.66,0.01c-0.63,0-1.26,0-1.88,0
			c-0.12,0-0.16,0.04-0.16,0.16c0.01,0.23,0,0.45,0,0.68C83.85,28.09,83.82,28.66,83.45,29.17z M92.8,14.52
			c-0.01-0.14-0.11-0.24-0.29-0.24c-0.6-0.02-0.98-0.39-1-0.99c-0.01-0.13-0.03-0.23-0.16-0.28c-0.13-0.05-0.22,0.01-0.31,0.1
			c-0.41,0.39-0.96,0.39-1.38,0c-0.1-0.09-0.19-0.15-0.32-0.09c-0.12,0.06-0.14,0.16-0.15,0.29c-0.01,0.55-0.42,0.96-0.96,0.97
			c-0.13,0-0.25,0.02-0.3,0.15c-0.06,0.13,0.01,0.23,0.1,0.32c0.38,0.41,0.38,0.96,0,1.37c-0.09,0.1-0.15,0.19-0.1,0.32
			c0.05,0.13,0.16,0.14,0.29,0.15c0.56,0.02,0.96,0.42,0.98,0.98c0,0.13,0.03,0.23,0.15,0.29c0.12,0.05,0.22,0,0.31-0.08
			c0.44-0.4,0.96-0.4,1.41,0.01c0.09,0.08,0.18,0.12,0.3,0.08c0.12-0.05,0.15-0.14,0.15-0.27c0.03-0.61,0.4-0.97,1.01-1
			c0.12-0.01,0.21-0.04,0.26-0.16c0.04-0.11,0-0.2-0.07-0.28c-0.42-0.47-0.42-0.95,0.01-1.43C92.77,14.66,92.8,14.6,92.8,14.52z
			 M79.33,17.53c0.29,0,0.58,0,0.88,0c0.1,0,0.14-0.03,0.14-0.13c-0.01-0.48,0.01-0.95-0.01-1.43c-0.01-0.53-0.46-0.94-1.02-0.93
			c-0.54,0-0.98,0.41-0.99,0.94c-0.01,0.47,0,0.94-0.01,1.41c0,0.12,0.04,0.14,0.15,0.14C78.76,17.53,79.04,17.53,79.33,17.53z
			 M92.42,19.15c-0.02-0.14-0.03-0.27,0.05-0.37c0.02-0.03,0.02-0.05-0.01-0.08c-0.15-0.13-0.29-0.28-0.46-0.37
			c-0.05-0.03-0.19,0.12-0.29,0.18c-0.01,0-0.01,0.01-0.02,0.01c-0.08,0.03-0.08,0.06-0.02,0.12C91.89,18.84,92.13,19,92.42,19.15z
			 M88.28,19.15c0.25-0.12,0.46-0.26,0.65-0.43c0.17-0.15,0.17-0.15-0.02-0.27c-0.05-0.03-0.09-0.06-0.13-0.1
			c-0.05-0.06-0.09-0.06-0.15,0c-0.1,0.12-0.23,0.22-0.36,0.31c-0.04,0.03-0.08,0.05-0.04,0.11C88.32,18.89,88.32,19.01,88.28,19.15
			z"/>
		<path class="st5" d="M85.53,22.89c-1.15,0-2.3,0-3.46,0c-0.07,0-0.15,0-0.22-0.01c-0.17-0.03-0.29-0.17-0.3-0.34
			c-0.01-0.16,0.1-0.32,0.26-0.36c0.08-0.02,0.16-0.02,0.24-0.02c2.33,0,4.66,0,6.99,0c0.05,0,0.11,0,0.16,0.01
			c0.19,0.03,0.32,0.18,0.32,0.36c0,0.19-0.15,0.34-0.35,0.36c-0.17,0.01-0.34,0-0.51,0.01C87.61,22.89,86.57,22.89,85.53,22.89z"/>
		<path class="st5" d="M85.54,24.11c-1.16,0-2.32,0-3.48,0c-0.34,0-0.51-0.12-0.51-0.36c0-0.24,0.17-0.37,0.5-0.37
			c2.32,0,4.63,0,6.95,0c0.33,0,0.51,0.13,0.51,0.36c0,0.24-0.17,0.37-0.51,0.37C87.85,24.11,86.69,24.11,85.54,24.11z"/>
		<path class="st5" d="M83.84,21.68c-0.62,0-1.23,0-1.85,0c-0.27,0-0.44-0.13-0.44-0.36c0-0.22,0.17-0.38,0.45-0.38
			c1.24,0,2.49,0,3.73,0c0.27,0,0.43,0.14,0.43,0.37c0,0.22-0.16,0.36-0.43,0.36C85.1,21.68,84.47,21.68,83.84,21.68z"/>
		<path class="st5" d="M83.73,17.5c0.6,0,1.19,0,1.79,0c0.16,0,0.27,0.07,0.34,0.21c0.07,0.13,0.05,0.26-0.04,0.38
			c-0.08,0.11-0.19,0.15-0.32,0.15c-1.18,0-2.36,0-3.55,0c-0.24,0-0.41-0.17-0.4-0.38c0.01-0.21,0.17-0.35,0.41-0.35
			C82.55,17.5,83.14,17.5,83.73,17.5z"/>
		<path class="st5" d="M83.13,16.32c0.38,0,0.76,0,1.13,0c0.26,0,0.42,0.13,0.43,0.35c0.01,0.22-0.16,0.38-0.42,0.38
			c-0.77,0-1.54,0-2.3,0c-0.25,0-0.42-0.15-0.42-0.37c0-0.21,0.16-0.36,0.41-0.36C82.35,16.32,82.74,16.32,83.13,16.32z"/>
		<path class="st5" d="M83.13,24.59c0.38,0,0.76,0,1.13,0c0.26,0,0.42,0.14,0.43,0.35c0.01,0.22-0.16,0.38-0.42,0.38
			c-0.77,0-1.54,0-2.3,0c-0.25,0-0.42-0.15-0.42-0.36c0-0.21,0.16-0.36,0.41-0.36C82.35,24.58,82.74,24.59,83.13,24.59z"/>
		<path class="st5" d="M90.36,13.83c0.91,0.01,1.65,0.73,1.64,1.62c-0.01,0.89-0.76,1.61-1.65,1.61c-0.91-0.01-1.64-0.73-1.63-1.62
			C88.72,14.54,89.46,13.82,90.36,13.83z M90.35,14.56c-0.51,0-0.91,0.39-0.9,0.88c0,0.49,0.41,0.88,0.91,0.88
			c0.5,0,0.91-0.41,0.91-0.89C91.27,14.95,90.85,14.56,90.35,14.56z"/>
	</g>
</g>
</svg>
