<?xml version="1.0" encoding="utf-8"?>
<!-- Generator: Adobe Illustrator 27.0.0, SVG Export Plug-In . SVG Version: 6.00 Build 0)  -->
<svg version="1.1" id="Capa_1" xmlns="http://www.w3.org/2000/svg" xmlns:xlink="http://www.w3.org/1999/xlink" x="0px" y="0px"
	 viewBox="0 0 149.89 31.42" style="enable-background:new 0 0 149.89 31.42;" xml:space="preserve">
<style type="text/css">
	.st0{fill:#090E38;}
	.st1{fill:url(#SVGID_1_);}
	.st2{fill:#161A42;}
	.st3{fill:url(#SVGID_00000139264312861780400790000009228899386668948096_);}
	.st4{fill:url(#SVGID_00000057108738404863207740000014247576801440605876_);}
	.st5{fill:#FFFFFF;}
	.st6{fill:#E9E9EB;}
	.st7{fill:#2280C3;}
	.st8{fill:#263A6B;}
	.st9{fill:#13183B;}
	.st10{fill:#EBEBFF;}
	.st11{fill:#15336C;}
	.st12{fill:#121D3E;}
	.st13{fill:#D8CE9E;}
	.st14{fill:#5F485A;}
	.st15{fill:#17316F;}
	.st16{fill:#0A1C4F;}
	.st17{fill:#1E1A55;}
	.st18{fill:#12193B;}
	.st19{fill:#D8CD9C;}
	.st20{fill:#544A55;}
	.st21{fill:#E0E1E3;}
	.st22{fill:#15193A;}
	.st23{fill:#D6CC89;}
	.st24{fill:#434642;}
	.st25{fill:#131543;}
	.st26{fill:#3E3B38;}
	.st27{fill:#181940;}
	.st28{fill:#D7CE9D;}
	.st29{fill:#806D64;}
	.st30{opacity:0.7;fill:#6FC4D8;}
	.st31{fill:#805AE4;}
	.st32{fill:#ECB40A;}
	.st33{fill:#10B78E;}
	.st34{fill:url(#SVGID_00000103962689148298471560000003184622700475616128_);}
	.st35{fill:url(#SVGID_00000018236041559906764540000009555493063813198472_);}
	.st36{fill:url(#SVGID_00000082336724380669125880000011338784513950175884_);}
	.st37{fill:url(#SVGID_00000031168934185916577050000000260188168574078909_);}
	.st38{fill:url(#SVGID_00000163762350467309065290000013898021476074322594_);}
	.st39{fill:url(#SVGID_00000029030527654994630510000012589446494380988584_);}
	.st40{fill:url(#SVGID_00000024704263259691983530000004757379551622884029_);}
	.st41{fill:url(#SVGID_00000108991788546834303500000017280474931005543603_);}
	.st42{fill:url(#SVGID_00000135667034893326998220000016794681354194256793_);}
	.st43{fill:url(#SVGID_00000098181437129225333950000004356068445383749775_);}
	.st44{fill:url(#SVGID_00000099649346348580576500000011813235331566300081_);}
	.st45{fill:url(#SVGID_00000000945229549471896280000003258774642016122783_);}
	.st46{fill:url(#SVGID_00000037683592614200408130000002023638677450658742_);}
	.st47{fill:url(#SVGID_00000066485134955195297460000001958340170913315209_);}
	.st48{fill:url(#SVGID_00000028298296759016232260000006357048956310999984_);}
	.st49{fill:url(#SVGID_00000031886374911031917600000005236012550391973515_);}
	.st50{fill:url(#SVGID_00000011735037693558803100000011843369191637433762_);}
	.st51{fill:url(#SVGID_00000178178657137627539270000017430667933477174145_);}
	.st52{fill:url(#SVGID_00000075148072775571312640000007139251782336060074_);}
	.st53{fill:url(#SVGID_00000096770714515243021350000002942399838116355228_);}
	.st54{fill:url(#SVGID_00000016779677199902596670000014216473665913811616_);}
	.st55{fill:url(#SVGID_00000090291779556592768690000003974727840836394430_);}
	.st56{fill:url(#SVGID_00000058546915121337134850000017534704223293460646_);}
	.st57{fill:url(#SVGID_00000169530390800256303080000010536487736832404390_);}
	.st58{fill:url(#SVGID_00000014602691159011310170000006065401937442732973_);}
	.st59{fill:url(#SVGID_00000081607482758065137220000002633854216226199740_);}
	.st60{clip-path:url(#SVGID_00000060006241827504830270000010171689997654757259_);fill:#FFFFFF;}
	.st61{fill:none;stroke:#805AE4;stroke-miterlimit:10;}
	.st62{fill:url(#SVGID_00000039111207914834837500000012151987153127732398_);}
	.st63{fill:url(#SVGID_00000175283718804816247970000017104281368478425524_);}
	.st64{fill:url(#SVGID_00000134945519358257950460000017271976795236435096_);}
	.st65{fill:url(#SVGID_00000016055015319330546080000006866096685779463835_);}
	.st66{fill:url(#SVGID_00000096020055810937938460000008710991678267122596_);}
	.st67{fill:url(#SVGID_00000033346443444277501050000010674273285209969567_);}
	.st68{fill:url(#SVGID_00000021822593141611791140000014781858461782891699_);}
	.st69{fill:url(#SVGID_00000171685431001162192330000008222460626314150784_);}
	.st70{fill:url(#SVGID_00000003095794535326479880000012133074965806566830_);}
	.st71{fill:url(#SVGID_00000127029686142968932150000014319077430695177129_);}
	.st72{fill:url(#SVGID_00000002378880378041101820000013676171189324849077_);}
	.st73{fill:url(#SVGID_00000016792975143412993010000002062857572229644716_);}
	.st74{fill:#DDBB1B;}
	.st75{fill:#49CA80;}
	.st76{fill:#CF78C6;}
	.st77{fill:#BDACFF;}
	.st78{fill:#37368D;}
	.st79{fill:#E11E5E;}
	.st80{fill:#EB9F49;}
	.st81{fill:#FF6B6B;}
	.st82{fill:#38ABE6;}
	.st83{fill:url(#SVGID_00000168098846488212903170000013157648183502911881_);}
	.st84{fill:url(#SVGID_00000141444719582406234270000012863342652733862030_);}
	.st85{fill:url(#SVGID_00000026886174514400661940000002428914484911445638_);}
	.st86{fill:#E78A7E;}
	.st87{fill:#E69C78;}
	.st88{fill:#FF80E7;}
	.st89{fill:#E86480;}
	.st90{fill:url(#SVGID_00000078037502855736863490000018113941507582999721_);}
	.st91{fill:url(#SVGID_00000125576680175542880180000010817363772234064276_);}
	.st92{fill:url(#SVGID_00000121255675293691267560000010316231723581695372_);}
	.st93{fill:url(#SVGID_00000038384586469585340650000007409692796411167134_);}
	.st94{fill:url(#SVGID_00000077301561215812029190000017773387579127115690_);}
	.st95{fill:url(#SVGID_00000132807479701418156160000013958332776835777446_);}
	.st96{fill:url(#SVGID_00000118385962601932503980000009447817281601500578_);}
	.st97{fill:url(#SVGID_00000023966520360030478550000015419068226577449897_);}
	.st98{fill:url(#SVGID_00000026124548684653588780000003338730830286412720_);}
	.st99{fill:url(#SVGID_00000025403534633413730430000011808271196489420689_);}
	.st100{fill:url(#SVGID_00000161619276891084114230000000461279143673628092_);}
	.st101{fill:url(#SVGID_00000154413458069702464470000009743760756441374887_);}
	.st102{fill:url(#SVGID_00000124129808797983830980000005469293786625203606_);}
	.st103{fill:url(#SVGID_00000027603394394476300190000003086535971310103484_);}
	.st104{fill:url(#SVGID_00000172416274548882309870000012488547371988469418_);}
	.st105{fill:url(#SVGID_00000032607581719931187560000004755287659268573321_);}
	.st106{fill:url(#SVGID_00000145757701101365635160000014009276097353657753_);}
	.st107{fill:url(#SVGID_00000170262840761887937470000008412597864850803857_);}
	.st108{fill:url(#SVGID_00000160177414961290828930000017007436559078917806_);}
	.st109{fill:url(#SVGID_00000002386702128421562850000011138857653109463971_);}
	.st110{fill:url(#SVGID_00000026140103903548807320000013813278846229931958_);}
	.st111{fill:url(#SVGID_00000031894987680562036000000009285788718593710780_);}
	.st112{fill:url(#SVGID_00000000206312258657480220000016809813352098327728_);}
	.st113{fill:url(#SVGID_00000025423305477273528840000009238453142572050585_);}
	.st114{fill:url(#SVGID_00000101792572463052362740000010597841453886588603_);}
	.st115{fill:url(#SVGID_00000044865037877418212850000012127617501028893326_);}
	.st116{fill:url(#SVGID_00000149352045704060600900000007594615666077403064_);}
	.st117{fill:url(#SVGID_00000005235171978113400070000010133907223550573715_);}
	.st118{fill:url(#SVGID_00000136386363124966809620000009317219024557187251_);}
	.st119{fill:url(#SVGID_00000029740223624688793460000004102402344055551910_);}
	.st120{fill:url(#SVGID_00000114785661037911801370000013505842868885084296_);}
	.st121{fill:url(#SVGID_00000145044066291593078460000017236584504842477215_);}
	.st122{fill:url(#SVGID_00000074407448104972158290000002103865350126816419_);}
	.st123{fill:url(#SVGID_00000022529510677251426280000012318039889423404420_);}
	.st124{fill:url(#SVGID_00000135663489923071170160000011010149293168730262_);}
	.st125{fill:url(#SVGID_00000113342286536813111620000007323567586390588824_);}
	.st126{fill:url(#SVGID_00000091730776224664379050000009856491334292535704_);}
	.st127{fill:url(#SVGID_00000039814774639812205860000007952743214201760647_);}
	.st128{fill:url(#SVGID_00000098218619028641775690000013756600440185071793_);}
	.st129{fill:url(#SVGID_00000055668162917473117460000017385376611095189899_);}
	.st130{fill:url(#SVGID_00000147214330254142997980000010835669092767299215_);}
	.st131{fill:url(#SVGID_00000036944895943620091930000009749183372938085047_);}
	.st132{fill:url(#SVGID_00000178178539317772529050000005644606145924004543_);}
	.st133{fill:url(#SVGID_00000041986084936419619530000009784584321322305925_);}
	.st134{fill:url(#SVGID_00000056396400892630084870000005999526329370699401_);}
	.st135{fill:url(#SVGID_00000045595786375449974760000008569248383238111396_);}
	.st136{fill:url(#SVGID_00000135671155948994380960000017073626501151393956_);}
	.st137{fill:url(#SVGID_00000181066902801970079780000009678689357819403654_);}
	.st138{fill:url(#SVGID_00000088095544599125636420000004688317944064679572_);}
	.st139{fill:url(#SVGID_00000050655587518409314670000005066060070336507812_);}
	.st140{fill:url(#SVGID_00000113342445749320439180000007754522726562361266_);}
	.st141{fill:url(#SVGID_00000070091833229751968060000017326949292495697825_);}
	.st142{fill:url(#SVGID_00000069385567124560250620000004242961712273219750_);}
	.st143{fill:url(#SVGID_00000164498681583716288220000013659660714413496449_);}
	.st144{fill:url(#SVGID_00000021835758522842820310000012282745596772926081_);}
	.st145{fill:url(#SVGID_00000011030392568915450390000013621957646205307039_);}
	.st146{fill:url(#SVGID_00000116918681564331810810000006749808921155494545_);}
	.st147{fill:url(#SVGID_00000141420931351308645710000012683506302376417422_);}
	.st148{fill:url(#SVGID_00000059272193302832372220000000002054347157289900_);}
	.st149{fill:url(#SVGID_00000093161875577994424160000007553509947331337382_);}
	.st150{fill:url(#SVGID_00000077301123555353690330000001022515512058342316_);}
	.st151{fill:url(#SVGID_00000092431437416305594100000010108049086958921914_);}
	.st152{fill:url(#SVGID_00000143606129914849760250000000904142272141144983_);}
	.st153{fill:url(#SVGID_00000013153559199989133120000008718395144830513564_);}
	.st154{fill:url(#SVGID_00000074420138663911548150000007184271638258987668_);}
	.st155{fill:url(#SVGID_00000047039223150166049580000002484000824096579262_);}
	.st156{fill:url(#SVGID_00000116211901047485742890000009101949596277015436_);}
	.st157{fill:url(#SVGID_00000127033939737395914800000008578594858395320200_);}
	.st158{fill:url(#SVGID_00000183931870430713103730000009038864473526013079_);}
	.st159{fill:url(#SVGID_00000074442602543883884970000001329097300618198180_);}
	.st160{fill:url(#SVGID_00000155844782116296052640000001894849307484927383_);}
	.st161{fill:url(#SVGID_00000010275879084154029380000013071204890383957944_);}
	.st162{fill:url(#SVGID_00000133518058456955805900000010702227811665982098_);}
	.st163{fill:none;stroke:#090E38;stroke-width:2;stroke-miterlimit:10;}
	.st164{fill:#803CFF;}
	.st165{fill:none;stroke:#803CFF;stroke-miterlimit:10;}
	.st166{fill:#848698;}
	.st167{fill:url(#SVGID_00000178192033886831204610000008564421928815581847_);}
	.st168{fill:url(#SVGID_00000002345675389171413120000016402366362370506924_);}
	.st169{fill:url(#SVGID_00000017501998997523751310000000272316888770755775_);}
	.st170{fill:url(#SVGID_00000093150342938978808730000002407030367495360418_);}
	.st171{fill:url(#SVGID_00000111877435783202913030000003201802231159431049_);}
	.st172{fill:url(#SVGID_00000093856377453780393570000004566269633609611670_);}
	.st173{fill:url(#SVGID_00000162336055995756761980000012000969385603017406_);}
	.st174{fill:url(#SVGID_00000018934967346466617680000003125335470137829249_);}
	.st175{fill:#22274C;}
	.st176{fill:url(#SVGID_00000013879968732255754070000002239222961776370336_);}
	.st177{fill:url(#SVGID_00000016790177160459722790000001550391078600353972_);}
	.st178{fill:url(#SVGID_00000011734101377383245810000015499030124836530325_);}
	.st179{fill:url(#SVGID_00000057845000585607867740000016664150955156231087_);}
	.st180{fill:url(#SVGID_00000158747606529895253860000007638647380729929121_);}
	.st181{fill:url(#SVGID_00000062914652162675842790000015545192822020116096_);}
	.st182{fill:url(#SVGID_00000011021780906425548470000018410507973043030969_);}
	.st183{fill:url(#SVGID_00000121256882262615577630000012304270422828034176_);}
	.st184{fill:url(#SVGID_00000149346347494224671450000016590533149410349699_);}
	.st185{fill:url(#SVGID_00000139262424151151530830000017328132079026372501_);}
	.st186{fill:url(#SVGID_00000172400197482665305670000018445789000388867509_);}
	.st187{fill:url(#SVGID_00000029746265648227569360000002596251793453677982_);}
	.st188{fill:url(#SVGID_00000010273671192508190820000012813393464671134389_);}
	.st189{fill:url(#SVGID_00000176029733881723405080000002528078293438927797_);}
	.st190{fill:url(#SVGID_00000051384074739664913670000014935826702906523286_);}
	.st191{fill:url(#SVGID_00000145751355910229310490000003778436945622321569_);}
	.st192{fill:url(#SVGID_00000118358110840365603440000013335651332545555379_);}
	.st193{fill:url(#SVGID_00000074439312502325113000000001856696922149450679_);}
	.st194{fill:url(#SVGID_00000134219923665532300300000014727591296724186028_);}
	.st195{fill:url(#SVGID_00000066493686854959923590000005528201134001552266_);}
	.st196{fill:url(#SVGID_00000129892412004042110330000005051078396646231694_);}
	.st197{fill:url(#SVGID_00000057864927008213455180000004727616848606838155_);}
	.st198{fill:url(#SVGID_00000005252542272136187370000016505670957491801758_);}
	.st199{fill:url(#SVGID_00000047052953578304858210000002409947899693033896_);}
	.st200{fill:url(#SVGID_00000062152507915595794050000009791633278789300359_);}
	.st201{fill:url(#SVGID_00000119839438352423930130000005591155234235938969_);}
	.st202{fill:url(#SVGID_00000022518182683953909980000001962378468957128631_);}
	.st203{fill:url(#SVGID_00000140724266723339188160000007118315293990942614_);}
	.st204{fill:url(#SVGID_00000132047609387246148230000011069422220849311633_);}
	.st205{fill:url(#SVGID_00000059278187680502655360000001651289047055510920_);}
	.st206{fill:url(#SVGID_00000066481253695396522830000010082065539270718853_);}
	.st207{fill:url(#SVGID_00000126286442219421137900000013076088683761647782_);}
	.st208{fill:url(#SVGID_00000154423106521341508370000015793002953648685473_);}
	.st209{fill:url(#SVGID_00000125566883758252356130000005407880479402778500_);}
	.st210{fill:url(#SVGID_00000095326923283025259350000008745935329212952450_);}
	.st211{fill:url(#SVGID_00000094596990783448453040000010741466047170970256_);}
	.st212{fill:none;stroke:#FFFFFF;stroke-linecap:round;stroke-miterlimit:10;}
	.st213{fill:url(#SVGID_00000165931121640084238620000001767980551819078328_);}
	.st214{fill:url(#SVGID_00000003821565076143467220000008126290748993656247_);}
	.st215{fill:url(#SVGID_00000080169508954831543130000016121841287927175824_);}
	.st216{fill:url(#SVGID_00000119807753595270625370000009850053612510846390_);}
	.st217{fill:url(#SVGID_00000097483532747324361120000013409118441333016468_);}
	.st218{fill:url(#SVGID_00000123427509592108872080000008589505441522905019_);}
	.st219{fill:url(#SVGID_00000168809717824887600040000005756248701761606328_);}
	.st220{fill:url(#SVGID_00000025419183737542479100000005240785125852482945_);}
	.st221{fill:url(#SVGID_00000167389258196740032770000003460511237466813874_);}
	.st222{fill:url(#SVGID_00000070806979807198019480000017555562576479635875_);}
	.st223{fill:url(#SVGID_00000057857642069068648310000004563491652801587644_);}
	.st224{fill:url(#SVGID_00000165203303831889193890000007821352965757523615_);}
	.st225{fill:url(#SVGID_00000150799541740531875970000011935343914125214135_);}
	.st226{fill:url(#SVGID_00000183943545577323795580000012197301441979438984_);}
	.st227{fill:url(#SVGID_00000154415896519181118510000006295590212283178425_);}
	.st228{fill:url(#SVGID_00000070831600474353996920000016947290447945358993_);}
	.st229{fill:url(#SVGID_00000108285059191931470790000004510812500473085589_);}
	.st230{fill:url(#SVGID_00000067198926107033646610000016545083991257967022_);}
	.st231{fill:url(#SVGID_00000080181782280231524980000007748488816894735538_);}
	.st232{fill:url(#SVGID_00000115517150522103708670000002607413380660395161_);}
	.st233{fill:url(#SVGID_00000171681380215987010330000013129527899591215549_);}
	.st234{fill:none;stroke:#22274C;stroke-width:0.5;stroke-miterlimit:10;}
	.st235{fill:url(#SVGID_00000021820667534026252650000017139802204291654076_);}
	.st236{fill:none;stroke:#22274C;stroke-miterlimit:10;}
	.st237{fill:url(#SVGID_00000077308231649212914610000016754909982706911636_);}
	.st238{fill:url(#SVGID_00000178170192206791753380000012663732653825706633_);}
	.st239{fill:url(#SVGID_00000115503733503279484420000006900905749981663898_);}
	.st240{fill:url(#SVGID_00000063619370466463265870000014210219169134335914_);}
	.st241{fill:url(#SVGID_00000050650943044072120750000018364922207361840814_);}
	.st242{fill:url(#SVGID_00000027569545885464812790000005526683500850447234_);}
	.st243{fill:url(#SVGID_00000091003230080400777000000000457436523203932057_);}
	.st244{fill:url(#SVGID_00000133526824730343449780000014693989868715864504_);}
	.st245{fill:url(#SVGID_00000036936938172172575330000005721856541344582824_);}
	.st246{fill:url(#SVGID_00000078733816530586357840000015796536944705619877_);}
	.st247{fill:url(#SVGID_00000159450492744675273980000000154874017137933447_);}
	.st248{fill:url(#SVGID_00000103249377322506316200000014768129287419864226_);}
	.st249{fill:none;stroke:#E11E5E;stroke-miterlimit:10;}
	.st250{fill:url(#SVGID_00000098189526078815361550000000506461042977346483_);}
	.st251{fill:url(#SVGID_00000074422643887455573950000015451268397400640930_);}
	.st252{fill:url(#SVGID_00000013153067456269913390000003812116581567915684_);}
	.st253{fill:url(#SVGID_00000106127795997467712970000016914876517035605409_);}
	.st254{fill:url(#SVGID_00000129894965160156438060000008276595929781644963_);}
	.st255{fill:url(#SVGID_00000084507788201257741950000009185725007865357716_);}
	.st256{fill:url(#SVGID_00000067935045176396898090000015827620111306004150_);}
	.st257{fill:url(#SVGID_00000064338649366530829400000004638170008857649315_);}
	.st258{fill:url(#SVGID_00000148629518862073574910000011421771556228065430_);}
	.st259{fill:url(#SVGID_00000060736518576918775490000014813353756256099740_);}
	.st260{fill:url(#SVGID_00000007404672475968108930000012560416224153748633_);}
	.st261{fill:url(#SVGID_00000155143435823111850010000008015624995147719340_);}
	.st262{fill:url(#SVGID_00000062885460000262307730000012688686494361712812_);}
	.st263{fill:url(#SVGID_00000020384266509711708600000007541427435895534492_);}
	.st264{fill:url(#SVGID_00000161625634160867727420000009233323688841230754_);}
	.st265{fill:url(#SVGID_00000098210256231102025930000004258382461534774965_);}
	.st266{fill:url(#SVGID_00000034807398615967337390000016079140579857376432_);}
	.st267{fill:url(#SVGID_00000180327243133465304860000017275911908869574829_);}
	.st268{fill:url(#SVGID_00000173137512393473555500000018322670194380638371_);}
	.st269{fill:url(#SVGID_00000077298758946645410330000011594874431541515175_);}
	.st270{fill:url(#SVGID_00000142893921614632302200000017000829183591648409_);}
	.st271{fill:url(#SVGID_00000106846684871337395750000002954618640011925434_);}
	.st272{fill:url(#SVGID_00000015331236841169554700000005312374825058635662_);}
	.st273{fill:none;stroke:#FFFFFF;stroke-width:0.75;stroke-miterlimit:10;}
	.st274{fill:none;stroke:#FFFFFF;stroke-width:0.75;stroke-linecap:round;stroke-miterlimit:10;}
	.st275{fill-rule:evenodd;clip-rule:evenodd;fill:none;stroke:#FFFFFF;stroke-width:0.5;stroke-miterlimit:10;}
	
		.st276{fill-rule:evenodd;clip-rule:evenodd;fill:none;stroke:#FFFFFF;stroke-width:0.5;stroke-linecap:round;stroke-miterlimit:10;}
	.st277{fill:url(#SVGID_00000103963739260833574410000001324299212740891317_);}
	.st278{fill:url(#SVGID_00000036221191770879487410000001277919591660601498_);}
	.st279{fill:url(#SVGID_00000003788265056069185790000003790188579680011655_);}
	.st280{fill:url(#SVGID_00000029748913005322155420000016815196424867990668_);}
	.st281{fill:url(#SVGID_00000057855751726316356150000013030895707313227910_);}
	.st282{fill:url(#SVGID_00000181049560393684203790000007596978397366461611_);}
	.st283{fill:url(#SVGID_00000014619600464828965830000006762541735150401950_);}
	.st284{fill:url(#SVGID_00000065047489121329706810000005607386948629104791_);}
	.st285{fill:url(#SVGID_00000141441287281287579730000007469754814104928923_);}
	.st286{fill:url(#SVGID_00000008111832777758209150000018392866957571789186_);}
	.st287{fill:url(#SVGID_00000068664648555775383280000009318745546598581633_);}
	.st288{fill:url(#SVGID_00000064327407338451150860000000494098142282058645_);}
	.st289{fill:url(#SVGID_00000020376387146335974210000006988291844248089473_);}
	.st290{fill:url(#SVGID_00000165953612008079470680000007770140290452790940_);}
	.st291{fill:url(#SVGID_00000036959059477029845760000015203387755259430814_);}
	.st292{fill:url(#SVGID_00000026151918051007285610000012853019375807372929_);}
	.st293{fill:url(#SVGID_00000003076749478477095640000004386022007427382430_);}
	.st294{fill:url(#SVGID_00000016774246339207487370000005154606596744133017_);}
	.st295{fill:url(#SVGID_00000008115295789215049830000012142621186710274229_);}
	.st296{fill:url(#SVGID_00000053538897967726630540000016036619952275403417_);}
	.st297{fill:url(#SVGID_00000173853936879259936030000014267779555592182155_);}
	.st298{fill:url(#SVGID_00000180331849352605660080000011273397203719722168_);}
	.st299{fill:url(#SVGID_00000040575678487705906680000006974667520703642788_);}
	.st300{fill:url(#SVGID_00000050643567910167171230000002982916390247075248_);}
	.st301{fill:url(#SVGID_00000019663314236702183870000012620009942093590673_);}
	.st302{clip-path:url(#SVGID_00000182493756704392698110000011503844505562515123_);fill:#22264C;}
	.st303{clip-path:url(#SVGID_00000078044365431001317790000016484574743243872954_);fill:#FFFFFF;}
	.st304{clip-path:url(#SVGID_00000000911424991390373440000016384934174276425388_);fill:#FFFFFF;}
	.st305{clip-path:url(#SVGID_00000124867892425556102680000004042678086650576022_);fill:#FFFFFF;}
	.st306{clip-path:url(#SVGID_00000064332091875545034890000003488342394355411899_);fill:#FFFFFF;}
	.st307{clip-path:url(#SVGID_00000072983148585055024020000002029382508256706480_);fill:#FFFFFF;}
	.st308{clip-path:url(#SVGID_00000008827205182050613590000010043231699722453417_);fill:#FFFFFF;}
	.st309{clip-path:url(#SVGID_00000116954329148870113040000002803523818813670057_);fill:#FFFFFF;}
	.st310{clip-path:url(#SVGID_00000109751048177575974180000008966347110410409656_);fill:#FFFFFF;}
	.st311{clip-path:url(#SVGID_00000044893120895536992250000001638915364110297259_);fill:#FFFFFF;}
	.st312{clip-path:url(#SVGID_00000163760376369796566100000002087695332077449138_);fill:#FFFFFF;}
	.st313{clip-path:url(#SVGID_00000073704928853400271680000017259074033351346350_);fill:#FFFFFF;}
	.st314{fill:url(#SVGID_00000011721280039838672960000018050411625270954934_);}
	.st315{fill:url(#SVGID_00000142883590482117320240000008171025799607601551_);}
	.st316{fill:url(#SVGID_00000093154079450459529070000013863570186986091451_);}
	.st317{fill:url(#SVGID_00000031180105396891090680000001384622235970979216_);}
	.st318{fill:url(#SVGID_00000013883843705920123750000013516031260403532687_);}
	.st319{fill:url(#SVGID_00000000195354030484654060000006165113882053352327_);}
	.st320{fill:url(#SVGID_00000114784901678783998440000006762190033274456194_);}
	.st321{fill:url(#SVGID_00000088116487851081645570000013042772064078986407_);}
	.st322{fill:url(#SVGID_00000128470913459572277680000009214535058819425696_);}
	.st323{fill:url(#SVGID_00000129165050088618650750000011507884767732452507_);}
	.st324{fill:url(#SVGID_00000140698253311883377670000016045045882701480339_);}
	.st325{fill:url(#SVGID_00000080187360794590025510000003218771069614072713_);}
	.st326{fill:url(#SVGID_00000082326887462848020130000003500862750507326109_);}
	.st327{fill:url(#SVGID_00000075121908480322501980000006054640163658253991_);}
	.st328{fill:url(#SVGID_00000029746634547661937130000004353482100819191479_);}
	.st329{fill:url(#SVGID_00000132783680349161766160000009161986069200468666_);}
	.st330{fill:url(#SVGID_00000120559736415706922890000010351980544899972506_);}
	.st331{fill:url(#SVGID_00000106857897437574487640000007139041318115334845_);}
	.st332{fill:url(#SVGID_00000007421835652679728610000001933773175389057436_);}
	.st333{fill:url(#SVGID_00000003102452481546199450000010297436332365068929_);}
	.st334{fill:url(#SVGID_00000182516002125155745160000015285725669254281906_);}
	.st335{fill:url(#SVGID_00000047775938512704117240000018045409681787835807_);}
	.st336{fill:url(#SVGID_00000158025620939690117340000018001163899001658499_);}
	.st337{fill:url(#SVGID_00000005970672767946286000000017252725172344456358_);}
	.st338{fill:url(#SVGID_00000071534385250960618270000011744749382708865721_);}
	.st339{fill:url(#SVGID_00000178174897301372070410000009658230243872396210_);}
	.st340{fill:url(#SVGID_00000103976115428539903680000015714056555754213528_);}
	.st341{fill:url(#SVGID_00000062171829270871804220000017672860456222064571_);}
	.st342{fill:url(#SVGID_00000147917297603759630350000004667029034596064907_);}
	.st343{fill:url(#SVGID_00000146479298281998268730000016286804975375799953_);}
	.st344{fill:url(#SVGID_00000121241134376876628400000009150080417024175035_);}
	.st345{fill:url(#SVGID_00000031906974817664049380000003432333934691287946_);}
	.st346{fill:url(#SVGID_00000116202026197366671510000018052084856799984048_);}
	.st347{fill:url(#SVGID_00000011003942673485822370000007559081615370955666_);}
	.st348{fill:url(#SVGID_00000045604658463784149190000017883700668411525520_);}
	.st349{fill:url(#SVGID_00000119076880347961633900000001554360332758518699_);}
	.st350{fill:url(#SVGID_00000160874622496718931170000010516416889169275540_);}
	.st351{fill:url(#SVGID_00000012435738844528071230000003374720358167758999_);}
	.st352{fill:url(#SVGID_00000075155267956927529160000004268611292736407179_);}
	.st353{fill:url(#SVGID_00000084502773753516898490000010323428934506061710_);}
	.st354{fill:#8A8989;}
	.st355{fill:#616160;}
	.st356{fill-rule:evenodd;clip-rule:evenodd;fill:#FFFFFF;}
	.st357{fill-rule:evenodd;clip-rule:evenodd;fill:#8A8989;}
	.st358{fill-rule:evenodd;clip-rule:evenodd;fill:#797879;}
	.st359{clip-path:url(#XMLID_00000031174324224450894610000016732429363595282842_);}
	.st360{opacity:0.2;fill:#E1E3E7;}
	.st361{fill-rule:evenodd;clip-rule:evenodd;fill:#616160;}
	.st362{fill:#E1E3E7;}
	.st363{fill:#FFFFFF;stroke:#FFFFFF;stroke-width:4;stroke-miterlimit:10;}
	.st364{fill:#58595B;}
	.st365{fill:#80A926;}
	.st366{clip-path:url(#SVGID_00000026129491466296764920000001239883281293051326_);}
	.st367{clip-path:url(#SVGID_00000157305808511656157540000002929620774932128681_);}
	.st368{clip-path:url(#SVGID_00000026140127523123772040000018287672774935917705_);}
	.st369{clip-path:url(#SVGID_00000018948810011473918840000001522556792295945606_);}
	.st370{clip-path:url(#SVGID_00000180347927601985664410000002700196646923119251_);}
	.st371{clip-path:url(#SVGID_00000044154624785332321500000000683894474881678011_);}
	.st372{clip-path:url(#SVGID_00000056426562011177904480000013561362172606704045_);}
	.st373{clip-path:url(#SVGID_00000009548754664181491250000008879540685122003341_);}
	.st374{clip-path:url(#SVGID_00000026855112683996542500000000166296635085855893_);}
	.st375{clip-path:url(#SVGID_00000135679164778933136140000008646894234478062991_);}
	.st376{fill:#1D1E1C;}
	.st377{opacity:0.36;}
	.st378{opacity:0.57;}
	.st379{fill:none;}
	.st380{fill:#01CEA6;}
	.st381{fill:#01261F;}
	.st382{fill:#E68000;}
	.st383{fill:#261400;}
	.st384{fill:#E63D80;}
	.st385{fill:#2D0013;}
	.st386{fill:#3695BB;}
	.st387{fill:#032732;}
	.st388{fill:#CDE4EC;}
	.st389{fill:#DA80E7;}
	.st390{fill:#B072BD;}
	.st391{fill:#855994;}
	.st392{fill:#180024;}
	.st393{fill:#DD80EA;}
	.st394{fill:#BB80E7;}
	.st395{fill:#9B77C0;}
	.st396{fill:#C080ED;}
	.st397{fill:#1F0140;}
	.st398{fill:#80619A;}
	.st399{fill:url(#SVGID_00000016774513281704689420000007092287660439978143_);}
	.st400{fill:url(#SVGID_00000082329806343023853090000008167787945702915718_);}
	.st401{fill:url(#SVGID_00000066498113523784463730000017474064079059755919_);}
	.st402{fill:url(#SVGID_00000121975437428562208320000006772072762001709720_);}
	.st403{fill:url(#SVGID_00000101798204444543405300000016058435872393631147_);}
	.st404{fill:url(#SVGID_00000054239524447867326060000017866135829043927937_);}
	.st405{fill:url(#SVGID_00000121246380456137424050000003390159247986283187_);}
	.st406{fill:url(#SVGID_00000155829056657766198810000005367928616542134970_);}
	.st407{fill:url(#SVGID_00000112612337520245218560000015954024250339141566_);}
	.st408{fill:url(#SVGID_00000174561214072633931930000003854298034699464851_);}
	.st409{fill:url(#SVGID_00000164486182462526252030000009890199985110995620_);}
	.st410{fill:url(#SVGID_00000043425614032855410700000008874071393555261619_);}
	.st411{fill:none;stroke:#464A69;stroke-miterlimit:10;}
	.st412{fill:url(#SVGID_00000039102218125827862490000009743086554748622510_);}
	.st413{fill:url(#SVGID_00000023259461920390973810000008445815372499058075_);}
	.st414{fill:url(#SVGID_00000145016822722905641100000009511583664485645956_);}
	.st415{fill:url(#SVGID_00000088122043808120306840000001192022264081269668_);}
	.st416{fill:url(#SVGID_00000031183240121959286300000009494951877883472001_);}
	.st417{fill:url(#SVGID_00000091729018219958350900000017557669076577923467_);}
	.st418{fill:url(#SVGID_00000008851471237557451860000011690423342462722200_);}
	.st419{fill:url(#SVGID_00000110467902198690935850000001143041213278294192_);}
	.st420{fill:url(#SVGID_00000116223589555205336390000008263242325231581577_);}
	.st421{fill:url(#SVGID_00000162335971168080738110000000992826887082015374_);}
	.st422{fill:url(#SVGID_00000010305681343164428060000011785959690659430826_);}
	.st423{fill:url(#SVGID_00000172424624772317409190000011840256131834427289_);}
	.st424{fill:url(#SVGID_00000119104960350690151340000015772380169254756739_);}
	.st425{fill:url(#SVGID_00000052825540342657334090000013544734054257360020_);}
	.st426{fill:none;stroke:#22274C;stroke-width:0.75;stroke-miterlimit:10;}
	.st427{fill:none;stroke:#FFFFFF;stroke-width:2;stroke-miterlimit:10;}
	.st428{fill:url(#SVGID_00000114760476634927370930000007555527797866591663_);}
	.st429{fill:url(#SVGID_00000019648385657697661790000009800811234127446195_);}
	.st430{fill:url(#SVGID_00000167389080865416084770000010231540824397024919_);}
	.st431{fill:url(#SVGID_00000013187162863329435730000008198996395027190182_);}
	.st432{fill:url(#SVGID_00000091693564586239289710000007822567363690741924_);}
	.st433{fill:url(#SVGID_00000152231774128117296350000015740785943137414304_);}
	.st434{fill:url(#SVGID_00000033328230471448412260000004615788105175838905_);}
	.st435{fill:url(#SVGID_00000012434919234361664910000003906701861023469729_);}
	.st436{fill:url(#SVGID_00000016055173006779318500000000937083002671534733_);}
	.st437{fill:url(#SVGID_00000040551872689108578140000009846599926756694409_);}
	.st438{fill:url(#SVGID_00000044147141094212109980000017120542245292983995_);}
	.st439{fill:url(#SVGID_00000080926648271421593840000014283073203806162819_);}
	.st440{fill:url(#SVGID_00000101105608914161164930000016963948442413940924_);}
	.st441{fill:url(#SVGID_00000073689234601786985020000015445466705597398669_);}
	.st442{fill:url(#SVGID_00000169560033689907722450000003440470023400217527_);}
	.st443{fill:url(#SVGID_00000127750124751281751700000000567628612679874464_);}
	.st444{fill:url(#SVGID_00000096761039618383173780000003337819292707163068_);}
	.st445{fill:url(#SVGID_00000036214891558123055430000003934088649478613140_);}
	.st446{fill:url(#SVGID_00000037666659313927046690000015485752193709013643_);}
	.st447{fill:url(#SVGID_00000009585544653754457180000015119601675176798083_);}
	.st448{fill:url(#SVGID_00000182513006438704965030000002197877700534798736_);}
	.st449{fill:url(#SVGID_00000062897386178154281000000007456611129062461361_);}
	.st450{fill:url(#SVGID_00000096744318063427930280000005958544921570178215_);}
	.st451{fill:url(#SVGID_00000003791452525487706780000015298374082826171280_);}
	.st452{fill:url(#SVGID_00000130610302452434306070000009769368055546499757_);}
	.st453{fill:url(#SVGID_00000067954535330100733980000012437738377209661092_);}
	.st454{fill:url(#SVGID_00000013911327721155253330000017872978017159725221_);}
	.st455{fill:none;stroke:#8F8F8F;stroke-width:0.75;stroke-miterlimit:10;}
	.st456{fill:#8F8F8F;stroke:#8F8F8F;stroke-width:0.25;stroke-miterlimit:10;}
	.st457{fill:#8F8F8F;}
	.st458{fill:none;stroke:#8F8F8F;stroke-width:0.25;stroke-miterlimit:10;}
	.st459{fill:url(#SVGID_00000032623245086495943430000011961694043232828301_);}
	.st460{fill:url(#SVGID_00000079479761826698767400000015048548977266299320_);}
	.st461{fill:url(#SVGID_00000005264447577551671950000013200287924744728479_);}
	.st462{fill:url(#SVGID_00000153686183237696898000000012924076061926753408_);}
	.st463{fill:url(#SVGID_00000013168869348793373900000013024732198418301602_);}
	.st464{fill:url(#SVGID_00000053541275786076586370000016980516215964870329_);}
	.st465{fill:url(#SVGID_00000023979336809719221590000007097181276765642136_);}
	.st466{fill:url(#SVGID_00000012442149323557754650000018267707611614028680_);}
	.st467{fill:url(#SVGID_00000111170400330223704900000001081630568799996856_);}
	.st468{fill:url(#SVGID_00000134220787832102207390000010031493351982630572_);}
</style>
<g>
	<path class="st5" d="M0,0v31.42h31.74V0H0z M24.57,21.36l-2.89,3.18H10.46L7,21.36V6.94h5.47v12.3l1.05,1.05h4.68l0.89-0.9V6.94
		h5.47V21.36z"/>
	<path class="st5" d="M33.78,0v31.42h31.74V0H33.78z M58.58,11.25h-6.15v13.26h-5.47V11.25h-6.15V6.99h17.77V11.25z"/>
	<g>
		<polygon class="st5" points="79.3,11.25 79.3,15.54 84.99,15.54 86.02,14.51 86.02,12.3 84.97,11.25 		"/>
		<path class="st5" d="M66.95,0v31.42h31.74V0H66.95z M91.5,16.99l-3.06,2.82l-0.03-0.03H79.3v4.72h-5.47V6.94h5.47v0.05l9.12-0.01
			l3.08,2.69V16.99z"/>
	</g>
	<g>
		<path class="st5" d="M110.97,8.87c0,1.44-0.87,2.06-2.26,2.06c-0.5,0-1.26-0.12-1.74-0.66c-0.3-0.34-0.42-0.78-0.42-1.33V5.3h1.17
			v3.57c0,0.76,0.44,1.1,0.98,1.1c0.79,0,1.11-0.38,1.11-1.04V5.31h1.17L110.97,8.87L110.97,8.87z"/>
		<path class="st5" d="M115.68,10.79h-1.07V8.32c0-0.3-0.02-0.81-0.7-0.81c-0.48,0-0.84,0.32-0.84,0.94v2.33H112V6.72h1.03v0.59
			h0.02c0.14-0.25,0.45-0.7,1.22-0.7c0.8,0,1.42,0.47,1.42,1.36L115.68,10.79L115.68,10.79z"/>
		<path class="st5" d="M117.77,6.24h-1.07V5.25h1.07V6.24z M117.77,6.72v4.07h-1.07V6.72H117.77z"/>
		<path class="st5" d="M120.98,10.79h-1.12l-1.46-4.07h1.19l0.84,3h0.02l0.87-3h1.14L120.98,10.79z"/>
		<path class="st5" d="M126.38,9.59c-0.28,0.98-1.09,1.3-1.79,1.3c-1.15,0-2.03-0.55-2.03-2.22c0-0.49,0.17-2.05,1.95-2.05
			c0.81,0,1.91,0.38,1.91,2.24v0.19h-2.79c0.03,0.31,0.09,0.99,0.96,0.99c0.3,0,0.6-0.15,0.69-0.44H126.38z M125.33,8.34
			c-0.06-0.65-0.48-0.86-0.82-0.86c-0.5,0-0.77,0.32-0.83,0.86H125.33z"/>
		<path class="st5" d="M127.13,6.72h1.03v0.7h0.02c0.22-0.42,0.47-0.81,1.11-0.81c0.07,0,0.14,0.01,0.2,0.02v1.09
			c-0.09-0.02-0.2-0.02-0.31-0.02c-0.83,0-0.98,0.52-0.98,0.97v2.11h-1.07L127.13,6.72L127.13,6.72z"/>
		<path class="st5" d="M132.29,7.96c-0.04-0.26-0.14-0.53-0.72-0.53s-0.65,0.22-0.65,0.4c0,0.65,2.55,0.18,2.55,1.67
			c0,1.19-1.15,1.4-1.78,1.4c-0.93,0-1.93-0.32-1.95-1.41h1.1c0,0.35,0.21,0.59,0.88,0.59c0.55,0,0.68-0.27,0.68-0.42
			c0-0.68-2.52-0.17-2.52-1.69c0-0.59,0.37-1.36,1.65-1.36c0.8,0,1.74,0.2,1.82,1.34L132.29,7.96L132.29,7.96z"/>
		<path class="st5" d="M135.35,6.24h-1.07V5.25h1.07V6.24z M135.35,6.72v4.07h-1.07V6.72H135.35z"/>
		<path class="st5" d="M140.08,10.79h-1.04v-0.51h-0.02c-0.26,0.46-0.73,0.62-1.18,0.62c-1.21,0-1.71-1.07-1.71-2.19
			c0-1.41,0.8-2.1,1.69-2.1c0.69,0,1.01,0.37,1.18,0.64h0.02V5.3h1.07V10.79z M138.1,10.02c0.68,0,0.95-0.57,0.95-1.17
			c0-0.65-0.19-1.31-0.92-1.31c-0.68,0-0.91,0.6-0.91,1.25C137.23,9.26,137.42,10.02,138.1,10.02z"/>
		<path class="st5" d="M144.33,9.99c0,0.48,0.11,0.59,0.24,0.64v0.16h-1.15c-0.06-0.19-0.08-0.25-0.1-0.48
			c-0.25,0.25-0.59,0.59-1.32,0.59c-0.61,0-1.24-0.35-1.24-1.19c0-0.8,0.5-1.2,1.19-1.3l0.96-0.14c0.17-0.03,0.37-0.09,0.37-0.32
			c0-0.45-0.42-0.48-0.7-0.48c-0.53,0-0.63,0.33-0.65,0.57h-1.04c0.12-1.25,0.98-1.42,1.82-1.42c0.58,0,1.62,0.18,1.62,1.18
			L144.33,9.99L144.33,9.99z M143.28,8.8c-0.11,0.08-0.28,0.15-0.72,0.22c-0.4,0.07-0.73,0.17-0.73,0.61c0,0.37,0.29,0.49,0.49,0.49
			c0.48,0,0.96-0.31,0.96-0.81V8.8z"/>
		<path class="st5" d="M148.99,10.79h-1.04v-0.51h-0.02c-0.26,0.46-0.73,0.62-1.18,0.62c-1.21,0-1.71-1.07-1.71-2.19
			c0-1.41,0.8-2.1,1.69-2.1c0.69,0,1.01,0.37,1.18,0.64h0.02V5.3h1.07V10.79z M147.03,10.02c0.68,0,0.95-0.57,0.95-1.17
			c0-0.65-0.19-1.31-0.92-1.31c-0.68,0-0.91,0.6-0.91,1.25C146.14,9.26,146.34,10.02,147.03,10.02z"/>
		<path class="st5" d="M108.9,18.43h-1.15v-4.52h-1.66v-0.97h4.46v0.97h-1.66L108.9,18.43L108.9,18.43z"/>
		<path class="st5" d="M114.19,17.23c-0.28,0.98-1.09,1.3-1.79,1.3c-1.15,0-2.03-0.55-2.03-2.22c0-0.49,0.17-2.05,1.95-2.05
			c0.81,0,1.91,0.38,1.91,2.24v0.19h-2.79c0.03,0.31,0.09,0.99,0.96,0.99c0.3,0,0.6-0.15,0.69-0.44H114.19z M113.13,15.98
			c-0.06-0.65-0.48-0.86-0.82-0.86c-0.5,0-0.77,0.32-0.83,0.86H113.13z"/>
		<path class="st5" d="M118.45,16.94c-0.03,0.42-0.36,1.59-1.86,1.59c-1.53,0-1.88-1.17-1.88-2.03c0-1.32,0.58-2.26,1.95-2.26
			c0.65,0,1.7,0.29,1.8,1.56h-1.09c-0.04-0.26-0.2-0.65-0.65-0.65h-0.05c-0.67,0-0.85,0.67-0.85,1.18c0,0.44,0.02,1.32,0.82,1.32
			c0.54,0,0.73-0.52,0.73-0.71H118.45z"/>
		<path class="st5" d="M122.87,18.43h-1.07v-2.47c0-0.3-0.02-0.81-0.7-0.81c-0.48,0-0.84,0.32-0.84,0.94v2.33h-1.07v-4.07h1.03v0.59
			h0.02c0.14-0.25,0.45-0.7,1.22-0.7c0.8,0,1.42,0.47,1.42,1.36L122.87,18.43L122.87,18.43z"/>
		<path class="st5" d="M125.7,18.53c-1.09,0-2.08-0.67-2.08-2.14s0.98-2.14,2.08-2.14c1.09,0,2.08,0.67,2.08,2.14
			S126.79,18.53,125.7,18.53z M125.7,15.15c-0.82,0-0.98,0.72-0.98,1.24c0,0.52,0.15,1.24,0.98,1.24s0.98-0.72,0.98-1.24
			S126.53,15.15,125.7,15.15z"/>
		<path class="st5" d="M129.62,18.43h-1.07v-5.48h1.07V18.43z"/>
		<path class="st5" d="M132.49,18.53c-1.09,0-2.08-0.67-2.08-2.14s0.98-2.14,2.08-2.14s2.08,0.67,2.08,2.14
			S133.59,18.53,132.49,18.53z M132.49,15.15c-0.82,0-0.98,0.72-0.98,1.24c0,0.52,0.15,1.24,0.98,1.24s0.98-0.72,0.98-1.24
			S133.32,15.15,132.49,15.15z M132.82,13.81h-0.77l0.72-1.11h1.18L132.82,13.81z"/>
		<path class="st5" d="M139.05,14.36v3.85c0,0.7-0.05,1.88-2.05,1.88c-0.84,0-1.72-0.36-1.77-1.22h1.16
			c0.04,0.2,0.13,0.42,0.75,0.42c0.58,0,0.85-0.27,0.85-0.93v-0.49l-0.02-0.02c-0.18,0.31-0.44,0.61-1.09,0.61
			c-0.98,0-1.75-0.68-1.75-2.11c0-1.41,0.8-2.1,1.69-2.1c0.76,0,1.06,0.44,1.19,0.71h0.02v-0.6L139.05,14.36z M137.08,17.55
			c0.73,0,0.91-0.62,0.91-1.18c0-0.65-0.32-1.19-0.92-1.19c-0.4,0-0.84,0.29-0.84,1.24C136.23,16.93,136.44,17.55,137.08,17.55z"/>
		<path class="st5" d="M141.08,13.88h-1.07v-0.99h1.07V13.88z M141.08,14.36v4.07h-1.07v-4.07H141.08z"/>
		<path class="st5" d="M145.61,16.94c-0.03,0.42-0.36,1.59-1.86,1.59c-1.53,0-1.88-1.17-1.88-2.03c0-1.32,0.58-2.26,1.95-2.26
			c0.65,0,1.7,0.29,1.8,1.56h-1.09c-0.04-0.26-0.2-0.65-0.65-0.65h-0.05c-0.67,0-0.85,0.67-0.85,1.18c0,0.44,0.02,1.32,0.82,1.32
			c0.54,0,0.73-0.52,0.73-0.71H145.61z"/>
		<path class="st5" d="M149.65,17.63c0,0.48,0.11,0.59,0.24,0.64v0.16h-1.15c-0.06-0.19-0.08-0.25-0.1-0.48
			c-0.25,0.25-0.59,0.59-1.32,0.59c-0.61,0-1.24-0.35-1.24-1.19c0-0.8,0.5-1.2,1.19-1.3l0.96-0.14c0.17-0.03,0.37-0.09,0.37-0.32
			c0-0.45-0.42-0.48-0.7-0.48c-0.53,0-0.63,0.33-0.65,0.57h-1.04c0.12-1.25,0.98-1.42,1.82-1.42c0.58,0,1.62,0.18,1.62,1.18
			L149.65,17.63L149.65,17.63z M148.6,16.44c-0.11,0.08-0.28,0.15-0.73,0.22c-0.4,0.07-0.72,0.17-0.72,0.61
			c0,0.37,0.29,0.49,0.49,0.49c0.48,0,0.96-0.31,0.96-0.81V16.44z"/>
		<path class="st5" d="M110.2,26.07h-1.04v-0.51h-0.02c-0.26,0.46-0.73,0.62-1.18,0.62c-1.21,0-1.71-1.07-1.71-2.19
			c0-1.41,0.8-2.1,1.69-2.1c0.69,0,1.01,0.37,1.18,0.64h0.02v-1.95h1.07V26.07z M108.23,25.3c0.68,0,0.95-0.57,0.95-1.17
			c0-0.65-0.19-1.31-0.92-1.31c-0.68,0-0.91,0.6-0.91,1.25C107.35,24.54,107.54,25.3,108.23,25.3z"/>
		<path class="st5" d="M114.65,24.87c-0.28,0.98-1.09,1.3-1.79,1.3c-1.15,0-2.03-0.55-2.03-2.22c0-0.49,0.17-2.05,1.95-2.05
			c0.81,0,1.91,0.38,1.91,2.24v0.19h-2.79c0.03,0.31,0.09,0.99,0.96,0.99c0.3,0,0.6-0.15,0.69-0.44L114.65,24.87z M113.59,23.62
			c-0.06-0.65-0.48-0.86-0.82-0.86c-0.5,0-0.77,0.32-0.83,0.86H113.59z"/>
		<path class="st5" d="M116.5,26.07h-1.07v-5.48h1.07V26.07z"/>
		<path class="st5" d="M120.88,26.07h-1.15v-5.48h2.5c1.06,0,1.71,0.68,1.71,1.76c0,0.49-0.27,1.75-1.75,1.75h-1.32L120.88,26.07
			L120.88,26.07z M121.94,23.14c0.86,0,0.86-0.61,0.86-0.86c0-0.53-0.3-0.76-1.01-0.76h-0.91v1.61L121.94,23.14z"/>
		<path class="st5" d="M128.01,24.87c-0.28,0.98-1.09,1.3-1.79,1.3c-1.15,0-2.03-0.55-2.03-2.22c0-0.49,0.17-2.05,1.95-2.05
			c0.81,0,1.91,0.38,1.91,2.24v0.19h-2.79c0.03,0.31,0.09,0.99,0.96,0.99c0.3,0,0.6-0.15,0.69-0.44L128.01,24.87z M126.95,23.62
			c-0.06-0.65-0.48-0.86-0.82-0.86c-0.5,0-0.77,0.32-0.83,0.86H126.95z"/>
		<path class="st5" d="M128.76,22h1.03v0.7h0.02c0.22-0.42,0.47-0.81,1.11-0.81c0.07,0,0.14,0.01,0.2,0.02V23
			c-0.09-0.02-0.2-0.02-0.31-0.02c-0.83,0-0.98,0.52-0.98,0.97v2.11h-1.07L128.76,22L128.76,22z"/>
		<path class="st5" d="M135.29,26.07h-1.03V25.5h-0.02c-0.25,0.43-0.67,0.68-1.24,0.68c-0.81,0-1.38-0.46-1.38-1.49v-2.67h1.07v2.52
			c0,0.63,0.36,0.75,0.7,0.75c0.35,0,0.82-0.2,0.82-0.93v-2.34h1.07L135.29,26.07L135.29,26.07z M133.78,21.45h-0.77l0.72-1.11h1.18
			L133.78,21.45z"/>
	</g>
</g>
</svg>
