<svg width="32" height="32" viewBox="0 0 32 32" fill="none" xmlns="http://www.w3.org/2000/svg">
<path d="M32 26C32 29.3137 29.3137 32 26 32H6C2.68629 32 0 29.3137 0 26V6C0 2.68628 2.68629 0 6 0H26C29.3137 0 32 2.68628 32 6V26Z" fill="#336AEA"/>
<path d="M14 25.375C14 25.7202 13.7202 26 13.375 26H6.625C6.27982 26 6 25.7202 6 25.375V23.625C6 23.2798 6.27982 23 6.625 23H13.375C13.7202 23 14 23.2798 14 23.625V25.375ZM25.375 11.0001C25.7202 11.0001 26 10.7202 26 10.3751V6.62497C26 6.27979 25.7202 5.99997 25.375 5.99997L6.625 5.99988C6.27982 5.99988 6 6.27969 6 6.62488V20.375C6 20.7202 6.27982 21 6.625 21H13.375C13.7202 21 14 20.7202 14 20.375V18.625C14 18.2798 14.2798 18 14.625 18H25.375C25.7202 18 26 17.7202 26 17.375V13.6251C26 13.2799 25.7202 13.0001 25.375 13.0001H14.625C14.2798 13.0001 14 12.7202 14 12.3751V11.6251C14 11.2799 14.2798 11.0001 14.625 11.0001H25.375Z" fill="white"/>
</svg>
