<?xml version="1.0" encoding="utf-8"?>
<!-- Generator: Adobe Illustrator 27.0.0, SVG Export Plug-In . SVG Version: 6.00 Build 0)  -->
<svg version="1.1" id="Capa_1" xmlns="http://www.w3.org/2000/svg" xmlns:xlink="http://www.w3.org/1999/xlink" x="0px" y="0px"
	 viewBox="0 0 147.17 64.95" style="enable-background:new 0 0 147.17 64.95;" xml:space="preserve">
<style type="text/css">
	.st0{fill:#090E38;}
	.st1{fill:url(#SVGID_1_);}
	.st2{fill:#161A42;}
	.st3{fill:url(#SVGID_00000149339519535368117880000016015839638048099227_);}
	.st4{fill:url(#SVGID_00000070107689212553996870000009645572022620074923_);}
	.st5{fill:#FFFFFF;}
	.st6{fill:#E9E9EB;}
	.st7{fill:#2280C3;}
	.st8{fill:#263A6B;}
	.st9{fill:#13183B;}
	.st10{fill:#EBEBFF;}
	.st11{fill:#15336C;}
	.st12{fill:#121D3E;}
	.st13{fill:#D8CE9E;}
	.st14{fill:#5F485A;}
	.st15{fill:#17316F;}
	.st16{fill:#0A1C4F;}
	.st17{fill:#1E1A55;}
	.st18{fill:#12193B;}
	.st19{fill:#D8CD9C;}
	.st20{fill:#544A55;}
	.st21{fill:#E0E1E3;}
	.st22{fill:#15193A;}
	.st23{fill:#D6CC89;}
	.st24{fill:#434642;}
	.st25{fill:#131543;}
	.st26{fill:#3E3B38;}
	.st27{fill:#181940;}
	.st28{fill:#D7CE9D;}
	.st29{fill:#806D64;}
	.st30{opacity:0.7;fill:#6FC4D8;}
	.st31{fill:#805AE4;}
	.st32{fill:#ECB40A;}
	.st33{fill:#10B78E;}
	.st34{fill:url(#SVGID_00000002345300399110822380000016894743253669101742_);}
	.st35{fill:url(#SVGID_00000060032651615260999400000017228063062474366125_);}
	.st36{fill:url(#SVGID_00000018924960527075146660000004829888026141697215_);}
	.st37{fill:url(#SVGID_00000116933139938491775370000010539875919806320798_);}
	.st38{fill:url(#SVGID_00000121982255143090574370000002540401687457524894_);}
	.st39{fill:url(#SVGID_00000008835948899998675990000016835326027730856352_);}
	.st40{fill:url(#SVGID_00000111148945174584551720000016356713554486526381_);}
	.st41{fill:url(#SVGID_00000178885740666696986350000012354143020330163633_);}
	.st42{fill:url(#SVGID_00000008837266121707571210000014729552458552481419_);}
	.st43{fill:url(#SVGID_00000013873184203391074200000002409800688150236603_);}
	.st44{fill:url(#SVGID_00000044140881487893149790000012592787239662712240_);}
	.st45{fill:url(#SVGID_00000119103921090040977810000018054531350569409928_);}
	.st46{fill:url(#SVGID_00000132779486731312239530000003854087316088777123_);}
	.st47{fill:url(#SVGID_00000137827628072836588470000011549417825630846613_);}
	.st48{fill:url(#SVGID_00000039096434192135657920000014215028700820112569_);}
	.st49{fill:url(#SVGID_00000016783733037500820080000006802118470071179965_);}
	.st50{fill:url(#SVGID_00000103229427621071381950000009954567114963929756_);}
	.st51{fill:url(#SVGID_00000012432985935821135400000012163169865917500564_);}
	.st52{fill:url(#SVGID_00000131350822394987298920000014052512404453290649_);}
	.st53{fill:url(#SVGID_00000178168558696213482510000007808590530692885132_);}
	.st54{fill:url(#SVGID_00000012452075135814259290000001949164696693368707_);}
	.st55{fill:url(#SVGID_00000173156220412121541760000017284938284691998372_);}
	.st56{fill:url(#SVGID_00000171704204697273594440000001158056966141182139_);}
	.st57{fill:url(#SVGID_00000171717512548220491000000002806652688282894263_);}
	.st58{fill:url(#SVGID_00000061439869302134457210000008592951849235285173_);}
	.st59{fill:url(#SVGID_00000100373828465016556730000013064384976477592470_);}
	.st60{clip-path:url(#SVGID_00000077326033094407505510000013033911795225498757_);fill:#FFFFFF;}
	.st61{fill:none;stroke:#805AE4;stroke-miterlimit:10;}
	.st62{fill:url(#SVGID_00000098210800898729475320000014176831688947870383_);}
	.st63{fill:url(#SVGID_00000061442962377493963570000004685888774672353422_);}
	.st64{fill:url(#SVGID_00000031187463066716079510000012549120415756841640_);}
	.st65{fill:url(#SVGID_00000158714613125934252460000001494815119387778457_);}
	.st66{fill:url(#SVGID_00000043442619569279315280000014627860656935938472_);}
	.st67{fill:url(#SVGID_00000175318751692351919760000015878117038865597112_);}
	.st68{fill:url(#SVGID_00000099663598331112667000000015770166001253331878_);}
	.st69{fill:url(#SVGID_00000034061608795730858980000004509233289393801607_);}
	.st70{fill:url(#SVGID_00000091728218101733013360000002323593022982595223_);}
	.st71{fill:url(#SVGID_00000165921856201232591670000013300476950680535690_);}
	.st72{fill:url(#SVGID_00000095303247637110780930000013741798151155188657_);}
	.st73{fill:url(#SVGID_00000046312192062435950400000013835078531441927833_);}
	.st74{fill:#DDBB1B;}
	.st75{fill:#49CA80;}
	.st76{fill:#CF78C6;}
	.st77{fill:#BDACFF;}
	.st78{fill:#37368D;}
	.st79{fill:#E11E5E;}
	.st80{fill:#EB9F49;}
	.st81{fill:#FF6B6B;}
	.st82{fill:#38ABE6;}
	.st83{fill:url(#SVGID_00000090997124468775185560000017180265067384212407_);}
	.st84{fill:url(#SVGID_00000137852033250252132010000012678771387455060374_);}
	.st85{fill:url(#SVGID_00000116932491104892147800000013504407343984663455_);}
	.st86{fill:#E78A7E;}
	.st87{fill:#E69C78;}
	.st88{fill:#FF80E7;}
	.st89{fill:#E86480;}
	.st90{fill:url(#SVGID_00000181804105380955018650000013599774490948850367_);}
	.st91{fill:url(#SVGID_00000021830569075516489400000003118029039263524756_);}
	.st92{fill:url(#SVGID_00000088842775849546740460000017680794552571723159_);}
	.st93{fill:url(#SVGID_00000037663432853947994220000005034978422143269547_);}
	.st94{fill:url(#SVGID_00000054980175385001981900000013200339061561368506_);}
	.st95{fill:url(#SVGID_00000153677707480103349610000006374951495412673454_);}
	.st96{fill:url(#SVGID_00000056429660890076784090000001376043010233108898_);}
	.st97{fill:url(#SVGID_00000026141773887269687150000006183589054841678256_);}
	.st98{fill:url(#SVGID_00000005972934160359839900000011298438799757862049_);}
	.st99{fill:url(#SVGID_00000137847566009052693040000006469224941733215666_);}
	.st100{fill:url(#SVGID_00000033342551214666282950000001415637150123827859_);}
	.st101{fill:url(#SVGID_00000176748675762705882260000005317732736447794096_);}
	.st102{fill:url(#SVGID_00000148622570633425421520000004820420544082660244_);}
	.st103{fill:url(#SVGID_00000047033566628553557330000017738596009462202240_);}
	.st104{fill:url(#SVGID_00000062177683774159298140000004623732861296582033_);}
	.st105{fill:url(#SVGID_00000158748683791445110180000006152428338113106600_);}
	.st106{fill:url(#SVGID_00000111903955436019978910000015251105087233179280_);}
	.st107{fill:url(#SVGID_00000047021688267595004690000009457028085431708822_);}
	.st108{fill:url(#SVGID_00000155148973785533701860000001999630708406095283_);}
	.st109{fill:url(#SVGID_00000163767987043597016160000011863743502736257211_);}
	.st110{fill:url(#SVGID_00000114792712317584624530000009798094555693758854_);}
	.st111{fill:url(#SVGID_00000104671283782593013450000011623483058490629513_);}
	.st112{fill:url(#SVGID_00000057845109209376946780000006051352743254962566_);}
	.st113{fill:url(#SVGID_00000048483197651122538450000009939053061193768587_);}
	.st114{fill:url(#SVGID_00000102542966648362038160000015668582662463289771_);}
	.st115{fill:url(#SVGID_00000053508411263277010500000016510241263268147081_);}
	.st116{fill:url(#SVGID_00000101095582570587125900000006087661774903207612_);}
	.st117{fill:url(#SVGID_00000133493742771129147870000012492266564143187846_);}
	.st118{fill:url(#SVGID_00000111193610139429820670000003415291420914464649_);}
	.st119{fill:url(#SVGID_00000122685784881769322490000016724194128032740002_);}
	.st120{fill:url(#SVGID_00000018936264483848321680000010189967689616253058_);}
	.st121{fill:url(#SVGID_00000117637119279984046620000015571640608767095194_);}
	.st122{fill:url(#SVGID_00000147898249272408706800000007338870922222578323_);}
	.st123{fill:url(#SVGID_00000100352454319066810330000000245187348678191028_);}
	.st124{fill:url(#SVGID_00000090975804417708306090000003769476053622243720_);}
	.st125{fill:url(#SVGID_00000034078449536854098670000013966406448841772179_);}
	.st126{fill:url(#SVGID_00000089567244312872960480000006341236665973988025_);}
	.st127{fill:url(#SVGID_00000118375203382005015240000007297646335864801448_);}
	.st128{fill:url(#SVGID_00000080201102497598787580000017850683273154818438_);}
	.st129{fill:url(#SVGID_00000085214481717548767440000006550301820448214677_);}
	.st130{fill:url(#SVGID_00000083061091723376691640000012793106294117402287_);}
	.st131{fill:url(#SVGID_00000110441316548750933470000017237959699222395317_);}
	.st132{fill:url(#SVGID_00000180330009566507933930000014363104357743791763_);}
	.st133{fill:url(#SVGID_00000082368040193985024610000011636920772304650928_);}
	.st134{fill:url(#SVGID_00000168110039835875874730000001564861690223278490_);}
	.st135{fill:url(#SVGID_00000140728279804256342550000004747854142759861167_);}
	.st136{fill:url(#SVGID_00000064349946795671040830000011032524738416170942_);}
	.st137{fill:url(#SVGID_00000172400051967547184470000011412015001261939374_);}
	.st138{fill:url(#SVGID_00000075125186510434553300000016610961558208640672_);}
	.st139{fill:url(#SVGID_00000151533219364646654190000012158204530549960626_);}
	.st140{fill:url(#SVGID_00000168085597052783196290000007000037425780889233_);}
	.st141{fill:url(#SVGID_00000119798210132476158150000017809668749087282052_);}
	.st142{fill:url(#SVGID_00000148650253447727861580000014540042062169062325_);}
	.st143{fill:url(#SVGID_00000099622492216730432640000011173015099217319302_);}
	.st144{fill:url(#SVGID_00000116201812342112072910000003205671638522383514_);}
	.st145{fill:url(#SVGID_00000168077075981037372280000015913619757493579145_);}
	.st146{fill:url(#SVGID_00000024697620475029522830000000832730312394234015_);}
	.st147{fill:url(#SVGID_00000072258656962158573970000008282777915151105167_);}
	.st148{fill:url(#SVGID_00000069394611461826297480000006375908654440962488_);}
	.st149{fill:url(#SVGID_00000180356934277676980760000017289005330172778169_);}
	.st150{fill:url(#SVGID_00000152970519590034894000000013223531439037324713_);}
	.st151{fill:url(#SVGID_00000152253049933886982510000017258836338143112876_);}
	.st152{fill:url(#SVGID_00000062882508314832481890000018080681163695111333_);}
	.st153{fill:url(#SVGID_00000085210635131965426490000014027932539092605084_);}
	.st154{fill:url(#SVGID_00000036951625358439336570000006186869614420899226_);}
	.st155{fill:url(#SVGID_00000043453223603676567380000016796022325122543519_);}
	.st156{fill:url(#SVGID_00000088125794194947808840000004762470663149888187_);}
	.st157{fill:url(#SVGID_00000088115472682589099090000006214549295466658956_);}
	.st158{fill:url(#SVGID_00000085212072785314592270000006160218875474240958_);}
	.st159{fill:url(#SVGID_00000132768140585015420310000016208174823686345639_);}
	.st160{fill:url(#SVGID_00000170239733971088159060000008048273272819398840_);}
	.st161{fill:url(#SVGID_00000106148108960197529680000002828754587496388246_);}
	.st162{fill:url(#SVGID_00000033331781902491749440000006495404786155880878_);}
	.st163{fill:none;stroke:#090E38;stroke-width:2;stroke-miterlimit:10;}
	.st164{fill:#803CFF;}
	.st165{fill:none;stroke:#803CFF;stroke-miterlimit:10;}
	.st166{fill:#848698;}
	.st167{fill:url(#SVGID_00000129169427595192234050000015089090832714580658_);}
	.st168{fill:url(#SVGID_00000031910014363678510900000013251287895466090633_);}
	.st169{fill:url(#SVGID_00000023981505056331221380000004981894436013479313_);}
	.st170{fill:url(#SVGID_00000075126152389383873200000000825801768321625526_);}
	.st171{fill:url(#SVGID_00000105387833778714930750000014848680678702572462_);}
	.st172{fill:url(#SVGID_00000106856429190887388110000008037800045601092492_);}
	.st173{fill:url(#SVGID_00000172404576793278435010000010915425001418649788_);}
	.st174{fill:url(#SVGID_00000060013790018246023160000007665347558477203865_);}
	.st175{fill:#22274C;}
	.st176{fill:url(#SVGID_00000095336013374277580700000013802258119029595570_);}
	.st177{fill:url(#SVGID_00000016047702153612959970000008919127819428252304_);}
	.st178{fill:url(#SVGID_00000150065467588197102070000004955561583394240953_);}
	.st179{fill:url(#SVGID_00000026875584494826538840000004732062576569713054_);}
	.st180{fill:url(#SVGID_00000029762027120733264720000005996427962352732856_);}
	.st181{fill:url(#SVGID_00000069382037070008226680000001191077350312398266_);}
	.st182{fill:url(#SVGID_00000143591145574909072850000003731587508501331878_);}
	.st183{fill:url(#SVGID_00000140007565255302530890000011307104897497888174_);}
	.st184{fill:url(#SVGID_00000023968655187915689400000001811381155692661652_);}
	.st185{fill:url(#SVGID_00000134251985984433475670000011098297435992787893_);}
	.st186{fill:url(#SVGID_00000118394716487836800990000010711235370560372099_);}
	.st187{fill:url(#SVGID_00000111869805866605814270000005291129449760478619_);}
	.st188{fill:url(#SVGID_00000096737757372564108250000000724710149418922385_);}
	.st189{fill:url(#SVGID_00000041994247279537515350000006418790305873631930_);}
	.st190{fill:url(#SVGID_00000051375949049453898500000016594510236151270035_);}
	.st191{fill:url(#SVGID_00000174576706284556409010000010365170569135168935_);}
	.st192{fill:url(#SVGID_00000078766341890022762510000014744590259457765541_);}
	.st193{fill:url(#SVGID_00000035512058125265225670000003913932085063130279_);}
	.st194{fill:url(#SVGID_00000111890025754395609260000008227463544928929922_);}
	.st195{fill:url(#SVGID_00000181065400233484833000000018074477086723985072_);}
	.st196{fill:url(#SVGID_00000128446015981683617140000006917289412075106492_);}
	.st197{fill:url(#SVGID_00000140726107974400308140000016331880004148028827_);}
	.st198{fill:url(#SVGID_00000147941292337094738390000007547872669312231338_);}
	.st199{fill:url(#SVGID_00000130644746626799023620000011869126912121358490_);}
	.st200{fill:url(#SVGID_00000124879332010878779380000008632919500985946251_);}
	.st201{fill:url(#SVGID_00000181795951717188644060000002925458639760879502_);}
	.st202{fill:url(#SVGID_00000181065268241001856990000005298920732168685195_);}
	.st203{fill:url(#SVGID_00000118394733648958143170000010285711576402027916_);}
	.st204{fill:url(#SVGID_00000133523120681505532860000014400989019608721550_);}
	.st205{fill:url(#SVGID_00000116206288160333477890000013777926230821839492_);}
	.st206{fill:url(#SVGID_00000062882344068532779310000006885687827000114866_);}
	.st207{fill:url(#SVGID_00000116932529206578692430000011375657324557647498_);}
	.st208{fill:url(#SVGID_00000026853489947310469450000005336940206825922699_);}
	.st209{fill:url(#SVGID_00000066497780695720347690000001117207715040125602_);}
	.st210{fill:url(#SVGID_00000181786425969089013640000009802258795524399541_);}
	.st211{fill:url(#SVGID_00000008851909363785825800000017005857533258926495_);}
	.st212{fill:none;stroke:#FFFFFF;stroke-linecap:round;stroke-miterlimit:10;}
	.st213{fill:url(#SVGID_00000035496661378018588200000002927373264378589060_);}
	.st214{fill:url(#SVGID_00000133505925119634583440000010100080024657885333_);}
	.st215{fill:url(#SVGID_00000073709626198466834050000010627662482705704875_);}
	.st216{fill:url(#SVGID_00000131348563410500996190000011096113106295931309_);}
	.st217{fill:url(#SVGID_00000133495291263996413410000002615304408857043619_);}
	.st218{fill:url(#SVGID_00000109726847850105183810000007611162556573546671_);}
	.st219{fill:url(#SVGID_00000160191430440797182100000009960126341942896799_);}
	.st220{fill:url(#SVGID_00000061473039765509379160000016063095380318036888_);}
	.st221{fill:url(#SVGID_00000152943739100819688650000013144205505659877764_);}
	.st222{fill:url(#SVGID_00000133490774951472439380000001414919482112822716_);}
	.st223{fill:url(#SVGID_00000115482939196807271160000015015188689161791408_);}
	.st224{fill:url(#SVGID_00000133508420381413285610000010301882682560544411_);}
	.st225{fill:url(#SVGID_00000059282597575746074850000005662335138288350142_);}
	.st226{fill:url(#SVGID_00000011025426136045254190000010663560371850327217_);}
	.st227{fill:url(#SVGID_00000097466766887806977440000001443360125209822392_);}
	.st228{fill:url(#SVGID_00000080183176774381668150000011969765972920448413_);}
	.st229{fill:url(#SVGID_00000065034917579668123580000017114334376332215994_);}
	.st230{fill:url(#SVGID_00000096750882515979256680000004969727641897149586_);}
	.st231{fill:url(#SVGID_00000026886300812188300120000005346109592935507340_);}
	.st232{fill:url(#SVGID_00000047057449215569721820000005828866913354886304_);}
	.st233{fill:url(#SVGID_00000145048031132260475850000007568868338965431475_);}
	.st234{fill:none;stroke:#22274C;stroke-width:0.5;stroke-miterlimit:10;}
	.st235{fill:url(#SVGID_00000031177964327812239030000002702853832490357157_);}
	.st236{fill:none;stroke:#22274C;stroke-miterlimit:10;}
	.st237{fill:url(#SVGID_00000069368292264582226780000004289181660787668920_);}
	.st238{fill:url(#SVGID_00000013192022657418863780000016509323944520816011_);}
	.st239{fill:url(#SVGID_00000000925362795203312720000012126141588485662351_);}
	.st240{fill:url(#SVGID_00000057870155113409250790000002713822320230767492_);}
	.st241{fill:url(#SVGID_00000139272211328697107840000012538590410783072156_);}
	.st242{fill:url(#SVGID_00000018959974832591689250000000293788700607316918_);}
	.st243{fill:url(#SVGID_00000083806552637344462400000000422226916962367910_);}
	.st244{fill:url(#SVGID_00000022560778048767120730000015092958993675002510_);}
	.st245{fill:url(#SVGID_00000056420797397559051030000006286388014937122435_);}
	.st246{fill:url(#SVGID_00000177462980763759355860000001971639288513441462_);}
	.st247{fill:url(#SVGID_00000057837373795422891780000010884486351447071626_);}
	.st248{fill:url(#SVGID_00000176035911689889974460000007388101169391057055_);}
	.st249{fill:none;stroke:#E11E5E;stroke-miterlimit:10;}
	.st250{fill:url(#SVGID_00000027574887737777295340000007250710773087784378_);}
	.st251{fill:url(#SVGID_00000084515143870009612670000012616241580067023024_);}
	.st252{fill:url(#SVGID_00000064323374322024950730000004314744940551142561_);}
	.st253{fill:url(#SVGID_00000176721597777267945270000017160791758767707048_);}
	.st254{fill:url(#SVGID_00000127744717996712479950000011564938278462671288_);}
	.st255{fill:url(#SVGID_00000172417734814362374740000005616553871166206089_);}
	.st256{fill:url(#SVGID_00000111884247077540575870000016869769556394926222_);}
	.st257{fill:url(#SVGID_00000125578724281815879380000004606480547682447240_);}
	.st258{fill:url(#SVGID_00000018234355586943074530000000392865758594892973_);}
	.st259{fill:url(#SVGID_00000049198442612065062920000002493919863083280790_);}
	.st260{fill:url(#SVGID_00000003799359182861974850000001934217513612200349_);}
	.st261{fill:url(#SVGID_00000028292732171550398560000016652274382126650804_);}
	.st262{fill:url(#SVGID_00000103260845146916042090000006807227919493065604_);}
	.st263{fill:url(#SVGID_00000045611552015262909430000017367080613224989851_);}
	.st264{fill:url(#SVGID_00000068658767019339302960000016323961839747653274_);}
	.st265{fill:url(#SVGID_00000132076571762959141150000016592686557594023043_);}
	.st266{fill:url(#SVGID_00000034769649373505475110000014680567229388891789_);}
	.st267{fill:url(#SVGID_00000074442632420760898350000002728150864907665306_);}
	.st268{fill:url(#SVGID_00000023273026775993010580000017984193732270233780_);}
	.st269{fill:url(#SVGID_00000112591268400905472130000005764654592106594739_);}
	.st270{fill:url(#SVGID_00000078025053944156669610000010109502748234070167_);}
	.st271{fill:url(#SVGID_00000061456282669925396260000017641800580628867494_);}
	.st272{fill:url(#SVGID_00000004519618919569343790000005054280557286026634_);}
	.st273{fill:none;stroke:#FFFFFF;stroke-width:0.75;stroke-miterlimit:10;}
	.st274{fill:none;stroke:#FFFFFF;stroke-width:0.75;stroke-linecap:round;stroke-miterlimit:10;}
	.st275{fill-rule:evenodd;clip-rule:evenodd;fill:none;stroke:#FFFFFF;stroke-width:0.5;stroke-miterlimit:10;}
	
		.st276{fill-rule:evenodd;clip-rule:evenodd;fill:none;stroke:#FFFFFF;stroke-width:0.5;stroke-linecap:round;stroke-miterlimit:10;}
	.st277{fill:url(#SVGID_00000106118892894366333740000018300632707214651825_);}
	.st278{fill:url(#SVGID_00000089539206635612163180000015462563370878240671_);}
	.st279{fill:url(#SVGID_00000122715672321446775800000015247904072081257913_);}
	.st280{fill:url(#SVGID_00000076600079885657854450000000706903242076266171_);}
	.st281{fill:url(#SVGID_00000133509824293791266940000007852210057029547396_);}
	.st282{fill:url(#SVGID_00000016068761898496266490000012355882132360532925_);}
	.st283{fill:url(#SVGID_00000119798550398032347770000017098642216586536598_);}
	.st284{fill:url(#SVGID_00000109022388248030216550000018442079707622932919_);}
	.st285{fill:url(#SVGID_00000118387402670575722720000006590043632545260468_);}
	.st286{fill:url(#SVGID_00000034801950890547562200000001415790110289621140_);}
	.st287{fill:url(#SVGID_00000057133448924252871960000013393943587816039567_);}
	.st288{fill:url(#SVGID_00000081630804886287740760000011782141547099641473_);}
	.st289{fill:url(#SVGID_00000010268336906465794310000005505399187642538681_);}
	.st290{fill:url(#SVGID_00000148621055325554916040000004245425465301254560_);}
	.st291{fill:url(#SVGID_00000145040434230025813290000007564453929625250692_);}
	.st292{fill:url(#SVGID_00000104704232529006474350000013813034224553151360_);}
	.st293{fill:url(#SVGID_00000040542865100995181490000011301715128942455220_);}
	.st294{fill:url(#SVGID_00000060748431462220264610000006160283628501543822_);}
	.st295{fill:url(#SVGID_00000047026287635255274670000008862841408850766758_);}
	.st296{fill:url(#SVGID_00000164472985689726954760000016559940177898459561_);}
	.st297{fill:url(#SVGID_00000164482737289245852620000017142344494577532322_);}
	.st298{fill:url(#SVGID_00000163754692560028596820000007330636170114068618_);}
	.st299{fill:url(#SVGID_00000009547817784105848910000005172900556231483311_);}
	.st300{fill:url(#SVGID_00000145762806988849499300000010687950528430533001_);}
	.st301{fill:url(#SVGID_00000054251218158285077710000000568322603680192165_);}
	.st302{clip-path:url(#SVGID_00000058587782204338179290000007718257824057484712_);fill:#22264C;}
	.st303{clip-path:url(#SVGID_00000178917357224076355850000002716049716274380432_);fill:#FFFFFF;}
	.st304{clip-path:url(#SVGID_00000121979710278270178900000010129913614297441460_);fill:#FFFFFF;}
	.st305{clip-path:url(#SVGID_00000062158254886531837860000014527261002264467636_);fill:#FFFFFF;}
	.st306{clip-path:url(#SVGID_00000069378221864301677440000010177323876154788750_);fill:#FFFFFF;}
	.st307{clip-path:url(#SVGID_00000066482469819939314500000007332021874575488691_);fill:#FFFFFF;}
	.st308{clip-path:url(#SVGID_00000168110417715165020130000018258422651808789400_);fill:#FFFFFF;}
	.st309{clip-path:url(#SVGID_00000080914151218247794970000012878180511684458116_);fill:#FFFFFF;}
	.st310{clip-path:url(#SVGID_00000023961772358890916110000015038766061163707795_);fill:#FFFFFF;}
	.st311{clip-path:url(#SVGID_00000090276965897011358690000007490167378065951651_);fill:#FFFFFF;}
	.st312{clip-path:url(#SVGID_00000149355030257713828880000013721004204333485471_);fill:#FFFFFF;}
	.st313{clip-path:url(#SVGID_00000083075924214358510450000008765356974865953951_);fill:#FFFFFF;}
	.st314{fill:url(#SVGID_00000072973769129598854690000010235312828117626241_);}
	.st315{fill:url(#SVGID_00000182485939202304145610000001471262728604706489_);}
	.st316{fill:url(#SVGID_00000034053335177150296820000010127523957778099079_);}
	.st317{fill:url(#SVGID_00000072967849469054338280000014072137128402276490_);}
	.st318{fill:url(#SVGID_00000113352436636313363950000008648876304584945807_);}
	.st319{fill:url(#SVGID_00000029736833887710533230000018120694516524035725_);}
	.st320{fill:url(#SVGID_00000149369623145692888830000004321754818639020980_);}
	.st321{fill:url(#SVGID_00000093856134751084776810000000669368158044260993_);}
	.st322{fill:url(#SVGID_00000093170695584261822960000000872650678271123375_);}
	.st323{fill:url(#SVGID_00000006666334850911761850000002084037231725254325_);}
	.st324{fill:url(#SVGID_00000044149186887401647380000007639501667114249119_);}
	.st325{fill:url(#SVGID_00000155869563070468442520000015735814734985545615_);}
	.st326{fill:url(#SVGID_00000033354620952368817550000013435004801651481525_);}
	.st327{fill:url(#SVGID_00000145744285774390288740000003174518952867225528_);}
	.st328{fill:url(#SVGID_00000147189361285988760720000010000759414524754352_);}
	.st329{fill:url(#SVGID_00000002371974962805715560000005480786107857719700_);}
	.st330{fill:url(#SVGID_00000091711613445111160260000011723644872581001377_);}
	.st331{fill:url(#SVGID_00000081609539492738975810000016274449016411231147_);}
	.st332{fill:url(#SVGID_00000037683687330370632600000010537868508481598910_);}
	.st333{fill:url(#SVGID_00000109716260417340917230000011851933373287077272_);}
	.st334{fill:url(#SVGID_00000091737212233372069920000002969547146160668603_);}
	.st335{fill:url(#SVGID_00000066481559567296573630000006859384582208294027_);}
	.st336{fill:url(#SVGID_00000020369020226782966410000008072645747439904180_);}
	.st337{fill:url(#SVGID_00000066517706693814807740000012461196668129980062_);}
	.st338{fill:url(#SVGID_00000082350754009557967770000018003809934242721963_);}
	.st339{fill:url(#SVGID_00000127738708211174826360000001263123107840583321_);}
	.st340{fill:url(#SVGID_00000062904487596190853900000010652351676091543693_);}
	.st341{fill:url(#SVGID_00000025418686806711811850000004448337831906712494_);}
	.st342{fill:url(#SVGID_00000114041500377723603160000011061423642867935643_);}
	.st343{fill:url(#SVGID_00000117662617407715379920000012243430281121240251_);}
	.st344{fill:url(#SVGID_00000005233527904141100450000007101519293785737614_);}
	.st345{fill:url(#SVGID_00000009556261092040063110000006704634420691094921_);}
	.st346{fill:url(#SVGID_00000093867744741889800820000001297284066206749849_);}
	.st347{fill:url(#SVGID_00000163782464005823525280000006305795350160413079_);}
	.st348{fill:url(#SVGID_00000127013636804559123210000015108943961489067687_);}
	.st349{fill:url(#SVGID_00000145028548544825010710000008053535070769122449_);}
	.st350{fill:url(#SVGID_00000044873680080084411310000008030838737415276427_);}
	.st351{fill:url(#SVGID_00000092428433642506597710000005595600157336560801_);}
	.st352{fill:url(#SVGID_00000041269599150258123330000018190814185478992042_);}
	.st353{fill:url(#SVGID_00000162338515408495543810000004523864881929992605_);}
	.st354{fill:#8A8989;}
	.st355{fill:#616160;}
	.st356{fill-rule:evenodd;clip-rule:evenodd;fill:#FFFFFF;}
	.st357{fill-rule:evenodd;clip-rule:evenodd;fill:#8A8989;}
	.st358{fill-rule:evenodd;clip-rule:evenodd;fill:#797879;}
	.st359{clip-path:url(#XMLID_00000078005437123463154490000002995093823478158725_);}
	.st360{opacity:0.2;fill:#E1E3E7;}
	.st361{fill-rule:evenodd;clip-rule:evenodd;fill:#616160;}
	.st362{fill:#E1E3E7;}
	.st363{fill:#FFFFFF;stroke:#FFFFFF;stroke-width:4;stroke-miterlimit:10;}
	.st364{fill:#58595B;}
	.st365{fill:#80A926;}
	.st366{clip-path:url(#SVGID_00000109749535812390148600000001298153612668541066_);}
	.st367{clip-path:url(#SVGID_00000032639075972354577520000001419179340635066256_);}
	.st368{clip-path:url(#SVGID_00000087391474898679622410000010465705304432249221_);}
	.st369{clip-path:url(#SVGID_00000156585828951976470570000016162491783692572552_);}
	.st370{clip-path:url(#SVGID_00000156568185818012074830000000322218937789099451_);}
	.st371{clip-path:url(#SVGID_00000167354764092372045830000012234444209169952906_);}
	.st372{clip-path:url(#SVGID_00000160891272854041743730000012736118790024451256_);}
	.st373{clip-path:url(#SVGID_00000104672542248430861690000002154032127574417064_);}
	.st374{clip-path:url(#SVGID_00000065032422645887780180000004194096762445790101_);}
	.st375{clip-path:url(#SVGID_00000170957558747248634560000002515477853318560959_);}
	.st376{fill:#1D1E1C;}
	.st377{opacity:0.36;}
	.st378{opacity:0.57;}
	.st379{fill:none;}
	.st380{fill:#01CEA6;}
	.st381{fill:#01261F;}
	.st382{fill:#E68000;}
	.st383{fill:#261400;}
	.st384{fill:#E63D80;}
	.st385{fill:#2D0013;}
	.st386{fill:#3695BB;}
	.st387{fill:#032732;}
	.st388{fill:#CDE4EC;}
	.st389{fill:#DA80E7;}
	.st390{fill:#B072BD;}
	.st391{fill:#855994;}
	.st392{fill:#180024;}
	.st393{fill:#DD80EA;}
	.st394{fill:#BB80E7;}
	.st395{fill:#9B77C0;}
	.st396{fill:#C080ED;}
	.st397{fill:#1F0140;}
	.st398{fill:#80619A;}
	.st399{fill:url(#SVGID_00000049926185068581243360000001069658531699312574_);}
	.st400{fill:url(#SVGID_00000030486655849234266100000013861178086956055184_);}
	.st401{fill:url(#SVGID_00000005240927132642659300000014944848651576225949_);}
	.st402{fill:url(#SVGID_00000165203288843132954680000009589748495545980348_);}
	.st403{fill:url(#SVGID_00000128458246937510447430000000487762962446398855_);}
	.st404{fill:url(#SVGID_00000031167436975494575920000002186713877612252040_);}
	.st405{fill:url(#SVGID_00000132800544332036407000000008474940248074801575_);}
	.st406{fill:url(#SVGID_00000093145973653456891940000007992058105345462417_);}
	.st407{fill:url(#SVGID_00000172425044315312467550000006430789047352433839_);}
	.st408{fill:url(#SVGID_00000153706864262079792140000009530785216412448651_);}
	.st409{fill:url(#SVGID_00000170278628033514492130000006357446156440800434_);}
	.st410{fill:url(#SVGID_00000105419895046931870130000004859778597011982233_);}
	.st411{fill:none;stroke:#464A69;stroke-miterlimit:10;}
	.st412{fill:url(#SVGID_00000037660317929830706160000015476329006707835579_);}
	.st413{fill:url(#SVGID_00000155107789118255856700000013511742154098667419_);}
	.st414{fill:url(#SVGID_00000156556240200682004980000003045006712706413758_);}
	.st415{fill:url(#SVGID_00000162329688634487741410000004559597550164568248_);}
	.st416{fill:url(#SVGID_00000091012746688271402880000012428557046732633754_);}
	.st417{fill:url(#SVGID_00000018239460776709182520000016481440213445779117_);}
	.st418{fill:url(#SVGID_00000064344968971459109210000017789766439639433139_);}
	.st419{fill:url(#SVGID_00000103262919613970008240000015348201463364577941_);}
	.st420{fill:url(#SVGID_00000020384536131157579020000006962973727575258265_);}
	.st421{fill:url(#SVGID_00000024722711041078657620000000300642102755551122_);}
	.st422{fill:url(#SVGID_00000028292635843319444360000015308639008326692010_);}
	.st423{fill:url(#SVGID_00000155145999780168360290000013779903240811254440_);}
	.st424{fill:url(#SVGID_00000142869308950712118820000015183161378106428556_);}
	.st425{fill:url(#SVGID_00000150080208353665610660000014479270409786312373_);}
	.st426{fill:none;stroke:#22274C;stroke-width:0.75;stroke-miterlimit:10;}
	.st427{fill:none;stroke:#FFFFFF;stroke-width:2;stroke-miterlimit:10;}
	.st428{fill:url(#SVGID_00000090976417253159443800000000412249429848269697_);}
	.st429{fill:url(#SVGID_00000028302110195462909260000004345827819866057661_);}
	.st430{fill:url(#SVGID_00000085229732872573464610000005305711742168042174_);}
	.st431{fill:url(#SVGID_00000070841007443338662890000011378694541474534574_);}
	.st432{fill:url(#SVGID_00000073721896549402391940000012713172388279864227_);}
	.st433{fill:url(#SVGID_00000057850113593653383290000017614356834458377127_);}
	.st434{fill:url(#SVGID_00000178175616452067269660000008374059940531388594_);}
	.st435{fill:url(#SVGID_00000057123063506703247390000013929425449352278189_);}
	.st436{fill:url(#SVGID_00000039114747564512269820000016601160557605130674_);}
	.st437{fill:url(#SVGID_00000008146706700535852190000016333765858570184611_);}
	.st438{fill:url(#SVGID_00000041262587839492008620000005521313859932534957_);}
	.st439{fill:url(#SVGID_00000073702868998721079660000001592714459324355233_);}
	.st440{fill:url(#SVGID_00000165224629511364266250000001866955227139554961_);}
	.st441{fill:url(#SVGID_00000121997403229536435350000018136322807406007479_);}
	.st442{fill:url(#SVGID_00000034056010271141001120000011544470389492157369_);}
	.st443{fill:url(#SVGID_00000058590548341006007960000002591671534281776030_);}
	.st444{fill:url(#SVGID_00000040576596741454968720000008250598340312567721_);}
	.st445{fill:url(#SVGID_00000003816539499818450300000014603883028777917108_);}
	.st446{fill:url(#SVGID_00000069374101107964935510000004374577581776272574_);}
	.st447{fill:url(#SVGID_00000152952423149593451500000016618793183290198960_);}
	.st448{fill:url(#SVGID_00000125589936696521696330000006302596070790091708_);}
	.st449{fill:url(#SVGID_00000177473975739343433830000015113761036610829706_);}
	.st450{fill:url(#SVGID_00000029732074382277120160000009073329371818526110_);}
	.st451{fill:url(#SVGID_00000101810761905316925400000017291833108842202806_);}
	.st452{fill:url(#SVGID_00000026153287894219766520000000575876727993917825_);}
	.st453{fill:url(#SVGID_00000041288377948474368260000010415099556583610009_);}
	.st454{fill:url(#SVGID_00000074416980191931464860000013297004057153137541_);}
	.st455{fill:none;stroke:#8F8F8F;stroke-width:0.75;stroke-miterlimit:10;}
	.st456{fill:#8F8F8F;stroke:#8F8F8F;stroke-width:0.25;stroke-miterlimit:10;}
	.st457{fill:#8F8F8F;}
	.st458{fill:none;stroke:#8F8F8F;stroke-width:0.25;stroke-miterlimit:10;}
	.st459{fill:url(#SVGID_00000049908637661511372630000003147357271958630054_);}
	.st460{fill:url(#SVGID_00000101101727145500624830000004200027822767029150_);}
	.st461{fill:url(#SVGID_00000070816780164566897280000015830777656591740055_);}
	.st462{fill:url(#SVGID_00000142854833765900792180000004561692426582505146_);}
	.st463{fill:url(#SVGID_00000099627782136052490340000013625732418505667989_);}
	.st464{fill:url(#SVGID_00000026163542729066249350000010204320695098339721_);}
	.st465{fill:url(#SVGID_00000066473330684097224510000012010314602326421681_);}
	.st466{fill:url(#SVGID_00000005256849751754423580000001278161017784874656_);}
	.st467{fill:url(#SVGID_00000168835618441934144900000012582143024501965993_);}
	.st468{fill:url(#SVGID_00000070082502472553303500000002871181842759331722_);}
</style>
<g>
	<g>
		<g>
			<path class="st5" d="M7.52,42.34h13.24c0,2.58-1.06,4.8-3.18,6.66c-2.03,1.77-4.41,2.66-7.13,2.66c-2.84,0-5.29-0.99-7.35-2.96
				C1.03,46.73,0,44.32,0,41.48c0-1.31,0.27-2.57,0.8-3.78c0.54-1.21,1.28-2.28,2.23-3.23c0.95-0.95,2.07-1.68,3.37-2.19
				c1.3-0.51,2.65-0.77,4.04-0.77c1.05,0,2.05,0.14,3,0.41c0.95,0.28,1.86,0.7,2.73,1.26c0.72,0.49,1.38,1.05,1.98,1.68
				c0.69,0.72,1.16,1.45,1.42,2.18h-2.21c-0.67-1.12-1.64-2.01-2.92-2.67c-0.65-0.33-1.31-0.57-1.97-0.73
				c-0.66-0.16-1.34-0.24-2.02-0.24c-1.06,0-2.1,0.18-3.1,0.55s-1.91,0.91-2.7,1.65c-0.8,0.73-1.44,1.63-1.94,2.7
				c-0.49,1.07-0.74,2.14-0.74,3.22c0,2.34,0.85,4.31,2.54,5.91c1.65,1.57,3.66,2.35,6.03,2.35c1.78,0,3.41-0.53,4.91-1.58
				c1.49-1.05,2.49-2.42,2.99-4.1H7.52V42.34z"/>
		</g>
		<g>
			<path class="st5" d="M23.85,51.33V31.84h1.96v19.48H23.85z"/>
		</g>
		<g>
			<path class="st5" d="M39.25,31.52c2.78,0,5.2,0.97,7.24,2.91c2.05,1.94,3.07,4.3,3.07,7.08c0,2.81-1.01,5.21-3.03,7.19
				c-2.02,1.98-4.45,2.97-7.29,2.97c-2.76,0-5.15-0.97-7.19-2.9c-2.07-1.97-3.1-4.34-3.1-7.1c0-2.81,1.01-5.2,3.02-7.17
				C34,32.51,36.42,31.52,39.25,31.52z M39.28,33.4c-2.29,0-4.26,0.81-5.9,2.42c-1.64,1.61-2.46,3.56-2.46,5.85
				c0,2.21,0.83,4.12,2.5,5.72c1.67,1.6,3.62,2.4,5.86,2.4c2.29,0,4.25-0.8,5.89-2.41c1.63-1.61,2.45-3.56,2.45-5.86
				c0-2.22-0.83-4.13-2.48-5.72C43.48,34.2,41.53,33.4,39.28,33.4z"/>
		</g>
		<g>
			<path class="st5" d="M52.73,51.33V31.84h4.64c0.13,0,0.32,0,0.58,0c0.26,0,0.45,0,0.58,0c0.17,0,0.33,0,0.49,0
				s0.3,0.02,0.45,0.05c0.15,0,0.29,0,0.42,0.01c0.14,0.01,0.27,0.03,0.41,0.05c0.26,0.03,0.57,0.09,0.93,0.19
				c0.6,0.13,1.16,0.34,1.67,0.63c0.98,0.54,1.73,1.29,2.25,2.26c0.52,0.97,0.79,2.02,0.79,3.15c0,1.6-0.56,2.97-1.69,4.13
				c-1.13,1.15-2.48,1.73-4.06,1.73l5.48,7.28l-2.42,0l-6.61-8.83h0.58h0.51h0.32h0.26h0.21h0.18h0.14c0.38,0,0.64-0.02,0.8-0.06
				c0.66-0.08,1.27-0.23,1.83-0.46c0.79-0.36,1.41-0.9,1.85-1.61c0.45-0.71,0.67-1.49,0.67-2.34c0-0.69-0.16-1.35-0.49-1.98
				c-0.33-0.63-0.77-1.14-1.32-1.51c-0.55-0.38-1.26-0.64-2.12-0.8c-0.51-0.08-1.27-0.12-2.29-0.12h-3.09v17.72H52.73z"/>
		</g>
		<g>
			<path class="st5" d="M68.74,51.33V31.84h5.24c0.87,0,1.6,0.03,2.21,0.1c0.61,0.06,1.21,0.18,1.82,0.35
				c1.34,0.36,2.55,0.98,3.63,1.85c1.08,0.87,1.94,1.97,2.59,3.29c0.64,1.32,0.97,2.69,0.97,4.11c0,1.36-0.28,2.68-0.85,3.97
				c-0.28,0.64-0.62,1.24-1,1.78c-0.39,0.55-0.83,1.05-1.34,1.5c-1.06,0.96-2.29,1.65-3.68,2.06c-1.17,0.32-2.57,0.48-4.21,0.48
				H68.74z M70.7,49.56h2.51c1.07,0,1.9-0.03,2.48-0.08c0.88-0.08,1.68-0.24,2.39-0.48c0.71-0.24,1.43-0.65,2.16-1.23
				c0.94-0.74,1.68-1.65,2.21-2.75c0.53-1.09,0.79-2.26,0.79-3.48c0-2.49-1.01-4.55-3.02-6.17c-0.68-0.52-1.41-0.92-2.19-1.2
				c-0.6-0.21-1.29-0.35-2.08-0.44c-0.79-0.09-1.7-0.13-2.75-0.13H70.7V49.56z"/>
		</g>
		<g>
			<path class="st5" d="M107.89,51.33V31.84l2.64-0.01l10.91,16.16V31.84h1.96v19.48h-1.96l-11.59-17.14v17.14H107.89z"/>
		</g>
		<g>
			<path class="st5" d="M136.85,31.52c2.78,0,5.2,0.97,7.24,2.91c2.05,1.94,3.07,4.3,3.07,7.08c0,2.81-1.01,5.21-3.03,7.19
				c-2.02,1.98-4.45,2.97-7.29,2.97c-2.76,0-5.15-0.97-7.19-2.9c-2.07-1.97-3.1-4.34-3.1-7.1c0-2.81,1.01-5.2,3.02-7.17
				C131.6,32.51,134.02,31.52,136.85,31.52z M136.88,33.4c-2.29,0-4.26,0.81-5.9,2.42c-1.64,1.61-2.46,3.56-2.46,5.85
				c0,2.21,0.83,4.12,2.5,5.72c1.67,1.6,3.62,2.4,5.86,2.4c2.29,0,4.25-0.8,5.88-2.41c1.63-1.61,2.45-3.56,2.45-5.86
				c0-2.22-0.83-4.13-2.48-5.72C141.08,34.2,139.13,33.4,136.88,33.4z"/>
		</g>
		<g>
			<polygon class="st5" points="97.23,31.84 95.06,31.84 86.66,51.33 88.76,51.33 91.58,44.79 92.34,43.02 96.14,34.09 99.88,43.02 
				100.65,44.79 103.47,51.33 105.59,51.33 			"/>
		</g>
	</g>
	<g>
		<path class="st5" d="M85.12,13.47L85.12,13.47c-0.14,2.22,1.48,4.15,3.69,4.41c3.78,0.43,9.09,0.34,11.8-0.31
			c5.23-1.24,10.73-4.04,19.12-10.82c8.02-6.49,14.81-4.49,15.64-4.49c0.83,0,0.83-1.33-1.88-1.74c-4.38-0.67-11.19-1.1-16.97,1.51
			C111.1,4.48,106.3,8.94,98.5,9.68c-2.81,0.27-6.25,0.08-8.89-0.12C87.28,9.38,85.26,11.14,85.12,13.47z"/>
	</g>
	<g>
		<path class="st5" d="M62.24,13.47L62.24,13.47c0.14,2.22-1.48,4.15-3.69,4.41c-3.78,0.43-9.09,0.34-11.8-0.31
			c-5.23-1.24-10.73-4.04-19.12-10.82C19.6,0.26,12.82,2.25,11.99,2.25c-0.83,0-0.83-1.33,1.88-1.74c4.38-0.67,11.19-1.1,16.97,1.51
			c5.42,2.46,10.23,6.92,18.02,7.66c2.81,0.27,6.25,0.08,8.89-0.12C60.08,9.38,62.1,11.14,62.24,13.47z"/>
	</g>
	<g>
		<path class="st5" d="M17.86,64.88V56.1h0.76l4.01,6.84h-0.4l3.97-6.84h0.76v8.77h-0.89V57.5h0.21l-3.66,6.27H22.2l-3.68-6.27h0.24
			v7.38H17.86z"/>
		<path class="st5" d="M32.36,64.94c-0.56,0-1.05-0.1-1.47-0.31c-0.42-0.21-0.74-0.52-0.97-0.94c-0.23-0.42-0.34-0.94-0.34-1.57
			V58.3h0.89v3.72c0,0.7,0.17,1.23,0.52,1.59c0.35,0.36,0.83,0.53,1.46,0.53c0.46,0,0.86-0.09,1.2-0.28s0.6-0.46,0.78-0.82
			c0.18-0.36,0.27-0.79,0.27-1.29V58.3h0.89v6.58h-0.85v-1.8l0.14,0.33c-0.21,0.48-0.53,0.86-0.97,1.13
			C33.46,64.8,32.94,64.94,32.36,64.94z"/>
		<path class="st5" d="M40.86,64.94c-0.69,0-1.29-0.14-1.8-0.43c-0.52-0.29-0.92-0.68-1.22-1.19c-0.29-0.51-0.44-1.08-0.44-1.74
			c0-0.65,0.14-1.23,0.42-1.73c0.28-0.5,0.66-0.9,1.15-1.18s1.04-0.43,1.65-0.43c0.62,0,1.17,0.14,1.65,0.42
			c0.48,0.28,0.86,0.67,1.13,1.18c0.28,0.51,0.41,1.09,0.41,1.75c0,0.04,0,0.09-0.01,0.13c0,0.05-0.01,0.09-0.01,0.14h-5.73v-0.66
			h5.25l-0.35,0.26c0-0.48-0.1-0.9-0.31-1.27c-0.2-0.37-0.48-0.66-0.83-0.87C41.48,59.1,41.08,59,40.62,59
			c-0.45,0-0.86,0.1-1.22,0.31c-0.36,0.21-0.64,0.5-0.84,0.88c-0.2,0.38-0.3,0.81-0.3,1.29v0.14c0,0.5,0.11,0.94,0.33,1.32
			c0.22,0.38,0.53,0.68,0.93,0.89c0.4,0.21,0.85,0.32,1.36,0.32c0.4,0,0.77-0.07,1.12-0.21c0.35-0.14,0.65-0.36,0.9-0.65l0.5,0.58
			c-0.29,0.35-0.66,0.62-1.1,0.8C41.86,64.85,41.38,64.94,40.86,64.94z"/>
		<path class="st5" d="M45.63,64.88v-9.3h0.89v4.66l-0.13,1.33l0.09,1.33v1.98H45.63z M49.03,64.94c-0.58,0-1.09-0.13-1.55-0.4
			c-0.46-0.26-0.82-0.65-1.09-1.15c-0.27-0.5-0.4-1.11-0.4-1.82c0-0.72,0.14-1.33,0.41-1.82c0.27-0.5,0.64-0.87,1.1-1.13
			c0.46-0.26,0.97-0.39,1.54-0.39c0.63,0,1.19,0.14,1.69,0.42c0.5,0.28,0.89,0.67,1.17,1.17c0.28,0.5,0.43,1.09,0.43,1.75
			c0,0.66-0.14,1.24-0.43,1.75c-0.28,0.51-0.67,0.9-1.17,1.18C50.21,64.8,49.65,64.94,49.03,64.94z M48.96,64.15
			c0.47,0,0.89-0.11,1.25-0.32c0.37-0.21,0.66-0.51,0.88-0.9c0.22-0.39,0.33-0.84,0.33-1.35c0-0.52-0.11-0.97-0.33-1.35
			c-0.22-0.38-0.51-0.68-0.88-0.9c-0.37-0.21-0.79-0.32-1.25-0.32c-0.47,0-0.89,0.11-1.26,0.32c-0.37,0.21-0.66,0.51-0.88,0.9
			c-0.21,0.38-0.32,0.84-0.32,1.35c0,0.51,0.11,0.96,0.32,1.35c0.21,0.39,0.51,0.69,0.88,0.9C48.08,64.04,48.5,64.15,48.96,64.15z"
			/>
		<path class="st5" d="M54.13,64.88v-9.3h0.89v9.3H54.13z"/>
		<path class="st5" d="M60.29,64.94c-0.69,0-1.29-0.14-1.8-0.43c-0.52-0.29-0.92-0.68-1.22-1.19c-0.29-0.51-0.44-1.08-0.44-1.74
			c0-0.65,0.14-1.23,0.42-1.73c0.28-0.5,0.66-0.9,1.15-1.18s1.04-0.43,1.65-0.43c0.62,0,1.17,0.14,1.65,0.42
			c0.48,0.28,0.86,0.67,1.13,1.18c0.28,0.51,0.41,1.09,0.41,1.75c0,0.04,0,0.09-0.01,0.13c0,0.05-0.01,0.09-0.01,0.14h-5.73v-0.66
			h5.25l-0.35,0.26c0-0.48-0.1-0.9-0.31-1.27c-0.2-0.37-0.48-0.66-0.83-0.87C60.92,59.1,60.51,59,60.05,59
			c-0.45,0-0.86,0.1-1.22,0.31c-0.36,0.21-0.64,0.5-0.84,0.88c-0.2,0.38-0.3,0.81-0.3,1.29v0.14c0,0.5,0.11,0.94,0.33,1.32
			c0.22,0.38,0.53,0.68,0.93,0.89c0.4,0.21,0.85,0.32,1.36,0.32c0.4,0,0.77-0.07,1.12-0.21c0.35-0.14,0.65-0.36,0.9-0.65l0.5,0.58
			c-0.29,0.35-0.66,0.62-1.1,0.8C61.3,64.85,60.82,64.94,60.29,64.94z"/>
		<path class="st5" d="M66.83,64.94c-0.54,0-1.06-0.08-1.54-0.23c-0.48-0.15-0.86-0.35-1.14-0.58l0.4-0.7
			c0.27,0.2,0.61,0.37,1.03,0.52c0.42,0.15,0.86,0.22,1.32,0.22c0.63,0,1.08-0.1,1.35-0.29c0.28-0.2,0.41-0.46,0.41-0.78
			c0-0.24-0.08-0.43-0.23-0.57c-0.15-0.14-0.36-0.24-0.61-0.31c-0.25-0.07-0.53-0.13-0.84-0.18c-0.31-0.05-0.62-0.11-0.92-0.18
			c-0.31-0.07-0.58-0.16-0.83-0.29c-0.25-0.13-0.45-0.31-0.61-0.53c-0.15-0.23-0.23-0.53-0.23-0.9c0-0.36,0.1-0.68,0.3-0.97
			c0.2-0.28,0.5-0.51,0.88-0.67c0.39-0.16,0.86-0.24,1.42-0.24c0.43,0,0.85,0.06,1.28,0.17c0.43,0.11,0.78,0.26,1.05,0.44
			l-0.39,0.71c-0.29-0.2-0.61-0.34-0.94-0.43C67.66,59.04,67.33,59,67,59c-0.59,0-1.03,0.1-1.31,0.31c-0.28,0.2-0.42,0.47-0.42,0.78
			c0,0.25,0.08,0.45,0.23,0.59c0.15,0.14,0.36,0.25,0.61,0.33c0.25,0.08,0.53,0.14,0.84,0.19c0.3,0.05,0.61,0.11,0.91,0.18
			c0.3,0.07,0.58,0.17,0.84,0.29c0.25,0.12,0.46,0.29,0.61,0.51c0.15,0.22,0.23,0.51,0.23,0.87c0,0.38-0.11,0.72-0.32,1
			c-0.21,0.28-0.52,0.5-0.93,0.65C67.9,64.86,67.41,64.94,66.83,64.94z"/>
		<path class="st5" d="M77.08,64.94c-0.63,0-1.19-0.14-1.69-0.43c-0.5-0.28-0.89-0.68-1.17-1.18c-0.28-0.51-0.43-1.09-0.43-1.75
			c0-0.67,0.14-1.25,0.43-1.75c0.28-0.5,0.67-0.89,1.17-1.17c0.5-0.28,1.06-0.42,1.69-0.42c0.58,0,1.09,0.13,1.55,0.39
			c0.46,0.26,0.82,0.64,1.09,1.13c0.27,0.5,0.41,1.1,0.41,1.82c0,0.71-0.13,1.32-0.4,1.82c-0.27,0.5-0.63,0.88-1.08,1.15
			C78.19,64.81,77.67,64.94,77.08,64.94z M77.15,64.15c0.47,0,0.89-0.11,1.26-0.32c0.37-0.21,0.66-0.51,0.88-0.9
			c0.21-0.39,0.32-0.84,0.32-1.35c0-0.52-0.11-0.97-0.32-1.35c-0.21-0.38-0.51-0.68-0.88-0.9c-0.37-0.21-0.79-0.32-1.26-0.32
			c-0.46,0-0.87,0.11-1.24,0.32c-0.37,0.21-0.66,0.51-0.88,0.9c-0.22,0.38-0.33,0.84-0.33,1.35c0,0.51,0.11,0.96,0.33,1.35
			c0.22,0.39,0.51,0.69,0.88,0.9C76.27,64.04,76.69,64.15,77.15,64.15z M79.63,64.88V62.9l0.09-1.33l-0.13-1.33v-4.66h0.89v9.3
			H79.63z"/>
		<path class="st5" d="M85.75,64.94c-0.69,0-1.29-0.14-1.8-0.43c-0.52-0.29-0.92-0.68-1.22-1.19c-0.29-0.51-0.44-1.08-0.44-1.74
			c0-0.65,0.14-1.23,0.42-1.73c0.28-0.5,0.66-0.9,1.15-1.18c0.49-0.29,1.04-0.43,1.65-0.43c0.62,0,1.17,0.14,1.65,0.42
			c0.48,0.28,0.86,0.67,1.13,1.18c0.28,0.51,0.41,1.09,0.41,1.75c0,0.04,0,0.09-0.01,0.13c0,0.05-0.01,0.09-0.01,0.14h-5.73v-0.66
			h5.25l-0.35,0.26c0-0.48-0.1-0.9-0.31-1.27c-0.2-0.37-0.48-0.66-0.83-0.87C86.38,59.1,85.98,59,85.52,59
			c-0.45,0-0.86,0.1-1.22,0.31c-0.36,0.21-0.64,0.5-0.84,0.88c-0.2,0.38-0.3,0.81-0.3,1.29v0.14c0,0.5,0.11,0.94,0.33,1.32
			c0.22,0.38,0.53,0.68,0.93,0.89c0.4,0.21,0.85,0.32,1.36,0.32c0.4,0,0.77-0.07,1.12-0.21c0.35-0.14,0.65-0.36,0.9-0.65l0.5,0.58
			c-0.29,0.35-0.66,0.62-1.1,0.8C86.76,64.85,86.28,64.94,85.75,64.94z"/>
		<path class="st5" d="M97.81,64.95c-0.66,0-1.27-0.11-1.83-0.33c-0.56-0.22-1.04-0.53-1.45-0.93c-0.41-0.4-0.73-0.87-0.96-1.42
			c-0.23-0.54-0.34-1.14-0.34-1.78c0-0.64,0.11-1.24,0.34-1.78c0.23-0.54,0.55-1.02,0.96-1.42c0.41-0.4,0.9-0.71,1.46-0.93
			c0.56-0.22,1.17-0.33,1.83-0.33c0.63,0,1.23,0.11,1.79,0.32c0.56,0.21,1.03,0.53,1.42,0.96l-0.59,0.59
			c-0.36-0.37-0.76-0.63-1.19-0.8c-0.43-0.16-0.9-0.24-1.4-0.24c-0.53,0-1.01,0.09-1.47,0.27c-0.45,0.18-0.84,0.43-1.18,0.76
			c-0.33,0.33-0.6,0.71-0.78,1.15c-0.19,0.44-0.28,0.92-0.28,1.45c0,0.53,0.09,1.01,0.28,1.45c0.19,0.44,0.45,0.82,0.78,1.15
			c0.33,0.33,0.73,0.58,1.18,0.76c0.45,0.18,0.94,0.27,1.47,0.27c0.5,0,0.97-0.08,1.4-0.25c0.43-0.17,0.83-0.43,1.19-0.8l0.59,0.59
			c-0.38,0.43-0.86,0.75-1.42,0.96C99.05,64.84,98.45,64.95,97.81,64.95z"/>
		<path class="st5" d="M105.32,64.94c-0.56,0-1.05-0.1-1.47-0.31c-0.42-0.21-0.74-0.52-0.97-0.94c-0.23-0.42-0.34-0.94-0.34-1.57
			V58.3h0.89v3.72c0,0.7,0.17,1.23,0.52,1.59c0.35,0.36,0.83,0.53,1.46,0.53c0.46,0,0.86-0.09,1.2-0.28
			c0.34-0.19,0.6-0.46,0.78-0.82c0.18-0.36,0.27-0.79,0.27-1.29V58.3h0.89v6.58h-0.85v-1.8l0.14,0.33
			c-0.21,0.48-0.53,0.86-0.97,1.13C106.41,64.8,105.9,64.94,105.32,64.94z"/>
		<path class="st5" d="M113.81,64.94c-0.69,0-1.29-0.14-1.8-0.43c-0.52-0.29-0.92-0.68-1.22-1.19c-0.29-0.51-0.44-1.08-0.44-1.74
			c0-0.65,0.14-1.23,0.42-1.73c0.28-0.5,0.66-0.9,1.15-1.18c0.49-0.29,1.04-0.43,1.65-0.43c0.62,0,1.17,0.14,1.65,0.42
			c0.48,0.28,0.86,0.67,1.13,1.18c0.28,0.51,0.41,1.09,0.41,1.75c0,0.04,0,0.09-0.01,0.13c0,0.05-0.01,0.09-0.01,0.14h-5.73v-0.66
			h5.25l-0.35,0.26c0-0.48-0.1-0.9-0.31-1.27c-0.2-0.37-0.48-0.66-0.83-0.87c-0.35-0.21-0.76-0.31-1.22-0.31
			c-0.45,0-0.86,0.1-1.22,0.31c-0.36,0.21-0.64,0.5-0.84,0.88c-0.2,0.38-0.3,0.81-0.3,1.29v0.14c0,0.5,0.11,0.94,0.33,1.32
			c0.22,0.38,0.53,0.68,0.93,0.89c0.4,0.21,0.85,0.32,1.36,0.32c0.4,0,0.77-0.07,1.12-0.21c0.35-0.14,0.65-0.36,0.9-0.65l0.5,0.58
			c-0.29,0.35-0.66,0.62-1.1,0.8C114.82,64.85,114.34,64.94,113.81,64.94z"/>
		<path class="st5" d="M118.59,64.88V58.3h0.85v1.79l-0.09-0.31c0.18-0.5,0.49-0.88,0.93-1.15c0.43-0.26,0.97-0.4,1.62-0.4v0.87
			c-0.03,0-0.07,0-0.1-0.01c-0.03,0-0.07-0.01-0.1-0.01c-0.69,0-1.24,0.21-1.63,0.63c-0.39,0.42-0.59,1.02-0.59,1.8v3.36H118.59z"/>
		<path class="st5" d="M126.13,64.94c-0.64,0-1.22-0.14-1.72-0.43c-0.5-0.29-0.9-0.69-1.19-1.2c-0.29-0.51-0.44-1.09-0.44-1.73
			c0-0.66,0.15-1.24,0.44-1.74c0.29-0.5,0.69-0.89,1.19-1.18c0.5-0.28,1.07-0.43,1.72-0.43c0.65,0,1.23,0.14,1.74,0.43
			c0.51,0.29,0.9,0.68,1.19,1.18c0.29,0.5,0.43,1.08,0.43,1.74c0,0.65-0.14,1.23-0.43,1.74c-0.29,0.51-0.69,0.9-1.2,1.19
			C127.35,64.79,126.77,64.94,126.13,64.94z M126.13,64.15c0.48,0,0.9-0.11,1.27-0.32c0.37-0.21,0.66-0.51,0.87-0.9
			c0.21-0.39,0.32-0.84,0.32-1.35c0-0.52-0.11-0.97-0.32-1.35c-0.21-0.38-0.5-0.68-0.87-0.9c-0.37-0.21-0.79-0.32-1.25-0.32
			c-0.47,0-0.89,0.11-1.25,0.32c-0.37,0.21-0.66,0.51-0.88,0.9c-0.22,0.38-0.33,0.84-0.33,1.35c0,0.51,0.11,0.96,0.33,1.35
			c0.22,0.39,0.51,0.69,0.87,0.9C125.25,64.04,125.66,64.15,126.13,64.15z"/>
	</g>
</g>
</svg>
