<?xml version="1.0" encoding="utf-8"?>
<!-- Generator: Adobe Illustrator 27.0.0, SVG Export Plug-In . SVG Version: 6.00 Build 0)  -->
<svg version="1.1" id="Capa_1" xmlns="http://www.w3.org/2000/svg" xmlns:xlink="http://www.w3.org/1999/xlink" x="0px" y="0px"
	 viewBox="0 0 65.53 65.53" style="enable-background:new 0 0 65.53 65.53;" xml:space="preserve">
<style type="text/css">
	.st0{fill:#090E38;}
	.st1{fill:url(#SVGID_1_);}
	.st2{fill:#161A42;}
	.st3{fill:url(#SVGID_00000169520689434151585240000012531987594671042958_);}
	.st4{fill:url(#SVGID_00000109004888011674310830000006025971267074076847_);}
	.st5{fill:#FFFFFF;}
	.st6{fill:#E9E9EB;}
	.st7{fill:#2280C3;}
	.st8{fill:#263A6B;}
	.st9{fill:#13183B;}
	.st10{fill:#EBEBFF;}
	.st11{fill:#15336C;}
	.st12{fill:#121D3E;}
	.st13{fill:#D8CE9E;}
	.st14{fill:#5F485A;}
	.st15{fill:#17316F;}
	.st16{fill:#0A1C4F;}
	.st17{fill:#1E1A55;}
	.st18{fill:#12193B;}
	.st19{fill:#D8CD9C;}
	.st20{fill:#544A55;}
	.st21{fill:#E0E1E3;}
	.st22{fill:#15193A;}
	.st23{fill:#D6CC89;}
	.st24{fill:#434642;}
	.st25{fill:#131543;}
	.st26{fill:#3E3B38;}
	.st27{fill:#181940;}
	.st28{fill:#D7CE9D;}
	.st29{fill:#806D64;}
	.st30{opacity:0.7;fill:#6FC4D8;}
	.st31{fill:#805AE4;}
	.st32{fill:#ECB40A;}
	.st33{fill:#10B78E;}
	.st34{fill:url(#SVGID_00000001629246101061079660000003315953889955890874_);}
	.st35{fill:url(#SVGID_00000107565459298423720120000006058116553291319697_);}
	.st36{fill:url(#SVGID_00000058559845040434402000000001563554402618772654_);}
	.st37{fill:url(#SVGID_00000123404875382381859970000009211262996702497437_);}
	.st38{fill:url(#SVGID_00000068673477117868020710000017466337650051332996_);}
	.st39{fill:url(#SVGID_00000093886987143360752990000012806878237741709459_);}
	.st40{fill:url(#SVGID_00000032630968514239127530000012792415021336585604_);}
	.st41{fill:url(#SVGID_00000052077237127198700830000003716888336785525180_);}
	.st42{fill:url(#SVGID_00000060733652828651900210000007510916837863558832_);}
	.st43{fill:url(#SVGID_00000178891491920041824280000017696873433789012127_);}
	.st44{fill:url(#SVGID_00000109741469154335969700000013148104174131296423_);}
	.st45{fill:url(#SVGID_00000044894062942343875610000011119737411014515339_);}
	.st46{fill:url(#SVGID_00000084500188938698135160000012181169170163316872_);}
	.st47{fill:url(#SVGID_00000003802867491081056350000010490038550711511192_);}
	.st48{fill:url(#SVGID_00000040576778564623510480000008379669949143194046_);}
	.st49{fill:url(#SVGID_00000170980831012909660580000001138638446705825707_);}
	.st50{fill:url(#SVGID_00000000945548232542753100000009096128038309423246_);}
	.st51{fill:url(#SVGID_00000139255712623022495020000013005940873991937414_);}
	.st52{fill:url(#SVGID_00000113352396455276121260000008164422277860706945_);}
	.st53{fill:url(#SVGID_00000072262707313026147530000006160080408641003189_);}
	.st54{fill:url(#SVGID_00000008147259429197381810000008548994805648780687_);}
	.st55{fill:url(#SVGID_00000060717972149477755810000010613607462397422264_);}
	.st56{fill:url(#SVGID_00000107586615536953417860000010940283296639026852_);}
	.st57{fill:url(#SVGID_00000103944593973035361340000001184572667576337822_);}
	.st58{fill:url(#SVGID_00000019664783731969783350000000086422022940927676_);}
	.st59{fill:url(#SVGID_00000097464405845046831170000009489247994238006931_);}
	.st60{clip-path:url(#SVGID_00000072247405297349925220000000511156907151070357_);fill:#FFFFFF;}
	.st61{fill:none;stroke:#805AE4;stroke-miterlimit:10;}
	.st62{fill:url(#SVGID_00000182498878564522173080000005980685791221141936_);}
	.st63{fill:url(#SVGID_00000142895236536891299980000012441911286451310518_);}
	.st64{fill:url(#SVGID_00000139994179309335205870000014928551646194595718_);}
	.st65{fill:url(#SVGID_00000048497969660409515580000012802236542125614518_);}
	.st66{fill:url(#SVGID_00000120536829774498458850000011226113494425297822_);}
	.st67{fill:url(#SVGID_00000108287015543157380620000008931972921802103702_);}
	.st68{fill:url(#SVGID_00000166660473081314679620000010144046346903587736_);}
	.st69{fill:url(#SVGID_00000183936732970490588510000013468293344818897067_);}
	.st70{fill:url(#SVGID_00000025444418076087628220000001495213567639802542_);}
	.st71{fill:url(#SVGID_00000036972300319756868900000000806650650373801640_);}
	.st72{fill:url(#SVGID_00000057122153360028224170000004457562673121611912_);}
	.st73{fill:url(#SVGID_00000005267517985359140440000009794556688524450720_);}
	.st74{fill:#DDBB1B;}
	.st75{fill:#49CA80;}
	.st76{fill:#CF78C6;}
	.st77{fill:#BDACFF;}
	.st78{fill:#37368D;}
	.st79{fill:#E11E5E;}
	.st80{fill:#EB9F49;}
	.st81{fill:#FF6B6B;}
	.st82{fill:#38ABE6;}
	.st83{fill:url(#SVGID_00000049918563517370830850000012275499136055178394_);}
	.st84{fill:url(#SVGID_00000155848777901418533420000015466183352726401461_);}
	.st85{fill:url(#SVGID_00000097472397733944120000000012087216405135508906_);}
	.st86{fill:#E78A7E;}
	.st87{fill:#E69C78;}
	.st88{fill:#FF80E7;}
	.st89{fill:#E86480;}
	.st90{fill:url(#SVGID_00000004520269591747413760000008776128267015728312_);}
	.st91{fill:url(#SVGID_00000062909612661721929290000003414478668101159101_);}
	.st92{fill:url(#SVGID_00000132070843268412100100000004206448359078448517_);}
	.st93{fill:url(#SVGID_00000178203514256869543960000013894544563390333576_);}
	.st94{fill:url(#SVGID_00000036223534805770123930000013226966815140784045_);}
	.st95{fill:url(#SVGID_00000145048742492354896260000005098066767190982585_);}
	.st96{fill:url(#SVGID_00000121967812249544641620000010716580562903143581_);}
	.st97{fill:url(#SVGID_00000126308967979919643540000003045726017063510944_);}
	.st98{fill:url(#SVGID_00000151538549810579729380000010999712802106950282_);}
	.st99{fill:url(#SVGID_00000181085332766275976230000006211412486053227196_);}
	.st100{fill:url(#SVGID_00000176023086170367121240000009422415749404617651_);}
	.st101{fill:url(#SVGID_00000106826473157130277740000012030031042934818964_);}
	.st102{fill:url(#SVGID_00000028295544194323909810000000461574632889666179_);}
	.st103{fill:url(#SVGID_00000066489182703450050330000012701614362713342341_);}
	.st104{fill:url(#SVGID_00000030461165607552599230000014583669663708294560_);}
	.st105{fill:url(#SVGID_00000167383507090957751540000004103660133100906149_);}
	.st106{fill:url(#SVGID_00000008850865945200110410000000362251441167522459_);}
	.st107{fill:url(#SVGID_00000021819885203654025600000006593367856918763406_);}
	.st108{fill:url(#SVGID_00000144326302495337367420000002480386562537405624_);}
	.st109{fill:url(#SVGID_00000152971970451367352540000012001671917875823764_);}
	.st110{fill:url(#SVGID_00000091706096371268781730000010235913142337162935_);}
	.st111{fill:url(#SVGID_00000002375038711142865100000001669342072206101676_);}
	.st112{fill:url(#SVGID_00000020399358846316090990000014495334791310131634_);}
	.st113{fill:url(#SVGID_00000029045673490652349870000012862173154143936953_);}
	.st114{fill:url(#SVGID_00000164476986456755174620000004964166355929543563_);}
	.st115{fill:url(#SVGID_00000059295045262268835800000002125288379740856246_);}
	.st116{fill:url(#SVGID_00000096762331792200184900000013618769108244574908_);}
	.st117{fill:url(#SVGID_00000157309417103327200110000000836670169011299509_);}
	.st118{fill:url(#SVGID_00000174576013580071890930000004336367574070787736_);}
	.st119{fill:url(#SVGID_00000096051136057235705980000015804193782044432037_);}
	.st120{fill:url(#SVGID_00000020394145979283796770000012874224117507543213_);}
	.st121{fill:url(#SVGID_00000130609354249575419640000008325335026931389099_);}
	.st122{fill:url(#SVGID_00000119103288464797804690000010549595377903865987_);}
	.st123{fill:url(#SVGID_00000140008192928787373230000009699460883704020122_);}
	.st124{fill:url(#SVGID_00000143582325867192648450000010114124114182446478_);}
	.st125{fill:url(#SVGID_00000077317968901921790290000000815072577421029787_);}
	.st126{fill:url(#SVGID_00000034065223523936279190000001255273829164805014_);}
	.st127{fill:url(#SVGID_00000067228303124923083050000008242317239819615893_);}
	.st128{fill:url(#SVGID_00000171707753708733180920000013173831399335511211_);}
	.st129{fill:url(#SVGID_00000116214965749964097280000003426242367813272205_);}
	.st130{fill:url(#SVGID_00000022521941161915900220000016455028463551020734_);}
	.st131{fill:url(#SVGID_00000020378153030183396780000008452916975458189216_);}
	.st132{fill:url(#SVGID_00000003813104026406870460000003787666085678143666_);}
	.st133{fill:url(#SVGID_00000179618210184779380320000015208506051058560681_);}
	.st134{fill:url(#SVGID_00000136406710378803836140000011028900161230455737_);}
	.st135{fill:url(#SVGID_00000034086291251195239030000017801331416276038291_);}
	.st136{fill:url(#SVGID_00000034076905946105562140000016813339301822048182_);}
	.st137{fill:url(#SVGID_00000026874897641708131470000009864786493656264618_);}
	.st138{fill:url(#SVGID_00000145051377959290146040000011836804911162834571_);}
	.st139{fill:url(#SVGID_00000125598739085976773460000005006118430081947570_);}
	.st140{fill:url(#SVGID_00000178200430897545533670000012466259434318350728_);}
	.st141{fill:url(#SVGID_00000031917715540811809820000013472481450229513151_);}
	.st142{fill:url(#SVGID_00000114040908695897049320000013710207574284092804_);}
	.st143{fill:url(#SVGID_00000042733800937543242090000001339684042312972730_);}
	.st144{fill:url(#SVGID_00000145018352122916164130000013880356815859899562_);}
	.st145{fill:url(#SVGID_00000168098319542103122100000006811417277430037157_);}
	.st146{fill:url(#SVGID_00000055691401473547453480000001975513612732074135_);}
	.st147{fill:url(#SVGID_00000035502243271338432210000013685838611556375943_);}
	.st148{fill:url(#SVGID_00000158730046632344653440000015183960330608169892_);}
	.st149{fill:url(#SVGID_00000048493907741951324590000018239158402309286278_);}
	.st150{fill:url(#SVGID_00000095329046971014987340000012136167618993453963_);}
	.st151{fill:url(#SVGID_00000049918372514654289410000013285774860490618527_);}
	.st152{fill:url(#SVGID_00000039135171724940393220000016799484566263336628_);}
	.st153{fill:url(#SVGID_00000059271684985802320890000003177044104618931629_);}
	.st154{fill:url(#SVGID_00000001639003143488575470000005539061659330987452_);}
	.st155{fill:url(#SVGID_00000018949614007370629410000000483967132862410167_);}
	.st156{fill:url(#SVGID_00000126292367127675842930000001194441652150424232_);}
	.st157{fill:url(#SVGID_00000125598200998666191540000015145597438581603988_);}
	.st158{fill:url(#SVGID_00000116924174107676285070000010387204093984936870_);}
	.st159{fill:url(#SVGID_00000022539772278438669480000001898058098028625576_);}
	.st160{fill:url(#SVGID_00000027578046759119223390000001392619523836464295_);}
	.st161{fill:url(#SVGID_00000021104560234934522070000004801078985791439257_);}
	.st162{fill:url(#SVGID_00000070835919893786381350000000547299570534696364_);}
	.st163{fill:none;stroke:#090E38;stroke-width:2;stroke-miterlimit:10;}
	.st164{fill:#803CFF;}
	.st165{fill:none;stroke:#803CFF;stroke-miterlimit:10;}
	.st166{fill:#848698;}
	.st167{fill:url(#SVGID_00000156559360715672328030000015189707113187524231_);}
	.st168{fill:url(#SVGID_00000030482030683366392790000001388714580680552626_);}
	.st169{fill:url(#SVGID_00000166651058917044027290000015121041120991536512_);}
	.st170{fill:url(#SVGID_00000150804727162879486620000008136131912508860037_);}
	.st171{fill:url(#SVGID_00000121246177844790546970000006024088328649765028_);}
	.st172{fill:url(#SVGID_00000109732519658694492540000000706026281234559145_);}
	.st173{fill:url(#SVGID_00000174570267104990513590000004881416201086908582_);}
	.st174{fill:url(#SVGID_00000011740794281943420110000004265204046514775439_);}
	.st175{fill:#22274C;}
	.st176{fill:url(#SVGID_00000047774367446047414440000011009133682531864480_);}
	.st177{fill:url(#SVGID_00000159435174387625235190000017775634243730243202_);}
	.st178{fill:url(#SVGID_00000154426173452839871490000010306404704594884269_);}
	.st179{fill:url(#SVGID_00000044162672899894196310000017368732563205722034_);}
	.st180{fill:url(#SVGID_00000147216320781601485930000017850553200683094959_);}
	.st181{fill:url(#SVGID_00000022541482540874950010000013885153715862613948_);}
	.st182{fill:url(#SVGID_00000114044844292211458390000003798180970809368975_);}
	.st183{fill:url(#SVGID_00000133496442521730618060000016360065735785304450_);}
	.st184{fill:url(#SVGID_00000129191679000562105220000014454221232105499818_);}
	.st185{fill:url(#SVGID_00000095302650538944755640000004040574043623076235_);}
	.st186{fill:url(#SVGID_00000128449961315992528930000016394991090734690441_);}
	.st187{fill:url(#SVGID_00000088109824637788667200000000864794922072862873_);}
	.st188{fill:url(#SVGID_00000046340289237479633030000010242637982217593524_);}
	.st189{fill:url(#SVGID_00000150803720553776215590000013646840751612518837_);}
	.st190{fill:url(#SVGID_00000008843055031599311510000002257165703384020911_);}
	.st191{fill:url(#SVGID_00000026163151736080229150000013654172237689194909_);}
	.st192{fill:url(#SVGID_00000119795840613579218850000008348927050780151467_);}
	.st193{fill:url(#SVGID_00000132785936510814526770000009607355439674034579_);}
	.st194{fill:url(#SVGID_00000139259349377512582120000013315840520624459435_);}
	.st195{fill:url(#SVGID_00000008149193487426284180000001528796281529695666_);}
	.st196{fill:url(#SVGID_00000096745228712694335720000003687442417378599077_);}
	.st197{fill:url(#SVGID_00000094605424232477378440000008882818427176305322_);}
	.st198{fill:url(#SVGID_00000018944709025526771870000001078705850007873177_);}
	.st199{fill:url(#SVGID_00000011012866007383224040000002279192063251773586_);}
	.st200{fill:url(#SVGID_00000064343577441417202740000014057427936670704807_);}
	.st201{fill:url(#SVGID_00000077319570442302349390000011862199668029510333_);}
	.st202{fill:url(#SVGID_00000088108812771906702020000006421695288953663618_);}
	.st203{fill:url(#SVGID_00000018936830925751041010000010524468175988294790_);}
	.st204{fill:url(#SVGID_00000126323621015538717860000005815837535490597823_);}
	.st205{fill:url(#SVGID_00000109737577371060943340000005623641496380444089_);}
	.st206{fill:url(#SVGID_00000112626549057901717480000004280973396818376079_);}
	.st207{fill:url(#SVGID_00000099638933726171804670000006818579888375393469_);}
	.st208{fill:url(#SVGID_00000025408075832820118160000014078015956047038880_);}
	.st209{fill:url(#SVGID_00000074408249295801068730000009261642925619912634_);}
	.st210{fill:url(#SVGID_00000028297810616914773200000007114947987488028588_);}
	.st211{fill:url(#SVGID_00000125597803633670102920000008496155678016521369_);}
	.st212{fill:none;stroke:#FFFFFF;stroke-linecap:round;stroke-miterlimit:10;}
	.st213{fill:url(#SVGID_00000058555028047835160530000008953625512871909026_);}
	.st214{fill:url(#SVGID_00000178179112413543352310000010131861716901388989_);}
	.st215{fill:url(#SVGID_00000022544045647634985990000007512745596776896136_);}
	.st216{fill:url(#SVGID_00000116231314751744364210000018290923991965105572_);}
	.st217{fill:url(#SVGID_00000009567650628908382390000016933569270346996392_);}
	.st218{fill:url(#SVGID_00000160174838862943088920000016591298692485160068_);}
	.st219{fill:url(#SVGID_00000142173471034328751490000004260413044198453639_);}
	.st220{fill:url(#SVGID_00000132059554016713704070000001767889078914510209_);}
	.st221{fill:url(#SVGID_00000005229932333636076170000016618447512518933378_);}
	.st222{fill:url(#SVGID_00000178168188901116131930000004488256139216147601_);}
	.st223{fill:url(#SVGID_00000159447482963102928000000004634729154592744594_);}
	.st224{fill:url(#SVGID_00000105424223635732745620000010518285944369718704_);}
	.st225{fill:url(#SVGID_00000025435857257570715810000006983616063789070779_);}
	.st226{fill:url(#SVGID_00000100360568506609942960000014579027779031357826_);}
	.st227{fill:url(#SVGID_00000177462542001641169900000000839044060255585947_);}
	.st228{fill:url(#SVGID_00000017488975731907703340000010105068427268230549_);}
	.st229{fill:url(#SVGID_00000065041778147559312600000010788848356380157373_);}
	.st230{fill:url(#SVGID_00000051364331542380973860000003732148878738870941_);}
	.st231{fill:url(#SVGID_00000028298034412810578330000013029596133690464682_);}
	.st232{fill:url(#SVGID_00000103951518355784577440000003978307379168271526_);}
	.st233{fill:url(#SVGID_00000111912793766146509160000014397682414500585864_);}
	.st234{fill:none;stroke:#22274C;stroke-width:0.5;stroke-miterlimit:10;}
	.st235{fill:url(#SVGID_00000154403104009462579330000018393647946608511634_);}
	.st236{fill:none;stroke:#22274C;stroke-miterlimit:10;}
	.st237{fill:url(#SVGID_00000074434374712022023160000014805533851668432306_);}
	.st238{fill:url(#SVGID_00000138569970554133545490000016579174020430756237_);}
	.st239{fill:url(#SVGID_00000096739007702195321970000003643761023239445888_);}
	.st240{fill:url(#SVGID_00000043428482887682950840000015058981018524325015_);}
	.st241{fill:url(#SVGID_00000118355240023201840200000017811598089772844420_);}
	.st242{fill:url(#SVGID_00000131343607895451992350000011830120081731274389_);}
	.st243{fill:url(#SVGID_00000016040859882396699890000016696973497181530250_);}
	.st244{fill:url(#SVGID_00000110470280097394608560000003894720914064725168_);}
	.st245{fill:url(#SVGID_00000052788774355386462330000001464334712706204318_);}
	.st246{fill:url(#SVGID_00000095315547105077616350000002774564821901167535_);}
	.st247{fill:url(#SVGID_00000158021768219897662050000016504323690880685482_);}
	.st248{fill:url(#SVGID_00000171699154563916112420000004770482922942945969_);}
	.st249{fill:none;stroke:#E11E5E;stroke-miterlimit:10;}
	.st250{fill:url(#SVGID_00000021078198696612966000000010725308575186114734_);}
	.st251{fill:url(#SVGID_00000092456939297683014090000007973962303322125205_);}
	.st252{fill:url(#SVGID_00000120532153557900967220000015313930645204957586_);}
	.st253{fill:url(#SVGID_00000055691897195960161270000012909892333746279340_);}
	.st254{fill:url(#SVGID_00000114784237743505773100000014578871027724973468_);}
	.st255{fill:url(#SVGID_00000163060190325379205690000004761344422429016727_);}
	.st256{fill:url(#SVGID_00000091725056669341826300000005152137887333709965_);}
	.st257{fill:url(#SVGID_00000162324234158885984800000012140469977099804849_);}
	.st258{fill:url(#SVGID_00000068648313329400458240000011745691297242959020_);}
	.st259{fill:url(#SVGID_00000014617604238457268050000008603270596849226666_);}
	.st260{fill:url(#SVGID_00000047745908427987668610000011490992995891367330_);}
	.st261{fill:url(#SVGID_00000137106963180560465990000000282307452029673619_);}
	.st262{fill:url(#SVGID_00000097473441648013046830000004516973302546257810_);}
	.st263{fill:url(#SVGID_00000173861570573409418780000008405837084018870665_);}
	.st264{fill:url(#SVGID_00000031923358097031991940000010292170631019682722_);}
	.st265{fill:url(#SVGID_00000009580296636644220370000011218714407147770761_);}
	.st266{fill:url(#SVGID_00000018937225112844926570000018000297461843784093_);}
	.st267{fill:url(#SVGID_00000093164718454347078390000004290807578417519549_);}
	.st268{fill:url(#SVGID_00000116209745124387885540000015404207278653547673_);}
	.st269{fill:url(#SVGID_00000144324784169700354400000005819264100506509198_);}
	.st270{fill:url(#SVGID_00000010285316582617983470000012099080136288822698_);}
	.st271{fill:url(#SVGID_00000103983684552724127200000001266840976236621466_);}
	.st272{fill:url(#SVGID_00000053536738973261846670000012932599483918354336_);}
	.st273{fill:none;stroke:#FFFFFF;stroke-width:0.75;stroke-miterlimit:10;}
	.st274{fill:none;stroke:#FFFFFF;stroke-width:0.75;stroke-linecap:round;stroke-miterlimit:10;}
	.st275{fill-rule:evenodd;clip-rule:evenodd;fill:none;stroke:#FFFFFF;stroke-width:0.5;stroke-miterlimit:10;}
	
		.st276{fill-rule:evenodd;clip-rule:evenodd;fill:none;stroke:#FFFFFF;stroke-width:0.5;stroke-linecap:round;stroke-miterlimit:10;}
	.st277{fill:url(#SVGID_00000043454861928650478710000013036996276330405767_);}
	.st278{fill:url(#SVGID_00000132810244283787866010000012224653368928359856_);}
	.st279{fill:url(#SVGID_00000096769347265547317590000016340610189254971060_);}
	.st280{fill:url(#SVGID_00000025408963495065073090000005521146437269669042_);}
	.st281{fill:url(#SVGID_00000010996605419570555140000017335246219399418812_);}
	.st282{fill:url(#SVGID_00000148624388042030271320000014993742512154538394_);}
	.st283{fill:url(#SVGID_00000174598159503622446210000014565799989532526246_);}
	.st284{fill:url(#SVGID_00000095298969755706568050000012667206365022115224_);}
	.st285{fill:url(#SVGID_00000165232402999477212760000013417199577450598311_);}
	.st286{fill:url(#SVGID_00000160165494866600608150000002984263864312996014_);}
	.st287{fill:url(#SVGID_00000112630044604905216690000015754505375152317100_);}
	.st288{fill:url(#SVGID_00000173143545203289139360000010492142433679267982_);}
	.st289{fill:url(#SVGID_00000135653310820926048630000000254192636210732967_);}
	.st290{fill:url(#SVGID_00000178179949732678028390000003117569925191699380_);}
	.st291{fill:url(#SVGID_00000032643235736442646000000002583219792058349229_);}
	.st292{fill:url(#SVGID_00000154415156043845685250000017677777216797646242_);}
	.st293{fill:url(#SVGID_00000142891701775225341450000015306702168179941054_);}
	.st294{fill:url(#SVGID_00000175320939020512227750000006831382266075351683_);}
	.st295{fill:url(#SVGID_00000082369516081549003200000004390027985615220865_);}
	.st296{fill:url(#SVGID_00000145772590777899966000000016250613681173758628_);}
	.st297{fill:url(#SVGID_00000003096378266173051690000017522783643744815233_);}
	.st298{fill:url(#SVGID_00000074429061314570707050000017526607981229415056_);}
	.st299{fill:url(#SVGID_00000156554560001158460820000001045288635883555499_);}
	.st300{fill:url(#SVGID_00000004533721057848461790000008798386684477658243_);}
	.st301{fill:url(#SVGID_00000150823168645412685670000013156731451708375458_);}
	.st302{clip-path:url(#SVGID_00000088113647350950052030000000613005622828407459_);fill:#22264C;}
	.st303{clip-path:url(#SVGID_00000007416512001904202630000008796077031954338231_);fill:#FFFFFF;}
	.st304{clip-path:url(#SVGID_00000150812808260550888170000008827237025373481108_);fill:#FFFFFF;}
	.st305{clip-path:url(#SVGID_00000096763203460400290790000000907924632536747180_);fill:#FFFFFF;}
	.st306{clip-path:url(#SVGID_00000060018928096125314270000002895951117056436118_);fill:#FFFFFF;}
	.st307{clip-path:url(#SVGID_00000103956703328433545080000003393986286042429108_);fill:#FFFFFF;}
	.st308{clip-path:url(#SVGID_00000109745035533942093240000001447866133978990003_);fill:#FFFFFF;}
	.st309{clip-path:url(#SVGID_00000029745214430082290580000015113310147024393638_);fill:#FFFFFF;}
	.st310{clip-path:url(#SVGID_00000127014504719960199400000016956869818045782427_);fill:#FFFFFF;}
	.st311{clip-path:url(#SVGID_00000015354182323785894000000006465378987811373999_);fill:#FFFFFF;}
	.st312{clip-path:url(#SVGID_00000066486486138140246380000006786512995496341376_);fill:#FFFFFF;}
	.st313{clip-path:url(#SVGID_00000000201831599927226500000009090216680103436698_);fill:#FFFFFF;}
	.st314{fill:url(#SVGID_00000181063388764568914290000018350812435721639847_);}
	.st315{fill:url(#SVGID_00000027562810663897443220000003379966781054389949_);}
	.st316{fill:url(#SVGID_00000096748898739471266200000018269451467927930000_);}
	.st317{fill:url(#SVGID_00000158708925843554357660000015426466333350123651_);}
	.st318{fill:url(#SVGID_00000150061801442361819890000002478956605123999629_);}
	.st319{fill:url(#SVGID_00000136411547126974805990000016329992800533393838_);}
	.st320{fill:url(#SVGID_00000038410808483592832100000015266057940860602519_);}
	.st321{fill:url(#SVGID_00000038388765607825088290000007931073198474804105_);}
	.st322{fill:url(#SVGID_00000067205940478931927680000001359272330863288744_);}
	.st323{fill:url(#SVGID_00000080164855494660339100000002054834061687741083_);}
	.st324{fill:url(#SVGID_00000119115280019676409460000012090265491518511517_);}
	.st325{fill:url(#SVGID_00000181774598528691628890000002274493636659674241_);}
	.st326{fill:url(#SVGID_00000180337421836255048340000010741250372149432741_);}
	.st327{fill:url(#SVGID_00000106862933945381841310000015044194937217130654_);}
	.st328{fill:url(#SVGID_00000134251551388786438950000013074479758385961096_);}
	.st329{fill:url(#SVGID_00000098910759504365546210000002720179432988994436_);}
	.st330{fill:url(#SVGID_00000029728421372241103940000011044209270992627647_);}
	.st331{fill:url(#SVGID_00000114792714774425631070000016963623989209373357_);}
	.st332{fill:url(#SVGID_00000173872586508631931780000015328341908618513055_);}
	.st333{fill:url(#SVGID_00000067933401858655828050000000645432568153180554_);}
	.st334{fill:url(#SVGID_00000132075689055245198350000013899267130769408673_);}
	.st335{fill:url(#SVGID_00000018208388232723538660000012919715185032251793_);}
	.st336{fill:url(#SVGID_00000134941302531622760020000001335013926178777748_);}
	.st337{fill:url(#SVGID_00000058569938929860527810000002275912007819313572_);}
	.st338{fill:url(#SVGID_00000043433323496585316770000014343887384396309657_);}
	.st339{fill:url(#SVGID_00000096029248748304480260000015829795062690792869_);}
	.st340{fill:url(#SVGID_00000003106607388777829240000013211340894384334498_);}
	.st341{fill:url(#SVGID_00000161593195122805031200000015759536456931274149_);}
	.st342{fill:url(#SVGID_00000046338545575931804060000002635027091864094605_);}
	.st343{fill:url(#SVGID_00000043454483026759479890000008156047220998680742_);}
	.st344{fill:url(#SVGID_00000059282889652094743570000012753439158456723079_);}
	.st345{fill:url(#SVGID_00000032639969220062744680000007167057085578848397_);}
	.st346{fill:url(#SVGID_00000156560101272823737530000004018931994370245295_);}
	.st347{fill:url(#SVGID_00000079478396488404201170000004273299182414732448_);}
	.st348{fill:url(#SVGID_00000101105562350873370960000009851699200985909402_);}
	.st349{fill:url(#SVGID_00000057138666019782758590000005129937782774107533_);}
	.st350{fill:url(#SVGID_00000157306701256152389870000003785543125777436576_);}
	.st351{fill:url(#SVGID_00000044872353135407635830000017734587263401301419_);}
	.st352{fill:url(#SVGID_00000082347147050999079280000017943709618067054249_);}
	.st353{fill:url(#SVGID_00000011715594958689088660000011574890466840962218_);}
	.st354{fill:#8A8989;}
	.st355{fill:#616160;}
	.st356{fill-rule:evenodd;clip-rule:evenodd;fill:#FFFFFF;}
	.st357{fill-rule:evenodd;clip-rule:evenodd;fill:#8A8989;}
	.st358{fill-rule:evenodd;clip-rule:evenodd;fill:#797879;}
	.st359{clip-path:url(#XMLID_00000107549339430678977160000003196462236859859635_);}
	.st360{opacity:0.2;fill:#E1E3E7;}
	.st361{fill-rule:evenodd;clip-rule:evenodd;fill:#616160;}
	.st362{fill:#E1E3E7;}
	.st363{fill:#FFFFFF;stroke:#FFFFFF;stroke-width:4;stroke-miterlimit:10;}
	.st364{fill:#58595B;}
	.st365{fill:#80A926;}
	.st366{clip-path:url(#SVGID_00000012449966620311464850000012555497447089771926_);}
	.st367{clip-path:url(#SVGID_00000161632959880342440450000007353903005358319749_);}
	.st368{clip-path:url(#SVGID_00000083790798888155310280000000716775928857609125_);}
	.st369{clip-path:url(#SVGID_00000103986963264433520930000000856335958755205053_);}
	.st370{clip-path:url(#SVGID_00000065069125873382402050000015110447348220175772_);}
	.st371{clip-path:url(#SVGID_00000029028684307545116920000001163004467778661304_);}
	.st372{clip-path:url(#SVGID_00000040567314152492050800000008753334015599660170_);}
	.st373{clip-path:url(#SVGID_00000102531476485720004530000018348992492016069053_);}
	.st374{clip-path:url(#SVGID_00000160167026146728655740000001817500249358907827_);}
	.st375{clip-path:url(#SVGID_00000057135721844315316280000003062889039521748395_);}
	.st376{fill:#1D1E1C;}
	.st377{opacity:0.36;}
	.st378{opacity:0.57;}
	.st379{fill:none;}
	.st380{fill:#01CEA6;}
	.st381{fill:#01261F;}
	.st382{fill:#E68000;}
	.st383{fill:#261400;}
	.st384{fill:#E63D80;}
	.st385{fill:#2D0013;}
	.st386{fill:#3695BB;}
	.st387{fill:#032732;}
	.st388{fill:#CDE4EC;}
	.st389{fill:#DA80E7;}
	.st390{fill:#B072BD;}
	.st391{fill:#855994;}
	.st392{fill:#180024;}
	.st393{fill:#DD80EA;}
	.st394{fill:#BB80E7;}
	.st395{fill:#9B77C0;}
	.st396{fill:#C080ED;}
	.st397{fill:#1F0140;}
	.st398{fill:#80619A;}
	.st399{fill:url(#SVGID_00000098203876830837979350000002749723487915865750_);}
	.st400{fill:url(#SVGID_00000028302023990966457760000016306535781479326884_);}
	.st401{fill:url(#SVGID_00000009571296408557083120000000467713759534752396_);}
	.st402{fill:url(#SVGID_00000041982020962679077500000009226556657660466838_);}
	.st403{fill:url(#SVGID_00000127733976481232913610000002362432234087926145_);}
	.st404{fill:url(#SVGID_00000173867863275206571830000005512249007373661058_);}
	.st405{fill:url(#SVGID_00000153692072949096457030000015807009221061918868_);}
	.st406{fill:url(#SVGID_00000120540516922629896320000015587056962526867107_);}
	.st407{fill:url(#SVGID_00000064321182685284208670000001159390079033815948_);}
	.st408{fill:url(#SVGID_00000130623842729595773470000000675954053687961231_);}
	.st409{fill:url(#SVGID_00000109030405318054864730000015855419145274122130_);}
	.st410{fill:url(#SVGID_00000080186208382107316940000010414659400768570801_);}
	.st411{fill:none;stroke:#464A69;stroke-miterlimit:10;}
	.st412{fill:url(#SVGID_00000155830962444797610240000006594940309853582257_);}
	.st413{fill:url(#SVGID_00000116204696528066939550000010150848204708477109_);}
	.st414{fill:url(#SVGID_00000142144360906243669450000002032872885969914809_);}
	.st415{fill:url(#SVGID_00000166646069958065082620000010186538893601219715_);}
	.st416{fill:url(#SVGID_00000106868795141586719570000017555337126628547457_);}
	.st417{fill:url(#SVGID_00000137120391578215251610000010214071912034459052_);}
	.st418{fill:url(#SVGID_00000025402300461950039530000013517695422273232831_);}
	.st419{fill:url(#SVGID_00000172406209877334877170000014065263165772854681_);}
	.st420{fill:url(#SVGID_00000134214496513875945410000001733136956453417383_);}
	.st421{fill:url(#SVGID_00000023275583291080283850000012175887371125754034_);}
	.st422{fill:url(#SVGID_00000034807396191657406480000006621982190402220957_);}
	.st423{fill:url(#SVGID_00000124131973446276870100000002958495456280210587_);}
	.st424{fill:url(#SVGID_00000057826694634378173150000002964008204347161988_);}
	.st425{fill:url(#SVGID_00000024688081300040700640000016270923349756839305_);}
	.st426{fill:none;stroke:#22274C;stroke-width:0.75;stroke-miterlimit:10;}
	.st427{fill:none;stroke:#FFFFFF;stroke-width:2;stroke-miterlimit:10;}
	.st428{fill:url(#SVGID_00000074436608090446064760000008225258152458492573_);}
	.st429{fill:url(#SVGID_00000025427473552642460870000006497973583553635236_);}
	.st430{fill:url(#SVGID_00000168834737449626587350000003186967841632194433_);}
	.st431{fill:url(#SVGID_00000062154811987890813540000015354646609305196950_);}
	.st432{fill:url(#SVGID_00000160907700399979838080000000629739512610924208_);}
	.st433{fill:url(#SVGID_00000129199905492976807860000006787209652523476649_);}
	.st434{fill:url(#SVGID_00000073711844506428368230000011644109975756021425_);}
	.st435{fill:url(#SVGID_00000119113133348655661850000008463028691697450928_);}
	.st436{fill:url(#SVGID_00000176023478993280375600000007904874424984851646_);}
	.st437{fill:url(#SVGID_00000088827328056359579890000016149482431571586705_);}
	.st438{fill:url(#SVGID_00000076575329052232745290000017727643746559475111_);}
	.st439{fill:url(#SVGID_00000077294736211111471230000007231733930570323369_);}
	.st440{fill:url(#SVGID_00000045587196510258996360000000739584789092198570_);}
	.st441{fill:url(#SVGID_00000170960777000785221330000004522212030964109721_);}
	.st442{fill:url(#SVGID_00000048491241726043564790000008844481285890754720_);}
	.st443{fill:url(#SVGID_00000096024985018075264250000009412234553208059819_);}
	.st444{fill:url(#SVGID_00000047020897802432494570000017635806581394628484_);}
	.st445{fill:url(#SVGID_00000111154113087253026590000005048983284594075526_);}
	.st446{fill:url(#SVGID_00000021814464712028256170000010091411654792890536_);}
	.st447{fill:url(#SVGID_00000109718989944227824920000012050272765398572962_);}
	.st448{fill:url(#SVGID_00000072975917008170230210000004992841672167850632_);}
	.st449{fill:url(#SVGID_00000015342747878592538360000002964348388715319485_);}
	.st450{fill:url(#SVGID_00000085241299871364160810000010223053623747744170_);}
	.st451{fill:url(#SVGID_00000047061359422320923790000008414952628406069668_);}
	.st452{fill:url(#SVGID_00000038396713114140245780000010763441521270415746_);}
	.st453{fill:url(#SVGID_00000127012212531103124960000006668126240023165109_);}
	.st454{fill:url(#SVGID_00000066477546951689935280000013727920491090441663_);}
	.st455{fill:none;stroke:#8F8F8F;stroke-width:0.75;stroke-miterlimit:10;}
	.st456{fill:#8F8F8F;stroke:#8F8F8F;stroke-width:0.25;stroke-miterlimit:10;}
	.st457{fill:#8F8F8F;}
	.st458{fill:none;stroke:#8F8F8F;stroke-width:0.25;stroke-miterlimit:10;}
	.st459{fill:url(#SVGID_00000109012274605624725210000004954250110831529384_);}
	.st460{fill:url(#SVGID_00000106145012780898549260000010445795449537915791_);}
	.st461{fill:url(#SVGID_00000115494446899079260340000015774882129114711469_);}
	.st462{fill:url(#SVGID_00000114061703588192736230000002865435664205622164_);}
	.st463{fill:url(#SVGID_00000183958931392513215630000009167729579623110017_);}
	.st464{fill:url(#SVGID_00000005251223567314267870000012053522358788069021_);}
	.st465{fill:url(#SVGID_00000110455026380576375240000006579291557592846233_);}
	.st466{fill:url(#SVGID_00000100363610700730720360000007501285759232575663_);}
	.st467{fill:url(#SVGID_00000115489140702811017350000001604136989485493155_);}
	.st468{fill:url(#SVGID_00000159441426138099429830000009516752759633429676_);}
</style>
<g>
	<circle class="st0" cx="32.76" cy="32.76" r="29.76"/>
	<linearGradient id="SVGID_1_" gradientUnits="userSpaceOnUse" x1="13.8468" y1="27.292" x2="51.907" y2="27.292">
		<stop  offset="0" style="stop-color:#DDBB1B"/>
		<stop  offset="1" style="stop-color:#49CA80"/>
	</linearGradient>
	<path class="st1" d="M21.22,28.86v2.62h-1.66v-2.62l-5.35-5.75h2.27l3.92,4.21l3.92-4.21h2.26L21.22,28.86z"/>
	
		<linearGradient id="SVGID_00000023969616175520732040000001174402111730705590_" gradientUnits="userSpaceOnUse" x1="13.8468" y1="27.292" x2="51.907" y2="27.292">
		<stop  offset="0" style="stop-color:#DDBB1B"/>
		<stop  offset="1" style="stop-color:#49CA80"/>
	</linearGradient>
	<path style="fill:url(#SVGID_00000023969616175520732040000001174402111730705590_);" d="M36.33,29.56h-6.8l-1.22,1.91H26.4
		l5.32-8.37h2.44l5.32,8.37h-1.92L36.33,29.56z M35.34,27.99l-2.4-3.78l-2.4,3.78H35.34z"/>
	
		<linearGradient id="SVGID_00000113353537934608897670000005616704451474869694_" gradientUnits="userSpaceOnUse" x1="13.8468" y1="27.292" x2="51.907" y2="27.292">
		<stop  offset="0" style="stop-color:#DDBB1B"/>
		<stop  offset="1" style="stop-color:#49CA80"/>
	</linearGradient>
	<path style="fill:url(#SVGID_00000113353537934608897670000005616704451474869694_);" d="M51.14,23.11v8.37h-1.66h-0.26l-7.74-6.35
		v6.35h-1.66v-8.37h1.91l7.76,6.35v-6.35H51.14z"/>
	
		<linearGradient id="SVGID_00000057827996650418712800000002494114783046914724_" gradientUnits="userSpaceOnUse" x1="13.8468" y1="37.45" x2="51.907" y2="37.45">
		<stop  offset="0" style="stop-color:#DDBB1B"/>
		<stop  offset="1" style="stop-color:#49CA80"/>
	</linearGradient>
	<path style="fill:url(#SVGID_00000057827996650418712800000002494114783046914724_);" d="M26.49,41.63h-3.75l-3.05-2.18h-2.44v2.18
		h-2.96v-8.37h8.5c0.57,0,1.1,0.14,1.6,0.42c0.5,0.28,0.9,0.65,1.21,1.12c0.31,0.47,0.46,0.99,0.46,1.56c0,0.75-0.25,1.4-0.76,1.96
		c-0.51,0.56-1.13,0.91-1.88,1.06L26.49,41.63z M22.35,37.02c0.18,0,0.35-0.06,0.51-0.19c0.16-0.13,0.23-0.28,0.23-0.47
		c0-0.18-0.08-0.34-0.23-0.47c-0.16-0.13-0.32-0.19-0.51-0.19h-5.09v1.31H22.35z"/>
	
		<linearGradient id="SVGID_00000026148088363518935370000009102801200117868682_" gradientUnits="userSpaceOnUse" x1="13.8468" y1="37.45" x2="51.907" y2="37.45">
		<stop  offset="0" style="stop-color:#DDBB1B"/>
		<stop  offset="1" style="stop-color:#49CA80"/>
	</linearGradient>
	<path style="fill:url(#SVGID_00000026148088363518935370000009102801200117868682_);" d="M32.93,41.81c-1.78,0-3.2-0.31-4.28-0.93
		c-1.21-0.7-1.82-1.77-1.82-3.21v-0.43c0-1.44,0.61-2.51,1.82-3.21c1.08-0.62,2.5-0.93,4.28-0.93c1.78,0,3.21,0.31,4.29,0.93
		c1.21,0.7,1.82,1.77,1.82,3.21v0.43c0,1.44-0.61,2.51-1.82,3.21C36.14,41.5,34.71,41.81,32.93,41.81z M32.93,39.19
		c0.85,0,1.54-0.09,2.07-0.26c0.72-0.24,1.08-0.67,1.08-1.3v-0.36c0-0.63-0.36-1.06-1.08-1.3c-0.53-0.18-1.22-0.26-2.07-0.26
		c-0.85,0-1.54,0.09-2.06,0.26c-0.72,0.24-1.08,0.67-1.08,1.3v0.36c0,0.63,0.36,1.06,1.08,1.3C31.39,39.11,32.08,39.19,32.93,39.19z
		"/>
	
		<linearGradient id="SVGID_00000172424772219319959500000009315797316572599940_" gradientUnits="userSpaceOnUse" x1="13.8468" y1="37.45" x2="51.907" y2="37.45">
		<stop  offset="0" style="stop-color:#DDBB1B"/>
		<stop  offset="1" style="stop-color:#49CA80"/>
	</linearGradient>
	<path style="fill:url(#SVGID_00000172424772219319959500000009315797316572599940_);" d="M51.32,41.63h-2.96v-2.88H42.6v2.88h-2.96
		v-8.37h2.96v2.88h5.75v-2.88h2.96V41.63z"/>
	<g>
		<path class="st5" d="M16.74,13.31c0.34-0.21,0.59-0.46,0.88-0.68c0.08-0.07,0.19-0.09,0.28,0.01c0.09,0.09,0.1,0.22,0.02,0.32
			c-0.04,0.05-0.09,0.09-0.14,0.13c-0.31,0.2-0.59,0.46-0.87,0.7c-0.14,0.12-0.3,0.19-0.44,0.31c-0.12,0.1-0.2-0.05-0.27-0.12
			c-0.06-0.06-0.03-0.15,0.03-0.2C16.41,13.61,16.61,13.48,16.74,13.31z"/>
		<path class="st5" d="M48.64,13.82c-0.08,0.01-0.17,0.08-0.23-0.04c-0.06-0.11-0.03-0.25,0.06-0.33c0.07-0.05,0.15-0.08,0.24-0.1
			c0.14-0.03,0.26,0.05,0.28,0.2c0.02,0.13-0.06,0.19-0.18,0.22c-0.04,0-0.07,0.02-0.11,0.03L48.64,13.82z"/>
		<g>
			<g>
				<g>
					<path class="st5" d="M8.9,40.04c-0.07-0.33-0.2-0.65-0.11-1.01c0.02-0.06,0.03-0.12,0.06-0.17c0.05-0.1,0.1-0.21,0.25-0.16
						c0.17,0.06,0.25,0.21,0.2,0.36c-0.17,0.47-0.04,0.88,0.28,1.23c0.06,0.07,0.14,0.11,0.22,0.12c0.24,0.05,0.46,0.01,0.69-0.09
						c0.17-0.08,0.36-0.11,0.54-0.18c0.07-0.03,0.17-0.01,0.19,0.1c0.01,0.11,0.1,0.24-0.08,0.3c-0.38,0.12-0.74,0.26-1.13,0.35
						c-0.26,0.06-0.51-0.05-0.71-0.23C9.12,40.51,8.97,40.31,8.9,40.04z"/>
					<path class="st5" d="M12.43,43c0,0.12-0.05,0.21-0.18,0.25c-0.14,0.04-0.21,0.01-0.27-0.13c-0.21-0.47-0.43-0.94-0.64-1.41
						c-0.06-0.12-0.14-0.14-0.28-0.08c-0.11,0.05-0.16,0.11-0.1,0.25c0.16,0.4,0.33,0.8,0.52,1.19c0.06,0.12,0.03,0.18-0.09,0.23
						c-0.19,0.08-0.23,0.08-0.3-0.06c-0.17-0.37-0.34-0.74-0.52-1.11c-0.08-0.17-0.15-0.2-0.29-0.14c-0.16,0.06-0.19,0.21-0.09,0.36
						c0.18,0.26,0.3,0.56,0.4,0.86c0.01,0.03,0.02,0.06,0.03,0.08c0.15,0.12,0.18,0.29,0.21,0.46c0.03,0.13-0.03,0.17-0.13,0.22
						c-0.1,0.05-0.19,0.02-0.23-0.07c-0.15-0.3-0.3-0.6-0.44-0.91c-0.15-0.31-0.27-0.63-0.43-0.93c-0.06-0.12-0.03-0.19,0.07-0.26
						c0.17-0.12,0.35-0.2,0.54-0.25c0.18-0.05,0.32-0.2,0.5-0.26c0.17-0.06,0.36-0.11,0.51-0.22c0.12-0.09,0.22-0.04,0.29,0.1
						c0.13,0.26,0.21,0.54,0.4,0.76L12.43,43z"/>
					<path class="st5" d="M12.34,46.96c-0.09-0.12-0.09-0.24-0.01-0.4c0.11-0.19,0.11-0.39-0.03-0.58c-0.17-0.26-0.34-0.52-0.5-0.79
						c-0.09-0.16-0.22-0.23-0.4-0.22c-0.22,0-0.41-0.05-0.51-0.28c-0.07-0.15-0.04-0.23,0.12-0.23c0.33,0,0.65,0.05,0.98,0.06
						c0.36,0.01,0.71,0.03,1.06,0.06c0.05,0,0.1,0.01,0.14,0.02c0.23,0.05,0.32,0.23,0.25,0.46c-0.04,0.12-0.11,0.22-0.16,0.32
						c-0.09,0.2-0.17,0.4-0.24,0.61c-0.11,0.35-0.3,0.66-0.42,1.01C12.58,47.17,12.47,47.16,12.34,46.96z M12.4,45.34
						c0.04,0.06,0.08,0.13,0.13,0.19c0.1,0.13,0.18,0.12,0.23-0.04c0.04-0.11,0.07-0.22,0.13-0.32c0.06-0.1,0.03-0.16-0.09-0.16
						c-0.15,0-0.29-0.01-0.43-0.02c-0.1,0-0.14,0.05-0.09,0.15C12.31,45.21,12.36,45.27,12.4,45.34z"/>
					<path class="st5" d="M13.63,47.49c-0.12,0.1-0.25,0.21-0.38,0.32c-0.1,0.08-0.19,0.08-0.28-0.02c-0.09-0.1-0.11-0.19-0.01-0.29
						c0.16-0.16,0.34-0.29,0.51-0.43c0.27-0.23,0.54-0.47,0.81-0.71c0.09-0.08,0.28-0.03,0.33,0.1c0.03,0.1,0.06,0.2,0.05,0.3
						c-0.05,0.4-0.01,0.81-0.06,1.21c-0.02,0.15-0.01,0.31,0,0.46c0.01,0.04-0.02,0.09,0.04,0.1c0.04,0.02,0.08,0,0.12-0.04
						c0.08-0.07,0.14-0.17,0.23-0.22c0.21-0.12,0.33-0.35,0.56-0.45c0.13-0.06,0.21-0.02,0.28,0.08c0.07,0.11,0.03,0.19-0.06,0.26
						l-0.79,0.66c-0.15,0.13-0.3,0.27-0.46,0.39c-0.07,0.06-0.15,0.13-0.24,0.08c-0.1-0.05-0.18-0.13-0.18-0.24
						c0-0.19-0.01-0.38,0.01-0.57c0.04-0.27,0.02-0.55,0.04-0.82l0.02-0.39c0-0.05,0.04-0.12-0.03-0.15
						c-0.06-0.03-0.1,0.03-0.14,0.06C13.88,47.29,13.76,47.39,13.63,47.49L13.63,47.49z"/>
					<path class="st5" d="M18.44,51.19c-0.04,0.05-0.08,0.11-0.13,0.15c-0.1,0.09-0.22,0.13-0.36,0.07
						c-0.21-0.09-0.43-0.16-0.58-0.33c-0.02-0.02-0.04-0.02-0.07-0.01c-0.04,0.02-0.03,0.06-0.03,0.09c0,0.22,0.11,0.38,0.22,0.56
						c0.1,0.15,0.22,0.28,0.35,0.41c0.1,0.09,0.08,0.19-0.01,0.27c-0.08,0.09-0.17,0.09-0.27,0.01c-0.38-0.32-0.65-0.71-0.76-1.2
						c-0.03-0.13-0.01-0.26,0.01-0.39c0.03-0.15-0.01-0.26-0.14-0.33c-0.11-0.07-0.21-0.03-0.31,0.06c-0.11,0.1-0.21,0.2-0.28,0.33
						c-0.05,0.09-0.12,0.09-0.2,0.06c-0.14-0.04-0.23-0.25-0.13-0.36c0.19-0.2,0.33-0.45,0.54-0.63c0.1-0.1,0.18-0.22,0.27-0.33
						c0.13-0.14,0.25-0.29,0.4-0.42c0.07-0.06,0.16-0.05,0.23,0.03c0.11,0.11,0.22,0.22,0.35,0.32c0.28,0.22,0.54,0.46,0.82,0.68
						C18.7,50.48,18.71,50.86,18.44,51.19z M17.64,50.19c-0.14-0.11-0.27-0.23-0.41-0.35c-0.1-0.08-0.19-0.06-0.28,0.06
						c-0.08,0.09-0.09,0.18,0.01,0.26c0.12,0.09,0.23,0.19,0.34,0.29c0.18,0.17,0.37,0.31,0.58,0.45c0.06,0.04,0.16,0.06,0.23-0.01
						c0.07-0.06,0.07-0.15,0.03-0.24c-0.03-0.05-0.06-0.1-0.11-0.14L17.64,50.19z"/>
					<path class="st5" d="M19.3,53.57c-0.26-0.19-0.53-0.36-0.71-0.64c-0.18-0.27-0.15-0.53-0.06-0.8c0.06-0.16,0.16-0.3,0.27-0.43
						c0.29-0.35,0.75-0.43,1.15-0.22c0.17,0.09,0.34,0.17,0.51,0.27c0.38,0.22,0.7,0.5,0.76,0.97c0.02,0.16,0.01,0.32-0.09,0.46
						c-0.1,0.15-0.16,0.32-0.29,0.46c-0.23,0.25-0.51,0.33-0.82,0.26C19.76,53.83,19.52,53.74,19.3,53.57z M19.02,52.16
						c-0.07,0.17-0.16,0.38,0.02,0.63c0.13,0.18,0.31,0.28,0.48,0.41c0.18,0.13,0.37,0.25,0.62,0.23c0.31-0.02,0.58-0.22,0.63-0.52
						c0.02-0.17-0.06-0.34-0.17-0.47c-0.21-0.25-0.49-0.39-0.77-0.53C19.52,51.75,19.2,51.86,19.02,52.16z"/>
					<path class="st5" d="M23.26,53.29c0.11,0.05,0.22,0.1,0.33,0.16c0.35,0.16,0.41,0.53,0.25,0.84c-0.03,0.06-0.05,0.12-0.11,0.16
						c-0.09,0.06-0.09,0.14-0.05,0.22c0.11,0.2,0.04,0.39-0.08,0.55c-0.21,0.33-0.46,0.35-0.8,0.2c-0.45-0.2-0.89-0.42-1.34-0.62
						c-0.05-0.02-0.1-0.04-0.16-0.06c-0.26-0.07-0.25-0.21-0.17-0.4c0.09-0.24,0.23-0.45,0.33-0.69c0.07-0.17,0.11-0.37,0.24-0.52
						c0.05-0.06,0.08-0.13,0.09-0.21c0.04-0.21,0.2-0.25,0.38-0.15C22.53,52.95,22.9,53.13,23.26,53.29z M21.93,54.1
						c-0.1-0.04-0.19-0.04-0.25,0.06c-0.06,0.12-0.03,0.26,0.07,0.31c0.38,0.16,0.73,0.35,1.1,0.53c0.13,0.07,0.32,0.02,0.38-0.09
						c0.05-0.1-0.01-0.21-0.17-0.29l-0.88-0.41L21.93,54.1z M22.65,53.47c-0.11-0.05-0.21-0.1-0.3-0.14
						c-0.14-0.06-0.28-0.02-0.32,0.09c-0.05,0.15,0.02,0.28,0.17,0.32c0.1,0.03,0.19,0.08,0.29,0.12c0.23,0.1,0.43,0.24,0.68,0.31
						c0.12,0.03,0.21-0.01,0.27-0.1c0.06-0.07-0.01-0.14-0.05-0.2c-0.05-0.07-0.1-0.13-0.19-0.15
						C22.99,53.67,22.82,53.53,22.65,53.47z"/>
					<path class="st5" d="M26.8,54.57c0.09,0.09,0.12,0.18,0.07,0.3c-0.06,0.14-0.13,0.16-0.28,0.11c-0.49-0.16-0.98-0.32-1.48-0.48
						c-0.13-0.04-0.2,0.01-0.25,0.15c-0.04,0.12-0.03,0.2,0.11,0.25c0.41,0.15,0.81,0.3,1.23,0.42c0.13,0.04,0.15,0.1,0.11,0.23
						c-0.07,0.19-0.1,0.23-0.24,0.18c-0.39-0.12-0.78-0.25-1.17-0.37c-0.18-0.06-0.25-0.03-0.3,0.12c-0.06,0.16,0.02,0.28,0.21,0.31
						c0.32,0.05,0.61,0.16,0.9,0.29c0.03,0.01,0.06,0.03,0.08,0.03c0.19-0.03,0.33,0.06,0.48,0.15c0.12,0.07,0.1,0.14,0.07,0.24
						c-0.03,0.11-0.11,0.15-0.21,0.12c-0.32-0.09-0.65-0.19-0.96-0.29c-0.33-0.1-0.65-0.23-0.98-0.32c-0.13-0.03-0.16-0.1-0.14-0.23
						c0.02-0.21,0.09-0.39,0.18-0.57c0.08-0.17,0.07-0.37,0.14-0.55c0.07-0.17,0.16-0.34,0.19-0.53c0.02-0.15,0.12-0.19,0.27-0.15
						c0.28,0.08,0.54,0.21,0.83,0.22L26.8,54.57z"/>
					<path class="st5" d="M29.51,55.82c-0.01,0.07-0.02,0.13-0.04,0.2c-0.04,0.13-0.12,0.22-0.28,0.24c-0.22,0.03-0.45,0.07-0.67,0
						c-0.03-0.01-0.05,0-0.06,0.02c-0.02,0.04,0,0.06,0.02,0.1c0.11,0.19,0.29,0.28,0.47,0.37c0.16,0.09,0.33,0.14,0.51,0.18
						c0.13,0.03,0.16,0.12,0.13,0.24c-0.03,0.12-0.11,0.16-0.23,0.14c-0.49-0.09-0.91-0.3-1.25-0.66c-0.09-0.1-0.14-0.22-0.18-0.35
						c-0.04-0.14-0.14-0.22-0.28-0.22c-0.13,0-0.2,0.08-0.24,0.21c-0.04,0.14-0.08,0.28-0.08,0.43c0,0.1-0.06,0.14-0.14,0.15
						c-0.15,0.03-0.32-0.11-0.29-0.25c0.07-0.27,0.07-0.55,0.15-0.82c0.04-0.13,0.04-0.28,0.07-0.42c0.04-0.19,0.08-0.38,0.14-0.56
						c0.03-0.09,0.11-0.12,0.22-0.09c0.15,0.04,0.3,0.08,0.46,0.1c0.35,0.05,0.7,0.14,1.05,0.18C29.39,55.07,29.59,55.4,29.51,55.82
						z M28.32,55.35c-0.17-0.03-0.35-0.07-0.53-0.1c-0.13-0.02-0.19,0.04-0.22,0.19c-0.03,0.12,0.01,0.2,0.14,0.22
						c0.15,0.02,0.29,0.05,0.44,0.08c0.24,0.06,0.48,0.09,0.72,0.11c0.08,0,0.17-0.03,0.19-0.12c0.03-0.09-0.01-0.17-0.09-0.22
						c-0.05-0.03-0.1-0.05-0.16-0.07L28.32,55.35z"/>
					<path class="st5" d="M31.47,56.43c-0.02,0.26-0.03,0.51-0.05,0.77c-0.02,0.2-0.09,0.25-0.27,0.23
						c-0.09-0.01-0.14-0.04-0.14-0.13c0-0.04-0.02-0.09-0.02-0.13c0.03-0.33,0.04-0.65,0.04-0.97c0-0.11,0.03-0.23,0.02-0.34
						c-0.01-0.1-0.06-0.17-0.17-0.16c-0.23,0.01-0.46-0.07-0.69-0.04c-0.1,0.01-0.18-0.01-0.18-0.14c-0.01-0.15,0.06-0.27,0.17-0.26
						c0.38,0.06,0.81,0.05,1.2,0.07c0.34,0.02,0.71,0.07,1.06,0.07c0.08,0,0.16,0.02,0.16,0.12c0,0.11,0,0.22-0.14,0.25
						c-0.05,0.02-0.1,0.02-0.15,0.01l-0.54-0.03c-0.18-0.01-0.25,0.04-0.27,0.22C31.49,56.13,31.49,56.28,31.47,56.43L31.47,56.43z"
						/>
					<path class="st5" d="M36.62,55.72c0.01,0.07,0.02,0.13,0.02,0.2c0,0.14-0.05,0.25-0.19,0.31c-0.21,0.09-0.41,0.2-0.64,0.19
						c-0.03,0-0.05,0.02-0.05,0.04c-0.01,0.04,0.02,0.06,0.05,0.09c0.16,0.15,0.35,0.18,0.56,0.22c0.18,0.03,0.36,0.03,0.54,0.02
						c0.13-0.01,0.19,0.07,0.19,0.19c0.01,0.12-0.05,0.19-0.17,0.2c-0.49,0.06-0.96-0.02-1.39-0.26c-0.12-0.07-0.2-0.17-0.27-0.28
						c-0.08-0.12-0.19-0.17-0.34-0.13c-0.13,0.04-0.17,0.13-0.17,0.27c0,0.15,0,0.29,0.05,0.43c0.03,0.1-0.02,0.15-0.09,0.19
						c-0.13,0.07-0.34-0.01-0.35-0.15c-0.02-0.28-0.1-0.55-0.09-0.82c0-0.14-0.04-0.28-0.06-0.42c-0.01-0.19-0.04-0.38-0.04-0.58
						c0-0.09,0.07-0.15,0.18-0.15c0.16,0,0.32-0.01,0.47-0.04c0.35-0.06,0.71-0.08,1.06-0.14C36.28,55.04,36.57,55.3,36.62,55.72z
						 M35.34,55.63c-0.18,0.02-0.36,0.04-0.54,0.06c-0.13,0.02-0.17,0.1-0.15,0.24c0.01,0.12,0.07,0.19,0.2,0.17
						c0.15-0.02,0.3-0.04,0.45-0.05c0.24-0.02,0.48-0.06,0.72-0.11c0.07-0.02,0.15-0.08,0.15-0.18c0-0.1-0.06-0.16-0.15-0.18
						c-0.06-0.02-0.11-0.02-0.17-0.02L35.34,55.63z"/>
					<path class="st5" d="M37.86,55.63c0.03,0.4,0.15,0.74,0.21,1.09c0.02,0.1-0.01,0.21-0.13,0.24c-0.12,0.04-0.24-0.01-0.29-0.12
						c-0.02-0.06-0.04-0.12-0.05-0.18c-0.04-0.37-0.14-0.73-0.23-1.09c-0.04-0.18-0.04-0.35-0.08-0.53
						c-0.04-0.16,0.14-0.15,0.23-0.19c0.08-0.03,0.15,0.04,0.17,0.12C37.74,55.2,37.77,55.44,37.86,55.63z"/>
					<path class="st5" d="M40.15,56.37c-0.09,0.04-0.19,0.02-0.28-0.05c-0.43-0.33-0.87-0.64-1.3-0.98
						c-0.11-0.09-0.23-0.17-0.34-0.26c-0.07-0.06-0.15-0.12-0.12-0.23c0.04-0.11,0.15-0.12,0.24-0.12c0.14,0,0.27,0.04,0.38,0.13
						c0.35,0.29,0.72,0.56,1.09,0.83c0.16,0.12,0.2,0.1,0.27-0.09c0.11-0.29,0.17-0.6,0.28-0.89c0.06-0.15,0.09-0.3,0.14-0.45
						c0.06-0.18,0.2-0.26,0.36-0.32c0.1-0.04,0.18,0.04,0.17,0.15c-0.01,0.06-0.03,0.12-0.05,0.18c-0.13,0.42-0.25,0.84-0.4,1.25
						c-0.05,0.13-0.08,0.26-0.1,0.39C40.44,56.14,40.32,56.32,40.15,56.37z"/>
					<path class="st5" d="M44.28,54.71c-0.13,0.08-0.25,0.06-0.4-0.04c-0.17-0.13-0.37-0.16-0.58-0.06
						c-0.28,0.14-0.56,0.27-0.85,0.38c-0.18,0.07-0.26,0.19-0.27,0.37c-0.03,0.22-0.11,0.4-0.35,0.46
						c-0.16,0.05-0.23,0.01-0.21-0.15c0.04-0.33,0.15-0.64,0.2-0.96c0.06-0.35,0.13-0.7,0.2-1.05c0.01-0.05,0.02-0.1,0.04-0.14
						c0.08-0.22,0.27-0.29,0.49-0.18c0.11,0.05,0.2,0.14,0.3,0.2c0.18,0.12,0.37,0.23,0.57,0.32c0.33,0.16,0.62,0.39,0.94,0.55
						C44.52,54.5,44.49,54.61,44.28,54.71z M42.68,54.41c0.07-0.03,0.14-0.06,0.21-0.1c0.14-0.08,0.14-0.16,0-0.24
						c-0.1-0.06-0.21-0.1-0.3-0.17c-0.09-0.07-0.16-0.05-0.17,0.07c-0.02,0.15-0.05,0.29-0.08,0.42c-0.02,0.1,0.03,0.15,0.13,0.11
						C42.54,54.49,42.61,54.45,42.68,54.41z"/>
					<path class="st5" d="M45.21,51.65c0.17-0.01,0.3-0.14,0.47-0.17c0.33-0.06,0.6,0.01,0.85,0.26c0.21,0.21,0.34,0.45,0.39,0.72
						c0.04,0.27-0.02,0.54-0.24,0.76c-0.22,0.22-0.47,0.39-0.73,0.55c-0.26,0.16-0.52,0.32-0.78,0.47c-0.12,0.07-0.24,0.02-0.3-0.15
						c-0.06-0.15-0.15-0.29-0.25-0.42c-0.22-0.29-0.38-0.61-0.57-0.92c-0.13-0.2-0.12-0.22,0.05-0.38L45.21,51.65z M45.01,53.48
						c0.14,0.22,0.19,0.22,0.41,0.09c0.23-0.13,0.44-0.31,0.68-0.44c0.26-0.14,0.41-0.47,0.33-0.7c-0.13-0.36-0.35-0.58-0.76-0.47
						c-0.35,0.1-0.6,0.35-0.91,0.52c-0.03,0.01-0.05,0.04-0.08,0.05c-0.13,0.06-0.16,0.16-0.08,0.28l0.23,0.36L45.01,53.48z"/>
					<path class="st5" d="M48.17,49.39c0.12-0.03,0.22-0.01,0.29,0.11c0.08,0.13,0.07,0.2-0.06,0.29c-0.4,0.32-0.8,0.65-1.2,0.99
						c-0.11,0.09-0.1,0.17-0.01,0.29c0.08,0.1,0.15,0.13,0.27,0.04c0.35-0.26,0.69-0.53,1.02-0.81c0.1-0.09,0.17-0.07,0.25,0.03
						c0.13,0.16,0.14,0.21,0.02,0.3c-0.31,0.26-0.63,0.52-0.94,0.79c-0.14,0.12-0.16,0.2-0.06,0.32c0.1,0.14,0.25,0.14,0.37-0.01
						c0.21-0.24,0.46-0.43,0.73-0.61c0.02-0.01,0.06-0.03,0.07-0.05c0.08-0.17,0.23-0.24,0.39-0.32c0.12-0.06,0.17-0.01,0.24,0.07
						c0.07,0.09,0.06,0.18-0.01,0.24c-0.25,0.23-0.51,0.44-0.77,0.66c-0.26,0.22-0.54,0.42-0.79,0.65c-0.1,0.09-0.17,0.08-0.27,0
						c-0.16-0.13-0.28-0.29-0.38-0.46c-0.1-0.16-0.27-0.26-0.38-0.41c-0.11-0.15-0.2-0.31-0.34-0.44c-0.12-0.1-0.09-0.2,0.02-0.31
						c0.21-0.19,0.47-0.34,0.63-0.59L48.17,49.39z"/>
					<path class="st5" d="M49.89,49.74c0.12,0.11,0.24,0.22,0.36,0.34c0.09,0.09,0.1,0.18,0.02,0.28c-0.09,0.1-0.18,0.13-0.29,0.04
						c-0.18-0.14-0.33-0.31-0.49-0.46c-0.26-0.25-0.53-0.48-0.8-0.73c-0.09-0.08-0.06-0.28,0.06-0.34c0.09-0.04,0.19-0.08,0.29-0.08
						c0.4,0,0.8-0.09,1.21-0.08c0.15,0,0.31-0.02,0.46-0.05c0.04-0.01,0.09,0.01,0.1-0.05c0.01-0.04-0.01-0.08-0.05-0.11
						c-0.08-0.07-0.18-0.12-0.24-0.2c-0.15-0.19-0.39-0.29-0.51-0.51c-0.07-0.13-0.04-0.21,0.05-0.29c0.1-0.09,0.19-0.05,0.27,0.03
						l0.74,0.71c0.15,0.14,0.3,0.27,0.44,0.42c0.07,0.07,0.14,0.13,0.11,0.23c-0.04,0.11-0.11,0.19-0.22,0.21
						c-0.19,0.02-0.38,0.05-0.56,0.05c-0.28-0.01-0.54,0.04-0.82,0.05l-0.39,0.02c-0.05,0-0.13-0.02-0.15,0.05
						c-0.02,0.06,0.04,0.09,0.08,0.13C49.65,49.52,49.77,49.62,49.89,49.74L49.89,49.74z"/>
					<path class="st5" d="M51.77,45.22c0.11-0.06,0.21-0.06,0.31,0.03c0.11,0.1,0.11,0.17,0.01,0.3c-0.31,0.41-0.62,0.83-0.93,1.24
						c-0.08,0.11-0.06,0.19,0.06,0.28c0.1,0.08,0.18,0.09,0.27-0.03c0.27-0.34,0.54-0.67,0.79-1.03c0.08-0.11,0.15-0.11,0.25-0.03
						c0.16,0.12,0.18,0.17,0.09,0.29c-0.24,0.33-0.49,0.66-0.73,0.99c-0.11,0.15-0.11,0.23,0.01,0.32c0.13,0.11,0.27,0.07,0.36-0.1
						c0.15-0.28,0.35-0.53,0.56-0.76c0.02-0.02,0.05-0.04,0.05-0.07c0.03-0.19,0.17-0.29,0.3-0.41c0.1-0.09,0.17-0.05,0.25,0.01
						c0.09,0.07,0.1,0.16,0.05,0.24c-0.19,0.28-0.39,0.55-0.59,0.82c-0.2,0.28-0.42,0.54-0.61,0.82c-0.07,0.11-0.15,0.11-0.27,0.06
						c-0.19-0.09-0.34-0.21-0.48-0.36c-0.14-0.13-0.33-0.19-0.47-0.31c-0.14-0.12-0.27-0.26-0.44-0.35
						c-0.14-0.07-0.14-0.17-0.05-0.3c0.16-0.24,0.37-0.45,0.48-0.72L51.77,45.22z"/>
					<path class="st5" d="M53.04,44.76c0.31,0.25,0.63,0.4,0.94,0.6c0.09,0.06,0.15,0.15,0.09,0.26c-0.05,0.11-0.18,0.16-0.29,0.12
						c-0.06-0.02-0.12-0.05-0.17-0.09c-0.29-0.23-0.63-0.4-0.95-0.59c-0.16-0.09-0.28-0.22-0.44-0.31c-0.14-0.08-0.02-0.2,0.02-0.29
						c0.03-0.08,0.13-0.08,0.2-0.04C52.65,44.55,52.84,44.7,53.04,44.76z"/>
					<path class="st5" d="M54.32,42.03c0.06,0.03,0.12,0.05,0.18,0.09c0.11,0.08,0.18,0.18,0.15,0.33
						c-0.04,0.22-0.05,0.45-0.19,0.64c-0.02,0.02-0.01,0.05,0.01,0.07c0.03,0.03,0.06,0.01,0.1,0.01c0.21-0.05,0.34-0.2,0.49-0.34
						c0.13-0.13,0.23-0.28,0.32-0.44c0.07-0.12,0.16-0.12,0.27-0.05c0.11,0.06,0.13,0.15,0.07,0.26c-0.22,0.44-0.54,0.79-0.99,1.02
						c-0.12,0.06-0.25,0.07-0.38,0.08c-0.15,0-0.25,0.07-0.29,0.21c-0.04,0.13,0.02,0.21,0.13,0.29c0.12,0.08,0.24,0.16,0.39,0.19
						c0.1,0.03,0.12,0.1,0.11,0.18c-0.01,0.15-0.19,0.28-0.32,0.21c-0.24-0.14-0.51-0.22-0.74-0.37c-0.12-0.08-0.26-0.12-0.38-0.18
						c-0.17-0.09-0.34-0.18-0.5-0.29c-0.08-0.05-0.08-0.14-0.03-0.23c0.08-0.13,0.17-0.27,0.23-0.41c0.14-0.32,0.33-0.63,0.47-0.96
						C53.56,41.94,53.94,41.84,54.32,42.03z M53.53,43.04c-0.08,0.16-0.16,0.32-0.24,0.48c-0.05,0.12-0.01,0.2,0.12,0.26
						c0.11,0.06,0.19,0.04,0.25-0.07c0.06-0.14,0.13-0.27,0.2-0.4c0.12-0.21,0.22-0.44,0.3-0.67c0.02-0.07,0.02-0.17-0.07-0.22
						c-0.08-0.05-0.16-0.04-0.24,0.03c-0.05,0.04-0.08,0.08-0.11,0.14L53.53,43.04z"/>
					<path class="st5" d="M56.9,39.16c-0.03,0.15-0.13,0.23-0.3,0.26c-0.22,0.04-0.37,0.16-0.44,0.39c-0.09,0.3-0.19,0.59-0.3,0.88
						c-0.07,0.18-0.04,0.32,0.08,0.45c0.14,0.17,0.21,0.35,0.1,0.57c-0.07,0.15-0.15,0.17-0.25,0.05c-0.21-0.25-0.37-0.54-0.57-0.8
						c-0.22-0.28-0.42-0.57-0.63-0.86c-0.03-0.04-0.06-0.08-0.08-0.12c-0.11-0.21-0.03-0.39,0.2-0.48c0.11-0.04,0.24-0.05,0.35-0.08
						c0.21-0.05,0.42-0.12,0.62-0.2c0.34-0.14,0.7-0.19,1.05-0.31C56.92,38.84,56.97,38.93,56.9,39.16z M55.6,40.13
						c0.02-0.07,0.06-0.14,0.07-0.22c0.03-0.16-0.02-0.21-0.18-0.16c-0.11,0.04-0.22,0.09-0.33,0.1c-0.11,0.02-0.14,0.08-0.06,0.17
						c0.1,0.11,0.18,0.23,0.26,0.35c0.06,0.08,0.13,0.08,0.17-0.02C55.56,40.28,55.58,40.2,55.6,40.13z"/>
				</g>
			</g>
			<g>
				<g>
					<path class="st5" d="M9.45,25.44c0.12-0.12,0.13-0.3,0.24-0.44c0.21-0.26,0.46-0.39,0.81-0.37c0.29,0.02,0.56,0.11,0.77,0.28
						c0.21,0.17,0.34,0.42,0.32,0.73c-0.02,0.31-0.1,0.61-0.19,0.9c-0.09,0.29-0.18,0.58-0.27,0.87c-0.05,0.13-0.17,0.17-0.32,0.09
						c-0.15-0.08-0.31-0.12-0.46-0.15c-0.36-0.07-0.69-0.2-1.04-0.31c-0.23-0.07-0.23-0.09-0.22-0.32L9.45,25.44z M10.51,26.95
						c0.25,0.07,0.29,0.04,0.37-0.2c0.09-0.25,0.13-0.52,0.22-0.78c0.1-0.28,0-0.62-0.22-0.75c-0.33-0.19-0.64-0.21-0.88,0.16
						c-0.19,0.3-0.22,0.66-0.34,0.99c-0.01,0.03-0.01,0.06-0.03,0.09c-0.05,0.13-0.01,0.23,0.12,0.27l0.4,0.12L10.51,26.95z"/>
					<path class="st5" d="M11.36,22.77c0.34,0.21,0.68,0.31,1.01,0.47c0.1,0.04,0.16,0.12,0.12,0.25c-0.04,0.12-0.15,0.19-0.27,0.16
						c-0.06-0.01-0.12-0.03-0.18-0.07c-0.32-0.19-0.68-0.31-1.02-0.45c-0.17-0.07-0.31-0.18-0.48-0.24
						c-0.15-0.06-0.04-0.2-0.02-0.29c0.02-0.08,0.12-0.1,0.2-0.06C10.95,22.61,11.15,22.73,11.36,22.77z"/>
					<path class="st5" d="M13.85,20.83c-0.19,0.32-0.35,0.57-0.58,0.78c-0.11,0.11-0.25,0.18-0.39,0.21
						c-0.1,0.02-0.22,0.02-0.27-0.12c-0.04-0.13,0.01-0.27,0.12-0.34c0.09-0.06,0.21-0.07,0.3-0.15c0.28-0.25,0.47-0.56,0.6-0.9
						c0.02-0.06,0.06-0.12,0.08-0.19c0.02-0.06,0.04-0.13-0.02-0.17c-0.06-0.04-0.12-0.01-0.17,0.04c-0.11,0.11-0.24,0.21-0.33,0.34
						c-0.17,0.26-0.38,0.5-0.61,0.7c-0.14,0.13-0.3,0.26-0.53,0.21c-0.26-0.06-0.42-0.28-0.4-0.56c0.03-0.32,0.14-0.61,0.32-0.86
						c0.09-0.13,0.17-0.27,0.26-0.4c0.11-0.14,0.25-0.22,0.38-0.33c0.11-0.09,0.24-0.11,0.38-0.1c0.07,0.01,0.1,0.05,0.12,0.11
						c0.03,0.1,0.05,0.2-0.05,0.28c-0.05,0.04-0.1,0.08-0.16,0.1c-0.39,0.17-0.58,0.51-0.73,0.88c-0.04,0.1-0.13,0.23,0,0.31
						c0.12,0.07,0.22-0.05,0.28-0.13c0.17-0.21,0.34-0.42,0.5-0.64c0.13-0.18,0.3-0.34,0.51-0.45c0.23-0.12,0.42-0.07,0.6,0.08
						c0.17,0.14,0.16,0.35,0.11,0.52C14.08,20.35,14.04,20.66,13.85,20.83z"/>
					<path class="st5" d="M15.13,15.65c0.11-0.05,0.21-0.04,0.3,0.06c0.1,0.11,0.1,0.18-0.01,0.3c-0.35,0.38-0.69,0.77-1.03,1.16
						c-0.09,0.1-0.07,0.19,0.04,0.29c0.09,0.08,0.17,0.1,0.27-0.01c0.3-0.31,0.6-0.63,0.87-0.96c0.09-0.1,0.16-0.1,0.25-0.01
						c0.15,0.14,0.17,0.18,0.07,0.3c-0.27,0.31-0.54,0.62-0.8,0.93c-0.12,0.14-0.12,0.22-0.01,0.32c0.12,0.12,0.27,0.09,0.37-0.07
						c0.17-0.27,0.39-0.5,0.62-0.71c0.02-0.02,0.05-0.04,0.06-0.06c0.05-0.18,0.19-0.28,0.33-0.38c0.11-0.08,0.17-0.04,0.25,0.03
						c0.09,0.08,0.09,0.16,0.03,0.24c-0.21,0.26-0.43,0.52-0.65,0.77c-0.22,0.26-0.47,0.5-0.68,0.77c-0.08,0.11-0.16,0.1-0.27,0.04
						c-0.18-0.1-0.32-0.24-0.45-0.39c-0.12-0.15-0.31-0.21-0.44-0.35c-0.13-0.13-0.25-0.28-0.41-0.38c-0.13-0.08-0.12-0.18-0.03-0.3
						c0.18-0.22,0.4-0.41,0.53-0.68L15.13,15.65z"/>
					<path class="st5" d="M17.65,15.25c0.1,0.12,0.21,0.25,0.31,0.38c0.08,0.1,0.08,0.19-0.02,0.28c-0.1,0.09-0.19,0.11-0.29,0.01
						c-0.16-0.16-0.29-0.34-0.43-0.52c-0.23-0.28-0.46-0.54-0.7-0.82c-0.08-0.09-0.03-0.28,0.1-0.33c0.1-0.03,0.2-0.06,0.3-0.04
						c0.4,0.05,0.81,0.01,1.21,0.07c0.15,0.02,0.31,0.02,0.46,0.01c0.04,0,0.09,0.02,0.1-0.03c0.02-0.04,0-0.08-0.04-0.12
						c-0.07-0.08-0.17-0.14-0.22-0.23c-0.12-0.21-0.35-0.33-0.44-0.57c-0.05-0.13-0.02-0.21,0.08-0.28
						c0.11-0.07,0.19-0.02,0.26,0.06L19,13.92c0.13,0.15,0.27,0.3,0.39,0.47c0.06,0.08,0.13,0.15,0.08,0.24
						c-0.05,0.1-0.13,0.17-0.25,0.18c-0.19,0-0.38,0.01-0.57-0.02c-0.27-0.05-0.55-0.02-0.82-0.05l-0.39-0.02
						c-0.05,0-0.12-0.04-0.15,0.03c-0.03,0.06,0.03,0.1,0.06,0.14C17.45,15.01,17.55,15.13,17.65,15.25L17.65,15.25z"/>
					<path class="st5" d="M23.01,12.47c-0.12,0.09-0.25,0.08-0.4-0.01c-0.18-0.12-0.38-0.13-0.58,0c-0.27,0.16-0.54,0.32-0.81,0.45
						c-0.17,0.09-0.24,0.21-0.24,0.39c-0.01,0.22-0.07,0.4-0.3,0.49c-0.15,0.06-0.23,0.03-0.22-0.13c0.01-0.33,0.09-0.65,0.11-0.98
						c0.02-0.36,0.07-0.71,0.11-1.06c0-0.05,0.01-0.1,0.02-0.14c0.06-0.22,0.25-0.31,0.47-0.22c0.11,0.04,0.21,0.12,0.32,0.17
						c0.19,0.1,0.39,0.2,0.59,0.27c0.34,0.13,0.65,0.33,0.99,0.47C23.23,12.25,23.22,12.36,23.01,12.47z M21.39,12.32
						c0.07-0.04,0.14-0.07,0.2-0.12c0.13-0.1,0.13-0.17-0.02-0.23c-0.11-0.05-0.22-0.08-0.32-0.15c-0.09-0.06-0.16-0.04-0.16,0.08
						c0,0.15-0.02,0.29-0.04,0.43c-0.01,0.1,0.04,0.14,0.14,0.1C21.26,12.41,21.33,12.36,21.39,12.32z"/>
					<path class="st5" d="M25.16,9.33c0.17,0.03,0.32-0.07,0.49-0.06c0.33,0.02,0.58,0.15,0.77,0.45c0.15,0.25,0.23,0.52,0.21,0.79
						c-0.02,0.27-0.15,0.52-0.41,0.68c-0.27,0.16-0.55,0.27-0.84,0.36c-0.29,0.09-0.58,0.19-0.87,0.28
						c-0.14,0.04-0.23-0.04-0.26-0.21c-0.02-0.16-0.08-0.32-0.14-0.47c-0.14-0.33-0.23-0.69-0.34-1.03
						c-0.07-0.23-0.06-0.24,0.13-0.36L25.16,9.33z M24.53,11.06c0.08,0.24,0.13,0.26,0.38,0.19c0.26-0.07,0.5-0.19,0.76-0.27
						c0.29-0.08,0.51-0.36,0.49-0.61c-0.04-0.38-0.2-0.65-0.63-0.63c-0.36,0.01-0.67,0.2-1.01,0.29c-0.03,0.01-0.06,0.02-0.09,0.03
						c-0.14,0.03-0.19,0.12-0.15,0.25l0.14,0.4L24.53,11.06z"/>
					<path class="st5" d="M29.5,10.53c-0.32,0.03-0.63,0.07-0.96-0.02c-0.31-0.08-0.47-0.3-0.57-0.56
						c-0.06-0.16-0.07-0.33-0.08-0.51c-0.02-0.45,0.28-0.82,0.72-0.93c0.18-0.05,0.37-0.1,0.56-0.14c0.43-0.08,0.86-0.09,1.21,0.23
						c0.12,0.11,0.22,0.23,0.24,0.4c0.02,0.18,0.09,0.35,0.08,0.54c-0.01,0.34-0.17,0.58-0.45,0.74
						C30.02,10.42,29.77,10.51,29.5,10.53z M28.36,9.65c0.06,0.17,0.13,0.39,0.43,0.46c0.22,0.05,0.42,0.01,0.63-0.01
						c0.22-0.02,0.44-0.06,0.61-0.24c0.22-0.22,0.3-0.55,0.13-0.81c-0.09-0.14-0.26-0.22-0.43-0.24c-0.32-0.05-0.62,0.03-0.93,0.11
						C28.47,9.01,28.3,9.31,28.36,9.65z"/>
					<path class="st5" d="M34.57,8.85c0,0.07,0,0.13-0.01,0.2c-0.02,0.14-0.09,0.24-0.24,0.28c-0.22,0.06-0.43,0.14-0.66,0.1
						c-0.03,0-0.05,0.01-0.06,0.03c-0.02,0.04,0.01,0.06,0.03,0.09c0.13,0.17,0.32,0.23,0.52,0.3c0.17,0.06,0.35,0.09,0.53,0.1
						c0.13,0.01,0.18,0.1,0.16,0.22c-0.01,0.12-0.08,0.18-0.2,0.17c-0.5-0.02-0.95-0.16-1.34-0.47c-0.11-0.08-0.17-0.19-0.23-0.31
						c-0.06-0.14-0.17-0.19-0.31-0.18c-0.13,0.02-0.18,0.11-0.2,0.24c-0.02,0.14-0.04,0.29-0.01,0.43c0.02,0.1-0.04,0.15-0.12,0.17
						c-0.14,0.05-0.33-0.06-0.32-0.2c0.02-0.28-0.02-0.56,0.03-0.83c0.02-0.14,0-0.28,0.01-0.42c0.01-0.19,0.02-0.39,0.05-0.58
						c0.01-0.09,0.09-0.13,0.2-0.12c0.16,0.02,0.31,0.04,0.47,0.03c0.35,0,0.71,0.03,1.07,0.02C34.34,8.13,34.59,8.43,34.57,8.85z
						 M33.33,8.57c-0.18-0.01-0.36-0.02-0.54-0.02c-0.13,0-0.18,0.07-0.19,0.22c-0.01,0.12,0.04,0.19,0.17,0.2
						c0.15,0,0.3,0.01,0.45,0.02c0.24,0.02,0.49,0.02,0.73,0c0.08-0.01,0.16-0.05,0.17-0.15c0.01-0.09-0.03-0.16-0.12-0.2
						c-0.05-0.03-0.11-0.04-0.17-0.04L33.33,8.57z"/>
					<path class="st5" d="M41.19,10.78c-0.23,0.59-0.58,0.8-1.24,0.66c-0.32-0.06-0.64-0.17-0.94-0.3c-0.37-0.16-0.62-0.5-0.59-0.92
						c0.02-0.32,0.13-0.63,0.36-0.86c0.19-0.2,0.45-0.27,0.72-0.24c0.42,0.05,0.81,0.22,1.22,0.36c0.25,0.08,0.4,0.28,0.51,0.5
						c0.03,0.07,0.01,0.14-0.04,0.19c-0.06,0.06-0.14,0.12-0.25,0.1c-0.09-0.02-0.17-0.06-0.23-0.14c-0.33-0.4-0.77-0.54-1.27-0.54
						c-0.29,0-0.48,0.18-0.54,0.46c-0.08,0.38,0.07,0.62,0.43,0.77c0.29,0.11,0.58,0.19,0.9,0.2c0.09,0,0.17-0.02,0.25-0.06
						c0.05-0.03,0.1-0.05,0.1-0.11c0-0.07-0.06-0.08-0.11-0.1c-0.14-0.05-0.63-0.2-0.77-0.24c-0.1-0.03-0.16-0.1-0.14-0.2
						c0.03-0.15,0.11-0.23,0.23-0.22c0.18,0.01,0.67,0.22,0.84,0.27c0.14,0.04,0.28,0.04,0.42,0.12
						C41.25,10.58,41.26,10.56,41.19,10.78z"/>
					<path class="st5" d="M44.86,12.11c-0.03,0.06-0.06,0.12-0.09,0.18c-0.08,0.11-0.19,0.17-0.33,0.14
						c-0.22-0.04-0.45-0.07-0.64-0.21c-0.02-0.02-0.05-0.01-0.07,0c-0.03,0.03-0.02,0.06-0.01,0.1c0.04,0.21,0.19,0.35,0.33,0.5
						c0.13,0.13,0.28,0.23,0.43,0.33c0.11,0.07,0.12,0.17,0.05,0.27c-0.06,0.1-0.15,0.12-0.26,0.07c-0.44-0.23-0.78-0.56-0.99-1.01
						c-0.06-0.12-0.07-0.25-0.07-0.38c0-0.15-0.06-0.25-0.2-0.3c-0.13-0.04-0.21,0.02-0.29,0.13c-0.08,0.12-0.16,0.24-0.2,0.38
						c-0.03,0.1-0.1,0.11-0.18,0.1c-0.15-0.01-0.27-0.2-0.2-0.32c0.15-0.24,0.23-0.51,0.4-0.73c0.08-0.11,0.13-0.25,0.19-0.38
						c0.1-0.17,0.19-0.34,0.3-0.49c0.05-0.07,0.14-0.08,0.23-0.02c0.13,0.09,0.26,0.17,0.41,0.24c0.32,0.15,0.62,0.34,0.94,0.49
						C44.97,11.35,45.06,11.73,44.86,12.11z M43.87,11.29c-0.16-0.08-0.31-0.17-0.47-0.25c-0.12-0.06-0.19-0.02-0.27,0.11
						c-0.06,0.11-0.05,0.19,0.06,0.25c0.13,0.07,0.27,0.14,0.39,0.22c0.21,0.13,0.43,0.23,0.66,0.32c0.07,0.02,0.17,0.02,0.22-0.06
						c0.06-0.08,0.04-0.16-0.02-0.24c-0.04-0.05-0.08-0.08-0.13-0.11L43.87,11.29z"/>
					<path class="st5" d="M47.69,15.98c-0.13-0.08-0.17-0.2-0.14-0.37c0.04-0.21-0.02-0.4-0.21-0.54c-0.25-0.19-0.49-0.38-0.72-0.59
						c-0.14-0.12-0.28-0.14-0.45-0.08c-0.21,0.07-0.4,0.08-0.57-0.1c-0.11-0.12-0.11-0.2,0.04-0.26c0.31-0.11,0.64-0.16,0.95-0.26
						c0.34-0.11,0.68-0.2,1.03-0.29c0.05-0.01,0.1-0.02,0.14-0.03c0.23-0.03,0.38,0.11,0.38,0.35c0,0.12-0.03,0.24-0.05,0.36
						c-0.03,0.22-0.04,0.43-0.03,0.65c0.01,0.37-0.07,0.72-0.07,1.09C47.98,16.1,47.87,16.13,47.69,15.98z M47.23,14.42
						c0.06,0.05,0.11,0.1,0.18,0.14c0.14,0.09,0.2,0.05,0.21-0.11c0-0.12-0.01-0.23,0.02-0.35c0.02-0.11-0.03-0.16-0.14-0.12
						c-0.14,0.05-0.28,0.09-0.42,0.12c-0.1,0.03-0.12,0.09-0.04,0.17C47.1,14.33,47.17,14.37,47.23,14.42z"/>
					<path class="st5" d="M50.76,16.08c0.16,0.21,0.3,0.43,0.5,0.61c0.13,0.12,0.21,0.28,0.33,0.4c0.06,0.06,0.13,0.12,0.18,0.19
						c0.08,0.1,0.06,0.23-0.02,0.3c-0.1,0.09-0.18,0.07-0.3-0.02c-0.26-0.19-0.39-0.49-0.61-0.71c-0.15-0.15-0.28-0.32-0.42-0.48
						c-0.1-0.12-0.2-0.12-0.3-0.02c-0.11,0.11-0.11,0.2-0.01,0.31c0.27,0.3,0.5,0.63,0.78,0.93c0.09,0.09,0.08,0.24,0,0.32
						c-0.08,0.08-0.24,0.07-0.33-0.03c-0.19-0.23-0.41-0.44-0.58-0.69c-0.07-0.1-0.16-0.19-0.26-0.26
						c-0.08-0.06-0.18-0.07-0.27,0.01c-0.12,0.1-0.19,0.23-0.33,0.29c-0.1,0.04-0.19,0.08-0.27-0.03c-0.08-0.1-0.08-0.23,0.01-0.31
						c0.46-0.42,0.94-0.78,1.41-1.19c0.04-0.04,0.09-0.01,0.14,0L50.76,16.08z"/>
					<path class="st5" d="M52.4,19.57c-0.35,0.18-0.63,0.41-0.93,0.6c-0.09,0.06-0.19,0.07-0.27-0.03
						c-0.08-0.09-0.08-0.23,0.01-0.32c0.05-0.04,0.09-0.09,0.15-0.12c0.33-0.17,0.62-0.4,0.92-0.62c0.15-0.1,0.31-0.17,0.46-0.27
						c0.13-0.09,0.19,0.07,0.26,0.14c0.06,0.06,0.02,0.15-0.05,0.2C52.75,19.3,52.54,19.41,52.4,19.57z"/>
					<path class="st5" d="M54.79,22.07c-0.02,0.11,0.04,0.21,0.08,0.32c0.08,0.23,0.04,0.45-0.06,0.65
						c-0.05,0.1-0.18,0.13-0.29,0.05c-0.1-0.07-0.16-0.17-0.14-0.29c0.12-0.57-0.17-0.99-0.52-1.39c-0.1-0.11-0.24-0.16-0.39-0.13
						c-0.52,0.1-0.7,0.44-0.54,0.92c0.06,0.17,0.15,0.34,0.23,0.5c0.07,0.13,0.18,0.27,0.33,0.35c0.09,0.05,0.17,0.1,0.23,0.18
						c0.09,0.11,0.09,0.23,0.01,0.35c-0.07,0.11-0.18,0.06-0.27,0.03c-0.47-0.14-0.72-0.75-0.91-1.15c-0.21-0.46-0.24-1.13,0.3-1.38
						c0.1-0.05,0.2-0.09,0.3-0.15c0.29-0.18,0.57-0.12,0.85,0.01c0.11,0.05,0.19,0.14,0.25,0.24c0.08,0.13,0.2,0.22,0.27,0.35
						L54.79,22.07z"/>
					<path class="st5" d="M54.07,26.33c-0.07-0.31-0.16-0.62-0.11-0.95c0.04-0.32,0.24-0.5,0.48-0.64c0.15-0.08,0.32-0.12,0.49-0.15
						c0.45-0.08,0.85,0.16,1.01,0.59c0.07,0.18,0.15,0.35,0.21,0.53c0.14,0.41,0.2,0.84-0.07,1.23c-0.09,0.13-0.2,0.25-0.37,0.29
						c-0.18,0.04-0.33,0.14-0.52,0.16c-0.34,0.04-0.6-0.09-0.79-0.35C54.25,26.83,54.13,26.59,54.07,26.33z M54.79,25.08
						c-0.16,0.08-0.37,0.18-0.4,0.49c-0.02,0.22,0.05,0.42,0.09,0.62c0.05,0.21,0.12,0.43,0.31,0.58c0.25,0.19,0.58,0.22,0.82,0.02
						c0.13-0.11,0.18-0.29,0.18-0.46c0.01-0.32-0.11-0.61-0.23-0.91C55.44,25.1,55.12,24.97,54.79,25.08z"/>
				</g>
			</g>
			<circle class="st5" cx="56.37" cy="32.46" r="0.98"/>
			<circle class="st5" cx="9.16" cy="32.46" r="0.98"/>
		</g>
	</g>
	<g>
		
			<linearGradient id="SVGID_00000153700056231008280500000017954947916030186894_" gradientUnits="userSpaceOnUse" x1="55.9221" y1="55.9218" x2="9.6074" y2="9.6071">
			<stop  offset="0" style="stop-color:#E68061"/>
			<stop  offset="0.1229" style="stop-color:#DDBB1B"/>
			<stop  offset="0.5" style="stop-color:#49CA80"/>
			<stop  offset="1" style="stop-color:#38ABE6"/>
		</linearGradient>
		<path style="fill:url(#SVGID_00000153700056231008280500000017954947916030186894_);" d="M32.76,3C49.2,3,62.53,16.33,62.53,32.76
			c0,16.44-13.33,29.76-29.76,29.76C16.33,62.53,3,49.2,3,32.76C3,16.33,16.33,3,32.76,3 M32.76,0C14.7,0,0,14.7,0,32.76
			s14.7,32.76,32.77,32.76c18.07,0,32.76-14.7,32.76-32.76S50.83,0,32.76,0L32.76,0z"/>
	</g>
</g>
</svg>
