<?xml version="1.0" encoding="utf-8"?>
<!-- Generator: Adobe Illustrator 27.0.0, SVG Export Plug-In . SVG Version: 6.00 Build 0)  -->
<svg version="1.1" id="Capa_1" xmlns="http://www.w3.org/2000/svg" xmlns:xlink="http://www.w3.org/1999/xlink" x="0px" y="0px"
	 viewBox="0 0 16.4 17.67" style="enable-background:new 0 0 16.4 17.67;" xml:space="preserve">
<style type="text/css">
	.st0{fill:#090E38;}
	.st1{fill:url(#SVGID_1_);}
	.st2{fill:#161A42;}
	.st3{fill:url(#SVGID_00000096773709626589033760000014143117380024778382_);}
	.st4{fill:url(#SVGID_00000052099127085394121550000000063536481018945942_);}
	.st5{fill:#FFFFFF;}
	.st6{fill:#E9E9EB;}
	.st7{fill:#2280C3;}
	.st8{fill:#263A6B;}
	.st9{fill:#13183B;}
	.st10{fill:#EBEBFF;}
	.st11{fill:#15336C;}
	.st12{fill:#121D3E;}
	.st13{fill:#D8CE9E;}
	.st14{fill:#5F485A;}
	.st15{fill:#17316F;}
	.st16{fill:#0A1C4F;}
	.st17{fill:#1E1A55;}
	.st18{fill:#12193B;}
	.st19{fill:#D8CD9C;}
	.st20{fill:#544A55;}
	.st21{fill:#E0E1E3;}
	.st22{fill:#15193A;}
	.st23{fill:#D6CC89;}
	.st24{fill:#434642;}
	.st25{fill:#131543;}
	.st26{fill:#3E3B38;}
	.st27{fill:#181940;}
	.st28{fill:#D7CE9D;}
	.st29{fill:#806D64;}
	.st30{opacity:0.7;fill:#6FC4D8;}
	.st31{fill:#805AE4;}
	.st32{fill:#ECB40A;}
	.st33{fill:#10B78E;}
	.st34{fill:url(#SVGID_00000073708281451438106380000015988464414262769067_);}
	.st35{fill:url(#SVGID_00000146477779823878725770000009995664987990739387_);}
	.st36{fill:url(#SVGID_00000030480294070556954360000010590964693471894163_);}
	.st37{fill:url(#SVGID_00000098917343671573678690000002239803248668512179_);}
	.st38{fill:url(#SVGID_00000165939992252755957380000005498661573228614574_);}
	.st39{fill:url(#SVGID_00000013889516856430539090000002199005055078888616_);}
	.st40{fill:url(#SVGID_00000054965118266456019910000008224775967168439940_);}
	.st41{fill:url(#SVGID_00000005240025042297401800000017879496600697180053_);}
	.st42{fill:url(#SVGID_00000175291727863037597760000013812761496114708382_);}
	.st43{fill:url(#SVGID_00000128460364699093908150000013100954895765067139_);}
	.st44{fill:url(#SVGID_00000176042724464290242500000014087791752799790476_);}
	.st45{fill:url(#SVGID_00000013886390657556628480000009856270049448074940_);}
	.st46{fill:url(#SVGID_00000052805729928915512140000012814031862864571782_);}
	.st47{fill:url(#SVGID_00000140005585322742245270000003875241960968700059_);}
	.st48{fill:url(#SVGID_00000069390409809895958840000005402879906329795734_);}
	.st49{fill:url(#SVGID_00000066489965788173776240000007386960166790709924_);}
	.st50{fill:url(#SVGID_00000180326724918176109900000015207266978529996479_);}
	.st51{fill:url(#SVGID_00000053530460261589341790000014721675943180522655_);}
	.st52{fill:url(#SVGID_00000164484811569682990430000013073856995172493988_);}
	.st53{fill:url(#SVGID_00000041991576585380855420000001258358211296573597_);}
	.st54{fill:url(#SVGID_00000137818792477594539510000000743751695676648615_);}
	.st55{fill:url(#SVGID_00000127744536973475905940000015673262421584721026_);}
	.st56{fill:url(#SVGID_00000081609824846916522160000005821540881004910467_);}
	.st57{fill:url(#SVGID_00000008862985438660222260000005953127896587441559_);}
	.st58{fill:url(#SVGID_00000168113267328643181010000010435493445214514340_);}
	.st59{fill:url(#SVGID_00000064317527440521681330000007120547754133440949_);}
	.st60{clip-path:url(#SVGID_00000011733628000581097870000001256946863594177205_);fill:#FFFFFF;}
	.st61{fill:none;stroke:#805AE4;stroke-miterlimit:10;}
	.st62{fill:url(#SVGID_00000130616941058740407590000006580604849803564727_);}
	.st63{fill:url(#SVGID_00000027591720318464095830000016260592308040765582_);}
	.st64{fill:url(#SVGID_00000088108005000820780380000010994116937420519335_);}
	.st65{fill:url(#SVGID_00000177456149826572584280000001779597170762508720_);}
	.st66{fill:url(#SVGID_00000043434927409423160920000014694019935225310350_);}
	.st67{fill:url(#SVGID_00000072267678332606702390000004601538373696731537_);}
	.st68{fill:url(#SVGID_00000180358131707220252530000006008456718356758207_);}
	.st69{fill:url(#SVGID_00000085945491947388466130000001259162941558690491_);}
	.st70{fill:url(#SVGID_00000057137595772223584440000018282532334072106380_);}
	.st71{fill:url(#SVGID_00000155851092133274621620000009156843646700325545_);}
	.st72{fill:url(#SVGID_00000110464482154771774020000011996564533931054473_);}
	.st73{fill:url(#SVGID_00000132804220524258102400000003595275835473179278_);}
	.st74{fill:#DDBB1B;}
	.st75{fill:#49CA80;}
	.st76{fill:#CF78C6;}
	.st77{fill:#BDACFF;}
	.st78{fill:#37368D;}
	.st79{fill:#E11E5E;}
	.st80{fill:#EB9F49;}
	.st81{fill:#FF6B6B;}
	.st82{fill:#38ABE6;}
	.st83{fill:url(#SVGID_00000155847192989832607210000017666117007653535619_);}
	.st84{fill:url(#SVGID_00000023274586487373729530000005153122383087064216_);}
	.st85{fill:url(#SVGID_00000067918397642005588770000001263238806173809550_);}
	.st86{fill:#E78A7E;}
	.st87{fill:#E69C78;}
	.st88{fill:#FF80E7;}
	.st89{fill:#E86480;}
	.st90{fill:url(#SVGID_00000137126167828940396430000011054909681405214083_);}
	.st91{fill:url(#SVGID_00000072967175191852519570000004490997533938266240_);}
	.st92{fill:url(#SVGID_00000020368028744207139430000015753336285434251175_);}
	.st93{fill:url(#SVGID_00000124870251006534090500000016385891078308380053_);}
	.st94{fill:url(#SVGID_00000027605078383639557960000017329032186785289131_);}
	.st95{fill:url(#SVGID_00000141421080117240186710000004658527797880153531_);}
	.st96{fill:url(#SVGID_00000065066555327967816350000007938009043192829587_);}
	.st97{fill:url(#SVGID_00000158709390020303371140000014674046116319800204_);}
	.st98{fill:url(#SVGID_00000146468110272823412850000000607736824842279825_);}
	.st99{fill:url(#SVGID_00000013879068447212140670000005781711073724960933_);}
	.st100{fill:url(#SVGID_00000092417025074732099590000012049695062129836465_);}
	.st101{fill:url(#SVGID_00000150817865735427646180000015203693892318300038_);}
	.st102{fill:url(#SVGID_00000037688276230051549930000012374150392867255205_);}
	.st103{fill:url(#SVGID_00000012455071428772095270000002263323268941830579_);}
	.st104{fill:url(#SVGID_00000065784194278158152470000012004569594104497299_);}
	.st105{fill:url(#SVGID_00000133495496886307273420000002667877385168462495_);}
	.st106{fill:url(#SVGID_00000006700582500892604350000014238191971083165841_);}
	.st107{fill:url(#SVGID_00000020368427059587378800000007118213225491925947_);}
	.st108{fill:url(#SVGID_00000067945707812591097680000015425559613431391626_);}
	.st109{fill:url(#SVGID_00000154414964249465183250000007629282693708212865_);}
	.st110{fill:url(#SVGID_00000087379957935137297000000006961593126937344174_);}
	.st111{fill:url(#SVGID_00000036966924226035745920000013534330971699871151_);}
	.st112{fill:url(#SVGID_00000016796872685297947200000017645386377687416493_);}
	.st113{fill:url(#SVGID_00000080195310313926249400000009935920708585145494_);}
	.st114{fill:url(#SVGID_00000067951541927742180420000015726214550560810156_);}
	.st115{fill:url(#SVGID_00000116198963768868344520000011140299421034752927_);}
	.st116{fill:url(#SVGID_00000151529183395005158540000004180570134513542579_);}
	.st117{fill:url(#SVGID_00000097501239806330686970000002812110782652335262_);}
	.st118{fill:url(#SVGID_00000132800608040605096710000008675313628972273560_);}
	.st119{fill:url(#SVGID_00000099652594218909705050000004479936616239271346_);}
	.st120{fill:url(#SVGID_00000072969856220107706850000012889547044862501539_);}
	.st121{fill:url(#SVGID_00000074401688153108652580000012449465684834587276_);}
	.st122{fill:url(#SVGID_00000005977857819725687030000007254986325591489701_);}
	.st123{fill:url(#SVGID_00000079462442367740710680000017449199224079761572_);}
	.st124{fill:url(#SVGID_00000019671123078362742790000003113889138838945945_);}
	.st125{fill:url(#SVGID_00000127035225440183542430000002548984932448960415_);}
	.st126{fill:url(#SVGID_00000163766298546517616160000001629388953223248800_);}
	.st127{fill:url(#SVGID_00000121273239653578548100000002979367971146319538_);}
	.st128{fill:url(#SVGID_00000116213404428346227760000003174429017862708651_);}
	.st129{fill:url(#SVGID_00000065794613823356555860000007092575543053540741_);}
	.st130{fill:url(#SVGID_00000003787274088722771880000016004448303474339003_);}
	.st131{fill:url(#SVGID_00000173850340853663008550000010707773208183886013_);}
	.st132{fill:url(#SVGID_00000016047887335548468430000010412906942933388179_);}
	.st133{fill:url(#SVGID_00000126295774742778903350000007761754153707225775_);}
	.st134{fill:url(#SVGID_00000060745710354598388820000014831072548583249070_);}
	.st135{fill:url(#SVGID_00000049925206623949107930000009427796219240368533_);}
	.st136{fill:url(#SVGID_00000179612144049871078860000004856970790940995724_);}
	.st137{fill:url(#SVGID_00000013170056847308118380000017612860966891032749_);}
	.st138{fill:url(#SVGID_00000042000686310777114300000001534028290633813396_);}
	.st139{fill:url(#SVGID_00000078751847838005604890000012418654935863719599_);}
	.st140{fill:url(#SVGID_00000000906051429650752560000000948164831534633901_);}
	.st141{fill:url(#SVGID_00000163067460630793462810000002078296429484263810_);}
	.st142{fill:url(#SVGID_00000003083126544190591510000008618062630455807360_);}
	.st143{fill:url(#SVGID_00000073686363907195245130000006003130647844017560_);}
	.st144{fill:url(#SVGID_00000077312165605872742660000016651100369470470801_);}
	.st145{fill:url(#SVGID_00000145027523930206630150000015542681985230628536_);}
	.st146{fill:url(#SVGID_00000150821906597959515320000007340433308742152841_);}
	.st147{fill:url(#SVGID_00000080897559671461460610000013630884382081894551_);}
	.st148{fill:url(#SVGID_00000138563559101810414590000013163804180632122552_);}
	.st149{fill:url(#SVGID_00000162323311854677554350000007720644084733101212_);}
	.st150{fill:url(#SVGID_00000168097987940929966150000002253329319753461648_);}
	.st151{fill:url(#SVGID_00000183212635070237554400000003341821179252178568_);}
	.st152{fill:url(#SVGID_00000006692049902756411610000006260304150355580043_);}
	.st153{fill:url(#SVGID_00000033345992779578317140000009904493643144216235_);}
	.st154{fill:url(#SVGID_00000152242622397447539440000001594312362678332555_);}
	.st155{fill:url(#SVGID_00000099658227384857054100000010029115270201338018_);}
	.st156{fill:url(#SVGID_00000017507061391767622920000017233992523635910320_);}
	.st157{fill:url(#SVGID_00000175324656066741384210000012624528476989866170_);}
	.st158{fill:url(#SVGID_00000121254780311162616010000008125694692517333920_);}
	.st159{fill:url(#SVGID_00000122719405629562584930000001228160659669985975_);}
	.st160{fill:url(#SVGID_00000148642905454798039310000016188248882586007460_);}
	.st161{fill:url(#SVGID_00000154403125002370868390000010933375891854088379_);}
	.st162{fill:url(#SVGID_00000157288858666132513620000018102771790599853209_);}
	.st163{fill:none;stroke:#090E38;stroke-width:2;stroke-miterlimit:10;}
	.st164{fill:#803CFF;}
	.st165{fill:none;stroke:#803CFF;stroke-miterlimit:10;}
	.st166{fill:#848698;}
	.st167{fill:url(#SVGID_00000161593451361187247240000003667262967618185355_);}
	.st168{fill:url(#SVGID_00000037666225078355086640000016540307032023162004_);}
	.st169{fill:url(#SVGID_00000075122608607134300650000015481225953595872187_);}
	.st170{fill:url(#SVGID_00000174573186403390088020000000950272587892843698_);}
	.st171{fill:url(#SVGID_00000026133142945419591680000013313249080621183134_);}
	.st172{fill:url(#SVGID_00000131342289632679801160000017811901044760746939_);}
	.st173{fill:url(#SVGID_00000041283909981848123860000015451559690912539809_);}
	.st174{fill:url(#SVGID_00000181080208999382929610000012955897586682600365_);}
	.st175{fill:#22274C;}
	.st176{fill:url(#SVGID_00000074403484620928388310000000732057669253789854_);}
	.st177{fill:url(#SVGID_00000152263335329762097580000015978510821238096565_);}
	.st178{fill:url(#SVGID_00000130649002354295881810000008410775696524060603_);}
	.st179{fill:url(#SVGID_00000126281932441952789810000006526609713996301461_);}
	.st180{fill:url(#SVGID_00000174597860219165800350000000058299233812154247_);}
	.st181{fill:url(#SVGID_00000148638044423311031500000016853524351103355579_);}
	.st182{fill:url(#SVGID_00000047765153069282331110000001373883650008545194_);}
	.st183{fill:url(#SVGID_00000054226468443564959470000002952111350495131529_);}
	.st184{fill:url(#SVGID_00000073699759059931928990000007015449225596145845_);}
	.st185{fill:url(#SVGID_00000072968602440754776850000010380200120666463888_);}
	.st186{fill:url(#SVGID_00000036959680897321115250000006873578742160076688_);}
	.st187{fill:url(#SVGID_00000140711129532135283060000010860317434018274994_);}
	.st188{fill:url(#SVGID_00000110436274253280269390000003210075810387199126_);}
	.st189{fill:url(#SVGID_00000087405664762253297340000006832183344978421427_);}
	.st190{fill:url(#SVGID_00000098934535987323204560000006315863702733553051_);}
	.st191{fill:url(#SVGID_00000163064993465220832030000004094609284052740000_);}
	.st192{fill:url(#SVGID_00000142861985900259787940000011751147669734184604_);}
	.st193{fill:url(#SVGID_00000010268636652206445900000010759887911406331017_);}
	.st194{fill:url(#SVGID_00000166647350237203641020000000216281246920386231_);}
	.st195{fill:url(#SVGID_00000039812098419548711910000007191312776916261529_);}
	.st196{fill:url(#SVGID_00000089535348763442583350000006850942662111689370_);}
	.st197{fill:url(#SVGID_00000129885806427640982090000012514363667222007738_);}
	.st198{fill:url(#SVGID_00000157991331165061996640000006900378705032541850_);}
	.st199{fill:url(#SVGID_00000049217900985417066400000015990537429892065471_);}
	.st200{fill:url(#SVGID_00000070836393263518611260000000455566150330238391_);}
	.st201{fill:url(#SVGID_00000115489869355054433110000000663113370326727614_);}
	.st202{fill:url(#SVGID_00000156553436434063514860000006448341577946834869_);}
	.st203{fill:url(#SVGID_00000092432568660311424850000003210858142924447377_);}
	.st204{fill:url(#SVGID_00000177447369019331718120000013758391533142538681_);}
	.st205{fill:url(#SVGID_00000072989640804083479670000017461765543469069700_);}
	.st206{fill:url(#SVGID_00000030474121904450238280000011256108383300878003_);}
	.st207{fill:url(#SVGID_00000003819843968304196250000002441225287008318113_);}
	.st208{fill:url(#SVGID_00000011027616373191518760000008033646936383262357_);}
	.st209{fill:url(#SVGID_00000036240735145449138780000005833352568021633464_);}
	.st210{fill:url(#SVGID_00000023274557728206633250000008684697124921377922_);}
	.st211{fill:url(#SVGID_00000165943427536453461420000006354031107459902888_);}
	.st212{fill:none;stroke:#FFFFFF;stroke-linecap:round;stroke-miterlimit:10;}
	.st213{fill:url(#SVGID_00000116199113156822531910000002987691869865229194_);}
	.st214{fill:url(#SVGID_00000146465986818429885770000011785297610154458810_);}
	.st215{fill:url(#SVGID_00000021840573075808404650000005064043370242908575_);}
	.st216{fill:url(#SVGID_00000182521379372047427300000003980791844126767011_);}
	.st217{fill:url(#SVGID_00000076601281652718936610000007276107913878176402_);}
	.st218{fill:url(#SVGID_00000077309518928367844230000014018419845996765859_);}
	.st219{fill:url(#SVGID_00000080906345235682192090000009282658371019091353_);}
	.st220{fill:url(#SVGID_00000183209714561442517460000008826883329225781382_);}
	.st221{fill:url(#SVGID_00000172442274380225593200000013046079281421474730_);}
	.st222{fill:url(#SVGID_00000027606865269455039730000012285771920495800740_);}
	.st223{fill:url(#SVGID_00000004505611630867619180000017580990577967538598_);}
	.st224{fill:url(#SVGID_00000141428270402391336050000015220894419362290608_);}
	.st225{fill:url(#SVGID_00000039098179708275954860000003591177768146280598_);}
	.st226{fill:url(#SVGID_00000096022906864512513390000002638804798203141021_);}
	.st227{fill:url(#SVGID_00000109725986455321055010000001155469320911681419_);}
	.st228{fill:url(#SVGID_00000109029307961353995540000010210367889328755889_);}
	.st229{fill:url(#SVGID_00000020391457732149832860000013376232366905125287_);}
	.st230{fill:url(#SVGID_00000063621539012464822710000006769089287364724891_);}
	.st231{fill:url(#SVGID_00000008865400164312991620000012232483634630786718_);}
	.st232{fill:url(#SVGID_00000052093044639371691710000012303789670124915085_);}
	.st233{fill:url(#SVGID_00000180360040001045285290000012276376447519074735_);}
	.st234{fill:none;stroke:#22274C;stroke-width:0.5;stroke-miterlimit:10;}
	.st235{fill:url(#SVGID_00000082355285619215496750000014825094639284638140_);}
	.st236{fill:none;stroke:#22274C;stroke-miterlimit:10;}
	.st237{fill:url(#SVGID_00000103985012010967287070000014730283491764991394_);}
	.st238{fill:url(#SVGID_00000097494391118225628160000003120664402606179238_);}
	.st239{fill:url(#SVGID_00000026156442633749677110000000318409331137925557_);}
	.st240{fill:url(#SVGID_00000149343920707452117830000002867971679450609338_);}
	.st241{fill:url(#SVGID_00000165923944278807722500000016576581550252054457_);}
	.st242{fill:url(#SVGID_00000131337082976583283170000010239661320871104152_);}
	.st243{fill:url(#SVGID_00000055667562363645950020000004498554225479732381_);}
	.st244{fill:url(#SVGID_00000067199967090750540330000013233504121799809952_);}
	.st245{fill:url(#SVGID_00000120525255107461535380000008969956634017775761_);}
	.st246{fill:url(#SVGID_00000060744336759092344050000003291743186095344058_);}
	.st247{fill:url(#SVGID_00000117641603142616034730000000078027010241282457_);}
	.st248{fill:url(#SVGID_00000183214095172213259310000006480528412881968019_);}
	.st249{fill:none;stroke:#E11E5E;stroke-miterlimit:10;}
	.st250{fill:url(#SVGID_00000133526785704860611560000002413437935382101409_);}
	.st251{fill:url(#SVGID_00000158019216221044413040000013608636394298332820_);}
	.st252{fill:url(#SVGID_00000139984147750479091160000009651586892569727360_);}
	.st253{fill:url(#SVGID_00000160149959220703029380000012863622078813620887_);}
	.st254{fill:url(#SVGID_00000034075547948794307960000007935251784125801143_);}
	.st255{fill:url(#SVGID_00000033361284422806817920000012736515203289042582_);}
	.st256{fill:url(#SVGID_00000119082613345784970950000011307759131706114747_);}
	.st257{fill:url(#SVGID_00000178897927240619499510000001224588136419306681_);}
	.st258{fill:url(#SVGID_00000080206403326791177250000016445235031772662176_);}
	.st259{fill:url(#SVGID_00000152237045757020678130000012521397836992246704_);}
	.st260{fill:url(#SVGID_00000046327531285233874550000014473691553103072143_);}
	.st261{fill:url(#SVGID_00000056406233831571786330000013724579121289069470_);}
	.st262{fill:url(#SVGID_00000132794937791686502490000008758811003356215461_);}
	.st263{fill:url(#SVGID_00000084513823188166427550000014609829317794313364_);}
	.st264{fill:url(#SVGID_00000117668943781133019900000006400334211138456975_);}
	.st265{fill:url(#SVGID_00000049935288564210726560000010203570577332700854_);}
	.st266{fill:url(#SVGID_00000063604990046155434750000012884523192388949666_);}
	.st267{fill:url(#SVGID_00000073696802920627063990000009427552860533614770_);}
	.st268{fill:url(#SVGID_00000026130977854571320420000000351430972146824848_);}
	.st269{fill:url(#SVGID_00000084488089120654561880000017808006003943317668_);}
	.st270{fill:url(#SVGID_00000023258102967236949550000000686832011943622274_);}
	.st271{fill:url(#SVGID_00000000193581993992467390000002531133919522437019_);}
	.st272{fill:url(#SVGID_00000160873170653987054620000008954913689692358560_);}
	.st273{fill:none;stroke:#FFFFFF;stroke-width:0.75;stroke-miterlimit:10;}
	.st274{fill:none;stroke:#FFFFFF;stroke-width:0.75;stroke-linecap:round;stroke-miterlimit:10;}
	.st275{fill-rule:evenodd;clip-rule:evenodd;fill:none;stroke:#FFFFFF;stroke-width:0.5;stroke-miterlimit:10;}
	
		.st276{fill-rule:evenodd;clip-rule:evenodd;fill:none;stroke:#FFFFFF;stroke-width:0.5;stroke-linecap:round;stroke-miterlimit:10;}
	.st277{fill:url(#SVGID_00000105386651774455024690000009922691048982388907_);}
	.st278{fill:url(#SVGID_00000112608392627783780910000003067141909133221803_);}
	.st279{fill:url(#SVGID_00000113331160694335996850000015222863966614901147_);}
	.st280{fill:url(#SVGID_00000134240678300543467290000009696971449207016102_);}
	.st281{fill:url(#SVGID_00000104686428107003601480000000433150826547532969_);}
	.st282{fill:url(#SVGID_00000045577503582725592450000006019764072021477274_);}
	.st283{fill:url(#SVGID_00000026849891961985382210000018307725612293143974_);}
	.st284{fill:url(#SVGID_00000052820429141449308790000016595461493956454278_);}
	.st285{fill:url(#SVGID_00000160189527564680223140000014104712567899778733_);}
	.st286{fill:url(#SVGID_00000083810941626819352750000003691244772482580133_);}
	.st287{fill:url(#SVGID_00000127733720043385823800000006818569590313133199_);}
	.st288{fill:url(#SVGID_00000053507626350037457370000008414746285134268607_);}
	.st289{fill:url(#SVGID_00000147211756955787451460000001298498872026723741_);}
	.st290{fill:url(#SVGID_00000088832342085785937180000002639856820167158928_);}
	.st291{fill:url(#SVGID_00000138541826398010857850000004739667803770169999_);}
	.st292{fill:url(#SVGID_00000161606646149470301380000009593206616024667560_);}
	.st293{fill:url(#SVGID_00000082364424411677664370000011038897058925693594_);}
	.st294{fill:url(#SVGID_00000142165440655217354730000010344600950297608116_);}
	.st295{fill:url(#SVGID_00000063595843215384323010000015503329825788574097_);}
	.st296{fill:url(#SVGID_00000072975785141968303760000016290034849740948374_);}
	.st297{fill:url(#SVGID_00000059283094955580031000000007362723478393986439_);}
	.st298{fill:url(#SVGID_00000179612201814007893840000001111037703172614330_);}
	.st299{fill:url(#SVGID_00000019670569820654162270000004371534860171165374_);}
	.st300{fill:url(#SVGID_00000034058635971167857630000009211383329599049620_);}
	.st301{fill:url(#SVGID_00000068659992638660959960000004718919495478207920_);}
	.st302{clip-path:url(#SVGID_00000158731880577445489180000005211877215528983983_);fill:#22264C;}
	.st303{clip-path:url(#SVGID_00000075146512044609617340000004794147959969184157_);fill:#FFFFFF;}
	.st304{clip-path:url(#SVGID_00000166651497925730630080000004890215975019785883_);fill:#FFFFFF;}
	.st305{clip-path:url(#SVGID_00000036217884694854964770000001341304852036400816_);fill:#FFFFFF;}
	.st306{clip-path:url(#SVGID_00000011012824735182663320000007237753904975796913_);fill:#FFFFFF;}
	.st307{clip-path:url(#SVGID_00000029033841398485959500000018444953462796349057_);fill:#FFFFFF;}
	.st308{clip-path:url(#SVGID_00000023272552372555767130000013409553280048365990_);fill:#FFFFFF;}
	.st309{clip-path:url(#SVGID_00000134217515189599696770000012465648321017118853_);fill:#FFFFFF;}
	.st310{clip-path:url(#SVGID_00000172403919082251794350000017692561309157784477_);fill:#FFFFFF;}
	.st311{clip-path:url(#SVGID_00000099635942405033294000000009215700332608489106_);fill:#FFFFFF;}
	.st312{clip-path:url(#SVGID_00000015320463663964116760000009926274194305141689_);fill:#FFFFFF;}
	.st313{clip-path:url(#SVGID_00000006700142016522686150000015455819619910444457_);fill:#FFFFFF;}
	.st314{fill:url(#SVGID_00000124131540150586670940000011455789893027495330_);}
	.st315{fill:url(#SVGID_00000004536628843624963090000014746311997403804808_);}
	.st316{fill:url(#SVGID_00000155134362913513114690000009448193827721384326_);}
	.st317{fill:url(#SVGID_00000150784960331120949690000012578500301554380698_);}
	.st318{fill:url(#SVGID_00000101102713206255275840000009773966114221034938_);}
	.st319{fill:url(#SVGID_00000008869282310072713920000002593840490968220837_);}
	.st320{fill:url(#SVGID_00000021101694740391107420000016686700202452104068_);}
	.st321{fill:url(#SVGID_00000001621901628854912350000013075418159994971062_);}
	.st322{fill:url(#SVGID_00000093866516316804407240000006094497597748566703_);}
	.st323{fill:url(#SVGID_00000010994604792429815440000002668389447342671026_);}
	.st324{fill:url(#SVGID_00000117636812432834392440000007229578314137264281_);}
	.st325{fill:url(#SVGID_00000108294123161364515790000000354787794111310726_);}
	.st326{fill:url(#SVGID_00000008117336841816453040000013745015814758101901_);}
	.st327{fill:url(#SVGID_00000036933581158400999400000017735092606396451759_);}
	.st328{fill:url(#SVGID_00000173155782131801582320000003024943906903976890_);}
	.st329{fill:url(#SVGID_00000163049013654852039760000012876731030156593033_);}
	.st330{fill:url(#SVGID_00000125578855588374008610000002623222029679246514_);}
	.st331{fill:url(#SVGID_00000021086173482722791400000013585622743430103687_);}
	.st332{fill:url(#SVGID_00000169552058613140623050000010135013589074945722_);}
	.st333{fill:url(#SVGID_00000148658951590170791650000017707949266554170552_);}
	.st334{fill:url(#SVGID_00000078733934481117077710000014739504779088083887_);}
	.st335{fill:url(#SVGID_00000163768432813111938090000000796995080108984994_);}
	.st336{fill:url(#SVGID_00000039102157693944439020000015507986348386190265_);}
	.st337{fill:url(#SVGID_00000127041892683048065500000014759374891331140268_);}
	.st338{fill:url(#SVGID_00000092438428700084985950000005733471024508328832_);}
	.st339{fill:url(#SVGID_00000106854789439657866080000008001757214681566896_);}
	.st340{fill:url(#SVGID_00000135683338827133638580000011041602550594732988_);}
	.st341{fill:url(#SVGID_00000179624619007629775690000016585116583729327277_);}
	.st342{fill:url(#SVGID_00000111176965009380939040000005203486260217739434_);}
	.st343{fill:url(#SVGID_00000023988308338345444730000004149285742488926878_);}
	.st344{fill:url(#SVGID_00000095328715740259757390000003776513981903867035_);}
	.st345{fill:url(#SVGID_00000110461294723756154470000011351004318166937752_);}
	.st346{fill:url(#SVGID_00000134943163234113544040000016461430929875233164_);}
	.st347{fill:url(#SVGID_00000159450693154882113920000009075156367346096545_);}
	.st348{fill:url(#SVGID_00000029036216285427071450000002136619346916536449_);}
	.st349{fill:url(#SVGID_00000012474206667631585720000011399706493293760133_);}
	.st350{fill:url(#SVGID_00000083058140365966221520000002743934470139124923_);}
	.st351{fill:url(#SVGID_00000009562992875563961590000002915730867256450235_);}
	.st352{fill:url(#SVGID_00000120516861457959103990000010679108168783520662_);}
	.st353{fill:url(#SVGID_00000079477708222603154250000012906967522203232141_);}
	.st354{fill:#8A8989;}
	.st355{fill:#616160;}
	.st356{fill-rule:evenodd;clip-rule:evenodd;fill:#FFFFFF;}
	.st357{fill-rule:evenodd;clip-rule:evenodd;fill:#8A8989;}
	.st358{fill-rule:evenodd;clip-rule:evenodd;fill:#797879;}
	.st359{clip-path:url(#XMLID_00000056392611433485334580000015171768106720458136_);}
	.st360{opacity:0.2;fill:#E1E3E7;}
	.st361{fill-rule:evenodd;clip-rule:evenodd;fill:#616160;}
	.st362{fill:#E1E3E7;}
	.st363{fill:#FFFFFF;stroke:#FFFFFF;stroke-width:4;stroke-miterlimit:10;}
	.st364{fill:#58595B;}
	.st365{fill:#80A926;}
	.st366{clip-path:url(#SVGID_00000047055743892768772150000015332830615374989994_);}
	.st367{clip-path:url(#SVGID_00000075130727943046778360000004871769801113737898_);}
	.st368{clip-path:url(#SVGID_00000147185273732889728290000011358960183094866878_);}
	.st369{clip-path:url(#SVGID_00000181806452815439283150000017739043292320877986_);}
	.st370{clip-path:url(#SVGID_00000027603995048000227840000010911989427118563506_);}
	.st371{clip-path:url(#SVGID_00000050661223607103384220000002623602508494087334_);}
	.st372{clip-path:url(#SVGID_00000079482783429879191600000003329942584259701923_);}
	.st373{clip-path:url(#SVGID_00000069369343345295967930000001243934414042346904_);}
	.st374{clip-path:url(#SVGID_00000108274332266065656240000011580646247377158545_);}
	.st375{clip-path:url(#SVGID_00000035500007821146392190000005440281135801689221_);}
	.st376{fill:#1D1E1C;}
	.st377{opacity:0.36;}
	.st378{opacity:0.57;}
	.st379{fill:none;}
	.st380{fill:#01CEA6;}
	.st381{fill:#01261F;}
	.st382{fill:#E68000;}
	.st383{fill:#261400;}
	.st384{fill:#E63D80;}
	.st385{fill:#2D0013;}
	.st386{fill:#3695BB;}
	.st387{fill:#032732;}
	.st388{fill:#CDE4EC;}
	.st389{fill:#DA80E7;}
	.st390{fill:#B072BD;}
	.st391{fill:#855994;}
	.st392{fill:#180024;}
	.st393{fill:#DD80EA;}
	.st394{fill:#BB80E7;}
	.st395{fill:#9B77C0;}
	.st396{fill:#C080ED;}
	.st397{fill:#1F0140;}
	.st398{fill:#80619A;}
	.st399{fill:url(#SVGID_00000111875969086405839880000010072938478501019799_);}
	.st400{fill:url(#SVGID_00000109719003914633694050000006348872000388113306_);}
	.st401{fill:url(#SVGID_00000014594004508614184190000002451060099351931280_);}
	.st402{fill:url(#SVGID_00000107562396567651654320000015613333212652975237_);}
	.st403{fill:url(#SVGID_00000141435522013077438950000000177067356263376804_);}
	.st404{fill:url(#SVGID_00000031916269278544263800000017829658785813790596_);}
	.st405{fill:url(#SVGID_00000155105918899851906490000006342013504650068663_);}
	.st406{fill:url(#SVGID_00000131329968911079165320000001804269009282576291_);}
	.st407{fill:url(#SVGID_00000152237884014304167240000017515073932073835704_);}
	.st408{fill:url(#SVGID_00000029021852927759044110000007004270386081704360_);}
	.st409{fill:url(#SVGID_00000085945613636149691070000014930582540983126155_);}
	.st410{fill:url(#SVGID_00000177458918166102688140000013673328900287632271_);}
	.st411{fill:none;stroke:#464A69;stroke-miterlimit:10;}
	.st412{fill:url(#SVGID_00000035529686056494671300000017384581446774077102_);}
	.st413{fill:url(#SVGID_00000028316365597286652300000008643072986769769356_);}
	.st414{fill:url(#SVGID_00000138544947562327661770000002511467271180612281_);}
	.st415{fill:url(#SVGID_00000121971070224714501430000011349444268288223115_);}
	.st416{fill:url(#SVGID_00000092452972764784908100000003844431956849392049_);}
	.st417{fill:url(#SVGID_00000129184277397271614410000005944169097536893056_);}
	.st418{fill:url(#SVGID_00000147181094682330384440000016767524424418529427_);}
	.st419{fill:url(#SVGID_00000094591071136551363790000005491279898250888851_);}
	.st420{fill:url(#SVGID_00000062154299709733090350000006311971330906428092_);}
	.st421{fill:url(#SVGID_00000180363293293921362240000003202438488670251921_);}
	.st422{fill:url(#SVGID_00000166654465379380478720000007351336190977325966_);}
	.st423{fill:url(#SVGID_00000173145679704258266060000005328682278606089663_);}
	.st424{fill:url(#SVGID_00000123404972467005277890000003258079424811307144_);}
	.st425{fill:url(#SVGID_00000168079066745913147360000005276827092771216007_);}
	.st426{fill:none;stroke:#22274C;stroke-width:0.75;stroke-miterlimit:10;}
	.st427{fill:none;stroke:#FFFFFF;stroke-width:2;stroke-miterlimit:10;}
	.st428{fill:url(#SVGID_00000137123090589700091070000002251160218749003165_);}
	.st429{fill:url(#SVGID_00000024686261320621113630000002548269103402475700_);}
	.st430{fill:url(#SVGID_00000007410695541377331870000017804232857761276310_);}
	.st431{fill:url(#SVGID_00000034081302542742507160000002493978752156286900_);}
	.st432{fill:url(#SVGID_00000046305589675234745190000003885249129384047238_);}
	.st433{fill:url(#SVGID_00000002349777709570315020000008152824308756078996_);}
	.st434{fill:url(#SVGID_00000139261023845588816670000007574291764514992043_);}
	.st435{fill:url(#SVGID_00000164472577459789431240000014689450298979713686_);}
	.st436{fill:url(#SVGID_00000010298796191901269000000013149843097551608991_);}
	.st437{fill:url(#SVGID_00000047742361972036604740000004097214838466832259_);}
	.st438{fill:url(#SVGID_00000039122104982600483130000006895816685440222601_);}
	.st439{fill:url(#SVGID_00000103253733280183795320000008140500122326320268_);}
	.st440{fill:url(#SVGID_00000163056454468480790090000013792434662857677482_);}
	.st441{fill:url(#SVGID_00000112595611957260353740000007453273340484522892_);}
	.st442{fill:url(#SVGID_00000021829849460400830670000003177185941736788410_);}
	.st443{fill:url(#SVGID_00000147185948825970445700000014705151357168508049_);}
	.st444{fill:url(#SVGID_00000045596611361978128570000002778991837776942486_);}
	.st445{fill:url(#SVGID_00000146472019530097642670000010622348999037545393_);}
	.st446{fill:url(#SVGID_00000052795645218196136370000009476065581184830870_);}
	.st447{fill:url(#SVGID_00000100348346386400142380000003213912212782249603_);}
	.st448{fill:url(#SVGID_00000119110776455951907030000014482294075940039316_);}
	.st449{fill:url(#SVGID_00000057845636309672703610000016197950428525765307_);}
	.st450{fill:url(#SVGID_00000183941782875977783220000017006801922726978971_);}
	.st451{fill:url(#SVGID_00000165218345059893290410000003578023446959384736_);}
	.st452{fill:url(#SVGID_00000022518971900462759510000001755663039601924793_);}
	.st453{fill:url(#SVGID_00000083789806386428618730000018361926169418896025_);}
	.st454{fill:url(#SVGID_00000088116046618341067360000010601884266328935337_);}
	.st455{fill:none;stroke:#8F8F8F;stroke-width:0.75;stroke-miterlimit:10;}
	.st456{fill:#8F8F8F;stroke:#8F8F8F;stroke-width:0.25;stroke-miterlimit:10;}
	.st457{fill:#8F8F8F;}
	.st458{fill:none;stroke:#8F8F8F;stroke-width:0.25;stroke-miterlimit:10;}
	.st459{fill:url(#SVGID_00000140016759264210713400000007476081378916318354_);}
	.st460{fill:url(#SVGID_00000168100059513234254190000003892371815520752778_);}
	.st461{fill:url(#SVGID_00000039836627662222378010000009293334990787100844_);}
	.st462{fill:url(#SVGID_00000174563984688780822530000004828250438808922808_);}
	.st463{fill:url(#SVGID_00000032641910908361799940000000575804405428225415_);}
	.st464{fill:url(#SVGID_00000172432042966952521810000001068289505862556845_);}
	.st465{fill:url(#SVGID_00000015321820483627585230000015491576772483400081_);}
	.st466{fill:url(#SVGID_00000055684670851081627630000013154994021958437796_);}
	.st467{fill:url(#SVGID_00000170989952542178883470000006655002621185583274_);}
	.st468{fill:url(#SVGID_00000107548080105123146110000017060974403674948248_);}
</style>
<g>
	<path class="st5" d="M13.13,6.42c0,0.05,0,0.11,0,0.16c0,2.31,0,4.61,0,6.92c0,0.16,0.03,0.21,0.2,0.2c0.62-0.01,1.24,0,1.87,0
		c0.49,0,0.7,0.2,0.69,0.68c-0.01,0.55,0.04,1.11-0.03,1.66c-0.12,0.81-0.71,1.45-1.46,1.59c-0.13,0.02-0.27,0.02-0.4,0.02
		c-3.09,0-6.18-0.02-9.28,0.01c-1.21,0.01-1.91-0.91-1.96-1.88c0-0.09,0-0.18,0-0.27c0-3.1,0-6.2,0-9.29C2.76,6.04,2.71,6,2.53,6
		c-0.63,0.01-1.26,0.01-1.88,0C0.21,6,0,5.79,0,5.35c0-0.49,0-0.99,0-1.48c0-1.1,0.72-1.82,1.82-1.82c2.52,0,5.04,0,7.56,0
		c0.15,0,0.23-0.03,0.3-0.18c0.15-0.37,0.46-0.56,0.86-0.58c0.27-0.01,0.33-0.07,0.34-0.34c0.02-0.41,0.22-0.71,0.59-0.87
		c0.38-0.16,0.73-0.1,1.04,0.17c0.24,0.21,0.28,0.21,0.52,0c0.3-0.26,0.65-0.32,1.02-0.17c0.37,0.15,0.57,0.44,0.6,0.84
		c0.02,0.31,0.06,0.34,0.37,0.37c0.4,0.03,0.69,0.23,0.85,0.6c0.16,0.37,0.09,0.72-0.17,1.02c-0.21,0.24-0.21,0.28,0,0.52
		c0.27,0.31,0.33,0.66,0.17,1.04c-0.16,0.38-0.46,0.57-0.87,0.59c-0.27,0.01-0.29,0.05-0.16,0.29c0.15,0.26,0.36,0.44,0.61,0.59
		c0.25,0.15,0.5,0.29,0.74,0.44c0.18,0.11,0.25,0.26,0.21,0.43c-0.04,0.17-0.18,0.27-0.4,0.28c-0.31,0.01-0.31,0.01-0.17,0.28
		c0.15,0.29,0.16,0.45,0.02,0.58c-0.19,0.17-0.39,0.09-0.58,0c-0.34-0.17-0.67-0.35-1-0.53C13.82,7.16,13.45,6.84,13.13,6.42z
		 M3.17,2.79c0.3,0.43,0.32,0.88,0.32,1.34c-0.01,2.77,0,5.54,0,8.31c0,1.07,0,2.13,0,3.2c0,0.36,0.09,0.69,0.33,0.96
		c0.38,0.43,0.96,0.44,1.35,0.02c0.25-0.27,0.34-0.6,0.34-0.96c0-0.41,0-0.83,0-1.24c0-0.52,0.19-0.71,0.7-0.71c2,0,4,0,6,0
		c0.15,0,0.19-0.04,0.19-0.19c0-2.32,0-4.63,0-6.95c0-0.05,0.03-0.11-0.04-0.16c-0.5,0.82-1.36,1.16-2.15,1.57
		c-0.05,0.03-0.1,0.04-0.15,0.05C9.9,8.05,9.76,8.04,9.66,7.9c-0.1-0.13-0.09-0.27-0.02-0.41C9.66,7.45,9.68,7.4,9.7,7.36
		c0.14-0.27,0.14-0.27-0.17-0.28c-0.22-0.01-0.35-0.1-0.4-0.28C9.09,6.63,9.16,6.49,9.34,6.37c0.25-0.15,0.5-0.3,0.76-0.45
		c0.24-0.15,0.46-0.33,0.6-0.58c0.14-0.24,0.12-0.27-0.15-0.28c-0.42-0.02-0.72-0.22-0.88-0.6C9.51,4.08,9.57,3.73,9.85,3.43
		c0.09-0.1,0.18-0.18,0.12-0.33C9.9,2.92,9.71,2.79,9.55,2.79c-2.05,0-4.1,0-6.15,0C3.34,2.79,3.28,2.79,3.17,2.79z M5.86,16.91
		c0.05,0.01,0.07,0.01,0.09,0.01c2.74,0,5.47,0,8.21,0c0.16,0,0.31-0.05,0.45-0.14c0.29-0.19,0.45-0.46,0.51-0.79
		c0.08-0.44,0.01-0.89,0.04-1.33c0.01-0.18-0.03-0.23-0.22-0.23c-2.22,0.01-4.44,0.01-6.66,0.01c-0.63,0-1.26,0-1.88,0
		c-0.12,0-0.16,0.04-0.16,0.16c0.01,0.23,0,0.45,0,0.68C6.26,15.84,6.23,16.4,5.86,16.91z M15.21,2.27
		c-0.01-0.14-0.11-0.24-0.29-0.24c-0.6-0.02-0.98-0.39-1-0.99c-0.01-0.13-0.03-0.23-0.16-0.28c-0.13-0.05-0.22,0.01-0.31,0.1
		c-0.41,0.39-0.96,0.39-1.38,0c-0.1-0.09-0.19-0.15-0.32-0.09c-0.12,0.06-0.14,0.16-0.15,0.29c-0.01,0.55-0.42,0.96-0.96,0.97
		c-0.13,0-0.25,0.02-0.3,0.15c-0.06,0.13,0.01,0.23,0.1,0.32c0.38,0.41,0.38,0.96,0,1.37c-0.09,0.1-0.15,0.19-0.1,0.32
		c0.05,0.13,0.16,0.14,0.29,0.15c0.56,0.02,0.96,0.42,0.98,0.98c0,0.13,0.03,0.23,0.15,0.29c0.12,0.05,0.22,0,0.31-0.08
		c0.44-0.4,0.96-0.4,1.41,0.01c0.09,0.08,0.18,0.12,0.3,0.08c0.12-0.05,0.15-0.14,0.15-0.27c0.03-0.61,0.4-0.97,1.01-1
		c0.12-0.01,0.21-0.04,0.26-0.16c0.04-0.11,0-0.2-0.07-0.28c-0.42-0.47-0.42-0.95,0.01-1.43C15.18,2.4,15.21,2.34,15.21,2.27z
		 M1.74,5.27c0.29,0,0.58,0,0.88,0c0.1,0,0.14-0.03,0.14-0.13C2.75,4.67,2.76,4.19,2.75,3.72C2.73,3.18,2.28,2.78,1.73,2.79
		c-0.54,0-0.98,0.41-0.99,0.94c-0.01,0.47,0,0.94-0.01,1.41c0,0.12,0.04,0.14,0.15,0.14C1.17,5.27,1.45,5.27,1.74,5.27z M14.83,6.89
		c-0.02-0.14-0.03-0.27,0.05-0.37c0.02-0.03,0.02-0.05-0.01-0.08c-0.15-0.13-0.29-0.28-0.46-0.37c-0.05-0.03-0.19,0.12-0.29,0.18
		c-0.01,0-0.01,0.01-0.02,0.01c-0.08,0.03-0.08,0.06-0.02,0.12C14.3,6.58,14.54,6.74,14.83,6.89z M10.69,6.89
		c0.25-0.12,0.46-0.26,0.65-0.43c0.17-0.15,0.17-0.15-0.02-0.27c-0.05-0.03-0.09-0.06-0.13-0.1c-0.05-0.06-0.09-0.06-0.15,0
		c-0.1,0.12-0.23,0.22-0.36,0.31c-0.04,0.03-0.08,0.05-0.04,0.11C10.73,6.63,10.73,6.75,10.69,6.89z"/>
	<path class="st5" d="M7.94,10.64c-1.15,0-2.3,0-3.46,0c-0.07,0-0.15,0-0.22-0.01c-0.17-0.03-0.29-0.17-0.3-0.34
		c-0.01-0.16,0.1-0.32,0.26-0.36C4.29,9.91,4.37,9.9,4.45,9.9c2.33,0,4.66,0,6.99,0c0.05,0,0.11,0,0.16,0.01
		c0.19,0.03,0.32,0.18,0.32,0.36c0,0.19-0.15,0.34-0.35,0.36c-0.17,0.01-0.34,0-0.51,0.01C10.02,10.64,8.98,10.64,7.94,10.64z"/>
	<path class="st5" d="M7.95,11.85c-1.16,0-2.32,0-3.48,0c-0.34,0-0.51-0.12-0.51-0.36c0-0.24,0.17-0.37,0.5-0.37
		c2.32,0,4.63,0,6.95,0c0.33,0,0.51,0.13,0.51,0.36c0,0.24-0.17,0.37-0.51,0.37C10.26,11.85,9.1,11.85,7.95,11.85z"/>
	<path class="st5" d="M6.25,9.42c-0.62,0-1.23,0-1.85,0c-0.27,0-0.44-0.13-0.44-0.36c0-0.22,0.17-0.38,0.45-0.38
		c1.24,0,2.49,0,3.73,0c0.27,0,0.43,0.14,0.43,0.37c0,0.22-0.16,0.36-0.43,0.36C7.5,9.43,6.88,9.42,6.25,9.42z"/>
	<path class="st5" d="M6.14,5.24c0.6,0,1.19,0,1.79,0c0.16,0,0.27,0.07,0.34,0.21c0.07,0.13,0.05,0.26-0.04,0.38
		C8.15,5.93,8.04,5.97,7.91,5.97c-1.18,0-2.36,0-3.55,0c-0.24,0-0.41-0.17-0.4-0.38c0.01-0.21,0.17-0.35,0.41-0.35
		C4.96,5.24,5.55,5.24,6.14,5.24z"/>
	<path class="st5" d="M5.54,4.06c0.38,0,0.76,0,1.13,0c0.26,0,0.42,0.13,0.43,0.35c0.01,0.22-0.16,0.38-0.42,0.38
		c-0.77,0-1.54,0-2.3,0c-0.25,0-0.42-0.15-0.42-0.37c0-0.21,0.16-0.36,0.41-0.36C4.76,4.06,5.15,4.06,5.54,4.06z"/>
	<path class="st5" d="M5.54,12.33c0.38,0,0.76,0,1.13,0c0.26,0,0.42,0.14,0.43,0.35c0.01,0.22-0.16,0.38-0.42,0.38
		c-0.77,0-1.54,0-2.3,0c-0.25,0-0.42-0.15-0.42-0.36c0-0.21,0.16-0.36,0.41-0.36C4.76,12.32,5.15,12.33,5.54,12.33z"/>
	<path class="st5" d="M12.77,1.57c0.91,0.01,1.65,0.73,1.64,1.62c-0.01,0.89-0.76,1.61-1.65,1.61c-0.91-0.01-1.64-0.73-1.63-1.62
		C11.13,2.28,11.86,1.57,12.77,1.57z M12.76,2.3c-0.51,0-0.91,0.39-0.9,0.88c0,0.49,0.41,0.88,0.91,0.88c0.5,0,0.91-0.41,0.91-0.89
		C13.68,2.69,13.26,2.3,12.76,2.3z"/>
</g>
</svg>
