<?xml version="1.0" encoding="utf-8"?>
<!-- Generator: Adobe Illustrator 27.0.0, SVG Export Plug-In . SVG Version: 6.00 Build 0)  -->
<svg version="1.1" id="Capa_1" xmlns="http://www.w3.org/2000/svg" xmlns:xlink="http://www.w3.org/1999/xlink" x="0px" y="0px"
	 viewBox="0 0 141.42 142.01" style="enable-background:new 0 0 141.42 142.01;" xml:space="preserve">
<style type="text/css">
	.st0{fill:#090E38;}
	.st1{fill:url(#SVGID_1_);}
	.st2{fill:#161A42;}
	.st3{fill:url(#SVGID_00000119079804514783249130000013581002059618433678_);}
	.st4{fill:url(#SVGID_00000094611526266369926980000014442208502960598947_);}
	.st5{fill:#FFFFFF;}
	.st6{fill:#E9E9EB;}
	.st7{fill:#2280C3;}
	.st8{fill:#263A6B;}
	.st9{fill:#13183B;}
	.st10{fill:#EBEBFF;}
	.st11{fill:#15336C;}
	.st12{fill:#121D3E;}
	.st13{fill:#D8CE9E;}
	.st14{fill:#5F485A;}
	.st15{fill:#17316F;}
	.st16{fill:#0A1C4F;}
	.st17{fill:#1E1A55;}
	.st18{fill:#12193B;}
	.st19{fill:#D8CD9C;}
	.st20{fill:#544A55;}
	.st21{fill:#E0E1E3;}
	.st22{fill:#15193A;}
	.st23{fill:#D6CC89;}
	.st24{fill:#434642;}
	.st25{fill:#131543;}
	.st26{fill:#3E3B38;}
	.st27{fill:#181940;}
	.st28{fill:#D7CE9D;}
	.st29{fill:#806D64;}
	.st30{opacity:0.7;fill:#6FC4D8;}
	.st31{fill:#805AE4;}
	.st32{fill:#ECB40A;}
	.st33{fill:#10B78E;}
	.st34{fill:url(#SVGID_00000020397957538018270790000006446262359265549492_);}
	.st35{fill:url(#SVGID_00000020380087229651925800000005671472586161490560_);}
	.st36{fill:url(#SVGID_00000083811236123986159510000007064303376102446749_);}
	.st37{fill:url(#SVGID_00000091731739030970571010000012695317007846413496_);}
	.st38{fill:url(#SVGID_00000111173341822715178590000012112365809589337486_);}
	.st39{fill:url(#SVGID_00000134232275429572094060000013082823678022045619_);}
	.st40{fill:url(#SVGID_00000047771551921484221510000014679968419742448311_);}
	.st41{fill:url(#SVGID_00000019654602863381826190000004112754639918703786_);}
	.st42{fill:url(#SVGID_00000124872476798455127110000010076751837068368257_);}
	.st43{fill:url(#SVGID_00000025416130788464357130000005190509049520705686_);}
	.st44{fill:url(#SVGID_00000072257117848782120220000001460122060664962486_);}
	.st45{fill:url(#SVGID_00000025438666113124319550000006087586215116646838_);}
	.st46{fill:url(#SVGID_00000183927933763773999580000006432305353107429781_);}
	.st47{fill:url(#SVGID_00000034091403449079252870000007171295015833098427_);}
	.st48{fill:url(#SVGID_00000168808678445855700140000009589562724806864265_);}
	.st49{fill:url(#SVGID_00000048459604443353255240000013215078131160810422_);}
	.st50{fill:url(#SVGID_00000032616506186535377400000006705118317607155634_);}
	.st51{fill:url(#SVGID_00000062908172275168355010000007909716256006065307_);}
	.st52{fill:url(#SVGID_00000017514420039460095710000018350740098077752987_);}
	.st53{fill:url(#SVGID_00000018924509166659597050000008896537356822551480_);}
	.st54{fill:url(#SVGID_00000132065294815765653010000002510902251665132964_);}
	.st55{fill:url(#SVGID_00000076601188397321908380000013433915865112442266_);}
	.st56{fill:url(#SVGID_00000176021814292381279120000015166210730167720120_);}
	.st57{fill:url(#SVGID_00000060712024912640536550000004914760498727100313_);}
	.st58{fill:url(#SVGID_00000077306690524421220150000013734039485402661788_);}
	.st59{fill:url(#SVGID_00000116235924802736735660000010523868029293523127_);}
	.st60{clip-path:url(#SVGID_00000163794185220686025560000010700699924156027838_);fill:#FFFFFF;}
	.st61{fill:none;stroke:#805AE4;stroke-miterlimit:10;}
	.st62{fill:url(#SVGID_00000109720267015001271750000008828680903453256094_);}
	.st63{fill:url(#SVGID_00000072245125396344505150000018165174113280805041_);}
	.st64{fill:url(#SVGID_00000033367529332829110940000011122539284686811579_);}
	.st65{fill:url(#SVGID_00000100369158203143216030000009539371185127169943_);}
	.st66{fill:url(#SVGID_00000150824445783333926060000003209985742452787887_);}
	.st67{fill:url(#SVGID_00000153670190159610844390000001400289565870948756_);}
	.st68{fill:url(#SVGID_00000183952652336164847540000012126609096680748465_);}
	.st69{fill:url(#SVGID_00000064314665149679412040000016322519436078607501_);}
	.st70{fill:url(#SVGID_00000080164303898837831390000015372402288357211525_);}
	.st71{fill:url(#SVGID_00000044135370291405886180000000512337512853498762_);}
	.st72{fill:url(#SVGID_00000159431576501891156360000011452669621252276633_);}
	.st73{fill:url(#SVGID_00000170979782093759149510000017333785454715844228_);}
	.st74{fill:#DDBB1B;}
	.st75{fill:#49CA80;}
	.st76{fill:#CF78C6;}
	.st77{fill:#BDACFF;}
	.st78{fill:#37368D;}
	.st79{fill:#E11E5E;}
	.st80{fill:#EB9F49;}
	.st81{fill:#FF6B6B;}
	.st82{fill:#38ABE6;}
	.st83{fill:url(#SVGID_00000176731017366326156970000006089449849897155484_);}
	.st84{fill:url(#SVGID_00000115475187530641793890000017053124136172895647_);}
	.st85{fill:url(#SVGID_00000114761394390699108170000004590496824165213842_);}
	.st86{fill:#E78A7E;}
	.st87{fill:#E69C78;}
	.st88{fill:#FF80E7;}
	.st89{fill:#E86480;}
	.st90{fill:url(#SVGID_00000087413699016019505780000008622810784370655418_);}
	.st91{fill:url(#SVGID_00000004519999703243054930000004005234525388094366_);}
	.st92{fill:url(#SVGID_00000092441363589052568840000002650100783208545409_);}
	.st93{fill:url(#SVGID_00000024720560989265019080000008483625341399757449_);}
	.st94{fill:url(#SVGID_00000002361645318107570800000017731201688347914127_);}
	.st95{fill:url(#SVGID_00000036210221684686271160000011576978894061240233_);}
	.st96{fill:url(#SVGID_00000015352905603424043040000011982568164754825144_);}
	.st97{fill:url(#SVGID_00000170250032615047606280000017935384503993057946_);}
	.st98{fill:url(#SVGID_00000041270293549043332910000008408574714434464916_);}
	.st99{fill:url(#SVGID_00000133514414595264530060000006948647267553487529_);}
	.st100{fill:url(#SVGID_00000143607478518051323170000010162446600538260610_);}
	.st101{fill:url(#SVGID_00000047022165422694819960000012076581842525421243_);}
	.st102{fill:url(#SVGID_00000160179629073493056150000003810925813166663557_);}
	.st103{fill:url(#SVGID_00000143576767890520103170000005057564633479358346_);}
	.st104{fill:url(#SVGID_00000028316230603628586810000016106054640448332210_);}
	.st105{fill:url(#SVGID_00000032633520575983463970000002723652225799946163_);}
	.st106{fill:url(#SVGID_00000124850189894994936680000015120235108461363844_);}
	.st107{fill:url(#SVGID_00000085250497687610330530000006575265854514299810_);}
	.st108{fill:url(#SVGID_00000065787211479286765270000004466239367927762053_);}
	.st109{fill:url(#SVGID_00000147211053296403031200000010488751780168776382_);}
	.st110{fill:url(#SVGID_00000057836179245692211750000007598674416464654485_);}
	.st111{fill:url(#SVGID_00000169536742482441139720000006737835246727924366_);}
	.st112{fill:url(#SVGID_00000096755879956380847880000007788847000421762458_);}
	.st113{fill:url(#SVGID_00000163050507206865532110000015140432331545539235_);}
	.st114{fill:url(#SVGID_00000013189523261581863010000009224497910722460607_);}
	.st115{fill:url(#SVGID_00000060023281818488978030000011151505655583490179_);}
	.st116{fill:url(#SVGID_00000092417944885464245970000016088435856584169142_);}
	.st117{fill:url(#SVGID_00000001661558585467449710000000371613139593734795_);}
	.st118{fill:url(#SVGID_00000011719825960635321310000003653928116954601133_);}
	.st119{fill:url(#SVGID_00000132787829810484885190000016287115521875281823_);}
	.st120{fill:url(#SVGID_00000181805380161563856810000011722362996239782564_);}
	.st121{fill:url(#SVGID_00000105395769893571519410000012299756675670255767_);}
	.st122{fill:url(#SVGID_00000160897951186703575350000001580277699600357819_);}
	.st123{fill:url(#SVGID_00000019647904398504008160000014501808165343965057_);}
	.st124{fill:url(#SVGID_00000049203169340782021940000011765401764035875466_);}
	.st125{fill:url(#SVGID_00000176738317796384775300000007586943002525135272_);}
	.st126{fill:url(#SVGID_00000066492694289936509200000002943721988231579049_);}
	.st127{fill:url(#SVGID_00000145744628390763805250000012749039605016946863_);}
	.st128{fill:url(#SVGID_00000042726049205034354680000004048174039313879684_);}
	.st129{fill:url(#SVGID_00000067211888568920010280000004518361378747597956_);}
	.st130{fill:url(#SVGID_00000075142048276364908890000018056007137555467194_);}
	.st131{fill:url(#SVGID_00000021078241295477733590000018052160270358316691_);}
	.st132{fill:url(#SVGID_00000041974911847323731570000002184663858359512497_);}
	.st133{fill:url(#SVGID_00000037680300073935595550000008033334964722767508_);}
	.st134{fill:url(#SVGID_00000147918198987111232160000017739853460064932512_);}
	.st135{fill:url(#SVGID_00000041278030210133030380000004219844223467617942_);}
	.st136{fill:url(#SVGID_00000114770146608125423760000013503594978306606004_);}
	.st137{fill:url(#SVGID_00000009554290444834835640000010257008553406245783_);}
	.st138{fill:url(#SVGID_00000109006207260040170700000008411585182245649591_);}
	.st139{fill:url(#SVGID_00000156566380802749482030000016127315330749905078_);}
	.st140{fill:url(#SVGID_00000043449352429030557320000008104685765884237714_);}
	.st141{fill:url(#SVGID_00000157307768217190714450000006610473566577323170_);}
	.st142{fill:url(#SVGID_00000078015531094184043150000004245161652227548845_);}
	.st143{fill:url(#SVGID_00000100383352874411466480000010541318281451925888_);}
	.st144{fill:url(#SVGID_00000028325858214813850910000009391412578941916598_);}
	.st145{fill:url(#SVGID_00000046332981284757730110000013695018955089244546_);}
	.st146{fill:url(#SVGID_00000065795868853442603210000018412161727234614952_);}
	.st147{fill:url(#SVGID_00000137125456521515261350000009780809384274923685_);}
	.st148{fill:url(#SVGID_00000022526920736356744310000010885862838362201014_);}
	.st149{fill:url(#SVGID_00000096748171748190308370000012136203751156959161_);}
	.st150{fill:url(#SVGID_00000134210263178350913340000009116419137156180154_);}
	.st151{fill:url(#SVGID_00000041261136847085989880000005947077175878333860_);}
	.st152{fill:url(#SVGID_00000062905672214905617600000018246046925202138249_);}
	.st153{fill:url(#SVGID_00000043421375588235432490000002136127203569666184_);}
	.st154{fill:url(#SVGID_00000109019761544451463400000016684801683708226746_);}
	.st155{fill:url(#SVGID_00000178167330446321001690000005829248881134801281_);}
	.st156{fill:url(#SVGID_00000168831519039185353210000005102826201428374970_);}
	.st157{fill:url(#SVGID_00000108310650512894873170000015186896049687238333_);}
	.st158{fill:url(#SVGID_00000081650132335141853490000018404308285637355154_);}
	.st159{fill:url(#SVGID_00000072238689159352987750000000332316056466592436_);}
	.st160{fill:url(#SVGID_00000028308659639923252300000015214302678443244960_);}
	.st161{fill:url(#SVGID_00000016037199012705472970000018300960006397688748_);}
	.st162{fill:url(#SVGID_00000139976198077678538710000003135457546294591384_);}
	.st163{fill:none;stroke:#090E38;stroke-width:2;stroke-miterlimit:10;}
	.st164{fill:#803CFF;}
	.st165{fill:none;stroke:#803CFF;stroke-miterlimit:10;}
	.st166{fill:#848698;}
	.st167{fill:url(#SVGID_00000038401341301248654950000001438099385417670813_);}
	.st168{fill:url(#SVGID_00000029007464775937325850000003559588651393022346_);}
	.st169{fill:url(#SVGID_00000084488328945640546880000005241344138183940740_);}
	.st170{fill:url(#SVGID_00000098922383626206903640000014143775515394690192_);}
	.st171{fill:url(#SVGID_00000021834079341507385700000015682728663025394841_);}
	.st172{fill:url(#SVGID_00000093155756403449167630000016668486989071467963_);}
	.st173{fill:url(#SVGID_00000023985350027005427160000006147265508263561120_);}
	.st174{fill:url(#SVGID_00000105393409137658726370000002339366267024427938_);}
	.st175{fill:#22274C;}
	.st176{fill:url(#SVGID_00000047038737689023113820000015684225806202002868_);}
	.st177{fill:url(#SVGID_00000151536865364613769980000000031062269647401353_);}
	.st178{fill:url(#SVGID_00000028283871210302797060000015639385613914413704_);}
	.st179{fill:url(#SVGID_00000137810970918745675570000005054661477803784863_);}
	.st180{fill:url(#SVGID_00000071545062707768320460000005268292147691219872_);}
	.st181{fill:url(#SVGID_00000123425951298257077480000000812865460727527313_);}
	.st182{fill:url(#SVGID_00000028294797500727528540000014588792843340826794_);}
	.st183{fill:url(#SVGID_00000005969116497351727300000011860159521283452056_);}
	.st184{fill:url(#SVGID_00000005987737008038292950000014447372453615930260_);}
	.st185{fill:url(#SVGID_00000114061575665610478910000007423359099288171177_);}
	.st186{fill:url(#SVGID_00000155143833059594415170000006740634021007802281_);}
	.st187{fill:url(#SVGID_00000096031159467067548660000016700551652173651596_);}
	.st188{fill:url(#SVGID_00000047054675197956900730000012807569287357047452_);}
	.st189{fill:url(#SVGID_00000059305654538936522100000004377362099952173491_);}
	.st190{fill:url(#SVGID_00000163790214204822237210000000377164801245664904_);}
	.st191{fill:url(#SVGID_00000110446234305124866980000007996227379919406731_);}
	.st192{fill:url(#SVGID_00000088844267267352256270000004477291442554889647_);}
	.st193{fill:url(#SVGID_00000120532625302811514010000012378802923437129146_);}
	.st194{fill:url(#SVGID_00000065075391327120825940000016082846089607095700_);}
	.st195{fill:url(#SVGID_00000008836229517705540670000004896787445333118866_);}
	.st196{fill:url(#SVGID_00000106844019539270074240000007154937385905057452_);}
	.st197{fill:url(#SVGID_00000151541562447540224020000001084797327095534011_);}
	.st198{fill:url(#SVGID_00000156570147775279030900000011571054131135161252_);}
	.st199{fill:url(#SVGID_00000093154973352881708990000005300115046225872313_);}
	.st200{fill:url(#SVGID_00000108283338541535690520000000183071368073269680_);}
	.st201{fill:url(#SVGID_00000144299141518587318540000009443059852803568281_);}
	.st202{fill:url(#SVGID_00000059282728291417012960000002885544929159826333_);}
	.st203{fill:url(#SVGID_00000018942004321422522730000004870314870049395616_);}
	.st204{fill:url(#SVGID_00000177442420414024031330000003431900081738438283_);}
	.st205{fill:url(#SVGID_00000062173240060414828770000004716627090070767033_);}
	.st206{fill:url(#SVGID_00000111888901994265847480000015080029800809812610_);}
	.st207{fill:url(#SVGID_00000126284495255203564770000013745964679821191842_);}
	.st208{fill:url(#SVGID_00000040540833538062537740000006863680451078858645_);}
	.st209{fill:url(#SVGID_00000023283578638826729960000000587873462461804186_);}
	.st210{fill:url(#SVGID_00000101091604340866828120000010731053991890972840_);}
	.st211{fill:url(#SVGID_00000165939980488932091200000002563410695628517302_);}
	.st212{fill:none;stroke:#FFFFFF;stroke-linecap:round;stroke-miterlimit:10;}
	.st213{fill:url(#SVGID_00000085932071179936439010000003705411689025913275_);}
	.st214{fill:url(#SVGID_00000166656379050844277950000000572970962706338215_);}
	.st215{fill:url(#SVGID_00000052793919513950809100000012705752749044403590_);}
	.st216{fill:url(#SVGID_00000091718424601503649390000005697145608778725799_);}
	.st217{fill:url(#SVGID_00000013880214776678421790000016318643614708904884_);}
	.st218{fill:url(#SVGID_00000180340221251216855810000006757652781461919659_);}
	.st219{fill:url(#SVGID_00000072241444135295806550000012421352455488036236_);}
	.st220{fill:url(#SVGID_00000068659244829573494180000012987218315065811646_);}
	.st221{fill:url(#SVGID_00000037654049798530663910000013114054000660008101_);}
	.st222{fill:url(#SVGID_00000145774552123480300860000016564002945057862555_);}
	.st223{fill:url(#SVGID_00000154385328259970181270000007681439759240425145_);}
	.st224{fill:url(#SVGID_00000158747796875273937020000002825188341127040935_);}
	.st225{fill:url(#SVGID_00000090984674830241007670000015224857128504263568_);}
	.st226{fill:url(#SVGID_00000066512631990679638330000013196065723049906363_);}
	.st227{fill:url(#SVGID_00000001645187049982307420000018411559830295205781_);}
	.st228{fill:url(#SVGID_00000060020267934473600560000005584239478414408604_);}
	.st229{fill:url(#SVGID_00000070798291126242073880000005816284923966172309_);}
	.st230{fill:url(#SVGID_00000182502693370544311310000012384493624236009382_);}
	.st231{fill:url(#SVGID_00000021089438724531381520000010872598129172667021_);}
	.st232{fill:url(#SVGID_00000181073683726067514970000015126983309004179350_);}
	.st233{fill:url(#SVGID_00000044160872305804733590000006836637267369791667_);}
	.st234{fill:none;stroke:#22274C;stroke-width:0.5;stroke-miterlimit:10;}
	.st235{fill:url(#SVGID_00000121258260401504810510000012946447447396601772_);}
	.st236{fill:none;stroke:#22274C;stroke-miterlimit:10;}
	.st237{fill:url(#SVGID_00000073715923154631243770000004719969694115747512_);}
	.st238{fill:url(#SVGID_00000029018880295243425660000008361442544455899525_);}
	.st239{fill:url(#SVGID_00000070089149154670594410000001811488408418864284_);}
	.st240{fill:url(#SVGID_00000031895994786118353270000007059906921003383181_);}
	.st241{fill:url(#SVGID_00000038371783511669000430000015746179248953982856_);}
	.st242{fill:url(#SVGID_00000031898422826487703760000017073089890628942527_);}
	.st243{fill:url(#SVGID_00000065766058471112188540000000489818535647807118_);}
	.st244{fill:url(#SVGID_00000157272138742824068750000007201840896196381347_);}
	.st245{fill:url(#SVGID_00000121996419861319216390000006037707068342966174_);}
	.st246{fill:url(#SVGID_00000130627034316795909990000017708673013697317296_);}
	.st247{fill:url(#SVGID_00000023258302859285632600000015703371444901970327_);}
	.st248{fill:url(#SVGID_00000183968395243379981280000003430271594511036832_);}
	.st249{fill:none;stroke:#E11E5E;stroke-miterlimit:10;}
	.st250{fill:url(#SVGID_00000167386667184896894460000016752924839881200040_);}
	.st251{fill:url(#SVGID_00000157987734508846397060000017653733501252562585_);}
	.st252{fill:url(#SVGID_00000163056598195746175480000010652402289025387414_);}
	.st253{fill:url(#SVGID_00000056415189843549968210000000095584404978804148_);}
	.st254{fill:url(#SVGID_00000074425239118236783950000003742115759699044745_);}
	.st255{fill:url(#SVGID_00000178916083989337329730000017210612975595300776_);}
	.st256{fill:url(#SVGID_00000138545320456025931750000007504728988052162446_);}
	.st257{fill:url(#SVGID_00000124158003801578207370000004856064607874715802_);}
	.st258{fill:url(#SVGID_00000093878746446369375500000001771798675619380911_);}
	.st259{fill:url(#SVGID_00000101825809953237369100000007038371622663878824_);}
	.st260{fill:url(#SVGID_00000067926287373000148950000013620040371123403403_);}
	.st261{fill:url(#SVGID_00000013178525132463481290000017696402647019918728_);}
	.st262{fill:url(#SVGID_00000068677403800337713470000016597985803199176093_);}
	.st263{fill:url(#SVGID_00000045582985846270367810000017845343019199215490_);}
	.st264{fill:url(#SVGID_00000135671304861111962930000017044785677364446623_);}
	.st265{fill:url(#SVGID_00000009582388673480230840000003869122518348381629_);}
	.st266{fill:url(#SVGID_00000134964196054028372270000011171100931205920142_);}
	.st267{fill:url(#SVGID_00000008107715604985933900000016052761829002460046_);}
	.st268{fill:url(#SVGID_00000031919852566754129080000013692551672221763259_);}
	.st269{fill:url(#SVGID_00000167396772827260952450000011972142156168491144_);}
	.st270{fill:url(#SVGID_00000090290938292326848880000016514022592054050967_);}
	.st271{fill:url(#SVGID_00000037692523102717167610000007397825250960802476_);}
	.st272{fill:url(#SVGID_00000048478813231591203010000010540674200785223318_);}
	.st273{fill:none;stroke:#FFFFFF;stroke-width:0.75;stroke-miterlimit:10;}
	.st274{fill:none;stroke:#FFFFFF;stroke-width:0.75;stroke-linecap:round;stroke-miterlimit:10;}
	.st275{fill-rule:evenodd;clip-rule:evenodd;fill:none;stroke:#FFFFFF;stroke-width:0.5;stroke-miterlimit:10;}
	
		.st276{fill-rule:evenodd;clip-rule:evenodd;fill:none;stroke:#FFFFFF;stroke-width:0.5;stroke-linecap:round;stroke-miterlimit:10;}
	.st277{fill:url(#SVGID_00000160880816462789814730000018304640391295462845_);}
	.st278{fill:url(#SVGID_00000058566718555677455080000004167381623062208643_);}
	.st279{fill:url(#SVGID_00000103256989784912451210000004571810831959123606_);}
	.st280{fill:url(#SVGID_00000046327200750962115590000011538569990180743331_);}
	.st281{fill:url(#SVGID_00000049204460930041915410000015855399766519470781_);}
	.st282{fill:url(#SVGID_00000047753292902607623470000012992874927505889449_);}
	.st283{fill:url(#SVGID_00000085971632299765406060000013137185312951958179_);}
	.st284{fill:url(#SVGID_00000000945678698443850810000017572177576766223538_);}
	.st285{fill:url(#SVGID_00000096773766304239617960000010252947733061197495_);}
	.st286{fill:url(#SVGID_00000105419195556069464450000008382907914740052896_);}
	.st287{fill:url(#SVGID_00000161597870604894196430000004567477380514124697_);}
	.st288{fill:url(#SVGID_00000075143590635039033010000004461808835155443900_);}
	.st289{fill:url(#SVGID_00000160879509458936422570000004804348604128903358_);}
	.st290{fill:url(#SVGID_00000036948095732367539490000005606382605960242354_);}
	.st291{fill:url(#SVGID_00000119818990484148782250000015185461865995575450_);}
	.st292{fill:url(#SVGID_00000034789838028286406710000007923990851996369803_);}
	.st293{fill:url(#SVGID_00000047766676825461279780000007282146605054997934_);}
	.st294{fill:url(#SVGID_00000050654264450438339480000003217764962781919679_);}
	.st295{fill:url(#SVGID_00000101095186553708830740000016798609127989559180_);}
	.st296{fill:url(#SVGID_00000034089818842397293880000006110398609681591217_);}
	.st297{fill:url(#SVGID_00000079462237292331910460000004396728209982778801_);}
	.st298{fill:url(#SVGID_00000108286425119693721690000001905495136420286598_);}
	.st299{fill:url(#SVGID_00000109012509935671609970000002616627587068351928_);}
	.st300{fill:url(#SVGID_00000103259880803235309080000004121383264281466809_);}
	.st301{fill:url(#SVGID_00000003069649281327025570000002707986872625508249_);}
	.st302{clip-path:url(#SVGID_00000031189458382851447580000002108632017533359013_);fill:#22264C;}
	.st303{clip-path:url(#SVGID_00000174602469871092837250000002872798212349192850_);fill:#FFFFFF;}
	.st304{clip-path:url(#SVGID_00000135673976567785108580000007211858859667938749_);fill:#FFFFFF;}
	.st305{clip-path:url(#SVGID_00000057112821800540868030000001165216882724235406_);fill:#FFFFFF;}
	.st306{clip-path:url(#SVGID_00000036234152402744928880000009113568024715903422_);fill:#FFFFFF;}
	.st307{clip-path:url(#SVGID_00000058568711513548752530000012953741623067799184_);fill:#FFFFFF;}
	.st308{clip-path:url(#SVGID_00000067942090778544999020000012743464328075176844_);fill:#FFFFFF;}
	.st309{clip-path:url(#SVGID_00000042738472661834822700000006750919909086813084_);fill:#FFFFFF;}
	.st310{clip-path:url(#SVGID_00000029048166829895011610000011464227753233264785_);fill:#FFFFFF;}
	.st311{clip-path:url(#SVGID_00000073703778151678379720000014172920008972171704_);fill:#FFFFFF;}
	.st312{clip-path:url(#SVGID_00000088111109158838338810000018171103209283726492_);fill:#FFFFFF;}
	.st313{clip-path:url(#SVGID_00000129890660328698883520000008826953662212733084_);fill:#FFFFFF;}
	.st314{fill:url(#SVGID_00000077314722483351405340000007252426694940502404_);}
	.st315{fill:url(#SVGID_00000039817655365159753110000002338376036713341606_);}
	.st316{fill:url(#SVGID_00000072281290189049919220000013152653404823753347_);}
	.st317{fill:url(#SVGID_00000180337169660572895650000006492324556936553122_);}
	.st318{fill:url(#SVGID_00000062165048626337890920000002577090452722458805_);}
	.st319{fill:url(#SVGID_00000155114312984967514690000000021590140511819675_);}
	.st320{fill:url(#SVGID_00000102533753647944627680000013385987863269773956_);}
	.st321{fill:url(#SVGID_00000129906852208889385170000011925794182930443675_);}
	.st322{fill:url(#SVGID_00000140710262280632155080000017517766670874387330_);}
	.st323{fill:url(#SVGID_00000081635709208330055670000013767436351139171763_);}
	.st324{fill:url(#SVGID_00000134209857804893216320000012919246811217306769_);}
	.st325{fill:url(#SVGID_00000174580806466623210280000011324427388079181208_);}
	.st326{fill:url(#SVGID_00000060744854893792157950000000617862852493404078_);}
	.st327{fill:url(#SVGID_00000007415588827093743980000011253536023623775360_);}
	.st328{fill:url(#SVGID_00000080167385405633940660000011367953702968370099_);}
	.st329{fill:url(#SVGID_00000032638527600267520400000007059660507115966906_);}
	.st330{fill:url(#SVGID_00000173861895447697892650000006344885334754055055_);}
	.st331{fill:url(#SVGID_00000072990368232530725550000018098129487101278649_);}
	.st332{fill:url(#SVGID_00000080893618795977534500000013848636397276559023_);}
	.st333{fill:url(#SVGID_00000127040605852092094130000009521398453652623499_);}
	.st334{fill:url(#SVGID_00000019636696019915571260000018108651428896534434_);}
	.st335{fill:url(#SVGID_00000030471822043262887160000016262845044342374808_);}
	.st336{fill:url(#SVGID_00000162324250442507260100000009027494319143618987_);}
	.st337{fill:url(#SVGID_00000016780048461351620110000010453531374047314871_);}
	.st338{fill:url(#SVGID_00000045600687522301911100000017691689354616446115_);}
	.st339{fill:url(#SVGID_00000119806294551038662350000007751362009228526013_);}
	.st340{fill:url(#SVGID_00000120554501921422601660000014253431621555926698_);}
	.st341{fill:url(#SVGID_00000058570568711731250910000000974261051448605116_);}
	.st342{fill:url(#SVGID_00000134954700602419228720000014522143567957404346_);}
	.st343{fill:url(#SVGID_00000106130129853756141850000015784006731043879554_);}
	.st344{fill:url(#SVGID_00000090278229962031248300000017063802223598384256_);}
	.st345{fill:url(#SVGID_00000129924059356344937240000003959560293134804886_);}
	.st346{fill:url(#SVGID_00000098933762396402311390000012969324300665869998_);}
	.st347{fill:url(#SVGID_00000139251846712177081960000017332501656010999695_);}
	.st348{fill:url(#SVGID_00000141446976779815948270000009013191227730147218_);}
	.st349{fill:url(#SVGID_00000131360705346642034650000015331978435577765798_);}
	.st350{fill:url(#SVGID_00000170276803455612199110000013699234633744052356_);}
	.st351{fill:url(#SVGID_00000043422814946997590140000009255136340151279540_);}
	.st352{fill:url(#SVGID_00000176742947376328206940000005835982907541511329_);}
	.st353{fill:url(#SVGID_00000019671395252498006570000012634747252994240177_);}
	.st354{fill:#8A8989;}
	.st355{fill:#616160;}
	.st356{fill-rule:evenodd;clip-rule:evenodd;fill:#FFFFFF;}
	.st357{fill-rule:evenodd;clip-rule:evenodd;fill:#8A8989;}
	.st358{fill-rule:evenodd;clip-rule:evenodd;fill:#797879;}
	.st359{clip-path:url(#XMLID_00000181085194291132428980000014473916736660722594_);}
	.st360{opacity:0.2;fill:#E1E3E7;}
	.st361{fill-rule:evenodd;clip-rule:evenodd;fill:#616160;}
	.st362{fill:#E1E3E7;}
	.st363{fill:#FFFFFF;stroke:#FFFFFF;stroke-width:4;stroke-miterlimit:10;}
	.st364{fill:#58595B;}
	.st365{fill:#80A926;}
	.st366{clip-path:url(#SVGID_00000171001453577746803060000007361268757892266134_);}
	.st367{clip-path:url(#SVGID_00000084496682655865776700000001010910447346612610_);}
	.st368{clip-path:url(#SVGID_00000119802246912565175240000013854427414819905685_);}
	.st369{clip-path:url(#SVGID_00000036232205245204539410000013499748404951966876_);}
	.st370{clip-path:url(#SVGID_00000028317084019622434540000016910000482370263227_);}
	.st371{clip-path:url(#SVGID_00000081648267218934095290000016752939525221178528_);}
	.st372{clip-path:url(#SVGID_00000120518325084184299490000007441426332275931014_);}
	.st373{clip-path:url(#SVGID_00000059291299186456164200000006796801344173704852_);}
	.st374{clip-path:url(#SVGID_00000018941536463752601260000005346075699367283864_);}
	.st375{clip-path:url(#SVGID_00000086669483878887686800000001599936788038603918_);}
	.st376{fill:#1D1E1C;}
	.st377{opacity:0.36;}
	.st378{opacity:0.57;}
	.st379{fill:none;}
	.st380{fill:#01CEA6;}
	.st381{fill:#01261F;}
	.st382{fill:#E68000;}
	.st383{fill:#261400;}
	.st384{fill:#E63D80;}
	.st385{fill:#2D0013;}
	.st386{fill:#3695BB;}
	.st387{fill:#032732;}
	.st388{fill:#CDE4EC;}
	.st389{fill:#DA80E7;}
	.st390{fill:#B072BD;}
	.st391{fill:#855994;}
	.st392{fill:#180024;}
	.st393{fill:#DD80EA;}
	.st394{fill:#BB80E7;}
	.st395{fill:#9B77C0;}
	.st396{fill:#C080ED;}
	.st397{fill:#1F0140;}
	.st398{fill:#80619A;}
	.st399{fill:url(#SVGID_00000103965987745809191830000017823827408220058028_);}
	.st400{fill:url(#SVGID_00000090296588746801914640000011011155864471082942_);}
	.st401{fill:url(#SVGID_00000083070629548981104700000016341496305909877923_);}
	.st402{fill:url(#SVGID_00000166665142210783528730000010652470752785976476_);}
	.st403{fill:url(#SVGID_00000143584071168753286830000001604962730865080243_);}
	.st404{fill:url(#SVGID_00000042709921309631623750000002618517110747385269_);}
	.st405{fill:url(#SVGID_00000018222609015496865350000011382467388514820001_);}
	.st406{fill:url(#SVGID_00000088824486030201490750000018363418741862524834_);}
	.st407{fill:url(#SVGID_00000075154633329428235390000011058279316202483605_);}
	.st408{fill:url(#SVGID_00000071521016124305782490000000755983311235173520_);}
	.st409{fill:url(#SVGID_00000113331827309453113130000005873357046735083704_);}
	.st410{fill:url(#SVGID_00000127752585245359548850000002527949363754681017_);}
	.st411{fill:none;stroke:#464A69;stroke-miterlimit:10;}
	.st412{fill:url(#SVGID_00000111154635297799669690000007022450262058109100_);}
	.st413{fill:url(#SVGID_00000182509544905587999470000015345873470812764847_);}
	.st414{fill:url(#SVGID_00000063617181469448772530000007001549077147457725_);}
	.st415{fill:url(#SVGID_00000110438355565224136960000010756442175352844689_);}
	.st416{fill:url(#SVGID_00000075870842737001698120000015089580573409041813_);}
	.st417{fill:url(#SVGID_00000082361881360902086480000009477316701016467092_);}
	.st418{fill:url(#SVGID_00000168103116554392777360000009333317153031403422_);}
	.st419{fill:url(#SVGID_00000129170660278159617060000001391561473209506738_);}
	.st420{fill:url(#SVGID_00000002356507780332641530000012462907453342039193_);}
	.st421{fill:url(#SVGID_00000090267653336814398260000005720542472176609169_);}
	.st422{fill:url(#SVGID_00000111191663267374996150000015613541324871404692_);}
	.st423{fill:url(#SVGID_00000162342670697216514340000012500947004140868270_);}
	.st424{fill:url(#SVGID_00000129180316455439722490000008217210795968671151_);}
	.st425{fill:url(#SVGID_00000150060351508023357200000000863342162052235423_);}
	.st426{fill:none;stroke:#22274C;stroke-width:0.75;stroke-miterlimit:10;}
	.st427{fill:none;stroke:#FFFFFF;stroke-width:2;stroke-miterlimit:10;}
	.st428{fill:url(#SVGID_00000181771312430210673660000012401154998358374804_);}
	.st429{fill:url(#SVGID_00000042009017781112286600000003329268210161069245_);}
	.st430{fill:url(#SVGID_00000066516252884341503590000017155213961955776412_);}
	.st431{fill:url(#SVGID_00000025438089773736597870000007435085537200156312_);}
	.st432{fill:url(#SVGID_00000021835633529035022520000006097229840663233954_);}
	.st433{fill:url(#SVGID_00000168081893815803891580000010678471538947349890_);}
	.st434{fill:url(#SVGID_00000078757935671813259830000008774538310763892898_);}
	.st435{fill:url(#SVGID_00000119817681970850372290000001387629678125356958_);}
	.st436{fill:url(#SVGID_00000008147371069965710940000012928100181595701379_);}
	.st437{fill:url(#SVGID_00000173878566717687687660000006014067078645271466_);}
	.st438{fill:url(#SVGID_00000165198473738970176200000017740461912600181656_);}
	.st439{fill:url(#SVGID_00000063631864495682250150000005102485557224319140_);}
	.st440{fill:url(#SVGID_00000150816886018499787430000004810500062305229186_);}
	.st441{fill:url(#SVGID_00000112633710584543879890000012646408060351138459_);}
	.st442{fill:url(#SVGID_00000007425235280216822160000010229354067366891951_);}
	.st443{fill:url(#SVGID_00000093144936122761295910000008735024480034858131_);}
	.st444{fill:url(#SVGID_00000150801977925612645580000007289184929930399886_);}
	.st445{fill:url(#SVGID_00000088107234412738955070000017588485434592548488_);}
	.st446{fill:url(#SVGID_00000095329250007582167180000004236300433064328624_);}
	.st447{fill:url(#SVGID_00000133492362283340635930000006192700526117144981_);}
	.st448{fill:url(#SVGID_00000030467460392899729480000004494770932867783858_);}
	.st449{fill:url(#SVGID_00000028306734289541452070000001563095213120471200_);}
	.st450{fill:url(#SVGID_00000072263371315990070440000001006079539297846951_);}
	.st451{fill:url(#SVGID_00000026152914491959005420000012738181169750339770_);}
	.st452{fill:url(#SVGID_00000094614627692455718020000010498899063952154793_);}
	.st453{fill:url(#SVGID_00000012467499703271821060000011534015799764439971_);}
	.st454{fill:url(#SVGID_00000129890045137662654450000007347184381086535079_);}
	.st455{fill:none;stroke:#8F8F8F;stroke-width:0.75;stroke-miterlimit:10;}
	.st456{fill:#8F8F8F;stroke:#8F8F8F;stroke-width:0.25;stroke-miterlimit:10;}
	.st457{fill:#8F8F8F;}
	.st458{fill:none;stroke:#8F8F8F;stroke-width:0.25;stroke-miterlimit:10;}
	.st459{fill:url(#SVGID_00000092437668811093396290000016787296032896854688_);}
	.st460{fill:url(#SVGID_00000047773056624022176460000008897807162354844069_);}
	.st461{fill:url(#SVGID_00000047019314722706185350000004250316551923541642_);}
	.st462{fill:url(#SVGID_00000013892808623377857390000009329212090679649408_);}
	.st463{fill:url(#SVGID_00000028324604991711177800000010804248440316857535_);}
	.st464{fill:url(#SVGID_00000016757869835035788110000007025061032379935901_);}
	.st465{fill:url(#SVGID_00000181051627189782576670000009418635189657646725_);}
	.st466{fill:url(#SVGID_00000012463608794710850820000008603600159906348468_);}
	.st467{fill:url(#SVGID_00000165211294010025398020000013890452736245356973_);}
	.st468{fill:url(#SVGID_00000143608628170602606100000015214878072129116859_);}
</style>
<g>
	<linearGradient id="SVGID_1_" gradientUnits="userSpaceOnUse" x1="16.2853" y1="55.2597" x2="125.7835" y2="55.2597">
		<stop  offset="0" style="stop-color:#DDBB1B"/>
		<stop  offset="1" style="stop-color:#49CA80"/>
	</linearGradient>
	<path class="st1" d="M37.51,59.76v7.53h-4.78v-7.53l-15.4-16.54h6.53l11.28,12.1l11.28-12.1h6.5L37.51,59.76z"/>
	
		<linearGradient id="SVGID_00000069398583868820957680000008208307453768529853_" gradientUnits="userSpaceOnUse" x1="16.2853" y1="55.2597" x2="125.7835" y2="55.2597">
		<stop  offset="0" style="stop-color:#DDBB1B"/>
		<stop  offset="1" style="stop-color:#49CA80"/>
	</linearGradient>
	<path style="fill:url(#SVGID_00000069398583868820957680000008208307453768529853_);" d="M80.97,61.79H61.4l-3.51,5.5h-5.5
		l15.3-24.07h7.01l15.3,24.07h-5.54L80.97,61.79z M78.12,57.25L71.2,46.39l-6.91,10.87H78.12z"/>
	
		<linearGradient id="SVGID_00000074426158618276962620000003231645168585258681_" gradientUnits="userSpaceOnUse" x1="16.2853" y1="55.2597" x2="125.7835" y2="55.2597">
		<stop  offset="0" style="stop-color:#DDBB1B"/>
		<stop  offset="1" style="stop-color:#49CA80"/>
	</linearGradient>
	<path style="fill:url(#SVGID_00000074426158618276962620000003231645168585258681_);" d="M123.59,43.23v24.07h-4.78h-0.76
		L95.77,49.04v18.26h-4.78V43.23h5.5l22.32,18.26V43.23H123.59z"/>
	
		<linearGradient id="SVGID_00000183216393685920920730000000303074838557859210_" gradientUnits="userSpaceOnUse" x1="16.2853" y1="84.4839" x2="125.7835" y2="84.4839">
		<stop  offset="0" style="stop-color:#DDBB1B"/>
		<stop  offset="1" style="stop-color:#49CA80"/>
	</linearGradient>
	<path style="fill:url(#SVGID_00000183216393685920920730000000303074838557859210_);" d="M52.67,96.52h-10.8l-8.77-6.26h-7.01v6.26
		h-8.53V72.45h24.45c1.63,0,3.16,0.4,4.59,1.2c1.43,0.8,2.59,1.87,3.47,3.21c0.88,1.34,1.32,2.84,1.32,4.49
		c0,2.16-0.73,4.03-2.18,5.64c-1.46,1.6-3.26,2.63-5.42,3.06L52.67,96.52z M40.74,83.25c0.53,0,1.01-0.18,1.46-0.55
		c0.45-0.37,0.67-0.81,0.67-1.34c0-0.53-0.22-0.97-0.67-1.34c-0.45-0.37-0.93-0.55-1.46-0.55H26.09v3.78H40.74z"/>
	
		<linearGradient id="SVGID_00000129925665746462635890000017559738319733630085_" gradientUnits="userSpaceOnUse" x1="16.2853" y1="84.4839" x2="125.7835" y2="84.4839">
		<stop  offset="0" style="stop-color:#DDBB1B"/>
		<stop  offset="1" style="stop-color:#49CA80"/>
	</linearGradient>
	<path style="fill:url(#SVGID_00000129925665746462635890000017559738319733630085_);" d="M71.19,97.03
		c-5.11,0-9.22-0.89-12.31-2.68c-3.48-2.02-5.23-5.1-5.23-9.25v-1.24c0-4.15,1.74-7.23,5.23-9.25c3.09-1.79,7.2-2.68,12.31-2.68
		c5.13,0,9.25,0.89,12.34,2.68c3.48,2.02,5.23,5.1,5.23,9.25v1.24c0,4.15-1.74,7.23-5.23,9.25C80.44,96.14,76.32,97.03,71.19,97.03z
		 M71.19,89.5c2.45,0,4.44-0.25,5.95-0.76c2.06-0.69,3.09-1.94,3.09-3.75v-1.03c0-1.81-1.03-3.06-3.09-3.75
		c-1.51-0.5-3.5-0.76-5.95-0.76c-2.45,0-4.42,0.25-5.91,0.76c-2.06,0.69-3.09,1.94-3.09,3.75V85c0,1.81,1.03,3.06,3.09,3.75
		C66.76,89.25,68.73,89.5,71.19,89.5z"/>
	
		<linearGradient id="SVGID_00000090996204826507322240000001117022946413723836_" gradientUnits="userSpaceOnUse" x1="16.2853" y1="84.4839" x2="125.7835" y2="84.4839">
		<stop  offset="0" style="stop-color:#DDBB1B"/>
		<stop  offset="1" style="stop-color:#49CA80"/>
	</linearGradient>
	<path style="fill:url(#SVGID_00000090996204826507322240000001117022946413723836_);" d="M124.09,96.52h-8.53v-8.29H99.02v8.29
		h-8.53V72.45h8.53v8.29h16.54v-8.29h8.53V96.52z"/>
	<g>
		<path class="st5" d="M24.6,15.05c0.98-0.59,1.7-1.33,2.54-1.96c0.24-0.19,0.54-0.25,0.8,0.02c0.25,0.25,0.28,0.63,0.06,0.91
			c-0.12,0.14-0.25,0.27-0.4,0.37c-0.9,0.58-1.69,1.31-2.5,2c-0.4,0.33-0.86,0.56-1.26,0.89c-0.36,0.3-0.57-0.15-0.78-0.34
			c-0.18-0.16-0.1-0.43,0.1-0.59C23.66,15.9,24.23,15.53,24.6,15.05z"/>
		<path class="st5" d="M116.39,16.49c-0.23,0.02-0.49,0.23-0.67-0.1c-0.16-0.32-0.08-0.71,0.19-0.94c0.21-0.16,0.45-0.23,0.69-0.28
			c0.4-0.08,0.75,0.15,0.82,0.57c0.06,0.38-0.17,0.55-0.51,0.63c-0.1,0.01-0.21,0.05-0.32,0.08L116.39,16.49z"/>
		<g>
			<g>
				<g>
					<path class="st5" d="M2.05,91.95C1.86,91,1.47,90.07,1.74,89.05c0.05-0.18,0.09-0.34,0.19-0.5c0.15-0.28,0.28-0.61,0.71-0.45
						c0.5,0.19,0.72,0.6,0.57,1.04c-0.48,1.35-0.12,2.52,0.81,3.54c0.18,0.19,0.39,0.3,0.65,0.35c0.68,0.14,1.32,0.02,1.99-0.25
						c0.5-0.22,1.05-0.32,1.56-0.5c0.2-0.08,0.5-0.04,0.54,0.29c0.04,0.32,0.29,0.7-0.24,0.87c-1.08,0.34-2.14,0.75-3.24,1
						c-0.74,0.16-1.47-0.13-2.03-0.65C2.68,93.3,2.25,92.7,2.05,91.95z"/>
					<path class="st5" d="M12.22,100.45c-0.01,0.35-0.14,0.61-0.51,0.73c-0.41,0.13-0.59,0.04-0.77-0.38
						c-0.6-1.36-1.23-2.71-1.85-4.07c-0.17-0.36-0.41-0.41-0.8-0.24c-0.33,0.15-0.47,0.33-0.3,0.72c0.47,1.15,0.95,2.3,1.51,3.43
						c0.17,0.34,0.08,0.52-0.26,0.67c-0.54,0.24-0.68,0.24-0.86-0.16c-0.5-1.06-0.99-2.14-1.49-3.2c-0.22-0.48-0.43-0.59-0.84-0.41
						c-0.45,0.18-0.56,0.6-0.26,1.04c0.51,0.76,0.86,1.61,1.14,2.48c0.02,0.08,0.05,0.18,0.09,0.23c0.42,0.34,0.51,0.83,0.61,1.33
						c0.08,0.37-0.1,0.49-0.37,0.62c-0.3,0.14-0.54,0.05-0.67-0.21c-0.44-0.85-0.85-1.74-1.26-2.61c-0.42-0.89-0.77-1.81-1.23-2.69
						c-0.18-0.34-0.08-0.53,0.21-0.76c0.48-0.36,1-0.56,1.56-0.72c0.53-0.16,0.92-0.56,1.43-0.76c0.5-0.18,1.02-0.32,1.48-0.63
						c0.36-0.25,0.62-0.11,0.83,0.29c0.38,0.74,0.61,1.55,1.16,2.19L12.22,100.45z"/>
					<path class="st5" d="M11.95,111.83c-0.27-0.34-0.27-0.7-0.03-1.15c0.31-0.55,0.31-1.12-0.08-1.68
						c-0.5-0.74-0.99-1.49-1.43-2.27c-0.27-0.47-0.64-0.65-1.15-0.63c-0.64,0-1.17-0.15-1.46-0.8c-0.2-0.42-0.11-0.66,0.34-0.66
						c0.94-0.01,1.88,0.16,2.82,0.18c1.03,0.02,2.04,0.1,3.06,0.16c0.14,0.01,0.28,0.02,0.42,0.04c0.65,0.14,0.93,0.66,0.71,1.32
						c-0.11,0.34-0.31,0.63-0.45,0.93c-0.27,0.56-0.5,1.15-0.69,1.75c-0.31,1-0.85,1.91-1.2,2.91
						C12.63,112.45,12.31,112.41,11.95,111.83z M12.14,107.17c0.12,0.18,0.22,0.38,0.37,0.56c0.3,0.36,0.51,0.33,0.67-0.1
						c0.12-0.32,0.2-0.64,0.37-0.93c0.17-0.28,0.08-0.47-0.26-0.45c-0.42,0.01-0.83-0.02-1.24-0.06c-0.3-0.01-0.4,0.15-0.27,0.42
						C11.87,106.8,12.01,106.98,12.14,107.17z"/>
					<path class="st5" d="M15.68,113.38c-0.36,0.3-0.71,0.61-1.08,0.91c-0.29,0.24-0.55,0.22-0.81-0.05
						c-0.25-0.28-0.31-0.55-0.03-0.85c0.45-0.47,0.98-0.84,1.48-1.25c0.79-0.66,1.56-1.35,2.33-2.04c0.27-0.24,0.82-0.08,0.95,0.29
						c0.09,0.28,0.17,0.57,0.13,0.86c-0.14,1.15-0.01,2.33-0.17,3.49c-0.06,0.44-0.04,0.89-0.01,1.32c0.01,0.11-0.05,0.24,0.1,0.3
						c0.12,0.04,0.24-0.01,0.34-0.11c0.22-0.21,0.4-0.48,0.65-0.63c0.6-0.36,0.95-1.02,1.62-1.29c0.38-0.16,0.62-0.06,0.81,0.23
						c0.21,0.31,0.07,0.54-0.18,0.76l-2.27,1.89c-0.44,0.37-0.86,0.78-1.34,1.12c-0.22,0.17-0.42,0.36-0.69,0.23
						c-0.29-0.14-0.5-0.37-0.52-0.7c-0.01-0.54-0.03-1.1,0.04-1.63c0.13-0.78,0.06-1.57,0.12-2.36l0.06-1.13
						c0.01-0.15,0.1-0.35-0.09-0.44c-0.17-0.08-0.28,0.09-0.39,0.18C16.39,112.78,16.04,113.09,15.68,113.38L15.68,113.38z"/>
					<path class="st5" d="M29.5,124.01c-0.12,0.15-0.23,0.31-0.37,0.44c-0.3,0.27-0.63,0.38-1.03,0.2c-0.6-0.25-1.23-0.46-1.67-0.96
						c-0.05-0.06-0.13-0.06-0.2-0.03c-0.11,0.06-0.08,0.17-0.09,0.26c0,0.62,0.32,1.1,0.64,1.6c0.28,0.44,0.64,0.82,1.02,1.18
						c0.28,0.26,0.23,0.53-0.03,0.79c-0.24,0.25-0.5,0.26-0.77,0.04c-1.09-0.92-1.86-2.05-2.2-3.44c-0.1-0.38-0.04-0.74,0.04-1.12
						c0.1-0.42-0.03-0.74-0.4-0.95c-0.33-0.19-0.61-0.08-0.89,0.18c-0.3,0.29-0.6,0.57-0.8,0.95c-0.14,0.25-0.35,0.26-0.57,0.19
						c-0.41-0.12-0.65-0.72-0.36-1.03c0.55-0.59,0.95-1.29,1.54-1.82c0.29-0.27,0.51-0.64,0.77-0.95c0.37-0.41,0.73-0.83,1.14-1.22
						c0.19-0.18,0.45-0.14,0.67,0.08c0.32,0.33,0.64,0.64,1,0.92c0.81,0.62,1.55,1.33,2.37,1.95
						C30.26,121.96,30.28,123.07,29.5,124.01z M27.19,121.14c-0.39-0.33-0.78-0.67-1.19-1c-0.29-0.23-0.54-0.17-0.81,0.16
						c-0.23,0.26-0.25,0.51,0.03,0.75c0.34,0.27,0.67,0.54,0.98,0.84c0.52,0.48,1.07,0.9,1.66,1.29c0.19,0.11,0.46,0.17,0.66-0.03
						c0.2-0.19,0.21-0.43,0.08-0.68c-0.08-0.15-0.18-0.28-0.31-0.39L27.19,121.14z"/>
					<path class="st5" d="M31.97,130.87c-0.74-0.54-1.51-1.04-2.04-1.85c-0.51-0.77-0.44-1.53-0.17-2.3
						c0.17-0.46,0.47-0.87,0.79-1.24c0.83-1.02,2.14-1.25,3.32-0.64c0.49,0.25,0.99,0.49,1.46,0.76c1.09,0.63,2.02,1.43,2.19,2.79
						c0.05,0.45,0.03,0.91-0.25,1.32c-0.3,0.43-0.46,0.93-0.84,1.33c-0.66,0.72-1.47,0.94-2.37,0.74
						C33.31,131.62,32.6,131.34,31.97,130.87z M31.18,126.81c-0.2,0.49-0.46,1.1,0.04,1.82c0.38,0.51,0.89,0.81,1.38,1.17
						c0.51,0.37,1.06,0.71,1.77,0.65c0.9-0.07,1.68-0.63,1.81-1.5c0.07-0.48-0.16-0.96-0.48-1.34c-0.6-0.71-1.41-1.12-2.22-1.53
						C32.62,125.63,31.69,125.94,31.18,126.81z"/>
					<path class="st5" d="M43.36,130.07c0.33,0.15,0.65,0.3,0.96,0.46c0.99,0.46,1.18,1.52,0.71,2.41
						c-0.09,0.16-0.14,0.36-0.32,0.47c-0.27,0.17-0.27,0.4-0.14,0.65c0.32,0.59,0.1,1.12-0.22,1.6c-0.62,0.95-1.32,1.02-2.3,0.56
						c-1.29-0.59-2.56-1.2-3.85-1.78c-0.15-0.07-0.3-0.13-0.47-0.18c-0.74-0.21-0.71-0.59-0.5-1.16c0.27-0.69,0.67-1.3,0.95-1.98
						c0.2-0.49,0.33-1.06,0.7-1.48c0.14-0.17,0.22-0.39,0.27-0.6c0.13-0.59,0.57-0.71,1.11-0.45
						C41.28,129.08,42.32,129.58,43.36,130.07z M39.55,132.37c-0.29-0.12-0.56-0.12-0.72,0.19c-0.17,0.34-0.1,0.74,0.21,0.89
						c1.09,0.47,2.09,1,3.16,1.53c0.37,0.19,0.93,0.06,1.09-0.27c0.15-0.29-0.04-0.62-0.49-0.83l-2.52-1.18L39.55,132.37z
						 M41.6,130.57c-0.33-0.15-0.59-0.29-0.86-0.4c-0.42-0.18-0.8-0.06-0.91,0.27c-0.15,0.42,0.05,0.81,0.5,0.92
						c0.3,0.08,0.56,0.22,0.82,0.35c0.66,0.28,1.25,0.7,1.95,0.88c0.35,0.09,0.59-0.04,0.78-0.27c0.17-0.21-0.03-0.4-0.15-0.58
						c-0.13-0.2-0.29-0.36-0.54-0.43C42.6,131.13,42.1,130.74,41.6,130.57z"/>
					<path class="st5" d="M53.54,133.74c0.25,0.25,0.36,0.52,0.2,0.87c-0.19,0.39-0.37,0.46-0.8,0.31
						c-1.41-0.47-2.83-0.93-4.25-1.38c-0.38-0.12-0.58,0.03-0.72,0.42c-0.11,0.35-0.08,0.57,0.33,0.71
						c1.17,0.43,2.34,0.86,3.55,1.21c0.37,0.11,0.44,0.3,0.32,0.65c-0.19,0.56-0.28,0.66-0.7,0.52c-1.12-0.35-2.24-0.72-3.37-1.07
						c-0.51-0.16-0.72-0.08-0.87,0.34c-0.17,0.46,0.06,0.82,0.59,0.89c0.91,0.14,1.77,0.46,2.6,0.83c0.07,0.04,0.16,0.09,0.23,0.09
						c0.54-0.08,0.95,0.19,1.39,0.44c0.33,0.19,0.3,0.4,0.21,0.7c-0.1,0.31-0.33,0.43-0.61,0.35c-0.93-0.25-1.86-0.55-2.77-0.84
						c-0.94-0.29-1.86-0.65-2.81-0.91c-0.37-0.1-0.45-0.3-0.42-0.67c0.06-0.6,0.26-1.12,0.52-1.64c0.24-0.49,0.21-1.06,0.41-1.57
						c0.21-0.49,0.45-0.97,0.53-1.52c0.06-0.43,0.34-0.53,0.78-0.42c0.8,0.22,1.56,0.59,2.4,0.63L53.54,133.74z"/>
					<path class="st5" d="M61.36,137.32c-0.03,0.19-0.05,0.38-0.1,0.57c-0.13,0.38-0.36,0.64-0.79,0.68
						c-0.65,0.08-1.29,0.21-1.93-0.01c-0.08-0.03-0.14,0.01-0.19,0.07c-0.07,0.1,0.01,0.19,0.05,0.27c0.3,0.54,0.82,0.79,1.34,1.08
						c0.46,0.25,0.96,0.4,1.47,0.52c0.37,0.09,0.46,0.35,0.37,0.7c-0.09,0.34-0.31,0.47-0.65,0.41c-1.4-0.26-2.63-0.86-3.61-1.91
						c-0.27-0.28-0.4-0.63-0.52-0.99c-0.12-0.41-0.39-0.62-0.82-0.63c-0.38,0-0.57,0.23-0.69,0.6c-0.12,0.4-0.24,0.8-0.22,1.22
						c0,0.29-0.18,0.4-0.4,0.44c-0.42,0.1-0.92-0.31-0.82-0.72c0.19-0.78,0.19-1.59,0.44-2.35c0.12-0.38,0.12-0.81,0.2-1.21
						c0.12-0.54,0.22-1.09,0.39-1.62c0.08-0.25,0.33-0.34,0.62-0.26c0.44,0.13,0.88,0.24,1.33,0.3c1.01,0.14,2.01,0.39,3.02,0.52
						C61.01,135.16,61.58,136.12,61.36,137.32z M57.94,135.97c-0.5-0.09-1.01-0.2-1.52-0.28c-0.37-0.06-0.55,0.12-0.63,0.54
						c-0.07,0.34,0.03,0.57,0.4,0.64c0.42,0.07,0.85,0.14,1.27,0.24c0.68,0.16,1.38,0.25,2.08,0.3c0.22,0.01,0.49-0.08,0.56-0.36
						c0.08-0.26-0.03-0.48-0.26-0.64c-0.14-0.1-0.29-0.16-0.46-0.19L57.94,135.97z"/>
					<path class="st5" d="M67,139.1c-0.05,0.73-0.08,1.47-0.14,2.2c-0.05,0.56-0.26,0.72-0.78,0.67c-0.25-0.02-0.39-0.11-0.4-0.38
						c0-0.12-0.05-0.25-0.05-0.37c0.08-0.94,0.13-1.87,0.12-2.8c0-0.33,0.07-0.65,0.05-0.98c-0.03-0.3-0.16-0.47-0.48-0.46
						c-0.66,0.03-1.31-0.19-1.98-0.12c-0.27,0.03-0.51-0.04-0.51-0.39c-0.02-0.43,0.16-0.78,0.48-0.74c1.1,0.16,2.33,0.13,3.45,0.2
						c0.98,0.06,2.05,0.19,3.04,0.19c0.24-0.01,0.46,0.06,0.45,0.36c0,0.32,0,0.62-0.41,0.72c-0.15,0.05-0.3,0.05-0.44,0.04
						l-1.55-0.1c-0.52-0.03-0.71,0.11-0.76,0.63c-0.05,0.45-0.06,0.89-0.08,1.33L67,139.1z"/>
					<path class="st5" d="M81.79,137.06c0.02,0.19,0.07,0.38,0.07,0.57c-0.01,0.4-0.15,0.71-0.56,0.89
						c-0.6,0.26-1.17,0.58-1.85,0.56c-0.08,0-0.13,0.05-0.16,0.12c-0.03,0.12,0.07,0.17,0.13,0.25c0.45,0.43,1.02,0.52,1.6,0.63
						c0.51,0.1,1.04,0.09,1.56,0.07c0.38-0.02,0.55,0.2,0.56,0.56c0.02,0.35-0.15,0.54-0.5,0.58c-1.42,0.17-2.76-0.05-4.01-0.76
						c-0.34-0.19-0.57-0.48-0.79-0.8c-0.24-0.36-0.56-0.48-0.97-0.36c-0.36,0.11-0.48,0.39-0.48,0.77c0,0.42,0.01,0.83,0.15,1.24
						c0.09,0.27-0.05,0.44-0.25,0.54c-0.37,0.22-0.97-0.02-1-0.44c-0.05-0.8-0.29-1.57-0.27-2.37c0-0.4-0.12-0.81-0.17-1.21
						c-0.04-0.55-0.11-1.1-0.11-1.66c0-0.26,0.21-0.42,0.52-0.44c0.45-0.01,0.91-0.03,1.36-0.1c1.01-0.16,2.04-0.22,3.04-0.39
						C80.82,135.1,81.65,135.85,81.79,137.06z M78.13,136.78c-0.51,0.06-1.02,0.11-1.54,0.18c-0.37,0.06-0.49,0.27-0.44,0.7
						c0.03,0.35,0.2,0.53,0.57,0.49c0.43-0.06,0.85-0.11,1.28-0.14c0.7-0.05,1.39-0.17,2.08-0.33c0.21-0.06,0.44-0.22,0.43-0.51
						c0-0.27-0.17-0.45-0.44-0.53c-0.17-0.05-0.33-0.06-0.5-0.04L78.13,136.78z"/>
					<path class="st5" d="M85.37,136.78c0.09,1.14,0.42,2.12,0.6,3.15c0.06,0.3-0.02,0.59-0.37,0.7c-0.34,0.1-0.69-0.04-0.84-0.36
						c-0.07-0.17-0.13-0.34-0.14-0.52c-0.11-1.06-0.4-2.1-0.65-3.13c-0.12-0.51-0.11-1.02-0.23-1.52c-0.11-0.45,0.39-0.44,0.65-0.54
						c0.23-0.08,0.43,0.11,0.48,0.35C85.03,135.56,85.11,136.23,85.37,136.78z"/>
					<path class="st5" d="M91.96,138.91c-0.27,0.12-0.53,0.07-0.81-0.14c-1.24-0.94-2.51-1.85-3.74-2.83
						c-0.33-0.25-0.66-0.49-0.99-0.75c-0.21-0.17-0.44-0.35-0.34-0.65c0.1-0.32,0.42-0.36,0.69-0.34c0.39,0.01,0.78,0.11,1.1,0.37
						c1.01,0.82,2.06,1.61,3.13,2.39c0.46,0.33,0.58,0.28,0.78-0.25c0.31-0.84,0.49-1.73,0.82-2.56c0.17-0.42,0.25-0.87,0.4-1.31
						c0.18-0.52,0.58-0.76,1.04-0.91c0.3-0.1,0.52,0.1,0.5,0.43c-0.01,0.18-0.09,0.35-0.15,0.52c-0.36,1.2-0.71,2.41-1.16,3.59
						c-0.14,0.36-0.22,0.74-0.29,1.12C92.79,138.25,92.44,138.76,91.96,138.91z"/>
					<path class="st5" d="M103.83,134.13c-0.37,0.22-0.73,0.17-1.14-0.13c-0.5-0.38-1.07-0.46-1.68-0.16
						c-0.8,0.39-1.61,0.77-2.45,1.1c-0.5,0.2-0.73,0.54-0.79,1.05c-0.08,0.63-0.32,1.14-1,1.33c-0.45,0.14-0.66,0.02-0.61-0.43
						c0.12-0.94,0.42-1.84,0.57-2.77c0.16-1.02,0.38-2.01,0.58-3.01c0.03-0.14,0.06-0.28,0.1-0.41c0.23-0.62,0.78-0.83,1.4-0.52
						c0.32,0.15,0.58,0.4,0.86,0.58c0.52,0.35,1.07,0.66,1.64,0.92c0.95,0.45,1.77,1.11,2.71,1.59
						C104.53,133.54,104.45,133.85,103.83,134.13z M99.24,133.29c0.2-0.09,0.41-0.16,0.6-0.29c0.4-0.24,0.4-0.46-0.01-0.68
						c-0.3-0.16-0.6-0.29-0.87-0.5c-0.26-0.21-0.45-0.14-0.48,0.19c-0.05,0.42-0.14,0.82-0.23,1.22c-0.05,0.3,0.09,0.42,0.38,0.32
						C98.83,133.5,99.03,133.38,99.24,133.29z"/>
					<path class="st5" d="M106.52,125.32c0.48-0.04,0.85-0.41,1.34-0.49c0.95-0.17,1.74,0.04,2.46,0.75c0.6,0.6,0.99,1.3,1.12,2.08
						c0.12,0.77-0.07,1.54-0.7,2.17c-0.64,0.62-1.37,1.12-2.11,1.58c-0.75,0.45-1.49,0.92-2.25,1.36c-0.36,0.2-0.68,0.04-0.87-0.42
						c-0.17-0.44-0.44-0.84-0.71-1.21c-0.62-0.84-1.11-1.76-1.65-2.65c-0.36-0.59-0.33-0.63,0.13-1.1L106.52,125.32z M105.93,130.59
						c0.39,0.62,0.54,0.64,1.18,0.27c0.67-0.38,1.26-0.88,1.95-1.26c0.76-0.41,1.19-1.34,0.95-2.03c-0.36-1.03-1-1.67-2.19-1.34
						c-1,0.29-1.73,1.02-2.61,1.5c-0.08,0.04-0.15,0.11-0.24,0.15c-0.37,0.18-0.46,0.46-0.24,0.81l0.65,1.02L105.93,130.59z"/>
					<path class="st5" d="M115.04,118.84c0.35-0.08,0.63-0.02,0.84,0.3c0.23,0.37,0.19,0.56-0.17,0.84
						c-1.16,0.93-2.31,1.88-3.45,2.84c-0.31,0.25-0.29,0.5-0.03,0.83c0.23,0.28,0.44,0.37,0.78,0.1c0.99-0.75,1.98-1.51,2.93-2.34
						c0.29-0.25,0.49-0.21,0.72,0.08c0.37,0.46,0.4,0.59,0.06,0.87c-0.9,0.76-1.81,1.5-2.71,2.26c-0.41,0.34-0.45,0.57-0.18,0.92
						c0.29,0.39,0.72,0.39,1.07-0.02c0.6-0.69,1.34-1.24,2.1-1.74c0.07-0.04,0.16-0.09,0.2-0.15c0.22-0.49,0.67-0.7,1.12-0.93
						c0.34-0.18,0.5-0.03,0.7,0.2c0.21,0.25,0.19,0.51-0.03,0.7c-0.71,0.65-1.46,1.27-2.2,1.88c-0.75,0.64-1.55,1.21-2.28,1.88
						c-0.28,0.26-0.49,0.22-0.79-0.01c-0.47-0.37-0.8-0.82-1.1-1.32c-0.29-0.47-0.78-0.75-1.1-1.19c-0.3-0.44-0.57-0.91-0.99-1.27
						c-0.34-0.28-0.27-0.57,0.07-0.88c0.61-0.55,1.34-0.99,1.82-1.69L115.04,118.84z"/>
					<path class="st5" d="M119.97,119.84c0.34,0.32,0.69,0.64,1.03,0.97c0.27,0.26,0.29,0.52,0.04,0.81
						c-0.25,0.28-0.51,0.37-0.84,0.12c-0.51-0.4-0.94-0.88-1.41-1.33c-0.75-0.71-1.52-1.39-2.29-2.09c-0.27-0.24-0.17-0.8,0.18-0.98
						c0.27-0.12,0.55-0.23,0.84-0.23c1.16,0.01,2.31-0.25,3.49-0.22c0.44,0.01,0.89-0.06,1.32-0.14c0.1-0.03,0.25,0.02,0.28-0.14
						c0.03-0.13-0.04-0.24-0.14-0.32c-0.24-0.19-0.52-0.34-0.7-0.57c-0.42-0.56-1.12-0.83-1.46-1.47c-0.2-0.36-0.13-0.61,0.14-0.84
						c0.28-0.25,0.53-0.13,0.77,0.09l2.14,2.04c0.42,0.4,0.87,0.76,1.26,1.2c0.19,0.2,0.41,0.37,0.31,0.66
						c-0.1,0.31-0.31,0.54-0.64,0.59c-0.53,0.07-1.08,0.16-1.62,0.14c-0.79-0.04-1.57,0.12-2.36,0.15l-1.13,0.07
						c-0.15,0.01-0.36-0.06-0.43,0.14c-0.06,0.18,0.12,0.27,0.23,0.37C119.3,119.2,119.65,119.51,119.97,119.84L119.97,119.84z"/>
					<path class="st5" d="M125.4,106.85c0.32-0.16,0.61-0.17,0.89,0.09c0.31,0.3,0.32,0.5,0.04,0.86c-0.9,1.18-1.79,2.38-2.68,3.58
						c-0.24,0.32-0.16,0.56,0.17,0.82c0.29,0.22,0.51,0.26,0.78-0.08c0.79-0.97,1.57-1.94,2.29-2.97c0.22-0.32,0.42-0.32,0.71-0.09
						c0.47,0.36,0.53,0.48,0.27,0.83c-0.69,0.95-1.4,1.89-2.09,2.84c-0.32,0.43-0.31,0.66,0.04,0.93c0.38,0.31,0.79,0.21,1.04-0.27
						c0.42-0.81,1-1.52,1.62-2.19c0.06-0.06,0.14-0.12,0.16-0.19c0.1-0.53,0.48-0.84,0.87-1.17c0.29-0.25,0.48-0.15,0.72,0.03
						c0.26,0.2,0.3,0.45,0.13,0.69c-0.54,0.8-1.12,1.58-1.69,2.35c-0.58,0.8-1.22,1.55-1.77,2.36c-0.21,0.32-0.43,0.33-0.77,0.18
						c-0.55-0.25-0.97-0.61-1.38-1.02c-0.39-0.39-0.94-0.54-1.35-0.89c-0.4-0.35-0.77-0.74-1.26-0.99c-0.39-0.19-0.4-0.49-0.14-0.87
						c0.46-0.68,1.06-1.28,1.37-2.07L125.4,106.85z"/>
					<path class="st5" d="M129.05,105.52c0.88,0.72,1.82,1.16,2.69,1.74c0.26,0.16,0.42,0.42,0.25,0.76
						c-0.16,0.32-0.51,0.47-0.84,0.36c-0.17-0.07-0.34-0.14-0.48-0.26c-0.84-0.66-1.8-1.16-2.72-1.69
						c-0.45-0.27-0.81-0.62-1.26-0.89c-0.4-0.24-0.05-0.59,0.06-0.84c0.1-0.22,0.37-0.24,0.58-0.1
						C127.93,104.92,128.47,105.33,129.05,105.52z"/>
					<path class="st5" d="M132.71,97.67c0.17,0.09,0.35,0.15,0.52,0.26c0.33,0.23,0.51,0.52,0.44,0.95
						c-0.11,0.64-0.16,1.3-0.55,1.85c-0.05,0.07-0.03,0.14,0.02,0.2c0.08,0.09,0.18,0.04,0.28,0.03c0.6-0.14,0.99-0.57,1.41-0.99
						c0.36-0.37,0.65-0.82,0.91-1.27c0.19-0.33,0.47-0.35,0.77-0.16c0.3,0.18,0.37,0.43,0.21,0.74c-0.64,1.28-1.56,2.28-2.83,2.94
						c-0.34,0.18-0.71,0.21-1.1,0.22c-0.43,0-0.71,0.2-0.84,0.61c-0.11,0.36,0.06,0.61,0.38,0.82c0.35,0.23,0.7,0.45,1.11,0.56
						c0.28,0.08,0.34,0.28,0.31,0.51c-0.03,0.43-0.55,0.8-0.92,0.59c-0.7-0.4-1.47-0.62-2.13-1.08c-0.33-0.22-0.74-0.34-1.1-0.53
						c-0.49-0.27-0.98-0.52-1.45-0.83c-0.22-0.15-0.24-0.41-0.08-0.67c0.24-0.38,0.48-0.77,0.66-1.19c0.42-0.93,0.94-1.82,1.34-2.76
						C130.54,97.41,131.62,97.12,132.71,97.67z M130.46,100.58c-0.23,0.46-0.47,0.92-0.69,1.39c-0.16,0.34-0.04,0.56,0.34,0.75
						c0.31,0.17,0.56,0.13,0.72-0.21c0.18-0.39,0.37-0.77,0.59-1.15c0.34-0.61,0.63-1.26,0.87-1.92c0.07-0.21,0.06-0.49-0.19-0.64
						c-0.23-0.15-0.47-0.11-0.68,0.08c-0.13,0.11-0.23,0.24-0.31,0.39L130.46,100.58z"/>
					<path class="st5" d="M140.15,89.4c-0.09,0.42-0.37,0.65-0.87,0.75c-0.62,0.1-1.06,0.47-1.26,1.12
						c-0.26,0.86-0.53,1.71-0.86,2.54c-0.19,0.51-0.1,0.91,0.24,1.3c0.41,0.49,0.62,1.01,0.3,1.64c-0.2,0.42-0.44,0.5-0.73,0.15
						c-0.6-0.73-1.07-1.56-1.64-2.3c-0.64-0.81-1.22-1.65-1.81-2.48c-0.08-0.11-0.16-0.23-0.23-0.35c-0.3-0.59-0.07-1.13,0.57-1.38
						c0.33-0.13,0.68-0.15,1.01-0.24c0.61-0.14,1.21-0.34,1.79-0.57c0.98-0.39,2.02-0.54,3.01-0.9
						C140.19,88.48,140.36,88.75,140.15,89.4z M136.41,92.19c0.07-0.2,0.16-0.41,0.2-0.64c0.09-0.46-0.06-0.6-0.5-0.45
						c-0.32,0.11-0.62,0.25-0.96,0.3c-0.33,0.05-0.41,0.23-0.19,0.49c0.28,0.32,0.51,0.66,0.74,1c0.18,0.24,0.37,0.22,0.5-0.06
						C136.29,92.63,136.34,92.41,136.41,92.19z"/>
				</g>
			</g>
			<g>
				<g>
					<path class="st5" d="M3.63,49.95C3.97,49.6,4,49.07,4.31,48.69c0.6-0.76,1.33-1.12,2.33-1.07c0.84,0.06,1.6,0.32,2.21,0.82
						c0.6,0.49,0.97,1.2,0.92,2.09c-0.07,0.89-0.28,1.74-0.53,2.58c-0.26,0.83-0.51,1.68-0.78,2.51C8.33,56,7.98,56.1,7.53,55.88
						c-0.42-0.22-0.88-0.34-1.34-0.43c-1.02-0.21-2-0.59-2.99-0.89c-0.66-0.2-0.67-0.25-0.63-0.91L3.63,49.95z M6.68,54.28
						c0.71,0.2,0.82,0.12,1.06-0.58c0.25-0.73,0.36-1.5,0.62-2.23c0.29-0.81,0-1.79-0.63-2.15c-0.95-0.53-1.85-0.59-2.53,0.45
						c-0.56,0.87-0.62,1.91-0.97,2.85C4.2,52.7,4.2,52.79,4.16,52.89C4,53.27,4.13,53.54,4.52,53.65l1.16,0.34L6.68,54.28z"/>
					<path class="st5" d="M9.13,42.24c0.98,0.59,1.97,0.89,2.91,1.34c0.28,0.12,0.47,0.36,0.35,0.71c-0.11,0.33-0.44,0.54-0.78,0.47
						c-0.18-0.04-0.35-0.09-0.51-0.19c-0.93-0.53-1.94-0.89-2.93-1.29c-0.48-0.2-0.89-0.5-1.37-0.7C6.37,42.4,6.67,42,6.74,41.74
						c0.07-0.23,0.34-0.28,0.56-0.18C7.94,41.8,8.53,42.13,9.13,42.24z"/>
					<path class="st5" d="M16.29,36.67c-0.55,0.91-1.01,1.65-1.66,2.25c-0.33,0.3-0.71,0.52-1.13,0.6c-0.3,0.06-0.64,0.06-0.78-0.35
						c-0.13-0.38,0.02-0.77,0.34-0.99c0.27-0.18,0.6-0.2,0.85-0.42c0.81-0.71,1.34-1.61,1.73-2.59c0.07-0.18,0.18-0.36,0.22-0.54
						c0.05-0.17,0.13-0.39-0.05-0.5c-0.17-0.12-0.36-0.02-0.49,0.11c-0.33,0.32-0.7,0.61-0.96,0.98c-0.5,0.76-1.09,1.43-1.76,2.03
						c-0.41,0.37-0.87,0.75-1.51,0.61c-0.75-0.18-1.22-0.81-1.15-1.61c0.08-0.91,0.4-1.74,0.92-2.49c0.27-0.38,0.49-0.78,0.76-1.14
						c0.3-0.41,0.72-0.64,1.1-0.95c0.31-0.26,0.7-0.32,1.09-0.29c0.2,0.02,0.29,0.14,0.35,0.3c0.1,0.3,0.13,0.59-0.13,0.81
						c-0.14,0.12-0.29,0.22-0.45,0.3c-1.11,0.5-1.67,1.46-2.09,2.53c-0.11,0.27-0.38,0.67,0,0.9c0.34,0.21,0.63-0.14,0.81-0.37
						c0.5-0.6,0.98-1.22,1.44-1.85c0.37-0.52,0.87-0.97,1.47-1.3c0.66-0.35,1.2-0.21,1.71,0.24c0.48,0.41,0.46,1.01,0.32,1.5
						C16.97,35.28,16.84,36.17,16.29,36.67z"/>
					<path class="st5" d="M19.98,21.78c0.33-0.13,0.62-0.12,0.88,0.17c0.29,0.33,0.28,0.53-0.03,0.86c-0.99,1.1-1.98,2.23-2.96,3.35
						c-0.26,0.3-0.2,0.54,0.1,0.83c0.27,0.24,0.49,0.3,0.78-0.02c0.86-0.9,1.72-1.81,2.52-2.77c0.24-0.3,0.45-0.29,0.72-0.03
						c0.44,0.4,0.49,0.52,0.2,0.85c-0.77,0.89-1.55,1.77-2.32,2.67c-0.35,0.4-0.36,0.63-0.03,0.93c0.35,0.34,0.77,0.27,1.05-0.19
						c0.49-0.78,1.12-1.44,1.79-2.05c0.06-0.05,0.14-0.11,0.17-0.18c0.14-0.52,0.55-0.8,0.96-1.1c0.31-0.23,0.49-0.11,0.72,0.09
						c0.25,0.22,0.26,0.47,0.08,0.7c-0.6,0.75-1.24,1.49-1.87,2.21c-0.64,0.75-1.34,1.44-1.95,2.22c-0.24,0.3-0.45,0.3-0.78,0.12
						c-0.52-0.29-0.92-0.68-1.29-1.13c-0.36-0.42-0.89-0.61-1.28-1c-0.37-0.38-0.71-0.8-1.18-1.09c-0.38-0.22-0.36-0.52-0.07-0.88
						c0.52-0.64,1.16-1.19,1.53-1.95L19.98,21.78z"/>
					<path class="st5" d="M27.23,20.63c0.3,0.36,0.61,0.72,0.9,1.09c0.24,0.29,0.22,0.55-0.05,0.81c-0.28,0.25-0.55,0.31-0.85,0.02
						c-0.46-0.45-0.83-0.99-1.24-1.49c-0.65-0.79-1.34-1.57-2.02-2.35c-0.24-0.27-0.07-0.82,0.3-0.95c0.28-0.09,0.57-0.16,0.86-0.13
						c1.15,0.15,2.33,0.03,3.49,0.2c0.44,0.07,0.89,0.05,1.32,0.02c0.11-0.01,0.24,0.05,0.3-0.1c0.04-0.12-0.01-0.24-0.1-0.34
						c-0.21-0.22-0.48-0.4-0.63-0.66c-0.35-0.6-1.01-0.96-1.27-1.63c-0.16-0.38-0.05-0.62,0.24-0.81c0.31-0.21,0.54-0.07,0.75,0.19
						l1.88,2.28c0.37,0.45,0.77,0.86,1.11,1.34c0.16,0.22,0.36,0.42,0.22,0.7c-0.14,0.29-0.38,0.5-0.71,0.51
						c-0.54,0-1.1,0.02-1.63-0.05c-0.78-0.13-1.57-0.07-2.36-0.14l-1.13-0.07c-0.15-0.01-0.35-0.11-0.44,0.09
						c-0.08,0.17,0.09,0.28,0.18,0.4C26.64,19.91,26.95,20.26,27.23,20.63L27.23,20.63z"/>
					<path class="st5" d="M42.65,12.63c-0.35,0.25-0.71,0.23-1.15-0.03c-0.53-0.34-1.1-0.37-1.68-0.01
						c-0.77,0.46-1.54,0.91-2.34,1.31c-0.48,0.25-0.68,0.61-0.69,1.12c-0.03,0.64-0.22,1.16-0.88,1.42
						c-0.43,0.18-0.66,0.07-0.64-0.38c0.04-0.94,0.26-1.87,0.33-2.81c0.07-1.03,0.2-2.04,0.32-3.05c0.01-0.14,0.04-0.28,0.07-0.41
						c0.17-0.64,0.71-0.89,1.35-0.65c0.33,0.13,0.61,0.34,0.91,0.5c0.55,0.3,1.12,0.56,1.71,0.78c0.99,0.37,1.86,0.95,2.84,1.35
						C43.29,11.98,43.24,12.3,42.65,12.63z M38,12.2c0.19-0.11,0.4-0.2,0.58-0.34c0.38-0.28,0.36-0.49-0.07-0.68
						c-0.31-0.14-0.62-0.23-0.91-0.42c-0.27-0.18-0.46-0.1-0.46,0.24c-0.01,0.42-0.07,0.83-0.12,1.24c-0.03,0.3,0.13,0.41,0.41,0.29
						C37.62,12.44,37.8,12.31,38,12.2z"/>
					<path class="st5" d="M48.83,3.59c0.48,0.08,0.93-0.2,1.42-0.16c0.96,0.05,1.68,0.44,2.21,1.3c0.44,0.72,0.65,1.5,0.6,2.28
						C53,7.79,52.63,8.5,51.87,8.96C51.1,9.42,50.28,9.73,49.45,10c-0.83,0.26-1.67,0.54-2.5,0.79c-0.39,0.11-0.67-0.12-0.75-0.62
						c-0.06-0.47-0.23-0.91-0.41-1.34c-0.41-0.96-0.66-1.97-0.98-2.96c-0.21-0.66-0.18-0.69,0.39-1.04L48.83,3.59z M47.02,8.57
						c0.24,0.7,0.37,0.75,1.08,0.54c0.74-0.22,1.44-0.56,2.19-0.77c0.83-0.22,1.47-1.03,1.4-1.74c-0.11-1.09-0.57-1.86-1.82-1.82
						c-1.04,0.04-1.92,0.58-2.89,0.84c-0.09,0.02-0.17,0.07-0.27,0.09c-0.4,0.09-0.55,0.34-0.42,0.73l0.39,1.15L47.02,8.57z"/>
					<path class="st5" d="M61.32,7.04c-0.91,0.08-1.82,0.22-2.75-0.05c-0.89-0.24-1.34-0.86-1.64-1.62
						c-0.17-0.46-0.21-0.96-0.23-1.45c-0.05-1.31,0.79-2.35,2.07-2.67c0.53-0.14,1.07-0.29,1.6-0.39c1.23-0.24,2.47-0.26,3.49,0.66
						c0.33,0.3,0.63,0.66,0.68,1.16c0.05,0.52,0.26,1,0.24,1.55c-0.03,0.98-0.48,1.67-1.3,2.12C62.82,6.72,62.11,6.98,61.32,7.04z
						 M58.05,4.51c0.18,0.5,0.38,1.13,1.23,1.34c0.63,0.14,1.21,0.03,1.8-0.03c0.63-0.06,1.27-0.17,1.76-0.68
						c0.64-0.64,0.85-1.58,0.37-2.32c-0.27-0.41-0.76-0.62-1.25-0.69c-0.91-0.14-1.8,0.09-2.68,0.31
						C58.36,2.68,57.87,3.52,58.05,4.51z"/>
					<path class="st5" d="M75.91,2.22c-0.01,0.19,0.01,0.39-0.02,0.58c-0.07,0.39-0.26,0.68-0.68,0.79
						c-0.63,0.17-1.25,0.4-1.91,0.28c-0.08-0.01-0.14,0.03-0.17,0.1c-0.05,0.11,0.04,0.18,0.09,0.26c0.38,0.49,0.93,0.66,1.49,0.86
						c0.49,0.17,1.01,0.25,1.53,0.3c0.38,0.03,0.51,0.28,0.47,0.64c-0.03,0.35-0.23,0.51-0.58,0.5c-1.43-0.04-2.73-0.46-3.85-1.34
						c-0.31-0.24-0.49-0.56-0.66-0.9c-0.18-0.39-0.48-0.56-0.9-0.5c-0.38,0.06-0.53,0.31-0.59,0.69c-0.06,0.42-0.12,0.82-0.04,1.24
						c0.05,0.28-0.12,0.43-0.33,0.5c-0.4,0.16-0.96-0.17-0.92-0.58c0.07-0.8-0.05-1.6,0.09-2.39c0.06-0.39,0-0.82,0.02-1.22
						c0.04-0.55,0.06-1.11,0.14-1.66C69.12,0.1,69.35-0.03,69.65,0c0.45,0.06,0.9,0.11,1.36,0.1c1.02-0.01,2.05,0.09,3.07,0.06
						C75.24,0.13,75.95,0.99,75.91,2.22z M72.33,1.39c-0.51-0.02-1.03-0.04-1.55-0.05c-0.37,0-0.53,0.2-0.54,0.63
						c-0.02,0.35,0.12,0.56,0.49,0.57c0.43,0,0.86,0.02,1.29,0.05c0.7,0.06,1.4,0.04,2.11-0.01c0.22-0.03,0.47-0.16,0.5-0.44
						c0.04-0.27-0.1-0.47-0.36-0.59c-0.16-0.07-0.31-0.11-0.48-0.12L72.33,1.39z"/>
					<path class="st5" d="M94.95,7.74c-0.67,1.7-1.68,2.29-3.58,1.91c-0.93-0.18-1.83-0.48-2.7-0.86c-1.08-0.46-1.79-1.43-1.71-2.66
						c0.06-0.91,0.37-1.81,1.03-2.48c0.55-0.56,1.29-0.78,2.07-0.68c1.21,0.15,2.34,0.63,3.5,1.03c0.71,0.24,1.15,0.79,1.48,1.45
						c0.1,0.21,0.03,0.41-0.1,0.55c-0.18,0.17-0.41,0.33-0.71,0.27c-0.27-0.05-0.48-0.18-0.66-0.4c-0.94-1.15-2.22-1.55-3.65-1.57
						c-0.83,0-1.39,0.51-1.55,1.31c-0.23,1.08,0.2,1.8,1.24,2.21c0.83,0.33,1.68,0.54,2.58,0.56c0.26,0,0.49-0.06,0.72-0.17
						c0.13-0.08,0.3-0.15,0.28-0.33c-0.01-0.19-0.17-0.23-0.33-0.28c-0.41-0.13-1.8-0.57-2.21-0.69c-0.3-0.1-0.45-0.27-0.39-0.59
						c0.08-0.44,0.31-0.65,0.68-0.63c0.52,0.04,1.93,0.64,2.42,0.79c0.4,0.13,0.82,0.12,1.2,0.35C95.12,7.17,95.15,7.13,94.95,7.74z
						"/>
					<path class="st5" d="M105.51,11.57c-0.09,0.17-0.16,0.35-0.27,0.51c-0.24,0.32-0.54,0.5-0.96,0.41
						c-0.64-0.12-1.3-0.19-1.84-0.6c-0.06-0.05-0.14-0.03-0.2,0.01c-0.09,0.08-0.05,0.18-0.03,0.28c0.12,0.61,0.54,1.01,0.95,1.43
						c0.36,0.37,0.8,0.67,1.24,0.95c0.33,0.2,0.34,0.48,0.13,0.78c-0.19,0.3-0.44,0.36-0.74,0.19c-1.26-0.67-2.24-1.62-2.85-2.92
						c-0.17-0.35-0.19-0.72-0.19-1.1c0.01-0.43-0.18-0.71-0.58-0.85c-0.36-0.12-0.61,0.04-0.84,0.36c-0.24,0.35-0.47,0.69-0.59,1.1
						c-0.08,0.28-0.29,0.33-0.52,0.3c-0.43-0.04-0.78-0.57-0.57-0.93c0.42-0.69,0.66-1.45,1.14-2.1c0.23-0.33,0.37-0.73,0.56-1.09
						c0.28-0.48,0.54-0.97,0.87-1.42c0.15-0.21,0.42-0.23,0.68-0.06c0.38,0.25,0.76,0.5,1.17,0.69c0.92,0.44,1.79,0.99,2.72,1.42
						C105.83,9.41,106.09,10.49,105.51,11.57z M102.66,9.24c-0.45-0.24-0.9-0.5-1.37-0.73c-0.33-0.17-0.56-0.06-0.76,0.32
						c-0.18,0.3-0.14,0.55,0.19,0.73c0.38,0.19,0.76,0.4,1.13,0.62c0.6,0.36,1.24,0.66,1.89,0.93c0.21,0.07,0.49,0.07,0.64-0.17
						c0.16-0.22,0.12-0.46-0.06-0.69c-0.11-0.13-0.23-0.24-0.38-0.32L102.66,9.24z"/>
					<path class="st5" d="M113.64,22.72c-0.36-0.23-0.48-0.58-0.4-1.08c0.12-0.62-0.07-1.16-0.61-1.57
						c-0.71-0.54-1.41-1.09-2.08-1.69c-0.41-0.36-0.82-0.41-1.3-0.23c-0.61,0.21-1.16,0.23-1.64-0.29
						c-0.33-0.33-0.31-0.59,0.11-0.74c0.89-0.31,1.83-0.46,2.73-0.74c0.98-0.32,1.97-0.57,2.95-0.83c0.13-0.04,0.27-0.07,0.41-0.09
						c0.66-0.08,1.09,0.32,1.1,1.02c0.01,0.35-0.09,0.69-0.13,1.03c-0.08,0.62-0.11,1.25-0.09,1.88c0.03,1.05-0.19,2.08-0.2,3.14
						C114.49,23.07,114.17,23.14,113.64,22.72z M112.32,18.24c0.17,0.13,0.33,0.29,0.53,0.41c0.4,0.25,0.59,0.15,0.6-0.31
						c0.01-0.34-0.02-0.67,0.05-1c0.07-0.32-0.07-0.47-0.39-0.34c-0.39,0.15-0.79,0.25-1.19,0.35c-0.29,0.09-0.33,0.27-0.12,0.49
						C111.95,17.97,112.14,18.1,112.32,18.24z"/>
					<path class="st5" d="M122.48,22.99c0.46,0.6,0.88,1.23,1.43,1.75c0.38,0.35,0.59,0.8,0.95,1.16c0.17,0.18,0.37,0.34,0.52,0.53
						c0.22,0.29,0.19,0.66-0.05,0.87c-0.29,0.25-0.52,0.2-0.87-0.07c-0.75-0.55-1.12-1.41-1.77-2.05c-0.43-0.42-0.79-0.91-1.2-1.37
						c-0.29-0.33-0.59-0.35-0.85-0.07c-0.32,0.31-0.32,0.56-0.03,0.88c0.78,0.86,1.44,1.82,2.24,2.67c0.25,0.26,0.23,0.7,0,0.91
						c-0.24,0.22-0.69,0.19-0.94-0.1c-0.55-0.66-1.17-1.26-1.67-1.98c-0.19-0.29-0.47-0.54-0.75-0.76c-0.24-0.18-0.51-0.2-0.76,0.02
						c-0.33,0.27-0.54,0.67-0.96,0.85c-0.3,0.12-0.54,0.23-0.77-0.08c-0.23-0.28-0.24-0.66,0.02-0.9c1.31-1.2,2.72-2.26,4.06-3.41
						c0.13-0.11,0.27-0.02,0.4,0.01L122.48,22.99z"/>
					<path class="st5" d="M127.2,33.03c-1.02,0.51-1.81,1.19-2.69,1.74c-0.25,0.17-0.55,0.21-0.79-0.08
						c-0.22-0.27-0.22-0.65,0.02-0.91c0.13-0.13,0.27-0.25,0.43-0.33c0.95-0.5,1.79-1.16,2.66-1.79c0.43-0.3,0.9-0.48,1.33-0.78
						c0.38-0.27,0.56,0.2,0.75,0.4c0.16,0.18,0.06,0.44-0.15,0.57C128.21,32.26,127.61,32.58,127.2,33.03z"/>
					<path class="st5" d="M134.08,40.24c-0.05,0.33,0.13,0.62,0.23,0.91c0.22,0.67,0.12,1.28-0.18,1.88
						c-0.15,0.29-0.53,0.36-0.84,0.15c-0.28-0.2-0.47-0.49-0.41-0.82c0.34-1.64-0.49-2.86-1.49-3.99c-0.29-0.33-0.69-0.47-1.13-0.37
						c-1.5,0.3-2.02,1.26-1.54,2.65c0.17,0.5,0.42,0.98,0.66,1.44c0.2,0.38,0.51,0.78,0.94,1.01c0.25,0.14,0.48,0.28,0.67,0.5
						c0.27,0.32,0.24,0.67,0.03,1c-0.2,0.33-0.51,0.17-0.79,0.09c-1.34-0.41-2.07-2.16-2.61-3.32c-0.6-1.32-0.69-3.26,0.86-3.98
						c0.3-0.14,0.59-0.27,0.86-0.43c0.83-0.51,1.65-0.35,2.46,0.02c0.32,0.14,0.55,0.41,0.73,0.68c0.23,0.37,0.57,0.64,0.78,1.02
						L134.08,40.24z"/>
					<path class="st5" d="M132.01,52.48c-0.2-0.9-0.46-1.78-0.32-2.73c0.12-0.92,0.68-1.45,1.39-1.84c0.43-0.23,0.93-0.34,1.41-0.42
						c1.29-0.22,2.43,0.47,2.92,1.7c0.21,0.51,0.43,1.02,0.6,1.54c0.4,1.19,0.58,2.41-0.19,3.54c-0.26,0.37-0.57,0.71-1.06,0.82
						c-0.51,0.12-0.96,0.4-1.51,0.45c-0.97,0.1-1.72-0.25-2.27-1C132.52,53.92,132.17,53.25,132.01,52.48z M134.08,48.9
						c-0.47,0.24-1.07,0.52-1.16,1.4c-0.05,0.64,0.14,1.2,0.27,1.78c0.14,0.62,0.33,1.23,0.9,1.66c0.72,0.54,1.68,0.63,2.35,0.06
						c0.37-0.32,0.51-0.83,0.52-1.33c0.02-0.92-0.32-1.77-0.66-2.61C135.94,48.96,135.04,48.59,134.08,48.9z"/>
				</g>
			</g>
			<circle class="st5" cx="138.61" cy="70.13" r="2.81"/>
			<circle class="st5" cx="2.81" cy="70.13" r="2.81"/>
		</g>
	</g>
</g>
</svg>
