<?xml version="1.0" encoding="utf-8"?>
<!-- Generator: Adobe Illustrator 27.0.0, SVG Export Plug-In . SVG Version: 6.00 Build 0)  -->
<svg version="1.1" id="Capa_1" xmlns="http://www.w3.org/2000/svg" xmlns:xlink="http://www.w3.org/1999/xlink" x="0px" y="0px"
	 viewBox="0 0 83.65 83.65" style="enable-background:new 0 0 83.65 83.65;" xml:space="preserve">
<style type="text/css">
	.st0{fill:#090E38;}
	.st1{fill:url(#SVGID_1_);}
	.st2{fill:#161A42;}
	.st3{fill:url(#SVGID_00000170957445800466052230000001368231979683937979_);}
	.st4{fill:url(#SVGID_00000000911366023582841830000013611789901395383478_);}
	.st5{fill:#FFFFFF;}
	.st6{fill:#E9E9EB;}
	.st7{fill:#2280C3;}
	.st8{fill:#263A6B;}
	.st9{fill:#13183B;}
	.st10{fill:#EBEBFF;}
	.st11{fill:#15336C;}
	.st12{fill:#121D3E;}
	.st13{fill:#D8CE9E;}
	.st14{fill:#5F485A;}
	.st15{fill:#17316F;}
	.st16{fill:#0A1C4F;}
	.st17{fill:#1E1A55;}
	.st18{fill:#12193B;}
	.st19{fill:#D8CD9C;}
	.st20{fill:#544A55;}
	.st21{fill:#E0E1E3;}
	.st22{fill:#15193A;}
	.st23{fill:#D6CC89;}
	.st24{fill:#434642;}
	.st25{fill:#131543;}
	.st26{fill:#3E3B38;}
	.st27{fill:#181940;}
	.st28{fill:#D7CE9D;}
	.st29{fill:#806D64;}
	.st30{opacity:0.7;fill:#6FC4D8;}
	.st31{fill:#805AE4;}
	.st32{fill:#ECB40A;}
	.st33{fill:#10B78E;}
	.st34{fill:url(#SVGID_00000165203278055336182520000014992810565377532326_);}
	.st35{fill:url(#SVGID_00000140734185670941382760000016824395317362408846_);}
	.st36{fill:url(#SVGID_00000128476172063161886570000017160554478821897099_);}
	.st37{fill:url(#SVGID_00000083808553018457119190000007401326018878507176_);}
	.st38{fill:url(#SVGID_00000008856429940074732300000013468972824935659447_);}
	.st39{fill:url(#SVGID_00000022548314694109344990000009126402802368260795_);}
	.st40{fill:url(#SVGID_00000066478876990945718260000001616394751060281473_);}
	.st41{fill:url(#SVGID_00000067223511374480709210000001952226297491839620_);}
	.st42{fill:url(#SVGID_00000054972031166866592740000016612609249966093194_);}
	.st43{fill:url(#SVGID_00000142891003675282224000000012493052174515956389_);}
	.st44{fill:url(#SVGID_00000168091010093609419540000002584921706847869327_);}
	.st45{fill:url(#SVGID_00000046300868744244057450000011091856041768271250_);}
	.st46{fill:url(#SVGID_00000024716412450660135760000011923395242628784784_);}
	.st47{fill:url(#SVGID_00000143578920722476909310000012541123484828284061_);}
	.st48{fill:url(#SVGID_00000066480465097515918140000013602678110393433223_);}
	.st49{fill:url(#SVGID_00000089548456631492675770000012241156117967052197_);}
	.st50{fill:url(#SVGID_00000052805631681862421520000000081905596335068850_);}
	.st51{fill:url(#SVGID_00000140004209396402503370000006660097318051886779_);}
	.st52{fill:url(#SVGID_00000034797785294564383030000012440125131029091476_);}
	.st53{fill:url(#SVGID_00000073722981769992190450000006310695061308579740_);}
	.st54{fill:url(#SVGID_00000170999773390386129870000017879326814962941836_);}
	.st55{fill:url(#SVGID_00000182500701666479692800000004175222909856481726_);}
	.st56{fill:url(#SVGID_00000055706265660101552040000014363614937131141533_);}
	.st57{fill:url(#SVGID_00000088131720001120380870000013116602393821128872_);}
	.st58{fill:url(#SVGID_00000118356456181800845930000003625895639985764257_);}
	.st59{fill:url(#SVGID_00000145055246075316461090000002296885966566235269_);}
	.st60{clip-path:url(#SVGID_00000102532559416249913750000018031208602713751450_);fill:#FFFFFF;}
	.st61{fill:none;stroke:#805AE4;stroke-miterlimit:10;}
	.st62{fill:url(#SVGID_00000176017177440155723650000009232326892683288707_);}
	.st63{fill:url(#SVGID_00000119078948072022800220000014438565795403035812_);}
	.st64{fill:url(#SVGID_00000076584763142859556930000006205941439989992869_);}
	.st65{fill:url(#SVGID_00000114796384424718713280000014307062887220308613_);}
	.st66{fill:url(#SVGID_00000111882992567715054770000017765296096711063972_);}
	.st67{fill:url(#SVGID_00000163047325513102813760000017141108679501244315_);}
	.st68{fill:url(#SVGID_00000080185330757772829150000006119110406166768570_);}
	.st69{fill:url(#SVGID_00000050632577769784587200000007276773120263125138_);}
	.st70{fill:url(#SVGID_00000167388196033309901220000003201815551995423674_);}
	.st71{fill:url(#SVGID_00000082368694644987362650000003463261266666084253_);}
	.st72{fill:url(#SVGID_00000034077010904001657920000015185948102198529951_);}
	.st73{fill:url(#SVGID_00000055672056519665441950000017316474223437302921_);}
	.st74{fill:#DDBB1B;}
	.st75{fill:#49CA80;}
	.st76{fill:#CF78C6;}
	.st77{fill:#BDACFF;}
	.st78{fill:#37368D;}
	.st79{fill:#E11E5E;}
	.st80{fill:#EB9F49;}
	.st81{fill:#FF6B6B;}
	.st82{fill:#38ABE6;}
	.st83{fill:url(#SVGID_00000054987205277228314920000004817875445447066500_);}
	.st84{fill:url(#SVGID_00000080909471468440358190000017512742267918827939_);}
	.st85{fill:url(#SVGID_00000083058803074030398570000016037122177246715051_);}
	.st86{fill:#E78A7E;}
	.st87{fill:#E69C78;}
	.st88{fill:#FF80E7;}
	.st89{fill:#E86480;}
	.st90{fill:url(#SVGID_00000036209495745188705730000006621013701376807577_);}
	.st91{fill:url(#SVGID_00000060725746661818110130000007794907139125456314_);}
	.st92{fill:url(#SVGID_00000002342405116066464900000016728602151816832647_);}
	.st93{fill:url(#SVGID_00000024709286623173307640000013308825253306316941_);}
	.st94{fill:url(#SVGID_00000038406639728899589860000004260015532796179611_);}
	.st95{fill:url(#SVGID_00000014614997034706380370000004003719892470438571_);}
	.st96{fill:url(#SVGID_00000047046191342711740350000008424857437556882588_);}
	.st97{fill:url(#SVGID_00000156587461749019700360000000192181891145025408_);}
	.st98{fill:url(#SVGID_00000165927782623160562150000014588516516073095837_);}
	.st99{fill:url(#SVGID_00000139978241673321992750000002978465461376949657_);}
	.st100{fill:url(#SVGID_00000008846174384603843560000003326185144607517314_);}
	.st101{fill:url(#SVGID_00000168075339172572852630000005062295143270498463_);}
	.st102{fill:url(#SVGID_00000151538326525680849360000010476421960178101437_);}
	.st103{fill:url(#SVGID_00000083794978277597925620000014723402611462837925_);}
	.st104{fill:url(#SVGID_00000076603615319466636690000015804894733181291676_);}
	.st105{fill:url(#SVGID_00000093877854437265070730000015448103509654241410_);}
	.st106{fill:url(#SVGID_00000157302261634339591600000011052850862528166063_);}
	.st107{fill:url(#SVGID_00000170275276775226659400000003145508704380346803_);}
	.st108{fill:url(#SVGID_00000128479167432087254570000008742521268889919111_);}
	.st109{fill:url(#SVGID_00000180341316473013765790000005327294615620933267_);}
	.st110{fill:url(#SVGID_00000173868198774416786880000010921024685511597463_);}
	.st111{fill:url(#SVGID_00000132772201151898744300000015117827990050060190_);}
	.st112{fill:url(#SVGID_00000127736279033090748760000003852710393493316749_);}
	.st113{fill:url(#SVGID_00000030469528988285850510000001678070917383757956_);}
	.st114{fill:url(#SVGID_00000101070810034249616520000000979412004966728873_);}
	.st115{fill:url(#SVGID_00000139979184916319848160000008277954819421716880_);}
	.st116{fill:url(#SVGID_00000158708673029312472680000017659876238269375662_);}
	.st117{fill:url(#SVGID_00000047776279274376227850000000889096396666674089_);}
	.st118{fill:url(#SVGID_00000156569173138132637040000016388479493827889046_);}
	.st119{fill:url(#SVGID_00000183957952327680910000000002668404224926758034_);}
	.st120{fill:url(#SVGID_00000018223897896652532360000007302944284072209799_);}
	.st121{fill:url(#SVGID_00000065765954300666467560000017695212306873017534_);}
	.st122{fill:url(#SVGID_00000124862033446148078890000006535067821388000683_);}
	.st123{fill:url(#SVGID_00000089569071702133040930000017430574363796944820_);}
	.st124{fill:url(#SVGID_00000138572529127796474930000000885367602316924817_);}
	.st125{fill:url(#SVGID_00000031185942373950371860000000848084692228033711_);}
	.st126{fill:url(#SVGID_00000030465741565592844640000009147649347496374717_);}
	.st127{fill:url(#SVGID_00000173132946458048639360000009426055763257228434_);}
	.st128{fill:url(#SVGID_00000065073542161300240270000000664790894317714586_);}
	.st129{fill:url(#SVGID_00000072999173671566189680000005328642575728975283_);}
	.st130{fill:url(#SVGID_00000108305498869920970440000017265013908919970744_);}
	.st131{fill:url(#SVGID_00000064320378067658108440000013416357861899403680_);}
	.st132{fill:url(#SVGID_00000017503783768428545290000013085833879548646045_);}
	.st133{fill:url(#SVGID_00000044145713285488502680000008600817271413088158_);}
	.st134{fill:url(#SVGID_00000156581417995559803470000017570552805303907492_);}
	.st135{fill:url(#SVGID_00000066510740728580169840000014511662923010211734_);}
	.st136{fill:url(#SVGID_00000033335804756087302700000011557380499055644301_);}
	.st137{fill:url(#SVGID_00000088834381415768385610000005475947703645401013_);}
	.st138{fill:url(#SVGID_00000029005490069278866690000014422697607454995854_);}
	.st139{fill:url(#SVGID_00000036943818159306431770000003240958398812695729_);}
	.st140{fill:url(#SVGID_00000089562592336038690480000018195633476343755692_);}
	.st141{fill:url(#SVGID_00000070118812728462241820000018098390352337282716_);}
	.st142{fill:url(#SVGID_00000066481686889020643000000003525770294857714330_);}
	.st143{fill:url(#SVGID_00000111908458843463984250000004604498546601148549_);}
	.st144{fill:url(#SVGID_00000071520282120431775100000005089543154495760307_);}
	.st145{fill:url(#SVGID_00000093873816694748153270000007597718678551220874_);}
	.st146{fill:url(#SVGID_00000129177403640657292410000015952674141674592164_);}
	.st147{fill:url(#SVGID_00000105420377846186789730000016290801687412753324_);}
	.st148{fill:url(#SVGID_00000059308973506252225840000004626104939739531910_);}
	.st149{fill:url(#SVGID_00000042717681240558884030000003802632326370469298_);}
	.st150{fill:url(#SVGID_00000013877190795658476030000016794925989728738729_);}
	.st151{fill:url(#SVGID_00000114756048762698266010000012564157446664406167_);}
	.st152{fill:url(#SVGID_00000059287139336443136720000000235219397311380141_);}
	.st153{fill:url(#SVGID_00000003786714967391389350000000588629537478808248_);}
	.st154{fill:url(#SVGID_00000147908375171541430620000009501793589119559074_);}
	.st155{fill:url(#SVGID_00000145759812848525809030000008297429822615620504_);}
	.st156{fill:url(#SVGID_00000072979750369480980330000008608676955877413792_);}
	.st157{fill:url(#SVGID_00000057133488072598574630000004080617505756189625_);}
	.st158{fill:url(#SVGID_00000034788765508804758210000014116045571159069324_);}
	.st159{fill:url(#SVGID_00000026869354532126184410000006718412035157823372_);}
	.st160{fill:url(#SVGID_00000158016572545159930480000010673609903660925057_);}
	.st161{fill:url(#SVGID_00000033352991648080233790000002820053334606724028_);}
	.st162{fill:url(#SVGID_00000047757477560970253880000017427628964855472531_);}
	.st163{fill:none;stroke:#090E38;stroke-width:2;stroke-miterlimit:10;}
	.st164{fill:#803CFF;}
	.st165{fill:none;stroke:#803CFF;stroke-miterlimit:10;}
	.st166{fill:#848698;}
	.st167{fill:url(#SVGID_00000038375933809667368370000007120532738613038011_);}
	.st168{fill:url(#SVGID_00000126284914270709227590000005334236126838357148_);}
	.st169{fill:url(#SVGID_00000067195883904808356380000018294848000604329144_);}
	.st170{fill:url(#SVGID_00000093880744800501964630000015658290727971073949_);}
	.st171{fill:url(#SVGID_00000137123202018577872240000001592468253862666374_);}
	.st172{fill:url(#SVGID_00000112591791319709281820000001989081258590794640_);}
	.st173{fill:url(#SVGID_00000163074502594103517570000000503724492492042123_);}
	.st174{fill:url(#SVGID_00000142145093027842085570000015616871893077057179_);}
	.st175{fill:#22274C;}
	.st176{fill:url(#SVGID_00000016034949121489658210000000926240520486767284_);}
	.st177{fill:url(#SVGID_00000014623228109706103470000013697437917252478618_);}
	.st178{fill:url(#SVGID_00000001624935176138135250000002802980641244810901_);}
	.st179{fill:url(#SVGID_00000091700072622508141090000004382607042668566934_);}
	.st180{fill:url(#SVGID_00000112590290949070222020000011095494765087352757_);}
	.st181{fill:url(#SVGID_00000170964002851403308760000015968836908801949621_);}
	.st182{fill:url(#SVGID_00000058587780914727185970000016038805032042988448_);}
	.st183{fill:url(#SVGID_00000171705236954861950740000016042041113458572987_);}
	.st184{fill:url(#SVGID_00000099620733386613449400000001264116200986059936_);}
	.st185{fill:url(#SVGID_00000139290491010566744220000004235297189793518516_);}
	.st186{fill:url(#SVGID_00000064335118479603730700000008941807381401355913_);}
	.st187{fill:url(#SVGID_00000083772105709747076540000009668383562253140924_);}
	.st188{fill:url(#SVGID_00000018953011764485846260000009972272609695020961_);}
	.st189{fill:url(#SVGID_00000096747621723557401410000012691513721119911072_);}
	.st190{fill:url(#SVGID_00000112621840759815659290000002816589325348587962_);}
	.st191{fill:url(#SVGID_00000022543627473516529300000014418217910822223785_);}
	.st192{fill:url(#SVGID_00000074426671468226977830000002531606057041928886_);}
	.st193{fill:url(#SVGID_00000078728864644922101890000013682418065199646116_);}
	.st194{fill:url(#SVGID_00000026135814478941006830000003856191209708160183_);}
	.st195{fill:url(#SVGID_00000011753964006465341330000010601016511602119869_);}
	.st196{fill:url(#SVGID_00000143581522979734430160000013382371540630449565_);}
	.st197{fill:url(#SVGID_00000168101092248256559930000000980780856745820846_);}
	.st198{fill:url(#SVGID_00000074408109458622499890000017376465698615231373_);}
	.st199{fill:url(#SVGID_00000131332073036023013260000011076651643939056281_);}
	.st200{fill:url(#SVGID_00000168806710574064147750000008734855529266264999_);}
	.st201{fill:url(#SVGID_00000044176616842460775630000005243422493372158131_);}
	.st202{fill:url(#SVGID_00000039820898548194579150000010742086989129491646_);}
	.st203{fill:url(#SVGID_00000131355537504664351230000002337381349224700067_);}
	.st204{fill:url(#SVGID_00000151507103719675384890000014117645960389160871_);}
	.st205{fill:url(#SVGID_00000137132560921609548760000005696215357191887010_);}
	.st206{fill:url(#SVGID_00000139258639444418465260000003544277006165659287_);}
	.st207{fill:url(#SVGID_00000138551651636521077160000007833810534124601517_);}
	.st208{fill:url(#SVGID_00000031165897993968953060000015464508658882698403_);}
	.st209{fill:url(#SVGID_00000167395985554316894190000007895983951395427203_);}
	.st210{fill:url(#SVGID_00000085246961474949818860000002025704155663900819_);}
	.st211{fill:url(#SVGID_00000046332829349785135560000000091663223507789449_);}
	.st212{fill:none;stroke:#FFFFFF;stroke-linecap:round;stroke-miterlimit:10;}
	.st213{fill:url(#SVGID_00000050632499126367129850000006880636164734301872_);}
	.st214{fill:url(#SVGID_00000003077665528560291950000009176654071275190690_);}
	.st215{fill:url(#SVGID_00000147199030422111660520000010112713543375711402_);}
	.st216{fill:url(#SVGID_00000124164182959271480830000005312989481884457348_);}
	.st217{fill:url(#SVGID_00000119804408752602492330000010400815776069750961_);}
	.st218{fill:url(#SVGID_00000084495924547103388680000006923395576554650241_);}
	.st219{fill:url(#SVGID_00000174577508060040681880000013210406315735091357_);}
	.st220{fill:url(#SVGID_00000111889230604627787090000014957843815572848295_);}
	.st221{fill:url(#SVGID_00000178908846208938914440000015849676334244924838_);}
	.st222{fill:url(#SVGID_00000104685396024933368090000007882659717090395011_);}
	.st223{fill:url(#SVGID_00000086680159870082572450000010917446455649171855_);}
	.st224{fill:url(#SVGID_00000132046659990765518610000002347799678060026292_);}
	.st225{fill:url(#SVGID_00000028325017385639994190000014379796753897105568_);}
	.st226{fill:url(#SVGID_00000064315872409826903170000009332053648544018099_);}
	.st227{fill:url(#SVGID_00000036954126880592190150000004514093704371413411_);}
	.st228{fill:url(#SVGID_00000006685907287846573460000002968165468583648946_);}
	.st229{fill:url(#SVGID_00000029729516472709030960000018183506104652820623_);}
	.st230{fill:url(#SVGID_00000114069048340424699570000001628786584198031249_);}
	.st231{fill:url(#SVGID_00000096768861876018782760000018309217534861511598_);}
	.st232{fill:url(#SVGID_00000117663227775899829270000000250989997072393613_);}
	.st233{fill:url(#SVGID_00000058573293515810742850000000630174905338439340_);}
	.st234{fill:none;stroke:#22274C;stroke-width:0.5;stroke-miterlimit:10;}
	.st235{fill:url(#SVGID_00000042713740240525298050000003670246533177175957_);}
	.st236{fill:none;stroke:#22274C;stroke-miterlimit:10;}
	.st237{fill:url(#SVGID_00000093174168355982973810000001773659027486400660_);}
	.st238{fill:url(#SVGID_00000107589967789318250710000000514264316548828563_);}
	.st239{fill:url(#SVGID_00000091713263778096745500000008520779289404941721_);}
	.st240{fill:url(#SVGID_00000083798804022556343080000004642443021997471885_);}
	.st241{fill:url(#SVGID_00000171714337267749748230000000150217751227301266_);}
	.st242{fill:url(#SVGID_00000150824863610147062400000015070106822623280257_);}
	.st243{fill:url(#SVGID_00000054243618693930438480000009409145200107673501_);}
	.st244{fill:url(#SVGID_00000116926097875539195350000003534799785011129266_);}
	.st245{fill:url(#SVGID_00000089570763759831977380000005674023787550644157_);}
	.st246{fill:url(#SVGID_00000142160730534094557560000010353419350022996669_);}
	.st247{fill:url(#SVGID_00000171720574026292579480000018345193153679891901_);}
	.st248{fill:url(#SVGID_00000034794452729128540740000017449633167263649447_);}
	.st249{fill:none;stroke:#E11E5E;stroke-miterlimit:10;}
	.st250{fill:url(#SVGID_00000112593368709780063160000010316706478609477554_);}
	.st251{fill:url(#SVGID_00000111151384899588476330000013764137066056432545_);}
	.st252{fill:url(#SVGID_00000103255003604561815140000005450760970144917402_);}
	.st253{fill:url(#SVGID_00000060732311583368216050000001659431813746798996_);}
	.st254{fill:url(#SVGID_00000122705232885613234570000013710323975223835521_);}
	.st255{fill:url(#SVGID_00000006691874992822216260000010791460524406704801_);}
	.st256{fill:url(#SVGID_00000012473215900748857280000008201598958637778359_);}
	.st257{fill:url(#SVGID_00000101826244071225262260000016995561248010007471_);}
	.st258{fill:url(#SVGID_00000111172579911743151720000004755661091054170016_);}
	.st259{fill:url(#SVGID_00000000940931509410528420000009571190879628806826_);}
	.st260{fill:url(#SVGID_00000112610998368991764370000005893213329895071374_);}
	.st261{fill:url(#SVGID_00000169548891637749601300000006943432201410937990_);}
	.st262{fill:url(#SVGID_00000034054968434698611540000010221506089050340753_);}
	.st263{fill:url(#SVGID_00000039826952756461117040000014864672851959656619_);}
	.st264{fill:url(#SVGID_00000036952127123228333710000000609587799561874308_);}
	.st265{fill:url(#SVGID_00000038379757811486415870000001162841387056502661_);}
	.st266{fill:url(#SVGID_00000089532335900064897000000015514411651584313230_);}
	.st267{fill:url(#SVGID_00000086683751280215535020000006891259228006276004_);}
	.st268{fill:url(#SVGID_00000075159374243229780730000018158199826556580027_);}
	.st269{fill:url(#SVGID_00000012454245710693097680000007383648110297982888_);}
	.st270{fill:url(#SVGID_00000081618531594050013850000009203511832801492413_);}
	.st271{fill:url(#SVGID_00000018212213491622873740000017212174758144683198_);}
	.st272{fill:url(#SVGID_00000143589790246585221820000013400456619618179255_);}
	.st273{fill:none;stroke:#FFFFFF;stroke-width:0.75;stroke-miterlimit:10;}
	.st274{fill:none;stroke:#FFFFFF;stroke-width:0.75;stroke-linecap:round;stroke-miterlimit:10;}
	.st275{fill-rule:evenodd;clip-rule:evenodd;fill:none;stroke:#FFFFFF;stroke-width:0.5;stroke-miterlimit:10;}
	
		.st276{fill-rule:evenodd;clip-rule:evenodd;fill:none;stroke:#FFFFFF;stroke-width:0.5;stroke-linecap:round;stroke-miterlimit:10;}
	.st277{fill:url(#SVGID_00000054245954847453426790000003870503565035056050_);}
	.st278{fill:url(#SVGID_00000005971442801765601260000011405730051893846438_);}
	.st279{fill:url(#SVGID_00000181051189186978090420000001171392286604905376_);}
	.st280{fill:url(#SVGID_00000119077601489725549650000002497672948428702875_);}
	.st281{fill:url(#SVGID_00000017478886863184044150000010455828690109897644_);}
	.st282{fill:url(#SVGID_00000098179424197934294970000005535359258199187122_);}
	.st283{fill:url(#SVGID_00000095323395073010972920000007992553272942057109_);}
	.st284{fill:url(#SVGID_00000135690358350525604220000014734874544558303398_);}
	.st285{fill:url(#SVGID_00000080203861595043918860000013588883692480040601_);}
	.st286{fill:url(#SVGID_00000026142113538294275820000017356938528656295346_);}
	.st287{fill:url(#SVGID_00000096747341808648483920000014785457126749732756_);}
	.st288{fill:url(#SVGID_00000023268164728867857210000014355508365691978409_);}
	.st289{fill:url(#SVGID_00000047764514221348199280000006474664319761938602_);}
	.st290{fill:url(#SVGID_00000095298814581410366050000011370259666695713455_);}
	.st291{fill:url(#SVGID_00000071532971385698284880000001891906179915695262_);}
	.st292{fill:url(#SVGID_00000108290201359189767860000015106952040798144952_);}
	.st293{fill:url(#SVGID_00000157293580909613823180000017093413674918599318_);}
	.st294{fill:url(#SVGID_00000115482567308726621290000015439065270529511561_);}
	.st295{fill:url(#SVGID_00000082351892769262795130000003163675333972538300_);}
	.st296{fill:url(#SVGID_00000105387520704301888810000015293730219891661749_);}
	.st297{fill:url(#SVGID_00000092417419673850195280000012253913368828037053_);}
	.st298{fill:url(#SVGID_00000048465992212124071060000008819813494275206553_);}
	.st299{fill:url(#SVGID_00000095334001136546627000000016426875333163378096_);}
	.st300{fill:url(#SVGID_00000043428901395666795420000013813315501785781912_);}
	.st301{fill:url(#SVGID_00000060022156315339253190000004923445813025781671_);}
	.st302{clip-path:url(#SVGID_00000022543546942464528740000001384917723564587392_);fill:#22264C;}
	.st303{clip-path:url(#SVGID_00000032625906813606681210000000851243624061194113_);fill:#FFFFFF;}
	.st304{clip-path:url(#SVGID_00000019643224496537953930000012582172677925147044_);fill:#FFFFFF;}
	.st305{clip-path:url(#SVGID_00000008830832178010560510000009296198158061734058_);fill:#FFFFFF;}
	.st306{clip-path:url(#SVGID_00000110449096971768981480000010339311431667156904_);fill:#FFFFFF;}
	.st307{clip-path:url(#SVGID_00000039854633273752297210000008376487536960156833_);fill:#FFFFFF;}
	.st308{clip-path:url(#SVGID_00000049193568587116044040000009532078909448168840_);fill:#FFFFFF;}
	.st309{clip-path:url(#SVGID_00000131337173244498505010000009826128354193835427_);fill:#FFFFFF;}
	.st310{clip-path:url(#SVGID_00000127731407171896556220000000805405948519785088_);fill:#FFFFFF;}
	.st311{clip-path:url(#SVGID_00000049925091136736318770000003641292967978393257_);fill:#FFFFFF;}
	.st312{clip-path:url(#SVGID_00000104705066080578460110000006144516769606490766_);fill:#FFFFFF;}
	.st313{clip-path:url(#SVGID_00000108273396240293551020000017748918147511380614_);fill:#FFFFFF;}
	.st314{fill:url(#SVGID_00000135686981654731530530000007117164020542518705_);}
	.st315{fill:url(#SVGID_00000071551682372666320530000014485402725210254474_);}
	.st316{fill:url(#SVGID_00000081642292416100493480000001867091911740739506_);}
	.st317{fill:url(#SVGID_00000173866685131369449460000009646704706519051665_);}
	.st318{fill:url(#SVGID_00000144312910602383625250000005747343500111662253_);}
	.st319{fill:url(#SVGID_00000000945293665604871620000001621437924974941056_);}
	.st320{fill:url(#SVGID_00000122717296999017783460000012677065470998165651_);}
	.st321{fill:url(#SVGID_00000087398867904008595360000001450962693032786578_);}
	.st322{fill:url(#SVGID_00000130632703675739844250000011501079786978892189_);}
	.st323{fill:url(#SVGID_00000132088288996046105260000005973609909087995016_);}
	.st324{fill:url(#SVGID_00000063610682776430027150000000275947738921264272_);}
	.st325{fill:url(#SVGID_00000168810004900362946420000000136153291988256922_);}
	.st326{fill:url(#SVGID_00000106122897745289979160000000129453386329066902_);}
	.st327{fill:url(#SVGID_00000173130608472865427040000014742124214896776614_);}
	.st328{fill:url(#SVGID_00000164480977790089031280000011109606247323687306_);}
	.st329{fill:url(#SVGID_00000027596458875011897890000013350769823829263515_);}
	.st330{fill:url(#SVGID_00000067237744501361195930000014345351242902568633_);}
	.st331{fill:url(#SVGID_00000003099123109930626460000017110155398670959531_);}
	.st332{fill:url(#SVGID_00000118369124004963125830000009757854046527870867_);}
	.st333{fill:url(#SVGID_00000146463507135366522820000017365030942294457734_);}
	.st334{fill:url(#SVGID_00000081627609064524178030000008483662670786153103_);}
	.st335{fill:url(#SVGID_00000093166565370346755930000000062458482819679620_);}
	.st336{fill:url(#SVGID_00000177480962608679287270000001056343602506101405_);}
	.st337{fill:url(#SVGID_00000085220208718548667630000003761736646022389892_);}
	.st338{fill:url(#SVGID_00000151520034872012557360000009126792487506464185_);}
	.st339{fill:url(#SVGID_00000070120660484813904450000017053717806583420302_);}
	.st340{fill:url(#SVGID_00000026131984290844715450000001236300636555460246_);}
	.st341{fill:url(#SVGID_00000096025393874436807910000009516278640005780648_);}
	.st342{fill:url(#SVGID_00000062185550710297637320000012928475575256026020_);}
	.st343{fill:url(#SVGID_00000073678973398085643690000013510873951783652996_);}
	.st344{fill:url(#SVGID_00000110461925111458406600000014488050383912937121_);}
	.st345{fill:url(#SVGID_00000160904494909849292810000011504929027371534997_);}
	.st346{fill:url(#SVGID_00000152259268552251413880000003509014398558044311_);}
	.st347{fill:url(#SVGID_00000008113614899475923120000010988423892671229879_);}
	.st348{fill:url(#SVGID_00000074444291929178846440000011901024252517721474_);}
	.st349{fill:url(#SVGID_00000134939278059445921750000004136157103462617738_);}
	.st350{fill:url(#SVGID_00000073696811051098369190000014161891843111601045_);}
	.st351{fill:url(#SVGID_00000158749184088428290070000013134817869321284528_);}
	.st352{fill:url(#SVGID_00000158020620477242165890000006480593897103909819_);}
	.st353{fill:url(#SVGID_00000082335001816328917920000005682538924663885745_);}
	.st354{fill:#8A8989;}
	.st355{fill:#616160;}
	.st356{fill-rule:evenodd;clip-rule:evenodd;fill:#FFFFFF;}
	.st357{fill-rule:evenodd;clip-rule:evenodd;fill:#8A8989;}
	.st358{fill-rule:evenodd;clip-rule:evenodd;fill:#797879;}
	.st359{clip-path:url(#XMLID_00000152265995925711446470000002355948471243253420_);}
	.st360{opacity:0.2;fill:#E1E3E7;}
	.st361{fill-rule:evenodd;clip-rule:evenodd;fill:#616160;}
	.st362{fill:#E1E3E7;}
	.st363{fill:#FFFFFF;stroke:#FFFFFF;stroke-width:4;stroke-miterlimit:10;}
	.st364{fill:#58595B;}
	.st365{fill:#80A926;}
	.st366{clip-path:url(#SVGID_00000105403212787050856440000006414125541356436922_);}
	.st367{clip-path:url(#SVGID_00000089574475992635128910000009634181811098086069_);}
	.st368{clip-path:url(#SVGID_00000152236570975451326010000015230975791296226748_);}
	.st369{clip-path:url(#SVGID_00000131357844090852298020000018169290584209168295_);}
	.st370{clip-path:url(#SVGID_00000170248563162455747520000001055019810640920490_);}
	.st371{clip-path:url(#SVGID_00000015353706352915717920000016635655779586294674_);}
	.st372{clip-path:url(#SVGID_00000114774859903292031470000011270586270322416788_);}
	.st373{clip-path:url(#SVGID_00000032615430907978507830000016260995125280432057_);}
	.st374{clip-path:url(#SVGID_00000026880360607169215540000009270111235311241620_);}
	.st375{clip-path:url(#SVGID_00000173142161978056937750000010212167877142818485_);}
	.st376{fill:#1D1E1C;}
	.st377{opacity:0.36;}
	.st378{opacity:0.57;}
	.st379{fill:none;}
	.st380{fill:#01CEA6;}
	.st381{fill:#01261F;}
	.st382{fill:#E68000;}
	.st383{fill:#261400;}
	.st384{fill:#E63D80;}
	.st385{fill:#2D0013;}
	.st386{fill:#3695BB;}
	.st387{fill:#032732;}
	.st388{fill:#CDE4EC;}
	.st389{fill:#DA80E7;}
	.st390{fill:#B072BD;}
	.st391{fill:#855994;}
	.st392{fill:#180024;}
	.st393{fill:#DD80EA;}
	.st394{fill:#BB80E7;}
	.st395{fill:#9B77C0;}
	.st396{fill:#C080ED;}
	.st397{fill:#1F0140;}
	.st398{fill:#80619A;}
	.st399{fill:url(#SVGID_00000102543654051736590070000000024644937782295223_);}
	.st400{fill:url(#SVGID_00000056405067520797247460000013237066079127452591_);}
	.st401{fill:url(#SVGID_00000056386293983204301280000009155732100504486326_);}
	.st402{fill:url(#SVGID_00000075851177548986587500000010267713275793755573_);}
	.st403{fill:url(#SVGID_00000093150143208438864560000004613231527383308187_);}
	.st404{fill:url(#SVGID_00000112632217560367425020000001730796437384767623_);}
	.st405{fill:url(#SVGID_00000167372512636223793490000000237122431411410877_);}
	.st406{fill:url(#SVGID_00000165227412534933487890000013858336482537832340_);}
	.st407{fill:url(#SVGID_00000031899906198868831220000006451531566892933028_);}
	.st408{fill:url(#SVGID_00000178916209066847272040000006541476037694183599_);}
	.st409{fill:url(#SVGID_00000111154493506184157160000008462882020684934038_);}
	.st410{fill:url(#SVGID_00000156582824221431102150000011428036197208750235_);}
	.st411{fill:none;stroke:#464A69;stroke-miterlimit:10;}
	.st412{fill:url(#SVGID_00000176733688484015634840000002290891286793058467_);}
	.st413{fill:url(#SVGID_00000093142365522295476110000016036764622878784190_);}
	.st414{fill:url(#SVGID_00000043418136322087421660000014916770921334721424_);}
	.st415{fill:url(#SVGID_00000143603809284314726510000014893585724160770689_);}
	.st416{fill:url(#SVGID_00000018228639717022067900000011102891505285787569_);}
	.st417{fill:url(#SVGID_00000088840897401699423400000003811655950962318235_);}
	.st418{fill:url(#SVGID_00000157991098156449627570000014544617436713984653_);}
	.st419{fill:url(#SVGID_00000034799048554825564280000015145761008820205707_);}
	.st420{fill:url(#SVGID_00000173862421012529633890000010116888404611246738_);}
	.st421{fill:url(#SVGID_00000090989691410828332690000013227370292627475844_);}
	.st422{fill:url(#SVGID_00000025405293545374940320000010197659187459251101_);}
	.st423{fill:url(#SVGID_00000086673516921303549840000002564653410842718375_);}
	.st424{fill:url(#SVGID_00000171699503667747729320000000926761124648119180_);}
	.st425{fill:url(#SVGID_00000001640432529484111870000016168944560681249160_);}
	.st426{fill:none;stroke:#22274C;stroke-width:0.75;stroke-miterlimit:10;}
	.st427{fill:none;stroke:#FFFFFF;stroke-width:2;stroke-miterlimit:10;}
	.st428{fill:url(#SVGID_00000015353494875847347940000016200611768568732805_);}
	.st429{fill:url(#SVGID_00000078011190243359422170000000809506056968061839_);}
	.st430{fill:url(#SVGID_00000116956759744339434830000000944675652403939742_);}
	.st431{fill:url(#SVGID_00000062901960468646599530000011469563659282217394_);}
	.st432{fill:url(#SVGID_00000103950123270767077360000008214515612599252395_);}
	.st433{fill:url(#SVGID_00000145753899180421077990000009640343842880358533_);}
	.st434{fill:url(#SVGID_00000176728481666495156570000016211387053908020155_);}
	.st435{fill:url(#SVGID_00000090975758020759776810000013420036905699569051_);}
	.st436{fill:url(#SVGID_00000119078547288856440880000001676994411388371616_);}
	.st437{fill:url(#SVGID_00000096055207277549952820000011518616403214878905_);}
	.st438{fill:url(#SVGID_00000022537049818936040240000017767209944443046584_);}
	.st439{fill:url(#SVGID_00000173136070013386962540000015941868108520853142_);}
	.st440{fill:url(#SVGID_00000050621569312553090050000003208644627767711641_);}
	.st441{fill:url(#SVGID_00000093172741007548582890000012628701319107779485_);}
	.st442{fill:url(#SVGID_00000116953428652430415850000010687423759267260828_);}
	.st443{fill:url(#SVGID_00000050630920025324774590000004863055793481821824_);}
	.st444{fill:url(#SVGID_00000145046695966637791130000008860755786443866758_);}
	.st445{fill:url(#SVGID_00000079456675628054434380000015188107865167999910_);}
	.st446{fill:url(#SVGID_00000176739876201929281050000003921164628455596168_);}
	.st447{fill:url(#SVGID_00000005261391560278137010000017478552831413475499_);}
	.st448{fill:url(#SVGID_00000066483397759102125610000008972535294647140781_);}
	.st449{fill:url(#SVGID_00000018204115544158950760000011114606212361716372_);}
	.st450{fill:url(#SVGID_00000143586372487764376790000004831468792295510173_);}
	.st451{fill:url(#SVGID_00000094601370333860526020000002127199832495122067_);}
	.st452{fill:url(#SVGID_00000018930679377198664960000001642105477000304301_);}
	.st453{fill:url(#SVGID_00000121242573430718375930000005642665131840559489_);}
	.st454{fill:url(#SVGID_00000125584728678140168450000014713030694380230812_);}
	.st455{fill:none;stroke:#8F8F8F;stroke-width:0.75;stroke-miterlimit:10;}
	.st456{fill:#8F8F8F;stroke:#8F8F8F;stroke-width:0.25;stroke-miterlimit:10;}
	.st457{fill:#8F8F8F;}
	.st458{fill:none;stroke:#8F8F8F;stroke-width:0.25;stroke-miterlimit:10;}
	.st459{fill:url(#SVGID_00000006674997545988702320000004746906058867689881_);}
	.st460{fill:url(#SVGID_00000155832967796049129120000001769377466210392999_);}
	.st461{fill:url(#SVGID_00000182509826268027320040000003886592987458878098_);}
	.st462{fill:url(#SVGID_00000026852983860120386800000001042440814842068910_);}
	.st463{fill:url(#SVGID_00000024708281511240823490000010241879579994145701_);}
	.st464{fill:url(#SVGID_00000154415020777840733880000015421165067107328169_);}
	.st465{fill:url(#SVGID_00000161628947665040429230000003703008580247322548_);}
	.st466{fill:url(#SVGID_00000049922963483941644460000012512283669371608766_);}
	.st467{fill:url(#SVGID_00000103250368594714253470000006360125057075619206_);}
	.st468{fill:url(#SVGID_00000070803210854298068920000017755011169882540450_);}
</style>
<g>
	<path class="st0" d="M19.3,14.49c0.48-0.29,0.83-0.65,1.24-0.96c0.12-0.09,0.26-0.12,0.39,0.01c0.12,0.12,0.13,0.31,0.03,0.44
		c-0.06,0.07-0.12,0.13-0.2,0.18c-0.44,0.28-0.83,0.64-1.22,0.98c-0.2,0.16-0.42,0.27-0.61,0.43c-0.17,0.15-0.28-0.07-0.38-0.16
		c-0.09-0.08-0.05-0.21,0.05-0.29C18.84,14.91,19.12,14.73,19.3,14.49z"/>
	<path class="st0" d="M64.14,15.2c-0.11,0.01-0.24,0.11-0.33-0.05c-0.08-0.16-0.04-0.35,0.09-0.46c0.1-0.08,0.22-0.11,0.34-0.13
		c0.2-0.04,0.37,0.07,0.4,0.28c0.03,0.19-0.08,0.27-0.25,0.31c-0.05,0.01-0.1,0.03-0.16,0.04L64.14,15.2z"/>
	<g>
		<g>
			<g>
				<path class="st0" d="M8.29,52.06c-0.09-0.46-0.28-0.92-0.15-1.41c0.02-0.09,0.05-0.17,0.09-0.24c0.07-0.14,0.14-0.3,0.35-0.22
					c0.24,0.09,0.35,0.29,0.28,0.51c-0.23,0.66-0.06,1.23,0.4,1.73c0.09,0.09,0.19,0.15,0.32,0.17c0.33,0.07,0.65,0.01,0.97-0.12
					c0.24-0.11,0.51-0.16,0.76-0.25c0.1-0.04,0.24-0.02,0.27,0.14c0.02,0.16,0.14,0.34-0.12,0.42c-0.53,0.17-1.04,0.36-1.58,0.49
					c-0.36,0.08-0.72-0.06-0.99-0.32C8.6,52.72,8.39,52.42,8.29,52.06z"/>
				<path class="st0" d="M13.26,56.21c-0.01,0.17-0.07,0.3-0.25,0.36c-0.2,0.06-0.29,0.02-0.38-0.18c-0.29-0.66-0.6-1.32-0.91-1.99
					c-0.08-0.18-0.2-0.2-0.39-0.12c-0.16,0.07-0.23,0.16-0.15,0.35c0.23,0.56,0.46,1.12,0.74,1.67c0.08,0.17,0.04,0.26-0.13,0.33
					c-0.26,0.12-0.33,0.12-0.42-0.08c-0.25-0.52-0.48-1.04-0.73-1.56c-0.11-0.24-0.21-0.29-0.41-0.2c-0.22,0.09-0.27,0.29-0.12,0.51
					c0.25,0.37,0.42,0.79,0.56,1.21c0.01,0.04,0.02,0.09,0.05,0.11c0.2,0.17,0.25,0.4,0.3,0.65c0.04,0.18-0.05,0.24-0.18,0.3
					c-0.15,0.07-0.26,0.02-0.33-0.1c-0.22-0.42-0.42-0.85-0.61-1.28c-0.21-0.43-0.38-0.88-0.6-1.31c-0.09-0.17-0.04-0.26,0.1-0.37
					c0.24-0.18,0.49-0.27,0.76-0.35c0.26-0.08,0.45-0.28,0.7-0.37c0.25-0.09,0.5-0.16,0.72-0.31c0.17-0.12,0.3-0.05,0.41,0.14
					c0.18,0.36,0.3,0.76,0.57,1.07L13.26,56.21z"/>
				<path class="st0" d="M13.12,61.77c-0.13-0.17-0.13-0.34-0.02-0.56c0.15-0.27,0.15-0.55-0.04-0.82c-0.24-0.36-0.48-0.73-0.7-1.11
					c-0.13-0.23-0.31-0.32-0.56-0.31c-0.31,0-0.57-0.08-0.71-0.39c-0.1-0.21-0.05-0.32,0.17-0.32c0.46-0.01,0.92,0.08,1.38,0.09
					c0.5,0.01,1,0.05,1.5,0.08c0.07,0,0.14,0.01,0.2,0.02c0.32,0.07,0.45,0.32,0.35,0.64c-0.05,0.16-0.15,0.31-0.22,0.45
					c-0.13,0.27-0.25,0.56-0.33,0.85c-0.15,0.49-0.42,0.93-0.58,1.42C13.46,62.07,13.3,62.05,13.12,61.77z M13.22,59.49
					c0.06,0.09,0.11,0.19,0.18,0.27c0.14,0.18,0.25,0.16,0.33-0.05c0.06-0.16,0.1-0.31,0.18-0.46c0.08-0.14,0.04-0.23-0.13-0.22
					c-0.21,0.01-0.41-0.01-0.61-0.03c-0.15,0-0.2,0.07-0.13,0.21C13.09,59.31,13.16,59.4,13.22,59.49z"/>
				<path class="st0" d="M14.94,62.53c-0.17,0.15-0.35,0.3-0.53,0.44c-0.14,0.12-0.27,0.11-0.39-0.02
					c-0.12-0.14-0.15-0.27-0.01-0.41c0.22-0.23,0.48-0.41,0.72-0.61c0.39-0.32,0.76-0.66,1.14-1c0.13-0.12,0.4-0.04,0.47,0.14
					c0.04,0.14,0.08,0.28,0.06,0.42c-0.07,0.56-0.01,1.14-0.09,1.71c-0.03,0.21-0.02,0.43-0.01,0.65c0.01,0.05-0.02,0.12,0.05,0.15
					c0.06,0.02,0.12-0.01,0.17-0.05c0.11-0.1,0.19-0.23,0.32-0.31c0.29-0.17,0.46-0.5,0.79-0.63c0.19-0.08,0.3-0.03,0.4,0.11
					c0.1,0.15,0.04,0.27-0.09,0.37l-1.11,0.93c-0.22,0.18-0.42,0.38-0.65,0.55c-0.11,0.08-0.2,0.18-0.34,0.11
					c-0.14-0.07-0.25-0.18-0.25-0.34c0-0.26-0.02-0.53,0.02-0.79c0.06-0.38,0.03-0.77,0.06-1.15l0.03-0.55
					c0-0.07,0.05-0.17-0.04-0.22c-0.08-0.04-0.14,0.04-0.19,0.09C15.29,62.23,15.12,62.38,14.94,62.53L14.94,62.53z"/>
				<path class="st0" d="M21.7,67.72c-0.06,0.07-0.11,0.15-0.18,0.22c-0.15,0.13-0.31,0.18-0.5,0.1c-0.29-0.12-0.6-0.22-0.82-0.47
					c-0.03-0.03-0.06-0.03-0.1-0.02c-0.05,0.03-0.04,0.08-0.04,0.13c0,0.3,0.16,0.54,0.31,0.78c0.14,0.22,0.31,0.4,0.5,0.58
					c0.14,0.13,0.11,0.26-0.01,0.39c-0.12,0.12-0.24,0.13-0.38,0.02c-0.53-0.45-0.91-1-1.07-1.68c-0.05-0.18-0.02-0.36,0.02-0.55
					c0.05-0.2-0.02-0.36-0.19-0.47c-0.16-0.09-0.3-0.04-0.44,0.09c-0.15,0.14-0.29,0.28-0.39,0.47c-0.07,0.12-0.17,0.13-0.28,0.09
					c-0.2-0.06-0.32-0.35-0.18-0.5c0.27-0.29,0.46-0.63,0.75-0.89c0.14-0.13,0.25-0.31,0.38-0.46c0.18-0.2,0.36-0.41,0.56-0.59
					c0.09-0.09,0.22-0.07,0.33,0.04c0.16,0.16,0.31,0.31,0.49,0.45c0.4,0.3,0.76,0.65,1.16,0.95C22.07,66.72,22.08,67.26,21.7,67.72
					z M20.57,66.32c-0.19-0.16-0.38-0.33-0.58-0.49c-0.14-0.11-0.26-0.08-0.4,0.08c-0.11,0.13-0.12,0.25,0.02,0.37
					c0.16,0.13,0.33,0.27,0.48,0.41c0.25,0.23,0.53,0.44,0.81,0.63c0.09,0.05,0.23,0.08,0.32-0.02c0.1-0.09,0.1-0.21,0.04-0.33
					c-0.04-0.08-0.09-0.14-0.15-0.19L20.57,66.32z"/>
				<path class="st0" d="M22.9,71.07c-0.36-0.27-0.74-0.51-1-0.9c-0.25-0.38-0.22-0.75-0.08-1.12c0.08-0.22,0.23-0.42,0.38-0.61
					c0.4-0.5,1.05-0.61,1.62-0.31c0.24,0.12,0.48,0.24,0.71,0.37c0.53,0.31,0.99,0.7,1.07,1.36c0.02,0.22,0.02,0.44-0.12,0.64
					c-0.15,0.21-0.23,0.45-0.41,0.65c-0.32,0.35-0.72,0.46-1.16,0.36C23.56,71.43,23.21,71.3,22.9,71.07z M22.52,69.08
					c-0.1,0.24-0.23,0.54,0.02,0.89c0.19,0.25,0.43,0.4,0.67,0.57c0.25,0.18,0.52,0.35,0.87,0.32c0.44-0.03,0.82-0.31,0.88-0.73
					c0.03-0.24-0.08-0.47-0.24-0.66c-0.29-0.34-0.69-0.55-1.08-0.75C23.22,68.51,22.77,68.66,22.52,69.08z"/>
				<path class="st0" d="M28.47,70.68c0.16,0.07,0.32,0.15,0.47,0.22c0.49,0.23,0.57,0.74,0.35,1.18c-0.04,0.08-0.07,0.18-0.16,0.23
					c-0.13,0.09-0.13,0.19-0.07,0.32c0.16,0.29,0.05,0.55-0.11,0.78c-0.3,0.46-0.65,0.5-1.12,0.28c-0.63-0.29-1.25-0.58-1.88-0.87
					c-0.08-0.04-0.15-0.06-0.23-0.09c-0.36-0.1-0.35-0.29-0.24-0.56c0.13-0.33,0.33-0.63,0.46-0.97c0.1-0.24,0.16-0.52,0.34-0.72
					c0.07-0.08,0.11-0.19,0.13-0.29c0.06-0.29,0.28-0.35,0.54-0.22C27.45,70.2,27.96,70.44,28.47,70.68z M26.6,71.8
					c-0.14-0.06-0.27-0.06-0.35,0.09c-0.08,0.17-0.05,0.36,0.1,0.43c0.53,0.23,1.02,0.49,1.54,0.75c0.18,0.09,0.46,0.03,0.53-0.13
					c0.07-0.14-0.02-0.3-0.24-0.4l-1.23-0.58L26.6,71.8z M27.61,70.92c-0.16-0.07-0.29-0.14-0.42-0.2c-0.2-0.09-0.39-0.03-0.45,0.13
					c-0.07,0.2,0.02,0.4,0.24,0.45c0.15,0.04,0.27,0.11,0.4,0.17c0.32,0.14,0.61,0.34,0.95,0.43c0.17,0.04,0.29-0.02,0.38-0.13
					c0.08-0.1-0.01-0.2-0.07-0.28c-0.06-0.1-0.14-0.18-0.26-0.21C28.09,71.2,27.85,71.01,27.61,70.92z"/>
				<path class="st0" d="M33.44,72.47c0.12,0.12,0.17,0.25,0.1,0.43c-0.09,0.19-0.18,0.23-0.39,0.15c-0.69-0.23-1.38-0.45-2.08-0.68
					c-0.18-0.06-0.28,0.01-0.35,0.21c-0.05,0.17-0.04,0.28,0.16,0.35c0.57,0.21,1.14,0.42,1.73,0.59c0.18,0.05,0.21,0.14,0.15,0.32
					c-0.09,0.27-0.14,0.32-0.34,0.26c-0.55-0.17-1.1-0.35-1.64-0.52c-0.25-0.08-0.35-0.04-0.42,0.17c-0.08,0.22,0.03,0.4,0.29,0.44
					c0.44,0.07,0.86,0.22,1.27,0.41c0.04,0.02,0.08,0.04,0.11,0.04c0.26-0.04,0.46,0.09,0.68,0.22c0.16,0.09,0.15,0.2,0.1,0.34
					c-0.05,0.15-0.16,0.21-0.3,0.17c-0.45-0.12-0.91-0.27-1.35-0.41c-0.46-0.14-0.91-0.32-1.37-0.45c-0.18-0.05-0.22-0.15-0.2-0.33
					c0.03-0.29,0.13-0.55,0.26-0.8c0.12-0.24,0.1-0.52,0.2-0.77c0.1-0.24,0.22-0.47,0.26-0.74c0.03-0.21,0.16-0.26,0.38-0.2
					c0.39,0.11,0.76,0.29,1.17,0.31L33.44,72.47z"/>
				<path class="st0" d="M37.26,74.22c-0.02,0.09-0.02,0.19-0.05,0.28c-0.06,0.19-0.18,0.31-0.39,0.33c-0.32,0.04-0.63,0.1-0.94,0
					c-0.04-0.01-0.07,0-0.09,0.03c-0.03,0.05,0.01,0.09,0.03,0.13c0.15,0.26,0.4,0.39,0.66,0.53c0.23,0.12,0.47,0.19,0.72,0.26
					c0.18,0.04,0.23,0.17,0.18,0.34c-0.04,0.17-0.15,0.23-0.32,0.2c-0.68-0.13-1.28-0.42-1.76-0.93c-0.13-0.14-0.2-0.31-0.25-0.48
					c-0.06-0.2-0.19-0.3-0.4-0.31c-0.19,0-0.28,0.11-0.33,0.29c-0.06,0.2-0.12,0.39-0.11,0.6c0,0.14-0.09,0.2-0.2,0.22
					c-0.21,0.05-0.45-0.15-0.4-0.35c0.09-0.38,0.09-0.78,0.22-1.15c0.06-0.19,0.06-0.39,0.1-0.59c0.06-0.26,0.11-0.53,0.19-0.79
					c0.04-0.12,0.16-0.17,0.3-0.13c0.21,0.06,0.43,0.12,0.65,0.15c0.49,0.07,0.98,0.19,1.48,0.25
					C37.09,73.17,37.37,73.63,37.26,74.22z M35.59,73.56c-0.24-0.04-0.49-0.1-0.74-0.14c-0.18-0.03-0.27,0.06-0.31,0.26
					c-0.04,0.17,0.02,0.28,0.2,0.31c0.21,0.03,0.41,0.07,0.62,0.12c0.33,0.08,0.67,0.12,1.02,0.15c0.11,0,0.24-0.04,0.27-0.17
					c0.04-0.13-0.01-0.23-0.13-0.31c-0.07-0.05-0.14-0.08-0.22-0.09L35.59,73.56z"/>
				<path class="st0" d="M40.01,75.09c-0.02,0.36-0.04,0.72-0.07,1.08c-0.02,0.28-0.13,0.35-0.38,0.33
					c-0.12-0.01-0.19-0.06-0.19-0.18c0-0.06-0.03-0.12-0.02-0.18c0.04-0.46,0.06-0.92,0.06-1.37c0-0.16,0.04-0.32,0.02-0.48
					c-0.01-0.14-0.08-0.23-0.24-0.23c-0.32,0.01-0.64-0.09-0.97-0.06c-0.13,0.01-0.25-0.02-0.25-0.19
					c-0.01-0.21,0.08-0.38,0.23-0.36c0.54,0.08,1.14,0.06,1.68,0.1c0.48,0.03,1,0.1,1.48,0.09c0.12,0,0.23,0.03,0.22,0.17
					c0,0.16,0,0.3-0.2,0.35c-0.07,0.02-0.15,0.02-0.22,0.02l-0.76-0.05c-0.25-0.02-0.35,0.06-0.37,0.31
					C40.03,74.66,40.03,74.87,40.01,75.09L40.01,75.09z"/>
				<path class="st0" d="M47.24,74.09c0.01,0.09,0.03,0.19,0.03,0.28c0,0.2-0.08,0.35-0.27,0.43c-0.29,0.13-0.57,0.29-0.9,0.27
					c-0.04,0-0.06,0.02-0.08,0.06c-0.02,0.06,0.03,0.09,0.06,0.12c0.22,0.21,0.5,0.25,0.78,0.31c0.25,0.05,0.51,0.05,0.76,0.03
					c0.19-0.01,0.27,0.1,0.27,0.27c0.01,0.17-0.07,0.26-0.24,0.29c-0.69,0.08-1.35-0.02-1.96-0.37c-0.17-0.09-0.28-0.23-0.39-0.39
					c-0.12-0.18-0.27-0.23-0.47-0.18c-0.18,0.05-0.23,0.19-0.23,0.38c0,0.21,0,0.41,0.07,0.6c0.04,0.13-0.02,0.21-0.12,0.27
					c-0.18,0.11-0.47-0.01-0.49-0.22c-0.02-0.39-0.14-0.77-0.13-1.16c0-0.19-0.06-0.39-0.08-0.59c-0.02-0.27-0.05-0.54-0.05-0.81
					c0-0.13,0.1-0.21,0.25-0.21c0.22,0,0.44-0.01,0.66-0.05c0.49-0.08,0.99-0.11,1.49-0.19C46.77,73.13,47.17,73.5,47.24,74.09z
					 M45.45,73.95c-0.25,0.03-0.5,0.05-0.75,0.09c-0.18,0.03-0.24,0.13-0.22,0.34c0.01,0.17,0.1,0.26,0.28,0.24
					c0.21-0.03,0.42-0.05,0.63-0.07c0.34-0.02,0.68-0.08,1.02-0.16c0.1-0.03,0.22-0.11,0.21-0.25c0-0.13-0.08-0.22-0.21-0.26
					c-0.08-0.02-0.16-0.03-0.24-0.02L45.45,73.95z"/>
				<path class="st0" d="M48.99,73.95c0.04,0.56,0.2,1.04,0.29,1.54c0.03,0.15-0.01,0.29-0.18,0.34c-0.16,0.05-0.34-0.02-0.41-0.17
					c-0.03-0.08-0.06-0.17-0.07-0.26c-0.05-0.52-0.2-1.03-0.32-1.53c-0.06-0.25-0.05-0.5-0.11-0.74c-0.05-0.22,0.19-0.22,0.32-0.26
					c0.11-0.04,0.21,0.05,0.23,0.17C48.82,73.36,48.86,73.69,48.99,73.95z"/>
				<path class="st0" d="M52.21,75c-0.13,0.06-0.26,0.03-0.4-0.07c-0.61-0.46-1.23-0.91-1.83-1.38c-0.16-0.12-0.32-0.24-0.48-0.37
					c-0.1-0.08-0.21-0.17-0.17-0.32c0.05-0.15,0.21-0.17,0.34-0.17c0.19,0,0.38,0.06,0.54,0.18c0.49,0.4,1.01,0.79,1.53,1.17
					c0.22,0.16,0.29,0.14,0.38-0.12c0.15-0.41,0.24-0.84,0.4-1.25c0.08-0.2,0.12-0.43,0.2-0.64c0.09-0.25,0.28-0.37,0.51-0.45
					c0.15-0.05,0.25,0.05,0.24,0.21c-0.01,0.09-0.05,0.17-0.07,0.25c-0.18,0.59-0.35,1.18-0.57,1.75c-0.07,0.18-0.11,0.36-0.14,0.55
					C52.61,74.67,52.44,74.92,52.21,75z"/>
				<path class="st0" d="M58,72.66c-0.18,0.11-0.36,0.08-0.56-0.06c-0.24-0.19-0.52-0.22-0.82-0.08c-0.39,0.19-0.79,0.38-1.2,0.54
					c-0.25,0.1-0.36,0.27-0.39,0.51c-0.04,0.31-0.15,0.56-0.49,0.65c-0.22,0.07-0.32,0.01-0.3-0.21c0.06-0.46,0.2-0.9,0.28-1.35
					c0.08-0.5,0.19-0.98,0.29-1.47c0.01-0.07,0.03-0.13,0.05-0.2c0.11-0.31,0.38-0.4,0.69-0.26c0.16,0.08,0.28,0.19,0.42,0.28
					c0.25,0.17,0.52,0.32,0.8,0.45c0.46,0.22,0.87,0.54,1.32,0.78C58.35,72.37,58.31,72.52,58,72.66z M55.76,72.25
					c0.1-0.04,0.2-0.08,0.29-0.14c0.19-0.12,0.2-0.22,0-0.33c-0.15-0.08-0.29-0.14-0.43-0.24c-0.12-0.1-0.22-0.07-0.24,0.1
					c-0.02,0.2-0.07,0.4-0.11,0.6c-0.03,0.15,0.04,0.2,0.19,0.16C55.56,72.35,55.66,72.3,55.76,72.25z"/>
				<path class="st0" d="M59.32,68.36c0.24-0.02,0.42-0.2,0.65-0.24c0.46-0.08,0.85,0.02,1.2,0.36c0.29,0.29,0.48,0.64,0.55,1.02
					c0.06,0.37-0.03,0.75-0.34,1.06c-0.31,0.3-0.67,0.55-1.03,0.77c-0.37,0.22-0.73,0.45-1.1,0.66c-0.17,0.1-0.33,0.02-0.43-0.21
					c-0.08-0.22-0.21-0.41-0.35-0.59c-0.31-0.41-0.54-0.86-0.81-1.29c-0.18-0.29-0.16-0.31,0.06-0.54L59.32,68.36z M59.03,70.93
					c0.19,0.3,0.26,0.31,0.58,0.13c0.33-0.19,0.62-0.43,0.95-0.62c0.37-0.2,0.58-0.66,0.47-0.99c-0.18-0.5-0.49-0.82-1.07-0.66
					c-0.49,0.14-0.84,0.5-1.28,0.73c-0.04,0.02-0.07,0.05-0.12,0.07c-0.18,0.09-0.22,0.23-0.12,0.39l0.32,0.5L59.03,70.93z"/>
				<path class="st0" d="M63.48,65.19c0.17-0.04,0.31-0.01,0.41,0.15c0.11,0.18,0.09,0.28-0.08,0.41c-0.56,0.45-1.13,0.92-1.69,1.39
					c-0.15,0.12-0.14,0.25-0.01,0.41c0.11,0.14,0.21,0.18,0.38,0.05c0.49-0.37,0.97-0.74,1.43-1.14c0.14-0.12,0.24-0.1,0.35,0.04
					c0.18,0.22,0.2,0.29,0.03,0.43c-0.44,0.37-0.88,0.73-1.32,1.11c-0.2,0.17-0.22,0.28-0.09,0.45c0.14,0.19,0.35,0.19,0.52-0.01
					c0.29-0.34,0.65-0.61,1.03-0.85c0.03-0.02,0.08-0.04,0.1-0.07c0.11-0.24,0.33-0.34,0.55-0.46c0.17-0.09,0.24-0.02,0.34,0.1
					c0.1,0.12,0.09,0.25-0.02,0.34c-0.35,0.32-0.71,0.62-1.08,0.92c-0.37,0.31-0.76,0.59-1.11,0.92c-0.14,0.13-0.24,0.11-0.38,0
					c-0.23-0.18-0.39-0.4-0.54-0.65c-0.14-0.23-0.38-0.37-0.54-0.58c-0.15-0.21-0.28-0.44-0.48-0.62c-0.16-0.14-0.13-0.28,0.03-0.43
					c0.3-0.27,0.65-0.48,0.89-0.82L63.48,65.19z"/>
				<path class="st0" d="M65.89,65.68c0.16,0.16,0.34,0.31,0.5,0.48c0.13,0.13,0.14,0.25,0.02,0.39c-0.12,0.14-0.25,0.18-0.41,0.06
					c-0.25-0.19-0.46-0.43-0.69-0.65c-0.36-0.35-0.74-0.68-1.12-1.02c-0.13-0.12-0.08-0.39,0.09-0.48c0.13-0.06,0.27-0.11,0.41-0.11
					c0.57,0.01,1.13-0.12,1.71-0.11c0.22,0.01,0.43-0.03,0.64-0.07c0.05-0.01,0.12,0.01,0.14-0.07c0.01-0.06-0.02-0.12-0.07-0.16
					c-0.12-0.09-0.25-0.17-0.34-0.28c-0.21-0.27-0.55-0.4-0.71-0.72c-0.1-0.18-0.06-0.3,0.07-0.41c0.14-0.12,0.26-0.07,0.38,0.05
					l1.05,0.99c0.2,0.19,0.42,0.37,0.62,0.59c0.09,0.1,0.2,0.18,0.15,0.32c-0.05,0.15-0.15,0.27-0.31,0.29
					c-0.26,0.03-0.53,0.08-0.79,0.07c-0.39-0.02-0.76,0.06-1.15,0.07l-0.55,0.03c-0.07,0.01-0.18-0.03-0.21,0.07
					c-0.03,0.09,0.06,0.13,0.11,0.18C65.56,65.37,65.73,65.52,65.89,65.68L65.89,65.68z"/>
				<path class="st0" d="M68.54,59.33c0.15-0.08,0.3-0.08,0.43,0.05c0.15,0.15,0.15,0.25,0.02,0.42c-0.44,0.57-0.87,1.16-1.31,1.75
					c-0.12,0.16-0.08,0.27,0.08,0.4c0.14,0.11,0.25,0.12,0.38-0.04c0.38-0.47,0.76-0.95,1.12-1.45c0.11-0.15,0.21-0.16,0.35-0.04
					c0.23,0.18,0.26,0.23,0.13,0.41c-0.34,0.46-0.69,0.92-1.02,1.39c-0.15,0.21-0.15,0.32,0.02,0.46c0.18,0.15,0.39,0.1,0.51-0.13
					c0.21-0.4,0.49-0.74,0.79-1.07c0.03-0.03,0.07-0.06,0.08-0.09c0.05-0.26,0.24-0.41,0.42-0.57c0.14-0.12,0.23-0.07,0.35,0.01
					c0.13,0.1,0.15,0.22,0.07,0.34c-0.26,0.39-0.55,0.77-0.83,1.15c-0.28,0.39-0.6,0.76-0.86,1.16c-0.1,0.16-0.21,0.16-0.37,0.09
					c-0.27-0.12-0.47-0.3-0.67-0.5c-0.19-0.19-0.46-0.26-0.66-0.44c-0.2-0.17-0.38-0.36-0.62-0.49c-0.19-0.09-0.19-0.24-0.07-0.42
					c0.23-0.33,0.52-0.63,0.67-1.01L68.54,59.33z"/>
				<path class="st0" d="M70.32,58.69c0.43,0.35,0.89,0.57,1.31,0.85c0.13,0.08,0.2,0.21,0.12,0.37c-0.08,0.15-0.25,0.23-0.41,0.18
					c-0.08-0.03-0.16-0.07-0.23-0.13c-0.41-0.32-0.88-0.57-1.33-0.83c-0.22-0.13-0.4-0.3-0.62-0.43c-0.2-0.11-0.02-0.29,0.03-0.41
					c0.05-0.11,0.18-0.11,0.29-0.05C69.78,58.39,70.04,58.59,70.32,58.69z"/>
				<path class="st0" d="M72.11,54.85c0.08,0.04,0.17,0.07,0.25,0.13c0.16,0.11,0.25,0.25,0.21,0.46c-0.05,0.31-0.08,0.64-0.27,0.9
					c-0.02,0.03-0.01,0.07,0.01,0.1c0.04,0.04,0.09,0.02,0.14,0.01c0.29-0.07,0.48-0.28,0.69-0.48c0.18-0.18,0.32-0.4,0.44-0.62
					c0.09-0.16,0.23-0.17,0.38-0.08c0.15,0.09,0.18,0.21,0.1,0.36c-0.31,0.62-0.76,1.11-1.38,1.43c-0.17,0.09-0.35,0.1-0.54,0.11
					c-0.21,0-0.35,0.1-0.41,0.3c-0.05,0.18,0.03,0.3,0.19,0.4c0.17,0.11,0.34,0.22,0.54,0.27c0.14,0.04,0.17,0.14,0.15,0.25
					c-0.01,0.21-0.27,0.39-0.45,0.29c-0.34-0.2-0.72-0.3-1.04-0.53c-0.16-0.11-0.36-0.17-0.54-0.26c-0.24-0.13-0.48-0.25-0.71-0.4
					c-0.11-0.07-0.12-0.2-0.04-0.33c0.12-0.19,0.23-0.38,0.32-0.58c0.2-0.45,0.46-0.89,0.66-1.35
					C71.05,54.72,71.58,54.58,72.11,54.85z M71.01,56.27c-0.11,0.22-0.23,0.45-0.34,0.68c-0.08,0.17-0.02,0.27,0.17,0.37
					c0.15,0.08,0.27,0.06,0.35-0.1c0.09-0.19,0.18-0.38,0.29-0.56c0.17-0.3,0.31-0.61,0.43-0.94c0.03-0.1,0.03-0.24-0.09-0.31
					c-0.11-0.07-0.23-0.05-0.33,0.04c-0.06,0.05-0.11,0.12-0.15,0.19L71.01,56.27z"/>
				<path class="st0" d="M75.74,50.81c-0.05,0.21-0.18,0.32-0.42,0.36c-0.3,0.05-0.52,0.23-0.61,0.55
					c-0.13,0.42-0.26,0.83-0.42,1.24c-0.09,0.25-0.05,0.44,0.11,0.63c0.2,0.24,0.3,0.49,0.15,0.8c-0.1,0.21-0.22,0.24-0.36,0.07
					c-0.3-0.36-0.52-0.76-0.8-1.12c-0.31-0.4-0.59-0.8-0.88-1.21c-0.04-0.05-0.08-0.11-0.11-0.17c-0.15-0.29-0.04-0.55,0.28-0.68
					c0.16-0.06,0.33-0.07,0.49-0.12c0.3-0.07,0.59-0.16,0.87-0.28c0.48-0.19,0.99-0.26,1.47-0.44
					C75.76,50.36,75.85,50.5,75.74,50.81z M73.92,52.18c0.03-0.1,0.08-0.2,0.1-0.31c0.05-0.22-0.03-0.3-0.25-0.22
					c-0.16,0.05-0.3,0.12-0.47,0.15c-0.16,0.02-0.2,0.11-0.09,0.24c0.13,0.16,0.25,0.32,0.36,0.49c0.09,0.12,0.18,0.11,0.24-0.03
					C73.86,52.39,73.88,52.28,73.92,52.18z"/>
			</g>
		</g>
		<g>
			<g>
				<path class="st0" d="M9.06,31.54c0.16-0.17,0.18-0.43,0.33-0.61c0.29-0.37,0.65-0.55,1.14-0.52c0.41,0.03,0.78,0.16,1.08,0.4
					c0.29,0.24,0.47,0.59,0.45,1.02c-0.03,0.43-0.14,0.85-0.26,1.26c-0.13,0.41-0.25,0.82-0.38,1.22c-0.07,0.19-0.24,0.24-0.46,0.13
					c-0.21-0.11-0.43-0.16-0.65-0.21c-0.5-0.1-0.98-0.29-1.46-0.43c-0.32-0.1-0.33-0.12-0.31-0.45L9.06,31.54z M10.55,33.66
					c0.35,0.1,0.4,0.06,0.52-0.28c0.12-0.36,0.18-0.73,0.3-1.09c0.14-0.4,0-0.87-0.31-1.05c-0.47-0.26-0.91-0.29-1.24,0.22
					c-0.27,0.43-0.3,0.93-0.47,1.39c-0.02,0.04-0.02,0.09-0.04,0.13c-0.08,0.18-0.02,0.32,0.17,0.37l0.57,0.16L10.55,33.66z"/>
				<path class="st0" d="M11.75,27.78c0.48,0.29,0.96,0.44,1.42,0.66c0.14,0.06,0.23,0.17,0.17,0.35c-0.05,0.16-0.21,0.26-0.38,0.23
					c-0.09-0.02-0.17-0.05-0.25-0.09c-0.45-0.26-0.95-0.44-1.43-0.63c-0.23-0.1-0.44-0.25-0.67-0.34c-0.21-0.09-0.06-0.28-0.03-0.41
					c0.03-0.11,0.16-0.14,0.28-0.09C11.17,27.56,11.46,27.72,11.75,27.78z"/>
				<path class="st0" d="M15.25,25.06c-0.27,0.44-0.49,0.81-0.81,1.1c-0.16,0.15-0.35,0.25-0.55,0.29
					c-0.15,0.03-0.31,0.03-0.38-0.17c-0.06-0.19,0.01-0.38,0.16-0.48c0.13-0.09,0.29-0.1,0.42-0.21c0.39-0.35,0.65-0.79,0.84-1.27
					c0.03-0.09,0.09-0.17,0.11-0.26c0.02-0.08,0.06-0.19-0.03-0.24c-0.08-0.06-0.18-0.01-0.24,0.05c-0.16,0.16-0.34,0.3-0.47,0.48
					c-0.24,0.37-0.53,0.7-0.86,0.99c-0.2,0.18-0.43,0.37-0.74,0.3c-0.37-0.09-0.59-0.39-0.56-0.78c0.04-0.44,0.2-0.85,0.45-1.21
					c0.13-0.18,0.24-0.38,0.37-0.56c0.15-0.2,0.35-0.32,0.53-0.46c0.15-0.13,0.34-0.15,0.53-0.14c0.1,0.01,0.14,0.07,0.17,0.15
					c0.05,0.15,0.07,0.29-0.07,0.39c-0.07,0.06-0.14,0.11-0.22,0.15c-0.54,0.24-0.82,0.71-1.02,1.24c-0.06,0.13-0.19,0.33,0,0.44
					c0.17,0.1,0.31-0.07,0.39-0.18c0.24-0.29,0.48-0.59,0.7-0.91c0.18-0.25,0.42-0.47,0.72-0.64c0.32-0.17,0.59-0.1,0.84,0.11
					c0.23,0.2,0.22,0.49,0.15,0.73C15.58,24.38,15.51,24.81,15.25,25.06z"/>
				<path class="st0" d="M17.05,17.78c0.16-0.07,0.3-0.06,0.43,0.08c0.14,0.16,0.13,0.26-0.01,0.42c-0.48,0.54-0.97,1.09-1.45,1.64
					c-0.13,0.15-0.1,0.27,0.05,0.4c0.13,0.12,0.24,0.14,0.38-0.01c0.42-0.44,0.84-0.88,1.23-1.36c0.12-0.15,0.22-0.14,0.35-0.02
					c0.21,0.19,0.24,0.25,0.1,0.42c-0.37,0.44-0.76,0.87-1.13,1.3c-0.17,0.2-0.18,0.31-0.02,0.46c0.17,0.16,0.38,0.13,0.51-0.09
					c0.24-0.38,0.55-0.7,0.88-1c0.03-0.03,0.07-0.06,0.08-0.09c0.07-0.26,0.27-0.39,0.47-0.54c0.15-0.11,0.24-0.06,0.35,0.04
					c0.12,0.11,0.13,0.23,0.04,0.34c-0.29,0.37-0.61,0.73-0.91,1.08c-0.31,0.37-0.65,0.71-0.95,1.08c-0.12,0.15-0.22,0.14-0.38,0.06
					c-0.26-0.14-0.45-0.33-0.63-0.55c-0.17-0.2-0.44-0.3-0.62-0.49c-0.18-0.19-0.35-0.39-0.58-0.53c-0.18-0.11-0.17-0.25-0.04-0.43
					c0.25-0.31,0.57-0.58,0.75-0.95L17.05,17.78z"/>
				<path class="st0" d="M20.59,17.22c0.14,0.17,0.3,0.35,0.44,0.53c0.12,0.14,0.11,0.27-0.03,0.39c-0.14,0.12-0.27,0.15-0.41,0.01
					c-0.23-0.22-0.41-0.48-0.61-0.73c-0.32-0.39-0.65-0.77-0.99-1.15c-0.12-0.13-0.04-0.4,0.15-0.46c0.14-0.04,0.28-0.08,0.42-0.06
					c0.56,0.07,1.14,0.02,1.71,0.1c0.21,0.03,0.43,0.02,0.65,0.01c0.05-0.01,0.12,0.02,0.15-0.05c0.02-0.06,0-0.12-0.05-0.17
					c-0.1-0.11-0.23-0.2-0.31-0.32c-0.17-0.3-0.49-0.47-0.62-0.8c-0.08-0.19-0.03-0.3,0.12-0.4c0.15-0.1,0.27-0.03,0.37,0.09
					l0.92,1.11c0.18,0.22,0.38,0.42,0.54,0.66c0.08,0.11,0.18,0.21,0.11,0.34c-0.07,0.14-0.18,0.25-0.35,0.25
					c-0.26,0-0.54,0.01-0.79-0.03c-0.38-0.06-0.77-0.03-1.15-0.07l-0.55-0.03c-0.07,0-0.17-0.05-0.22,0.04
					c-0.04,0.08,0.04,0.14,0.09,0.19C20.3,16.87,20.45,17.04,20.59,17.22L20.59,17.22z"/>
				<path class="st0" d="M28.12,13.31c-0.17,0.12-0.35,0.11-0.56-0.01c-0.26-0.17-0.54-0.18-0.82-0.01
					c-0.37,0.22-0.75,0.44-1.14,0.64c-0.24,0.12-0.33,0.3-0.34,0.55c-0.01,0.31-0.11,0.57-0.43,0.69c-0.21,0.09-0.32,0.04-0.31-0.18
					c0.02-0.46,0.12-0.91,0.16-1.37c0.03-0.5,0.1-0.99,0.16-1.49c0.01-0.07,0.02-0.14,0.03-0.2c0.08-0.31,0.34-0.44,0.66-0.32
					c0.16,0.06,0.3,0.17,0.44,0.25c0.27,0.15,0.55,0.27,0.84,0.38c0.48,0.18,0.91,0.46,1.39,0.66C28.43,13,28.41,13.15,28.12,13.31z
					 M25.85,13.1c0.09-0.05,0.19-0.1,0.28-0.17c0.18-0.14,0.18-0.24-0.03-0.33c-0.15-0.07-0.31-0.11-0.45-0.21
					c-0.13-0.09-0.23-0.05-0.23,0.12c0,0.21-0.03,0.4-0.06,0.6c-0.01,0.15,0.06,0.2,0.2,0.14C25.66,13.22,25.75,13.16,25.85,13.1z"
					/>
				<path class="st0" d="M31.14,8.9c0.23,0.04,0.45-0.1,0.69-0.08c0.47,0.03,0.82,0.22,1.08,0.64c0.21,0.35,0.32,0.73,0.29,1.12
					c-0.03,0.38-0.21,0.72-0.58,0.95c-0.37,0.22-0.78,0.38-1.18,0.51c-0.41,0.13-0.81,0.27-1.22,0.39c-0.19,0.05-0.33-0.06-0.37-0.3
					c-0.03-0.23-0.11-0.45-0.2-0.66c-0.2-0.47-0.32-0.96-0.48-1.45c-0.1-0.32-0.09-0.34,0.19-0.51L31.14,8.9z M30.26,11.33
					c0.12,0.34,0.18,0.36,0.53,0.26c0.36-0.11,0.7-0.27,1.07-0.38c0.41-0.11,0.72-0.5,0.69-0.85c-0.05-0.53-0.28-0.91-0.89-0.89
					c-0.51,0.02-0.94,0.28-1.41,0.41c-0.04,0.01-0.08,0.03-0.13,0.04c-0.2,0.04-0.27,0.17-0.21,0.36l0.19,0.56L30.26,11.33z"/>
				<path class="st0" d="M37.24,10.58c-0.45,0.04-0.89,0.11-1.34-0.02c-0.44-0.12-0.66-0.42-0.8-0.79c-0.08-0.22-0.1-0.47-0.11-0.71
					c-0.02-0.64,0.39-1.15,1.01-1.3c0.26-0.07,0.52-0.14,0.78-0.19c0.6-0.12,1.21-0.12,1.7,0.32c0.16,0.15,0.31,0.32,0.33,0.57
					c0.03,0.25,0.13,0.49,0.12,0.76c-0.01,0.48-0.24,0.82-0.63,1.03C37.97,10.43,37.62,10.55,37.24,10.58z M35.64,9.35
					c0.09,0.24,0.18,0.55,0.6,0.65c0.31,0.07,0.59,0.01,0.88-0.01c0.31-0.03,0.62-0.08,0.86-0.33c0.31-0.31,0.42-0.77,0.18-1.13
					c-0.13-0.2-0.37-0.3-0.61-0.34c-0.45-0.07-0.88,0.04-1.31,0.15C35.79,8.45,35.55,8.86,35.64,9.35z"/>
				<path class="st0" d="M44.37,8.23c0,0.09,0.01,0.19-0.01,0.28c-0.03,0.19-0.13,0.33-0.33,0.39c-0.31,0.08-0.61,0.2-0.93,0.14
					c-0.04-0.01-0.07,0.01-0.08,0.05c-0.02,0.05,0.02,0.09,0.05,0.13c0.19,0.24,0.45,0.32,0.73,0.42c0.24,0.08,0.49,0.12,0.75,0.15
					c0.19,0.02,0.25,0.14,0.23,0.31c-0.02,0.17-0.11,0.25-0.28,0.25c-0.7-0.02-1.33-0.22-1.88-0.66c-0.15-0.12-0.24-0.27-0.32-0.44
					c-0.09-0.19-0.23-0.27-0.44-0.25c-0.18,0.03-0.26,0.15-0.29,0.34c-0.03,0.2-0.06,0.4-0.02,0.61c0.02,0.14-0.06,0.21-0.16,0.24
					c-0.2,0.08-0.47-0.08-0.45-0.29c0.03-0.39-0.03-0.78,0.04-1.17c0.03-0.19,0-0.4,0.01-0.6c0.02-0.27,0.03-0.54,0.07-0.81
					c0.02-0.13,0.13-0.19,0.28-0.17c0.22,0.03,0.44,0.05,0.66,0.05c0.5-0.01,1,0.04,1.5,0.03C44.04,7.21,44.39,7.63,44.37,8.23z
					 M42.62,7.82c-0.25-0.01-0.5-0.02-0.76-0.02c-0.18,0-0.26,0.1-0.26,0.31c-0.01,0.17,0.06,0.27,0.24,0.28
					c0.21,0,0.42,0.01,0.63,0.03c0.34,0.03,0.69,0.02,1.03-0.01c0.11-0.01,0.23-0.08,0.24-0.21c0.02-0.13-0.05-0.23-0.17-0.29
					c-0.08-0.04-0.15-0.05-0.24-0.06L42.62,7.82z"/>
				<path class="st0" d="M53.67,10.93c-0.33,0.83-0.82,1.12-1.75,0.93c-0.45-0.09-0.89-0.23-1.32-0.42c-0.53-0.23-0.87-0.7-0.83-1.3
					c0.03-0.44,0.18-0.88,0.5-1.21c0.27-0.27,0.63-0.38,1.01-0.33c0.59,0.07,1.14,0.31,1.71,0.5c0.35,0.12,0.56,0.39,0.72,0.71
					c0.05,0.1,0.02,0.2-0.05,0.27c-0.09,0.08-0.2,0.16-0.34,0.13c-0.13-0.02-0.23-0.09-0.32-0.2c-0.46-0.56-1.09-0.76-1.78-0.77
					c-0.41,0-0.68,0.25-0.76,0.64c-0.11,0.53,0.1,0.88,0.61,1.08c0.41,0.16,0.82,0.26,1.26,0.27c0.13,0,0.24-0.03,0.35-0.08
					c0.06-0.04,0.15-0.08,0.14-0.16c0-0.09-0.09-0.11-0.16-0.14c-0.2-0.06-0.88-0.28-1.08-0.34c-0.15-0.05-0.22-0.13-0.19-0.29
					c0.04-0.21,0.15-0.32,0.33-0.31c0.26,0.02,0.94,0.31,1.18,0.38c0.19,0.06,0.4,0.06,0.58,0.17
					C53.75,10.65,53.76,10.63,53.67,10.93z"/>
				<path class="st0" d="M58.82,12.8c-0.04,0.08-0.08,0.17-0.13,0.25c-0.12,0.16-0.26,0.24-0.47,0.2c-0.31-0.06-0.63-0.09-0.9-0.29
					c-0.03-0.02-0.07-0.02-0.1,0c-0.05,0.04-0.02,0.09-0.02,0.14c0.06,0.3,0.26,0.49,0.46,0.7c0.18,0.18,0.39,0.33,0.6,0.46
					c0.16,0.1,0.16,0.23,0.07,0.38c-0.09,0.15-0.21,0.17-0.36,0.09c-0.61-0.33-1.09-0.79-1.39-1.42c-0.08-0.17-0.09-0.35-0.09-0.54
					c0.01-0.21-0.09-0.35-0.28-0.42c-0.18-0.06-0.3,0.02-0.41,0.18c-0.12,0.17-0.23,0.33-0.29,0.54c-0.04,0.13-0.14,0.16-0.25,0.15
					c-0.21-0.02-0.38-0.28-0.28-0.46c0.2-0.34,0.32-0.71,0.56-1.03c0.11-0.16,0.18-0.36,0.27-0.53c0.14-0.23,0.27-0.47,0.42-0.7
					c0.07-0.1,0.2-0.11,0.33-0.03c0.18,0.12,0.37,0.24,0.57,0.34c0.45,0.22,0.88,0.48,1.33,0.69C58.98,11.74,59.1,12.27,58.82,12.8z
					 M57.43,11.66c-0.22-0.12-0.44-0.24-0.67-0.36c-0.16-0.08-0.27-0.03-0.37,0.16c-0.09,0.15-0.07,0.27,0.09,0.36
					c0.19,0.09,0.37,0.19,0.55,0.3c0.29,0.18,0.6,0.32,0.92,0.45c0.1,0.04,0.24,0.03,0.31-0.08c0.08-0.11,0.06-0.23-0.03-0.33
					c-0.05-0.07-0.11-0.12-0.19-0.16L57.43,11.66z"/>
				<path class="st0" d="M62.8,18.24c-0.18-0.11-0.23-0.28-0.19-0.53c0.06-0.3-0.03-0.57-0.3-0.77c-0.35-0.27-0.69-0.53-1.02-0.83
					c-0.2-0.17-0.4-0.2-0.63-0.11c-0.3,0.1-0.57,0.11-0.8-0.14c-0.16-0.16-0.15-0.29,0.06-0.36c0.44-0.15,0.9-0.22,1.33-0.36
					c0.48-0.15,0.96-0.28,1.44-0.41c0.06-0.02,0.13-0.03,0.2-0.05c0.32-0.04,0.53,0.16,0.54,0.5c0,0.17-0.05,0.34-0.06,0.5
					c-0.04,0.3-0.05,0.61-0.04,0.92c0.01,0.51-0.09,1.02-0.1,1.53C63.21,18.42,63.06,18.45,62.8,18.24z M62.15,16.05
					c0.08,0.07,0.16,0.14,0.26,0.2c0.19,0.12,0.29,0.08,0.29-0.15c0.01-0.17-0.01-0.33,0.03-0.49c0.03-0.16-0.04-0.23-0.19-0.17
					c-0.19,0.07-0.39,0.12-0.58,0.17c-0.14,0.04-0.16,0.13-0.06,0.24C61.97,15.92,62.06,15.98,62.15,16.05z"/>
				<path class="st0" d="M67.11,18.38c0.23,0.29,0.43,0.6,0.7,0.86c0.18,0.17,0.29,0.39,0.46,0.56c0.08,0.09,0.18,0.17,0.26,0.26
					c0.11,0.14,0.09,0.32-0.03,0.43c-0.14,0.12-0.25,0.1-0.42-0.03c-0.37-0.27-0.55-0.69-0.86-1c-0.21-0.21-0.39-0.45-0.59-0.67
					c-0.14-0.16-0.29-0.17-0.42-0.03c-0.16,0.15-0.16,0.28-0.01,0.43c0.38,0.42,0.7,0.89,1.1,1.3c0.12,0.13,0.11,0.34,0,0.45
					c-0.12,0.11-0.34,0.09-0.46-0.05c-0.27-0.32-0.57-0.62-0.81-0.97c-0.09-0.14-0.23-0.26-0.37-0.37c-0.12-0.09-0.25-0.1-0.37,0.01
					c-0.16,0.13-0.27,0.33-0.47,0.41c-0.15,0.06-0.26,0.11-0.38-0.04c-0.11-0.14-0.12-0.32,0.01-0.44c0.64-0.59,1.33-1.1,1.98-1.67
					c0.06-0.05,0.13-0.01,0.2,0.01L67.11,18.38z"/>
				<path class="st0" d="M69.42,23.28c-0.5,0.25-0.88,0.58-1.31,0.85c-0.12,0.08-0.27,0.1-0.39-0.04c-0.11-0.13-0.11-0.32,0.01-0.44
					c0.06-0.06,0.13-0.12,0.21-0.16c0.46-0.24,0.88-0.57,1.3-0.87c0.21-0.15,0.44-0.24,0.65-0.38c0.18-0.13,0.27,0.1,0.36,0.19
					c0.08,0.09,0.03,0.21-0.07,0.28C69.91,22.9,69.62,23.06,69.42,23.28z"/>
				<path class="st0" d="M72.78,26.8c-0.03,0.16,0.06,0.3,0.11,0.44c0.11,0.33,0.06,0.63-0.09,0.92c-0.07,0.14-0.26,0.18-0.41,0.07
					c-0.14-0.1-0.23-0.24-0.2-0.4c0.16-0.8-0.24-1.4-0.73-1.95c-0.14-0.16-0.34-0.23-0.55-0.18c-0.73,0.15-0.98,0.62-0.75,1.3
					c0.08,0.24,0.21,0.48,0.32,0.7c0.1,0.19,0.25,0.38,0.46,0.49c0.12,0.07,0.23,0.14,0.33,0.25c0.13,0.16,0.12,0.33,0.01,0.49
					c-0.1,0.16-0.25,0.09-0.39,0.04c-0.65-0.2-1.01-1.05-1.28-1.62c-0.29-0.64-0.34-1.59,0.42-1.95c0.15-0.07,0.29-0.13,0.42-0.21
					c0.41-0.25,0.8-0.17,1.2,0.01c0.16,0.07,0.27,0.2,0.35,0.33c0.11,0.18,0.28,0.31,0.38,0.5L72.78,26.8z"/>
				<path class="st0" d="M71.77,32.78c-0.1-0.44-0.22-0.87-0.16-1.34c0.06-0.45,0.33-0.71,0.68-0.9c0.21-0.11,0.45-0.17,0.69-0.21
					c0.63-0.11,1.19,0.23,1.43,0.83c0.1,0.25,0.21,0.5,0.29,0.75c0.2,0.58,0.28,1.18-0.09,1.73c-0.13,0.18-0.28,0.35-0.52,0.4
					c-0.25,0.06-0.47,0.19-0.74,0.22c-0.47,0.05-0.84-0.12-1.11-0.49C72.02,33.48,71.85,33.15,71.77,32.78z M72.78,31.03
					c-0.23,0.12-0.52,0.26-0.57,0.68c-0.02,0.31,0.07,0.59,0.13,0.87c0.07,0.3,0.16,0.6,0.44,0.81c0.35,0.27,0.82,0.31,1.15,0.03
					c0.18-0.16,0.25-0.41,0.25-0.65c0.01-0.45-0.16-0.86-0.32-1.28C73.69,31.06,73.25,30.88,72.78,31.03z"/>
			</g>
		</g>
		<circle class="st0" cx="74.99" cy="41.4" r="1.37"/>
		<circle class="st0" cx="8.66" cy="41.4" r="1.37"/>
	</g>
</g>
</svg>
