<?xml version="1.0" encoding="utf-8"?>
<!-- Generator: Adobe Illustrator 27.0.0, SVG Export Plug-In . SVG Version: 6.00 Build 0)  -->
<svg version="1.1" id="Capa_1" xmlns="http://www.w3.org/2000/svg" xmlns:xlink="http://www.w3.org/1999/xlink" x="0px" y="0px"
	 viewBox="0 0 316.3 273.62" style="enable-background:new 0 0 316.3 273.62;" xml:space="preserve">
<style type="text/css">
	.st0{fill:#090E38;}
	.st1{fill:url(#SVGID_1_);}
	.st2{fill:#161A42;}
	.st3{fill:url(#SVGID_00000003794358261361090900000017209484293827027609_);}
	.st4{fill:url(#SVGID_00000027570942143919066020000006965881580529695899_);}
	.st5{fill:#FFFFFF;}
	.st6{fill:#E9E9EB;}
	.st7{fill:#2280C3;}
	.st8{fill:#263A6B;}
	.st9{fill:#13183B;}
	.st10{fill:#EBEBFF;}
	.st11{fill:#15336C;}
	.st12{fill:#121D3E;}
	.st13{fill:#D8CE9E;}
	.st14{fill:#5F485A;}
	.st15{fill:#17316F;}
	.st16{fill:#0A1C4F;}
	.st17{fill:#1E1A55;}
	.st18{fill:#12193B;}
	.st19{fill:#D8CD9C;}
	.st20{fill:#544A55;}
	.st21{fill:#E0E1E3;}
	.st22{fill:#15193A;}
	.st23{fill:#D6CC89;}
	.st24{fill:#434642;}
	.st25{fill:#131543;}
	.st26{fill:#3E3B38;}
	.st27{fill:#181940;}
	.st28{fill:#D7CE9D;}
	.st29{fill:#806D64;}
	.st30{opacity:0.7;fill:#6FC4D8;}
	.st31{fill:#805AE4;}
	.st32{fill:#ECB40A;}
	.st33{fill:#10B78E;}
	.st34{fill:url(#SVGID_00000116941664303100784680000015267546905446255254_);}
	.st35{fill:url(#SVGID_00000060720796106394252890000000305329105075745415_);}
	.st36{fill:url(#SVGID_00000104667507559737858920000005227590652906409351_);}
	.st37{fill:url(#SVGID_00000137845835663541388290000012677569534731015072_);}
	.st38{fill:url(#SVGID_00000090290294882896325860000009276047436481067670_);}
	.st39{fill:url(#SVGID_00000063627496767938924180000015672199626022605967_);}
	.st40{fill:url(#SVGID_00000176729649230791222360000017460840002551009683_);}
	.st41{fill:url(#SVGID_00000083807369996525560880000004581383866881605814_);}
	.st42{fill:url(#SVGID_00000041993652985108469780000007918266342029407104_);}
	.st43{fill:url(#SVGID_00000129164998291285619620000005706370077688165797_);}
	.st44{fill:url(#SVGID_00000137119754833442754170000003913845450422953889_);}
	.st45{fill:url(#SVGID_00000131332631486304782030000015505595933295151494_);}
	.st46{fill:url(#SVGID_00000101804678274973820000000013462672970583728794_);}
	.st47{fill:url(#SVGID_00000034771893898971441530000009553210653747598253_);}
	.st48{fill:url(#SVGID_00000130622499906147766510000001199703112211457716_);}
	.st49{fill:url(#SVGID_00000065781462431973825040000013844433467527521944_);}
	.st50{fill:url(#SVGID_00000072256370799525519430000017828159127466341517_);}
	.st51{fill:url(#SVGID_00000169543886076620032200000011016913925371242910_);}
	.st52{fill:url(#SVGID_00000122698460927650943020000017941703099656192640_);}
	.st53{fill:url(#SVGID_00000183964755557782849730000012949772151644856501_);}
	.st54{fill:url(#SVGID_00000162354619452228187780000002713723335395438504_);}
	.st55{fill:url(#SVGID_00000062167827384283911010000007894787350295521165_);}
	.st56{fill:url(#SVGID_00000074443970260626305030000004298070166471744671_);}
	.st57{fill:url(#SVGID_00000016059887763379898900000016539282979309853109_);}
	.st58{fill:url(#SVGID_00000145752070669783565720000010171152156445471629_);}
	.st59{fill:url(#SVGID_00000088110428581742118230000010538086595718087091_);}
	.st60{clip-path:url(#SVGID_00000145041646194269817060000014911535903795456898_);fill:#FFFFFF;}
	.st61{fill:none;stroke:#805AE4;stroke-miterlimit:10;}
	.st62{fill:url(#SVGID_00000011732077231837195330000016505774468936637358_);}
	.st63{fill:url(#SVGID_00000087388730717499936330000005143618999044104104_);}
	.st64{fill:url(#SVGID_00000054257275408601531430000011152259637930444731_);}
	.st65{fill:url(#SVGID_00000127008557090234016260000013980476389975307392_);}
	.st66{fill:url(#SVGID_00000075149113320061349040000016353968344942524042_);}
	.st67{fill:url(#SVGID_00000094587479311855184580000007839975957958848390_);}
	.st68{fill:url(#SVGID_00000130608180141344370670000012992667072784319420_);}
	.st69{fill:url(#SVGID_00000111152630995341716200000004322583526812207745_);}
	.st70{fill:url(#SVGID_00000033337491934679250660000010533432908299262854_);}
	.st71{fill:url(#SVGID_00000138565055693493915490000002701718350421854123_);}
	.st72{fill:url(#SVGID_00000057842770269363412740000003356110565325918655_);}
	.st73{fill:url(#SVGID_00000100363547901110886080000016123781988237912748_);}
	.st74{fill:#DDBB1B;}
	.st75{fill:#49CA80;}
	.st76{fill:#CF78C6;}
	.st77{fill:#BDACFF;}
	.st78{fill:#37368D;}
	.st79{fill:#E11E5E;}
	.st80{fill:#EB9F49;}
	.st81{fill:#FF6B6B;}
	.st82{fill:#38ABE6;}
	.st83{fill:url(#SVGID_00000080168964568263830860000003283731818837168544_);}
	.st84{fill:url(#SVGID_00000000192713100812398290000015158900332027392409_);}
	.st85{fill:url(#SVGID_00000065792603868930113610000006398031127094272420_);}
	.st86{fill:#E78A7E;}
	.st87{fill:#E69C78;}
	.st88{fill:#FF80E7;}
	.st89{fill:#E86480;}
	.st90{fill:url(#SVGID_00000033337910086462465410000005580860958683114137_);}
	.st91{fill:url(#SVGID_00000033342526510254813490000002114521455967545518_);}
	.st92{fill:url(#SVGID_00000026842206999460370500000013638864301442732475_);}
	.st93{fill:url(#SVGID_00000055679153441006248210000010054534259941455290_);}
	.st94{fill:url(#SVGID_00000095307620570465835260000003150991884861940620_);}
	.st95{fill:url(#SVGID_00000011733424680371226890000011771111526951927208_);}
	.st96{fill:url(#SVGID_00000145752549405944471850000016569055894593414562_);}
	.st97{fill:url(#SVGID_00000142886101023926449270000005533038707496038333_);}
	.st98{fill:url(#SVGID_00000077298559595673186810000017207209218439302297_);}
	.st99{fill:url(#SVGID_00000050640862200572888890000017271428994340028853_);}
	.st100{fill:url(#SVGID_00000045615284398719741780000007232648669697788033_);}
	.st101{fill:url(#SVGID_00000016760027945929889710000012542060280566045615_);}
	.st102{fill:url(#SVGID_00000118395984962441528270000015344193140289312134_);}
	.st103{fill:url(#SVGID_00000121255777216194443060000018098222046353612171_);}
	.st104{fill:url(#SVGID_00000085228671196037143690000018097685903356753844_);}
	.st105{fill:url(#SVGID_00000131347906339968764710000002809515541082178992_);}
	.st106{fill:url(#SVGID_00000165205353555019435610000009030148079558503841_);}
	.st107{fill:url(#SVGID_00000094611179639814604540000006897039775258277550_);}
	.st108{fill:url(#SVGID_00000083057510700457914130000004566764762240314245_);}
	.st109{fill:url(#SVGID_00000178182932109019968290000017653153442664671629_);}
	.st110{fill:url(#SVGID_00000117670628900663839230000000219640252167566985_);}
	.st111{fill:url(#SVGID_00000052102234142853483200000001249097190277663125_);}
	.st112{fill:url(#SVGID_00000122692620821227091690000010439939330670115985_);}
	.st113{fill:url(#SVGID_00000080196694657642478360000002458975295492754363_);}
	.st114{fill:url(#SVGID_00000166639686911113967850000000095930760448511364_);}
	.st115{fill:url(#SVGID_00000026153279399565690480000004722103216631036051_);}
	.st116{fill:url(#SVGID_00000148658129947659673590000002236752983677345720_);}
	.st117{fill:url(#SVGID_00000024711385539098766080000004727161992152768180_);}
	.st118{fill:url(#SVGID_00000115480869726807288020000011125413799894709899_);}
	.st119{fill:url(#SVGID_00000067235480393305513920000009351072766871903915_);}
	.st120{fill:url(#SVGID_00000150800199033772318440000003715229663898424480_);}
	.st121{fill:url(#SVGID_00000031914180744903585580000001542567686374904737_);}
	.st122{fill:url(#SVGID_00000088846078448268111600000009427238052930561208_);}
	.st123{fill:url(#SVGID_00000109708282045745948270000003306204863528887742_);}
	.st124{fill:url(#SVGID_00000069389886313798705240000015255030665862877357_);}
	.st125{fill:url(#SVGID_00000031196305816460321610000012223809738379719298_);}
	.st126{fill:url(#SVGID_00000065788125620243192100000002114833361142585479_);}
	.st127{fill:url(#SVGID_00000080185384824143318310000004993874666636066718_);}
	.st128{fill:url(#SVGID_00000018947088583993535050000010545586707033276850_);}
	.st129{fill:url(#SVGID_00000133523179322026324320000013488705556508472502_);}
	.st130{fill:url(#SVGID_00000105387211167186898420000001393724206397550481_);}
	.st131{fill:url(#SVGID_00000083051225944825389130000010456545520977961658_);}
	.st132{fill:url(#SVGID_00000112605591548215138770000005417331542239572906_);}
	.st133{fill:url(#SVGID_00000134218301611197065720000005546929381904876214_);}
	.st134{fill:url(#SVGID_00000000909208023336304960000012375184075485904787_);}
	.st135{fill:url(#SVGID_00000180326267392937710370000015800735760797106328_);}
	.st136{fill:url(#SVGID_00000120529887334404796390000017685559220644457104_);}
	.st137{fill:url(#SVGID_00000000925232601598963490000008681336701402039997_);}
	.st138{fill:url(#SVGID_00000081631752838698240620000006632041223542611861_);}
	.st139{fill:url(#SVGID_00000134957589786839374530000011983790740948420773_);}
	.st140{fill:url(#SVGID_00000182503404021919842740000014590539785562837938_);}
	.st141{fill:url(#SVGID_00000150094687373093723860000008536917897871451285_);}
	.st142{fill:url(#SVGID_00000012443608810924844450000011256760522372401834_);}
	.st143{fill:url(#SVGID_00000039827632897182273360000017098223247628175774_);}
	.st144{fill:url(#SVGID_00000115488359901071144820000002953048541771851909_);}
	.st145{fill:url(#SVGID_00000107587397016162656930000007003590062583825797_);}
	.st146{fill:url(#SVGID_00000115500784247059388800000007748530472164908947_);}
	.st147{fill:url(#SVGID_00000147921322734989040240000008039361549348662975_);}
	.st148{fill:url(#SVGID_00000171709145114896191870000011193478813226115505_);}
	.st149{fill:url(#SVGID_00000147904713366924850960000013519189740334817435_);}
	.st150{fill:url(#SVGID_00000088832794379352036330000000256006011030055841_);}
	.st151{fill:url(#SVGID_00000085237391794327995650000013396491034802461071_);}
	.st152{fill:url(#SVGID_00000029015996705520706090000006871467204920884126_);}
	.st153{fill:url(#SVGID_00000111177273986543070130000008570546597343049651_);}
	.st154{fill:url(#SVGID_00000059302196560902446760000003171191803129651637_);}
	.st155{fill:url(#SVGID_00000011719155587145128040000011926637714202342282_);}
	.st156{fill:url(#SVGID_00000036958688557491846950000002833950846431735459_);}
	.st157{fill:url(#SVGID_00000026150822234696095920000011691299573900292774_);}
	.st158{fill:url(#SVGID_00000058591370657075611670000014431124307083527857_);}
	.st159{fill:url(#SVGID_00000096042475443597229720000006784963249255078556_);}
	.st160{fill:url(#SVGID_00000147925355555314512020000008678261671241339056_);}
	.st161{fill:url(#SVGID_00000107548106820139791750000010293111427260165553_);}
	.st162{fill:url(#SVGID_00000109025011518134890360000016233606781205709750_);}
	.st163{fill:none;stroke:#090E38;stroke-width:2;stroke-miterlimit:10;}
	.st164{fill:#803CFF;}
	.st165{fill:none;stroke:#803CFF;stroke-miterlimit:10;}
	.st166{fill:#848698;}
	.st167{fill:url(#SVGID_00000077308652308516219480000013259110571410959772_);}
	.st168{fill:url(#SVGID_00000072243417064847001750000012459667467422733733_);}
	.st169{fill:url(#SVGID_00000168107476136965791110000008947987442282267554_);}
	.st170{fill:url(#SVGID_00000001659092330406727120000015354743795524044957_);}
	.st171{fill:url(#SVGID_00000106841616901795423340000004516597615472058045_);}
	.st172{fill:url(#SVGID_00000141450678832111625540000001841326878097843388_);}
	.st173{fill:url(#SVGID_00000138539038530547340690000018081591917549988026_);}
	.st174{fill:url(#SVGID_00000086673642628513222580000000646618116089826461_);}
	.st175{fill:#22274C;}
	.st176{fill:url(#SVGID_00000078009045524438787090000000826979300000367291_);}
	.st177{fill:url(#SVGID_00000043438533466695432470000015985831044492906658_);}
	.st178{fill:url(#SVGID_00000073680233408548312590000007592240295550678153_);}
	.st179{fill:url(#SVGID_00000131343278328649004840000016936602241443834779_);}
	.st180{fill:url(#SVGID_00000142867401702305968340000005086766004072280244_);}
	.st181{fill:url(#SVGID_00000026842726159745638940000007122562766300240025_);}
	.st182{fill:url(#SVGID_00000125566306195620831020000014998429987978527641_);}
	.st183{fill:url(#SVGID_00000165944896936051697100000016967748560036966809_);}
	.st184{fill:url(#SVGID_00000119800771737727651980000006128226135151888315_);}
	.st185{fill:url(#SVGID_00000101067515856654499880000011129956100511331494_);}
	.st186{fill:url(#SVGID_00000098191360103911405740000018362377561762146455_);}
	.st187{fill:url(#SVGID_00000066479377302793078560000012781375630721971647_);}
	.st188{fill:url(#SVGID_00000021840186197496818790000012228931941587302298_);}
	.st189{fill:url(#SVGID_00000005266716883118588750000002027009960500692655_);}
	.st190{fill:url(#SVGID_00000032633390590526395320000001433277296429100728_);}
	.st191{fill:url(#SVGID_00000098942731069132100260000015618138061628804996_);}
	.st192{fill:url(#SVGID_00000165234103588538427680000007864231911492853409_);}
	.st193{fill:url(#SVGID_00000078745506737755556540000013158656787990004914_);}
	.st194{fill:url(#SVGID_00000060017923829224167810000018432196243162001044_);}
	.st195{fill:url(#SVGID_00000025424989759039148430000017950922223514922921_);}
	.st196{fill:url(#SVGID_00000046337461305634322360000000972478577858549939_);}
	.st197{fill:url(#SVGID_00000081627630692772447510000011591620283957274796_);}
	.st198{fill:url(#SVGID_00000150785706356697092730000010214628606047127226_);}
	.st199{fill:url(#SVGID_00000163057658675804902520000004144629778930324624_);}
	.st200{fill:url(#SVGID_00000081637008790553981850000017928349491761472942_);}
	.st201{fill:url(#SVGID_00000088125438820045495620000004412790044655804558_);}
	.st202{fill:url(#SVGID_00000072251181063152539970000004351025667609901464_);}
	.st203{fill:url(#SVGID_00000000193874029543374190000000966500850319218613_);}
	.st204{fill:url(#SVGID_00000183939596365870531850000018147008933752327306_);}
	.st205{fill:url(#SVGID_00000032628307378463017090000014499655301956709281_);}
	.st206{fill:url(#SVGID_00000119808421420653435040000012174114319643202462_);}
	.st207{fill:url(#SVGID_00000021808353572268443490000016640388638508172990_);}
	.st208{fill:url(#SVGID_00000100347079207546940830000007362276161173009324_);}
	.st209{fill:url(#SVGID_00000079475299535511407370000013199018540587424414_);}
	.st210{fill:url(#SVGID_00000133508182521415339020000015957468724823036593_);}
	.st211{fill:url(#SVGID_00000101094379627442283930000005473263897383234215_);}
	.st212{fill:none;stroke:#FFFFFF;stroke-linecap:round;stroke-miterlimit:10;}
	.st213{fill:url(#SVGID_00000091006481109129606450000003485662709911750051_);}
	.st214{fill:url(#SVGID_00000077291445152427523910000000862449799313065388_);}
	.st215{fill:url(#SVGID_00000073686497621103958150000015451830648220125083_);}
	.st216{fill:url(#SVGID_00000137105715917355770880000004013809215490355347_);}
	.st217{fill:url(#SVGID_00000137821604877705235750000013108860607535558308_);}
	.st218{fill:url(#SVGID_00000032622980488933445610000012912967343969647241_);}
	.st219{fill:url(#SVGID_00000168798239232497332460000002509715632469106854_);}
	.st220{fill:url(#SVGID_00000103969310712234621500000007586440240860628113_);}
	.st221{fill:url(#SVGID_00000142865314651114131990000000475088827411029905_);}
	.st222{fill:url(#SVGID_00000160903947497444653950000002259238366173950367_);}
	.st223{fill:url(#SVGID_00000021089607966107473130000006758041730453535373_);}
	.st224{fill:url(#SVGID_00000181053389233814602510000011866394732253587336_);}
	.st225{fill:url(#SVGID_00000045602433988827402510000007020739156760564644_);}
	.st226{fill:url(#SVGID_00000037694844597867145500000009013764701949996457_);}
	.st227{fill:url(#SVGID_00000146470352796708302630000016763331513728521617_);}
	.st228{fill:url(#SVGID_00000017474824327962518650000007736484096178952607_);}
	.st229{fill:url(#SVGID_00000088107169989031788980000009708367111941109154_);}
	.st230{fill:url(#SVGID_00000087377843725206680070000002013491987754316436_);}
	.st231{fill:url(#SVGID_00000139994448885035009270000016683388250202347955_);}
	.st232{fill:url(#SVGID_00000096028315818172226520000007172136899805719200_);}
	.st233{fill:url(#SVGID_00000065068867874520628060000014743112078969091753_);}
	.st234{fill:none;stroke:#22274C;stroke-width:0.5;stroke-miterlimit:10;}
	.st235{fill:url(#SVGID_00000024003876817368862830000003574423350105604532_);}
	.st236{fill:none;stroke:#22274C;stroke-miterlimit:10;}
	.st237{fill:url(#SVGID_00000060733247929345082260000003481900502844512647_);}
	.st238{fill:url(#SVGID_00000166674624226487125060000012066708059521451152_);}
	.st239{fill:url(#SVGID_00000091736069719291528170000009042252967060782490_);}
	.st240{fill:url(#SVGID_00000035498225848896385460000000014393895866118290_);}
	.st241{fill:url(#SVGID_00000006697482391233627080000016665492227941863065_);}
	.st242{fill:url(#SVGID_00000081625989536978641710000008311072360137164461_);}
	.st243{fill:url(#SVGID_00000003064680149425098990000005691064621096553903_);}
	.st244{fill:url(#SVGID_00000122713756817477371750000001152007238183537057_);}
	.st245{fill:url(#SVGID_00000126291654035591885770000014895920581173869203_);}
	.st246{fill:url(#SVGID_00000052087152713713625030000000545621777768389800_);}
	.st247{fill:url(#SVGID_00000172400847515198515230000010917165092295476624_);}
	.st248{fill:url(#SVGID_00000087404731333555939210000000844290560612583831_);}
	.st249{fill:none;stroke:#E11E5E;stroke-miterlimit:10;}
	.st250{fill:url(#SVGID_00000055668536027092353440000008583297359785968797_);}
	.st251{fill:url(#SVGID_00000026128446509066470220000012965844627016072589_);}
	.st252{fill:url(#SVGID_00000058547508454018394200000003254576269722247862_);}
	.st253{fill:url(#SVGID_00000041295202702426842440000017016514749071020715_);}
	.st254{fill:url(#SVGID_00000084500954485871295900000011054697195658146194_);}
	.st255{fill:url(#SVGID_00000070081916240422598050000001095037905189615753_);}
	.st256{fill:url(#SVGID_00000055695946888444266880000011611194097454749375_);}
	.st257{fill:url(#SVGID_00000153668341249781514000000013146774190671430561_);}
	.st258{fill:url(#SVGID_00000140703470743687693390000001281668320881573049_);}
	.st259{fill:url(#SVGID_00000047751923259161606490000010439746497378093473_);}
	.st260{fill:url(#SVGID_00000012464957700606969230000011508279993198100625_);}
	.st261{fill:url(#SVGID_00000093152671512173421740000000158644707891002241_);}
	.st262{fill:url(#SVGID_00000144324774339683861320000002073323233389176199_);}
	.st263{fill:url(#SVGID_00000107582868153535682310000002692476635883572367_);}
	.st264{fill:url(#SVGID_00000035493130188829241020000003061697328241855624_);}
	.st265{fill:url(#SVGID_00000103945813869193945140000016362197811782621090_);}
	.st266{fill:url(#SVGID_00000101823605898026586270000010108197233300948659_);}
	.st267{fill:url(#SVGID_00000152232262285422398430000015413852737746426809_);}
	.st268{fill:url(#SVGID_00000156571151767731727040000017629718732251139508_);}
	.st269{fill:url(#SVGID_00000034789448459422054560000009985467144215092375_);}
	.st270{fill:url(#SVGID_00000149343825562999006030000006738596987132994491_);}
	.st271{fill:url(#SVGID_00000177452471988246579290000003562996070198236816_);}
	.st272{fill:url(#SVGID_00000118378533551592068010000012044909103774989193_);}
	.st273{fill:none;stroke:#FFFFFF;stroke-width:0.75;stroke-miterlimit:10;}
	.st274{fill:none;stroke:#FFFFFF;stroke-width:0.75;stroke-linecap:round;stroke-miterlimit:10;}
	.st275{fill-rule:evenodd;clip-rule:evenodd;fill:none;stroke:#FFFFFF;stroke-width:0.5;stroke-miterlimit:10;}
	
		.st276{fill-rule:evenodd;clip-rule:evenodd;fill:none;stroke:#FFFFFF;stroke-width:0.5;stroke-linecap:round;stroke-miterlimit:10;}
	.st277{fill:url(#SVGID_00000067935563937908722630000013064168280603107988_);}
	.st278{fill:url(#SVGID_00000174562842632558705300000015844585043191676551_);}
	.st279{fill:url(#SVGID_00000169535551028882814780000010702003614161841333_);}
	.st280{fill:url(#SVGID_00000057857435036753518730000004899365103287190459_);}
	.st281{fill:url(#SVGID_00000098194523216987367030000008516798573253479324_);}
	.st282{fill:url(#SVGID_00000156577235743134650560000004904225712067157384_);}
	.st283{fill:url(#SVGID_00000140719440982790884380000004679621512963030413_);}
	.st284{fill:url(#SVGID_00000137093542187323956870000002613438187608553881_);}
	.st285{fill:url(#SVGID_00000021826148691273931300000010506273504149405076_);}
	.st286{fill:url(#SVGID_00000109014378357421842410000012006694443365611958_);}
	.st287{fill:url(#SVGID_00000150069553549609664570000007556755278401378182_);}
	.st288{fill:url(#SVGID_00000042715675188981387060000015857531683160710785_);}
	.st289{fill:url(#SVGID_00000000196696536179984130000007293234185713405865_);}
	.st290{fill:url(#SVGID_00000082355571580344170100000014369440299321748912_);}
	.st291{fill:url(#SVGID_00000117645453968937086520000006985857210867878321_);}
	.st292{fill:url(#SVGID_00000104687132295706667350000009338193905217663400_);}
	.st293{fill:url(#SVGID_00000168108423249796997570000013770760631739063698_);}
	.st294{fill:url(#SVGID_00000116922080108365023890000017613195130182354347_);}
	.st295{fill:url(#SVGID_00000165948522332197682230000016375462867806741902_);}
	.st296{fill:url(#SVGID_00000183964568967670688460000014927903131646753164_);}
	.st297{fill:url(#SVGID_00000124880460193774760500000009801602055475476155_);}
	.st298{fill:url(#SVGID_00000183240170307540240190000004523376376988735649_);}
	.st299{fill:url(#SVGID_00000005959912225189073660000013567733017851539846_);}
	.st300{fill:url(#SVGID_00000144312495274292238150000001937393786723774379_);}
	.st301{fill:url(#SVGID_00000090998432882839251210000000853026123445160373_);}
	.st302{clip-path:url(#SVGID_00000035501976728317487750000013797197247120230800_);fill:#22264C;}
	.st303{clip-path:url(#SVGID_00000038372429525270889790000003733573189678596285_);fill:#FFFFFF;}
	.st304{clip-path:url(#SVGID_00000140004392581872748660000004108815956579745192_);fill:#FFFFFF;}
	.st305{clip-path:url(#SVGID_00000006675201803137324240000014251645742283570311_);fill:#FFFFFF;}
	.st306{clip-path:url(#SVGID_00000137827642739735146830000018081490340775441034_);fill:#FFFFFF;}
	.st307{clip-path:url(#SVGID_00000055672348114829340510000014989327155504844463_);fill:#FFFFFF;}
	.st308{clip-path:url(#SVGID_00000014625401038095763260000004907548204903233963_);fill:#FFFFFF;}
	.st309{clip-path:url(#SVGID_00000171683821137631912830000008054528629063568805_);fill:#FFFFFF;}
	.st310{clip-path:url(#SVGID_00000078761845148312781870000001821423281186741658_);fill:#FFFFFF;}
	.st311{clip-path:url(#SVGID_00000088835605724223222900000015526172576506912176_);fill:#FFFFFF;}
	.st312{clip-path:url(#SVGID_00000180347645717792498060000001237052037738430118_);fill:#FFFFFF;}
	.st313{clip-path:url(#SVGID_00000159462624008469634240000003652487312920045716_);fill:#FFFFFF;}
	.st314{fill:url(#SVGID_00000154383743311395846250000002123575088114050698_);}
	.st315{fill:url(#SVGID_00000134949033202804830870000012791614994797727414_);}
	.st316{fill:url(#SVGID_00000090255639857159863690000013444920187189602433_);}
	.st317{fill:url(#SVGID_00000173121764850877648200000011473484337250187168_);}
	.st318{fill:url(#SVGID_00000059997942508507225300000000024225649581640367_);}
	.st319{fill:url(#SVGID_00000176756988184866571180000018216089979773565597_);}
	.st320{fill:url(#SVGID_00000107586030040128582010000007886640934571337102_);}
	.st321{fill:url(#SVGID_00000085945598706116156810000007235212132107450761_);}
	.st322{fill:url(#SVGID_00000177463285199710703400000011747871045709234349_);}
	.st323{fill:url(#SVGID_00000009591590921278562460000009527900588270362023_);}
	.st324{fill:url(#SVGID_00000115492327685960110010000000823152454172401047_);}
	.st325{fill:url(#SVGID_00000173865887387159644060000011634475755287377561_);}
	.st326{fill:url(#SVGID_00000043425835089831762420000007711844992783370932_);}
	.st327{fill:url(#SVGID_00000079480716396284887760000011571451960319423373_);}
	.st328{fill:url(#SVGID_00000143591014065730788130000011342652415561527432_);}
	.st329{fill:url(#SVGID_00000023250524810239408710000001215504619588933260_);}
	.st330{fill:url(#SVGID_00000073711580349004751910000005642338761991796360_);}
	.st331{fill:url(#SVGID_00000099644567991628349380000017296122710233505922_);}
	.st332{fill:url(#SVGID_00000072266009603885796290000005194098187831707530_);}
	.st333{fill:url(#SVGID_00000174572908696461119370000010264788225345179788_);}
	.st334{fill:url(#SVGID_00000050649304629072839540000018132791821544446614_);}
	.st335{fill:url(#SVGID_00000157282498086939671880000006685087688094630814_);}
	.st336{fill:url(#SVGID_00000083785217569656514820000006854910076559794830_);}
	.st337{fill:url(#SVGID_00000088099154682965489770000003978468719230684307_);}
	.st338{fill:url(#SVGID_00000119080126849747759170000018150359448880437383_);}
	.st339{fill:url(#SVGID_00000095306467672498850240000003036839856667549843_);}
	.st340{fill:url(#SVGID_00000137831521326489508950000003001546861489323181_);}
	.st341{fill:url(#SVGID_00000036253924123708888960000018214010198911906724_);}
	.st342{fill:url(#SVGID_00000132767670780865434930000010486655261692863651_);}
	.st343{fill:url(#SVGID_00000097458751378703648230000012062556012701362582_);}
	.st344{fill:url(#SVGID_00000010308294166482117130000005649889928624673954_);}
	.st345{fill:url(#SVGID_00000053543671140055116030000002364370618463139518_);}
	.st346{fill:url(#SVGID_00000070813012698578673960000010283325918680433337_);}
	.st347{fill:url(#SVGID_00000091707657922530777750000007636387710427359670_);}
	.st348{fill:url(#SVGID_00000120521858179875544050000012685801483903028875_);}
	.st349{fill:url(#SVGID_00000155132440101691345980000002745035281792246974_);}
	.st350{fill:url(#SVGID_00000067934360468652378550000007552045703636954798_);}
	.st351{fill:url(#SVGID_00000093161540582972755150000010537932495187201198_);}
	.st352{fill:url(#SVGID_00000031902365019243884510000013083411181523718029_);}
	.st353{fill:url(#SVGID_00000031177405646545948330000018308902011236918964_);}
	.st354{fill:#8A8989;}
	.st355{fill:#616160;}
	.st356{fill-rule:evenodd;clip-rule:evenodd;fill:#FFFFFF;}
	.st357{fill-rule:evenodd;clip-rule:evenodd;fill:#8A8989;}
	.st358{fill-rule:evenodd;clip-rule:evenodd;fill:#797879;}
	.st359{clip-path:url(#XMLID_00000133509915967589989300000009358375112834127550_);}
	.st360{opacity:0.2;fill:#E1E3E7;}
	.st361{fill-rule:evenodd;clip-rule:evenodd;fill:#616160;}
	.st362{fill:#E1E3E7;}
	.st363{fill:#FFFFFF;stroke:#FFFFFF;stroke-width:4;stroke-miterlimit:10;}
	.st364{fill:#58595B;}
	.st365{fill:#80A926;}
	.st366{clip-path:url(#SVGID_00000044149030610717051700000004646952400848303752_);}
	.st367{clip-path:url(#SVGID_00000077318434685438512220000015810855146917112480_);}
	.st368{clip-path:url(#SVGID_00000140697460080860322400000003997945452356616620_);}
	.st369{clip-path:url(#SVGID_00000080918911676600931440000001454785576247058841_);}
	.st370{clip-path:url(#SVGID_00000067955491183447452710000000331217078880395946_);}
	.st371{clip-path:url(#SVGID_00000052817739353789218250000014656914389983294105_);}
	.st372{clip-path:url(#SVGID_00000132778941680445967310000008083503913576213164_);}
	.st373{clip-path:url(#SVGID_00000041272969667143186180000003136583601999043984_);}
	.st374{clip-path:url(#SVGID_00000061471132087569033640000016422606658291501191_);}
	.st375{clip-path:url(#SVGID_00000119089784929835499360000011309740758554219665_);}
	.st376{fill:#1D1E1C;}
	.st377{opacity:0.36;}
	.st378{opacity:0.57;}
	.st379{fill:none;}
	.st380{fill:#01CEA6;}
	.st381{fill:#01261F;}
	.st382{fill:#E68000;}
	.st383{fill:#261400;}
	.st384{fill:#E63D80;}
	.st385{fill:#2D0013;}
	.st386{fill:#3695BB;}
	.st387{fill:#032732;}
	.st388{fill:#CDE4EC;}
	.st389{fill:#DA80E7;}
	.st390{fill:#B072BD;}
	.st391{fill:#855994;}
	.st392{fill:#180024;}
	.st393{fill:#DD80EA;}
	.st394{fill:#BB80E7;}
	.st395{fill:#9B77C0;}
	.st396{fill:#C080ED;}
	.st397{fill:#1F0140;}
	.st398{fill:#80619A;}
	.st399{fill:url(#SVGID_00000109025010285683866890000016509459489257646513_);}
	.st400{fill:url(#SVGID_00000176741073293903378500000005758507155012326800_);}
	.st401{fill:url(#SVGID_00000011014381770251196380000016043022257611423892_);}
	.st402{fill:url(#SVGID_00000060016534388390202260000003729338545105257120_);}
	.st403{fill:url(#SVGID_00000159431561210235059090000017724499597908928676_);}
	.st404{fill:url(#SVGID_00000126312731513526518110000006150912395630866573_);}
	.st405{fill:url(#SVGID_00000098204471086142293970000010500631191920811700_);}
	.st406{fill:url(#SVGID_00000015324075508580869430000004243631597460792986_);}
	.st407{fill:url(#SVGID_00000157297577564152089110000017514073052618886843_);}
	.st408{fill:url(#SVGID_00000014633366230950312530000016888131273956448682_);}
	.st409{fill:url(#SVGID_00000182512826251551525140000017470017171044975279_);}
	.st410{fill:url(#SVGID_00000098186513108582090390000009332072083657096586_);}
	.st411{fill:none;stroke:#464A69;stroke-miterlimit:10;}
	.st412{fill:url(#SVGID_00000176742138408710684790000005931190534623338413_);}
	.st413{fill:url(#SVGID_00000168802902877603615330000002875371154239476618_);}
	.st414{fill:url(#SVGID_00000160158366952340696320000008199704653985685894_);}
	.st415{fill:url(#SVGID_00000183241306638441458170000001528384276438299545_);}
	.st416{fill:url(#SVGID_00000002385174191267668610000004461338658000604307_);}
	.st417{fill:url(#SVGID_00000127007405070343172420000009627102177644596377_);}
	.st418{fill:url(#SVGID_00000057135940189083017080000006758163821033950603_);}
	.st419{fill:url(#SVGID_00000109719175012289037120000008777481044230692492_);}
	.st420{fill:url(#SVGID_00000106124189850748102670000012415572123045690542_);}
	.st421{fill:url(#SVGID_00000052813980833978558830000010752770544806821533_);}
	.st422{fill:url(#SVGID_00000140706315160928907420000002695280798194741379_);}
	.st423{fill:url(#SVGID_00000012450162888536677730000018079573957003078063_);}
	.st424{fill:url(#SVGID_00000040548517740646351790000015836526265036838828_);}
	.st425{fill:url(#SVGID_00000159463189328729230970000003597280275754438805_);}
	.st426{fill:none;stroke:#22274C;stroke-width:0.75;stroke-miterlimit:10;}
	.st427{fill:none;stroke:#FFFFFF;stroke-width:2;stroke-miterlimit:10;}
	.st428{fill:url(#SVGID_00000101090059256539778330000003650032146170257829_);}
	.st429{fill:url(#SVGID_00000019671096167304993350000007401466295270079646_);}
	.st430{fill:url(#SVGID_00000181075157873912803480000002162871297706884493_);}
	.st431{fill:url(#SVGID_00000168097864018410078820000010388447788327057036_);}
	.st432{fill:url(#SVGID_00000136396966508171545020000002253706635798269331_);}
	.st433{fill:url(#SVGID_00000166663751861335409010000017775370919097265825_);}
	.st434{fill:url(#SVGID_00000109732060256725370190000006499957442407397046_);}
	.st435{fill:url(#SVGID_00000171695759343569311110000016788518593295784083_);}
	.st436{fill:url(#SVGID_00000134225177922463177270000011268616989486101931_);}
	.st437{fill:url(#SVGID_00000126323357596165745460000010202645805476207761_);}
	.st438{fill:url(#SVGID_00000020360834992574305840000001333961076597856129_);}
	.st439{fill:url(#SVGID_00000099654076134176272730000005351384544316026516_);}
	.st440{fill:url(#SVGID_00000032621627948442818340000002074631896990531461_);}
	.st441{fill:url(#SVGID_00000156548246401350958370000012393476685354741674_);}
	.st442{fill:url(#SVGID_00000124126413205830391330000004957692186502043814_);}
	.st443{fill:url(#SVGID_00000108278285384734509240000001166276376878262663_);}
	.st444{fill:url(#SVGID_00000058557428002688305200000016957966239954928515_);}
	.st445{fill:url(#SVGID_00000133515897624944342510000008232126387001886887_);}
	.st446{fill:url(#SVGID_00000021116939658314083160000010547822203199169451_);}
	.st447{fill:url(#SVGID_00000180328195013884825060000015845021134938639759_);}
	.st448{fill:url(#SVGID_00000050661178563790278880000011128975664437601444_);}
	.st449{fill:url(#SVGID_00000116917288800247887980000011979211699621526158_);}
	.st450{fill:url(#SVGID_00000046334633334236331200000012894905484495966348_);}
	.st451{fill:url(#SVGID_00000080926045880655789990000014490005645735851909_);}
	.st452{fill:url(#SVGID_00000007417647879240671320000001211145961765004465_);}
	.st453{fill:url(#SVGID_00000176756841919645761540000009843821267422027913_);}
	.st454{fill:url(#SVGID_00000016766842175642180020000009785052605233707165_);}
	.st455{fill:none;stroke:#8F8F8F;stroke-width:0.75;stroke-miterlimit:10;}
	.st456{fill:#8F8F8F;stroke:#8F8F8F;stroke-width:0.25;stroke-miterlimit:10;}
	.st457{fill:#8F8F8F;}
	.st458{fill:none;stroke:#8F8F8F;stroke-width:0.25;stroke-miterlimit:10;}
	.st459{fill:url(#SVGID_00000106862273696520419740000007659590920219003011_);}
	.st460{fill:url(#SVGID_00000057865469406316432440000017437680657539135626_);}
	.st461{fill:url(#SVGID_00000052073511525103871850000005265387102669132461_);}
	.st462{fill:url(#SVGID_00000104701474759313932340000006640431390518529211_);}
	.st463{fill:url(#SVGID_00000080902922190469203210000015646105094409657241_);}
	.st464{fill:url(#SVGID_00000031888300641008553250000005794631346597928859_);}
	.st465{fill:url(#SVGID_00000181058544871406481270000002604331064853034124_);}
	.st466{fill:url(#SVGID_00000098917446103783914080000005481642618335568001_);}
	.st467{fill:url(#SVGID_00000042007013777878419300000004463275249222298518_);}
	.st468{fill:url(#SVGID_00000078017661444955524870000017929549162324627856_);}
</style>
<g>
	
		<rect x="25.07" y="38.71" transform="matrix(0.943 -0.3329 0.3329 0.943 -36.5239 60.4552)" class="st175" width="266.17" height="196.19"/>
	<linearGradient id="SVGID_1_" gradientUnits="userSpaceOnUse" x1="273.743" y1="252.399" x2="42.5604" y2="21.2164">
		<stop  offset="0" style="stop-color:#E68061"/>
		<stop  offset="0.1229" style="stop-color:#DDBB1B"/>
		<stop  offset="0.5" style="stop-color:#49CA80"/>
		<stop  offset="1" style="stop-color:#38ABE6"/>
	</linearGradient>
	<rect x="25.07" y="38.71" class="st1" width="266.17" height="196.19"/>
	<g>
		<circle class="st0" cx="157.83" cy="234.87" r="29.76"/>
		
			<linearGradient id="SVGID_00000123411241406498468250000011057924923863870612_" gradientUnits="userSpaceOnUse" x1="138.9121" y1="229.4023" x2="176.9723" y2="229.4023">
			<stop  offset="0" style="stop-color:#DDBB1B"/>
			<stop  offset="1" style="stop-color:#49CA80"/>
		</linearGradient>
		<path style="fill:url(#SVGID_00000123411241406498468250000011057924923863870612_);" d="M146.29,230.97v2.62h-1.66v-2.62
			l-5.35-5.75h2.27l3.92,4.21l3.92-4.21h2.26L146.29,230.97z"/>
		
			<linearGradient id="SVGID_00000020393682451397601560000005773387181636905386_" gradientUnits="userSpaceOnUse" x1="138.9121" y1="229.4023" x2="176.9723" y2="229.4023">
			<stop  offset="0" style="stop-color:#DDBB1B"/>
			<stop  offset="1" style="stop-color:#49CA80"/>
		</linearGradient>
		<path style="fill:url(#SVGID_00000020393682451397601560000005773387181636905386_);" d="M161.4,231.67h-6.8l-1.22,1.91h-1.91
			l5.32-8.37h2.44l5.32,8.37h-1.92L161.4,231.67z M160.4,230.1l-2.4-3.78l-2.4,3.78H160.4z"/>
		
			<linearGradient id="SVGID_00000135685724261232922030000000113214254957349311_" gradientUnits="userSpaceOnUse" x1="138.9121" y1="229.4023" x2="176.9723" y2="229.4023">
			<stop  offset="0" style="stop-color:#DDBB1B"/>
			<stop  offset="1" style="stop-color:#49CA80"/>
		</linearGradient>
		<path style="fill:url(#SVGID_00000135685724261232922030000000113214254957349311_);" d="M176.21,225.22v8.37h-1.66h-0.26
			l-7.74-6.35v6.35h-1.66v-8.37h1.91l7.76,6.35v-6.35H176.21z"/>
		
			<linearGradient id="SVGID_00000008845753300904799020000013537117477551618432_" gradientUnits="userSpaceOnUse" x1="138.9121" y1="239.5602" x2="176.9723" y2="239.5602">
			<stop  offset="0" style="stop-color:#DDBB1B"/>
			<stop  offset="1" style="stop-color:#49CA80"/>
		</linearGradient>
		<path style="fill:url(#SVGID_00000008845753300904799020000013537117477551618432_);" d="M151.56,243.74h-3.75l-3.05-2.18h-2.44
			v2.18h-2.96v-8.37h8.5c0.57,0,1.1,0.14,1.6,0.42c0.5,0.28,0.9,0.65,1.21,1.12c0.31,0.47,0.46,0.99,0.46,1.56
			c0,0.75-0.25,1.4-0.76,1.96c-0.51,0.56-1.13,0.91-1.88,1.06L151.56,243.74z M147.41,239.13c0.18,0,0.35-0.06,0.51-0.19
			c0.16-0.13,0.23-0.28,0.23-0.47c0-0.18-0.08-0.34-0.23-0.47c-0.16-0.13-0.32-0.19-0.51-0.19h-5.09v1.31H147.41z"/>
		
			<linearGradient id="SVGID_00000132800962729297684230000015136826935757602696_" gradientUnits="userSpaceOnUse" x1="138.9121" y1="239.5602" x2="176.9723" y2="239.5602">
			<stop  offset="0" style="stop-color:#DDBB1B"/>
			<stop  offset="1" style="stop-color:#49CA80"/>
		</linearGradient>
		<path style="fill:url(#SVGID_00000132800962729297684230000015136826935757602696_);" d="M158,243.92c-1.78,0-3.2-0.31-4.28-0.93
			c-1.21-0.7-1.82-1.77-1.82-3.21v-0.43c0-1.44,0.61-2.51,1.82-3.21c1.08-0.62,2.5-0.93,4.28-0.93c1.78,0,3.21,0.31,4.29,0.93
			c1.21,0.7,1.82,1.77,1.82,3.21v0.43c0,1.44-0.61,2.51-1.82,3.21C161.21,243.61,159.78,243.92,158,243.92z M158,241.31
			c0.85,0,1.54-0.09,2.07-0.26c0.72-0.24,1.08-0.67,1.08-1.3v-0.36c0-0.63-0.36-1.06-1.08-1.3c-0.53-0.18-1.22-0.26-2.07-0.26
			c-0.85,0-1.54,0.09-2.06,0.26c-0.72,0.24-1.08,0.67-1.08,1.3v0.36c0,0.63,0.36,1.06,1.08,1.3
			C156.46,241.22,157.14,241.31,158,241.31z"/>
		
			<linearGradient id="SVGID_00000007397633799064789840000002677064882589102767_" gradientUnits="userSpaceOnUse" x1="138.9121" y1="239.5602" x2="176.9723" y2="239.5602">
			<stop  offset="0" style="stop-color:#DDBB1B"/>
			<stop  offset="1" style="stop-color:#49CA80"/>
		</linearGradient>
		<path style="fill:url(#SVGID_00000007397633799064789840000002677064882589102767_);" d="M176.38,243.74h-2.96v-2.88h-5.75v2.88
			h-2.96v-8.37h2.96v2.88h5.75v-2.88h2.96V243.74z"/>
		<g>
			<path class="st5" d="M141.8,215.42c0.34-0.21,0.59-0.46,0.88-0.68c0.08-0.07,0.19-0.09,0.28,0.01c0.09,0.09,0.1,0.22,0.02,0.32
				c-0.04,0.05-0.09,0.09-0.14,0.13c-0.31,0.2-0.59,0.46-0.87,0.7c-0.14,0.12-0.3,0.19-0.44,0.31c-0.12,0.1-0.2-0.05-0.27-0.12
				c-0.06-0.06-0.03-0.15,0.03-0.2C141.47,215.72,141.67,215.59,141.8,215.42z"/>
			<path class="st5" d="M173.71,215.93c-0.08,0.01-0.17,0.08-0.23-0.04c-0.06-0.11-0.03-0.25,0.06-0.33
				c0.07-0.05,0.15-0.08,0.24-0.1c0.14-0.03,0.26,0.05,0.28,0.2c0.02,0.13-0.06,0.19-0.18,0.22c-0.04,0-0.07,0.02-0.11,0.03
				L173.71,215.93z"/>
			<g>
				<g>
					<g>
						<path class="st5" d="M133.96,242.15c-0.07-0.33-0.2-0.65-0.11-1.01c0.02-0.06,0.03-0.12,0.06-0.17
							c0.05-0.1,0.1-0.21,0.25-0.16c0.17,0.06,0.25,0.21,0.2,0.36c-0.17,0.47-0.04,0.87,0.28,1.23c0.06,0.07,0.14,0.11,0.22,0.12
							c0.24,0.05,0.46,0.01,0.69-0.09c0.17-0.08,0.36-0.11,0.54-0.18c0.07-0.03,0.17-0.01,0.19,0.1c0.01,0.11,0.1,0.24-0.08,0.3
							c-0.38,0.12-0.74,0.26-1.13,0.35c-0.26,0.06-0.51-0.05-0.71-0.23C134.18,242.63,134.04,242.42,133.96,242.15z"/>
						<path class="st5" d="M137.5,245.11c0,0.12-0.05,0.21-0.18,0.25c-0.14,0.04-0.21,0.01-0.27-0.13
							c-0.21-0.47-0.43-0.94-0.64-1.41c-0.06-0.12-0.14-0.14-0.28-0.08c-0.11,0.05-0.16,0.11-0.1,0.25c0.16,0.4,0.33,0.8,0.52,1.19
							c0.06,0.12,0.03,0.18-0.09,0.23c-0.19,0.08-0.23,0.08-0.3-0.06c-0.17-0.37-0.34-0.74-0.52-1.11c-0.08-0.17-0.15-0.2-0.29-0.14
							c-0.16,0.06-0.19,0.21-0.09,0.36c0.18,0.26,0.3,0.56,0.4,0.86c0.01,0.03,0.02,0.06,0.03,0.08c0.15,0.12,0.18,0.29,0.21,0.46
							c0.03,0.13-0.03,0.17-0.13,0.22c-0.1,0.05-0.19,0.02-0.23-0.07c-0.15-0.3-0.3-0.6-0.44-0.91c-0.15-0.31-0.27-0.63-0.43-0.93
							c-0.06-0.12-0.03-0.19,0.07-0.26c0.17-0.12,0.35-0.2,0.54-0.25c0.18-0.05,0.32-0.2,0.5-0.26c0.17-0.06,0.36-0.11,0.51-0.22
							c0.12-0.09,0.22-0.04,0.29,0.1c0.13,0.26,0.21,0.54,0.4,0.76L137.5,245.11z"/>
						<path class="st5" d="M137.4,249.07c-0.09-0.12-0.09-0.24-0.01-0.4c0.11-0.19,0.11-0.39-0.03-0.58
							c-0.17-0.26-0.34-0.52-0.5-0.79c-0.09-0.16-0.22-0.23-0.4-0.22c-0.22,0-0.41-0.05-0.51-0.28c-0.07-0.15-0.04-0.23,0.12-0.23
							c0.33,0,0.65,0.05,0.98,0.06c0.36,0.01,0.71,0.03,1.06,0.06c0.05,0,0.1,0.01,0.14,0.02c0.23,0.05,0.32,0.23,0.25,0.46
							c-0.04,0.12-0.11,0.22-0.16,0.32c-0.09,0.2-0.17,0.4-0.24,0.61c-0.11,0.35-0.3,0.66-0.42,1.01
							C137.64,249.28,137.53,249.27,137.4,249.07z M137.47,247.45c0.04,0.06,0.08,0.13,0.13,0.19c0.1,0.13,0.18,0.12,0.23-0.04
							c0.04-0.11,0.07-0.22,0.13-0.32c0.06-0.1,0.03-0.16-0.09-0.16c-0.15,0-0.29-0.01-0.43-0.02c-0.1,0-0.14,0.05-0.09,0.15
							C137.38,247.32,137.43,247.38,137.47,247.45z"/>
						<path class="st5" d="M138.7,249.6c-0.12,0.1-0.25,0.21-0.38,0.32c-0.1,0.08-0.19,0.08-0.28-0.02
							c-0.09-0.1-0.11-0.19-0.01-0.29c0.16-0.16,0.34-0.29,0.51-0.43c0.27-0.23,0.54-0.47,0.81-0.71c0.09-0.08,0.28-0.03,0.33,0.1
							c0.03,0.1,0.06,0.2,0.05,0.3c-0.05,0.4-0.01,0.81-0.06,1.21c-0.02,0.15-0.01,0.31,0,0.46c0.01,0.04-0.02,0.09,0.04,0.1
							c0.04,0.02,0.08,0,0.12-0.04c0.08-0.07,0.14-0.17,0.23-0.22c0.21-0.12,0.33-0.35,0.56-0.45c0.13-0.06,0.21-0.02,0.28,0.08
							c0.07,0.11,0.03,0.19-0.06,0.26l-0.79,0.66c-0.15,0.13-0.3,0.27-0.46,0.39c-0.07,0.06-0.15,0.13-0.24,0.08
							c-0.1-0.05-0.18-0.13-0.18-0.24c0-0.19-0.01-0.38,0.01-0.57c0.04-0.27,0.02-0.55,0.04-0.82l0.02-0.39
							c0-0.05,0.04-0.12-0.03-0.15c-0.06-0.03-0.1,0.03-0.14,0.06C138.95,249.4,138.83,249.5,138.7,249.6L138.7,249.6z"/>
						<path class="st5" d="M143.5,253.3c-0.04,0.05-0.08,0.11-0.13,0.15c-0.1,0.09-0.22,0.13-0.36,0.07
							c-0.21-0.09-0.43-0.16-0.58-0.33c-0.02-0.02-0.04-0.02-0.07-0.01c-0.04,0.02-0.03,0.06-0.03,0.09c0,0.22,0.11,0.38,0.22,0.56
							c0.1,0.15,0.22,0.28,0.35,0.41c0.1,0.09,0.08,0.19-0.01,0.27c-0.08,0.09-0.17,0.09-0.27,0.01c-0.38-0.32-0.65-0.71-0.76-1.2
							c-0.03-0.13-0.01-0.26,0.01-0.39c0.03-0.15-0.01-0.26-0.14-0.33c-0.11-0.07-0.21-0.03-0.31,0.06c-0.11,0.1-0.21,0.2-0.28,0.33
							c-0.05,0.09-0.12,0.09-0.2,0.06c-0.14-0.04-0.23-0.25-0.13-0.36c0.19-0.2,0.33-0.45,0.54-0.63c0.1-0.1,0.18-0.22,0.27-0.33
							c0.13-0.14,0.25-0.29,0.4-0.42c0.07-0.06,0.16-0.05,0.23,0.03c0.11,0.11,0.22,0.22,0.35,0.32c0.28,0.22,0.54,0.46,0.82,0.68
							C143.77,252.59,143.78,252.97,143.5,253.3z M142.7,252.3c-0.14-0.11-0.27-0.23-0.41-0.35c-0.1-0.08-0.19-0.06-0.28,0.06
							c-0.08,0.09-0.09,0.18,0.01,0.26c0.12,0.09,0.23,0.19,0.34,0.29c0.18,0.17,0.37,0.31,0.58,0.45c0.06,0.04,0.16,0.06,0.23-0.01
							c0.07-0.06,0.07-0.15,0.03-0.24c-0.03-0.05-0.06-0.1-0.11-0.14L142.7,252.3z"/>
						<path class="st5" d="M144.36,255.68c-0.26-0.19-0.53-0.36-0.71-0.64c-0.18-0.27-0.15-0.53-0.06-0.8
							c0.06-0.16,0.16-0.3,0.27-0.43c0.29-0.35,0.75-0.43,1.15-0.22c0.17,0.09,0.34,0.17,0.51,0.27c0.38,0.22,0.7,0.5,0.76,0.97
							c0.02,0.16,0.01,0.32-0.09,0.46c-0.1,0.15-0.16,0.32-0.29,0.46c-0.23,0.25-0.51,0.33-0.82,0.26
							C144.83,255.94,144.58,255.85,144.36,255.68z M144.09,254.27c-0.07,0.17-0.16,0.38,0.02,0.63c0.13,0.18,0.31,0.28,0.48,0.41
							c0.18,0.13,0.37,0.25,0.62,0.23c0.31-0.02,0.58-0.22,0.63-0.52c0.02-0.17-0.06-0.34-0.17-0.47c-0.21-0.25-0.49-0.39-0.77-0.53
							C144.59,253.86,144.27,253.97,144.09,254.27z"/>
						<path class="st5" d="M148.32,255.4c0.11,0.05,0.22,0.1,0.33,0.16c0.35,0.16,0.41,0.53,0.25,0.84
							c-0.03,0.06-0.05,0.12-0.11,0.16c-0.09,0.06-0.09,0.14-0.05,0.22c0.11,0.2,0.04,0.39-0.08,0.55c-0.21,0.33-0.46,0.35-0.8,0.2
							c-0.45-0.2-0.89-0.42-1.34-0.62c-0.05-0.02-0.1-0.04-0.16-0.06c-0.26-0.07-0.25-0.21-0.17-0.4c0.09-0.24,0.23-0.45,0.33-0.69
							c0.07-0.17,0.11-0.37,0.24-0.52c0.05-0.06,0.08-0.13,0.09-0.21c0.04-0.21,0.2-0.25,0.38-0.15
							C147.6,255.06,147.96,255.24,148.32,255.4z M147,256.21c-0.1-0.04-0.19-0.04-0.25,0.06c-0.06,0.12-0.03,0.26,0.07,0.31
							c0.38,0.16,0.73,0.35,1.1,0.53c0.13,0.07,0.32,0.02,0.38-0.09c0.05-0.1-0.01-0.21-0.17-0.29l-0.88-0.41L147,256.21z
							 M147.71,255.58c-0.11-0.05-0.21-0.1-0.3-0.14c-0.14-0.06-0.28-0.02-0.32,0.09c-0.05,0.15,0.02,0.28,0.17,0.32
							c0.1,0.03,0.19,0.08,0.29,0.12c0.23,0.1,0.43,0.24,0.68,0.31c0.12,0.03,0.21-0.01,0.27-0.1c0.06-0.07-0.01-0.14-0.05-0.2
							c-0.05-0.07-0.1-0.13-0.19-0.15C148.06,255.78,147.89,255.64,147.71,255.58z"/>
						<path class="st5" d="M151.86,256.68c0.09,0.09,0.12,0.18,0.07,0.3c-0.06,0.14-0.13,0.16-0.28,0.11
							c-0.49-0.16-0.98-0.32-1.48-0.48c-0.13-0.04-0.2,0.01-0.25,0.15c-0.04,0.12-0.03,0.2,0.11,0.25c0.41,0.15,0.81,0.3,1.23,0.42
							c0.13,0.04,0.15,0.1,0.11,0.23c-0.07,0.19-0.1,0.23-0.24,0.18c-0.39-0.12-0.78-0.25-1.17-0.37c-0.18-0.06-0.25-0.03-0.3,0.12
							c-0.06,0.16,0.02,0.28,0.21,0.31c0.32,0.05,0.61,0.16,0.9,0.29c0.03,0.01,0.06,0.03,0.08,0.03c0.19-0.03,0.33,0.06,0.48,0.15
							c0.12,0.07,0.1,0.14,0.07,0.24c-0.03,0.11-0.11,0.15-0.21,0.12c-0.32-0.09-0.65-0.19-0.96-0.29c-0.33-0.1-0.65-0.23-0.98-0.32
							c-0.13-0.03-0.16-0.1-0.14-0.23c0.02-0.21,0.09-0.39,0.18-0.57c0.08-0.17,0.07-0.37,0.14-0.55c0.07-0.17,0.16-0.34,0.19-0.53
							c0.02-0.15,0.12-0.19,0.27-0.15c0.28,0.08,0.54,0.21,0.83,0.22L151.86,256.68z"/>
						<path class="st5" d="M154.58,257.93c-0.01,0.07-0.02,0.13-0.04,0.2c-0.04,0.13-0.12,0.22-0.28,0.24
							c-0.22,0.03-0.45,0.07-0.67,0c-0.03-0.01-0.05,0-0.06,0.02c-0.02,0.04,0,0.06,0.02,0.1c0.11,0.19,0.29,0.28,0.47,0.37
							c0.16,0.09,0.33,0.14,0.51,0.18c0.13,0.03,0.16,0.12,0.13,0.24c-0.03,0.12-0.11,0.16-0.23,0.14c-0.49-0.09-0.91-0.3-1.25-0.66
							c-0.09-0.1-0.14-0.22-0.18-0.35c-0.04-0.14-0.14-0.22-0.28-0.22c-0.13,0-0.2,0.08-0.24,0.21c-0.04,0.14-0.08,0.28-0.08,0.43
							c0,0.1-0.06,0.14-0.14,0.15c-0.15,0.03-0.32-0.11-0.29-0.25c0.07-0.27,0.07-0.55,0.15-0.82c0.04-0.13,0.04-0.28,0.07-0.42
							c0.04-0.19,0.08-0.38,0.14-0.56c0.03-0.09,0.11-0.12,0.22-0.09c0.15,0.04,0.3,0.08,0.46,0.1c0.35,0.05,0.7,0.14,1.05,0.18
							C154.46,257.18,154.66,257.51,154.58,257.93z M153.39,257.46c-0.17-0.03-0.35-0.07-0.53-0.1c-0.13-0.02-0.19,0.04-0.22,0.19
							c-0.03,0.12,0.01,0.2,0.14,0.22c0.15,0.02,0.29,0.05,0.44,0.08c0.24,0.06,0.48,0.09,0.72,0.11c0.08,0,0.17-0.03,0.19-0.12
							c0.03-0.09-0.01-0.17-0.09-0.22c-0.05-0.03-0.1-0.05-0.16-0.07L153.39,257.46z"/>
						<path class="st5" d="M156.54,258.54c-0.02,0.26-0.03,0.51-0.05,0.77c-0.02,0.2-0.09,0.25-0.27,0.23
							c-0.09-0.01-0.14-0.04-0.14-0.13c0-0.04-0.02-0.09-0.02-0.13c0.03-0.33,0.04-0.65,0.04-0.97c0-0.11,0.03-0.23,0.02-0.34
							c-0.01-0.1-0.06-0.17-0.17-0.16c-0.23,0.01-0.46-0.07-0.69-0.04c-0.1,0.01-0.18-0.01-0.18-0.14
							c-0.01-0.15,0.06-0.27,0.17-0.26c0.38,0.06,0.81,0.05,1.2,0.07c0.34,0.02,0.71,0.07,1.06,0.07c0.08,0,0.16,0.02,0.16,0.12
							c0,0.11,0,0.22-0.14,0.25c-0.05,0.02-0.1,0.02-0.15,0.01l-0.54-0.03c-0.18-0.01-0.25,0.04-0.27,0.22
							C156.55,258.24,156.55,258.39,156.54,258.54L156.54,258.54z"/>
						<path class="st5" d="M161.68,257.83c0.01,0.07,0.02,0.13,0.02,0.2c0,0.14-0.05,0.25-0.19,0.31c-0.21,0.09-0.41,0.2-0.64,0.19
							c-0.03,0-0.05,0.02-0.05,0.04c-0.01,0.04,0.02,0.06,0.05,0.09c0.16,0.15,0.35,0.18,0.56,0.22c0.18,0.03,0.36,0.03,0.54,0.02
							c0.13-0.01,0.19,0.07,0.19,0.19c0.01,0.12-0.05,0.19-0.17,0.2c-0.49,0.06-0.96-0.02-1.39-0.26c-0.12-0.07-0.2-0.17-0.27-0.28
							c-0.08-0.12-0.19-0.17-0.34-0.13c-0.13,0.04-0.17,0.13-0.17,0.27c0,0.15,0,0.29,0.05,0.43c0.03,0.1-0.02,0.15-0.09,0.19
							c-0.13,0.07-0.34-0.01-0.35-0.15c-0.02-0.28-0.1-0.55-0.09-0.82c0-0.14-0.04-0.28-0.06-0.42c-0.01-0.19-0.04-0.38-0.04-0.58
							c0-0.09,0.07-0.15,0.18-0.15c0.16,0,0.32-0.01,0.47-0.04c0.35-0.06,0.71-0.08,1.06-0.14
							C161.34,257.15,161.63,257.41,161.68,257.83z M160.41,257.74c-0.18,0.02-0.36,0.04-0.54,0.06c-0.13,0.02-0.17,0.1-0.15,0.24
							c0.01,0.12,0.07,0.19,0.2,0.17c0.15-0.02,0.3-0.04,0.45-0.05c0.24-0.02,0.48-0.06,0.72-0.11c0.07-0.02,0.15-0.08,0.15-0.18
							c0-0.1-0.06-0.16-0.15-0.18c-0.06-0.02-0.11-0.02-0.17-0.02L160.41,257.74z"/>
						<path class="st5" d="M162.93,257.74c0.03,0.4,0.15,0.74,0.21,1.09c0.02,0.1-0.01,0.21-0.13,0.24
							c-0.12,0.04-0.24-0.01-0.29-0.12c-0.02-0.06-0.04-0.12-0.05-0.18c-0.04-0.37-0.14-0.73-0.23-1.09
							c-0.04-0.18-0.04-0.35-0.08-0.53c-0.04-0.16,0.14-0.15,0.23-0.19c0.08-0.03,0.15,0.04,0.17,0.12
							C162.81,257.31,162.83,257.55,162.93,257.74z"/>
						<path class="st5" d="M165.22,258.48c-0.09,0.04-0.19,0.02-0.28-0.05c-0.43-0.33-0.87-0.64-1.3-0.98
							c-0.11-0.09-0.23-0.17-0.34-0.26c-0.07-0.06-0.15-0.12-0.12-0.23c0.04-0.11,0.15-0.12,0.24-0.12c0.14,0,0.27,0.04,0.38,0.13
							c0.35,0.29,0.72,0.56,1.09,0.83c0.16,0.12,0.2,0.1,0.27-0.09c0.11-0.29,0.17-0.6,0.28-0.89c0.06-0.15,0.09-0.3,0.14-0.45
							c0.06-0.18,0.2-0.26,0.36-0.32c0.1-0.04,0.18,0.04,0.17,0.15c-0.01,0.06-0.03,0.12-0.05,0.18c-0.13,0.42-0.25,0.84-0.4,1.25
							c-0.05,0.13-0.08,0.26-0.1,0.39C165.5,258.25,165.38,258.43,165.22,258.48z"/>
						<path class="st5" d="M169.34,256.82c-0.13,0.08-0.25,0.06-0.4-0.04c-0.17-0.13-0.37-0.16-0.58-0.06
							c-0.28,0.14-0.56,0.27-0.85,0.38c-0.18,0.07-0.26,0.19-0.27,0.37c-0.03,0.22-0.11,0.4-0.35,0.46
							c-0.15,0.05-0.23,0.01-0.21-0.15c0.04-0.33,0.15-0.64,0.2-0.96c0.06-0.35,0.13-0.7,0.2-1.05c0.01-0.05,0.02-0.1,0.04-0.14
							c0.08-0.22,0.27-0.29,0.49-0.18c0.11,0.05,0.2,0.14,0.3,0.2c0.18,0.12,0.37,0.23,0.57,0.32c0.33,0.16,0.62,0.39,0.94,0.55
							C169.59,256.61,169.56,256.72,169.34,256.82z M167.75,256.53c0.07-0.03,0.14-0.06,0.21-0.1c0.14-0.08,0.14-0.16,0-0.24
							c-0.1-0.06-0.21-0.1-0.3-0.17c-0.09-0.07-0.16-0.05-0.17,0.07c-0.02,0.15-0.05,0.29-0.08,0.42c-0.02,0.1,0.03,0.15,0.13,0.11
							C167.61,256.6,167.67,256.56,167.75,256.53z"/>
						<path class="st5" d="M170.28,253.76c0.17-0.01,0.3-0.14,0.47-0.17c0.33-0.06,0.6,0.01,0.85,0.26
							c0.21,0.21,0.34,0.45,0.39,0.72c0.04,0.27-0.02,0.54-0.24,0.76c-0.22,0.22-0.47,0.39-0.73,0.55
							c-0.26,0.16-0.52,0.32-0.78,0.47c-0.12,0.07-0.24,0.02-0.3-0.15c-0.06-0.15-0.15-0.29-0.25-0.42
							c-0.22-0.29-0.38-0.61-0.57-0.92c-0.13-0.2-0.12-0.22,0.05-0.38L170.28,253.76z M170.07,255.59c0.14,0.22,0.19,0.22,0.41,0.09
							c0.23-0.13,0.44-0.31,0.68-0.44c0.26-0.14,0.41-0.47,0.33-0.7c-0.13-0.36-0.35-0.58-0.76-0.47c-0.35,0.1-0.6,0.35-0.91,0.52
							c-0.03,0.01-0.05,0.04-0.08,0.05c-0.13,0.06-0.16,0.16-0.08,0.28l0.23,0.36L170.07,255.59z"/>
						<path class="st5" d="M173.24,251.5c0.12-0.03,0.22-0.01,0.29,0.11c0.08,0.13,0.07,0.2-0.06,0.29c-0.4,0.32-0.8,0.65-1.2,0.99
							c-0.11,0.09-0.1,0.17-0.01,0.29c0.08,0.1,0.15,0.13,0.27,0.04c0.35-0.26,0.69-0.53,1.02-0.81c0.1-0.09,0.17-0.07,0.25,0.03
							c0.13,0.16,0.14,0.21,0.02,0.3c-0.31,0.26-0.63,0.52-0.94,0.79c-0.14,0.12-0.16,0.2-0.06,0.32c0.1,0.14,0.25,0.14,0.37-0.01
							c0.21-0.24,0.46-0.43,0.73-0.61c0.02-0.01,0.06-0.03,0.07-0.05c0.08-0.17,0.23-0.24,0.39-0.32c0.12-0.06,0.17-0.01,0.24,0.07
							c0.07,0.09,0.06,0.18-0.01,0.24c-0.25,0.23-0.51,0.44-0.77,0.66c-0.26,0.22-0.54,0.42-0.79,0.65c-0.1,0.09-0.17,0.08-0.27,0
							c-0.16-0.13-0.28-0.29-0.38-0.46c-0.1-0.16-0.27-0.26-0.38-0.41c-0.11-0.15-0.2-0.31-0.34-0.44c-0.12-0.1-0.09-0.2,0.02-0.31
							c0.21-0.19,0.47-0.34,0.63-0.59L173.24,251.5z"/>
						<path class="st5" d="M174.95,251.85c0.12,0.11,0.24,0.22,0.36,0.34c0.09,0.09,0.1,0.18,0.02,0.28
							c-0.09,0.1-0.18,0.13-0.29,0.04c-0.18-0.14-0.33-0.31-0.49-0.46c-0.26-0.25-0.53-0.48-0.8-0.73
							c-0.09-0.08-0.06-0.28,0.06-0.34c0.09-0.04,0.19-0.08,0.29-0.08c0.4,0,0.8-0.09,1.21-0.08c0.15,0,0.31-0.02,0.46-0.05
							c0.04-0.01,0.09,0.01,0.1-0.05c0.01-0.04-0.01-0.08-0.05-0.11c-0.08-0.07-0.18-0.12-0.24-0.2c-0.15-0.19-0.39-0.29-0.51-0.51
							c-0.07-0.13-0.04-0.21,0.05-0.29c0.1-0.09,0.19-0.05,0.27,0.03l0.74,0.71c0.15,0.14,0.3,0.27,0.44,0.42
							c0.07,0.07,0.14,0.13,0.11,0.23c-0.04,0.11-0.11,0.19-0.22,0.21c-0.19,0.02-0.38,0.05-0.56,0.05
							c-0.28-0.01-0.54,0.04-0.82,0.05l-0.39,0.02c-0.05,0-0.13-0.02-0.15,0.05c-0.02,0.06,0.04,0.09,0.08,0.13
							C174.72,251.63,174.84,251.74,174.95,251.85L174.95,251.85z"/>
						<path class="st5" d="M176.84,247.33c0.11-0.06,0.21-0.06,0.31,0.03c0.11,0.1,0.11,0.17,0.01,0.3
							c-0.31,0.41-0.62,0.83-0.93,1.24c-0.08,0.11-0.06,0.19,0.06,0.28c0.1,0.08,0.18,0.09,0.27-0.03c0.27-0.34,0.54-0.67,0.79-1.03
							c0.08-0.11,0.15-0.11,0.25-0.03c0.16,0.12,0.18,0.17,0.09,0.29c-0.24,0.33-0.49,0.66-0.73,0.99
							c-0.11,0.15-0.11,0.23,0.01,0.32c0.13,0.11,0.27,0.07,0.36-0.1c0.15-0.28,0.35-0.53,0.56-0.76c0.02-0.02,0.05-0.04,0.05-0.07
							c0.03-0.19,0.17-0.29,0.3-0.41c0.1-0.09,0.17-0.05,0.25,0.01c0.09,0.07,0.1,0.16,0.05,0.24c-0.19,0.28-0.39,0.55-0.59,0.82
							c-0.2,0.28-0.42,0.54-0.61,0.82c-0.07,0.11-0.15,0.11-0.27,0.06c-0.19-0.09-0.34-0.21-0.48-0.36
							c-0.14-0.13-0.33-0.19-0.47-0.31c-0.14-0.12-0.27-0.26-0.44-0.35c-0.14-0.07-0.14-0.17-0.05-0.3
							c0.16-0.24,0.37-0.45,0.48-0.72L176.84,247.33z"/>
						<path class="st5" d="M178.11,246.87c0.31,0.25,0.63,0.4,0.94,0.6c0.09,0.06,0.15,0.15,0.09,0.26
							c-0.05,0.11-0.18,0.16-0.29,0.12c-0.06-0.02-0.12-0.05-0.17-0.09c-0.29-0.23-0.63-0.4-0.95-0.59
							c-0.16-0.09-0.28-0.22-0.44-0.31c-0.14-0.08-0.02-0.2,0.02-0.29c0.03-0.08,0.13-0.08,0.2-0.04
							C177.72,246.66,177.91,246.81,178.11,246.87z"/>
						<path class="st5" d="M179.38,244.14c0.06,0.03,0.12,0.05,0.18,0.09c0.11,0.08,0.18,0.18,0.15,0.33
							c-0.04,0.22-0.05,0.45-0.19,0.64c-0.02,0.02-0.01,0.05,0.01,0.07c0.03,0.03,0.06,0.01,0.1,0.01c0.21-0.05,0.34-0.2,0.49-0.34
							c0.13-0.13,0.23-0.28,0.32-0.44c0.07-0.12,0.16-0.12,0.27-0.05c0.11,0.06,0.13,0.15,0.07,0.26c-0.22,0.44-0.54,0.79-0.99,1.02
							c-0.12,0.06-0.25,0.07-0.38,0.08c-0.15,0-0.25,0.07-0.29,0.21c-0.04,0.13,0.02,0.21,0.13,0.29c0.12,0.08,0.24,0.16,0.39,0.19
							c0.1,0.03,0.12,0.1,0.11,0.18c-0.01,0.15-0.19,0.28-0.32,0.21c-0.24-0.14-0.51-0.22-0.74-0.37c-0.12-0.08-0.26-0.12-0.38-0.18
							c-0.17-0.09-0.34-0.18-0.5-0.29c-0.08-0.05-0.08-0.14-0.03-0.23c0.08-0.13,0.17-0.27,0.23-0.41c0.14-0.32,0.33-0.63,0.47-0.96
							C178.63,244.05,179,243.95,179.38,244.14z M178.6,245.15c-0.08,0.16-0.16,0.32-0.24,0.48c-0.05,0.12-0.01,0.2,0.12,0.26
							c0.11,0.06,0.19,0.04,0.25-0.07c0.06-0.14,0.13-0.27,0.2-0.4c0.12-0.21,0.22-0.44,0.3-0.67c0.02-0.07,0.02-0.17-0.07-0.22
							c-0.08-0.05-0.16-0.04-0.24,0.03c-0.05,0.04-0.08,0.08-0.11,0.14L178.6,245.15z"/>
						<path class="st5" d="M181.97,241.27c-0.03,0.15-0.13,0.23-0.3,0.26c-0.22,0.04-0.37,0.16-0.44,0.39
							c-0.09,0.3-0.19,0.59-0.3,0.88c-0.07,0.18-0.04,0.32,0.08,0.45c0.14,0.17,0.21,0.35,0.1,0.57c-0.07,0.15-0.15,0.17-0.25,0.05
							c-0.21-0.25-0.37-0.54-0.57-0.8c-0.22-0.28-0.42-0.57-0.63-0.86c-0.03-0.04-0.06-0.08-0.08-0.12
							c-0.11-0.21-0.03-0.39,0.2-0.48c0.11-0.04,0.24-0.05,0.35-0.08c0.21-0.05,0.42-0.12,0.62-0.2c0.34-0.14,0.7-0.19,1.05-0.31
							C181.98,240.95,182.04,241.04,181.97,241.27z M180.67,242.24c0.02-0.07,0.06-0.14,0.07-0.22c0.03-0.16-0.02-0.21-0.18-0.16
							c-0.11,0.04-0.22,0.09-0.33,0.1c-0.11,0.02-0.14,0.08-0.06,0.17c0.1,0.11,0.18,0.23,0.26,0.35c0.06,0.08,0.13,0.08,0.17-0.02
							C180.62,242.39,180.64,242.31,180.67,242.24z"/>
					</g>
				</g>
				<g>
					<g>
						<path class="st5" d="M134.51,227.56c0.12-0.12,0.13-0.3,0.24-0.44c0.21-0.26,0.46-0.39,0.81-0.37
							c0.29,0.02,0.56,0.11,0.77,0.28c0.21,0.17,0.34,0.42,0.32,0.73c-0.02,0.31-0.1,0.61-0.19,0.9c-0.09,0.29-0.18,0.58-0.27,0.87
							c-0.05,0.13-0.17,0.17-0.32,0.09c-0.15-0.08-0.31-0.12-0.46-0.15c-0.36-0.07-0.69-0.2-1.04-0.31
							c-0.23-0.07-0.23-0.09-0.22-0.32L134.51,227.56z M135.57,229.06c0.25,0.07,0.29,0.04,0.37-0.2c0.09-0.25,0.13-0.52,0.22-0.78
							c0.1-0.28,0-0.62-0.22-0.75c-0.33-0.19-0.64-0.21-0.88,0.16c-0.19,0.3-0.22,0.66-0.34,0.99c-0.01,0.03-0.01,0.06-0.03,0.09
							c-0.05,0.13-0.01,0.23,0.12,0.27l0.4,0.12L135.57,229.06z"/>
						<path class="st5" d="M136.43,224.88c0.34,0.21,0.68,0.31,1.01,0.47c0.1,0.04,0.16,0.12,0.12,0.25
							c-0.04,0.12-0.15,0.19-0.27,0.16c-0.06-0.01-0.12-0.03-0.18-0.07c-0.32-0.19-0.68-0.31-1.02-0.45
							c-0.17-0.07-0.31-0.18-0.48-0.24c-0.15-0.06-0.04-0.2-0.02-0.29c0.02-0.08,0.12-0.1,0.2-0.06
							C136.01,224.72,136.22,224.84,136.43,224.88z"/>
						<path class="st5" d="M138.91,222.94c-0.19,0.32-0.35,0.57-0.58,0.78c-0.11,0.11-0.25,0.18-0.39,0.21
							c-0.1,0.02-0.22,0.02-0.27-0.12c-0.04-0.13,0.01-0.27,0.12-0.34c0.09-0.06,0.21-0.07,0.3-0.15c0.28-0.25,0.47-0.56,0.6-0.9
							c0.02-0.06,0.06-0.12,0.08-0.19c0.02-0.06,0.04-0.13-0.02-0.17c-0.06-0.04-0.12-0.01-0.17,0.04
							c-0.11,0.11-0.24,0.21-0.33,0.34c-0.17,0.26-0.38,0.5-0.61,0.7c-0.14,0.13-0.3,0.26-0.53,0.21c-0.26-0.06-0.42-0.28-0.4-0.56
							c0.03-0.32,0.14-0.61,0.32-0.86c0.09-0.13,0.17-0.27,0.26-0.4c0.11-0.14,0.25-0.22,0.38-0.33c0.11-0.09,0.24-0.11,0.38-0.1
							c0.07,0.01,0.1,0.05,0.12,0.11c0.03,0.1,0.05,0.2-0.05,0.28c-0.05,0.04-0.1,0.08-0.16,0.1c-0.39,0.17-0.58,0.51-0.73,0.88
							c-0.04,0.1-0.13,0.23,0,0.31c0.12,0.07,0.22-0.05,0.28-0.13c0.17-0.21,0.34-0.42,0.5-0.64c0.13-0.18,0.3-0.34,0.51-0.45
							c0.23-0.12,0.42-0.07,0.6,0.08c0.17,0.14,0.16,0.35,0.11,0.52C139.15,222.46,139.1,222.77,138.91,222.94z"/>
						<path class="st5" d="M140.2,217.76c0.11-0.05,0.21-0.04,0.3,0.06c0.1,0.11,0.1,0.18-0.01,0.3c-0.35,0.38-0.69,0.77-1.03,1.16
							c-0.09,0.1-0.07,0.19,0.04,0.29c0.09,0.08,0.17,0.1,0.27-0.01c0.3-0.31,0.6-0.63,0.87-0.96c0.09-0.1,0.15-0.1,0.25-0.01
							c0.15,0.14,0.17,0.18,0.07,0.3c-0.27,0.31-0.54,0.62-0.8,0.93c-0.12,0.14-0.12,0.22-0.01,0.32c0.12,0.12,0.27,0.09,0.37-0.07
							c0.17-0.27,0.39-0.5,0.62-0.71c0.02-0.02,0.05-0.04,0.06-0.06c0.05-0.18,0.19-0.28,0.33-0.38c0.11-0.08,0.17-0.04,0.25,0.03
							c0.09,0.08,0.09,0.16,0.03,0.24c-0.21,0.26-0.43,0.52-0.65,0.77c-0.22,0.26-0.47,0.5-0.68,0.77c-0.08,0.11-0.16,0.1-0.27,0.04
							c-0.18-0.1-0.32-0.24-0.45-0.39c-0.12-0.15-0.31-0.21-0.44-0.35c-0.13-0.13-0.25-0.28-0.41-0.38
							c-0.13-0.08-0.12-0.18-0.03-0.3c0.18-0.22,0.4-0.41,0.53-0.68L140.2,217.76z"/>
						<path class="st5" d="M142.72,217.37c0.1,0.12,0.21,0.25,0.31,0.38c0.08,0.1,0.08,0.19-0.02,0.28
							c-0.1,0.09-0.19,0.11-0.29,0.01c-0.16-0.16-0.29-0.34-0.43-0.52c-0.23-0.28-0.46-0.54-0.7-0.82c-0.08-0.09-0.03-0.28,0.1-0.33
							c0.1-0.03,0.2-0.06,0.3-0.04c0.4,0.05,0.81,0.01,1.21,0.07c0.15,0.02,0.31,0.02,0.46,0.01c0.04,0,0.09,0.02,0.1-0.03
							c0.02-0.04,0-0.08-0.04-0.12c-0.07-0.08-0.17-0.14-0.22-0.23c-0.12-0.21-0.35-0.33-0.44-0.57c-0.05-0.13-0.02-0.21,0.08-0.28
							c0.11-0.07,0.19-0.02,0.26,0.06l0.65,0.79c0.13,0.15,0.27,0.3,0.39,0.47c0.06,0.08,0.13,0.15,0.08,0.24
							c-0.05,0.1-0.13,0.17-0.25,0.18c-0.19,0-0.38,0.01-0.57-0.02c-0.27-0.05-0.55-0.02-0.82-0.05l-0.39-0.02
							c-0.05,0-0.12-0.04-0.15,0.03c-0.03,0.06,0.03,0.1,0.06,0.14C142.51,217.12,142.62,217.24,142.72,217.37L142.72,217.37z"/>
						<path class="st5" d="M148.08,214.58c-0.12,0.09-0.25,0.08-0.4-0.01c-0.18-0.12-0.38-0.13-0.58,0
							c-0.27,0.16-0.54,0.32-0.81,0.45c-0.17,0.09-0.24,0.21-0.24,0.39c-0.01,0.22-0.07,0.4-0.3,0.49
							c-0.15,0.06-0.23,0.03-0.22-0.13c0.01-0.33,0.09-0.65,0.11-0.98c0.02-0.36,0.07-0.71,0.11-1.06c0-0.05,0.01-0.1,0.02-0.14
							c0.06-0.22,0.25-0.31,0.47-0.22c0.11,0.04,0.21,0.12,0.32,0.17c0.19,0.1,0.39,0.2,0.59,0.27c0.34,0.13,0.65,0.33,0.99,0.47
							C148.3,214.36,148.28,214.47,148.08,214.58z M146.46,214.43c0.07-0.04,0.14-0.07,0.2-0.12c0.13-0.1,0.13-0.17-0.02-0.23
							c-0.11-0.05-0.22-0.08-0.32-0.15c-0.09-0.06-0.16-0.04-0.16,0.08c0,0.15-0.02,0.29-0.04,0.43c-0.01,0.1,0.04,0.14,0.14,0.1
							C146.33,214.52,146.39,214.47,146.46,214.43z"/>
						<path class="st5" d="M150.22,211.44c0.17,0.03,0.32-0.07,0.49-0.06c0.33,0.02,0.58,0.15,0.77,0.45
							c0.15,0.25,0.23,0.52,0.21,0.79c-0.02,0.27-0.15,0.52-0.41,0.68c-0.27,0.16-0.55,0.27-0.84,0.36
							c-0.29,0.09-0.58,0.19-0.87,0.28c-0.14,0.04-0.23-0.04-0.26-0.21c-0.02-0.16-0.08-0.32-0.14-0.47
							c-0.14-0.33-0.23-0.69-0.34-1.03c-0.07-0.23-0.06-0.24,0.13-0.36L150.22,211.44z M149.6,213.17c0.08,0.24,0.13,0.26,0.38,0.19
							c0.26-0.07,0.5-0.19,0.76-0.27c0.29-0.08,0.51-0.36,0.49-0.61c-0.04-0.38-0.2-0.65-0.63-0.63c-0.36,0.01-0.67,0.2-1.01,0.29
							c-0.03,0.01-0.06,0.02-0.09,0.03c-0.14,0.03-0.19,0.12-0.15,0.25l0.14,0.4L149.6,213.17z"/>
						<path class="st5" d="M154.57,212.64c-0.32,0.03-0.63,0.07-0.96-0.02c-0.31-0.08-0.47-0.3-0.57-0.56
							c-0.06-0.16-0.07-0.33-0.08-0.51c-0.02-0.45,0.28-0.82,0.72-0.93c0.18-0.05,0.37-0.1,0.56-0.14c0.43-0.08,0.86-0.09,1.21,0.23
							c0.12,0.11,0.22,0.23,0.24,0.4c0.02,0.18,0.09,0.35,0.08,0.54c-0.01,0.34-0.17,0.58-0.45,0.74
							C155.09,212.53,154.84,212.62,154.57,212.64z M153.43,211.76c0.06,0.17,0.13,0.39,0.43,0.46c0.22,0.05,0.42,0.01,0.63-0.01
							c0.22-0.02,0.44-0.06,0.61-0.24c0.22-0.22,0.3-0.55,0.13-0.81c-0.09-0.14-0.26-0.22-0.43-0.24c-0.32-0.05-0.62,0.03-0.93,0.11
							C153.54,211.12,153.37,211.42,153.43,211.76z"/>
						<path class="st5" d="M159.64,210.96c0,0.07,0,0.13-0.01,0.2c-0.02,0.14-0.09,0.24-0.24,0.28c-0.22,0.06-0.43,0.14-0.66,0.1
							c-0.03,0-0.05,0.01-0.06,0.03c-0.02,0.04,0.01,0.06,0.03,0.09c0.13,0.17,0.32,0.23,0.52,0.3c0.17,0.06,0.35,0.09,0.53,0.1
							c0.13,0.01,0.18,0.1,0.16,0.22c-0.01,0.12-0.08,0.18-0.2,0.17c-0.5-0.02-0.95-0.16-1.34-0.47c-0.11-0.08-0.17-0.19-0.23-0.31
							c-0.06-0.14-0.17-0.19-0.31-0.18c-0.13,0.02-0.18,0.11-0.2,0.24c-0.02,0.14-0.04,0.29-0.01,0.43c0.02,0.1-0.04,0.15-0.12,0.17
							c-0.14,0.05-0.33-0.06-0.32-0.2c0.02-0.28-0.02-0.56,0.03-0.83c0.02-0.14,0-0.28,0.01-0.42c0.01-0.19,0.02-0.39,0.05-0.58
							c0.01-0.09,0.09-0.13,0.2-0.12c0.16,0.02,0.31,0.04,0.47,0.03c0.35,0,0.71,0.03,1.07,0.02
							C159.4,210.24,159.65,210.54,159.64,210.96z M158.39,210.68c-0.18-0.01-0.36-0.02-0.54-0.02c-0.13,0-0.18,0.07-0.19,0.22
							c-0.01,0.12,0.04,0.19,0.17,0.2c0.15,0,0.3,0.01,0.45,0.02c0.24,0.02,0.49,0.02,0.73,0c0.08-0.01,0.16-0.05,0.17-0.15
							c0.01-0.09-0.03-0.16-0.12-0.2c-0.05-0.03-0.11-0.04-0.17-0.04L158.39,210.68z"/>
						<path class="st5" d="M166.26,212.89c-0.23,0.59-0.58,0.8-1.24,0.66c-0.32-0.06-0.64-0.17-0.94-0.3
							c-0.37-0.16-0.62-0.5-0.59-0.92c0.02-0.32,0.13-0.63,0.36-0.86c0.19-0.2,0.45-0.27,0.72-0.24c0.42,0.05,0.81,0.22,1.22,0.36
							c0.25,0.08,0.4,0.28,0.51,0.5c0.03,0.07,0.01,0.14-0.04,0.19c-0.06,0.06-0.14,0.12-0.25,0.1c-0.09-0.02-0.17-0.06-0.23-0.14
							c-0.33-0.4-0.77-0.54-1.27-0.54c-0.29,0-0.48,0.18-0.54,0.46c-0.08,0.38,0.07,0.62,0.43,0.77c0.29,0.11,0.58,0.19,0.9,0.2
							c0.09,0,0.17-0.02,0.25-0.06c0.05-0.03,0.1-0.05,0.1-0.11c0-0.07-0.06-0.08-0.11-0.1c-0.14-0.05-0.63-0.2-0.77-0.24
							c-0.1-0.03-0.16-0.1-0.14-0.2c0.03-0.15,0.11-0.23,0.23-0.22c0.18,0.01,0.67,0.22,0.84,0.27c0.14,0.04,0.28,0.04,0.42,0.12
							C166.31,212.69,166.32,212.67,166.26,212.89z"/>
						<path class="st5" d="M169.92,214.22c-0.03,0.06-0.06,0.12-0.09,0.18c-0.08,0.11-0.19,0.17-0.33,0.14
							c-0.22-0.04-0.45-0.07-0.64-0.21c-0.02-0.02-0.05-0.01-0.07,0c-0.03,0.03-0.02,0.06-0.01,0.1c0.04,0.21,0.19,0.35,0.33,0.5
							c0.13,0.13,0.28,0.23,0.43,0.33c0.11,0.07,0.12,0.17,0.05,0.27c-0.06,0.1-0.15,0.12-0.26,0.07c-0.44-0.23-0.78-0.56-0.99-1.01
							c-0.06-0.12-0.07-0.25-0.07-0.38c0-0.15-0.06-0.25-0.2-0.3c-0.13-0.04-0.21,0.02-0.29,0.13c-0.08,0.12-0.16,0.24-0.2,0.38
							c-0.03,0.1-0.1,0.11-0.18,0.1c-0.15-0.01-0.27-0.2-0.2-0.32c0.15-0.24,0.23-0.51,0.4-0.73c0.08-0.11,0.13-0.25,0.19-0.38
							c0.1-0.17,0.19-0.34,0.3-0.49c0.05-0.07,0.14-0.08,0.23-0.02c0.13,0.09,0.26,0.17,0.41,0.24c0.32,0.15,0.62,0.34,0.94,0.49
							C170.04,213.46,170.13,213.84,169.92,214.22z M168.94,213.4c-0.16-0.08-0.31-0.17-0.47-0.25c-0.12-0.06-0.19-0.02-0.27,0.11
							c-0.06,0.11-0.05,0.19,0.06,0.25c0.13,0.07,0.27,0.14,0.39,0.22c0.21,0.13,0.43,0.23,0.66,0.32c0.07,0.02,0.17,0.02,0.22-0.06
							c0.06-0.08,0.04-0.16-0.02-0.24c-0.04-0.05-0.08-0.08-0.13-0.11L168.94,213.4z"/>
						<path class="st5" d="M172.75,218.09c-0.13-0.08-0.17-0.2-0.14-0.37c0.04-0.21-0.02-0.4-0.21-0.54
							c-0.25-0.19-0.49-0.38-0.72-0.59c-0.14-0.12-0.28-0.14-0.45-0.08c-0.21,0.07-0.4,0.08-0.57-0.1c-0.11-0.12-0.11-0.2,0.04-0.26
							c0.31-0.11,0.64-0.16,0.95-0.26c0.34-0.11,0.68-0.2,1.03-0.29c0.05-0.01,0.1-0.02,0.14-0.03c0.23-0.03,0.38,0.11,0.38,0.35
							c0,0.12-0.03,0.24-0.05,0.36c-0.03,0.22-0.04,0.43-0.03,0.65c0.01,0.37-0.07,0.72-0.07,1.09
							C173.05,218.22,172.94,218.24,172.75,218.09z M172.29,216.53c0.06,0.05,0.11,0.1,0.18,0.14c0.14,0.09,0.2,0.05,0.21-0.11
							c0-0.12-0.01-0.23,0.02-0.35c0.02-0.11-0.03-0.16-0.14-0.12c-0.14,0.05-0.28,0.09-0.42,0.12c-0.1,0.03-0.12,0.09-0.04,0.17
							C172.17,216.44,172.23,216.48,172.29,216.53z"/>
						<path class="st5" d="M175.82,218.19c0.16,0.21,0.3,0.43,0.5,0.61c0.13,0.12,0.21,0.28,0.33,0.4c0.06,0.06,0.13,0.12,0.18,0.19
							c0.08,0.1,0.06,0.23-0.02,0.3c-0.1,0.09-0.18,0.07-0.3-0.02c-0.26-0.19-0.39-0.49-0.61-0.71c-0.15-0.15-0.28-0.32-0.42-0.48
							c-0.1-0.12-0.2-0.12-0.3-0.02c-0.11,0.11-0.11,0.2-0.01,0.31c0.27,0.3,0.5,0.63,0.78,0.93c0.09,0.09,0.08,0.24,0,0.32
							c-0.08,0.08-0.24,0.07-0.33-0.03c-0.19-0.23-0.41-0.44-0.58-0.69c-0.07-0.1-0.16-0.19-0.26-0.26
							c-0.08-0.06-0.18-0.07-0.27,0.01c-0.12,0.1-0.19,0.23-0.33,0.29c-0.1,0.04-0.19,0.08-0.27-0.03c-0.08-0.1-0.08-0.23,0.01-0.31
							c0.46-0.42,0.94-0.78,1.41-1.19c0.04-0.04,0.09-0.01,0.14,0L175.82,218.19z"/>
						<path class="st5" d="M177.47,221.68c-0.35,0.18-0.63,0.41-0.93,0.6c-0.09,0.06-0.19,0.07-0.27-0.03
							c-0.08-0.09-0.08-0.23,0.01-0.32c0.05-0.04,0.09-0.09,0.15-0.12c0.33-0.17,0.62-0.4,0.92-0.62c0.15-0.1,0.31-0.17,0.46-0.27
							c0.13-0.09,0.19,0.07,0.26,0.14c0.06,0.06,0.02,0.15-0.05,0.2C177.82,221.41,177.61,221.52,177.47,221.68z"/>
						<path class="st5" d="M179.86,224.18c-0.02,0.11,0.04,0.21,0.08,0.32c0.08,0.23,0.04,0.45-0.06,0.65
							c-0.05,0.1-0.18,0.13-0.29,0.05c-0.1-0.07-0.16-0.17-0.14-0.29c0.12-0.57-0.17-0.99-0.52-1.39c-0.1-0.11-0.24-0.16-0.39-0.13
							c-0.52,0.1-0.7,0.44-0.54,0.92c0.06,0.17,0.15,0.34,0.23,0.5c0.07,0.13,0.18,0.27,0.33,0.35c0.09,0.05,0.17,0.1,0.23,0.18
							c0.09,0.11,0.09,0.23,0.01,0.35c-0.07,0.11-0.18,0.06-0.27,0.03c-0.47-0.14-0.72-0.75-0.91-1.15
							c-0.21-0.46-0.24-1.13,0.3-1.38c0.1-0.05,0.2-0.09,0.3-0.15c0.29-0.18,0.57-0.12,0.85,0.01c0.11,0.05,0.19,0.14,0.25,0.24
							c0.08,0.13,0.2,0.22,0.27,0.35L179.86,224.18z"/>
						<path class="st5" d="M179.14,228.44c-0.07-0.31-0.16-0.62-0.11-0.95c0.04-0.32,0.24-0.5,0.48-0.64
							c0.15-0.08,0.32-0.12,0.49-0.15c0.45-0.08,0.85,0.16,1.01,0.59c0.07,0.18,0.15,0.35,0.21,0.53c0.14,0.41,0.2,0.84-0.07,1.23
							c-0.09,0.13-0.2,0.25-0.37,0.29c-0.18,0.04-0.33,0.14-0.52,0.16c-0.34,0.04-0.6-0.09-0.79-0.35
							C179.31,228.94,179.19,228.7,179.14,228.44z M179.86,227.19c-0.16,0.08-0.37,0.18-0.4,0.49c-0.02,0.22,0.05,0.42,0.09,0.62
							c0.05,0.21,0.12,0.43,0.31,0.58c0.25,0.19,0.58,0.22,0.82,0.02c0.13-0.11,0.18-0.29,0.18-0.46c0.01-0.32-0.11-0.61-0.23-0.91
							C180.5,227.21,180.19,227.08,179.86,227.19z"/>
					</g>
				</g>
				<circle class="st5" cx="181.43" cy="234.57" r="0.98"/>
				<circle class="st5" cx="134.23" cy="234.57" r="0.98"/>
			</g>
		</g>
		<g>
			
				<linearGradient id="SVGID_00000149355669009412070150000015532428203145632188_" gradientUnits="userSpaceOnUse" x1="180.9872" y1="258.0321" x2="134.6727" y2="211.7177">
				<stop  offset="0" style="stop-color:#E68061"/>
				<stop  offset="0.1229" style="stop-color:#DDBB1B"/>
				<stop  offset="0.5" style="stop-color:#49CA80"/>
				<stop  offset="1" style="stop-color:#38ABE6"/>
			</linearGradient>
			<path style="fill:url(#SVGID_00000149355669009412070150000015532428203145632188_);" d="M157.83,205.11
				c16.44,0,29.76,13.33,29.76,29.76s-13.33,29.76-29.76,29.76s-29.76-13.33-29.76-29.76S141.39,205.11,157.83,205.11
				 M157.83,202.11c-18.07,0-32.76,14.7-32.76,32.76s14.7,32.76,32.76,32.76s32.76-14.7,32.76-32.76S175.9,202.11,157.83,202.11
				L157.83,202.11z"/>
		</g>
	</g>
</g>
</svg>
