<?xml version="1.0" encoding="utf-8"?>
<!-- Generator: Adobe Illustrator 27.0.0, SVG Export Plug-In . SVG Version: 6.00 Build 0)  -->
<svg version="1.1" id="Capa_1" xmlns="http://www.w3.org/2000/svg" xmlns:xlink="http://www.w3.org/1999/xlink" x="0px" y="0px"
	 viewBox="0 0 66.24 66.95" style="enable-background:new 0 0 66.24 66.95;" xml:space="preserve">
<style type="text/css">
	.st0{fill:#090E38;}
	.st1{fill:url(#SVGID_1_);}
	.st2{fill:#161A42;}
	.st3{fill:url(#SVGID_00000039092383641585442860000010582968631513829550_);}
	.st4{fill:url(#SVGID_00000182529686466711179760000007015586331255822238_);}
	.st5{fill:#FFFFFF;}
	.st6{fill:#E9E9EB;}
	.st7{fill:#2280C3;}
	.st8{fill:#263A6B;}
	.st9{fill:#13183B;}
	.st10{fill:#EBEBFF;}
	.st11{fill:#15336C;}
	.st12{fill:#121D3E;}
	.st13{fill:#D8CE9E;}
	.st14{fill:#5F485A;}
	.st15{fill:#17316F;}
	.st16{fill:#0A1C4F;}
	.st17{fill:#1E1A55;}
	.st18{fill:#12193B;}
	.st19{fill:#D8CD9C;}
	.st20{fill:#544A55;}
	.st21{fill:#E0E1E3;}
	.st22{fill:#15193A;}
	.st23{fill:#D6CC89;}
	.st24{fill:#434642;}
	.st25{fill:#131543;}
	.st26{fill:#3E3B38;}
	.st27{fill:#181940;}
	.st28{fill:#D7CE9D;}
	.st29{fill:#806D64;}
	.st30{opacity:0.7;fill:#6FC4D8;}
	.st31{fill:#805AE4;}
	.st32{fill:#ECB40A;}
	.st33{fill:#10B78E;}
	.st34{fill:url(#SVGID_00000132805959709394124720000006397701313695303854_);}
	.st35{fill:url(#SVGID_00000102509755059757547150000016914525106810920370_);}
	.st36{fill:url(#SVGID_00000158728679979707885240000018080281585377436837_);}
	.st37{fill:url(#SVGID_00000045609785546843911140000002915800936159520441_);}
	.st38{fill:url(#SVGID_00000170993622218276106720000005693138421998403984_);}
	.st39{fill:url(#SVGID_00000067930248978215331600000009189386351031641513_);}
	.st40{fill:url(#SVGID_00000126282039400825385670000009317673761491629475_);}
	.st41{fill:url(#SVGID_00000049220930915301893850000003952443803147642015_);}
	.st42{fill:url(#SVGID_00000089543067418707571260000017887467502943734915_);}
	.st43{fill:url(#SVGID_00000065757952512733237420000000111371121116090269_);}
	.st44{fill:url(#SVGID_00000103960768997998296390000015575686595210225025_);}
	.st45{fill:url(#SVGID_00000148629841891410190650000016703839399702286245_);}
	.st46{fill:url(#SVGID_00000089539157897304699990000016241313462507847297_);}
	.st47{fill:url(#SVGID_00000143598114855658293250000009576407891760319410_);}
	.st48{fill:url(#SVGID_00000069365963142964722170000014769100655177235115_);}
	.st49{fill:url(#SVGID_00000108268499450919567580000014073542366343024299_);}
	.st50{fill:url(#SVGID_00000123400930924675201570000001499728009879226513_);}
	.st51{fill:url(#SVGID_00000008113900269973282080000001252826692304737947_);}
	.st52{fill:url(#SVGID_00000023992544132649922280000009952367816516180112_);}
	.st53{fill:url(#SVGID_00000031171445512669177350000004930457436064037823_);}
	.st54{fill:url(#SVGID_00000116955186985465193310000001469157719939209857_);}
	.st55{fill:url(#SVGID_00000100384746404440447880000006922261666275911835_);}
	.st56{fill:url(#SVGID_00000011024991553511060160000014708988053694442895_);}
	.st57{fill:url(#SVGID_00000070819884469458656480000015684171888022526134_);}
	.st58{fill:url(#SVGID_00000060714881065485645500000010328521285094056355_);}
	.st59{fill:url(#SVGID_00000088114617696747893980000015422978236364160656_);}
	.st60{clip-path:url(#SVGID_00000088128305717071167780000013478848336885202314_);fill:#FFFFFF;}
	.st61{fill:none;stroke:#805AE4;stroke-miterlimit:10;}
	.st62{fill:url(#SVGID_00000028285874407951618020000011774043856227752623_);}
	.st63{fill:url(#SVGID_00000101072114017261022340000000548909578959022745_);}
	.st64{fill:url(#SVGID_00000013180500997573535590000018046020256196558468_);}
	.st65{fill:url(#SVGID_00000147930902757010860370000005695519396298290335_);}
	.st66{fill:url(#SVGID_00000156577584247802351130000018082059613150689698_);}
	.st67{fill:url(#SVGID_00000080887601976450007280000017699544153873305277_);}
	.st68{fill:url(#SVGID_00000130623290154359147490000005136178260498508961_);}
	.st69{fill:url(#SVGID_00000046299520898878302040000008804171528326221744_);}
	.st70{fill:url(#SVGID_00000090269539393139910300000012448890654348231092_);}
	.st71{fill:url(#SVGID_00000143596761786650417150000007963794076708120766_);}
	.st72{fill:url(#SVGID_00000152981441482896097800000005625669640350735530_);}
	.st73{fill:url(#SVGID_00000092450467739837845980000011255267358401654941_);}
	.st74{fill:#DDBB1B;}
	.st75{fill:#49CA80;}
	.st76{fill:#CF78C6;}
	.st77{fill:#BDACFF;}
	.st78{fill:#37368D;}
	.st79{fill:#E11E5E;}
	.st80{fill:#EB9F49;}
	.st81{fill:#FF6B6B;}
	.st82{fill:#38ABE6;}
	.st83{fill:url(#SVGID_00000106852812082537301660000011123431876097713075_);}
	.st84{fill:url(#SVGID_00000088095833453022801430000011424606529196628142_);}
	.st85{fill:url(#SVGID_00000036229179370414766090000018403425503338336666_);}
	.st86{fill:#E78A7E;}
	.st87{fill:#E69C78;}
	.st88{fill:#FF80E7;}
	.st89{fill:#E86480;}
	.st90{fill:url(#SVGID_00000106105193424173314990000006437217335952174231_);}
	.st91{fill:url(#SVGID_00000046310166500613406730000015166747342683393678_);}
	.st92{fill:url(#SVGID_00000120543716372839179070000009293672606622973340_);}
	.st93{fill:url(#SVGID_00000038395831270990307320000018302482330689982389_);}
	.st94{fill:url(#SVGID_00000115512326653939158810000009899928418281835683_);}
	.st95{fill:url(#SVGID_00000150094307199607624590000012146959638492863411_);}
	.st96{fill:url(#SVGID_00000148663458451195994600000016777190301221817791_);}
	.st97{fill:url(#SVGID_00000100384712206610524560000000166809913868007849_);}
	.st98{fill:url(#SVGID_00000002357141467784797980000009243289492097176498_);}
	.st99{fill:url(#SVGID_00000172437347026315759430000004101259764788153771_);}
	.st100{fill:url(#SVGID_00000004505751884855933190000015914691881558954403_);}
	.st101{fill:url(#SVGID_00000004534617783273544810000008544816977804586665_);}
	.st102{fill:url(#SVGID_00000163756432394030587690000011559060015767379614_);}
	.st103{fill:url(#SVGID_00000140699890958502810140000006477312322696815549_);}
	.st104{fill:url(#SVGID_00000155129765212404797960000014296937928438162323_);}
	.st105{fill:url(#SVGID_00000149351121445398659140000000701889453712040637_);}
	.st106{fill:url(#SVGID_00000103265022856308976900000001809576091448805516_);}
	.st107{fill:url(#SVGID_00000113340589697964909670000005687240550869104270_);}
	.st108{fill:url(#SVGID_00000125597228127234886070000012941178169836510387_);}
	.st109{fill:url(#SVGID_00000036240898822332695100000011177913043553447554_);}
	.st110{fill:url(#SVGID_00000018924500057442430040000017949724307852151974_);}
	.st111{fill:url(#SVGID_00000078011704661474877620000001402434869876204462_);}
	.st112{fill:url(#SVGID_00000125561811786428876710000000794429646124448423_);}
	.st113{fill:url(#SVGID_00000050645452417144993660000001813413702830286501_);}
	.st114{fill:url(#SVGID_00000142149156482044606380000014760408457070635155_);}
	.st115{fill:url(#SVGID_00000057860504461234448240000012190974563608654983_);}
	.st116{fill:url(#SVGID_00000065786080796911355400000005321916372031547797_);}
	.st117{fill:url(#SVGID_00000080927791102523859600000006819084015781190026_);}
	.st118{fill:url(#SVGID_00000102520123426902501530000006569889901490801793_);}
	.st119{fill:url(#SVGID_00000067224689427644904250000016064424016212211390_);}
	.st120{fill:url(#SVGID_00000096781477499073583430000008048647801284256185_);}
	.st121{fill:url(#SVGID_00000121256559570615245060000004935963888789970331_);}
	.st122{fill:url(#SVGID_00000103267331309301122540000002418285849082871433_);}
	.st123{fill:url(#SVGID_00000100351367071516448140000010546410056490745228_);}
	.st124{fill:url(#SVGID_00000127760021922478693180000017104763431391893382_);}
	.st125{fill:url(#SVGID_00000021119426744876894090000017797626633727561883_);}
	.st126{fill:url(#SVGID_00000147213991812969928720000013372961020504155044_);}
	.st127{fill:url(#SVGID_00000140715783011345513730000000716154033109066399_);}
	.st128{fill:url(#SVGID_00000138540156664527981800000004350011402526120381_);}
	.st129{fill:url(#SVGID_00000134207602566418290410000001425407174821433507_);}
	.st130{fill:url(#SVGID_00000170250696198862414840000007352187004397377166_);}
	.st131{fill:url(#SVGID_00000121981739973205326700000004022364917930212783_);}
	.st132{fill:url(#SVGID_00000068679554696995192550000001046347881154028976_);}
	.st133{fill:url(#SVGID_00000146500033434391930880000006455051544670536091_);}
	.st134{fill:url(#SVGID_00000067950842133615218310000003459357778136469892_);}
	.st135{fill:url(#SVGID_00000149371330036072794220000008725749973693123994_);}
	.st136{fill:url(#SVGID_00000064311484663087162000000017389615920551228298_);}
	.st137{fill:url(#SVGID_00000029047160367746745950000005413197941797826993_);}
	.st138{fill:url(#SVGID_00000176035631871262933130000010956665229908113817_);}
	.st139{fill:url(#SVGID_00000090987774846629177790000012284215786850410885_);}
	.st140{fill:url(#SVGID_00000158002789754411272630000015817610303890611605_);}
	.st141{fill:url(#SVGID_00000011746120264217189060000010594777355981409666_);}
	.st142{fill:url(#SVGID_00000181792574391989805820000010724065232581785216_);}
	.st143{fill:url(#SVGID_00000084524369843919274940000016144012706867949980_);}
	.st144{fill:url(#SVGID_00000140736641297321510200000004869942935657522103_);}
	.st145{fill:url(#SVGID_00000108298531311109959180000007722886728473594512_);}
	.st146{fill:url(#SVGID_00000012440993353060582760000005614866968727082940_);}
	.st147{fill:url(#SVGID_00000023964707140795211390000008790212470439152029_);}
	.st148{fill:url(#SVGID_00000103951852905524030980000003618392635250200480_);}
	.st149{fill:url(#SVGID_00000075160505521020351490000001114160207175696289_);}
	.st150{fill:url(#SVGID_00000060031082599246188900000002752226200977252737_);}
	.st151{fill:url(#SVGID_00000109745380995569631420000004201528304279261071_);}
	.st152{fill:url(#SVGID_00000062157091077862207440000003640393116405139605_);}
	.st153{fill:url(#SVGID_00000074444013313884438120000004684539431528588941_);}
	.st154{fill:url(#SVGID_00000103957525012154141070000013147284155268781194_);}
	.st155{fill:url(#SVGID_00000099632894350870728140000012500551776376248248_);}
	.st156{fill:url(#SVGID_00000090294012023348018480000008556189833028703892_);}
	.st157{fill:url(#SVGID_00000169541723561115090150000008726413731213524117_);}
	.st158{fill:url(#SVGID_00000129177312706980438750000011062562261619187079_);}
	.st159{fill:url(#SVGID_00000018199727241332023880000000301691116331511459_);}
	.st160{fill:url(#SVGID_00000046305481853896928690000008680098937447522452_);}
	.st161{fill:url(#SVGID_00000131350764557080479420000003740496833944593822_);}
	.st162{fill:url(#SVGID_00000152955142421600417090000004616382578312057743_);}
	.st163{fill:none;stroke:#090E38;stroke-width:2;stroke-miterlimit:10;}
	.st164{fill:#803CFF;}
	.st165{fill:none;stroke:#803CFF;stroke-miterlimit:10;}
	.st166{fill:#848698;}
	.st167{fill:url(#SVGID_00000173159568535038274260000014152035795702851228_);}
	.st168{fill:url(#SVGID_00000155138170642513779730000001334773380109396153_);}
	.st169{fill:url(#SVGID_00000138542384263004170320000010172088767902878605_);}
	.st170{fill:url(#SVGID_00000163041913654733346010000009263863299280899728_);}
	.st171{fill:url(#SVGID_00000065786405256429740250000008752979288005626758_);}
	.st172{fill:url(#SVGID_00000031914790444864136630000006091360226763891374_);}
	.st173{fill:url(#SVGID_00000173146290983732019740000013729180710172374147_);}
	.st174{fill:url(#SVGID_00000030467733046421692500000008421151783412131739_);}
	.st175{fill:#22274C;}
	.st176{fill:url(#SVGID_00000035490229410043520740000000152543054975938736_);}
	.st177{fill:url(#SVGID_00000059272542285226465850000010271503256963141261_);}
	.st178{fill:url(#SVGID_00000088852724130242898750000013897349425539075983_);}
	.st179{fill:url(#SVGID_00000044158634557563269440000004976104447841007770_);}
	.st180{fill:url(#SVGID_00000076586596879983128740000004178272964886038698_);}
	.st181{fill:url(#SVGID_00000165235719807434434680000000026289811351485069_);}
	.st182{fill:url(#SVGID_00000139976194671644225280000016518995620812940212_);}
	.st183{fill:url(#SVGID_00000104666215434364472630000015342520464880094094_);}
	.st184{fill:url(#SVGID_00000038387344641879232850000012531695124028655546_);}
	.st185{fill:url(#SVGID_00000078742711095335514790000000120912013304016572_);}
	.st186{fill:url(#SVGID_00000176746749056661145110000014813504268836990639_);}
	.st187{fill:url(#SVGID_00000052824651769390109890000016606915648985434015_);}
	.st188{fill:url(#SVGID_00000003099293530084901050000016430966051962122891_);}
	.st189{fill:url(#SVGID_00000181790810303330391740000016142783010525842877_);}
	.st190{fill:url(#SVGID_00000029757026929976877550000009115459618004530086_);}
	.st191{fill:url(#SVGID_00000064340306859402785770000017527298154164704664_);}
	.st192{fill:url(#SVGID_00000000941525177093315500000010094141191736134806_);}
	.st193{fill:url(#SVGID_00000062888612978581384180000012470302324413488789_);}
	.st194{fill:url(#SVGID_00000165933933388338586350000009576616929525481892_);}
	.st195{fill:url(#SVGID_00000125589168841570563440000007141357165830593181_);}
	.st196{fill:url(#SVGID_00000063605269803377373480000011879528030479931777_);}
	.st197{fill:url(#SVGID_00000165224895081870151980000015559741634794094984_);}
	.st198{fill:url(#SVGID_00000060021764168953104020000016438742514415752125_);}
	.st199{fill:url(#SVGID_00000016786693370885851520000000132273408936480667_);}
	.st200{fill:url(#SVGID_00000021828308373437911810000012747182853814424240_);}
	.st201{fill:url(#SVGID_00000163067068244592673940000012409543889163854252_);}
	.st202{fill:url(#SVGID_00000101105472642617493920000003201515251235342998_);}
	.st203{fill:url(#SVGID_00000034075240486944207190000003706200119890132881_);}
	.st204{fill:url(#SVGID_00000040562211799531390100000002283897220697115042_);}
	.st205{fill:url(#SVGID_00000102511384397266784490000007403951570926222211_);}
	.st206{fill:url(#SVGID_00000119826585488934457780000013985051434221741229_);}
	.st207{fill:url(#SVGID_00000134208984180327087740000017498673724696668349_);}
	.st208{fill:url(#SVGID_00000109729347554344220970000011047363024211987347_);}
	.st209{fill:url(#SVGID_00000066491675561371953480000016792276435836577934_);}
	.st210{fill:url(#SVGID_00000070087230258787535840000016810898711445162417_);}
	.st211{fill:url(#SVGID_00000067915646896422820020000006971056912535085243_);}
	.st212{fill:none;stroke:#FFFFFF;stroke-linecap:round;stroke-miterlimit:10;}
	.st213{fill:url(#SVGID_00000062183715136499515400000010508856976501146240_);}
	.st214{fill:url(#SVGID_00000147935486091985954110000001358666214495409051_);}
	.st215{fill:url(#SVGID_00000066509027886982558670000004421893248702759574_);}
	.st216{fill:url(#SVGID_00000108306635534788318420000003117606346220917934_);}
	.st217{fill:url(#SVGID_00000114036409258550567190000003784592541069161650_);}
	.st218{fill:url(#SVGID_00000062888700620730958610000012929773462336304805_);}
	.st219{fill:url(#SVGID_00000090293189882221191430000015941470124374239679_);}
	.st220{fill:url(#SVGID_00000121962914510460265180000017645125596107870608_);}
	.st221{fill:url(#SVGID_00000125590355669277447260000003030803008748352162_);}
	.st222{fill:url(#SVGID_00000023972530946536565530000011727523438078433198_);}
	.st223{fill:url(#SVGID_00000044158992353106358430000017737127795951694751_);}
	.st224{fill:url(#SVGID_00000044143218651953771120000006463013862676947330_);}
	.st225{fill:url(#SVGID_00000172432311818636268870000001812862741802134149_);}
	.st226{fill:url(#SVGID_00000062185825182528644340000008109515660979596672_);}
	.st227{fill:url(#SVGID_00000072976121113251570770000015510510199066444459_);}
	.st228{fill:url(#SVGID_00000118366498968056720080000005921632288539688341_);}
	.st229{fill:url(#SVGID_00000174580326084564020650000017162442107699777170_);}
	.st230{fill:url(#SVGID_00000008866838701305556850000002067696246422718600_);}
	.st231{fill:url(#SVGID_00000000926522143053324880000007479173820782130862_);}
	.st232{fill:url(#SVGID_00000109023942139601515950000016783654187440229031_);}
	.st233{fill:url(#SVGID_00000042694462812911232960000007966528776464257704_);}
	.st234{fill:none;stroke:#22274C;stroke-width:0.5;stroke-miterlimit:10;}
	.st235{fill:url(#SVGID_00000118384384406009946600000007304284072422720154_);}
	.st236{fill:none;stroke:#22274C;stroke-miterlimit:10;}
	.st237{fill:url(#SVGID_00000086689417549695260350000013337148258468429205_);}
	.st238{fill:url(#SVGID_00000152948644404093392740000000150981834841406850_);}
	.st239{fill:url(#SVGID_00000035510474974740016130000011495442161503338663_);}
	.st240{fill:url(#SVGID_00000126323170841043342090000008307134905296439168_);}
	.st241{fill:url(#SVGID_00000091698090257735508650000011537083788663355304_);}
	.st242{fill:url(#SVGID_00000151535483987366606450000010035719166924767675_);}
	.st243{fill:url(#SVGID_00000002370112169846820700000018021814943734897291_);}
	.st244{fill:url(#SVGID_00000059277908022064834130000013964903932025400202_);}
	.st245{fill:url(#SVGID_00000075878585782338381790000013036549007656803003_);}
	.st246{fill:url(#SVGID_00000124848905214828958130000005046002437502413968_);}
	.st247{fill:url(#SVGID_00000124852188930186447550000008024028053246259593_);}
	.st248{fill:url(#SVGID_00000037667387647305766910000009638665940334940603_);}
	.st249{fill:none;stroke:#E11E5E;stroke-miterlimit:10;}
	.st250{fill:url(#SVGID_00000003101509682848712090000012472701637421584538_);}
	.st251{fill:url(#SVGID_00000126297530722223706160000009872178546694539962_);}
	.st252{fill:url(#SVGID_00000142854491155744503860000017562874519458146688_);}
	.st253{fill:url(#SVGID_00000060720621619255769280000015606999725190413956_);}
	.st254{fill:url(#SVGID_00000027605878835377965000000012459116531651659407_);}
	.st255{fill:url(#SVGID_00000118395280869119452260000001494528146947753098_);}
	.st256{fill:url(#SVGID_00000081611644095507796330000011154139914582008223_);}
	.st257{fill:url(#SVGID_00000176745593604377245070000003760137042942013845_);}
	.st258{fill:url(#SVGID_00000103980324593954087100000017746668022141812105_);}
	.st259{fill:url(#SVGID_00000176032527865375763150000009555216097994481077_);}
	.st260{fill:url(#SVGID_00000180340900149862665570000013770265489627798416_);}
	.st261{fill:url(#SVGID_00000056423410528490230480000008297106072360998571_);}
	.st262{fill:url(#SVGID_00000049919990117285237640000006614093969299113357_);}
	.st263{fill:url(#SVGID_00000163037547442345539370000007123472072926552250_);}
	.st264{fill:url(#SVGID_00000096021031105566395600000005958924329277426365_);}
	.st265{fill:url(#SVGID_00000079450242080522233420000004981449446345196437_);}
	.st266{fill:url(#SVGID_00000008827710662747346560000005313555148448534435_);}
	.st267{fill:url(#SVGID_00000160167819552942796380000012371891909821487488_);}
	.st268{fill:url(#SVGID_00000012431546651941135910000009438268768926327712_);}
	.st269{fill:url(#SVGID_00000002350523052130319280000006837853320030563495_);}
	.st270{fill:url(#SVGID_00000031927896352286959640000013172468187155846057_);}
	.st271{fill:url(#SVGID_00000065043843597608061420000009023328234449047173_);}
	.st272{fill:url(#SVGID_00000021840902960114113380000001267754938473653933_);}
	.st273{fill:none;stroke:#FFFFFF;stroke-width:0.75;stroke-miterlimit:10;}
	.st274{fill:none;stroke:#FFFFFF;stroke-width:0.75;stroke-linecap:round;stroke-miterlimit:10;}
	.st275{fill-rule:evenodd;clip-rule:evenodd;fill:none;stroke:#FFFFFF;stroke-width:0.5;stroke-miterlimit:10;}
	
		.st276{fill-rule:evenodd;clip-rule:evenodd;fill:none;stroke:#FFFFFF;stroke-width:0.5;stroke-linecap:round;stroke-miterlimit:10;}
	.st277{fill:url(#SVGID_00000176762838676267053200000014118946496551925384_);}
	.st278{fill:url(#SVGID_00000174576077207020365420000013101684113638050945_);}
	.st279{fill:url(#SVGID_00000009571805437147175710000006240656269131139221_);}
	.st280{fill:url(#SVGID_00000053519927714946002170000017365398061440682134_);}
	.st281{fill:url(#SVGID_00000091004649470961755220000018371831780298404244_);}
	.st282{fill:url(#SVGID_00000062888177936203487880000002546684461939667337_);}
	.st283{fill:url(#SVGID_00000043423803996931950550000009935472634716490143_);}
	.st284{fill:url(#SVGID_00000074416167269131126810000000836662177617749694_);}
	.st285{fill:url(#SVGID_00000087376753625523476490000004997498247013419398_);}
	.st286{fill:url(#SVGID_00000078725298049346462270000006652977092617949590_);}
	.st287{fill:url(#SVGID_00000110467865240489371110000000177175686348556693_);}
	.st288{fill:url(#SVGID_00000129177599524294646550000015878180864594155941_);}
	.st289{fill:url(#SVGID_00000049916377337723649540000005760287232918464689_);}
	.st290{fill:url(#SVGID_00000048497866721945257950000016511997572520707990_);}
	.st291{fill:url(#SVGID_00000147191597542925748080000000933401923438389154_);}
	.st292{fill:url(#SVGID_00000154404883394169093910000011238303176601328298_);}
	.st293{fill:url(#SVGID_00000074419116394852455170000008971493887863776649_);}
	.st294{fill:url(#SVGID_00000039854358307024533040000005845632848629919659_);}
	.st295{fill:url(#SVGID_00000037690433100108876580000016650136016898844548_);}
	.st296{fill:url(#SVGID_00000091013523507076093640000013755500243056230587_);}
	.st297{fill:url(#SVGID_00000181767684852033794800000001513057328352099736_);}
	.st298{fill:url(#SVGID_00000058549026985544696420000012616763972747698352_);}
	.st299{fill:url(#SVGID_00000091714377239433608580000003664324491299670951_);}
	.st300{fill:url(#SVGID_00000130643404933809842910000013498330912593266089_);}
	.st301{fill:url(#SVGID_00000117670154825951526640000014960057150668787647_);}
	.st302{clip-path:url(#SVGID_00000085950707011224833710000018286675537695681930_);fill:#22264C;}
	.st303{clip-path:url(#SVGID_00000044884054328905221050000009808250762723611534_);fill:#FFFFFF;}
	.st304{clip-path:url(#SVGID_00000110430752196277659120000009281275098441740968_);fill:#FFFFFF;}
	.st305{clip-path:url(#SVGID_00000107586494583800626840000018408939702937640354_);fill:#FFFFFF;}
	.st306{clip-path:url(#SVGID_00000011721521619846913430000001515591188709214630_);fill:#FFFFFF;}
	.st307{clip-path:url(#SVGID_00000122685114315381110360000000106981129174273923_);fill:#FFFFFF;}
	.st308{clip-path:url(#SVGID_00000091012185176895570920000008761531035867980991_);fill:#FFFFFF;}
	.st309{clip-path:url(#SVGID_00000066486352286161247850000006920296118161790109_);fill:#FFFFFF;}
	.st310{clip-path:url(#SVGID_00000114793073029399956280000012785772654822563507_);fill:#FFFFFF;}
	.st311{clip-path:url(#SVGID_00000159459059324322558970000003202452383223359423_);fill:#FFFFFF;}
	.st312{clip-path:url(#SVGID_00000175306013424293198050000017226983817932545693_);fill:#FFFFFF;}
	.st313{clip-path:url(#SVGID_00000017481915651631298990000011926019633202517667_);fill:#FFFFFF;}
	.st314{fill:url(#SVGID_00000117638720953048284630000008147210848529465482_);}
	.st315{fill:url(#SVGID_00000001649568274865471860000004825561336688411066_);}
	.st316{fill:url(#SVGID_00000107557045062170086760000002175459197875009458_);}
	.st317{fill:url(#SVGID_00000065042186733265267470000004843942306312352675_);}
	.st318{fill:url(#SVGID_00000076568233782195729610000003903403946517417151_);}
	.st319{fill:url(#SVGID_00000043448569435421085820000005777367584786853014_);}
	.st320{fill:url(#SVGID_00000010270824809985459040000009515167830257035959_);}
	.st321{fill:url(#SVGID_00000070111288504593923530000005277610056960851646_);}
	.st322{fill:url(#SVGID_00000012447713078882270900000012128554595418599571_);}
	.st323{fill:url(#SVGID_00000182496712461835259180000012045344657803857815_);}
	.st324{fill:url(#SVGID_00000162312080962762738540000006936900185345094815_);}
	.st325{fill:url(#SVGID_00000079447396302666189670000005859357461227154600_);}
	.st326{fill:url(#SVGID_00000023969607548334043580000005119055495725803682_);}
	.st327{fill:url(#SVGID_00000164510267378013297460000018237197910383050145_);}
	.st328{fill:url(#SVGID_00000109022522467517994100000000552155004433008814_);}
	.st329{fill:url(#SVGID_00000124130600662579109870000013504132839660259513_);}
	.st330{fill:url(#SVGID_00000108295200689376016580000011857755275141904813_);}
	.st331{fill:url(#SVGID_00000098214967623498673380000001472929981978968728_);}
	.st332{fill:url(#SVGID_00000084499404102229576060000017935556087949813405_);}
	.st333{fill:url(#SVGID_00000026841769811429343420000008780248974524297145_);}
	.st334{fill:url(#SVGID_00000165948904576154249870000005027000463831094203_);}
	.st335{fill:url(#SVGID_00000104671279714555172090000005370663716508449970_);}
	.st336{fill:url(#SVGID_00000094603650081881556720000017250956845102947978_);}
	.st337{fill:url(#SVGID_00000176737884493351744230000000187377816606720920_);}
	.st338{fill:url(#SVGID_00000052071302392331605700000012552684801730017697_);}
	.st339{fill:url(#SVGID_00000108293550787019724080000008180428837221224113_);}
	.st340{fill:url(#SVGID_00000041269347649406177530000008005036483815505589_);}
	.st341{fill:url(#SVGID_00000054960984033723642830000011036860043313467280_);}
	.st342{fill:url(#SVGID_00000122722106725811586590000013274277608833133233_);}
	.st343{fill:url(#SVGID_00000073721467155806752260000009476603832623477910_);}
	.st344{fill:url(#SVGID_00000107560150921160963290000004876664056174188207_);}
	.st345{fill:url(#SVGID_00000134952254280328421060000012393957526928097425_);}
	.st346{fill:url(#SVGID_00000179616025211880848520000015911116854057866899_);}
	.st347{fill:url(#SVGID_00000031919282094567682410000015682262403610353804_);}
	.st348{fill:url(#SVGID_00000000908962862088430440000007450620745904113797_);}
	.st349{fill:url(#SVGID_00000178926893142752968230000004401405723878002092_);}
	.st350{fill:url(#SVGID_00000132084258641824722600000004671180725342906038_);}
	.st351{fill:url(#SVGID_00000160876819892430864440000010231627724037283004_);}
	.st352{fill:url(#SVGID_00000178171920343854284170000004706315158734721459_);}
	.st353{fill:url(#SVGID_00000151529839378724604020000006323030371897645473_);}
	.st354{fill:#8A8989;}
	.st355{fill:#616160;}
	.st356{fill-rule:evenodd;clip-rule:evenodd;fill:#FFFFFF;}
	.st357{fill-rule:evenodd;clip-rule:evenodd;fill:#8A8989;}
	.st358{fill-rule:evenodd;clip-rule:evenodd;fill:#797879;}
	.st359{clip-path:url(#XMLID_00000152254711382874082230000011189658906733256089_);}
	.st360{opacity:0.2;fill:#E1E3E7;}
	.st361{fill-rule:evenodd;clip-rule:evenodd;fill:#616160;}
	.st362{fill:#E1E3E7;}
	.st363{fill:#FFFFFF;stroke:#FFFFFF;stroke-width:4;stroke-miterlimit:10;}
	.st364{fill:#58595B;}
	.st365{fill:#80A926;}
	.st366{clip-path:url(#SVGID_00000056395409979462775350000015425441136077053573_);}
	.st367{clip-path:url(#SVGID_00000047051048101519481470000003045357944660496271_);}
	.st368{clip-path:url(#SVGID_00000153686810286805333400000012156910753912899494_);}
	.st369{clip-path:url(#SVGID_00000022538965929760952010000016653982714730000287_);}
	.st370{clip-path:url(#SVGID_00000124842526002916581540000006878703989713017741_);}
	.st371{clip-path:url(#SVGID_00000106852459420289119400000003355250588458327974_);}
	.st372{clip-path:url(#SVGID_00000169518263202232457620000010048797985709778580_);}
	.st373{clip-path:url(#SVGID_00000036243679715206183380000003751383600755113885_);}
	.st374{clip-path:url(#SVGID_00000091734951836807567330000016066256712901712575_);}
	.st375{clip-path:url(#SVGID_00000030455608709266903220000012785265019940364206_);}
	.st376{fill:#1D1E1C;}
	.st377{opacity:0.36;}
	.st378{opacity:0.57;}
	.st379{fill:none;}
	.st380{fill:#01CEA6;}
	.st381{fill:#01261F;}
	.st382{fill:#E68000;}
	.st383{fill:#261400;}
	.st384{fill:#E63D80;}
	.st385{fill:#2D0013;}
	.st386{fill:#3695BB;}
	.st387{fill:#032732;}
	.st388{fill:#CDE4EC;}
	.st389{fill:#DA80E7;}
	.st390{fill:#B072BD;}
	.st391{fill:#855994;}
	.st392{fill:#180024;}
	.st393{fill:#DD80EA;}
	.st394{fill:#BB80E7;}
	.st395{fill:#9B77C0;}
	.st396{fill:#C080ED;}
	.st397{fill:#1F0140;}
	.st398{fill:#80619A;}
	.st399{fill:url(#SVGID_00000006704853915500978200000009508889636680011658_);}
	.st400{fill:url(#SVGID_00000167384461968074426640000006988711460469097910_);}
	.st401{fill:url(#SVGID_00000021820141256122066650000010515092866980738448_);}
	.st402{fill:url(#SVGID_00000015331476868665435090000010893813713333152678_);}
	.st403{fill:url(#SVGID_00000002348313970974452410000000235292969664720299_);}
	.st404{fill:url(#SVGID_00000003813454995391331070000009300034881374952093_);}
	.st405{fill:url(#SVGID_00000116208558550097197970000009071089337496587945_);}
	.st406{fill:url(#SVGID_00000120523162312746031730000005770584489525380515_);}
	.st407{fill:url(#SVGID_00000171710361541335419100000001271826531189673120_);}
	.st408{fill:url(#SVGID_00000147934916982726905470000016279510138059866499_);}
	.st409{fill:url(#SVGID_00000064336086684895093830000004213322623397959613_);}
	.st410{fill:url(#SVGID_00000128477839009269359520000017318975383900788134_);}
	.st411{fill:none;stroke:#464A69;stroke-miterlimit:10;}
	.st412{fill:url(#SVGID_00000038410373709908617000000005413983989249102513_);}
	.st413{fill:url(#SVGID_00000125601635319482377640000000522920263882061731_);}
	.st414{fill:url(#SVGID_00000023963248213909097960000017662104206875397019_);}
	.st415{fill:url(#SVGID_00000008847489177824858620000005295262415815019688_);}
	.st416{fill:url(#SVGID_00000005975301177612688010000017041387452958811799_);}
	.st417{fill:url(#SVGID_00000067205143779339719550000006524290321797658791_);}
	.st418{fill:url(#SVGID_00000085209700106518681220000003372161012658990755_);}
	.st419{fill:url(#SVGID_00000007410975739658095020000003903120353969435022_);}
	.st420{fill:url(#SVGID_00000132073877326856063890000006362656649090729892_);}
	.st421{fill:url(#SVGID_00000060007807995502107770000012973748371713151152_);}
	.st422{fill:url(#SVGID_00000047040578277102125820000012493782708649794705_);}
	.st423{fill:url(#SVGID_00000070822760470045828530000000368300334633528750_);}
	.st424{fill:url(#SVGID_00000018208250952880469780000013472245671966432928_);}
	.st425{fill:url(#SVGID_00000134970695866514117010000008073896431904132501_);}
	.st426{fill:none;stroke:#22274C;stroke-width:0.75;stroke-miterlimit:10;}
	.st427{fill:none;stroke:#FFFFFF;stroke-width:2;stroke-miterlimit:10;}
	.st428{fill:url(#SVGID_00000080177229370860105120000015029255620974776979_);}
	.st429{fill:url(#SVGID_00000011730092982169031270000000560222334837263779_);}
	.st430{fill:url(#SVGID_00000096020151794014156650000012519163893765736345_);}
	.st431{fill:url(#SVGID_00000165947497237827967920000002080131990973042841_);}
	.st432{fill:url(#SVGID_00000008109847900608375100000004035415157359613323_);}
	.st433{fill:url(#SVGID_00000103241335785533761160000013126168451356141453_);}
	.st434{fill:url(#SVGID_00000129925406517013525880000001968797687828589714_);}
	.st435{fill:url(#SVGID_00000044151659895918601240000012186547872961230756_);}
	.st436{fill:url(#SVGID_00000035531461538243025960000008567085305412052879_);}
	.st437{fill:url(#SVGID_00000051356828899605591620000013500795783999991994_);}
	.st438{fill:url(#SVGID_00000024712398455430781810000002679314226969131705_);}
	.st439{fill:url(#SVGID_00000020378720661781566310000010492468310423754683_);}
	.st440{fill:url(#SVGID_00000110440966444797868080000015954749169773318835_);}
	.st441{fill:url(#SVGID_00000165201856260935817960000003222432896554603908_);}
	.st442{fill:url(#SVGID_00000087370315375138854770000010565265353026008495_);}
	.st443{fill:url(#SVGID_00000063611816445609281850000003225214114785400718_);}
	.st444{fill:url(#SVGID_00000120526321428160520170000014465771594401291656_);}
	.st445{fill:url(#SVGID_00000139287621263516079280000002269701378097071791_);}
	.st446{fill:url(#SVGID_00000103227515715975710170000011487497973400964738_);}
	.st447{fill:url(#SVGID_00000096053531942470320350000004991137613190243514_);}
	.st448{fill:url(#SVGID_00000179639214218762876680000015269324753961761923_);}
	.st449{fill:url(#SVGID_00000015348021613763342120000003722689436313356210_);}
	.st450{fill:url(#SVGID_00000016765743402532111190000014640818458957357468_);}
	.st451{fill:url(#SVGID_00000080888061403360737600000007059246045091179168_);}
	.st452{fill:url(#SVGID_00000132071918553768472290000002857070609899144597_);}
	.st453{fill:url(#SVGID_00000129180296076824864660000013432914028884395696_);}
	.st454{fill:url(#SVGID_00000121265486621725187860000000514833186685819327_);}
	.st455{fill:none;stroke:#8F8F8F;stroke-width:0.75;stroke-miterlimit:10;}
	.st456{fill:#8F8F8F;stroke:#8F8F8F;stroke-width:0.25;stroke-miterlimit:10;}
	.st457{fill:#8F8F8F;}
	.st458{fill:none;stroke:#8F8F8F;stroke-width:0.25;stroke-miterlimit:10;}
	.st459{fill:url(#SVGID_00000183943147520017228170000009126622032503505829_);}
	.st460{fill:url(#SVGID_00000129918381006018636470000013885825658067103656_);}
	.st461{fill:url(#SVGID_00000125585710119464151130000010710253570755211706_);}
	.st462{fill:url(#SVGID_00000119811814256581461750000007475392030217780360_);}
	.st463{fill:url(#SVGID_00000096759343501104910990000010619696934205203623_);}
	.st464{fill:url(#SVGID_00000041981930482177055940000006939703242827031424_);}
	.st465{fill:url(#SVGID_00000085969259720231197380000014861118046291950270_);}
	.st466{fill:url(#SVGID_00000063612765905902286050000003360680878344082569_);}
	.st467{fill:url(#SVGID_00000023997566692291926430000010457892125166671799_);}
	.st468{fill:url(#SVGID_00000086660760812202856470000013230068855486674361_);}
</style>
<g>
	<path class="st5" d="M17.09,14.02c0.34-0.21,0.59-0.46,0.88-0.68c0.08-0.07,0.19-0.09,0.28,0.01c0.09,0.09,0.1,0.22,0.02,0.32
		c-0.04,0.05-0.09,0.09-0.14,0.13c-0.31,0.2-0.59,0.46-0.87,0.7c-0.14,0.12-0.3,0.19-0.44,0.31c-0.12,0.1-0.2-0.05-0.27-0.12
		c-0.06-0.06-0.03-0.15,0.03-0.2C16.76,14.32,16.96,14.19,17.09,14.02z"/>
	<path class="st5" d="M49,14.53c-0.08,0.01-0.17,0.08-0.23-0.04c-0.06-0.11-0.03-0.25,0.06-0.33c0.07-0.05,0.15-0.08,0.24-0.1
		c0.14-0.03,0.26,0.05,0.28,0.2c0.02,0.13-0.06,0.19-0.18,0.22c-0.04,0-0.07,0.02-0.11,0.03L49,14.53z"/>
	<g>
		<g>
			<g>
				<path class="st5" d="M9.25,40.75c-0.07-0.33-0.2-0.65-0.11-1.01c0.02-0.06,0.03-0.12,0.06-0.17c0.05-0.1,0.1-0.21,0.25-0.16
					c0.17,0.06,0.25,0.21,0.2,0.36c-0.17,0.47-0.04,0.88,0.28,1.23c0.06,0.07,0.14,0.11,0.22,0.12c0.24,0.05,0.46,0.01,0.69-0.09
					c0.17-0.08,0.36-0.11,0.54-0.18c0.07-0.03,0.17-0.01,0.19,0.1c0.01,0.11,0.1,0.24-0.08,0.3c-0.38,0.12-0.74,0.26-1.13,0.35
					c-0.26,0.06-0.51-0.05-0.71-0.23C9.47,41.22,9.33,41.02,9.25,40.75z"/>
				<path class="st5" d="M12.79,43.71c0,0.12-0.05,0.21-0.18,0.25c-0.14,0.04-0.21,0.01-0.27-0.13c-0.21-0.47-0.43-0.94-0.64-1.41
					c-0.06-0.12-0.14-0.14-0.28-0.08c-0.11,0.05-0.16,0.11-0.1,0.25c0.16,0.4,0.33,0.8,0.52,1.19c0.06,0.12,0.03,0.18-0.09,0.23
					c-0.19,0.08-0.23,0.08-0.3-0.06c-0.17-0.37-0.34-0.74-0.52-1.11c-0.08-0.17-0.15-0.2-0.29-0.14c-0.16,0.06-0.19,0.21-0.09,0.36
					c0.18,0.26,0.3,0.56,0.4,0.86c0.01,0.03,0.02,0.06,0.03,0.08c0.15,0.12,0.18,0.29,0.21,0.46c0.03,0.13-0.03,0.17-0.13,0.22
					c-0.1,0.05-0.19,0.02-0.23-0.07c-0.15-0.3-0.3-0.6-0.44-0.91c-0.15-0.31-0.27-0.63-0.43-0.93c-0.06-0.12-0.03-0.19,0.07-0.26
					c0.17-0.12,0.35-0.2,0.54-0.25c0.18-0.05,0.32-0.2,0.5-0.26c0.17-0.06,0.36-0.11,0.51-0.22c0.12-0.09,0.22-0.04,0.29,0.1
					c0.13,0.26,0.21,0.54,0.4,0.76L12.79,43.71z"/>
				<path class="st5" d="M12.69,47.67c-0.09-0.12-0.09-0.24-0.01-0.4c0.11-0.19,0.11-0.39-0.03-0.58c-0.17-0.26-0.34-0.52-0.5-0.79
					c-0.09-0.16-0.22-0.23-0.4-0.22c-0.22,0-0.41-0.05-0.51-0.28c-0.07-0.15-0.04-0.23,0.12-0.23c0.33,0,0.65,0.05,0.98,0.06
					c0.36,0.01,0.71,0.03,1.06,0.06c0.05,0,0.1,0.01,0.14,0.02c0.23,0.05,0.32,0.23,0.25,0.46c-0.04,0.12-0.11,0.22-0.16,0.32
					c-0.09,0.2-0.17,0.4-0.24,0.61c-0.11,0.35-0.3,0.66-0.42,1.01C12.93,47.88,12.82,47.87,12.69,47.67z M12.76,46.05
					c0.04,0.06,0.08,0.13,0.13,0.19c0.1,0.13,0.18,0.12,0.23-0.04c0.04-0.11,0.07-0.22,0.13-0.32c0.06-0.1,0.03-0.16-0.09-0.16
					c-0.15,0-0.29-0.01-0.43-0.02c-0.1,0-0.14,0.05-0.09,0.15C12.67,45.92,12.72,45.98,12.76,46.05z"/>
				<path class="st5" d="M13.99,48.2c-0.12,0.1-0.25,0.21-0.38,0.32c-0.1,0.08-0.19,0.08-0.28-0.02c-0.09-0.1-0.11-0.19-0.01-0.29
					c0.16-0.16,0.34-0.29,0.51-0.43c0.27-0.23,0.54-0.47,0.81-0.71c0.09-0.08,0.28-0.03,0.33,0.1c0.03,0.1,0.06,0.2,0.05,0.3
					c-0.05,0.4-0.01,0.81-0.06,1.21c-0.02,0.15-0.01,0.31,0,0.46c0.01,0.04-0.02,0.09,0.04,0.1c0.04,0.02,0.08,0,0.12-0.04
					c0.08-0.07,0.14-0.17,0.23-0.22c0.21-0.12,0.33-0.35,0.56-0.45c0.13-0.06,0.21-0.02,0.28,0.08c0.07,0.11,0.03,0.19-0.06,0.26
					l-0.79,0.66c-0.15,0.13-0.3,0.27-0.46,0.39c-0.07,0.06-0.15,0.13-0.24,0.08c-0.1-0.05-0.18-0.13-0.18-0.24
					c0-0.19-0.01-0.38,0.01-0.57c0.04-0.27,0.02-0.55,0.04-0.82l0.02-0.39c0-0.05,0.04-0.12-0.03-0.15
					c-0.06-0.03-0.1,0.03-0.14,0.06C14.24,48,14.12,48.1,13.99,48.2L13.99,48.2z"/>
				<path class="st5" d="M18.79,51.9c-0.04,0.05-0.08,0.11-0.13,0.15c-0.1,0.09-0.22,0.13-0.36,0.07c-0.21-0.09-0.43-0.16-0.58-0.33
					c-0.02-0.02-0.04-0.02-0.07-0.01c-0.04,0.02-0.03,0.06-0.03,0.09c0,0.22,0.11,0.38,0.22,0.56c0.1,0.15,0.22,0.28,0.35,0.41
					c0.1,0.09,0.08,0.19-0.01,0.27c-0.08,0.09-0.17,0.09-0.27,0.01c-0.38-0.32-0.65-0.71-0.76-1.2c-0.03-0.13-0.01-0.26,0.01-0.39
					c0.03-0.15-0.01-0.26-0.14-0.33c-0.11-0.07-0.21-0.03-0.31,0.06c-0.11,0.1-0.21,0.2-0.28,0.33c-0.05,0.09-0.12,0.09-0.2,0.06
					c-0.14-0.04-0.23-0.25-0.13-0.36c0.19-0.2,0.33-0.45,0.54-0.63c0.1-0.1,0.18-0.22,0.27-0.33c0.13-0.14,0.25-0.29,0.4-0.42
					c0.07-0.06,0.16-0.05,0.23,0.03c0.11,0.11,0.22,0.22,0.35,0.32c0.28,0.22,0.54,0.46,0.82,0.68
					C19.06,51.19,19.07,51.57,18.79,51.9z M17.99,50.9c-0.14-0.11-0.27-0.23-0.41-0.35c-0.1-0.08-0.19-0.06-0.28,0.06
					c-0.08,0.09-0.09,0.18,0.01,0.26c0.12,0.09,0.23,0.19,0.34,0.29c0.18,0.17,0.37,0.31,0.58,0.45c0.06,0.04,0.16,0.06,0.23-0.01
					c0.07-0.06,0.07-0.15,0.03-0.24c-0.03-0.05-0.06-0.1-0.11-0.14L17.99,50.9z"/>
				<path class="st5" d="M19.65,54.28c-0.26-0.19-0.53-0.36-0.71-0.64c-0.18-0.27-0.15-0.53-0.06-0.8c0.06-0.16,0.16-0.3,0.27-0.43
					c0.29-0.35,0.75-0.43,1.15-0.22c0.17,0.09,0.34,0.17,0.51,0.27c0.38,0.22,0.7,0.5,0.76,0.97c0.02,0.16,0.01,0.32-0.09,0.46
					c-0.1,0.15-0.16,0.32-0.29,0.46c-0.23,0.25-0.51,0.33-0.82,0.26C20.12,54.54,19.87,54.45,19.65,54.28z M19.38,52.87
					c-0.07,0.17-0.16,0.38,0.02,0.63c0.13,0.18,0.31,0.28,0.48,0.41c0.18,0.13,0.37,0.25,0.62,0.23c0.31-0.02,0.58-0.22,0.63-0.52
					c0.02-0.17-0.06-0.34-0.17-0.47c-0.21-0.25-0.49-0.39-0.77-0.53C19.88,52.46,19.56,52.57,19.38,52.87z"/>
				<path class="st5" d="M23.61,54c0.11,0.05,0.22,0.1,0.33,0.16c0.35,0.16,0.41,0.53,0.25,0.84c-0.03,0.06-0.05,0.12-0.11,0.16
					c-0.09,0.06-0.09,0.14-0.05,0.22c0.11,0.2,0.04,0.39-0.08,0.55c-0.21,0.33-0.46,0.35-0.8,0.2c-0.45-0.2-0.89-0.42-1.34-0.62
					c-0.05-0.02-0.1-0.04-0.16-0.06c-0.26-0.07-0.25-0.21-0.17-0.4c0.09-0.24,0.23-0.45,0.33-0.69c0.07-0.17,0.11-0.37,0.24-0.52
					c0.05-0.06,0.08-0.13,0.09-0.21c0.04-0.21,0.2-0.25,0.38-0.15C22.89,53.66,23.25,53.84,23.61,54z M22.29,54.81
					c-0.1-0.04-0.19-0.04-0.25,0.06c-0.06,0.12-0.03,0.26,0.07,0.31c0.38,0.16,0.73,0.35,1.1,0.53c0.13,0.07,0.32,0.02,0.38-0.09
					c0.05-0.1-0.01-0.21-0.17-0.29l-0.88-0.41L22.29,54.81z M23,54.18c-0.11-0.05-0.21-0.1-0.3-0.14c-0.14-0.06-0.28-0.02-0.32,0.09
					c-0.05,0.15,0.02,0.28,0.17,0.32c0.1,0.03,0.19,0.08,0.29,0.12c0.23,0.1,0.43,0.24,0.68,0.31c0.12,0.03,0.21-0.01,0.27-0.1
					c0.06-0.07-0.01-0.14-0.05-0.2c-0.05-0.07-0.1-0.13-0.19-0.15C23.35,54.38,23.18,54.24,23,54.18z"/>
				<path class="st5" d="M27.15,55.28c0.09,0.09,0.12,0.18,0.07,0.3c-0.06,0.14-0.13,0.16-0.28,0.11c-0.49-0.16-0.98-0.32-1.48-0.48
					c-0.13-0.04-0.2,0.01-0.25,0.15c-0.04,0.12-0.03,0.2,0.11,0.25c0.41,0.15,0.81,0.3,1.23,0.42c0.13,0.04,0.15,0.1,0.11,0.23
					c-0.07,0.19-0.1,0.23-0.24,0.18c-0.39-0.12-0.78-0.25-1.17-0.37c-0.18-0.06-0.25-0.03-0.3,0.12c-0.06,0.16,0.02,0.28,0.21,0.31
					c0.32,0.05,0.61,0.16,0.9,0.29c0.03,0.01,0.06,0.03,0.08,0.03c0.19-0.03,0.33,0.06,0.48,0.15c0.12,0.07,0.1,0.14,0.07,0.24
					c-0.03,0.11-0.11,0.15-0.21,0.12c-0.32-0.09-0.65-0.19-0.96-0.29c-0.33-0.1-0.65-0.23-0.98-0.32c-0.13-0.03-0.16-0.1-0.14-0.23
					c0.02-0.21,0.09-0.39,0.18-0.57c0.08-0.17,0.07-0.37,0.14-0.55c0.07-0.17,0.16-0.34,0.19-0.53c0.02-0.15,0.12-0.19,0.27-0.15
					c0.28,0.08,0.54,0.21,0.83,0.22L27.15,55.28z"/>
				<path class="st5" d="M29.87,56.53c-0.01,0.07-0.02,0.13-0.04,0.2c-0.04,0.13-0.12,0.22-0.28,0.24c-0.22,0.03-0.45,0.07-0.67,0
					c-0.03-0.01-0.05,0-0.06,0.02c-0.02,0.04,0,0.06,0.02,0.1c0.11,0.19,0.29,0.28,0.47,0.37c0.16,0.09,0.33,0.14,0.51,0.18
					c0.13,0.03,0.16,0.12,0.13,0.24c-0.03,0.12-0.11,0.16-0.23,0.14c-0.49-0.09-0.91-0.3-1.25-0.66c-0.09-0.1-0.14-0.22-0.18-0.35
					c-0.04-0.14-0.14-0.22-0.28-0.22c-0.13,0-0.2,0.08-0.24,0.21c-0.04,0.14-0.08,0.28-0.08,0.43c0,0.1-0.06,0.14-0.14,0.15
					c-0.15,0.03-0.32-0.11-0.29-0.25c0.07-0.27,0.07-0.55,0.15-0.82c0.04-0.13,0.04-0.28,0.07-0.42c0.04-0.19,0.08-0.38,0.14-0.56
					c0.03-0.09,0.11-0.12,0.22-0.09c0.15,0.04,0.3,0.08,0.46,0.1c0.35,0.05,0.7,0.14,1.05,0.18C29.75,55.78,29.95,56.11,29.87,56.53
					z M28.68,56.06c-0.17-0.03-0.35-0.07-0.53-0.1c-0.13-0.02-0.19,0.04-0.22,0.19c-0.03,0.12,0.01,0.2,0.14,0.22
					c0.15,0.02,0.29,0.05,0.44,0.08c0.24,0.06,0.48,0.09,0.72,0.11c0.08,0,0.17-0.03,0.19-0.12c0.03-0.09-0.01-0.17-0.09-0.22
					c-0.05-0.03-0.1-0.05-0.16-0.07L28.68,56.06z"/>
				<path class="st5" d="M31.83,57.14c-0.02,0.26-0.03,0.51-0.05,0.77c-0.02,0.2-0.09,0.25-0.27,0.23
					c-0.09-0.01-0.14-0.04-0.14-0.13c0-0.04-0.02-0.09-0.02-0.13c0.03-0.33,0.04-0.65,0.04-0.97c0-0.11,0.03-0.23,0.02-0.34
					c-0.01-0.1-0.06-0.17-0.17-0.16c-0.23,0.01-0.46-0.07-0.69-0.04c-0.1,0.01-0.18-0.01-0.18-0.14c-0.01-0.15,0.06-0.27,0.17-0.26
					c0.38,0.06,0.81,0.05,1.2,0.07c0.34,0.02,0.71,0.07,1.06,0.07c0.08,0,0.16,0.02,0.16,0.12c0,0.11,0,0.22-0.14,0.25
					c-0.05,0.02-0.1,0.02-0.15,0.01l-0.54-0.03c-0.18-0.01-0.25,0.04-0.27,0.22C31.84,56.84,31.84,56.99,31.83,57.14L31.83,57.14z"
					/>
				<path class="st5" d="M36.97,56.43c0.01,0.07,0.02,0.13,0.02,0.2c0,0.14-0.05,0.25-0.19,0.31c-0.21,0.09-0.41,0.2-0.64,0.19
					c-0.03,0-0.05,0.02-0.05,0.04c-0.01,0.04,0.02,0.06,0.05,0.09c0.16,0.15,0.35,0.18,0.56,0.22c0.18,0.03,0.36,0.03,0.54,0.02
					c0.13-0.01,0.19,0.07,0.19,0.19c0.01,0.12-0.05,0.19-0.17,0.2c-0.49,0.06-0.96-0.02-1.39-0.26c-0.12-0.07-0.2-0.17-0.27-0.28
					c-0.08-0.12-0.19-0.17-0.34-0.13c-0.13,0.04-0.17,0.13-0.17,0.27c0,0.15,0,0.29,0.05,0.43c0.03,0.1-0.02,0.15-0.09,0.19
					c-0.13,0.07-0.34-0.01-0.35-0.15c-0.02-0.28-0.1-0.55-0.09-0.82c0-0.14-0.04-0.28-0.06-0.42c-0.01-0.19-0.04-0.38-0.04-0.58
					c0-0.09,0.07-0.15,0.18-0.15c0.16,0,0.32-0.01,0.47-0.04c0.35-0.06,0.71-0.08,1.06-0.14C36.63,55.75,36.92,56.01,36.97,56.43z
					 M35.7,56.34c-0.18,0.02-0.36,0.04-0.54,0.06c-0.13,0.02-0.17,0.1-0.15,0.24c0.01,0.12,0.07,0.19,0.2,0.17
					c0.15-0.02,0.3-0.04,0.45-0.05c0.24-0.02,0.48-0.06,0.72-0.11c0.07-0.02,0.15-0.08,0.15-0.18c0-0.1-0.06-0.16-0.15-0.18
					c-0.06-0.02-0.11-0.02-0.17-0.02L35.7,56.34z"/>
				<path class="st5" d="M38.22,56.34c0.03,0.4,0.15,0.74,0.21,1.09c0.02,0.1-0.01,0.21-0.13,0.24c-0.12,0.04-0.24-0.01-0.29-0.12
					c-0.02-0.06-0.04-0.12-0.05-0.18c-0.04-0.37-0.14-0.73-0.23-1.09c-0.04-0.18-0.04-0.35-0.08-0.53
					c-0.04-0.16,0.14-0.15,0.23-0.19c0.08-0.03,0.15,0.04,0.17,0.12C38.1,55.91,38.12,56.15,38.22,56.34z"/>
				<path class="st5" d="M40.51,57.08c-0.09,0.04-0.19,0.02-0.28-0.05c-0.43-0.33-0.87-0.64-1.3-0.98
					c-0.11-0.09-0.23-0.17-0.34-0.26c-0.07-0.06-0.15-0.12-0.12-0.23c0.04-0.11,0.15-0.12,0.24-0.12c0.14,0,0.27,0.04,0.38,0.13
					c0.35,0.29,0.72,0.56,1.09,0.83c0.16,0.12,0.2,0.1,0.27-0.09c0.11-0.29,0.17-0.6,0.28-0.89c0.06-0.15,0.09-0.3,0.14-0.45
					c0.06-0.18,0.2-0.26,0.36-0.32c0.1-0.04,0.18,0.04,0.17,0.15c-0.01,0.06-0.03,0.12-0.05,0.18c-0.13,0.42-0.25,0.84-0.4,1.25
					c-0.05,0.13-0.08,0.26-0.1,0.39C40.79,56.85,40.67,57.03,40.51,57.08z"/>
				<path class="st5" d="M44.63,55.42c-0.13,0.08-0.25,0.06-0.4-0.04c-0.17-0.13-0.37-0.16-0.58-0.06
					c-0.28,0.14-0.56,0.27-0.85,0.38c-0.18,0.07-0.26,0.19-0.27,0.37c-0.03,0.22-0.11,0.4-0.35,0.46c-0.16,0.05-0.23,0.01-0.21-0.15
					c0.04-0.33,0.15-0.64,0.2-0.96c0.06-0.35,0.13-0.7,0.2-1.05c0.01-0.05,0.02-0.1,0.04-0.14c0.08-0.22,0.27-0.29,0.49-0.18
					c0.11,0.05,0.2,0.14,0.3,0.2c0.18,0.12,0.37,0.23,0.57,0.32c0.33,0.16,0.62,0.39,0.94,0.55C44.88,55.21,44.85,55.32,44.63,55.42
					z M43.03,55.12c0.07-0.03,0.14-0.06,0.21-0.1c0.14-0.08,0.14-0.16,0-0.24c-0.1-0.06-0.21-0.1-0.3-0.17
					c-0.09-0.07-0.16-0.05-0.17,0.07c-0.02,0.15-0.05,0.29-0.08,0.42c-0.02,0.1,0.03,0.15,0.13,0.11
					C42.89,55.2,42.96,55.16,43.03,55.12z"/>
				<path class="st5" d="M45.57,52.36c0.17-0.01,0.3-0.14,0.47-0.17c0.33-0.06,0.6,0.01,0.85,0.26c0.21,0.21,0.34,0.45,0.39,0.72
					c0.04,0.27-0.02,0.54-0.24,0.76c-0.22,0.22-0.47,0.39-0.73,0.55c-0.26,0.16-0.52,0.32-0.78,0.47c-0.12,0.07-0.24,0.02-0.3-0.15
					c-0.06-0.15-0.15-0.29-0.25-0.42c-0.22-0.29-0.38-0.61-0.57-0.92c-0.13-0.2-0.12-0.22,0.05-0.38L45.57,52.36z M45.36,54.19
					c0.14,0.22,0.19,0.22,0.41,0.09c0.23-0.13,0.44-0.31,0.68-0.44c0.26-0.14,0.41-0.47,0.33-0.7c-0.13-0.36-0.35-0.58-0.76-0.47
					c-0.35,0.1-0.6,0.35-0.91,0.52c-0.03,0.01-0.05,0.04-0.08,0.05c-0.13,0.06-0.16,0.16-0.08,0.28l0.23,0.36L45.36,54.19z"/>
				<path class="st5" d="M48.53,50.1c0.12-0.03,0.22-0.01,0.29,0.11c0.08,0.13,0.07,0.2-0.06,0.29c-0.4,0.32-0.8,0.65-1.2,0.99
					c-0.11,0.09-0.1,0.17-0.01,0.29c0.08,0.1,0.15,0.13,0.27,0.04c0.35-0.26,0.69-0.53,1.02-0.81c0.1-0.09,0.17-0.07,0.25,0.03
					c0.13,0.16,0.14,0.21,0.02,0.3c-0.31,0.26-0.63,0.52-0.94,0.79c-0.14,0.12-0.16,0.2-0.06,0.32c0.1,0.14,0.25,0.14,0.37-0.01
					c0.21-0.24,0.46-0.43,0.73-0.61c0.02-0.01,0.06-0.03,0.07-0.05c0.08-0.17,0.23-0.24,0.39-0.32c0.12-0.06,0.17-0.01,0.24,0.07
					c0.07,0.09,0.06,0.18-0.01,0.24c-0.25,0.23-0.51,0.44-0.77,0.66c-0.26,0.22-0.54,0.42-0.79,0.65c-0.1,0.09-0.17,0.08-0.27,0
					c-0.16-0.13-0.28-0.29-0.38-0.46c-0.1-0.16-0.27-0.26-0.38-0.41c-0.11-0.15-0.2-0.31-0.34-0.44c-0.12-0.1-0.09-0.2,0.02-0.31
					c0.21-0.19,0.47-0.34,0.63-0.59L48.53,50.1z"/>
				<path class="st5" d="M50.24,50.45c0.12,0.11,0.24,0.22,0.36,0.34c0.09,0.09,0.1,0.18,0.02,0.28c-0.09,0.1-0.18,0.13-0.29,0.04
					c-0.18-0.14-0.33-0.31-0.49-0.46c-0.26-0.25-0.53-0.48-0.8-0.73c-0.09-0.08-0.06-0.28,0.06-0.34c0.09-0.04,0.19-0.08,0.29-0.08
					c0.4,0,0.8-0.09,1.21-0.08c0.15,0,0.31-0.02,0.46-0.05c0.04-0.01,0.09,0.01,0.1-0.05c0.01-0.04-0.01-0.08-0.05-0.11
					c-0.08-0.07-0.18-0.12-0.24-0.2c-0.15-0.19-0.39-0.29-0.51-0.51c-0.07-0.13-0.04-0.21,0.05-0.29c0.1-0.09,0.19-0.05,0.27,0.03
					l0.74,0.71c0.15,0.14,0.3,0.27,0.44,0.42c0.07,0.07,0.14,0.13,0.11,0.23c-0.04,0.11-0.11,0.19-0.22,0.21
					c-0.19,0.02-0.38,0.05-0.56,0.05c-0.28-0.01-0.54,0.04-0.82,0.05l-0.39,0.02c-0.05,0-0.13-0.02-0.15,0.05
					c-0.02,0.06,0.04,0.09,0.08,0.13C50.01,50.23,50.13,50.33,50.24,50.45L50.24,50.45z"/>
				<path class="st5" d="M52.13,45.93c0.11-0.06,0.21-0.06,0.31,0.03c0.11,0.1,0.11,0.17,0.01,0.3c-0.31,0.41-0.62,0.83-0.93,1.24
					c-0.08,0.11-0.06,0.19,0.06,0.28c0.1,0.08,0.18,0.09,0.27-0.03c0.27-0.34,0.54-0.67,0.79-1.03c0.08-0.11,0.15-0.11,0.25-0.03
					c0.16,0.12,0.18,0.17,0.09,0.29c-0.24,0.33-0.49,0.66-0.73,0.99c-0.11,0.15-0.11,0.23,0.01,0.32c0.13,0.11,0.27,0.07,0.36-0.1
					c0.15-0.28,0.35-0.53,0.56-0.76c0.02-0.02,0.05-0.04,0.05-0.07c0.03-0.19,0.17-0.29,0.3-0.41c0.1-0.09,0.17-0.05,0.25,0.01
					c0.09,0.07,0.1,0.16,0.05,0.24c-0.19,0.28-0.39,0.55-0.59,0.82c-0.2,0.28-0.42,0.54-0.61,0.82c-0.07,0.11-0.15,0.11-0.27,0.06
					c-0.19-0.09-0.34-0.21-0.48-0.36c-0.14-0.13-0.33-0.19-0.47-0.31c-0.14-0.12-0.27-0.26-0.44-0.35c-0.14-0.07-0.14-0.17-0.05-0.3
					c0.16-0.24,0.37-0.45,0.48-0.72L52.13,45.93z"/>
				<path class="st5" d="M53.4,45.47c0.31,0.25,0.63,0.4,0.94,0.6c0.09,0.06,0.15,0.15,0.09,0.26c-0.05,0.11-0.18,0.16-0.29,0.12
					c-0.06-0.02-0.12-0.05-0.17-0.09c-0.29-0.23-0.63-0.4-0.95-0.59c-0.16-0.09-0.28-0.22-0.44-0.31c-0.14-0.08-0.02-0.2,0.02-0.29
					c0.03-0.08,0.13-0.08,0.2-0.04C53.01,45.26,53.2,45.41,53.4,45.47z"/>
				<path class="st5" d="M54.67,42.74c0.06,0.03,0.12,0.05,0.18,0.09c0.11,0.08,0.18,0.18,0.15,0.33c-0.04,0.22-0.05,0.45-0.19,0.64
					c-0.02,0.02-0.01,0.05,0.01,0.07c0.03,0.03,0.06,0.01,0.1,0.01c0.21-0.05,0.34-0.2,0.49-0.34c0.13-0.13,0.23-0.28,0.32-0.44
					c0.07-0.12,0.16-0.12,0.27-0.05c0.11,0.06,0.13,0.15,0.07,0.26c-0.22,0.44-0.54,0.79-0.99,1.02c-0.12,0.06-0.25,0.07-0.38,0.08
					c-0.15,0-0.25,0.07-0.29,0.21c-0.04,0.13,0.02,0.21,0.13,0.29c0.12,0.08,0.24,0.16,0.39,0.19c0.1,0.03,0.12,0.1,0.11,0.18
					c-0.01,0.15-0.19,0.28-0.32,0.21c-0.24-0.14-0.51-0.22-0.74-0.37c-0.12-0.08-0.26-0.12-0.38-0.18c-0.17-0.09-0.34-0.18-0.5-0.29
					c-0.08-0.05-0.08-0.14-0.03-0.23c0.08-0.13,0.17-0.27,0.23-0.41c0.14-0.32,0.33-0.63,0.47-0.96
					C53.92,42.65,54.29,42.55,54.67,42.74z M53.89,43.75c-0.08,0.16-0.16,0.32-0.24,0.48c-0.05,0.12-0.01,0.2,0.12,0.26
					c0.11,0.06,0.19,0.04,0.25-0.07c0.06-0.14,0.13-0.27,0.2-0.4c0.12-0.21,0.22-0.44,0.3-0.67c0.02-0.07,0.02-0.17-0.07-0.22
					c-0.08-0.05-0.16-0.04-0.24,0.03c-0.05,0.04-0.08,0.08-0.11,0.14L53.89,43.75z"/>
				<path class="st5" d="M57.26,39.87c-0.03,0.15-0.13,0.23-0.3,0.26c-0.22,0.04-0.37,0.16-0.44,0.39c-0.09,0.3-0.19,0.59-0.3,0.88
					c-0.07,0.18-0.04,0.32,0.08,0.45c0.14,0.17,0.21,0.35,0.1,0.57c-0.07,0.15-0.15,0.17-0.25,0.05c-0.21-0.25-0.37-0.54-0.57-0.8
					c-0.22-0.28-0.42-0.57-0.63-0.86c-0.03-0.04-0.06-0.08-0.08-0.12c-0.11-0.21-0.03-0.39,0.2-0.48c0.11-0.04,0.24-0.05,0.35-0.08
					c0.21-0.05,0.42-0.12,0.62-0.2c0.34-0.14,0.7-0.19,1.05-0.31C57.27,39.55,57.33,39.64,57.26,39.87z M55.96,40.84
					c0.02-0.07,0.06-0.14,0.07-0.22c0.03-0.16-0.02-0.21-0.18-0.16c-0.11,0.04-0.22,0.09-0.33,0.1c-0.11,0.02-0.14,0.08-0.06,0.17
					c0.1,0.11,0.18,0.23,0.26,0.35c0.06,0.08,0.13,0.08,0.17-0.02C55.91,40.99,55.93,40.91,55.96,40.84z"/>
			</g>
		</g>
		<g>
			<g>
				<path class="st5" d="M9.8,26.15c0.12-0.12,0.13-0.3,0.24-0.44c0.21-0.26,0.46-0.39,0.81-0.37c0.29,0.02,0.56,0.11,0.77,0.28
					c0.21,0.17,0.34,0.42,0.32,0.73c-0.02,0.31-0.1,0.61-0.19,0.9c-0.09,0.29-0.18,0.58-0.27,0.87c-0.05,0.13-0.17,0.17-0.32,0.09
					c-0.15-0.08-0.31-0.12-0.46-0.15c-0.36-0.07-0.69-0.2-1.04-0.31c-0.23-0.07-0.23-0.09-0.22-0.32L9.8,26.15z M10.86,27.66
					c0.25,0.07,0.29,0.04,0.37-0.2c0.09-0.25,0.13-0.52,0.22-0.78c0.1-0.28,0-0.62-0.22-0.75c-0.33-0.19-0.64-0.21-0.88,0.16
					c-0.19,0.3-0.22,0.66-0.34,0.99C10,27.11,10,27.15,9.99,27.18c-0.05,0.13-0.01,0.23,0.12,0.27l0.4,0.12L10.86,27.66z"/>
				<path class="st5" d="M11.72,23.48c0.34,0.21,0.68,0.31,1.01,0.47c0.1,0.04,0.16,0.12,0.12,0.25c-0.04,0.12-0.15,0.19-0.27,0.16
					c-0.06-0.01-0.12-0.03-0.18-0.07c-0.32-0.19-0.68-0.31-1.02-0.45c-0.17-0.07-0.31-0.18-0.48-0.24c-0.15-0.06-0.04-0.2-0.02-0.29
					c0.02-0.08,0.12-0.1,0.2-0.06C11.3,23.32,11.51,23.44,11.72,23.48z"/>
				<path class="st5" d="M14.2,21.54c-0.19,0.32-0.35,0.57-0.58,0.78c-0.11,0.11-0.25,0.18-0.39,0.21c-0.1,0.02-0.22,0.02-0.27-0.12
					c-0.04-0.13,0.01-0.27,0.12-0.34c0.09-0.06,0.21-0.07,0.3-0.15c0.28-0.25,0.47-0.56,0.6-0.9c0.02-0.06,0.06-0.12,0.08-0.19
					c0.02-0.06,0.04-0.13-0.02-0.17c-0.06-0.04-0.12-0.01-0.17,0.04c-0.11,0.11-0.24,0.21-0.33,0.34c-0.17,0.26-0.38,0.5-0.61,0.7
					c-0.14,0.13-0.3,0.26-0.53,0.21c-0.26-0.06-0.42-0.28-0.4-0.56c0.03-0.32,0.14-0.61,0.32-0.86c0.09-0.13,0.17-0.27,0.26-0.4
					c0.11-0.14,0.25-0.22,0.38-0.33c0.11-0.09,0.24-0.11,0.38-0.1c0.07,0.01,0.1,0.05,0.12,0.11c0.03,0.1,0.05,0.2-0.05,0.28
					c-0.05,0.04-0.1,0.08-0.16,0.1c-0.39,0.17-0.58,0.51-0.73,0.88c-0.04,0.1-0.13,0.23,0,0.31c0.12,0.07,0.22-0.05,0.28-0.13
					c0.17-0.21,0.34-0.42,0.5-0.64c0.13-0.18,0.3-0.34,0.51-0.45c0.23-0.12,0.42-0.07,0.6,0.08c0.17,0.14,0.16,0.35,0.11,0.52
					C14.44,21.06,14.39,21.37,14.2,21.54z"/>
				<path class="st5" d="M15.49,16.36c0.11-0.05,0.21-0.04,0.3,0.06c0.1,0.11,0.1,0.18-0.01,0.3c-0.35,0.38-0.69,0.77-1.03,1.16
					c-0.09,0.1-0.07,0.19,0.04,0.29c0.09,0.08,0.17,0.1,0.27-0.01c0.3-0.31,0.6-0.63,0.87-0.96c0.09-0.1,0.16-0.1,0.25-0.01
					c0.15,0.14,0.17,0.18,0.07,0.3c-0.27,0.31-0.54,0.62-0.8,0.93c-0.12,0.14-0.12,0.22-0.01,0.32c0.12,0.12,0.27,0.09,0.37-0.07
					c0.17-0.27,0.39-0.5,0.62-0.71c0.02-0.02,0.05-0.04,0.06-0.06c0.05-0.18,0.19-0.28,0.33-0.38c0.11-0.08,0.17-0.04,0.25,0.03
					c0.09,0.08,0.09,0.16,0.03,0.24c-0.21,0.26-0.43,0.52-0.65,0.77c-0.22,0.26-0.47,0.5-0.68,0.77c-0.08,0.11-0.16,0.1-0.27,0.04
					c-0.18-0.1-0.32-0.24-0.45-0.39c-0.12-0.15-0.31-0.21-0.44-0.35c-0.13-0.13-0.25-0.28-0.41-0.38c-0.13-0.08-0.12-0.18-0.03-0.3
					c0.18-0.22,0.4-0.41,0.53-0.68L15.49,16.36z"/>
				<path class="st5" d="M18.01,15.96c0.1,0.12,0.21,0.25,0.31,0.38c0.08,0.1,0.08,0.19-0.02,0.28c-0.1,0.09-0.19,0.11-0.29,0.01
					c-0.16-0.16-0.29-0.34-0.43-0.52c-0.23-0.28-0.46-0.54-0.7-0.82c-0.08-0.09-0.03-0.28,0.1-0.33c0.1-0.03,0.2-0.06,0.3-0.04
					c0.4,0.05,0.81,0.01,1.21,0.07c0.15,0.02,0.31,0.02,0.46,0.01c0.04,0,0.09,0.02,0.1-0.03c0.02-0.04,0-0.08-0.04-0.12
					c-0.07-0.08-0.17-0.14-0.22-0.23c-0.12-0.21-0.35-0.33-0.44-0.57c-0.05-0.13-0.02-0.21,0.08-0.28c0.11-0.07,0.19-0.02,0.26,0.06
					l0.65,0.79c0.13,0.15,0.27,0.3,0.39,0.47c0.06,0.08,0.13,0.15,0.08,0.24c-0.05,0.1-0.13,0.17-0.25,0.18
					c-0.19,0-0.38,0.01-0.57-0.02c-0.27-0.05-0.55-0.02-0.82-0.05l-0.39-0.02c-0.05,0-0.12-0.04-0.15,0.03
					c-0.03,0.06,0.03,0.1,0.06,0.14C17.8,15.72,17.91,15.84,18.01,15.96L18.01,15.96z"/>
				<path class="st5" d="M23.37,13.18c-0.12,0.09-0.25,0.08-0.4-0.01c-0.18-0.12-0.38-0.13-0.58,0c-0.27,0.16-0.54,0.32-0.81,0.45
					c-0.17,0.09-0.24,0.21-0.24,0.39c-0.01,0.22-0.07,0.4-0.3,0.49c-0.15,0.06-0.23,0.03-0.22-0.13c0.01-0.33,0.09-0.65,0.11-0.98
					c0.02-0.36,0.07-0.71,0.11-1.06c0-0.05,0.01-0.1,0.02-0.14c0.06-0.22,0.25-0.31,0.47-0.22c0.11,0.04,0.21,0.12,0.32,0.17
					c0.19,0.1,0.39,0.2,0.59,0.27c0.34,0.13,0.65,0.33,0.99,0.47C23.59,12.96,23.57,13.07,23.37,13.18z M21.75,13.03
					c0.07-0.04,0.14-0.07,0.2-0.12c0.13-0.1,0.13-0.17-0.02-0.23c-0.11-0.05-0.22-0.08-0.32-0.15c-0.09-0.06-0.16-0.04-0.16,0.08
					c0,0.15-0.02,0.29-0.04,0.43c-0.01,0.1,0.04,0.14,0.14,0.1C21.62,13.12,21.68,13.07,21.75,13.03z"/>
				<path class="st5" d="M25.51,10.04c0.17,0.03,0.32-0.07,0.49-0.06c0.33,0.02,0.58,0.15,0.77,0.45c0.15,0.25,0.23,0.52,0.21,0.79
					c-0.02,0.27-0.15,0.52-0.41,0.68c-0.27,0.16-0.55,0.27-0.84,0.36c-0.29,0.09-0.58,0.19-0.87,0.28
					c-0.14,0.04-0.23-0.04-0.26-0.21c-0.02-0.16-0.08-0.32-0.14-0.47c-0.14-0.33-0.23-0.69-0.34-1.03
					c-0.07-0.23-0.06-0.24,0.13-0.36L25.51,10.04z M24.89,11.77c0.08,0.24,0.13,0.26,0.38,0.19c0.26-0.07,0.5-0.19,0.76-0.27
					c0.29-0.08,0.51-0.36,0.49-0.61c-0.04-0.38-0.2-0.65-0.63-0.63c-0.36,0.01-0.67,0.2-1.01,0.29c-0.03,0.01-0.06,0.02-0.09,0.03
					c-0.14,0.03-0.19,0.12-0.15,0.25l0.14,0.4L24.89,11.77z"/>
				<path class="st5" d="M29.86,11.24c-0.32,0.03-0.63,0.07-0.96-0.02c-0.31-0.08-0.47-0.3-0.57-0.56
					c-0.06-0.16-0.07-0.33-0.08-0.51c-0.02-0.45,0.28-0.82,0.72-0.93c0.18-0.05,0.37-0.1,0.56-0.14c0.43-0.08,0.86-0.09,1.21,0.23
					c0.12,0.11,0.22,0.23,0.24,0.4c0.02,0.18,0.09,0.35,0.08,0.54c-0.01,0.34-0.17,0.58-0.45,0.74
					C30.38,11.13,30.13,11.22,29.86,11.24z M28.72,10.36c0.06,0.17,0.13,0.39,0.43,0.46c0.22,0.05,0.42,0.01,0.63-0.01
					c0.22-0.02,0.44-0.06,0.61-0.24c0.22-0.22,0.3-0.55,0.13-0.81c-0.09-0.14-0.26-0.22-0.43-0.24c-0.32-0.05-0.62,0.03-0.93,0.11
					C28.83,9.72,28.66,10.02,28.72,10.36z"/>
				<path class="st5" d="M34.93,9.56c0,0.07,0,0.13-0.01,0.2C34.9,9.9,34.83,10,34.68,10.04c-0.22,0.06-0.43,0.14-0.66,0.1
					c-0.03,0-0.05,0.01-0.06,0.03c-0.02,0.04,0.01,0.06,0.03,0.09c0.13,0.17,0.32,0.23,0.52,0.3c0.17,0.06,0.35,0.09,0.53,0.1
					c0.13,0.01,0.18,0.1,0.16,0.22c-0.01,0.12-0.08,0.18-0.2,0.17c-0.5-0.02-0.95-0.16-1.34-0.47c-0.11-0.08-0.17-0.19-0.23-0.31
					c-0.06-0.14-0.17-0.19-0.31-0.18c-0.13,0.02-0.18,0.11-0.2,0.24c-0.02,0.14-0.04,0.29-0.01,0.43c0.02,0.1-0.04,0.15-0.12,0.17
					c-0.14,0.05-0.33-0.06-0.32-0.2c0.02-0.28-0.02-0.56,0.03-0.83c0.02-0.14,0-0.28,0.01-0.42c0.01-0.19,0.02-0.39,0.05-0.58
					c0.01-0.09,0.09-0.13,0.2-0.12c0.16,0.02,0.31,0.04,0.47,0.03c0.35,0,0.71,0.03,1.07,0.02C34.69,8.84,34.94,9.14,34.93,9.56z
					 M33.68,9.28c-0.18-0.01-0.36-0.02-0.54-0.02c-0.13,0-0.18,0.07-0.19,0.22C32.95,9.6,33,9.67,33.13,9.68
					c0.15,0,0.3,0.01,0.45,0.02c0.24,0.02,0.49,0.02,0.73,0c0.08-0.01,0.16-0.05,0.17-0.15c0.01-0.09-0.03-0.16-0.12-0.2
					c-0.05-0.03-0.11-0.04-0.17-0.04L33.68,9.28z"/>
				<path class="st5" d="M41.54,11.49c-0.23,0.59-0.58,0.8-1.24,0.66c-0.32-0.06-0.64-0.17-0.94-0.3c-0.37-0.16-0.62-0.5-0.59-0.92
					c0.02-0.32,0.13-0.63,0.36-0.86c0.19-0.2,0.45-0.27,0.72-0.24c0.42,0.05,0.81,0.22,1.22,0.36c0.25,0.08,0.4,0.28,0.51,0.5
					c0.03,0.07,0.01,0.14-0.04,0.19c-0.06,0.06-0.14,0.12-0.25,0.1c-0.09-0.02-0.17-0.06-0.23-0.14c-0.33-0.4-0.77-0.54-1.27-0.54
					c-0.29,0-0.48,0.18-0.54,0.46c-0.08,0.38,0.07,0.62,0.43,0.77c0.29,0.11,0.58,0.19,0.9,0.2c0.09,0,0.17-0.02,0.25-0.06
					c0.05-0.03,0.1-0.05,0.1-0.11c0-0.07-0.06-0.08-0.11-0.1c-0.14-0.05-0.63-0.2-0.77-0.24c-0.1-0.03-0.16-0.1-0.14-0.2
					c0.03-0.15,0.11-0.23,0.23-0.22c0.18,0.01,0.67,0.22,0.84,0.27c0.14,0.04,0.28,0.04,0.42,0.12
					C41.6,11.29,41.61,11.27,41.54,11.49z"/>
				<path class="st5" d="M45.21,12.82c-0.03,0.06-0.06,0.12-0.09,0.18c-0.08,0.11-0.19,0.17-0.33,0.14
					c-0.22-0.04-0.45-0.07-0.64-0.21c-0.02-0.02-0.05-0.01-0.07,0c-0.03,0.03-0.02,0.06-0.01,0.1c0.04,0.21,0.19,0.35,0.33,0.5
					c0.13,0.13,0.28,0.23,0.43,0.33c0.11,0.07,0.12,0.17,0.05,0.27c-0.06,0.1-0.15,0.12-0.26,0.07c-0.44-0.23-0.78-0.56-0.99-1.01
					c-0.06-0.12-0.07-0.25-0.07-0.38c0-0.15-0.06-0.25-0.2-0.3c-0.13-0.04-0.21,0.02-0.29,0.13c-0.08,0.12-0.16,0.24-0.2,0.38
					c-0.03,0.1-0.1,0.11-0.18,0.1c-0.15-0.01-0.27-0.2-0.2-0.32c0.15-0.24,0.23-0.51,0.4-0.73c0.08-0.11,0.13-0.25,0.19-0.38
					c0.1-0.17,0.19-0.34,0.3-0.49c0.05-0.07,0.14-0.08,0.23-0.02c0.13,0.09,0.26,0.17,0.41,0.24c0.32,0.15,0.62,0.34,0.94,0.49
					C45.33,12.06,45.42,12.44,45.21,12.82z M44.23,12c-0.16-0.08-0.31-0.17-0.47-0.25c-0.12-0.06-0.19-0.02-0.27,0.11
					c-0.06,0.11-0.05,0.19,0.06,0.25c0.13,0.07,0.27,0.14,0.39,0.22c0.21,0.13,0.43,0.23,0.66,0.32c0.07,0.02,0.17,0.02,0.22-0.06
					c0.06-0.08,0.04-0.16-0.02-0.24c-0.04-0.05-0.08-0.08-0.13-0.11L44.23,12z"/>
				<path class="st5" d="M48.04,16.69c-0.13-0.08-0.17-0.2-0.14-0.37c0.04-0.21-0.02-0.4-0.21-0.54c-0.25-0.19-0.49-0.38-0.72-0.59
					c-0.14-0.12-0.28-0.14-0.45-0.08c-0.21,0.07-0.4,0.08-0.57-0.1c-0.11-0.12-0.11-0.2,0.04-0.26c0.31-0.11,0.64-0.16,0.95-0.26
					c0.34-0.11,0.68-0.2,1.03-0.29c0.05-0.01,0.1-0.02,0.14-0.03c0.23-0.03,0.38,0.11,0.38,0.35c0,0.12-0.03,0.24-0.05,0.36
					c-0.03,0.22-0.04,0.43-0.03,0.65c0.01,0.37-0.07,0.72-0.07,1.09C48.34,16.81,48.23,16.84,48.04,16.69z M47.58,15.13
					c0.06,0.05,0.11,0.1,0.18,0.14c0.14,0.09,0.2,0.05,0.21-0.11c0-0.12-0.01-0.23,0.02-0.35c0.02-0.11-0.03-0.16-0.14-0.12
					c-0.14,0.05-0.28,0.09-0.42,0.12c-0.1,0.03-0.12,0.09-0.04,0.17C47.46,15.04,47.52,15.08,47.58,15.13z"/>
				<path class="st5" d="M51.11,16.79c0.16,0.21,0.3,0.43,0.5,0.61c0.13,0.12,0.21,0.28,0.33,0.4c0.06,0.06,0.13,0.12,0.18,0.19
					c0.08,0.1,0.06,0.23-0.02,0.3c-0.1,0.09-0.18,0.07-0.3-0.02c-0.26-0.19-0.39-0.49-0.61-0.71c-0.15-0.15-0.28-0.32-0.42-0.48
					c-0.1-0.12-0.2-0.12-0.3-0.02c-0.11,0.11-0.11,0.2-0.01,0.31c0.27,0.3,0.5,0.63,0.78,0.93c0.09,0.09,0.08,0.24,0,0.32
					c-0.08,0.08-0.24,0.07-0.33-0.03c-0.19-0.23-0.41-0.44-0.58-0.69c-0.07-0.1-0.16-0.19-0.26-0.26c-0.08-0.06-0.18-0.07-0.27,0.01
					c-0.12,0.1-0.19,0.23-0.33,0.29c-0.1,0.04-0.19,0.08-0.27-0.03c-0.08-0.1-0.08-0.23,0.01-0.31c0.46-0.42,0.94-0.78,1.41-1.19
					c0.04-0.04,0.09-0.01,0.14,0L51.11,16.79z"/>
				<path class="st5" d="M52.76,20.28c-0.35,0.18-0.63,0.41-0.93,0.6c-0.09,0.06-0.19,0.07-0.27-0.03
					c-0.08-0.09-0.08-0.23,0.01-0.32c0.05-0.04,0.09-0.09,0.15-0.12c0.33-0.17,0.62-0.4,0.92-0.62c0.15-0.1,0.31-0.17,0.46-0.27
					c0.13-0.09,0.19,0.07,0.26,0.14c0.06,0.06,0.02,0.15-0.05,0.2C53.11,20.01,52.9,20.12,52.76,20.28z"/>
				<path class="st5" d="M55.15,22.78c-0.02,0.11,0.04,0.21,0.08,0.32c0.08,0.23,0.04,0.45-0.06,0.65c-0.05,0.1-0.18,0.13-0.29,0.05
					c-0.1-0.07-0.16-0.17-0.14-0.29c0.12-0.57-0.17-0.99-0.52-1.39c-0.1-0.11-0.24-0.16-0.39-0.13c-0.52,0.1-0.7,0.44-0.54,0.92
					c0.06,0.17,0.15,0.34,0.23,0.5c0.07,0.13,0.18,0.27,0.33,0.35c0.09,0.05,0.17,0.1,0.23,0.18c0.09,0.11,0.09,0.23,0.01,0.35
					c-0.07,0.11-0.18,0.06-0.27,0.03c-0.47-0.14-0.72-0.75-0.91-1.15c-0.21-0.46-0.24-1.13,0.3-1.38c0.1-0.05,0.2-0.09,0.3-0.15
					c0.29-0.18,0.57-0.12,0.85,0.01c0.11,0.05,0.19,0.14,0.25,0.24c0.08,0.13,0.2,0.22,0.27,0.35L55.15,22.78z"/>
				<path class="st5" d="M54.43,27.04c-0.07-0.31-0.16-0.62-0.11-0.95c0.04-0.32,0.24-0.5,0.48-0.64c0.15-0.08,0.32-0.12,0.49-0.15
					c0.45-0.08,0.85,0.16,1.01,0.59c0.07,0.18,0.15,0.35,0.21,0.53c0.14,0.41,0.2,0.84-0.07,1.23c-0.09,0.13-0.2,0.25-0.37,0.29
					c-0.18,0.04-0.33,0.14-0.52,0.16c-0.34,0.04-0.6-0.09-0.79-0.35C54.6,27.54,54.48,27.3,54.43,27.04z M55.15,25.79
					c-0.16,0.08-0.37,0.18-0.4,0.49c-0.02,0.22,0.05,0.42,0.09,0.62c0.05,0.21,0.12,0.43,0.31,0.58c0.25,0.19,0.58,0.22,0.82,0.02
					c0.13-0.11,0.18-0.29,0.18-0.46c0.01-0.32-0.11-0.61-0.23-0.91C55.79,25.81,55.48,25.68,55.15,25.79z"/>
			</g>
		</g>
		<circle class="st5" cx="56.72" cy="33.17" r="0.98"/>
		<circle class="st5" cx="9.52" cy="33.17" r="0.98"/>
	</g>
</g>
</svg>
