<?xml version="1.0" encoding="utf-8"?>
<!-- Generator: Adobe Illustrator 27.0.0, SVG Export Plug-In . SVG Version: 6.00 Build 0)  -->
<svg version="1.1" id="Capa_1" xmlns="http://www.w3.org/2000/svg" xmlns:xlink="http://www.w3.org/1999/xlink" x="0px" y="0px"
	 viewBox="0 0 161.46 24.75" style="enable-background:new 0 0 161.46 24.75;" xml:space="preserve">
<style type="text/css">
	.st0{fill:#090E38;}
	.st1{fill:url(#SVGID_1_);}
	.st2{fill:#161A42;}
	.st3{fill:url(#SVGID_00000074428115333289572050000005338785283714929828_);}
	.st4{fill:url(#SVGID_00000100353553521185325070000011923889762521784997_);}
	.st5{fill:#FFFFFF;}
	.st6{fill:#E9E9EB;}
	.st7{fill:#2280C3;}
	.st8{fill:#263A6B;}
	.st9{fill:#13183B;}
	.st10{fill:#EBEBFF;}
	.st11{fill:#15336C;}
	.st12{fill:#121D3E;}
	.st13{fill:#D8CE9E;}
	.st14{fill:#5F485A;}
	.st15{fill:#17316F;}
	.st16{fill:#0A1C4F;}
	.st17{fill:#1E1A55;}
	.st18{fill:#12193B;}
	.st19{fill:#D8CD9C;}
	.st20{fill:#544A55;}
	.st21{fill:#E0E1E3;}
	.st22{fill:#15193A;}
	.st23{fill:#D6CC89;}
	.st24{fill:#434642;}
	.st25{fill:#131543;}
	.st26{fill:#3E3B38;}
	.st27{fill:#181940;}
	.st28{fill:#D7CE9D;}
	.st29{fill:#806D64;}
	.st30{opacity:0.7;fill:#6FC4D8;}
	.st31{fill:#805AE4;}
	.st32{fill:#ECB40A;}
	.st33{fill:#10B78E;}
	.st34{fill:url(#SVGID_00000100350253061158715260000018128088440818358916_);}
	.st35{fill:url(#SVGID_00000178172454187297198840000000601024251405025971_);}
	.st36{fill:url(#SVGID_00000106846963382480848220000011145963302476179626_);}
	.st37{fill:url(#SVGID_00000029726631181997892680000015852725293819506091_);}
	.st38{fill:url(#SVGID_00000034784163940269826850000000013469557248694703_);}
	.st39{fill:url(#SVGID_00000161589762713272260110000008350039271506110629_);}
	.st40{fill:url(#SVGID_00000048472358026068786350000003930110791835715992_);}
	.st41{fill:url(#SVGID_00000139982309962715813440000001214758512737282715_);}
	.st42{fill:url(#SVGID_00000177446898601339612060000017335992084628205751_);}
	.st43{fill:url(#SVGID_00000166665067029069304620000013208071679029715894_);}
	.st44{fill:url(#SVGID_00000116921022166629439560000016194845922086579120_);}
	.st45{fill:url(#SVGID_00000013882856017430683410000015868139006501964173_);}
	.st46{fill:url(#SVGID_00000074443495049320393320000010430852004362987430_);}
	.st47{fill:url(#SVGID_00000181056325221241878470000018159561224349221548_);}
	.st48{fill:url(#SVGID_00000114761918117033779350000018011129690950939545_);}
	.st49{fill:url(#SVGID_00000126316027518367345070000003414594197065491598_);}
	.st50{fill:url(#SVGID_00000151527210667125852780000011500635511442879156_);}
	.st51{fill:url(#SVGID_00000168093512641594086180000009774919349143359417_);}
	.st52{fill:url(#SVGID_00000160151629601584472100000013704831875104555406_);}
	.st53{fill:url(#SVGID_00000019678983594620440490000012305252247334990525_);}
	.st54{fill:url(#SVGID_00000038388915427704841930000005730207846305118104_);}
	.st55{fill:url(#SVGID_00000012446412542094819020000013453471982854044547_);}
	.st56{fill:url(#SVGID_00000080169908749938582210000003629684037921608609_);}
	.st57{fill:url(#SVGID_00000173844484969497802530000012891064656129267345_);}
	.st58{fill:url(#SVGID_00000085931614076891580630000007478882757282494379_);}
	.st59{fill:url(#SVGID_00000029018750437298450290000002055012728051162256_);}
	.st60{clip-path:url(#SVGID_00000105418995006357488930000007340660924645635775_);fill:#FFFFFF;}
	.st61{fill:none;stroke:#805AE4;stroke-miterlimit:10;}
	.st62{fill:url(#SVGID_00000113349526573938196150000007600295944406726556_);}
	.st63{fill:url(#SVGID_00000139263213781826033460000015255900053061340307_);}
	.st64{fill:url(#SVGID_00000175306240041256074310000012572649774214160825_);}
	.st65{fill:url(#SVGID_00000021102047994452881740000017921609148113520310_);}
	.st66{fill:url(#SVGID_00000045593332151780983290000001160191776503431554_);}
	.st67{fill:url(#SVGID_00000018951650101113546480000010257253763732556681_);}
	.st68{fill:url(#SVGID_00000076562754044860061980000017203418317653291667_);}
	.st69{fill:url(#SVGID_00000042716902855753532230000014767920616645461927_);}
	.st70{fill:url(#SVGID_00000106142517366123984340000008293001385471329153_);}
	.st71{fill:url(#SVGID_00000129902561559966645690000011637298076181446553_);}
	.st72{fill:url(#SVGID_00000121969221326000430660000009966258562455288714_);}
	.st73{fill:url(#SVGID_00000111893665715143964680000014487756319833073840_);}
	.st74{fill:#DDBB1B;}
	.st75{fill:#49CA80;}
	.st76{fill:#CF78C6;}
	.st77{fill:#BDACFF;}
	.st78{fill:#37368D;}
	.st79{fill:#E11E5E;}
	.st80{fill:#EB9F49;}
	.st81{fill:#FF6B6B;}
	.st82{fill:#38ABE6;}
	.st83{fill:url(#SVGID_00000174599902104284473820000016085033198336924037_);}
	.st84{fill:url(#SVGID_00000145017339130097576200000016628004806873325988_);}
	.st85{fill:url(#SVGID_00000168075377377874228350000008915900070236735909_);}
	.st86{fill:#E78A7E;}
	.st87{fill:#E69C78;}
	.st88{fill:#FF80E7;}
	.st89{fill:#E86480;}
	.st90{fill:url(#SVGID_00000127023596344278059970000000020679631449190791_);}
	.st91{fill:url(#SVGID_00000084509146402908537370000015179913089768204183_);}
	.st92{fill:url(#SVGID_00000093855382912373235610000007826916644028635794_);}
	.st93{fill:url(#SVGID_00000034803029399384565400000016844042864741980298_);}
	.st94{fill:url(#SVGID_00000154385292843011942900000001359683255194857147_);}
	.st95{fill:url(#SVGID_00000146465682547955616000000002113044465005131166_);}
	.st96{fill:url(#SVGID_00000138558158806569642100000016037396187977928320_);}
	.st97{fill:url(#SVGID_00000119086452408538309130000000354507095868741017_);}
	.st98{fill:url(#SVGID_00000157277248211986708610000006379799574954163360_);}
	.st99{fill:url(#SVGID_00000172430738368691558780000004044044692269296267_);}
	.st100{fill:url(#SVGID_00000047040552136323184560000007419592683953585822_);}
	.st101{fill:url(#SVGID_00000099631206975809344670000012286538399753215167_);}
	.st102{fill:url(#SVGID_00000119097465549839393040000000542611447050264474_);}
	.st103{fill:url(#SVGID_00000108288113407478676080000004676754222687511940_);}
	.st104{fill:url(#SVGID_00000167366057427751237730000017301251691953639852_);}
	.st105{fill:url(#SVGID_00000023983060011089360640000001068596856118916755_);}
	.st106{fill:url(#SVGID_00000104684321594460551500000010467020979580683190_);}
	.st107{fill:url(#SVGID_00000182502900182191508660000005045816571884738960_);}
	.st108{fill:url(#SVGID_00000101101187581586901220000000463279632932153484_);}
	.st109{fill:url(#SVGID_00000016035162759029390820000004995085886417964183_);}
	.st110{fill:url(#SVGID_00000106133265691749590150000007496465408519313826_);}
	.st111{fill:url(#SVGID_00000068664125502142575380000011297559971549344929_);}
	.st112{fill:url(#SVGID_00000103959649216341220810000006627035860264342958_);}
	.st113{fill:url(#SVGID_00000057851385932067534160000006699613071350298777_);}
	.st114{fill:url(#SVGID_00000161627596363803808760000007941331902409414546_);}
	.st115{fill:url(#SVGID_00000108285556864149155380000018166728706548853670_);}
	.st116{fill:url(#SVGID_00000059297830410812724780000003101604576949171346_);}
	.st117{fill:url(#SVGID_00000084520997333019905500000008254378588166642591_);}
	.st118{fill:url(#SVGID_00000040534065145511415280000005867014121303443116_);}
	.st119{fill:url(#SVGID_00000134229173548667760110000006187604731979971472_);}
	.st120{fill:url(#SVGID_00000120536807347125202470000004668077023614214823_);}
	.st121{fill:url(#SVGID_00000047745317644831849500000017492337003118049156_);}
	.st122{fill:url(#SVGID_00000057853870477879118700000017036452193596548526_);}
	.st123{fill:url(#SVGID_00000023971089946105221910000017557131101576837545_);}
	.st124{fill:url(#SVGID_00000099653144146322670290000016125679714271338146_);}
	.st125{fill:url(#SVGID_00000103256078193520207890000009617324993663769750_);}
	.st126{fill:url(#SVGID_00000135687660446839730910000002235791610607130003_);}
	.st127{fill:url(#SVGID_00000075122015675981171070000014012111481132882078_);}
	.st128{fill:url(#SVGID_00000074402506368168511000000017679343606021557134_);}
	.st129{fill:url(#SVGID_00000144302489075253155140000010763339388745405851_);}
	.st130{fill:url(#SVGID_00000072960399169649091500000001004415266371285412_);}
	.st131{fill:url(#SVGID_00000150082703581802743870000001229638211404486071_);}
	.st132{fill:url(#SVGID_00000022520587713138964160000017819683581071113898_);}
	.st133{fill:url(#SVGID_00000044160840695704840940000002838458200132887944_);}
	.st134{fill:url(#SVGID_00000160883359246451571320000011652331918583009199_);}
	.st135{fill:url(#SVGID_00000041284520768163904690000008511356750040886413_);}
	.st136{fill:url(#SVGID_00000142893893666940444580000004400129663169621639_);}
	.st137{fill:url(#SVGID_00000000181976251091099790000011426875756688479145_);}
	.st138{fill:url(#SVGID_00000098200222675162111050000005561664420746913721_);}
	.st139{fill:url(#SVGID_00000156562571616010571990000003195068917468729760_);}
	.st140{fill:url(#SVGID_00000150788145230104519640000006038125190671036042_);}
	.st141{fill:url(#SVGID_00000006692618259052394790000008539496305006789562_);}
	.st142{fill:url(#SVGID_00000167384333520395594060000012328511580600636597_);}
	.st143{fill:url(#SVGID_00000013912973660536938410000013183219677528790189_);}
	.st144{fill:url(#SVGID_00000086650514893969716140000008268349772249126845_);}
	.st145{fill:url(#SVGID_00000176729840007233006290000014009449271392188085_);}
	.st146{fill:url(#SVGID_00000163773324699301002930000018340648756057366960_);}
	.st147{fill:url(#SVGID_00000034081111996542544670000000558032244626027432_);}
	.st148{fill:url(#SVGID_00000066502214060461335390000018025576115270335112_);}
	.st149{fill:url(#SVGID_00000042012866316788620160000003175976385315600548_);}
	.st150{fill:url(#SVGID_00000043451589089501263840000000818263313109000068_);}
	.st151{fill:url(#SVGID_00000165205641725497827100000001044083711673420719_);}
	.st152{fill:url(#SVGID_00000055670806135291636940000008014892550898179491_);}
	.st153{fill:url(#SVGID_00000161618157290137242170000009563831348398489729_);}
	.st154{fill:url(#SVGID_00000002360121460802396340000000505744134785115554_);}
	.st155{fill:url(#SVGID_00000023960953336728918430000014996047402187069861_);}
	.st156{fill:url(#SVGID_00000182508440080885213390000016025066912554589881_);}
	.st157{fill:url(#SVGID_00000002375311887113516810000011039388009009345718_);}
	.st158{fill:url(#SVGID_00000020393903113704941050000013151637391920452245_);}
	.st159{fill:url(#SVGID_00000139272674543829402390000017454787787870404261_);}
	.st160{fill:url(#SVGID_00000067950024182454392770000009749262888090672549_);}
	.st161{fill:url(#SVGID_00000017516288216297000060000014418298240043108766_);}
	.st162{fill:url(#SVGID_00000062899815456249247610000017127764801756379835_);}
	.st163{fill:none;stroke:#090E38;stroke-width:2;stroke-miterlimit:10;}
	.st164{fill:#803CFF;}
	.st165{fill:none;stroke:#803CFF;stroke-miterlimit:10;}
	.st166{fill:#848698;}
	.st167{fill:url(#SVGID_00000130614699711149774860000013629260087939040164_);}
	.st168{fill:url(#SVGID_00000066488388109343581890000009582140101536706744_);}
	.st169{fill:url(#SVGID_00000070835741922014536700000011149299138581408644_);}
	.st170{fill:url(#SVGID_00000057830974954477951050000010482984002632410535_);}
	.st171{fill:url(#SVGID_00000176739664451520523990000011993397137648989844_);}
	.st172{fill:url(#SVGID_00000003799454823156138270000000021908448616016811_);}
	.st173{fill:url(#SVGID_00000049920232005571841080000012323715266595465656_);}
	.st174{fill:url(#SVGID_00000047764167384808750890000004619481029907747988_);}
	.st175{fill:#22274C;}
	.st176{fill:url(#SVGID_00000165197711351833306350000006075827934202363569_);}
	.st177{fill:url(#SVGID_00000011020645931480018400000004339012952106615223_);}
	.st178{fill:url(#SVGID_00000048475732460536757330000016604002233251594930_);}
	.st179{fill:url(#SVGID_00000127725975200204986320000018181942667840332707_);}
	.st180{fill:url(#SVGID_00000082336918513611510210000013935898578330923946_);}
	.st181{fill:url(#SVGID_00000062161947496646254320000009335034241962885051_);}
	.st182{fill:url(#SVGID_00000130649266691551681130000007830286477295583667_);}
	.st183{fill:url(#SVGID_00000156546704562823791540000007210008332133369020_);}
	.st184{fill:url(#SVGID_00000015321640824417204030000016975727425161838246_);}
	.st185{fill:url(#SVGID_00000109723438298948832730000014896274017601060996_);}
	.st186{fill:url(#SVGID_00000183935387824913978770000006971720500802406580_);}
	.st187{fill:url(#SVGID_00000085231970167365027480000005679226432227441315_);}
	.st188{fill:url(#SVGID_00000042705157727937277270000006831489384842508461_);}
	.st189{fill:url(#SVGID_00000007407927119193973530000007705406641115846070_);}
	.st190{fill:url(#SVGID_00000026879777985269186080000011341129061220355216_);}
	.st191{fill:url(#SVGID_00000111158836287561969190000013990217583418194316_);}
	.st192{fill:url(#SVGID_00000001659625281706953720000011642406425561941914_);}
	.st193{fill:url(#SVGID_00000008109693610778576330000012838831422682314943_);}
	.st194{fill:url(#SVGID_00000075160172034119129820000014805089659189403778_);}
	.st195{fill:url(#SVGID_00000059295877396452055190000009030565342787491482_);}
	.st196{fill:url(#SVGID_00000016756385993322802080000008647077331634666116_);}
	.st197{fill:url(#SVGID_00000183225421087943217040000007870330006423711149_);}
	.st198{fill:url(#SVGID_00000119818396623406875420000007533805448244456101_);}
	.st199{fill:url(#SVGID_00000174597230739000954660000009110847329249335712_);}
	.st200{fill:url(#SVGID_00000147195388517543658440000004217284708650978947_);}
	.st201{fill:url(#SVGID_00000016762193484595154820000002624530199061000833_);}
	.st202{fill:url(#SVGID_00000115498198531703085690000013865215321781503127_);}
	.st203{fill:url(#SVGID_00000049944317471299204510000008483640780413343667_);}
	.st204{fill:url(#SVGID_00000035515452051693970300000004840239600121817529_);}
	.st205{fill:url(#SVGID_00000068667158833990130700000000569349250344434618_);}
	.st206{fill:url(#SVGID_00000181768755167581873080000006948563705626439827_);}
	.st207{fill:url(#SVGID_00000155843764850089702360000011225203867227042970_);}
	.st208{fill:url(#SVGID_00000034783099903251505650000016241709272126570921_);}
	.st209{fill:url(#SVGID_00000158739156027683090720000001588307957260437929_);}
	.st210{fill:url(#SVGID_00000150814288097117271030000007070039080841347205_);}
	.st211{fill:url(#SVGID_00000133523829284162301240000012836157645518992036_);}
	.st212{fill:none;stroke:#FFFFFF;stroke-linecap:round;stroke-miterlimit:10;}
	.st213{fill:url(#SVGID_00000161614104563889171430000010497673641323920036_);}
	.st214{fill:url(#SVGID_00000126295518339372399690000014983638698978513835_);}
	.st215{fill:url(#SVGID_00000044137731710905852290000008457057392942018207_);}
	.st216{fill:url(#SVGID_00000004547026496973977750000013322483218351440527_);}
	.st217{fill:url(#SVGID_00000145058216761915628250000017887453030677656759_);}
	.st218{fill:url(#SVGID_00000036225883169048760620000015802517546979017866_);}
	.st219{fill:url(#SVGID_00000097492806860104794080000003386088995848346037_);}
	.st220{fill:url(#SVGID_00000162348606261992228050000012448074559265505942_);}
	.st221{fill:url(#SVGID_00000147179887636180493610000005425754703930216589_);}
	.st222{fill:url(#SVGID_00000040563768292983693410000003721337876026083459_);}
	.st223{fill:url(#SVGID_00000080911066316021388060000011977551397206015406_);}
	.st224{fill:url(#SVGID_00000006695014037205162350000001675578426510510265_);}
	.st225{fill:url(#SVGID_00000146482537648548415950000003539397061623499410_);}
	.st226{fill:url(#SVGID_00000148628667966905497200000011749107283919875731_);}
	.st227{fill:url(#SVGID_00000004536334345244697860000009152130951111870602_);}
	.st228{fill:url(#SVGID_00000088814656164377193280000004101433022813366182_);}
	.st229{fill:url(#SVGID_00000070102785074633137010000017632936233217567931_);}
	.st230{fill:url(#SVGID_00000171712806924104847610000004833316811689566354_);}
	.st231{fill:url(#SVGID_00000142870883693169221210000009827648292263172511_);}
	.st232{fill:url(#SVGID_00000181771055006570654210000014680710324652492960_);}
	.st233{fill:url(#SVGID_00000148650263018789645860000006827505495870855853_);}
	.st234{fill:none;stroke:#22274C;stroke-width:0.5;stroke-miterlimit:10;}
	.st235{fill:url(#SVGID_00000169556540766515948700000013198284368616646333_);}
	.st236{fill:none;stroke:#22274C;stroke-miterlimit:10;}
	.st237{fill:url(#SVGID_00000132777589025912025250000006330675636851875465_);}
	.st238{fill:url(#SVGID_00000088834624532149108080000005071949137802691513_);}
	.st239{fill:url(#SVGID_00000081615403778240595860000006359149081336208024_);}
	.st240{fill:url(#SVGID_00000176001072712940061050000013168198700500661129_);}
	.st241{fill:url(#SVGID_00000111896396147418686440000000668798488893755809_);}
	.st242{fill:url(#SVGID_00000072988140894008080860000006512591727281842821_);}
	.st243{fill:url(#SVGID_00000060720508667800447560000010691431735202942111_);}
	.st244{fill:url(#SVGID_00000080184148841269095380000014846037719382675594_);}
	.st245{fill:url(#SVGID_00000087383768475367463010000008397723669263404982_);}
	.st246{fill:url(#SVGID_00000034072231301939569170000002276603914938121366_);}
	.st247{fill:url(#SVGID_00000150786072118531644130000001371096955074433467_);}
	.st248{fill:url(#SVGID_00000072275586158073305120000013070723096751739579_);}
	.st249{fill:none;stroke:#E11E5E;stroke-miterlimit:10;}
	.st250{fill:url(#SVGID_00000037693364338736656010000008236074391740377000_);}
	.st251{fill:url(#SVGID_00000010282881672794475440000004091023984412951175_);}
	.st252{fill:url(#SVGID_00000053544828224747340010000016778907992693067418_);}
	.st253{fill:url(#SVGID_00000132080419287017639360000006042390194031477156_);}
	.st254{fill:url(#SVGID_00000121971690632990918800000016891752355649200301_);}
	.st255{fill:url(#SVGID_00000045592610604433802000000013265851956722545571_);}
	.st256{fill:url(#SVGID_00000036221787656264231940000000431676261624422324_);}
	.st257{fill:url(#SVGID_00000170974920941707822780000002788593810069130410_);}
	.st258{fill:url(#SVGID_00000138530822773714642760000015263715695444252549_);}
	.st259{fill:url(#SVGID_00000169541573290482525600000007282902478963945911_);}
	.st260{fill:url(#SVGID_00000042725585323018959520000010173424007276114348_);}
	.st261{fill:url(#SVGID_00000083802913017222278840000011197204846000105105_);}
	.st262{fill:url(#SVGID_00000022536255230230320050000004353375505873383562_);}
	.st263{fill:url(#SVGID_00000065795254859585859770000004573585299870410907_);}
	.st264{fill:url(#SVGID_00000009554590420085103710000000588610604562724499_);}
	.st265{fill:url(#SVGID_00000087372251908473453100000005595132060618959030_);}
	.st266{fill:url(#SVGID_00000137103432221259235690000004157955750870007193_);}
	.st267{fill:url(#SVGID_00000052782633201268692200000009140124423371533720_);}
	.st268{fill:url(#SVGID_00000168820047680598024040000015274992583815212171_);}
	.st269{fill:url(#SVGID_00000102538534638135498030000007505089225331211178_);}
	.st270{fill:url(#SVGID_00000003820420405009043420000017145384624569288855_);}
	.st271{fill:url(#SVGID_00000068640829559058664390000004290880685250568103_);}
	.st272{fill:url(#SVGID_00000114047177791242131660000014831591976715234697_);}
	.st273{fill:none;stroke:#FFFFFF;stroke-width:0.75;stroke-miterlimit:10;}
	.st274{fill:none;stroke:#FFFFFF;stroke-width:0.75;stroke-linecap:round;stroke-miterlimit:10;}
	.st275{fill-rule:evenodd;clip-rule:evenodd;fill:none;stroke:#FFFFFF;stroke-width:0.5;stroke-miterlimit:10;}
	
		.st276{fill-rule:evenodd;clip-rule:evenodd;fill:none;stroke:#FFFFFF;stroke-width:0.5;stroke-linecap:round;stroke-miterlimit:10;}
	.st277{fill:url(#SVGID_00000042716158349607337120000016422496791646602906_);}
	.st278{fill:url(#SVGID_00000109714103911367420670000005451784640940836792_);}
	.st279{fill:url(#SVGID_00000106837544961613637180000014366875505390626993_);}
	.st280{fill:url(#SVGID_00000029044529254459070410000009770795276590310286_);}
	.st281{fill:url(#SVGID_00000169515493592678156980000013086345025927045266_);}
	.st282{fill:url(#SVGID_00000150794697083785922820000007864839114688556211_);}
	.st283{fill:url(#SVGID_00000065076563381983577870000004113925254669581211_);}
	.st284{fill:url(#SVGID_00000068661915740938674820000015997828824535891860_);}
	.st285{fill:url(#SVGID_00000044860966316208647810000016327211933293306814_);}
	.st286{fill:url(#SVGID_00000039854816008670590090000007909317826029774772_);}
	.st287{fill:url(#SVGID_00000011032708684171422890000003518280875919866522_);}
	.st288{fill:url(#SVGID_00000099651455235767648220000000941721811503693461_);}
	.st289{fill:url(#SVGID_00000176722224849893769270000000704608044018348944_);}
	.st290{fill:url(#SVGID_00000152957006872773784540000013110933970266310049_);}
	.st291{fill:url(#SVGID_00000183236689470598913920000007800610293455014847_);}
	.st292{fill:url(#SVGID_00000052078850912446403850000005153059351275260328_);}
	.st293{fill:url(#SVGID_00000155854494084396698400000005611818616429350796_);}
	.st294{fill:url(#SVGID_00000037673306447395965650000015167847630749446588_);}
	.st295{fill:url(#SVGID_00000166657982762616770320000001392237596999652283_);}
	.st296{fill:url(#SVGID_00000145779691312920101080000000526897492278312066_);}
	.st297{fill:url(#SVGID_00000110434653605658181210000018438144207054936470_);}
	.st298{fill:url(#SVGID_00000026862883592794978060000002766093611423980440_);}
	.st299{fill:url(#SVGID_00000018947921865972466700000005498654426592483262_);}
	.st300{fill:url(#SVGID_00000145043439613934036170000009023607025339726003_);}
	.st301{fill:url(#SVGID_00000162324055974502995480000006590862556389238196_);}
	.st302{clip-path:url(#SVGID_00000029026204839454094320000003871615122360712117_);fill:#22264C;}
	.st303{clip-path:url(#SVGID_00000002381039058831646480000003671863035619789242_);fill:#FFFFFF;}
	.st304{clip-path:url(#SVGID_00000021083838819024601960000005956697158889435579_);fill:#FFFFFF;}
	.st305{clip-path:url(#SVGID_00000086653998319468527680000018443232774130040216_);fill:#FFFFFF;}
	.st306{clip-path:url(#SVGID_00000039135492746352058340000004416391341738261900_);fill:#FFFFFF;}
	.st307{clip-path:url(#SVGID_00000120520475048694233950000005208537787237479839_);fill:#FFFFFF;}
	.st308{clip-path:url(#SVGID_00000018928450455288020240000008118905943942945197_);fill:#FFFFFF;}
	.st309{clip-path:url(#SVGID_00000062165558890698929340000003154147705962427814_);fill:#FFFFFF;}
	.st310{clip-path:url(#SVGID_00000098214827710263517360000017878955233514621843_);fill:#FFFFFF;}
	.st311{clip-path:url(#SVGID_00000020364121413356571170000005272798338470400189_);fill:#FFFFFF;}
	.st312{clip-path:url(#SVGID_00000150808202273319689100000001797025876495263413_);fill:#FFFFFF;}
	.st313{clip-path:url(#SVGID_00000032607524834360748020000003372703868127487149_);fill:#FFFFFF;}
	.st314{fill:url(#SVGID_00000072264451161661786620000015652199439564118444_);}
	.st315{fill:url(#SVGID_00000050649742336519713280000000984671494416394646_);}
	.st316{fill:url(#SVGID_00000100345476779530456390000009809052720900540861_);}
	.st317{fill:url(#SVGID_00000130612188801316751470000001785437559856875140_);}
	.st318{fill:url(#SVGID_00000085951749544203664380000006948782903485897601_);}
	.st319{fill:url(#SVGID_00000029005325209046848940000018035317115809437336_);}
	.st320{fill:url(#SVGID_00000003077607851399126970000002634668241198244010_);}
	.st321{fill:url(#SVGID_00000119077169985227010980000003554866334583625354_);}
	.st322{fill:url(#SVGID_00000121982937118525964270000002604630871154614912_);}
	.st323{fill:url(#SVGID_00000144308568373536091890000002892693012227440264_);}
	.st324{fill:url(#SVGID_00000011031144826062899840000006850162922207449787_);}
	.st325{fill:url(#SVGID_00000050638726925567474930000010312464199181243026_);}
	.st326{fill:url(#SVGID_00000151529470531043256440000018424571331918573451_);}
	.st327{fill:url(#SVGID_00000072239266395466581080000014904159269682421916_);}
	.st328{fill:url(#SVGID_00000178167587062540970000000014376702605202644141_);}
	.st329{fill:url(#SVGID_00000020387104293988570190000007151758458545036948_);}
	.st330{fill:url(#SVGID_00000041291748734026575330000007793732700163993022_);}
	.st331{fill:url(#SVGID_00000018195855853893915230000012108839470705970865_);}
	.st332{fill:url(#SVGID_00000181784616400643097290000000491190024274878125_);}
	.st333{fill:url(#SVGID_00000144308114177675244030000017387330027352843707_);}
	.st334{fill:url(#SVGID_00000183929055464591582810000018383736464559544761_);}
	.st335{fill:url(#SVGID_00000038382057972578463820000001270272041007625363_);}
	.st336{fill:url(#SVGID_00000071546093530781547950000017912464504158270339_);}
	.st337{fill:url(#SVGID_00000093159367477691595170000015105644880009599623_);}
	.st338{fill:url(#SVGID_00000091717543589170403030000004031448670202407612_);}
	.st339{fill:url(#SVGID_00000064319445503513854350000007175378477632113842_);}
	.st340{fill:url(#SVGID_00000085964616083686316940000002121599043991185564_);}
	.st341{fill:url(#SVGID_00000023983001329785203900000015803193046532450483_);}
	.st342{fill:url(#SVGID_00000159430126840900088700000000843634185461843133_);}
	.st343{fill:url(#SVGID_00000023256417382125476210000011245902786490858895_);}
	.st344{fill:url(#SVGID_00000001643281714965724340000005680263795288277165_);}
	.st345{fill:url(#SVGID_00000130611083330982615370000014447607519809441676_);}
	.st346{fill:url(#SVGID_00000091719501547628057910000003768732521262839189_);}
	.st347{fill:url(#SVGID_00000146463022379627383070000005198034256275945902_);}
	.st348{fill:url(#SVGID_00000174590622570777551650000007177967394003700879_);}
	.st349{fill:url(#SVGID_00000013904047060555038660000004437784288130251152_);}
	.st350{fill:url(#SVGID_00000044878527223841084340000004073689429645372304_);}
	.st351{fill:url(#SVGID_00000018211978890482596550000018157489872382107561_);}
	.st352{fill:url(#SVGID_00000093157295269852094090000001651399149366113186_);}
	.st353{fill:url(#SVGID_00000008830148510335378240000016553578123927854723_);}
	.st354{fill:#8A8989;}
	.st355{fill:#616160;}
	.st356{fill-rule:evenodd;clip-rule:evenodd;fill:#FFFFFF;}
	.st357{fill-rule:evenodd;clip-rule:evenodd;fill:#8A8989;}
	.st358{fill-rule:evenodd;clip-rule:evenodd;fill:#797879;}
	.st359{clip-path:url(#XMLID_00000111177050164247012830000006485722035176394427_);}
	.st360{opacity:0.2;fill:#E1E3E7;}
	.st361{fill-rule:evenodd;clip-rule:evenodd;fill:#616160;}
	.st362{fill:#E1E3E7;}
	.st363{fill:#FFFFFF;stroke:#FFFFFF;stroke-width:4;stroke-miterlimit:10;}
	.st364{fill:#58595B;}
	.st365{fill:#80A926;}
	.st366{clip-path:url(#SVGID_00000097485835148570364820000011413294757490149519_);}
	.st367{clip-path:url(#SVGID_00000124854957619952559050000012803070022058943399_);}
	.st368{clip-path:url(#SVGID_00000019659793754052438910000003726712335404764557_);}
	.st369{clip-path:url(#SVGID_00000061460392888399822070000013638653577216989596_);}
	.st370{clip-path:url(#SVGID_00000026121473160096666810000008716605492054518169_);}
	.st371{clip-path:url(#SVGID_00000093882221309304450380000014897387472679739064_);}
	.st372{clip-path:url(#SVGID_00000147906841071014320100000006592521692082984635_);}
	.st373{clip-path:url(#SVGID_00000169524944186326543930000008855332034404149947_);}
	.st374{clip-path:url(#SVGID_00000183217569564456374500000015822211841664190338_);}
	.st375{clip-path:url(#SVGID_00000013194613113791945870000012671721588404611250_);}
	.st376{fill:#1D1E1C;}
	.st377{opacity:0.36;}
	.st378{opacity:0.57;}
	.st379{fill:none;}
	.st380{fill:#01CEA6;}
	.st381{fill:#01261F;}
	.st382{fill:#E68000;}
	.st383{fill:#261400;}
	.st384{fill:#E63D80;}
	.st385{fill:#2D0013;}
	.st386{fill:#3695BB;}
	.st387{fill:#032732;}
	.st388{fill:#CDE4EC;}
	.st389{fill:#DA80E7;}
	.st390{fill:#B072BD;}
	.st391{fill:#855994;}
	.st392{fill:#180024;}
	.st393{fill:#DD80EA;}
	.st394{fill:#BB80E7;}
	.st395{fill:#9B77C0;}
	.st396{fill:#C080ED;}
	.st397{fill:#1F0140;}
	.st398{fill:#80619A;}
	.st399{fill:url(#SVGID_00000005267944452678602480000000829161338061088191_);}
	.st400{fill:url(#SVGID_00000075848850218820352710000012765104482023095451_);}
	.st401{fill:url(#SVGID_00000108291442509145873310000000706934393441663126_);}
	.st402{fill:url(#SVGID_00000089575144456786607370000010136972686905202866_);}
	.st403{fill:url(#SVGID_00000088098897272224543390000015219312538779887491_);}
	.st404{fill:url(#SVGID_00000018228730880307623300000013656089700755821236_);}
	.st405{fill:url(#SVGID_00000017511266041950566360000003842884671945105848_);}
	.st406{fill:url(#SVGID_00000018206616661497170020000015827544761112586677_);}
	.st407{fill:url(#SVGID_00000049216561232916800010000007218848046515899266_);}
	.st408{fill:url(#SVGID_00000118368048550335792770000009900049922504557483_);}
	.st409{fill:url(#SVGID_00000016770732938775418450000000066225304376155557_);}
	.st410{fill:url(#SVGID_00000157294532096433210530000016296372634832822708_);}
	.st411{fill:none;stroke:#464A69;stroke-miterlimit:10;}
	.st412{fill:url(#SVGID_00000166677964829568053940000005416724431724215722_);}
	.st413{fill:url(#SVGID_00000083054070163388671900000008981464998637239230_);}
	.st414{fill:url(#SVGID_00000014608660170274066780000004148442141798175414_);}
	.st415{fill:url(#SVGID_00000152954462518892645550000018118392820060916132_);}
	.st416{fill:url(#SVGID_00000160886026778052511720000013869500871594657161_);}
	.st417{fill:url(#SVGID_00000160151469674626077650000017133043845431710900_);}
	.st418{fill:url(#SVGID_00000031889331996348771820000013191942747337191059_);}
	.st419{fill:url(#SVGID_00000143606910530968767180000004608896137671586449_);}
	.st420{fill:url(#SVGID_00000072265419634367091990000001404812287770253979_);}
	.st421{fill:url(#SVGID_00000034790832157764942320000016464655894746748825_);}
	.st422{fill:url(#SVGID_00000079462798532324353180000006148466569327029156_);}
	.st423{fill:url(#SVGID_00000016776866025858427050000001457875321588352651_);}
	.st424{fill:url(#SVGID_00000097486850081169323040000011150514083600464802_);}
	.st425{fill:url(#SVGID_00000005264986278171295300000011947813803422352801_);}
	.st426{fill:none;stroke:#22274C;stroke-width:0.75;stroke-miterlimit:10;}
	.st427{fill:none;stroke:#FFFFFF;stroke-width:2;stroke-miterlimit:10;}
	.st428{fill:url(#SVGID_00000056422779655017026720000004577029909417875610_);}
	.st429{fill:url(#SVGID_00000085947187809840827830000007603316784205478034_);}
	.st430{fill:url(#SVGID_00000086652907917749425650000006862907878469882041_);}
	.st431{fill:url(#SVGID_00000138559838829565030210000003916517681208289949_);}
	.st432{fill:url(#SVGID_00000168817305364893769670000016521110148851270298_);}
	.st433{fill:url(#SVGID_00000009557357328587183380000003757507190449441165_);}
	.st434{fill:url(#SVGID_00000166674880942997937360000016678309756558735800_);}
	.st435{fill:url(#SVGID_00000004536025049461317020000013337475321052453009_);}
	.st436{fill:url(#SVGID_00000108289515625375106400000008647253975918025655_);}
	.st437{fill:url(#SVGID_00000177443934840792231550000016298503074678679995_);}
	.st438{fill:url(#SVGID_00000102540361551866359930000007485144866956863369_);}
	.st439{fill:url(#SVGID_00000030444355555970763810000000511206444793260182_);}
	.st440{fill:url(#SVGID_00000129176652979166796820000009999406007099174529_);}
	.st441{fill:url(#SVGID_00000132057083501939188340000005143809529669305530_);}
	.st442{fill:url(#SVGID_00000096755481629999390590000013655267314635361434_);}
	.st443{fill:url(#SVGID_00000151502114929010647870000004519432948616240315_);}
	.st444{fill:url(#SVGID_00000149360429687647213400000013550596256197705365_);}
	.st445{fill:url(#SVGID_00000132804896269247732700000002414395285792432261_);}
	.st446{fill:url(#SVGID_00000089548983362999743770000001269125325049006263_);}
	.st447{fill:url(#SVGID_00000003810464461197977550000004879517759290254509_);}
	.st448{fill:url(#SVGID_00000122707206833391279000000015657926933922546339_);}
	.st449{fill:url(#SVGID_00000091716453375612941750000017925139624084486295_);}
	.st450{fill:url(#SVGID_00000062871992298944200100000005028194766352098228_);}
	.st451{fill:url(#SVGID_00000000937675624403965060000011916664906295225986_);}
	.st452{fill:url(#SVGID_00000133531178783905962500000001122600691949408688_);}
	.st453{fill:url(#SVGID_00000102545062518190680400000010200517842815057803_);}
	.st454{fill:url(#SVGID_00000103255075111855190920000012692521341037335970_);}
	.st455{fill:none;stroke:#8F8F8F;stroke-width:0.75;stroke-miterlimit:10;}
	.st456{fill:#8F8F8F;stroke:#8F8F8F;stroke-width:0.25;stroke-miterlimit:10;}
	.st457{fill:#8F8F8F;}
	.st458{fill:none;stroke:#8F8F8F;stroke-width:0.25;stroke-miterlimit:10;}
	.st459{fill:url(#SVGID_00000069357505125436708830000010980672717167844006_);}
	.st460{fill:url(#SVGID_00000095312065698176553690000015740553265927359624_);}
	.st461{fill:url(#SVGID_00000041255138521005263490000009207612862986450853_);}
	.st462{fill:url(#SVGID_00000097491290420822575690000010307108777270403247_);}
	.st463{fill:url(#SVGID_00000070811961587425500920000001027440341220855425_);}
	.st464{fill:url(#SVGID_00000133495605903940467260000008457296512370971798_);}
	.st465{fill:url(#SVGID_00000159463669393970638060000007540418323028560299_);}
	.st466{fill:url(#SVGID_00000013885396420138582710000015203278096794967453_);}
	.st467{fill:url(#SVGID_00000080897806925328224970000003527208270210638497_);}
	.st468{fill:url(#SVGID_00000031168828878218977700000006091246781295846312_);}
</style>
<g>
	<g>
		<path class="st5" d="M0.24,13.83c0.23,0,0.38,0.09,0.53,0.22c1.4,1.19,3,1.81,4.85,1.67c1.35-0.1,2.6-0.55,3.82-1.11
			c0.87-0.4,1.71-0.84,2.58-1.24c0.94-0.43,1.92-0.68,2.95-0.51c1.2,0.2,2.05,0.95,2.66,1.95c1.4,2.29,2.7,4.62,3.51,7.2
			c0.04,0.13,0.08,0.27,0.12,0.41c0.03,0.11,0.1,0.23-0.04,0.31c-0.14,0.08-0.28,0.14-0.43,0.03c-0.08-0.06-0.15-0.11-0.23-0.17
			c-2.06-1.65-4.36-1.99-6.86-1.25c-1.02,0.3-1.96,0.8-2.94,1.22c-0.69,0.29-1.38,0.59-2.04,0.96C8.07,23.86,7.3,23.93,6.54,24
			c-1.34,0.12-2.22-0.61-2.78-1.64c-1.17-2.12-2.21-4.3-3.3-6.46C0.18,15.34-0.02,14.75,0,14.1C0.01,13.91,0.07,13.81,0.24,13.83z"
			/>
		<path class="st5" d="M29.16,15.65c-0.02,0.58-0.21,1.21-0.47,1.82c-0.54,1.32-1.06,2.65-2,3.76c-0.49,0.58-1.05,1.09-1.71,1.46
			c-0.88,0.49-1.54,0.3-2.05-0.57c-0.39-0.67-0.66-1.41-0.97-2.12c-0.9-2.06-1.78-4.13-2.89-6.1c-0.3-0.53-0.62-1.06-1.07-1.49
			c-0.56-0.54-1.21-0.85-2-0.8c-0.22,0.01-0.32-0.05-0.26-0.28c0.49-2.1,1.13-4.14,2.55-5.84c0.46-0.54,0.93-1.07,1.48-1.51
			c0.65-0.53,1.37-0.5,1.97,0.08c0.33,0.33,0.57,0.72,0.72,1.16c0.79,2.27,1.65,4.51,2.77,6.65c0.42,0.81,0.88,1.58,1.47,2.28
			c0.53,0.62,1.16,0.97,2,0.94C29.16,15.07,29.16,15.09,29.16,15.65z"/>
		<path class="st5" d="M20.47,2.54c-0.64-0.15-2.52,1-3.01,1.73c-2.68,3.06-3.06,6.35-3.06,6.89c0,0.38-1.81,0.16-4.21,1.53
			c-5.36,3.06-7.92,0.32-8.71,0.03c-0.32-0.12-0.22-0.2-0.05-0.35c0.82-0.71,1.65-1.4,2.45-2.14C8.27,6.95,7.89-1.09,15.28,0.12
			c1.66,0.27,3.15,0.23,4.41,1.37C20,1.78,20.29,2.09,20.47,2.54z"/>
		<g>
			<path class="st5" d="M47.39,14.2H41.3v1.76l0.58,0.02c0.92,0.03,1.24,0.11,1.34,0.16c0,0.01,0,0.02,0,0.04v3.11
				c-0.43,0.23-1.07,0.35-1.88,0.35c-1.82,0-3.67-1.75-3.67-5.1c0-3.51,1.82-5.1,3.52-5.1c1.44,0,2.46,0.82,3.09,2.51l0.15,0.39H46
				V7.57h-1.45l-0.4,0.48c-0.72-0.25-1.77-0.48-2.77-0.48c-1.84,0-3.56,0.69-4.84,1.95c-1.32,1.3-2.05,3.09-2.05,5.05
				c0,4.79,3.52,6.93,7,6.93c1.21,0,3.15-0.36,4.36-1.01l0.31-0.17v-4.14c0-0.06,0-0.1,0-0.13c0.1-0.02,0.28-0.05,0.65-0.06
				l0.57-0.03V14.2z"/>
			<path class="st5" d="M65.18,21.21v-1.73l-0.58-0.02c-0.47-0.02-0.68-0.06-0.77-0.09v-7.9l-4.11,0.13v1.73l0.58,0.02
				c0.51,0.02,0.71,0.06,0.79,0.09c0,0.01,0,0.03,0,0.05v5.16c-0.42,0.24-0.81,0.37-1.34,0.37c-0.86,0-1.27-0.15-1.27-1.49v-6.06
				l-4.11,0.13v0.2c-0.31-0.22-0.71-0.35-1.19-0.35c-0.63,0-1.26,0.23-1.86,0.67v-0.63l-4.06,0.1v1.74l0.59,0.01
				c0.76,0.01,0.76,0.16,0.76,0.31v5.71c-0.09,0.03-0.3,0.07-0.76,0.08l-0.59,0.01v1.76h5.64v-1.76l-0.59-0.01
				c-0.61-0.01-0.86-0.06-0.96-0.1v-4.98c0.14-0.18,0.37-0.41,0.66-0.55c0.17,0.69,0.78,1.15,1.56,1.15c0.88,0,1.54-0.69,1.55-1.62
				c0.36,0.02,0.52,0.05,0.6,0.07c0,0.01,0,0.03,0,0.06v4.71c0,1.95,1.07,3.16,2.79,3.16c1.01,0,1.89-0.33,2.59-0.72v0.58H65.18z"/>
			<path class="st5" d="M70.83,11.39c-0.87,0-1.57,0.28-2.17,0.67v-0.58l-4.06,0.1v1.74l0.59,0.01c0.76,0.01,0.76,0.16,0.76,0.31
				v9.26c-0.09,0.03-0.3,0.07-0.77,0.09l-0.58,0.02v1.73h5.85v-1.73L69.87,23c-0.76-0.02-1.06-0.09-1.17-0.13v-1.86
				c0.49,0.16,1.07,0.29,1.76,0.29c2.55,0,4.33-2.13,4.33-5.17C74.79,13.25,73.24,11.39,70.83,11.39z M68.7,18.42v-4.27
				c0.39-0.35,0.87-0.67,1.54-0.67c1.21,0,1.64,1.42,1.64,2.74c0,2.28-0.88,3.31-1.69,3.31C69.35,19.53,68.95,19.24,68.7,18.42z"/>
			<path class="st5" d="M79.67,11.39c-2.79,0-4.73,2.06-4.73,5.01c0,3.01,1.86,4.95,4.73,4.95c2.77,0,4.71-2.07,4.71-5.03
				C84.39,13.33,82.54,11.39,79.67,11.39z M79.58,13.16c1.65,0,1.89,2.01,1.89,3.2c0,1.47-0.3,3.22-1.73,3.22
				c-1.65,0-1.89-2.02-1.89-3.22C77.85,14.24,78.43,13.16,79.58,13.16z"/>
			<path class="st5" d="M98.49,18.36L94.61,7.68h-1.65l-3.86,9.6c-0.62,1.56-0.92,2.01-1.85,2.2l-0.48,0.1v1.62h5.2v-1.64l-0.5-0.08
				c-0.61-0.1-0.84-0.17-0.92-0.22c-0.02-0.22,0.27-0.94,0.36-1.18l0.55-1.43h3.3l0.77,2.21c0.1,0.27,0.1,0.38,0.1,0.42
				c-0.05,0.04-0.27,0.16-1.12,0.2l-0.56,0.03v1.7h6.64v-1.66l-0.52-0.07C98.88,19.32,98.72,19.02,98.49,18.36z M92.19,14.79
				l1.02-2.65l0.91,2.65H92.19z"/>
			<path class="st5" d="M136.45,11.54h-7.77l-0.23,3.94l1.55,0.11l0.17-0.39c0.63-1.48,0.81-1.8,2.01-1.8h0.64l-4.57,6.55v-0.5
				l-0.59-0.01c-0.46-0.01-0.67-0.05-0.76-0.07v-4.75c0-1.95-1.03-3.16-2.68-3.16c-1.01,0-1.94,0.38-2.74,0.83v-0.79l-4.06,0.1v1.74
				l0.59,0.01c0.76,0.01,0.76,0.16,0.76,0.31v5.71c-0.09,0.03-0.3,0.07-0.76,0.08l-0.25,0l-0.04-0.22l-0.57,0.07
				c-0.47,0.06-0.65,0.04-0.72,0.02c-0.01-0.05-0.03-0.16-0.03-0.41v-4.23c0-2.06-1.31-3.24-3.61-3.24c-1.67,0-3.06,0.69-3.57,1.67
				v-1.58h-4.46v1.62l0.5,0.08c0.49,0.08,0.58,0.19,0.58,0.19c0,0,0.01,0.01,0.01,0.05c0,0.16-0.11,0.46-0.2,0.71l-1.2,3.08
				l-1.52-3.86c-0.01-0.02-0.01-0.03-0.01-0.04c0.1-0.03,0.29-0.08,0.63-0.1l0.56-0.04v-1.69h-5.33v1.67l0.53,0.06
				c0.57,0.06,0.68,0.15,0.93,0.79l2.92,7.26h1.67l2.9-7c0.19-0.46,0.5-1.01,0.96-1.07l0.48-0.06c-0.12,0.24-0.18,0.51-0.18,0.78
				c0,0.92,0.64,1.59,1.52,1.59c0.91,0,1.58-0.67,1.58-1.59c0-0.21-0.03-0.43-0.1-0.66c0.13-0.06,0.3-0.09,0.54-0.09
				c0.6,0,1.12,0,1.12,1.82v0.12c-0.16,0.04-0.35,0.09-0.52,0.13c-0.89,0.22-2.1,0.52-3.04,1.05c-0.9,0.49-1.44,1.41-1.44,2.44
				c0,1.26,0.88,2.54,2.83,2.54c0.86,0,1.7-0.33,2.48-0.95c0.23,0.53,0.67,0.91,1.62,0.91c0.68,0,1.21-0.14,1.84-0.36v0.29h5.26
				v-1.76l-0.59-0.01c-0.34-0.01-0.5-0.04-0.58-0.06v-5.12c0.35-0.22,0.88-0.47,1.49-0.47c0.7,0,1.16,0.1,1.16,1.49v4.1
				c-0.08,0.02-0.25,0.05-0.6,0.06l-0.59,0.01v1.76h5.26h0.02h7.99l0.23-4.07l-1.55-0.11l-0.16,0.4c-0.59,1.43-0.86,1.92-2.22,1.92
				h-0.67l4.7-6.76L136.45,11.54z M113.66,18.39c-0.33,0.39-0.84,0.75-1.28,0.75c-0.34,0-0.79-0.08-0.79-0.79
				c0-0.6,0-0.93,2.07-1.43V18.39z"/>
			<path class="st5" d="M151.46,11.45c-0.63,0-1.26,0.23-1.86,0.67v-0.63l-4.06,0.1v1.74l0.59,0.01c0.76,0.01,0.76,0.16,0.76,0.31
				v5.71c-0.09,0.03-0.3,0.07-0.76,0.08l-0.25,0l-0.04-0.22l-0.57,0.07c-0.47,0.06-0.65,0.04-0.72,0.02
				c-0.01-0.05-0.03-0.16-0.03-0.41v-4.23c0-2.06-1.31-3.24-3.61-3.24c-2.13,0-3.79,1.11-3.79,2.52c0,0.92,0.64,1.59,1.52,1.59
				c0.91,0,1.58-0.67,1.58-1.59c0-0.21-0.03-0.43-0.1-0.66c0.13-0.06,0.3-0.09,0.54-0.09c0.6,0,1.12,0,1.12,1.82v0.12
				c-0.16,0.04-0.35,0.09-0.52,0.13c-0.89,0.22-2.1,0.52-3.04,1.05c-0.9,0.49-1.44,1.41-1.44,2.44c0,1.26,0.88,2.54,2.83,2.54
				c0.86,0,1.7-0.33,2.48-0.95c0.23,0.53,0.67,0.91,1.62,0.91c0.68,0,1.21-0.14,1.84-0.36v0.29h5.64v-1.76l-0.59-0.01
				c-0.61-0.01-0.86-0.06-0.96-0.1v-4.98c0.14-0.18,0.37-0.41,0.66-0.55c0.17,0.69,0.78,1.15,1.56,1.15c0.89,0,1.56-0.71,1.56-1.65
				C153.42,12.39,152.75,11.45,151.46,11.45z M141.78,18.39c-0.33,0.39-0.84,0.75-1.28,0.75c-0.34,0-0.79-0.08-0.79-0.79
				c0-0.6,0-0.93,2.07-1.43V18.39z"/>
		</g>
	</g>
	<g>
		<path class="st5" d="M158.01,6.06c1.91,0,3.45,1.55,3.45,3.45c0,1.91-1.55,3.45-3.45,3.45c-1.91,0-3.45-1.55-3.45-3.45
			C154.56,7.61,156.11,6.06,158.01,6.06z M155.26,9.52c0,1.52,1.23,2.75,2.75,2.75c1.52,0,2.75-1.23,2.75-2.75
			c0-1.52-1.23-2.75-2.75-2.75C156.49,6.76,155.26,8,155.26,9.52z"/>
		<path class="st5" d="M156.5,11.24c0-1.2,0-2.41,0-3.61c0.01,0,0.02,0,0.03,0c0.49,0,0.98,0,1.47,0c0.24,0,0.47,0.03,0.7,0.1
			c0.17,0.06,0.33,0.15,0.44,0.3c0.08,0.11,0.13,0.24,0.15,0.38c0.03,0.18,0.02,0.37-0.03,0.55c-0.08,0.26-0.25,0.42-0.49,0.53
			c-0.05,0.02-0.1,0.04-0.16,0.06c0.02,0.01,0.04,0.01,0.05,0.02c0.15,0.05,0.27,0.15,0.37,0.28c0.09,0.11,0.16,0.24,0.22,0.36
			c0.16,0.33,0.33,0.66,0.49,1c0,0.01,0.01,0.02,0.01,0.03c-0.01,0-0.02,0-0.03,0c-0.31,0-0.62,0-0.93,0
			c-0.02,0-0.03-0.01-0.04-0.03c-0.15-0.31-0.3-0.61-0.45-0.92c-0.04-0.07-0.08-0.14-0.13-0.21c-0.09-0.12-0.21-0.19-0.36-0.2
			c-0.12-0.01-0.25-0.01-0.38-0.01c0,0.46,0,0.91,0,1.37C157.12,11.24,156.81,11.24,156.5,11.24z M157.43,8.3c0,0.31,0,0.62,0,0.93
			c0.16,0,0.31,0,0.47,0c0.06,0,0.12-0.01,0.17-0.03c0.14-0.04,0.24-0.12,0.28-0.27c0.02-0.08,0.02-0.17,0.01-0.26
			c-0.01-0.07-0.02-0.13-0.06-0.19c-0.06-0.11-0.16-0.15-0.28-0.17C157.83,8.29,157.63,8.31,157.43,8.3z"/>
	</g>
</g>
</svg>
