<?xml version="1.0" encoding="utf-8"?>
<!-- Generator: Adobe Illustrator 27.0.0, SVG Export Plug-In . SVG Version: 6.00 Build 0)  -->
<svg version="1.1" id="Capa_1" xmlns="http://www.w3.org/2000/svg" xmlns:xlink="http://www.w3.org/1999/xlink" x="0px" y="0px"
	 viewBox="0 0 148.6 38.27" style="enable-background:new 0 0 148.6 38.27;" xml:space="preserve">
<style type="text/css">
	.st0{fill:#090E38;}
	.st1{fill:url(#SVGID_1_);}
	.st2{fill:#161A42;}
	.st3{fill:url(#SVGID_00000001625738131597890870000007280953203199385524_);}
	.st4{fill:url(#SVGID_00000060029249913617708670000018039054236561012156_);}
	.st5{fill:#FFFFFF;}
	.st6{fill:#E9E9EB;}
	.st7{fill:#2280C3;}
	.st8{fill:#263A6B;}
	.st9{fill:#13183B;}
	.st10{fill:#EBEBFF;}
	.st11{fill:#15336C;}
	.st12{fill:#121D3E;}
	.st13{fill:#D8CE9E;}
	.st14{fill:#5F485A;}
	.st15{fill:#17316F;}
	.st16{fill:#0A1C4F;}
	.st17{fill:#1E1A55;}
	.st18{fill:#12193B;}
	.st19{fill:#D8CD9C;}
	.st20{fill:#544A55;}
	.st21{fill:#E0E1E3;}
	.st22{fill:#15193A;}
	.st23{fill:#D6CC89;}
	.st24{fill:#434642;}
	.st25{fill:#131543;}
	.st26{fill:#3E3B38;}
	.st27{fill:#181940;}
	.st28{fill:#D7CE9D;}
	.st29{fill:#806D64;}
	.st30{opacity:0.7;fill:#6FC4D8;}
	.st31{fill:#805AE4;}
	.st32{fill:#ECB40A;}
	.st33{fill:#10B78E;}
	.st34{fill:url(#SVGID_00000143609247293920891000000011356876178462997424_);}
	.st35{fill:url(#SVGID_00000024706247103472409380000007235766486624982685_);}
	.st36{fill:url(#SVGID_00000025410451498514428830000018431941665572863877_);}
	.st37{fill:url(#SVGID_00000162347723196448948360000010358685408301738115_);}
	.st38{fill:url(#SVGID_00000129193348005489169140000012489957706382685582_);}
	.st39{fill:url(#SVGID_00000107574735002320082810000017563616984914062522_);}
	.st40{fill:url(#SVGID_00000020376519857182424540000002002769468454292371_);}
	.st41{fill:url(#SVGID_00000101089982360874850200000006679357868239985555_);}
	.st42{fill:url(#SVGID_00000166648164017531682710000003797726968711303855_);}
	.st43{fill:url(#SVGID_00000026165887570342945500000011358017200624947870_);}
	.st44{fill:url(#SVGID_00000048496648858508694460000002715948734138188696_);}
	.st45{fill:url(#SVGID_00000026864062074440894400000004160995129935039142_);}
	.st46{fill:url(#SVGID_00000070804975662870900420000008476915045015307710_);}
	.st47{fill:url(#SVGID_00000106131696656366369490000011691940756796813964_);}
	.st48{fill:url(#SVGID_00000003797293978926308120000018328136256783604405_);}
	.st49{fill:url(#SVGID_00000161610942053249099360000014964073448523548810_);}
	.st50{fill:url(#SVGID_00000030479620430585467030000007953837436805372586_);}
	.st51{fill:url(#SVGID_00000054961327385095280370000015534916488964127878_);}
	.st52{fill:url(#SVGID_00000156576666232542154990000013205633394661188287_);}
	.st53{fill:url(#SVGID_00000024713838492409589750000006978636358606274740_);}
	.st54{fill:url(#SVGID_00000003086326789776209620000017300724552828194972_);}
	.st55{fill:url(#SVGID_00000146501318346148612110000011745201435666816692_);}
	.st56{fill:url(#SVGID_00000178926659735589766350000017121853433379556781_);}
	.st57{fill:url(#SVGID_00000005265642064528701530000010405088355949775760_);}
	.st58{fill:url(#SVGID_00000182521132538057038340000006507895385278624409_);}
	.st59{fill:url(#SVGID_00000013911742804676222770000003225777202693378962_);}
	.st60{clip-path:url(#SVGID_00000084527690569780147280000002860156745792999589_);fill:#FFFFFF;}
	.st61{fill:none;stroke:#805AE4;stroke-miterlimit:10;}
	.st62{fill:url(#SVGID_00000034781406504394261400000008510625056858998915_);}
	.st63{fill:url(#SVGID_00000033367277145454978990000003209309786284905107_);}
	.st64{fill:url(#SVGID_00000031200582257166070150000009031922796338162354_);}
	.st65{fill:url(#SVGID_00000102504873301235079340000003613936492519368852_);}
	.st66{fill:url(#SVGID_00000110437587678508055760000016027128996838806422_);}
	.st67{fill:url(#SVGID_00000003068753133058262240000007146249867594376331_);}
	.st68{fill:url(#SVGID_00000056397897602825883920000002097395038947869314_);}
	.st69{fill:url(#SVGID_00000078724775011129273760000016635249652212637339_);}
	.st70{fill:url(#SVGID_00000121983286558368817540000011106762157484760761_);}
	.st71{fill:url(#SVGID_00000084509364853020512860000010417759557195706789_);}
	.st72{fill:url(#SVGID_00000139263089832655648590000006199887634681248700_);}
	.st73{fill:url(#SVGID_00000096755742167442894850000003180584277392235914_);}
	.st74{fill:#DDBB1B;}
	.st75{fill:#49CA80;}
	.st76{fill:#CF78C6;}
	.st77{fill:#BDACFF;}
	.st78{fill:#37368D;}
	.st79{fill:#E11E5E;}
	.st80{fill:#EB9F49;}
	.st81{fill:#FF6B6B;}
	.st82{fill:#38ABE6;}
	.st83{fill:url(#SVGID_00000097495030426808172950000012370247520214492039_);}
	.st84{fill:url(#SVGID_00000060008825143400470020000010035579065178028453_);}
	.st85{fill:url(#SVGID_00000181065564948026932070000003634653438303880634_);}
	.st86{fill:#E78A7E;}
	.st87{fill:#E69C78;}
	.st88{fill:#FF80E7;}
	.st89{fill:#E86480;}
	.st90{fill:url(#SVGID_00000089538600079676830710000001587179858789655478_);}
	.st91{fill:url(#SVGID_00000150096907050225444250000006945240346090964893_);}
	.st92{fill:url(#SVGID_00000128457291986675123010000006492940480093551290_);}
	.st93{fill:url(#SVGID_00000054249926030076273600000010710498700379887250_);}
	.st94{fill:url(#SVGID_00000016790663366583103370000008674834972197974463_);}
	.st95{fill:url(#SVGID_00000083771855067551474920000004244575375067251340_);}
	.st96{fill:url(#SVGID_00000170959817036819585780000010395928262608907157_);}
	.st97{fill:url(#SVGID_00000156563607324783867450000002337340980882010014_);}
	.st98{fill:url(#SVGID_00000031189620371238323970000003638547576991012746_);}
	.st99{fill:url(#SVGID_00000129915038440295014120000014678719121903517352_);}
	.st100{fill:url(#SVGID_00000089540468999929796240000017854584011093057408_);}
	.st101{fill:url(#SVGID_00000029004126997255400740000008757324254308086672_);}
	.st102{fill:url(#SVGID_00000157998492338712852280000015087990524164764056_);}
	.st103{fill:url(#SVGID_00000113345289309212865500000001266113130059962013_);}
	.st104{fill:url(#SVGID_00000170959790790639180920000010922455622394524052_);}
	.st105{fill:url(#SVGID_00000157306686820376067160000002908916238628265617_);}
	.st106{fill:url(#SVGID_00000134219704526048701080000015193992612747621506_);}
	.st107{fill:url(#SVGID_00000088823698809521519010000007099305682065262241_);}
	.st108{fill:url(#SVGID_00000142168665931921449090000008692439170191868577_);}
	.st109{fill:url(#SVGID_00000008113817018012624860000014218872947436450967_);}
	.st110{fill:url(#SVGID_00000110440403096862028540000008672125951998102955_);}
	.st111{fill:url(#SVGID_00000111174702488888518820000009703647566845971100_);}
	.st112{fill:url(#SVGID_00000111149154728188839810000005484894559633571254_);}
	.st113{fill:url(#SVGID_00000101807536108372711100000007865188244856134079_);}
	.st114{fill:url(#SVGID_00000070085741258792679340000003286445381768639397_);}
	.st115{fill:url(#SVGID_00000180352617795851275660000006262009215859715214_);}
	.st116{fill:url(#SVGID_00000035500970719002997200000010413730723245834388_);}
	.st117{fill:url(#SVGID_00000058558938146896082950000001370110477346395541_);}
	.st118{fill:url(#SVGID_00000011031286627716404190000017112312671330524291_);}
	.st119{fill:url(#SVGID_00000078006962747196496860000007868273722017372823_);}
	.st120{fill:url(#SVGID_00000119097851444504346630000003814713067906251671_);}
	.st121{fill:url(#SVGID_00000127024455300661865820000012919509566250036376_);}
	.st122{fill:url(#SVGID_00000150067247401991899640000009166195820640269744_);}
	.st123{fill:url(#SVGID_00000153685817288116764540000006775381193716461756_);}
	.st124{fill:url(#SVGID_00000135687182620741367060000005243079997647407243_);}
	.st125{fill:url(#SVGID_00000111180639360193848820000010128999385593659280_);}
	.st126{fill:url(#SVGID_00000078023946788187235040000011718321178837534903_);}
	.st127{fill:url(#SVGID_00000052077846138829740570000006659341377899639710_);}
	.st128{fill:url(#SVGID_00000094592041985967195840000016533215470665398712_);}
	.st129{fill:url(#SVGID_00000073691915157419135550000014424796289969403549_);}
	.st130{fill:url(#SVGID_00000112622571489468811420000002973865356592554403_);}
	.st131{fill:url(#SVGID_00000173883394514639905840000002172649274494470807_);}
	.st132{fill:url(#SVGID_00000061473537069558195650000011970512984308559014_);}
	.st133{fill:url(#SVGID_00000092448700441293402690000012778761801474357684_);}
	.st134{fill:url(#SVGID_00000081646586505843460310000017879298878665927576_);}
	.st135{fill:url(#SVGID_00000065754579122447344460000004687626441418747283_);}
	.st136{fill:url(#SVGID_00000006688307434568243390000007540770440178647453_);}
	.st137{fill:url(#SVGID_00000111896637578618267430000000758739964715103631_);}
	.st138{fill:url(#SVGID_00000005234384810291086820000008328653799361652155_);}
	.st139{fill:url(#SVGID_00000000906598250074694580000017219289292289795970_);}
	.st140{fill:url(#SVGID_00000134210520466503765680000017396917765575592341_);}
	.st141{fill:url(#SVGID_00000152239400040027292740000009858963446344677276_);}
	.st142{fill:url(#SVGID_00000090986893886413435720000015954781861758750374_);}
	.st143{fill:url(#SVGID_00000033364411327458136230000005734190235428189325_);}
	.st144{fill:url(#SVGID_00000133519981706973847490000014329751853255568532_);}
	.st145{fill:url(#SVGID_00000018934304109013196890000004371173783300953242_);}
	.st146{fill:url(#SVGID_00000110447876676396996030000001928925758515438771_);}
	.st147{fill:url(#SVGID_00000148648834096237833270000012258829437857094047_);}
	.st148{fill:url(#SVGID_00000144309656162987084310000007662535808769374907_);}
	.st149{fill:url(#SVGID_00000041977337528020779480000008507244344717425595_);}
	.st150{fill:url(#SVGID_00000006682471343480482660000012009110869440897209_);}
	.st151{fill:url(#SVGID_00000137090785264214768060000001731742193431790769_);}
	.st152{fill:url(#SVGID_00000084527338885600127900000011908888632518785212_);}
	.st153{fill:url(#SVGID_00000075857639720960814560000000338352876745516691_);}
	.st154{fill:url(#SVGID_00000070102922357122262160000016726790504803192707_);}
	.st155{fill:url(#SVGID_00000026159992572689000720000004028785769004602549_);}
	.st156{fill:url(#SVGID_00000046333401026625662340000012379121121217076625_);}
	.st157{fill:url(#SVGID_00000150064761875485232280000003832595708742244014_);}
	.st158{fill:url(#SVGID_00000003099657189509292780000003399652573446504622_);}
	.st159{fill:url(#SVGID_00000059296219512024447010000013405958363063544971_);}
	.st160{fill:url(#SVGID_00000170265882509537580080000001298119747158145928_);}
	.st161{fill:url(#SVGID_00000070812457940062399400000001456192633310028701_);}
	.st162{fill:url(#SVGID_00000005969528702027932460000006877831707956944794_);}
	.st163{fill:none;stroke:#090E38;stroke-width:2;stroke-miterlimit:10;}
	.st164{fill:#803CFF;}
	.st165{fill:none;stroke:#803CFF;stroke-miterlimit:10;}
	.st166{fill:#848698;}
	.st167{fill:url(#SVGID_00000086670479301211463550000003034384395467006648_);}
	.st168{fill:url(#SVGID_00000006672702380681799500000006335408130760293523_);}
	.st169{fill:url(#SVGID_00000056404582622363292950000008592666768213951877_);}
	.st170{fill:url(#SVGID_00000069357000320262439470000007692799781309915298_);}
	.st171{fill:url(#SVGID_00000014618986167073757940000009305372138555443605_);}
	.st172{fill:url(#SVGID_00000055708028210989207420000014860522235447355783_);}
	.st173{fill:url(#SVGID_00000044174693524112354710000006126789257951324801_);}
	.st174{fill:url(#SVGID_00000096743064638061244010000001513867911455735730_);}
	.st175{fill:#22274C;}
	.st176{fill:url(#SVGID_00000074402756049950646640000009063481261842251177_);}
	.st177{fill:url(#SVGID_00000101079994055176744930000015405139856668717705_);}
	.st178{fill:url(#SVGID_00000121271289369046200490000008892497729523338641_);}
	.st179{fill:url(#SVGID_00000033327481357969933160000000540683931481559731_);}
	.st180{fill:url(#SVGID_00000158717301578869142510000011018728137381262227_);}
	.st181{fill:url(#SVGID_00000032648605951390444910000005827385847968449186_);}
	.st182{fill:url(#SVGID_00000023264422245094072400000009992637558268467373_);}
	.st183{fill:url(#SVGID_00000047748872373442625470000007932588560296053164_);}
	.st184{fill:url(#SVGID_00000018936371123707166180000011401637209008145829_);}
	.st185{fill:url(#SVGID_00000069389358735103538450000017126968950771164563_);}
	.st186{fill:url(#SVGID_00000088127882362755977780000017755871704354099599_);}
	.st187{fill:url(#SVGID_00000040546320773731452120000002708699958951541693_);}
	.st188{fill:url(#SVGID_00000052073029017075183640000012247544238279768502_);}
	.st189{fill:url(#SVGID_00000151537547833574720830000014748086519839109292_);}
	.st190{fill:url(#SVGID_00000081637139954580984480000013241876638584978820_);}
	.st191{fill:url(#SVGID_00000034080334033963919810000009556060821199562884_);}
	.st192{fill:url(#SVGID_00000075842556491431496660000008580166788988665528_);}
	.st193{fill:url(#SVGID_00000096040058722709357260000005532639759532435615_);}
	.st194{fill:url(#SVGID_00000057145037243986434910000009442900976017166227_);}
	.st195{fill:url(#SVGID_00000038403906681940777370000005662646609885640837_);}
	.st196{fill:url(#SVGID_00000143615520031938023230000011758424259625956790_);}
	.st197{fill:url(#SVGID_00000080188967226462722150000012526344482014874521_);}
	.st198{fill:url(#SVGID_00000166647248590938413880000007503667466611437998_);}
	.st199{fill:url(#SVGID_00000057830425604556338400000018069357501887225729_);}
	.st200{fill:url(#SVGID_00000079454735323388372210000012981010780305694088_);}
	.st201{fill:url(#SVGID_00000096034611060865891670000012044390770002657982_);}
	.st202{fill:url(#SVGID_00000122687747730421802640000006310647211436305579_);}
	.st203{fill:url(#SVGID_00000016779020738124616650000015183288410140805281_);}
	.st204{fill:url(#SVGID_00000018201189110064683630000017600853181120068747_);}
	.st205{fill:url(#SVGID_00000082370516339219282810000011742781956983508885_);}
	.st206{fill:url(#SVGID_00000007395119540488634440000007331941980251808903_);}
	.st207{fill:url(#SVGID_00000054983618236472353180000009060981590365228456_);}
	.st208{fill:url(#SVGID_00000052084717741763354430000001197029388400722852_);}
	.st209{fill:url(#SVGID_00000000911714631873533020000012718906955212802953_);}
	.st210{fill:url(#SVGID_00000160186818837095182100000014213111912046315658_);}
	.st211{fill:url(#SVGID_00000147920410911838374610000016068451152905007027_);}
	.st212{fill:none;stroke:#FFFFFF;stroke-linecap:round;stroke-miterlimit:10;}
	.st213{fill:url(#SVGID_00000046330553035710757170000007455514647581588609_);}
	.st214{fill:url(#SVGID_00000023264972853568170660000006502638524805590182_);}
	.st215{fill:url(#SVGID_00000116951013658303919080000011283356119932061585_);}
	.st216{fill:url(#SVGID_00000054232657499363780890000015416612926051416999_);}
	.st217{fill:url(#SVGID_00000078739803531339971410000004365328792884880314_);}
	.st218{fill:url(#SVGID_00000099644919253593728500000013116748790706867597_);}
	.st219{fill:url(#SVGID_00000179628857666921626310000002741627948397716652_);}
	.st220{fill:url(#SVGID_00000052092213569759619070000015496018277693071790_);}
	.st221{fill:url(#SVGID_00000092453329525990970570000002071244193871293370_);}
	.st222{fill:url(#SVGID_00000123405919823266065640000015502633581078490045_);}
	.st223{fill:url(#SVGID_00000096753499142988625180000014687455914996732814_);}
	.st224{fill:url(#SVGID_00000085964831290695040410000016162095438390371753_);}
	.st225{fill:url(#SVGID_00000127002337930921357290000017288254677806884764_);}
	.st226{fill:url(#SVGID_00000119828127567345784210000006083752821040804228_);}
	.st227{fill:url(#SVGID_00000073701627934842320600000004500570326651095965_);}
	.st228{fill:url(#SVGID_00000000901253117131662270000017013376289967261569_);}
	.st229{fill:url(#SVGID_00000026861886386748617570000001605939761903022754_);}
	.st230{fill:url(#SVGID_00000096764044772652785680000002052141299531935648_);}
	.st231{fill:url(#SVGID_00000106853561088183755190000010118900016412524703_);}
	.st232{fill:url(#SVGID_00000147220795678916823230000016731410658954744208_);}
	.st233{fill:url(#SVGID_00000100360524170604783760000000724104953080963467_);}
	.st234{fill:none;stroke:#22274C;stroke-width:0.5;stroke-miterlimit:10;}
	.st235{fill:url(#SVGID_00000041987858174335001480000003259837174523157156_);}
	.st236{fill:none;stroke:#22274C;stroke-miterlimit:10;}
	.st237{fill:url(#SVGID_00000160879484903059524500000001575244166483800755_);}
	.st238{fill:url(#SVGID_00000016066766569546040920000011875534267750273960_);}
	.st239{fill:url(#SVGID_00000119807688121536445710000002273156655011035565_);}
	.st240{fill:url(#SVGID_00000000182298916907425360000006170471961155432124_);}
	.st241{fill:url(#SVGID_00000090255160031149310560000009508011638153410987_);}
	.st242{fill:url(#SVGID_00000165956555629728154420000000262907563097524651_);}
	.st243{fill:url(#SVGID_00000130605974198424253850000016181240419041775782_);}
	.st244{fill:url(#SVGID_00000060710697847475848700000003726655442565520003_);}
	.st245{fill:url(#SVGID_00000050638491753772576720000014228596783910560897_);}
	.st246{fill:url(#SVGID_00000093136703457781578600000002875412458552499645_);}
	.st247{fill:url(#SVGID_00000089555174205662390870000002615400415765081233_);}
	.st248{fill:url(#SVGID_00000097459106572786938330000005869447180506429859_);}
	.st249{fill:none;stroke:#E11E5E;stroke-miterlimit:10;}
	.st250{fill:url(#SVGID_00000007419344816850731030000003560265241981805745_);}
	.st251{fill:url(#SVGID_00000002368752872640646780000012328973797949246883_);}
	.st252{fill:url(#SVGID_00000038398101840263148550000011872945430827070871_);}
	.st253{fill:url(#SVGID_00000178176366232466796200000001609098148591881102_);}
	.st254{fill:url(#SVGID_00000005233353664916664320000004366678319986357404_);}
	.st255{fill:url(#SVGID_00000057123174200749539550000000021618701581153469_);}
	.st256{fill:url(#SVGID_00000010302987633738037200000002310414475989737657_);}
	.st257{fill:url(#SVGID_00000059271457416151634300000010631946062237584770_);}
	.st258{fill:url(#SVGID_00000057124399919519432050000014699953813442324649_);}
	.st259{fill:url(#SVGID_00000121279753998854875540000010614602237654164126_);}
	.st260{fill:url(#SVGID_00000139287333575103096080000012971507511905356732_);}
	.st261{fill:url(#SVGID_00000157267019078527667110000014937261022706321066_);}
	.st262{fill:url(#SVGID_00000057115850453768226780000008554339121789668743_);}
	.st263{fill:url(#SVGID_00000072988035410934560880000013035445101095645887_);}
	.st264{fill:url(#SVGID_00000139253405922990187330000016120975018976966566_);}
	.st265{fill:url(#SVGID_00000104681646956916964870000017427420543281381301_);}
	.st266{fill:url(#SVGID_00000182523697679334690820000006980310426128906156_);}
	.st267{fill:url(#SVGID_00000096024860275171579520000012705364853231570069_);}
	.st268{fill:url(#SVGID_00000035507168259651471190000000258013551634054574_);}
	.st269{fill:url(#SVGID_00000067940604173073573440000001684589049816436880_);}
	.st270{fill:url(#SVGID_00000146485457138387911850000016431235499720380576_);}
	.st271{fill:url(#SVGID_00000154392831911790639140000014545949734006393221_);}
	.st272{fill:url(#SVGID_00000080180035114274019310000001568396719014710409_);}
	.st273{fill:none;stroke:#FFFFFF;stroke-width:0.75;stroke-miterlimit:10;}
	.st274{fill:none;stroke:#FFFFFF;stroke-width:0.75;stroke-linecap:round;stroke-miterlimit:10;}
	.st275{fill-rule:evenodd;clip-rule:evenodd;fill:none;stroke:#FFFFFF;stroke-width:0.5;stroke-miterlimit:10;}
	
		.st276{fill-rule:evenodd;clip-rule:evenodd;fill:none;stroke:#FFFFFF;stroke-width:0.5;stroke-linecap:round;stroke-miterlimit:10;}
	.st277{fill:url(#SVGID_00000129196996446205029280000016606049579233539231_);}
	.st278{fill:url(#SVGID_00000132806803718155317370000012598878666222618534_);}
	.st279{fill:url(#SVGID_00000013913191079481131580000002149643499628373662_);}
	.st280{fill:url(#SVGID_00000104684605996337546800000009278151688302293911_);}
	.st281{fill:url(#SVGID_00000127036653836965374220000008980129149281256367_);}
	.st282{fill:url(#SVGID_00000098207953549723886360000016923121049729271176_);}
	.st283{fill:url(#SVGID_00000038403508224059432220000012920320145140876962_);}
	.st284{fill:url(#SVGID_00000150791751555904020520000008984080508920297386_);}
	.st285{fill:url(#SVGID_00000101098264186717975310000008300994559318428546_);}
	.st286{fill:url(#SVGID_00000173875617682433931490000010512715087146247073_);}
	.st287{fill:url(#SVGID_00000031908797968674447720000001224629077940747656_);}
	.st288{fill:url(#SVGID_00000168079194244798727550000009903572237501635494_);}
	.st289{fill:url(#SVGID_00000017512257256918499170000017312817325559869602_);}
	.st290{fill:url(#SVGID_00000029748396543884754310000017926004689455325578_);}
	.st291{fill:url(#SVGID_00000067196961980944450650000008780584362735931802_);}
	.st292{fill:url(#SVGID_00000148630424523731181530000016300002260466525857_);}
	.st293{fill:url(#SVGID_00000080180777898803063090000004782665194750445750_);}
	.st294{fill:url(#SVGID_00000119088088086483360450000009773429514666441916_);}
	.st295{fill:url(#SVGID_00000031904232225382628410000014956290899908103333_);}
	.st296{fill:url(#SVGID_00000014608284826108736040000002164384829870235546_);}
	.st297{fill:url(#SVGID_00000052817889946358452370000013550129998168348563_);}
	.st298{fill:url(#SVGID_00000061445884408659899830000006646414141168123319_);}
	.st299{fill:url(#SVGID_00000049180289203070563840000012497922958477060518_);}
	.st300{fill:url(#SVGID_00000086660286464290910720000005511440838615575685_);}
	.st301{fill:url(#SVGID_00000150098499478180708610000017520894593869228458_);}
	.st302{clip-path:url(#SVGID_00000155841720086239423850000007156711281128631431_);fill:#22264C;}
	.st303{clip-path:url(#SVGID_00000076598059541059631250000004668685612006047158_);fill:#FFFFFF;}
	.st304{clip-path:url(#SVGID_00000114761639644125579780000001484656148950140083_);fill:#FFFFFF;}
	.st305{clip-path:url(#SVGID_00000036251097783917163070000016867443217460942266_);fill:#FFFFFF;}
	.st306{clip-path:url(#SVGID_00000011028241096786549390000014136554912864967868_);fill:#FFFFFF;}
	.st307{clip-path:url(#SVGID_00000058581117514119032280000005529755687504934840_);fill:#FFFFFF;}
	.st308{clip-path:url(#SVGID_00000041295013046676201370000006468434297811396789_);fill:#FFFFFF;}
	.st309{clip-path:url(#SVGID_00000121974649675491334450000001212964441626436528_);fill:#FFFFFF;}
	.st310{clip-path:url(#SVGID_00000110465036794122453500000005509647773716648870_);fill:#FFFFFF;}
	.st311{clip-path:url(#SVGID_00000060006678428384356230000002897195493088259999_);fill:#FFFFFF;}
	.st312{clip-path:url(#SVGID_00000128465650419420999670000005850018832269081514_);fill:#FFFFFF;}
	.st313{clip-path:url(#SVGID_00000035497845543205550190000008381088510897234354_);fill:#FFFFFF;}
	.st314{fill:url(#SVGID_00000180325733738344061480000009557526769598232220_);}
	.st315{fill:url(#SVGID_00000084516709865797782960000015319598987743943815_);}
	.st316{fill:url(#SVGID_00000029766078879739420520000001990548128071528360_);}
	.st317{fill:url(#SVGID_00000075844677945406442850000001780570531220704145_);}
	.st318{fill:url(#SVGID_00000119078850492141465720000014835432991538758582_);}
	.st319{fill:url(#SVGID_00000152229502175568243610000018285918064311864718_);}
	.st320{fill:url(#SVGID_00000168074636209766076100000003925017870696530106_);}
	.st321{fill:url(#SVGID_00000083077735663540916700000001330105839571005882_);}
	.st322{fill:url(#SVGID_00000183968914370066774190000015383517385528155821_);}
	.st323{fill:url(#SVGID_00000111164514268767295310000014122960278792160905_);}
	.st324{fill:url(#SVGID_00000161614150473105825800000018286723127523306628_);}
	.st325{fill:url(#SVGID_00000031912050436384170740000016591017131331122822_);}
	.st326{fill:url(#SVGID_00000014625982507998721440000007470257512063855269_);}
	.st327{fill:url(#SVGID_00000053513521933791536130000014684150612828573853_);}
	.st328{fill:url(#SVGID_00000048489436694066246140000006405837952638732937_);}
	.st329{fill:url(#SVGID_00000147177682581881113460000010526112146103469996_);}
	.st330{fill:url(#SVGID_00000132790230921075239520000017466532817005921155_);}
	.st331{fill:url(#SVGID_00000072981697857589248000000006046722196900508042_);}
	.st332{fill:url(#SVGID_00000098914720533696510180000005020719580349577366_);}
	.st333{fill:url(#SVGID_00000008114875328114019610000010348690635118629804_);}
	.st334{fill:url(#SVGID_00000075133198110900792450000001741610826350423442_);}
	.st335{fill:url(#SVGID_00000037664986717708435470000018300848839447651505_);}
	.st336{fill:url(#SVGID_00000116196274617176454560000011532996431669438870_);}
	.st337{fill:url(#SVGID_00000084493086684007478380000008917767304813163908_);}
	.st338{fill:url(#SVGID_00000043451082956024533050000016301191460465136262_);}
	.st339{fill:url(#SVGID_00000103253658694369241280000000778882100784732584_);}
	.st340{fill:url(#SVGID_00000128471019483526327900000012662567959932654218_);}
	.st341{fill:url(#SVGID_00000013166363725044562670000012576337052140621194_);}
	.st342{fill:url(#SVGID_00000141427820670660257460000004037224234901161095_);}
	.st343{fill:url(#SVGID_00000011725254095697898820000015751089334742230657_);}
	.st344{fill:url(#SVGID_00000155127838266425587450000014526258810869525898_);}
	.st345{fill:url(#SVGID_00000181771596143517490280000018128077349612011659_);}
	.st346{fill:url(#SVGID_00000157271244628982187000000016230001456137698238_);}
	.st347{fill:url(#SVGID_00000160906759417747494180000008880076489428798082_);}
	.st348{fill:url(#SVGID_00000102517936835127347490000009087927249820597643_);}
	.st349{fill:url(#SVGID_00000096741528072382898440000014576678822082071195_);}
	.st350{fill:url(#SVGID_00000023258617439892497110000012597153376927611318_);}
	.st351{fill:url(#SVGID_00000004528319871388715540000005454492785169291425_);}
	.st352{fill:url(#SVGID_00000096031111618657817340000007153189987079418248_);}
	.st353{fill:url(#SVGID_00000165947038239261812230000017556614573908983704_);}
	.st354{fill:#8A8989;}
	.st355{fill:#616160;}
	.st356{fill-rule:evenodd;clip-rule:evenodd;fill:#FFFFFF;}
	.st357{fill-rule:evenodd;clip-rule:evenodd;fill:#8A8989;}
	.st358{fill-rule:evenodd;clip-rule:evenodd;fill:#797879;}
	.st359{clip-path:url(#XMLID_00000037654089296135051840000015845075608944588967_);}
	.st360{opacity:0.2;fill:#E1E3E7;}
	.st361{fill-rule:evenodd;clip-rule:evenodd;fill:#616160;}
	.st362{fill:#E1E3E7;}
	.st363{fill:#FFFFFF;stroke:#FFFFFF;stroke-width:4;stroke-miterlimit:10;}
	.st364{fill:#58595B;}
	.st365{fill:#80A926;}
	.st366{clip-path:url(#SVGID_00000109744068305428807990000004076928602635655813_);}
	.st367{clip-path:url(#SVGID_00000160891711576293213250000005436743204388440972_);}
	.st368{clip-path:url(#SVGID_00000074434034084075933970000012302955864552321424_);}
	.st369{clip-path:url(#SVGID_00000163772324731263295650000006957470422109504175_);}
	.st370{clip-path:url(#SVGID_00000128454743935075586140000003352841462322873265_);}
	.st371{clip-path:url(#SVGID_00000121971368211171716980000003193885103396290966_);}
	.st372{clip-path:url(#SVGID_00000132048696473870242030000018410521835612972214_);}
	.st373{clip-path:url(#SVGID_00000135655422088817354770000003937891221773385900_);}
	.st374{clip-path:url(#SVGID_00000183942730921070089360000003828832233952962236_);}
	.st375{clip-path:url(#SVGID_00000016045936760789044590000011621756681426549381_);}
	.st376{fill:#1D1E1C;}
	.st377{opacity:0.36;}
	.st378{opacity:0.57;}
	.st379{fill:none;}
	.st380{fill:#01CEA6;}
	.st381{fill:#01261F;}
	.st382{fill:#E68000;}
	.st383{fill:#261400;}
	.st384{fill:#E63D80;}
	.st385{fill:#2D0013;}
	.st386{fill:#3695BB;}
	.st387{fill:#032732;}
	.st388{fill:#CDE4EC;}
	.st389{fill:#DA80E7;}
	.st390{fill:#B072BD;}
	.st391{fill:#855994;}
	.st392{fill:#180024;}
	.st393{fill:#DD80EA;}
	.st394{fill:#BB80E7;}
	.st395{fill:#9B77C0;}
	.st396{fill:#C080ED;}
	.st397{fill:#1F0140;}
	.st398{fill:#80619A;}
	.st399{fill:url(#SVGID_00000047783180159330081740000010506710994098236551_);}
	.st400{fill:url(#SVGID_00000093883569355899898140000014333021564534175661_);}
	.st401{fill:url(#SVGID_00000015323848610696971260000001027478358583023501_);}
	.st402{fill:url(#SVGID_00000099642061155527805340000016194183063826562466_);}
	.st403{fill:url(#SVGID_00000034084239435660768630000012870771844530786210_);}
	.st404{fill:url(#SVGID_00000005260082097603405370000005743078867335455380_);}
	.st405{fill:url(#SVGID_00000135663945452520932050000014339362011052322189_);}
	.st406{fill:url(#SVGID_00000078043305002835695260000005843047236802568102_);}
	.st407{fill:url(#SVGID_00000172427846137316432520000014250159405413097622_);}
	.st408{fill:url(#SVGID_00000115498761613636763470000003534478121585258926_);}
	.st409{fill:url(#SVGID_00000075870181252435698860000001472828639374875327_);}
	.st410{fill:url(#SVGID_00000046297783156530308260000000279057952584046765_);}
	.st411{fill:none;stroke:#464A69;stroke-miterlimit:10;}
	.st412{fill:url(#SVGID_00000099621103878249791010000010773933555292637603_);}
	.st413{fill:url(#SVGID_00000126312519351307761710000011236996324756021379_);}
	.st414{fill:url(#SVGID_00000074404978266027641350000009229645001834619314_);}
	.st415{fill:url(#SVGID_00000065792775282872081930000002552960992651209605_);}
	.st416{fill:url(#SVGID_00000008127079640873516210000004097304389443796388_);}
	.st417{fill:url(#SVGID_00000179623670782207505750000009145663295475810711_);}
	.st418{fill:url(#SVGID_00000030458453958836593000000017404233781178915722_);}
	.st419{fill:url(#SVGID_00000036931615708521186650000006685806712422721709_);}
	.st420{fill:url(#SVGID_00000059310475447005265630000017213733472220406963_);}
	.st421{fill:url(#SVGID_00000078757444119901724630000007494494260404204933_);}
	.st422{fill:url(#SVGID_00000181786491532441902210000014305040460963924868_);}
	.st423{fill:url(#SVGID_00000163065438853371427300000007054122244797589919_);}
	.st424{fill:url(#SVGID_00000003080515840435386470000006088084604966254756_);}
	.st425{fill:url(#SVGID_00000141431381131282727550000001135433770819438474_);}
	.st426{fill:none;stroke:#22274C;stroke-width:0.75;stroke-miterlimit:10;}
	.st427{fill:none;stroke:#FFFFFF;stroke-width:2;stroke-miterlimit:10;}
	.st428{fill:url(#SVGID_00000088832050153111478400000017717688131638972554_);}
	.st429{fill:url(#SVGID_00000005952152742657569720000012354037881171885998_);}
	.st430{fill:url(#SVGID_00000027606096231844352760000018339068638176514944_);}
	.st431{fill:url(#SVGID_00000157303643948939607690000002547083034529194937_);}
	.st432{fill:url(#SVGID_00000157305932074760391380000018186035114534301312_);}
	.st433{fill:url(#SVGID_00000137124155321903128950000002504859408553847740_);}
	.st434{fill:url(#SVGID_00000039840089950787118130000008345878151990282428_);}
	.st435{fill:url(#SVGID_00000183932923900858519790000004874516518707425437_);}
	.st436{fill:url(#SVGID_00000000186453558969728670000016541418246294460321_);}
	.st437{fill:url(#SVGID_00000045601395879722316970000005326942055513896584_);}
	.st438{fill:url(#SVGID_00000132773116756363687530000001652005092795977389_);}
	.st439{fill:url(#SVGID_00000181768263599524511880000008066745514452698519_);}
	.st440{fill:url(#SVGID_00000029730505000346990730000001656134917243206038_);}
	.st441{fill:url(#SVGID_00000023986443202446360100000005621089512319619481_);}
	.st442{fill:url(#SVGID_00000088838015659812906270000003032876363943491746_);}
	.st443{fill:url(#SVGID_00000020376044525456156900000006886933514854434995_);}
	.st444{fill:url(#SVGID_00000048463028755134686440000009760505404035950230_);}
	.st445{fill:url(#SVGID_00000160186899306520315530000000098299896349004685_);}
	.st446{fill:url(#SVGID_00000081626568353467889740000016335100937576283833_);}
	.st447{fill:url(#SVGID_00000111909371504786093760000009642846434479341735_);}
	.st448{fill:url(#SVGID_00000039123240247274009500000006623508919581740199_);}
	.st449{fill:url(#SVGID_00000174569094538979824500000017600530507569534609_);}
	.st450{fill:url(#SVGID_00000128482523557978366640000011769273900292857511_);}
	.st451{fill:url(#SVGID_00000096058339152751751930000001144653599469065861_);}
	.st452{fill:url(#SVGID_00000075144635389346500200000008886142589246446486_);}
	.st453{fill:url(#SVGID_00000090292243532858682030000005600295874341813689_);}
	.st454{fill:url(#SVGID_00000081634008661397036910000007593046264836036771_);}
	.st455{fill:none;stroke:#8F8F8F;stroke-width:0.75;stroke-miterlimit:10;}
	.st456{fill:#8F8F8F;stroke:#8F8F8F;stroke-width:0.25;stroke-miterlimit:10;}
	.st457{fill:#8F8F8F;}
	.st458{fill:none;stroke:#8F8F8F;stroke-width:0.25;stroke-miterlimit:10;}
	.st459{fill:url(#SVGID_00000148646252823919158660000014094485500424551049_);}
	.st460{fill:url(#SVGID_00000157996692044730328020000016539761947968140417_);}
	.st461{fill:url(#SVGID_00000005256931143903075170000009270231754246772671_);}
	.st462{fill:url(#SVGID_00000067935613149407428650000014343348326872562601_);}
	.st463{fill:url(#SVGID_00000005248297328146166030000014807944774949725327_);}
	.st464{fill:url(#SVGID_00000106110974689041372250000004090031904298109372_);}
	.st465{fill:url(#SVGID_00000128487193163636196100000010796278000537326754_);}
	.st466{fill:url(#SVGID_00000005225271031152074880000013615072786618685877_);}
	.st467{fill:url(#SVGID_00000179611382893221573820000008781076961455281847_);}
	.st468{fill:url(#SVGID_00000055708712761822516430000000972922966550435458_);}
</style>
<g>
	<path class="st5" d="M145.49,34.45h1.62c0.23,0,0.44,0.03,0.62,0.1c0.18,0.07,0.33,0.16,0.45,0.28c0.09,0.09,0.16,0.2,0.21,0.33
		c0.05,0.13,0.08,0.26,0.08,0.41v0.01c0,0.16-0.02,0.3-0.08,0.42c-0.05,0.12-0.12,0.23-0.21,0.32c-0.09,0.09-0.2,0.17-0.32,0.23
		c-0.13,0.06-0.26,0.1-0.41,0.13l1.16,1.54h-0.52l-1.09-1.46h-0.01h-1.06v1.46h-0.42V34.45z M147.08,36.37
		c0.14,0,0.27-0.02,0.39-0.05c0.12-0.04,0.22-0.09,0.31-0.15c0.09-0.07,0.15-0.15,0.2-0.24c0.05-0.09,0.07-0.2,0.07-0.32v-0.01
		c0-0.23-0.08-0.41-0.25-0.54c-0.17-0.13-0.41-0.2-0.71-0.2h-1.16v1.53H147.08z"/>
	<path class="st5" d="M142.38,38.27c-0.23,0-0.44-0.03-0.64-0.1c-0.19-0.07-0.36-0.17-0.49-0.31c-0.14-0.14-0.24-0.31-0.32-0.51
		c-0.08-0.2-0.11-0.44-0.11-0.7v-2.19h0.42v2.16c0,0.41,0.1,0.72,0.3,0.94c0.2,0.22,0.48,0.33,0.85,0.33c0.35,0,0.62-0.1,0.83-0.31
		c0.2-0.21,0.31-0.52,0.31-0.93v-2.19h0.42v2.15c0,0.28-0.04,0.52-0.11,0.73c-0.08,0.21-0.18,0.38-0.32,0.52
		c-0.14,0.14-0.3,0.24-0.49,0.31C142.83,38.23,142.62,38.27,142.38,38.27"/>
	<path class="st5" d="M138.2,38.26c-0.3,0-0.58-0.05-0.82-0.15c-0.25-0.1-0.49-0.25-0.71-0.45l0.26-0.31c0.2,0.18,0.4,0.31,0.6,0.4
		c0.2,0.09,0.43,0.13,0.69,0.13c0.25,0,0.46-0.06,0.61-0.18c0.15-0.12,0.23-0.27,0.23-0.46v-0.01c0-0.09-0.01-0.16-0.04-0.23
		c-0.03-0.07-0.08-0.13-0.15-0.19c-0.07-0.06-0.17-0.11-0.3-0.16c-0.13-0.05-0.29-0.09-0.49-0.13c-0.22-0.05-0.4-0.1-0.56-0.16
		c-0.16-0.06-0.29-0.13-0.4-0.22c-0.1-0.09-0.18-0.19-0.23-0.3c-0.05-0.11-0.08-0.25-0.08-0.4v-0.01c0-0.15,0.03-0.28,0.09-0.41
		c0.06-0.13,0.15-0.23,0.26-0.32c0.11-0.09,0.24-0.16,0.39-0.21c0.15-0.05,0.32-0.08,0.49-0.08c0.28,0,0.52,0.04,0.72,0.12
		c0.21,0.08,0.41,0.19,0.6,0.35l-0.25,0.33c-0.18-0.14-0.35-0.25-0.53-0.31c-0.18-0.06-0.36-0.1-0.56-0.1
		c-0.25,0-0.44,0.06-0.59,0.17c-0.14,0.12-0.21,0.26-0.21,0.43v0.01c0,0.09,0.01,0.17,0.04,0.24c0.03,0.07,0.08,0.13,0.16,0.19
		c0.08,0.06,0.18,0.11,0.31,0.16c0.13,0.05,0.3,0.09,0.51,0.14c0.42,0.09,0.73,0.22,0.93,0.39c0.2,0.16,0.3,0.39,0.3,0.68v0.01
		c0,0.16-0.03,0.31-0.1,0.44c-0.06,0.13-0.15,0.24-0.26,0.34c-0.11,0.09-0.25,0.17-0.4,0.22C138.56,38.24,138.39,38.26,138.2,38.26"
		/>
	<polygon class="st5" points="130.9,34.45 131.32,34.45 131.32,37.82 133.44,37.82 133.44,38.21 130.9,38.21 	"/>
	<polygon class="st5" points="126.76,34.45 129.48,34.45 129.48,34.83 127.18,34.83 127.18,36.13 129.23,36.13 129.23,36.51 
		127.18,36.51 127.18,37.83 129.5,37.83 129.5,38.21 126.76,38.21 	"/>
	<path class="st5" d="M122.02,34.45h1.3c0.29,0,0.56,0.05,0.81,0.14c0.25,0.09,0.46,0.23,0.63,0.39c0.18,0.17,0.31,0.37,0.41,0.59
		c0.1,0.23,0.14,0.47,0.14,0.74v0.01c0,0.26-0.05,0.51-0.14,0.74c-0.1,0.23-0.23,0.43-0.41,0.6c-0.18,0.17-0.39,0.3-0.63,0.4
		c-0.24,0.1-0.51,0.15-0.81,0.15h-1.3V34.45z M123.33,37.82c0.24,0,0.45-0.04,0.64-0.11c0.19-0.08,0.36-0.18,0.49-0.31
		c0.13-0.13,0.24-0.29,0.31-0.47c0.07-0.18,0.11-0.38,0.11-0.58v-0.01c0-0.21-0.04-0.4-0.11-0.58c-0.07-0.18-0.18-0.34-0.31-0.47
		c-0.13-0.13-0.3-0.24-0.49-0.32c-0.19-0.08-0.41-0.12-0.64-0.12h-0.88v2.98H123.33z"/>
	<path class="st5" d="M72.37,0.1h2.35c0.53,0,1.01,0.09,1.45,0.26c0.44,0.17,0.82,0.41,1.14,0.71c0.32,0.3,0.56,0.66,0.74,1.07
		c0.17,0.41,0.26,0.85,0.26,1.33v0.02c0,0.48-0.09,0.92-0.26,1.33c-0.17,0.41-0.42,0.77-0.74,1.07c-0.32,0.3-0.7,0.54-1.14,0.71
		c-0.44,0.17-0.93,0.26-1.45,0.26h-2.35V0.1z M74.72,6.15c0.42,0,0.81-0.07,1.16-0.2c0.35-0.14,0.64-0.32,0.88-0.56
		c0.24-0.24,0.43-0.52,0.56-0.84c0.13-0.32,0.2-0.67,0.2-1.05V3.47c0-0.37-0.07-0.72-0.2-1.05C77.19,2.1,77,1.82,76.76,1.58
		c-0.24-0.24-0.54-0.43-0.88-0.57c-0.35-0.14-0.73-0.21-1.16-0.21h-1.58v5.35H74.72z"/>
	<path class="st5" d="M66.28,0.05h0.71l3.08,6.81h-0.82l-0.79-1.79h-3.68l-0.8,1.79H63.2L66.28,0.05z M68.16,4.38l-1.53-3.45
		l-1.54,3.45H68.16z"/>
	<path class="st5" d="M55.26,0.1h2.35c0.53,0,1.01,0.09,1.45,0.26c0.44,0.17,0.82,0.41,1.14,0.71c0.32,0.3,0.56,0.66,0.74,1.07
		c0.17,0.41,0.26,0.85,0.26,1.33v0.02c0,0.48-0.09,0.92-0.26,1.33c-0.17,0.41-0.42,0.77-0.74,1.07c-0.32,0.3-0.7,0.54-1.14,0.71
		c-0.44,0.17-0.93,0.26-1.45,0.26h-2.35V0.1z M57.61,6.15c0.42,0,0.81-0.07,1.16-0.2c0.35-0.14,0.64-0.32,0.88-0.56
		c0.24-0.24,0.43-0.52,0.56-0.84c0.13-0.32,0.2-0.67,0.2-1.05V3.47c0-0.37-0.07-0.72-0.2-1.05c-0.13-0.32-0.32-0.61-0.56-0.85
		c-0.24-0.24-0.54-0.43-0.88-0.57c-0.35-0.14-0.73-0.21-1.16-0.21h-1.58v5.35H57.61z"/>
	<rect x="51.56" y="0.1" class="st5" width="0.76" height="6.76"/>
	<path class="st5" d="M46.67,6.95c-0.54,0-1.03-0.09-1.48-0.27c-0.45-0.18-0.87-0.45-1.28-0.82l0.47-0.56
		c0.35,0.32,0.71,0.56,1.07,0.72c0.36,0.16,0.78,0.24,1.25,0.24c0.46,0,0.82-0.11,1.1-0.32c0.27-0.22,0.41-0.49,0.41-0.83V5.1
		c0-0.16-0.03-0.3-0.08-0.42c-0.05-0.13-0.14-0.24-0.27-0.34c-0.13-0.1-0.31-0.2-0.54-0.28c-0.23-0.08-0.52-0.16-0.88-0.24
		c-0.39-0.08-0.72-0.18-1.01-0.29c-0.29-0.11-0.52-0.24-0.71-0.4c-0.19-0.15-0.33-0.33-0.42-0.54c-0.09-0.21-0.14-0.45-0.14-0.72
		V1.84c0-0.26,0.05-0.51,0.16-0.73c0.11-0.23,0.26-0.42,0.46-0.58c0.2-0.16,0.43-0.29,0.71-0.39C45.78,0.05,46.07,0,46.39,0
		c0.5,0,0.93,0.07,1.3,0.21c0.37,0.14,0.73,0.35,1.08,0.62l-0.44,0.59c-0.32-0.26-0.63-0.44-0.95-0.56c-0.32-0.12-0.65-0.17-1-0.17
		c-0.44,0-0.79,0.1-1.05,0.31c-0.26,0.21-0.39,0.47-0.39,0.78V1.8c0,0.16,0.03,0.3,0.08,0.43c0.05,0.13,0.14,0.24,0.28,0.35
		c0.14,0.11,0.32,0.2,0.56,0.29c0.24,0.09,0.54,0.17,0.92,0.25c0.75,0.17,1.31,0.4,1.67,0.69c0.36,0.3,0.54,0.7,0.54,1.22v0.02
		c0,0.29-0.06,0.55-0.17,0.79c-0.11,0.24-0.27,0.44-0.47,0.6c-0.2,0.17-0.44,0.3-0.73,0.39C47.32,6.91,47.01,6.95,46.67,6.95"/>
	<path class="st5" d="M36.4,0.1h2.91c0.42,0,0.79,0.06,1.11,0.18c0.32,0.12,0.59,0.28,0.81,0.5c0.17,0.17,0.3,0.36,0.39,0.59
		c0.09,0.23,0.14,0.47,0.14,0.74v0.02c0,0.28-0.05,0.54-0.14,0.76C41.52,3.1,41.4,3.3,41.23,3.46c-0.16,0.16-0.36,0.3-0.58,0.41
		c-0.23,0.11-0.47,0.18-0.73,0.23l2.08,2.76h-0.94L39.1,4.23h-0.02h-1.91v2.63H36.4V0.1z M39.25,3.54c0.25,0,0.48-0.03,0.7-0.1
		c0.21-0.06,0.4-0.16,0.55-0.28c0.15-0.12,0.28-0.26,0.36-0.43c0.09-0.17,0.13-0.37,0.13-0.58V2.13c0-0.42-0.15-0.74-0.45-0.98
		c-0.3-0.23-0.73-0.35-1.28-0.35h-2.09v2.74H39.25z"/>
	<polygon class="st5" points="28.97,0.1 33.85,0.1 33.85,0.78 29.73,0.78 29.73,3.11 33.42,3.11 33.42,3.79 29.73,3.79 29.73,6.17 
		33.9,6.17 33.9,6.85 28.97,6.85 	"/>
	<polygon class="st5" points="20.18,0.1 21.03,0.1 23.44,5.92 25.85,0.1 26.67,0.1 23.77,6.9 23.09,6.9 	"/>
	<rect x="17.06" y="0.1" class="st5" width="0.76" height="6.76"/>
	<polygon class="st5" points="8.4,0.1 9.11,0.1 13.37,5.51 13.37,0.1 14.11,0.1 14.11,6.85 13.5,6.85 9.14,1.31 9.14,6.85 8.4,6.85 
			"/>
	<path class="st5" d="M2.81,6.96c-0.42,0-0.8-0.06-1.14-0.19C1.32,6.65,1.02,6.46,0.78,6.21C0.53,5.96,0.34,5.66,0.2,5.29
		C0.07,4.92,0,4.5,0,4.03V0.1h0.76v3.88c0,0.73,0.18,1.3,0.55,1.69c0.36,0.39,0.87,0.59,1.52,0.59c0.62,0,1.12-0.19,1.49-0.56
		c0.37-0.37,0.55-0.93,0.55-1.67V0.1h0.76v3.87c0,0.5-0.07,0.93-0.2,1.3C5.29,5.64,5.1,5.96,4.85,6.21C4.6,6.46,4.31,6.65,3.96,6.77
		C3.62,6.9,3.23,6.96,2.81,6.96"/>
	<polygon class="st5" points="148.09,29.95 144.43,29.95 142.8,26.68 146.44,26.68 	"/>
	<g>
		<defs>
			<polygon id="SVGID_00000106833216998068071400000006447869844379722398_" points="128.41,29.95 132.05,29.95 133.72,26.66 
				135.35,23.41 138.25,17.62 141.72,24.64 145.41,24.64 138.25,10.27 			"/>
		</defs>
		<use xlink:href="#SVGID_00000106833216998068071400000006447869844379722398_"  style="overflow:visible;fill:#FFFFFF;"/>
		<clipPath id="SVGID_00000031895758774018915000000010400111153377797544_">
			<use xlink:href="#SVGID_00000106833216998068071400000006447869844379722398_"  style="overflow:visible;"/>
		</clipPath>
		
			<rect x="128.41" y="10.27" style="clip-path:url(#SVGID_00000031895758774018915000000010400111153377797544_);fill:#FFFFFF;" width="17" height="19.69"/>
	</g>
	<g>
		<defs>
			<path id="SVGID_00000173148666247753233000000015027819152384459440_" d="M114.61,11.21c-1.65,0.93-2.92,2.15-3.81,3.67
				c-0.89,1.52-1.33,3.26-1.33,5.22c0,3.03,0.97,5.51,2.92,7.44c1.95,1.94,4.44,2.9,7.5,2.9c1.65,0,3.13-0.27,4.42-0.82
				c1.29-0.55,2.66-1.53,4.11-2.95l-2.53-2.64c-1.08,1.07-2.06,1.81-2.96,2.21c-0.9,0.41-1.89,0.61-2.97,0.61
				c-1.27,0-2.43-0.29-3.47-0.87c-1.04-0.58-1.85-1.38-2.41-2.39c-0.57-1.02-0.85-2.18-0.85-3.49c0-1.88,0.64-3.46,1.93-4.74
				c1.28-1.28,2.86-1.92,4.74-1.92c2.22,0,4.22,0.94,6,2.82l2.61-2.49c-1.09-1.26-2.38-2.24-3.88-2.92
				c-1.5-0.68-3.06-1.03-4.68-1.03C118.04,9.82,116.26,10.28,114.61,11.21"/>
		</defs>
		<use xlink:href="#SVGID_00000173148666247753233000000015027819152384459440_"  style="overflow:visible;fill:#FFFFFF;"/>
		<clipPath id="SVGID_00000035506141775458817480000016070824605901478787_">
			<use xlink:href="#SVGID_00000173148666247753233000000015027819152384459440_"  style="overflow:visible;"/>
		</clipPath>
		
			<rect x="109.48" y="9.82" style="clip-path:url(#SVGID_00000035506141775458817480000016070824605901478787_);fill:#FFFFFF;" width="19.03" height="20.63"/>
	</g>
	<g>
		<defs>
			<polygon id="SVGID_00000075882521381323054290000006192929014639825591_" points="103.52,10.31 103.52,29.95 107.24,29.95 
				107.24,29.95 107.24,10.31 			"/>
		</defs>
		<use xlink:href="#SVGID_00000075882521381323054290000006192929014639825591_"  style="overflow:visible;fill:#FFFFFF;"/>
		<clipPath id="SVGID_00000170998318541196291020000014180798117999830162_">
			<use xlink:href="#SVGID_00000075882521381323054290000006192929014639825591_"  style="overflow:visible;"/>
		</clipPath>
		
			<rect x="103.52" y="10.31" style="clip-path:url(#SVGID_00000170998318541196291020000014180798117999830162_);fill:#FFFFFF;" width="3.71" height="19.64"/>
	</g>
	<g>
		<defs>
			<polygon id="SVGID_00000105406680618931534810000004351462080050408121_" points="88.24,10.31 88.24,29.95 91.95,29.95 
				91.95,21.11 97.97,21.11 97.97,17.52 91.95,17.52 91.95,13.97 100.94,13.97 100.94,10.31 			"/>
		</defs>
		<use xlink:href="#SVGID_00000105406680618931534810000004351462080050408121_"  style="overflow:visible;fill:#FFFFFF;"/>
		<clipPath id="SVGID_00000096751847263003268360000012321136477283570342_">
			<use xlink:href="#SVGID_00000105406680618931534810000004351462080050408121_"  style="overflow:visible;"/>
		</clipPath>
		
			<rect x="88.24" y="10.31" style="clip-path:url(#SVGID_00000096751847263003268360000012321136477283570342_);fill:#FFFFFF;" width="12.7" height="19.64"/>
	</g>
	<g>
		<defs>
			<polygon id="SVGID_00000021107802879499589300000013029300698657619109_" points="85.11,10.31 81.4,10.31 81.4,12.79 81.4,12.79 
				85.12,10.31 85.12,10.31 			"/>
		</defs>
		<use xlink:href="#SVGID_00000021107802879499589300000013029300698657619109_"  style="overflow:visible;fill:#FFFFFF;"/>
		<clipPath id="SVGID_00000093889343706947660280000006237155375083882170_">
			<use xlink:href="#SVGID_00000021107802879499589300000013029300698657619109_"  style="overflow:visible;"/>
		</clipPath>
		
			<rect x="81.4" y="10.31" style="clip-path:url(#SVGID_00000093889343706947660280000006237155375083882170_);fill:#FFFFFF;" width="3.71" height="2.47"/>
	</g>
	<g>
		<defs>
			<polygon id="SVGID_00000167365127143358514000000011565582195247479485_" points="81.4,15.06 81.4,29.95 85.12,29.95 
				85.12,12.58 			"/>
		</defs>
		<use xlink:href="#SVGID_00000167365127143358514000000011565582195247479485_"  style="overflow:visible;fill:#FFFFFF;"/>
		<clipPath id="SVGID_00000168812954845199431560000002835588240390292666_">
			<use xlink:href="#SVGID_00000167365127143358514000000011565582195247479485_"  style="overflow:visible;"/>
		</clipPath>
		
			<rect x="81.4" y="12.58" style="clip-path:url(#SVGID_00000168812954845199431560000002835588240390292666_);fill:#FFFFFF;" width="3.71" height="17.37"/>
	</g>
	<g>
		<defs>
			<polygon id="SVGID_00000009558536877606558140000000618605943610529176_" points="63.34,10.31 63.34,14 69.09,14 69.09,29.95 
				72.88,29.95 72.88,14 78.73,14 78.73,10.31 			"/>
		</defs>
		<use xlink:href="#SVGID_00000009558536877606558140000000618605943610529176_"  style="overflow:visible;fill:#FFFFFF;"/>
		<clipPath id="SVGID_00000132071794754182098970000007286875534779981993_">
			<use xlink:href="#SVGID_00000009558536877606558140000000618605943610529176_"  style="overflow:visible;"/>
		</clipPath>
		
			<rect x="63.34" y="10.31" style="clip-path:url(#SVGID_00000132071794754182098970000007286875534779981993_);fill:#FFFFFF;" width="15.39" height="19.64"/>
	</g>
	<g>
		<defs>
			<polygon id="SVGID_00000111180279995283575270000018247755108198145940_" points="60.79,10.31 57.05,10.31 57.05,23.24 
				48.65,10.31 45.06,10.31 45.06,29.95 48.8,29.95 48.8,17.07 57.19,29.95 60.79,29.95 60.79,10.31 			"/>
		</defs>
		<use xlink:href="#SVGID_00000111180279995283575270000018247755108198145940_"  style="overflow:visible;fill:#FFFFFF;"/>
		<clipPath id="SVGID_00000070119863198578461380000000189346935152001928_">
			<use xlink:href="#SVGID_00000111180279995283575270000018247755108198145940_"  style="overflow:visible;"/>
		</clipPath>
		
			<rect x="45.06" y="10.31" style="clip-path:url(#SVGID_00000070119863198578461380000000189346935152001928_);fill:#FFFFFF;" width="15.73" height="19.64"/>
	</g>
	<g>
		<defs>
			<polygon id="SVGID_00000101781378221589264280000000207979793372267140_" points="29.24,10.31 29.24,29.95 41.94,29.95 
				41.94,26.28 32.95,26.28 32.95,21.11 41.94,21.11 41.94,17.52 32.95,17.52 32.95,13.97 41.94,13.97 41.94,10.31 			"/>
		</defs>
		<use xlink:href="#SVGID_00000101781378221589264280000000207979793372267140_"  style="overflow:visible;fill:#FFFFFF;"/>
		<clipPath id="SVGID_00000074440433289220881900000000393062688914345387_">
			<use xlink:href="#SVGID_00000101781378221589264280000000207979793372267140_"  style="overflow:visible;"/>
		</clipPath>
		
			<rect x="29.24" y="10.31" style="clip-path:url(#SVGID_00000074440433289220881900000000393062688914345387_);fill:#FFFFFF;" width="12.7" height="19.64"/>
	</g>
	<g>
		<defs>
			<polygon id="SVGID_00000036214800720531302410000015546514224981761703_" points="22.07,10.31 22.06,10.32 22.06,29.95 
				25.78,29.95 25.78,29.95 25.78,10.31 			"/>
		</defs>
		<use xlink:href="#SVGID_00000036214800720531302410000015546514224981761703_"  style="overflow:visible;fill:#FFFFFF;"/>
		<clipPath id="SVGID_00000038391173634301380910000009802892696680065442_">
			<use xlink:href="#SVGID_00000036214800720531302410000015546514224981761703_"  style="overflow:visible;"/>
		</clipPath>
		
			<rect x="22.06" y="10.31" style="clip-path:url(#SVGID_00000038391173634301380910000009802892696680065442_);fill:#FFFFFF;" width="3.71" height="19.64"/>
	</g>
	<g>
		<defs>
			<path id="SVGID_00000032607240410010544630000009936378549757489295_" d="M5.17,11.21c-1.65,0.93-2.92,2.15-3.81,3.67
				c-0.89,1.52-1.33,3.26-1.33,5.22c0,3.03,0.97,5.51,2.92,7.44c1.95,1.94,4.44,2.9,7.5,2.9c1.66,0,3.13-0.27,4.42-0.82
				c1.29-0.55,2.66-1.53,4.11-2.95l-2.53-2.64c-1.08,1.07-2.06,1.81-2.96,2.21c-0.9,0.41-1.89,0.61-2.97,0.61
				c-1.27,0-2.43-0.29-3.47-0.87C6,25.41,5.2,24.61,4.63,23.59c-0.57-1.02-0.85-2.18-0.85-3.49c0-1.88,0.64-3.46,1.93-4.74
				c1.29-1.28,2.87-1.92,4.74-1.92c2.22,0,4.22,0.94,6,2.82l2.61-2.49c-1.09-1.26-2.38-2.24-3.88-2.92
				c-1.5-0.68-3.06-1.03-4.68-1.03C8.6,9.82,6.82,10.28,5.17,11.21"/>
		</defs>
		<use xlink:href="#SVGID_00000032607240410010544630000009936378549757489295_"  style="overflow:visible;fill:#FFFFFF;"/>
		<clipPath id="SVGID_00000141442400440428285580000007122370355550423444_">
			<use xlink:href="#SVGID_00000032607240410010544630000009936378549757489295_"  style="overflow:visible;"/>
		</clipPath>
		
			<rect x="0.04" y="9.82" style="clip-path:url(#SVGID_00000141442400440428285580000007122370355550423444_);fill:#FFFFFF;" width="19.03" height="20.63"/>
	</g>
</g>
</svg>
