<?xml version="1.0" encoding="utf-8"?>
<!-- Generator: Adobe Illustrator 27.0.0, SVG Export Plug-In . SVG Version: 6.00 Build 0)  -->
<svg version="1.1" id="Capa_1" xmlns="http://www.w3.org/2000/svg" xmlns:xlink="http://www.w3.org/1999/xlink" x="0px" y="0px"
	 viewBox="0 0 83.65 83.65" style="enable-background:new 0 0 83.65 83.65;" xml:space="preserve">
<style type="text/css">
	.st0{fill:#090E38;}
	.st1{fill:url(#SVGID_1_);}
	.st2{fill:#161A42;}
	.st3{fill:url(#SVGID_00000106838750906857333030000014273145089748034491_);}
	.st4{fill:url(#SVGID_00000181070994811535404060000005819549496908925351_);}
	.st5{fill:#FFFFFF;}
	.st6{fill:#E9E9EB;}
	.st7{fill:#2280C3;}
	.st8{fill:#263A6B;}
	.st9{fill:#13183B;}
	.st10{fill:#EBEBFF;}
	.st11{fill:#15336C;}
	.st12{fill:#121D3E;}
	.st13{fill:#D8CE9E;}
	.st14{fill:#5F485A;}
	.st15{fill:#17316F;}
	.st16{fill:#0A1C4F;}
	.st17{fill:#1E1A55;}
	.st18{fill:#12193B;}
	.st19{fill:#D8CD9C;}
	.st20{fill:#544A55;}
	.st21{fill:#E0E1E3;}
	.st22{fill:#15193A;}
	.st23{fill:#D6CC89;}
	.st24{fill:#434642;}
	.st25{fill:#131543;}
	.st26{fill:#3E3B38;}
	.st27{fill:#181940;}
	.st28{fill:#D7CE9D;}
	.st29{fill:#806D64;}
	.st30{opacity:0.7;fill:#6FC4D8;}
	.st31{fill:#805AE4;}
	.st32{fill:#ECB40A;}
	.st33{fill:#10B78E;}
	.st34{fill:url(#SVGID_00000052071947067760994170000006394868516350926265_);}
	.st35{fill:url(#SVGID_00000007423195378649549620000005579357375885293981_);}
	.st36{fill:url(#SVGID_00000004545467387920534280000005763717456872663461_);}
	.st37{fill:url(#SVGID_00000136372571927978459810000009640354227956019901_);}
	.st38{fill:url(#SVGID_00000071539774900607977870000012266611945645183363_);}
	.st39{fill:url(#SVGID_00000124863602154909877330000012487520828797611952_);}
	.st40{fill:url(#SVGID_00000132082500768888201260000010662403757530709934_);}
	.st41{fill:url(#SVGID_00000180340401025114737040000003314117304883828381_);}
	.st42{fill:url(#SVGID_00000018931892212866347780000011469886767110808967_);}
	.st43{fill:url(#SVGID_00000081629413716219194060000016585678211001284272_);}
	.st44{fill:url(#SVGID_00000015323225047615403310000001742219132597791413_);}
	.st45{fill:url(#SVGID_00000025426299981203792650000010638174780046657670_);}
	.st46{fill:url(#SVGID_00000013169568401928997300000003170916572681543863_);}
	.st47{fill:url(#SVGID_00000118376983459495349560000001094864324099854258_);}
	.st48{fill:url(#SVGID_00000118367983264461533030000005627113039530447288_);}
	.st49{fill:url(#SVGID_00000109736549674430293520000003500122761385671870_);}
	.st50{fill:url(#SVGID_00000067222569704945871910000005225043482417505172_);}
	.st51{fill:url(#SVGID_00000145774748739894338760000016293919914410369964_);}
	.st52{fill:url(#SVGID_00000064325711268991163860000003814880550635224473_);}
	.st53{fill:url(#SVGID_00000110467264200702891000000006439489231398234295_);}
	.st54{fill:url(#SVGID_00000128485765216003067950000014376198053388433070_);}
	.st55{fill:url(#SVGID_00000112621634088699431840000004388745682270642101_);}
	.st56{fill:url(#SVGID_00000139286064294401518540000002129777545692399039_);}
	.st57{fill:url(#SVGID_00000140699892016623618610000010954260129454505398_);}
	.st58{fill:url(#SVGID_00000078004978954326380800000016592971769698758561_);}
	.st59{fill:url(#SVGID_00000176728046382023981170000006942151245119900039_);}
	.st60{clip-path:url(#SVGID_00000076573100797453678580000011181461578732178590_);fill:#FFFFFF;}
	.st61{fill:none;stroke:#805AE4;stroke-miterlimit:10;}
	.st62{fill:url(#SVGID_00000133519398742562880600000014640199209609599641_);}
	.st63{fill:url(#SVGID_00000027586285276673370130000013146293281851094660_);}
	.st64{fill:url(#SVGID_00000066494934765321983600000011518001009692793740_);}
	.st65{fill:url(#SVGID_00000119822833017587023960000009343475469347172024_);}
	.st66{fill:url(#SVGID_00000079479602497454007530000018201456797832193710_);}
	.st67{fill:url(#SVGID_00000017512380998975968840000016476731986786046886_);}
	.st68{fill:url(#SVGID_00000080168003119900227240000006821234826634492064_);}
	.st69{fill:url(#SVGID_00000122690973961417632160000000703462472225122977_);}
	.st70{fill:url(#SVGID_00000160183027567746268110000006722593425765041284_);}
	.st71{fill:url(#SVGID_00000128467451379379733770000017972305601667912350_);}
	.st72{fill:url(#SVGID_00000165210965146170239960000001231778196395720623_);}
	.st73{fill:url(#SVGID_00000158740543432940391120000017534899757268745603_);}
	.st74{fill:#DDBB1B;}
	.st75{fill:#49CA80;}
	.st76{fill:#CF78C6;}
	.st77{fill:#BDACFF;}
	.st78{fill:#37368D;}
	.st79{fill:#E11E5E;}
	.st80{fill:#EB9F49;}
	.st81{fill:#FF6B6B;}
	.st82{fill:#38ABE6;}
	.st83{fill:url(#SVGID_00000016060330309750021740000008029254168700174234_);}
	.st84{fill:url(#SVGID_00000147941165844725539820000015497951586241309588_);}
	.st85{fill:url(#SVGID_00000165214517610992611110000006833187350447793331_);}
	.st86{fill:#E78A7E;}
	.st87{fill:#E69C78;}
	.st88{fill:#FF80E7;}
	.st89{fill:#E86480;}
	.st90{fill:url(#SVGID_00000171692926436428206320000013733308128889088920_);}
	.st91{fill:url(#SVGID_00000182521481862256011730000012946947593091320971_);}
	.st92{fill:url(#SVGID_00000109007196226943834310000012502513735996820104_);}
	.st93{fill:url(#SVGID_00000078041005627522952440000015088844500904678324_);}
	.st94{fill:url(#SVGID_00000047042972815066345890000012802451222619671719_);}
	.st95{fill:url(#SVGID_00000047738495870880089370000006964690190575191715_);}
	.st96{fill:url(#SVGID_00000145742318012677588700000014713643392152886941_);}
	.st97{fill:url(#SVGID_00000090270788509321754550000004617224292295295151_);}
	.st98{fill:url(#SVGID_00000003786208417745228210000008713090993539623606_);}
	.st99{fill:url(#SVGID_00000148649667136293115690000011501690607336046014_);}
	.st100{fill:url(#SVGID_00000174596938790756776620000016857075088525627318_);}
	.st101{fill:url(#SVGID_00000134229293812729643950000014687971561111574442_);}
	.st102{fill:url(#SVGID_00000167368546740568051620000016513708035467789240_);}
	.st103{fill:url(#SVGID_00000169528041860460448640000003483059074308264874_);}
	.st104{fill:url(#SVGID_00000002359802886171704260000010756226930818429352_);}
	.st105{fill:url(#SVGID_00000031166751810532326600000001024982125737394599_);}
	.st106{fill:url(#SVGID_00000011022709149143755630000011516744709207332775_);}
	.st107{fill:url(#SVGID_00000093154486394082475290000012964304176137253533_);}
	.st108{fill:url(#SVGID_00000083810525077105166150000012681755089567328393_);}
	.st109{fill:url(#SVGID_00000009557908577412058990000013192575518392077191_);}
	.st110{fill:url(#SVGID_00000173122110701893238780000009483719358729790110_);}
	.st111{fill:url(#SVGID_00000026860149014876686030000010475345325865300913_);}
	.st112{fill:url(#SVGID_00000147199677074317125540000000943000741318512787_);}
	.st113{fill:url(#SVGID_00000091696283422793798100000010351775538269402516_);}
	.st114{fill:url(#SVGID_00000137841418331614331750000007146870002454102656_);}
	.st115{fill:url(#SVGID_00000014628717377937176510000016161503394577555842_);}
	.st116{fill:url(#SVGID_00000001644040767504847570000009694028040710323617_);}
	.st117{fill:url(#SVGID_00000125561917605958317250000017801986240276459181_);}
	.st118{fill:url(#SVGID_00000107587766168401003030000005344222656904843675_);}
	.st119{fill:url(#SVGID_00000137091570264848603430000012424008755891229075_);}
	.st120{fill:url(#SVGID_00000047750385767931838300000014249661455072501127_);}
	.st121{fill:url(#SVGID_00000173857278778611702080000017882589170980692923_);}
	.st122{fill:url(#SVGID_00000042724331101508485750000010222188715916443065_);}
	.st123{fill:url(#SVGID_00000147915935352758926300000009103086292171440544_);}
	.st124{fill:url(#SVGID_00000096743091285955371560000008470511907192212366_);}
	.st125{fill:url(#SVGID_00000164513078413178114700000004751507704661398657_);}
	.st126{fill:url(#SVGID_00000061429681786513828510000008373381361085918891_);}
	.st127{fill:url(#SVGID_00000162350048167342642850000000328700948040991889_);}
	.st128{fill:url(#SVGID_00000088095399205735897000000016206497336771657628_);}
	.st129{fill:url(#SVGID_00000077301020016801588410000014171612318487837582_);}
	.st130{fill:url(#SVGID_00000120521602030547424170000018318066780418828171_);}
	.st131{fill:url(#SVGID_00000026129561856324444560000014604750154374009475_);}
	.st132{fill:url(#SVGID_00000098919628890113297190000012408965428597467284_);}
	.st133{fill:url(#SVGID_00000140698512771382339270000013171502454273497520_);}
	.st134{fill:url(#SVGID_00000136402305948706766470000016826161262415313820_);}
	.st135{fill:url(#SVGID_00000036962762922564373310000012938895508165854644_);}
	.st136{fill:url(#SVGID_00000070810623450398063970000007464015044028419724_);}
	.st137{fill:url(#SVGID_00000092451692245542285800000009941982009644204460_);}
	.st138{fill:url(#SVGID_00000169522998581647264690000002493571989367205801_);}
	.st139{fill:url(#SVGID_00000121238622718375304000000007016742414017567391_);}
	.st140{fill:url(#SVGID_00000012455433157236776370000018105062482111989416_);}
	.st141{fill:url(#SVGID_00000067932075168299790350000018335142956148289981_);}
	.st142{fill:url(#SVGID_00000173161064621969046970000015397750165197203585_);}
	.st143{fill:url(#SVGID_00000003071481664722313660000014593379629900576907_);}
	.st144{fill:url(#SVGID_00000149351320687739143430000012144021303990440100_);}
	.st145{fill:url(#SVGID_00000136413164340872818610000013502323649385163410_);}
	.st146{fill:url(#SVGID_00000065755857269696107230000008203748877494238888_);}
	.st147{fill:url(#SVGID_00000109735688179902709490000007748495046171564954_);}
	.st148{fill:url(#SVGID_00000005246273031310969660000008546689009529632433_);}
	.st149{fill:url(#SVGID_00000114774377357440400230000003733886607883475127_);}
	.st150{fill:url(#SVGID_00000145771682358479141230000010488216733054842289_);}
	.st151{fill:url(#SVGID_00000125599858893600128160000004507214611207267725_);}
	.st152{fill:url(#SVGID_00000102539005009842425740000004355124998854651021_);}
	.st153{fill:url(#SVGID_00000130619382412516407000000014960569629202440346_);}
	.st154{fill:url(#SVGID_00000018199911601970357510000009572184848170741170_);}
	.st155{fill:url(#SVGID_00000106848701877080718680000000849181530461640586_);}
	.st156{fill:url(#SVGID_00000101783436293088785950000012533097460837077928_);}
	.st157{fill:url(#SVGID_00000132800353769370278850000008795629401486817444_);}
	.st158{fill:url(#SVGID_00000078037297406466725870000006705701083960200363_);}
	.st159{fill:url(#SVGID_00000181075952046564704070000011972213398371252366_);}
	.st160{fill:url(#SVGID_00000083067057722075552350000010674740547997866669_);}
	.st161{fill:url(#SVGID_00000034785649962791255430000003846565002609886140_);}
	.st162{fill:url(#SVGID_00000163752661379387050010000008341072461443591574_);}
	.st163{fill:none;stroke:#090E38;stroke-width:2;stroke-miterlimit:10;}
	.st164{fill:#803CFF;}
	.st165{fill:none;stroke:#803CFF;stroke-miterlimit:10;}
	.st166{fill:#848698;}
	.st167{fill:url(#SVGID_00000164495424532038148350000013804608725983988642_);}
	.st168{fill:url(#SVGID_00000141442990772270633270000012333512393357928066_);}
	.st169{fill:url(#SVGID_00000154411222040878958390000016059950344408171693_);}
	.st170{fill:url(#SVGID_00000120553345261654220900000014679064973420610486_);}
	.st171{fill:url(#SVGID_00000147905554976318416250000003903224442986303641_);}
	.st172{fill:url(#SVGID_00000006674490977102988340000011359649097655261068_);}
	.st173{fill:url(#SVGID_00000095338248873776878190000013239899523099853973_);}
	.st174{fill:url(#SVGID_00000104690390372526207920000010002034942327545516_);}
	.st175{fill:#22274C;}
	.st176{fill:url(#SVGID_00000130646753966026882130000002519653643021842351_);}
	.st177{fill:url(#SVGID_00000111185771413374386490000002307971840196188604_);}
	.st178{fill:url(#SVGID_00000150094621591637357330000003696315466220199590_);}
	.st179{fill:url(#SVGID_00000052795637289925357510000004168166953425060022_);}
	.st180{fill:url(#SVGID_00000109739760585467730730000003715383933149230256_);}
	.st181{fill:url(#SVGID_00000181800969221016938290000018067356730986930079_);}
	.st182{fill:url(#SVGID_00000072966841179535739260000001142162715508998559_);}
	.st183{fill:url(#SVGID_00000090261706105717124100000013136150436877864331_);}
	.st184{fill:url(#SVGID_00000131339448278603075200000008578175194832007610_);}
	.st185{fill:url(#SVGID_00000080890394464240360920000002204227059513037962_);}
	.st186{fill:url(#SVGID_00000171706289542703642630000006697943749408088248_);}
	.st187{fill:url(#SVGID_00000080905462865954490250000012522604603794770836_);}
	.st188{fill:url(#SVGID_00000072989177625975361370000017494174324156898204_);}
	.st189{fill:url(#SVGID_00000092429023044495651610000011117326940157298611_);}
	.st190{fill:url(#SVGID_00000023253045924501613690000009640217002242728104_);}
	.st191{fill:url(#SVGID_00000120559101890766738930000002938113005879754418_);}
	.st192{fill:url(#SVGID_00000111883064054578754300000008751008455124560282_);}
	.st193{fill:url(#SVGID_00000063621799232265931120000009827392025479926437_);}
	.st194{fill:url(#SVGID_00000022523382633324484110000004398076793712081561_);}
	.st195{fill:url(#SVGID_00000169533755500826778120000014436345814019419064_);}
	.st196{fill:url(#SVGID_00000007397326062760009980000004961576240621822358_);}
	.st197{fill:url(#SVGID_00000062152993918304337750000002862419187928116143_);}
	.st198{fill:url(#SVGID_00000176727815224425179190000013689181230324343461_);}
	.st199{fill:url(#SVGID_00000171681773393796209760000017287840003131884427_);}
	.st200{fill:url(#SVGID_00000085235113704387566870000000475724410802498188_);}
	.st201{fill:url(#SVGID_00000174582253364825435520000016060050080351865012_);}
	.st202{fill:url(#SVGID_00000165946836799845288150000000354162930899594428_);}
	.st203{fill:url(#SVGID_00000162337351498577090820000011731226878480798886_);}
	.st204{fill:url(#SVGID_00000160182494414063378490000017077912801780544411_);}
	.st205{fill:url(#SVGID_00000092453558111778094880000008377550951783487619_);}
	.st206{fill:url(#SVGID_00000062915255292778940590000016026021572693485716_);}
	.st207{fill:url(#SVGID_00000138550217745963381400000014733027339349752711_);}
	.st208{fill:url(#SVGID_00000017501903172357183690000012370985613948793486_);}
	.st209{fill:url(#SVGID_00000067946371785368736400000004132444295146441346_);}
	.st210{fill:url(#SVGID_00000170264462328623910250000003394499251340761252_);}
	.st211{fill:url(#SVGID_00000107583191688385117850000016672224889181981884_);}
	.st212{fill:none;stroke:#FFFFFF;stroke-linecap:round;stroke-miterlimit:10;}
	.st213{fill:url(#SVGID_00000129168336595059839540000005533366242062847635_);}
	.st214{fill:url(#SVGID_00000132046213932230180540000015823021233280520359_);}
	.st215{fill:url(#SVGID_00000169556495931880710860000016629336354601464252_);}
	.st216{fill:url(#SVGID_00000120547000719342629920000009426542277014281647_);}
	.st217{fill:url(#SVGID_00000101794980762543579110000015902668066104894370_);}
	.st218{fill:url(#SVGID_00000123416334800513696040000006779288928525594293_);}
	.st219{fill:url(#SVGID_00000173135211980332211000000010451398937729910691_);}
	.st220{fill:url(#SVGID_00000101078816825758282180000001067300770822446478_);}
	.st221{fill:url(#SVGID_00000109715841031127313860000003372018367323959962_);}
	.st222{fill:url(#SVGID_00000017498846658179743740000000448825311027636870_);}
	.st223{fill:url(#SVGID_00000023280106912919341710000011434324060977894844_);}
	.st224{fill:url(#SVGID_00000091710091333389691630000000498172320947895970_);}
	.st225{fill:url(#SVGID_00000120551296294769531280000015342373502102235574_);}
	.st226{fill:url(#SVGID_00000011723850394269228090000000326193087582847420_);}
	.st227{fill:url(#SVGID_00000153685703090390411690000011111336699640092801_);}
	.st228{fill:url(#SVGID_00000047027262377733040280000015989631182479156375_);}
	.st229{fill:url(#SVGID_00000137830941760717612350000008153148376200380605_);}
	.st230{fill:url(#SVGID_00000048481321087623823730000013732926685890621092_);}
	.st231{fill:url(#SVGID_00000003080816996290615990000000909197507724719506_);}
	.st232{fill:url(#SVGID_00000104683236137989744800000012734085551460558503_);}
	.st233{fill:url(#SVGID_00000147214249690398465250000005955381544083780021_);}
	.st234{fill:none;stroke:#22274C;stroke-width:0.5;stroke-miterlimit:10;}
	.st235{fill:url(#SVGID_00000031921479859834914150000004198714981207492539_);}
	.st236{fill:none;stroke:#22274C;stroke-miterlimit:10;}
	.st237{fill:url(#SVGID_00000043451201400766580060000014921218961908433030_);}
	.st238{fill:url(#SVGID_00000047035347812699633540000007101639687298525859_);}
	.st239{fill:url(#SVGID_00000034798697581259941460000010483913023092903357_);}
	.st240{fill:url(#SVGID_00000179645613568541746520000002169925812605766534_);}
	.st241{fill:url(#SVGID_00000069387830408394243490000001407689657893017222_);}
	.st242{fill:url(#SVGID_00000060743110047505906750000014488088835830374025_);}
	.st243{fill:url(#SVGID_00000173839163534910103200000003724884685471411127_);}
	.st244{fill:url(#SVGID_00000059988404776551788070000014703635820186293154_);}
	.st245{fill:url(#SVGID_00000009556179989509931650000010432357719984811422_);}
	.st246{fill:url(#SVGID_00000136376543543582159430000011480204983646847660_);}
	.st247{fill:url(#SVGID_00000070814621461872712940000004305948259859507384_);}
	.st248{fill:url(#SVGID_00000182523903490714174680000004674501883796855428_);}
	.st249{fill:none;stroke:#E11E5E;stroke-miterlimit:10;}
	.st250{fill:url(#SVGID_00000096044739793189619800000018133142614754198154_);}
	.st251{fill:url(#SVGID_00000136376790809698094680000012402606665925773481_);}
	.st252{fill:url(#SVGID_00000109738587663896855430000017379473156494655631_);}
	.st253{fill:url(#SVGID_00000177442248343557533540000015118984245585368472_);}
	.st254{fill:url(#SVGID_00000105422701034595067610000015994352226599435945_);}
	.st255{fill:url(#SVGID_00000060020099104569431660000017812666557323104698_);}
	.st256{fill:url(#SVGID_00000029731381141361685410000010047288509184941995_);}
	.st257{fill:url(#SVGID_00000168812575541072536040000017943191323695405499_);}
	.st258{fill:url(#SVGID_00000108287331754185404150000018173272340558670216_);}
	.st259{fill:url(#SVGID_00000008849097664049522890000002284255125674131107_);}
	.st260{fill:url(#SVGID_00000173141713865524395050000012394824642395705533_);}
	.st261{fill:url(#SVGID_00000095317609166305392620000008226363059080977536_);}
	.st262{fill:url(#SVGID_00000083774476796357668840000017841596706482151332_);}
	.st263{fill:url(#SVGID_00000170981533972088825040000002043857632279553167_);}
	.st264{fill:url(#SVGID_00000012437883316190306460000000306274750743928741_);}
	.st265{fill:url(#SVGID_00000016761111762021282880000015162613360395380098_);}
	.st266{fill:url(#SVGID_00000007404504116462894760000001408668941759820677_);}
	.st267{fill:url(#SVGID_00000150809952775595573080000002231930752987357057_);}
	.st268{fill:url(#SVGID_00000050656106276204468910000007707565924345528965_);}
	.st269{fill:url(#SVGID_00000120546670569561368870000013194258430349184906_);}
	.st270{fill:url(#SVGID_00000142137470016931402660000002221389191215353009_);}
	.st271{fill:url(#SVGID_00000112616193496595317290000012869063974783421345_);}
	.st272{fill:url(#SVGID_00000156573913291957331910000014122052175374312632_);}
	.st273{fill:none;stroke:#FFFFFF;stroke-width:0.75;stroke-miterlimit:10;}
	.st274{fill:none;stroke:#FFFFFF;stroke-width:0.75;stroke-linecap:round;stroke-miterlimit:10;}
	.st275{fill-rule:evenodd;clip-rule:evenodd;fill:none;stroke:#FFFFFF;stroke-width:0.5;stroke-miterlimit:10;}
	
		.st276{fill-rule:evenodd;clip-rule:evenodd;fill:none;stroke:#FFFFFF;stroke-width:0.5;stroke-linecap:round;stroke-miterlimit:10;}
	.st277{fill:url(#SVGID_00000055699301521325967090000000116633801594624688_);}
	.st278{fill:url(#SVGID_00000008142389048668941520000001300311750348793000_);}
	.st279{fill:url(#SVGID_00000150802006439134114070000010433156060883700668_);}
	.st280{fill:url(#SVGID_00000165211650908923026630000000523062108964731045_);}
	.st281{fill:url(#SVGID_00000060747677893806642810000018160249559826726056_);}
	.st282{fill:url(#SVGID_00000137091620755754079620000013414232079902881439_);}
	.st283{fill:url(#SVGID_00000007416763279919989760000016010831500743064996_);}
	.st284{fill:url(#SVGID_00000058569690728225806390000001384088470133821118_);}
	.st285{fill:url(#SVGID_00000120559078691396340610000007881695186219769746_);}
	.st286{fill:url(#SVGID_00000051349214604533480160000009134749339638641037_);}
	.st287{fill:url(#SVGID_00000021804163673879459850000009568458755182985872_);}
	.st288{fill:url(#SVGID_00000126302504651085458260000018406642365840638089_);}
	.st289{fill:url(#SVGID_00000090991688135164169950000000045005968014891187_);}
	.st290{fill:url(#SVGID_00000006704041955630126660000005300184539462479768_);}
	.st291{fill:url(#SVGID_00000127025447193586882490000017813688410434063496_);}
	.st292{fill:url(#SVGID_00000043456412545268775660000002323008652563115144_);}
	.st293{fill:url(#SVGID_00000116934658319364448280000017754118087536567459_);}
	.st294{fill:url(#SVGID_00000065771876424902910190000003816069086858287288_);}
	.st295{fill:url(#SVGID_00000126310009725833102160000017589645755262069128_);}
	.st296{fill:url(#SVGID_00000156559929339597404170000008735223011790624385_);}
	.st297{fill:url(#SVGID_00000081618825470964373540000014415129564207682230_);}
	.st298{fill:url(#SVGID_00000011023318916096872600000010950528016680139962_);}
	.st299{fill:url(#SVGID_00000147210058750708936870000013250904948577955727_);}
	.st300{fill:url(#SVGID_00000092439627314629885820000009693386697489413807_);}
	.st301{fill:url(#SVGID_00000138546536483011904140000006147423028370430103_);}
	.st302{clip-path:url(#SVGID_00000046306056166025956060000016104937446087225478_);fill:#22264C;}
	.st303{clip-path:url(#SVGID_00000129907886975481619940000006569059248217652158_);fill:#FFFFFF;}
	.st304{clip-path:url(#SVGID_00000048485843849858079520000000781456883076730771_);fill:#FFFFFF;}
	.st305{clip-path:url(#SVGID_00000158003692470017263700000009216840277644506252_);fill:#FFFFFF;}
	.st306{clip-path:url(#SVGID_00000003824464219623090580000012336253020067307671_);fill:#FFFFFF;}
	.st307{clip-path:url(#SVGID_00000088128217996282008750000014752137272323404947_);fill:#FFFFFF;}
	.st308{clip-path:url(#SVGID_00000142873672605476787700000002274726109862793611_);fill:#FFFFFF;}
	.st309{clip-path:url(#SVGID_00000039104269154423077130000010795215106935377332_);fill:#FFFFFF;}
	.st310{clip-path:url(#SVGID_00000170964819807365104010000009001208256448166822_);fill:#FFFFFF;}
	.st311{clip-path:url(#SVGID_00000030463648995080219950000000560084572137104553_);fill:#FFFFFF;}
	.st312{clip-path:url(#SVGID_00000016770751967020417760000001536155404496554404_);fill:#FFFFFF;}
	.st313{clip-path:url(#SVGID_00000087386879295345376290000003155693981976560273_);fill:#FFFFFF;}
	.st314{fill:url(#SVGID_00000052083920270579674070000014745072712545284517_);}
	.st315{fill:url(#SVGID_00000095337482273342507010000008697877341757647784_);}
	.st316{fill:url(#SVGID_00000027594351086484195950000016045742554959474359_);}
	.st317{fill:url(#SVGID_00000172406312226378142290000005863200917984480927_);}
	.st318{fill:url(#SVGID_00000036972430987267776760000005299394024975921049_);}
	.st319{fill:url(#SVGID_00000178204573113946228810000016957380100885353345_);}
	.st320{fill:url(#SVGID_00000183248987139601041510000006155603573500494992_);}
	.st321{fill:url(#SVGID_00000134951296147765226990000002361750526096166804_);}
	.st322{fill:url(#SVGID_00000052083585414532360080000015609827947216585609_);}
	.st323{fill:url(#SVGID_00000157294876281064068700000005842018792381901953_);}
	.st324{fill:url(#SVGID_00000078033139572674011330000011873941116275465872_);}
	.st325{fill:url(#SVGID_00000159431335330681957400000010229249404747755150_);}
	.st326{fill:url(#SVGID_00000023989321667265598090000004440445829255108776_);}
	.st327{fill:url(#SVGID_00000106136534488776772440000001505320986907342504_);}
	.st328{fill:url(#SVGID_00000126319061075458296040000012544108853956573082_);}
	.st329{fill:url(#SVGID_00000087374324982492252100000018241749254441090699_);}
	.st330{fill:url(#SVGID_00000132062779752245391390000003074388412258480043_);}
	.st331{fill:url(#SVGID_00000067920443661020820320000013545939252650235053_);}
	.st332{fill:url(#SVGID_00000124878927942009592960000013663864650913914768_);}
	.st333{fill:url(#SVGID_00000085952048321396992050000015134772754277096603_);}
	.st334{fill:url(#SVGID_00000072983156859938030390000013113155738119568806_);}
	.st335{fill:url(#SVGID_00000080189894948685983190000006234176657421119117_);}
	.st336{fill:url(#SVGID_00000176742101784542048830000000637638031542739363_);}
	.st337{fill:url(#SVGID_00000016776761781895832920000010474060222685780143_);}
	.st338{fill:url(#SVGID_00000031200558458223236690000009042940980363415195_);}
	.st339{fill:url(#SVGID_00000164474301300191842940000013725269352663893395_);}
	.st340{fill:url(#SVGID_00000080197792625116020960000008551812250221902015_);}
	.st341{fill:url(#SVGID_00000004544140154813178910000002609453500993744039_);}
	.st342{fill:url(#SVGID_00000147196240452124839960000009988894786033292450_);}
	.st343{fill:url(#SVGID_00000157271256832787301030000016948422517393086599_);}
	.st344{fill:url(#SVGID_00000004525626377387853770000002846663035901796521_);}
	.st345{fill:url(#SVGID_00000089571796997827705260000016213387055203664821_);}
	.st346{fill:url(#SVGID_00000081641204330865427110000008715169562046083458_);}
	.st347{fill:url(#SVGID_00000114050575891998134820000008709635334512225181_);}
	.st348{fill:url(#SVGID_00000029754520755980890950000004777246708499814545_);}
	.st349{fill:url(#SVGID_00000172432896709812923170000015235861870221193116_);}
	.st350{fill:url(#SVGID_00000070083571224717464100000007858611390182471830_);}
	.st351{fill:url(#SVGID_00000029037825146417389760000005427630413672082582_);}
	.st352{fill:url(#SVGID_00000167359363520969174610000000837770934588673681_);}
	.st353{fill:url(#SVGID_00000007390995128057453670000005966403813265306753_);}
	.st354{fill:#8A8989;}
	.st355{fill:#616160;}
	.st356{fill-rule:evenodd;clip-rule:evenodd;fill:#FFFFFF;}
	.st357{fill-rule:evenodd;clip-rule:evenodd;fill:#8A8989;}
	.st358{fill-rule:evenodd;clip-rule:evenodd;fill:#797879;}
	.st359{clip-path:url(#XMLID_00000029024959350127282940000004360921558223223723_);}
	.st360{opacity:0.2;fill:#E1E3E7;}
	.st361{fill-rule:evenodd;clip-rule:evenodd;fill:#616160;}
	.st362{fill:#E1E3E7;}
	.st363{fill:#FFFFFF;stroke:#FFFFFF;stroke-width:4;stroke-miterlimit:10;}
	.st364{fill:#58595B;}
	.st365{fill:#80A926;}
	.st366{clip-path:url(#SVGID_00000153674269979209610240000005011136760049485184_);}
	.st367{clip-path:url(#SVGID_00000145744891889473814080000015616444562948855427_);}
	.st368{clip-path:url(#SVGID_00000035496292234002981860000007761883439807056303_);}
	.st369{clip-path:url(#SVGID_00000121966003649937620360000004404452704897207981_);}
	.st370{clip-path:url(#SVGID_00000047047652997159935350000015584203828590985629_);}
	.st371{clip-path:url(#SVGID_00000078008128540477559340000013383075613521051052_);}
	.st372{clip-path:url(#SVGID_00000005250673642687316550000012360700578920789655_);}
	.st373{clip-path:url(#SVGID_00000152247874906219773810000008481049350331518642_);}
	.st374{clip-path:url(#SVGID_00000170958542191471946900000005658914751077795253_);}
	.st375{clip-path:url(#SVGID_00000039818600854163544520000010815032929645339572_);}
	.st376{fill:#1D1E1C;}
	.st377{opacity:0.36;}
	.st378{opacity:0.57;}
	.st379{fill:none;}
	.st380{fill:#01CEA6;}
	.st381{fill:#01261F;}
	.st382{fill:#E68000;}
	.st383{fill:#261400;}
	.st384{fill:#E63D80;}
	.st385{fill:#2D0013;}
	.st386{fill:#3695BB;}
	.st387{fill:#032732;}
	.st388{fill:#CDE4EC;}
	.st389{fill:#DA80E7;}
	.st390{fill:#B072BD;}
	.st391{fill:#855994;}
	.st392{fill:#180024;}
	.st393{fill:#DD80EA;}
	.st394{fill:#BB80E7;}
	.st395{fill:#9B77C0;}
	.st396{fill:#C080ED;}
	.st397{fill:#1F0140;}
	.st398{fill:#80619A;}
	.st399{fill:url(#SVGID_00000092429639348212429360000012150657246702343558_);}
	.st400{fill:url(#SVGID_00000009548807513910163660000007172867728891056526_);}
	.st401{fill:url(#SVGID_00000165208352591287632960000009884287157099263872_);}
	.st402{fill:url(#SVGID_00000143599403345022739910000017984937510130563501_);}
	.st403{fill:url(#SVGID_00000002367323678891001470000012741281366395271838_);}
	.st404{fill:url(#SVGID_00000100370659431833497860000016232427011093762698_);}
	.st405{fill:url(#SVGID_00000062162725042941975230000007033282258977976766_);}
	.st406{fill:url(#SVGID_00000167381209601616842890000005528944094076247220_);}
	.st407{fill:url(#SVGID_00000098210921852456639740000002656216171594683018_);}
	.st408{fill:url(#SVGID_00000101815650334688040490000005426091674099922879_);}
	.st409{fill:url(#SVGID_00000136373647166523722160000010435776229404545929_);}
	.st410{fill:url(#SVGID_00000029025789635850772200000014629587540092228516_);}
	.st411{fill:none;stroke:#464A69;stroke-miterlimit:10;}
	.st412{fill:url(#SVGID_00000024697231316157439350000004485092496841863307_);}
	.st413{fill:url(#SVGID_00000027588482770679901520000010858590312822358669_);}
	.st414{fill:url(#SVGID_00000183948652875322736990000002393463800388147371_);}
	.st415{fill:url(#SVGID_00000082347540427215684930000008718097302963131045_);}
	.st416{fill:url(#SVGID_00000101787172905976842700000001093532504858646434_);}
	.st417{fill:url(#SVGID_00000072987144793467492250000014075383118448933298_);}
	.st418{fill:url(#SVGID_00000057109342682211701890000016935012463041517978_);}
	.st419{fill:url(#SVGID_00000115506169819754384300000002725424343776681647_);}
	.st420{fill:url(#SVGID_00000018222582764255922720000005362003521901244606_);}
	.st421{fill:url(#SVGID_00000171683804847953835690000011508061524254171020_);}
	.st422{fill:url(#SVGID_00000011748122426376156160000011830238472875893154_);}
	.st423{fill:url(#SVGID_00000103958497471290711110000000522128546003837835_);}
	.st424{fill:url(#SVGID_00000160911380722994297520000007884794726398416537_);}
	.st425{fill:url(#SVGID_00000152958614192215815100000015658681251928742834_);}
	.st426{fill:none;stroke:#22274C;stroke-width:0.75;stroke-miterlimit:10;}
	.st427{fill:none;stroke:#FFFFFF;stroke-width:2;stroke-miterlimit:10;}
	.st428{fill:url(#SVGID_00000109723524219987515590000018299424721180914340_);}
	.st429{fill:url(#SVGID_00000061443190860329683750000017809421394971372471_);}
	.st430{fill:url(#SVGID_00000104701809951213419680000008633475677764101015_);}
	.st431{fill:url(#SVGID_00000153697857744486510450000003418198601328670141_);}
	.st432{fill:url(#SVGID_00000052804288430579986630000013634556705682432934_);}
	.st433{fill:url(#SVGID_00000111879082074217043500000013255443559037293186_);}
	.st434{fill:url(#SVGID_00000159459743346157374850000017819370572166718871_);}
	.st435{fill:url(#SVGID_00000156565721168001224010000012593870431727597998_);}
	.st436{fill:url(#SVGID_00000101097515327008735440000005428438219936970674_);}
	.st437{fill:url(#SVGID_00000089571701194254890760000015426263860266796437_);}
	.st438{fill:url(#SVGID_00000165941933258467460700000003029678640370614164_);}
	.st439{fill:url(#SVGID_00000153670396700227956250000005960958491625998498_);}
	.st440{fill:url(#SVGID_00000058552082760285953720000013124558215743085192_);}
	.st441{fill:url(#SVGID_00000109021844387687369670000018314180885433014206_);}
	.st442{fill:url(#SVGID_00000120553279429797656390000013575677161873238423_);}
	.st443{fill:url(#SVGID_00000088122120871704610380000014040170521251395232_);}
	.st444{fill:url(#SVGID_00000109742688840128112240000012036657934148203957_);}
	.st445{fill:url(#SVGID_00000134931916065311448090000002525950030559241638_);}
	.st446{fill:url(#SVGID_00000131358323454800068540000017715203819097607846_);}
	.st447{fill:url(#SVGID_00000044161096085599458660000018361588982797590938_);}
	.st448{fill:url(#SVGID_00000018216581381819244390000008517145699083649187_);}
	.st449{fill:url(#SVGID_00000044136254045643137740000003397099563862464921_);}
	.st450{fill:url(#SVGID_00000109732139138993070150000010833635543676780165_);}
	.st451{fill:url(#SVGID_00000158017036118563845540000008968584024068239293_);}
	.st452{fill:url(#SVGID_00000099654998224344767500000017981538836204119486_);}
	.st453{fill:url(#SVGID_00000165212929186816515740000009696258466839092622_);}
	.st454{fill:url(#SVGID_00000061432858180609328250000016870935852722214028_);}
	.st455{fill:none;stroke:#8F8F8F;stroke-width:0.75;stroke-miterlimit:10;}
	.st456{fill:#8F8F8F;stroke:#8F8F8F;stroke-width:0.25;stroke-miterlimit:10;}
	.st457{fill:#8F8F8F;}
	.st458{fill:none;stroke:#8F8F8F;stroke-width:0.25;stroke-miterlimit:10;}
	.st459{fill:url(#SVGID_00000131330352616500795530000003412542271585434797_);}
	.st460{fill:url(#SVGID_00000098916596524036686960000010964928359601668286_);}
	.st461{fill:url(#SVGID_00000038390488658146945750000009157707970130167215_);}
	.st462{fill:url(#SVGID_00000141451280499906804080000015376934881978373521_);}
	.st463{fill:url(#SVGID_00000056423705099487540750000000594986535392595079_);}
	.st464{fill:url(#SVGID_00000020378788716607895500000013425334565091280308_);}
	.st465{fill:url(#SVGID_00000097500334140353477860000010437914879714391714_);}
	.st466{fill:url(#SVGID_00000068655059961217017630000015048801909023157399_);}
	.st467{fill:url(#SVGID_00000148625746969269102260000017354772462035482032_);}
	.st468{fill:url(#SVGID_00000124863428876817630590000013243370944885925251_);}
</style>
<g>
	<circle class="st5" cx="41.83" cy="41.83" r="41.83"/>
	<linearGradient id="SVGID_1_" gradientUnits="userSpaceOnUse" x1="15.2426" y1="34.1366" x2="68.7266" y2="34.1366">
		<stop  offset="0" style="stop-color:#DDBB1B"/>
		<stop  offset="1" style="stop-color:#49CA80"/>
	</linearGradient>
	<path class="st1" d="M25.61,36.34v3.68h-2.33v-3.68l-7.52-8.08h3.19l5.51,5.91l5.51-5.91h3.17L25.61,36.34z"/>
	
		<linearGradient id="SVGID_00000068667052468292858040000005655193697424394380_" gradientUnits="userSpaceOnUse" x1="15.2426" y1="34.1366" x2="68.7266" y2="34.1366">
		<stop  offset="0" style="stop-color:#DDBB1B"/>
		<stop  offset="1" style="stop-color:#49CA80"/>
	</linearGradient>
	<path style="fill:url(#SVGID_00000068667052468292858040000005655193697424394380_);" d="M46.84,37.33h-9.56l-1.71,2.69h-2.69
		l7.47-11.76h3.43l7.47,11.76h-2.7L46.84,37.33z M45.44,35.11l-3.38-5.31l-3.38,5.31H45.44z"/>
	
		<linearGradient id="SVGID_00000178901820117778292220000009714319819216761264_" gradientUnits="userSpaceOnUse" x1="15.2426" y1="34.1366" x2="68.7266" y2="34.1366">
		<stop  offset="0" style="stop-color:#DDBB1B"/>
		<stop  offset="1" style="stop-color:#49CA80"/>
	</linearGradient>
	<path style="fill:url(#SVGID_00000178901820117778292220000009714319819216761264_);" d="M67.65,28.26v11.76h-2.33h-0.37
		L54.07,31.1v8.92h-2.33V28.26h2.69l10.9,8.92v-8.92H67.65z"/>
	
		<linearGradient id="SVGID_00000155138229891162991810000003216810346606561936_" gradientUnits="userSpaceOnUse" x1="15.2426" y1="48.411" x2="68.7266" y2="48.411">
		<stop  offset="0" style="stop-color:#DDBB1B"/>
		<stop  offset="1" style="stop-color:#49CA80"/>
	</linearGradient>
	<path style="fill:url(#SVGID_00000155138229891162991810000003216810346606561936_);" d="M33.02,54.29h-5.27l-4.28-3.06h-3.43v3.06
		h-4.17V42.53h11.94c0.79,0,1.54,0.2,2.24,0.59c0.7,0.39,1.27,0.92,1.7,1.57c0.43,0.66,0.65,1.39,0.65,2.19
		c0,1.05-0.36,1.97-1.07,2.75c-0.71,0.78-1.59,1.28-2.65,1.49L33.02,54.29z M27.19,47.81c0.26,0,0.5-0.09,0.71-0.27
		c0.22-0.18,0.33-0.4,0.33-0.66c0-0.26-0.11-0.48-0.33-0.65c-0.22-0.18-0.46-0.27-0.71-0.27h-7.15v1.85H27.19z"/>
	
		<linearGradient id="SVGID_00000057127073351657431820000007812152406848915135_" gradientUnits="userSpaceOnUse" x1="15.2426" y1="48.411" x2="68.7266" y2="48.411">
		<stop  offset="0" style="stop-color:#DDBB1B"/>
		<stop  offset="1" style="stop-color:#49CA80"/>
	</linearGradient>
	<path style="fill:url(#SVGID_00000057127073351657431820000007812152406848915135_);" d="M42.06,54.54c-2.5,0-4.5-0.44-6.01-1.31
		c-1.7-0.99-2.55-2.49-2.55-4.52v-0.6c0-2.03,0.85-3.53,2.55-4.52c1.51-0.87,3.52-1.31,6.01-1.31c2.51,0,4.52,0.44,6.03,1.31
		c1.7,0.99,2.55,2.49,2.55,4.52v0.6c0,2.03-0.85,3.53-2.55,4.52C46.58,54.1,44.57,54.54,42.06,54.54z M42.06,50.86
		c1.2,0,2.17-0.12,2.91-0.37c1.01-0.34,1.51-0.95,1.51-1.83v-0.5c0-0.88-0.5-1.49-1.51-1.83c-0.74-0.25-1.71-0.37-2.91-0.37
		c-1.2,0-2.16,0.12-2.89,0.37c-1.01,0.34-1.51,0.95-1.51,1.83v0.5c0,0.88,0.5,1.49,1.51,1.83C39.9,50.74,40.86,50.86,42.06,50.86z"
		/>
	
		<linearGradient id="SVGID_00000104666604785209622450000005373047251659010189_" gradientUnits="userSpaceOnUse" x1="15.2426" y1="48.411" x2="68.7266" y2="48.411">
		<stop  offset="0" style="stop-color:#DDBB1B"/>
		<stop  offset="1" style="stop-color:#49CA80"/>
	</linearGradient>
	<path style="fill:url(#SVGID_00000104666604785209622450000005373047251659010189_);" d="M67.9,54.29h-4.17v-4.05h-8.08v4.05h-4.17
		V42.53h4.17v4.05h8.08v-4.05h4.17V54.29z"/>
	<g>
		<path class="st0" d="M19.3,14.49c0.48-0.29,0.83-0.65,1.24-0.96c0.12-0.09,0.26-0.12,0.39,0.01c0.12,0.12,0.13,0.31,0.03,0.44
			c-0.06,0.07-0.12,0.13-0.2,0.18c-0.44,0.28-0.83,0.64-1.22,0.98c-0.2,0.16-0.42,0.27-0.61,0.43c-0.17,0.15-0.28-0.07-0.38-0.16
			c-0.09-0.08-0.05-0.21,0.05-0.29C18.84,14.91,19.12,14.73,19.3,14.49z"/>
		<path class="st0" d="M64.14,15.2c-0.11,0.01-0.24,0.11-0.33-0.05c-0.08-0.16-0.04-0.35,0.09-0.46c0.1-0.08,0.22-0.11,0.34-0.13
			c0.2-0.04,0.37,0.07,0.4,0.28c0.03,0.19-0.08,0.27-0.25,0.31c-0.05,0.01-0.1,0.03-0.16,0.04L64.14,15.2z"/>
		<g>
			<g>
				<g>
					<path class="st0" d="M8.29,52.06c-0.09-0.46-0.28-0.92-0.15-1.41c0.02-0.09,0.05-0.17,0.09-0.24c0.07-0.14,0.14-0.3,0.35-0.22
						c0.24,0.09,0.35,0.29,0.28,0.51c-0.23,0.66-0.06,1.23,0.4,1.73c0.09,0.09,0.19,0.15,0.32,0.17c0.33,0.07,0.65,0.01,0.97-0.12
						c0.24-0.11,0.51-0.16,0.76-0.25c0.1-0.04,0.24-0.02,0.27,0.14c0.02,0.16,0.14,0.34-0.12,0.42c-0.53,0.17-1.04,0.36-1.58,0.49
						c-0.36,0.08-0.72-0.06-0.99-0.32C8.6,52.72,8.39,52.42,8.29,52.06z"/>
					<path class="st0" d="M13.26,56.21c-0.01,0.17-0.07,0.3-0.25,0.36c-0.2,0.06-0.29,0.02-0.38-0.18c-0.29-0.66-0.6-1.32-0.91-1.99
						c-0.08-0.18-0.2-0.2-0.39-0.12c-0.16,0.07-0.23,0.16-0.15,0.35c0.23,0.56,0.46,1.12,0.74,1.67c0.08,0.17,0.04,0.26-0.13,0.33
						c-0.26,0.12-0.33,0.12-0.42-0.08c-0.25-0.52-0.48-1.04-0.73-1.56c-0.11-0.24-0.21-0.29-0.41-0.2
						c-0.22,0.09-0.27,0.29-0.12,0.51c0.25,0.37,0.42,0.79,0.56,1.21c0.01,0.04,0.02,0.09,0.05,0.11c0.2,0.17,0.25,0.4,0.3,0.65
						c0.04,0.18-0.05,0.24-0.18,0.3c-0.15,0.07-0.26,0.02-0.33-0.1c-0.22-0.42-0.42-0.85-0.61-1.28c-0.21-0.43-0.38-0.88-0.6-1.31
						c-0.09-0.17-0.04-0.26,0.1-0.37c0.24-0.18,0.49-0.27,0.76-0.35c0.26-0.08,0.45-0.28,0.7-0.37c0.25-0.09,0.5-0.16,0.72-0.31
						c0.17-0.12,0.3-0.05,0.41,0.14c0.18,0.36,0.3,0.76,0.57,1.07L13.26,56.21z"/>
					<path class="st0" d="M13.12,61.77c-0.13-0.17-0.13-0.34-0.02-0.56c0.15-0.27,0.15-0.55-0.04-0.82
						c-0.24-0.36-0.48-0.73-0.7-1.11c-0.13-0.23-0.31-0.32-0.56-0.31c-0.31,0-0.57-0.08-0.71-0.39c-0.1-0.21-0.05-0.32,0.17-0.32
						c0.46-0.01,0.92,0.08,1.38,0.09c0.5,0.01,1,0.05,1.5,0.08c0.07,0,0.14,0.01,0.2,0.02c0.32,0.07,0.45,0.32,0.35,0.64
						c-0.05,0.16-0.15,0.31-0.22,0.45c-0.13,0.27-0.25,0.56-0.33,0.85c-0.15,0.49-0.42,0.93-0.58,1.42
						C13.46,62.07,13.3,62.05,13.12,61.77z M13.22,59.49c0.06,0.09,0.11,0.19,0.18,0.27c0.14,0.18,0.25,0.16,0.33-0.05
						c0.06-0.16,0.1-0.31,0.18-0.46c0.08-0.14,0.04-0.23-0.13-0.22c-0.21,0.01-0.41-0.01-0.61-0.03c-0.15,0-0.2,0.07-0.13,0.21
						C13.09,59.31,13.16,59.4,13.22,59.49z"/>
					<path class="st0" d="M14.94,62.53c-0.17,0.15-0.35,0.3-0.53,0.44c-0.14,0.12-0.27,0.11-0.39-0.02
						c-0.12-0.14-0.15-0.27-0.01-0.41c0.22-0.23,0.48-0.41,0.72-0.61c0.39-0.32,0.76-0.66,1.14-1c0.13-0.12,0.4-0.04,0.47,0.14
						c0.04,0.14,0.08,0.28,0.06,0.42c-0.07,0.56-0.01,1.14-0.09,1.71c-0.03,0.21-0.02,0.43-0.01,0.65c0.01,0.05-0.02,0.12,0.05,0.15
						c0.06,0.02,0.12-0.01,0.17-0.05c0.11-0.1,0.19-0.23,0.32-0.31c0.29-0.17,0.46-0.5,0.79-0.63c0.19-0.08,0.3-0.03,0.4,0.11
						c0.1,0.15,0.04,0.27-0.09,0.37l-1.11,0.93c-0.22,0.18-0.42,0.38-0.65,0.55c-0.11,0.08-0.2,0.18-0.34,0.11
						c-0.14-0.07-0.25-0.18-0.25-0.34c0-0.26-0.02-0.53,0.02-0.79c0.06-0.38,0.03-0.77,0.06-1.15l0.03-0.55
						c0-0.07,0.05-0.17-0.04-0.22c-0.08-0.04-0.14,0.04-0.19,0.09C15.29,62.23,15.12,62.38,14.94,62.53L14.94,62.53z"/>
					<path class="st0" d="M21.7,67.72c-0.06,0.07-0.11,0.15-0.18,0.22c-0.15,0.13-0.31,0.18-0.5,0.1c-0.29-0.12-0.6-0.22-0.82-0.47
						c-0.03-0.03-0.06-0.03-0.1-0.02c-0.05,0.03-0.04,0.08-0.04,0.13c0,0.3,0.16,0.54,0.31,0.78c0.14,0.22,0.31,0.4,0.5,0.58
						c0.14,0.13,0.11,0.26-0.01,0.39c-0.12,0.12-0.24,0.13-0.38,0.02c-0.53-0.45-0.91-1-1.07-1.68c-0.05-0.18-0.02-0.36,0.02-0.55
						c0.05-0.2-0.02-0.36-0.19-0.47c-0.16-0.09-0.3-0.04-0.44,0.09c-0.15,0.14-0.29,0.28-0.39,0.47c-0.07,0.12-0.17,0.13-0.28,0.09
						c-0.2-0.06-0.32-0.35-0.18-0.5c0.27-0.29,0.46-0.63,0.75-0.89c0.14-0.13,0.25-0.31,0.38-0.46c0.18-0.2,0.36-0.41,0.56-0.59
						c0.09-0.09,0.22-0.07,0.33,0.04c0.16,0.16,0.31,0.31,0.49,0.45c0.4,0.3,0.76,0.65,1.16,0.95
						C22.07,66.72,22.08,67.26,21.7,67.72z M20.57,66.32c-0.19-0.16-0.38-0.33-0.58-0.49c-0.14-0.11-0.26-0.08-0.4,0.08
						c-0.11,0.13-0.12,0.25,0.02,0.37c0.16,0.13,0.33,0.27,0.48,0.41c0.25,0.23,0.53,0.44,0.81,0.63c0.09,0.05,0.23,0.08,0.32-0.02
						c0.1-0.09,0.1-0.21,0.04-0.33c-0.04-0.08-0.09-0.14-0.15-0.19L20.57,66.32z"/>
					<path class="st0" d="M22.9,71.07c-0.36-0.27-0.74-0.51-1-0.9c-0.25-0.38-0.22-0.75-0.08-1.12c0.08-0.22,0.23-0.42,0.38-0.61
						c0.4-0.5,1.05-0.61,1.62-0.31c0.24,0.12,0.48,0.24,0.71,0.37c0.53,0.31,0.99,0.7,1.07,1.36c0.02,0.22,0.02,0.44-0.12,0.64
						c-0.15,0.21-0.23,0.45-0.41,0.65c-0.32,0.35-0.72,0.46-1.16,0.36C23.56,71.43,23.21,71.3,22.9,71.07z M22.52,69.08
						c-0.1,0.24-0.23,0.54,0.02,0.89c0.19,0.25,0.43,0.4,0.67,0.57c0.25,0.18,0.52,0.35,0.87,0.32c0.44-0.03,0.82-0.31,0.88-0.73
						c0.03-0.24-0.08-0.47-0.24-0.66c-0.29-0.34-0.69-0.55-1.08-0.75C23.22,68.51,22.77,68.66,22.52,69.08z"/>
					<path class="st0" d="M28.47,70.68c0.16,0.07,0.32,0.15,0.47,0.22c0.49,0.23,0.57,0.74,0.35,1.18
						c-0.04,0.08-0.07,0.18-0.16,0.23c-0.13,0.09-0.13,0.19-0.07,0.32c0.16,0.29,0.05,0.55-0.11,0.78c-0.3,0.46-0.65,0.5-1.12,0.28
						c-0.63-0.29-1.25-0.58-1.88-0.87c-0.08-0.04-0.15-0.06-0.23-0.09c-0.36-0.1-0.35-0.29-0.24-0.56c0.13-0.33,0.33-0.63,0.46-0.97
						c0.1-0.24,0.16-0.52,0.34-0.72c0.07-0.08,0.11-0.19,0.13-0.29c0.06-0.29,0.28-0.35,0.54-0.22
						C27.45,70.2,27.96,70.44,28.47,70.68z M26.6,71.8c-0.14-0.06-0.27-0.06-0.35,0.09c-0.08,0.17-0.05,0.36,0.1,0.43
						c0.53,0.23,1.02,0.49,1.54,0.75c0.18,0.09,0.46,0.03,0.53-0.13c0.07-0.14-0.02-0.3-0.24-0.4l-1.23-0.58L26.6,71.8z
						 M27.61,70.92c-0.16-0.07-0.29-0.14-0.42-0.2c-0.2-0.09-0.39-0.03-0.45,0.13c-0.07,0.2,0.02,0.4,0.24,0.45
						c0.15,0.04,0.27,0.11,0.4,0.17c0.32,0.14,0.61,0.34,0.95,0.43c0.17,0.04,0.29-0.02,0.38-0.13c0.08-0.1-0.01-0.2-0.07-0.28
						c-0.06-0.1-0.14-0.18-0.26-0.21C28.09,71.2,27.85,71.01,27.61,70.92z"/>
					<path class="st0" d="M33.44,72.47c0.12,0.12,0.17,0.25,0.1,0.43c-0.09,0.19-0.18,0.23-0.39,0.15
						c-0.69-0.23-1.38-0.45-2.08-0.68c-0.18-0.06-0.28,0.01-0.35,0.21c-0.05,0.17-0.04,0.28,0.16,0.35
						c0.57,0.21,1.14,0.42,1.73,0.59c0.18,0.05,0.21,0.14,0.15,0.32c-0.09,0.27-0.14,0.32-0.34,0.26c-0.55-0.17-1.1-0.35-1.64-0.52
						c-0.25-0.08-0.35-0.04-0.42,0.17c-0.08,0.22,0.03,0.4,0.29,0.44c0.44,0.07,0.86,0.22,1.27,0.41c0.04,0.02,0.08,0.04,0.11,0.04
						c0.26-0.04,0.46,0.09,0.68,0.22c0.16,0.09,0.15,0.2,0.1,0.34c-0.05,0.15-0.16,0.21-0.3,0.17c-0.45-0.12-0.91-0.27-1.35-0.41
						c-0.46-0.14-0.91-0.32-1.37-0.45c-0.18-0.05-0.22-0.15-0.2-0.33c0.03-0.29,0.13-0.55,0.26-0.8c0.12-0.24,0.1-0.52,0.2-0.77
						c0.1-0.24,0.22-0.47,0.26-0.74c0.03-0.21,0.16-0.26,0.38-0.2c0.39,0.11,0.76,0.29,1.17,0.31L33.44,72.47z"/>
					<path class="st0" d="M37.26,74.22c-0.02,0.09-0.02,0.19-0.05,0.28c-0.06,0.19-0.18,0.31-0.39,0.33c-0.32,0.04-0.63,0.1-0.94,0
						c-0.04-0.01-0.07,0-0.09,0.03c-0.03,0.05,0.01,0.09,0.03,0.13c0.15,0.26,0.4,0.39,0.66,0.53c0.23,0.12,0.47,0.19,0.72,0.26
						c0.18,0.04,0.23,0.17,0.18,0.34c-0.04,0.17-0.15,0.23-0.32,0.2c-0.68-0.13-1.28-0.42-1.76-0.93c-0.13-0.14-0.2-0.31-0.25-0.48
						c-0.06-0.2-0.19-0.3-0.4-0.31c-0.19,0-0.28,0.11-0.33,0.29c-0.06,0.2-0.12,0.39-0.11,0.6c0,0.14-0.09,0.2-0.2,0.22
						c-0.21,0.05-0.45-0.15-0.4-0.35c0.09-0.38,0.09-0.78,0.22-1.15c0.06-0.19,0.06-0.39,0.1-0.59c0.06-0.26,0.11-0.53,0.19-0.79
						c0.04-0.12,0.16-0.17,0.3-0.13c0.21,0.06,0.43,0.12,0.65,0.15c0.49,0.07,0.98,0.19,1.48,0.25
						C37.09,73.17,37.37,73.63,37.26,74.22z M35.59,73.56c-0.24-0.04-0.49-0.1-0.74-0.14c-0.18-0.03-0.27,0.06-0.31,0.26
						c-0.04,0.17,0.02,0.28,0.2,0.31c0.21,0.03,0.41,0.07,0.62,0.12c0.33,0.08,0.67,0.12,1.02,0.15c0.11,0,0.24-0.04,0.27-0.17
						c0.04-0.13-0.01-0.23-0.13-0.31c-0.07-0.05-0.14-0.08-0.22-0.09L35.59,73.56z"/>
					<path class="st0" d="M40.01,75.09c-0.02,0.36-0.04,0.72-0.07,1.08c-0.02,0.28-0.13,0.35-0.38,0.33
						c-0.12-0.01-0.19-0.06-0.19-0.18c0-0.06-0.03-0.12-0.02-0.18c0.04-0.46,0.06-0.92,0.06-1.37c0-0.16,0.04-0.32,0.02-0.48
						c-0.01-0.14-0.08-0.23-0.24-0.23c-0.32,0.01-0.64-0.09-0.97-0.06c-0.13,0.01-0.25-0.02-0.25-0.19
						c-0.01-0.21,0.08-0.38,0.23-0.36c0.54,0.08,1.14,0.06,1.68,0.1c0.48,0.03,1,0.1,1.48,0.09c0.12,0,0.23,0.03,0.22,0.17
						c0,0.16,0,0.3-0.2,0.35c-0.07,0.02-0.15,0.02-0.22,0.02l-0.76-0.05c-0.25-0.02-0.35,0.06-0.37,0.31
						C40.03,74.66,40.03,74.87,40.01,75.09L40.01,75.09z"/>
					<path class="st0" d="M47.24,74.09c0.01,0.09,0.03,0.19,0.03,0.28c0,0.2-0.08,0.35-0.27,0.43c-0.29,0.13-0.57,0.29-0.9,0.27
						c-0.04,0-0.06,0.02-0.08,0.06c-0.02,0.06,0.03,0.09,0.06,0.12c0.22,0.21,0.5,0.25,0.78,0.31c0.25,0.05,0.51,0.05,0.76,0.03
						c0.19-0.01,0.27,0.1,0.27,0.27c0.01,0.17-0.07,0.26-0.24,0.29c-0.69,0.08-1.35-0.02-1.96-0.37c-0.17-0.09-0.28-0.23-0.39-0.39
						c-0.12-0.18-0.27-0.23-0.47-0.18c-0.18,0.05-0.23,0.19-0.23,0.38c0,0.21,0,0.41,0.07,0.6c0.04,0.13-0.02,0.21-0.12,0.27
						c-0.18,0.11-0.47-0.01-0.49-0.22c-0.02-0.39-0.14-0.77-0.13-1.16c0-0.19-0.06-0.39-0.08-0.59c-0.02-0.27-0.05-0.54-0.05-0.81
						c0-0.13,0.1-0.21,0.25-0.21c0.22,0,0.44-0.01,0.66-0.05c0.49-0.08,0.99-0.11,1.49-0.19C46.77,73.13,47.17,73.5,47.24,74.09z
						 M45.45,73.95c-0.25,0.03-0.5,0.05-0.75,0.09c-0.18,0.03-0.24,0.13-0.22,0.34c0.01,0.17,0.1,0.26,0.28,0.24
						c0.21-0.03,0.42-0.05,0.63-0.07c0.34-0.02,0.68-0.08,1.02-0.16c0.1-0.03,0.22-0.11,0.21-0.25c0-0.13-0.08-0.22-0.21-0.26
						c-0.08-0.02-0.16-0.03-0.24-0.02L45.45,73.95z"/>
					<path class="st0" d="M48.99,73.95c0.04,0.56,0.2,1.04,0.29,1.54c0.03,0.15-0.01,0.29-0.18,0.34c-0.16,0.05-0.34-0.02-0.41-0.17
						c-0.03-0.08-0.06-0.17-0.07-0.26c-0.05-0.52-0.2-1.03-0.32-1.53c-0.06-0.25-0.05-0.5-0.11-0.74c-0.05-0.22,0.19-0.22,0.32-0.26
						c0.11-0.04,0.21,0.05,0.23,0.17C48.82,73.36,48.86,73.69,48.99,73.95z"/>
					<path class="st0" d="M52.21,75c-0.13,0.06-0.26,0.03-0.4-0.07c-0.61-0.46-1.23-0.91-1.83-1.38c-0.16-0.12-0.32-0.24-0.48-0.37
						c-0.1-0.08-0.21-0.17-0.17-0.32c0.05-0.15,0.21-0.17,0.34-0.17c0.19,0,0.38,0.06,0.54,0.18c0.49,0.4,1.01,0.79,1.53,1.17
						c0.22,0.16,0.29,0.14,0.38-0.12c0.15-0.41,0.24-0.84,0.4-1.25c0.08-0.2,0.12-0.43,0.2-0.64c0.09-0.25,0.28-0.37,0.51-0.45
						c0.15-0.05,0.25,0.05,0.24,0.21c-0.01,0.09-0.05,0.17-0.07,0.25c-0.18,0.59-0.35,1.18-0.57,1.75
						c-0.07,0.18-0.11,0.36-0.14,0.55C52.61,74.67,52.44,74.92,52.21,75z"/>
					<path class="st0" d="M58,72.66c-0.18,0.11-0.36,0.08-0.56-0.06c-0.24-0.19-0.52-0.22-0.82-0.08c-0.39,0.19-0.79,0.38-1.2,0.54
						c-0.25,0.1-0.36,0.27-0.39,0.51c-0.04,0.31-0.15,0.56-0.49,0.65c-0.22,0.07-0.32,0.01-0.3-0.21c0.06-0.46,0.2-0.9,0.28-1.35
						c0.08-0.5,0.19-0.98,0.29-1.47c0.01-0.07,0.03-0.13,0.05-0.2c0.11-0.31,0.38-0.4,0.69-0.26c0.16,0.08,0.28,0.19,0.42,0.28
						c0.25,0.17,0.52,0.32,0.8,0.45c0.46,0.22,0.87,0.54,1.32,0.78C58.35,72.37,58.31,72.52,58,72.66z M55.76,72.25
						c0.1-0.04,0.2-0.08,0.29-0.14c0.19-0.12,0.2-0.22,0-0.33c-0.15-0.08-0.29-0.14-0.43-0.24c-0.12-0.1-0.22-0.07-0.24,0.1
						c-0.02,0.2-0.07,0.4-0.11,0.6c-0.03,0.15,0.04,0.2,0.19,0.16C55.56,72.35,55.66,72.3,55.76,72.25z"/>
					<path class="st0" d="M59.32,68.36c0.24-0.02,0.42-0.2,0.65-0.24c0.46-0.08,0.85,0.02,1.2,0.36c0.29,0.29,0.48,0.64,0.55,1.02
						c0.06,0.37-0.03,0.75-0.34,1.06c-0.31,0.3-0.67,0.55-1.03,0.77c-0.37,0.22-0.73,0.45-1.1,0.66c-0.17,0.1-0.33,0.02-0.43-0.21
						c-0.08-0.22-0.21-0.41-0.35-0.59c-0.31-0.41-0.54-0.86-0.81-1.29c-0.18-0.29-0.16-0.31,0.06-0.54L59.32,68.36z M59.03,70.93
						c0.19,0.3,0.26,0.31,0.58,0.13c0.33-0.19,0.62-0.43,0.95-0.62c0.37-0.2,0.58-0.66,0.47-0.99c-0.18-0.5-0.49-0.82-1.07-0.66
						c-0.49,0.14-0.84,0.5-1.28,0.73c-0.04,0.02-0.07,0.05-0.12,0.07c-0.18,0.09-0.22,0.23-0.12,0.39l0.32,0.5L59.03,70.93z"/>
					<path class="st0" d="M63.48,65.19c0.17-0.04,0.31-0.01,0.41,0.15c0.11,0.18,0.09,0.28-0.08,0.41
						c-0.56,0.45-1.13,0.92-1.69,1.39c-0.15,0.12-0.14,0.25-0.01,0.41c0.11,0.14,0.21,0.18,0.38,0.05c0.49-0.37,0.97-0.74,1.43-1.14
						c0.14-0.12,0.24-0.1,0.35,0.04c0.18,0.22,0.2,0.29,0.03,0.43c-0.44,0.37-0.88,0.73-1.32,1.11c-0.2,0.17-0.22,0.28-0.09,0.45
						c0.14,0.19,0.35,0.19,0.52-0.01c0.29-0.34,0.65-0.61,1.03-0.85c0.03-0.02,0.08-0.04,0.1-0.07c0.11-0.24,0.33-0.34,0.55-0.46
						c0.17-0.09,0.24-0.02,0.34,0.1c0.1,0.12,0.09,0.25-0.02,0.34c-0.35,0.32-0.71,0.62-1.08,0.92c-0.37,0.31-0.76,0.59-1.11,0.92
						c-0.14,0.13-0.24,0.11-0.38,0c-0.23-0.18-0.39-0.4-0.54-0.65c-0.14-0.23-0.38-0.37-0.54-0.58c-0.15-0.21-0.28-0.44-0.48-0.62
						c-0.16-0.14-0.13-0.28,0.03-0.43c0.3-0.27,0.65-0.48,0.89-0.82L63.48,65.19z"/>
					<path class="st0" d="M65.89,65.68c0.16,0.16,0.34,0.31,0.5,0.48c0.13,0.13,0.14,0.25,0.02,0.39c-0.12,0.14-0.25,0.18-0.41,0.06
						c-0.25-0.19-0.46-0.43-0.69-0.65c-0.36-0.35-0.74-0.68-1.12-1.02c-0.13-0.12-0.08-0.39,0.09-0.48
						c0.13-0.06,0.27-0.11,0.41-0.11c0.57,0.01,1.13-0.12,1.71-0.11c0.22,0.01,0.43-0.03,0.64-0.07c0.05-0.01,0.12,0.01,0.14-0.07
						c0.01-0.06-0.02-0.12-0.07-0.16c-0.12-0.09-0.25-0.17-0.34-0.28c-0.21-0.27-0.55-0.4-0.71-0.72c-0.1-0.18-0.06-0.3,0.07-0.41
						c0.14-0.12,0.26-0.07,0.38,0.05l1.05,0.99c0.2,0.19,0.42,0.37,0.62,0.59c0.09,0.1,0.2,0.18,0.15,0.32
						c-0.05,0.15-0.15,0.27-0.31,0.29c-0.26,0.03-0.53,0.08-0.79,0.07c-0.39-0.02-0.76,0.06-1.15,0.07l-0.55,0.03
						c-0.07,0.01-0.18-0.03-0.21,0.07c-0.03,0.09,0.06,0.13,0.11,0.18C65.56,65.37,65.73,65.52,65.89,65.68L65.89,65.68z"/>
					<path class="st0" d="M68.54,59.33c0.15-0.08,0.3-0.08,0.43,0.05c0.15,0.15,0.15,0.25,0.02,0.42c-0.44,0.57-0.87,1.16-1.31,1.75
						c-0.12,0.16-0.08,0.27,0.08,0.4c0.14,0.11,0.25,0.12,0.38-0.04c0.38-0.47,0.76-0.95,1.12-1.45c0.11-0.15,0.21-0.16,0.35-0.04
						c0.23,0.18,0.26,0.23,0.13,0.41c-0.34,0.46-0.69,0.92-1.02,1.39c-0.15,0.21-0.15,0.32,0.02,0.46c0.18,0.15,0.39,0.1,0.51-0.13
						c0.21-0.4,0.49-0.74,0.79-1.07c0.03-0.03,0.07-0.06,0.08-0.09c0.05-0.26,0.24-0.41,0.42-0.57c0.14-0.12,0.23-0.07,0.35,0.01
						c0.13,0.1,0.15,0.22,0.07,0.34c-0.26,0.39-0.55,0.77-0.83,1.15c-0.28,0.39-0.6,0.76-0.86,1.16c-0.1,0.16-0.21,0.16-0.37,0.09
						c-0.27-0.12-0.47-0.3-0.67-0.5c-0.19-0.19-0.46-0.26-0.66-0.44c-0.2-0.17-0.38-0.36-0.62-0.49c-0.19-0.09-0.19-0.24-0.07-0.42
						c0.23-0.33,0.52-0.63,0.67-1.01L68.54,59.33z"/>
					<path class="st0" d="M70.32,58.69c0.43,0.35,0.89,0.57,1.31,0.85c0.13,0.08,0.2,0.21,0.12,0.37c-0.08,0.15-0.25,0.23-0.41,0.18
						c-0.08-0.03-0.16-0.07-0.23-0.13c-0.41-0.32-0.88-0.57-1.33-0.83c-0.22-0.13-0.4-0.3-0.62-0.43c-0.2-0.11-0.02-0.29,0.03-0.41
						c0.05-0.11,0.18-0.11,0.29-0.05C69.78,58.39,70.04,58.59,70.32,58.69z"/>
					<path class="st0" d="M72.11,54.85c0.08,0.04,0.17,0.07,0.25,0.13c0.16,0.11,0.25,0.25,0.21,0.46c-0.05,0.31-0.08,0.64-0.27,0.9
						c-0.02,0.03-0.01,0.07,0.01,0.1c0.04,0.04,0.09,0.02,0.14,0.01c0.29-0.07,0.48-0.28,0.69-0.48c0.18-0.18,0.32-0.4,0.44-0.62
						c0.09-0.16,0.23-0.17,0.38-0.08c0.15,0.09,0.18,0.21,0.1,0.36c-0.31,0.62-0.76,1.11-1.38,1.43c-0.17,0.09-0.35,0.1-0.54,0.11
						c-0.21,0-0.35,0.1-0.41,0.3c-0.05,0.18,0.03,0.3,0.19,0.4c0.17,0.11,0.34,0.22,0.54,0.27c0.14,0.04,0.17,0.14,0.15,0.25
						c-0.01,0.21-0.27,0.39-0.45,0.29c-0.34-0.2-0.72-0.3-1.04-0.53c-0.16-0.11-0.36-0.17-0.54-0.26c-0.24-0.13-0.48-0.25-0.71-0.4
						c-0.11-0.07-0.12-0.2-0.04-0.33c0.12-0.19,0.23-0.38,0.32-0.58c0.2-0.45,0.46-0.89,0.66-1.35
						C71.05,54.72,71.58,54.58,72.11,54.85z M71.01,56.27c-0.11,0.22-0.23,0.45-0.34,0.68c-0.08,0.17-0.02,0.27,0.17,0.37
						c0.15,0.08,0.27,0.06,0.35-0.1c0.09-0.19,0.18-0.38,0.29-0.56c0.17-0.3,0.31-0.61,0.43-0.94c0.03-0.1,0.03-0.24-0.09-0.31
						c-0.11-0.07-0.23-0.05-0.33,0.04c-0.06,0.05-0.11,0.12-0.15,0.19L71.01,56.27z"/>
					<path class="st0" d="M75.74,50.81c-0.05,0.21-0.18,0.32-0.42,0.36c-0.3,0.05-0.52,0.23-0.61,0.55
						c-0.13,0.42-0.26,0.83-0.42,1.24c-0.09,0.25-0.05,0.44,0.11,0.63c0.2,0.24,0.3,0.49,0.15,0.8c-0.1,0.21-0.22,0.24-0.36,0.07
						c-0.3-0.36-0.52-0.76-0.8-1.12c-0.31-0.4-0.59-0.8-0.88-1.21c-0.04-0.05-0.08-0.11-0.11-0.17c-0.15-0.29-0.04-0.55,0.28-0.68
						c0.16-0.06,0.33-0.07,0.49-0.12c0.3-0.07,0.59-0.16,0.87-0.28c0.48-0.19,0.99-0.26,1.47-0.44
						C75.76,50.36,75.85,50.5,75.74,50.81z M73.92,52.18c0.03-0.1,0.08-0.2,0.1-0.31c0.05-0.22-0.03-0.3-0.25-0.22
						c-0.16,0.05-0.3,0.12-0.47,0.15c-0.16,0.02-0.2,0.11-0.09,0.24c0.13,0.16,0.25,0.32,0.36,0.49c0.09,0.12,0.18,0.11,0.24-0.03
						C73.86,52.39,73.88,52.28,73.92,52.18z"/>
				</g>
			</g>
			<g>
				<g>
					<path class="st0" d="M9.06,31.54c0.16-0.17,0.18-0.43,0.33-0.61c0.29-0.37,0.65-0.55,1.14-0.52c0.41,0.03,0.78,0.16,1.08,0.4
						c0.29,0.24,0.47,0.59,0.45,1.02c-0.03,0.43-0.14,0.85-0.26,1.26c-0.13,0.41-0.25,0.82-0.38,1.22
						c-0.07,0.19-0.24,0.24-0.46,0.13c-0.21-0.11-0.43-0.16-0.65-0.21c-0.5-0.1-0.98-0.29-1.46-0.43c-0.32-0.1-0.33-0.12-0.31-0.45
						L9.06,31.54z M10.55,33.66c0.35,0.1,0.4,0.06,0.52-0.28c0.12-0.36,0.18-0.73,0.3-1.09c0.14-0.4,0-0.87-0.31-1.05
						c-0.47-0.26-0.91-0.29-1.24,0.22c-0.27,0.43-0.3,0.93-0.47,1.39c-0.02,0.04-0.02,0.09-0.04,0.13
						c-0.08,0.18-0.02,0.32,0.17,0.37l0.57,0.16L10.55,33.66z"/>
					<path class="st0" d="M11.75,27.78c0.48,0.29,0.96,0.44,1.42,0.66c0.14,0.06,0.23,0.17,0.17,0.35
						c-0.05,0.16-0.21,0.26-0.38,0.23c-0.09-0.02-0.17-0.05-0.25-0.09c-0.45-0.26-0.95-0.44-1.43-0.63
						c-0.23-0.1-0.44-0.25-0.67-0.34c-0.21-0.09-0.06-0.28-0.03-0.41c0.03-0.11,0.16-0.14,0.28-0.09
						C11.17,27.56,11.46,27.72,11.75,27.78z"/>
					<path class="st0" d="M15.25,25.06c-0.27,0.44-0.49,0.81-0.81,1.1c-0.16,0.15-0.35,0.25-0.55,0.29
						c-0.15,0.03-0.31,0.03-0.38-0.17c-0.06-0.19,0.01-0.38,0.16-0.48c0.13-0.09,0.29-0.1,0.42-0.21c0.39-0.35,0.65-0.79,0.84-1.27
						c0.03-0.09,0.09-0.17,0.11-0.26c0.02-0.08,0.06-0.19-0.03-0.24c-0.08-0.06-0.18-0.01-0.24,0.05c-0.16,0.16-0.34,0.3-0.47,0.48
						c-0.24,0.37-0.53,0.7-0.86,0.99c-0.2,0.18-0.43,0.37-0.74,0.3c-0.37-0.09-0.59-0.39-0.56-0.78c0.04-0.44,0.2-0.85,0.45-1.21
						c0.13-0.18,0.24-0.38,0.37-0.56c0.15-0.2,0.35-0.32,0.53-0.46c0.15-0.13,0.34-0.15,0.53-0.14c0.1,0.01,0.14,0.07,0.17,0.15
						c0.05,0.15,0.07,0.29-0.07,0.39c-0.07,0.06-0.14,0.11-0.22,0.15c-0.54,0.24-0.82,0.71-1.02,1.24c-0.06,0.13-0.19,0.33,0,0.44
						c0.17,0.1,0.31-0.07,0.39-0.18c0.24-0.29,0.48-0.59,0.7-0.91c0.18-0.25,0.42-0.47,0.72-0.64c0.32-0.17,0.59-0.1,0.84,0.11
						c0.23,0.2,0.22,0.49,0.15,0.73C15.58,24.38,15.51,24.81,15.25,25.06z"/>
					<path class="st0" d="M17.05,17.78c0.16-0.07,0.3-0.06,0.43,0.08c0.14,0.16,0.13,0.26-0.01,0.42c-0.48,0.54-0.97,1.09-1.45,1.64
						c-0.13,0.15-0.1,0.27,0.05,0.4c0.13,0.12,0.24,0.14,0.38-0.01c0.42-0.44,0.84-0.88,1.23-1.36c0.12-0.15,0.22-0.14,0.35-0.02
						c0.21,0.19,0.24,0.25,0.1,0.42c-0.37,0.44-0.76,0.87-1.13,1.3c-0.17,0.2-0.18,0.31-0.02,0.46c0.17,0.16,0.38,0.13,0.51-0.09
						c0.24-0.38,0.55-0.7,0.88-1c0.03-0.03,0.07-0.06,0.08-0.09c0.07-0.26,0.27-0.39,0.47-0.54c0.15-0.11,0.24-0.06,0.35,0.04
						c0.12,0.11,0.13,0.23,0.04,0.34c-0.29,0.37-0.61,0.73-0.91,1.08c-0.31,0.37-0.65,0.71-0.95,1.08
						c-0.12,0.15-0.22,0.14-0.38,0.06c-0.26-0.14-0.45-0.33-0.63-0.55c-0.17-0.2-0.44-0.3-0.62-0.49c-0.18-0.19-0.35-0.39-0.58-0.53
						c-0.18-0.11-0.17-0.25-0.04-0.43c0.25-0.31,0.57-0.58,0.75-0.95L17.05,17.78z"/>
					<path class="st0" d="M20.59,17.22c0.14,0.17,0.3,0.35,0.44,0.53c0.12,0.14,0.11,0.27-0.03,0.39c-0.14,0.12-0.27,0.15-0.41,0.01
						c-0.23-0.22-0.41-0.48-0.61-0.73c-0.32-0.39-0.65-0.77-0.99-1.15c-0.12-0.13-0.04-0.4,0.15-0.46c0.14-0.04,0.28-0.08,0.42-0.06
						c0.56,0.07,1.14,0.02,1.71,0.1c0.21,0.03,0.43,0.02,0.65,0.01c0.05-0.01,0.12,0.02,0.15-0.05c0.02-0.06,0-0.12-0.05-0.17
						c-0.1-0.11-0.23-0.2-0.31-0.32c-0.17-0.3-0.49-0.47-0.62-0.8c-0.08-0.19-0.03-0.3,0.12-0.4c0.15-0.1,0.27-0.03,0.37,0.09
						l0.92,1.11c0.18,0.22,0.38,0.42,0.54,0.66c0.08,0.11,0.18,0.21,0.11,0.34c-0.07,0.14-0.18,0.25-0.35,0.25
						c-0.26,0-0.54,0.01-0.79-0.03c-0.38-0.06-0.77-0.03-1.15-0.07l-0.55-0.03c-0.07,0-0.17-0.05-0.22,0.04
						c-0.04,0.08,0.04,0.14,0.09,0.19C20.3,16.87,20.45,17.04,20.59,17.22L20.59,17.22z"/>
					<path class="st0" d="M28.12,13.31c-0.17,0.12-0.35,0.11-0.56-0.01c-0.26-0.17-0.54-0.18-0.82-0.01
						c-0.37,0.22-0.75,0.44-1.14,0.64c-0.24,0.12-0.33,0.3-0.34,0.55c-0.01,0.31-0.11,0.57-0.43,0.69
						c-0.21,0.09-0.32,0.04-0.31-0.18c0.02-0.46,0.12-0.91,0.16-1.37c0.03-0.5,0.1-0.99,0.16-1.49c0.01-0.07,0.02-0.14,0.03-0.2
						c0.08-0.31,0.34-0.44,0.66-0.32c0.16,0.06,0.3,0.17,0.44,0.25c0.27,0.15,0.55,0.27,0.84,0.38c0.48,0.18,0.91,0.46,1.39,0.66
						C28.43,13,28.41,13.15,28.12,13.31z M25.85,13.1c0.09-0.05,0.19-0.1,0.28-0.17c0.18-0.14,0.18-0.24-0.03-0.33
						c-0.15-0.07-0.31-0.11-0.45-0.21c-0.13-0.09-0.23-0.05-0.23,0.12c0,0.21-0.03,0.4-0.06,0.6c-0.01,0.15,0.06,0.2,0.2,0.14
						C25.66,13.22,25.75,13.16,25.85,13.1z"/>
					<path class="st0" d="M31.14,8.9c0.23,0.04,0.45-0.1,0.69-0.08c0.47,0.03,0.82,0.22,1.08,0.64c0.21,0.35,0.32,0.73,0.29,1.12
						c-0.03,0.38-0.21,0.72-0.58,0.95c-0.37,0.22-0.78,0.38-1.18,0.51c-0.41,0.13-0.81,0.27-1.22,0.39
						c-0.19,0.05-0.33-0.06-0.37-0.3c-0.03-0.23-0.11-0.45-0.2-0.66c-0.2-0.47-0.32-0.96-0.48-1.45c-0.1-0.32-0.09-0.34,0.19-0.51
						L31.14,8.9z M30.26,11.33c0.12,0.34,0.18,0.36,0.53,0.26c0.36-0.11,0.7-0.27,1.07-0.38c0.41-0.11,0.72-0.5,0.69-0.85
						c-0.05-0.53-0.28-0.91-0.89-0.89c-0.51,0.02-0.94,0.28-1.41,0.41c-0.04,0.01-0.08,0.03-0.13,0.04
						c-0.2,0.04-0.27,0.17-0.21,0.36l0.19,0.56L30.26,11.33z"/>
					<path class="st0" d="M37.24,10.58c-0.45,0.04-0.89,0.11-1.34-0.02c-0.44-0.12-0.66-0.42-0.8-0.79
						c-0.08-0.22-0.1-0.47-0.11-0.71c-0.02-0.64,0.39-1.15,1.01-1.3c0.26-0.07,0.52-0.14,0.78-0.19c0.6-0.12,1.21-0.12,1.7,0.32
						c0.16,0.15,0.31,0.32,0.33,0.57c0.03,0.25,0.13,0.49,0.12,0.76c-0.01,0.48-0.24,0.82-0.63,1.03
						C37.97,10.43,37.62,10.55,37.24,10.58z M35.64,9.35c0.09,0.24,0.18,0.55,0.6,0.65c0.31,0.07,0.59,0.01,0.88-0.01
						c0.31-0.03,0.62-0.08,0.86-0.33c0.31-0.31,0.42-0.77,0.18-1.13c-0.13-0.2-0.37-0.3-0.61-0.34c-0.45-0.07-0.88,0.04-1.31,0.15
						C35.79,8.45,35.55,8.86,35.64,9.35z"/>
					<path class="st0" d="M44.37,8.23c0,0.09,0.01,0.19-0.01,0.28c-0.03,0.19-0.13,0.33-0.33,0.39c-0.31,0.08-0.61,0.2-0.93,0.14
						c-0.04-0.01-0.07,0.01-0.08,0.05c-0.02,0.05,0.02,0.09,0.05,0.13c0.19,0.24,0.45,0.32,0.73,0.42c0.24,0.08,0.49,0.12,0.75,0.15
						c0.19,0.02,0.25,0.14,0.23,0.31c-0.02,0.17-0.11,0.25-0.28,0.25c-0.7-0.02-1.33-0.22-1.88-0.66c-0.15-0.12-0.24-0.27-0.32-0.44
						c-0.09-0.19-0.23-0.27-0.44-0.25c-0.18,0.03-0.26,0.15-0.29,0.34c-0.03,0.2-0.06,0.4-0.02,0.61c0.02,0.14-0.06,0.21-0.16,0.24
						c-0.2,0.08-0.47-0.08-0.45-0.29c0.03-0.39-0.03-0.78,0.04-1.17c0.03-0.19,0-0.4,0.01-0.6c0.02-0.27,0.03-0.54,0.07-0.81
						c0.02-0.13,0.13-0.19,0.28-0.17c0.22,0.03,0.44,0.05,0.66,0.05c0.5-0.01,1,0.04,1.5,0.03C44.04,7.21,44.39,7.63,44.37,8.23z
						 M42.62,7.82c-0.25-0.01-0.5-0.02-0.76-0.02c-0.18,0-0.26,0.1-0.26,0.31c-0.01,0.17,0.06,0.27,0.24,0.28
						c0.21,0,0.42,0.01,0.63,0.03c0.34,0.03,0.69,0.02,1.03-0.01c0.11-0.01,0.23-0.08,0.24-0.21c0.02-0.13-0.05-0.23-0.17-0.29
						c-0.08-0.04-0.15-0.05-0.24-0.06L42.62,7.82z"/>
					<path class="st0" d="M53.67,10.93c-0.33,0.83-0.82,1.12-1.75,0.93c-0.45-0.09-0.89-0.23-1.32-0.42
						c-0.53-0.23-0.87-0.7-0.83-1.3c0.03-0.44,0.18-0.88,0.5-1.21c0.27-0.27,0.63-0.38,1.01-0.33c0.59,0.07,1.14,0.31,1.71,0.5
						c0.35,0.12,0.56,0.39,0.72,0.71c0.05,0.1,0.02,0.2-0.05,0.27c-0.09,0.08-0.2,0.16-0.34,0.13c-0.13-0.02-0.23-0.09-0.32-0.2
						c-0.46-0.56-1.09-0.76-1.78-0.77c-0.41,0-0.68,0.25-0.76,0.64c-0.11,0.53,0.1,0.88,0.61,1.08c0.41,0.16,0.82,0.26,1.26,0.27
						c0.13,0,0.24-0.03,0.35-0.08c0.06-0.04,0.15-0.08,0.14-0.16c0-0.09-0.09-0.11-0.16-0.14c-0.2-0.06-0.88-0.28-1.08-0.34
						c-0.15-0.05-0.22-0.13-0.19-0.29c0.04-0.21,0.15-0.32,0.33-0.31c0.26,0.02,0.94,0.31,1.18,0.38c0.19,0.06,0.4,0.06,0.58,0.17
						C53.75,10.65,53.76,10.63,53.67,10.93z"/>
					<path class="st0" d="M58.82,12.8c-0.04,0.08-0.08,0.17-0.13,0.25c-0.12,0.16-0.26,0.24-0.47,0.2c-0.31-0.06-0.63-0.09-0.9-0.29
						c-0.03-0.02-0.07-0.02-0.1,0c-0.05,0.04-0.02,0.09-0.02,0.14c0.06,0.3,0.26,0.49,0.46,0.7c0.18,0.18,0.39,0.33,0.6,0.46
						c0.16,0.1,0.16,0.23,0.07,0.38c-0.09,0.15-0.21,0.17-0.36,0.09c-0.61-0.33-1.09-0.79-1.39-1.42c-0.08-0.17-0.09-0.35-0.09-0.54
						c0.01-0.21-0.09-0.35-0.28-0.42c-0.18-0.06-0.3,0.02-0.41,0.18c-0.12,0.17-0.23,0.33-0.29,0.54c-0.04,0.13-0.14,0.16-0.25,0.15
						c-0.21-0.02-0.38-0.28-0.28-0.46c0.2-0.34,0.32-0.71,0.56-1.03c0.11-0.16,0.18-0.36,0.27-0.53c0.14-0.23,0.27-0.47,0.42-0.7
						c0.07-0.1,0.2-0.11,0.33-0.03c0.18,0.12,0.37,0.24,0.57,0.34c0.45,0.22,0.88,0.48,1.33,0.69C58.98,11.74,59.1,12.27,58.82,12.8
						z M57.43,11.66c-0.22-0.12-0.44-0.24-0.67-0.36c-0.16-0.08-0.27-0.03-0.37,0.16c-0.09,0.15-0.07,0.27,0.09,0.36
						c0.19,0.09,0.37,0.19,0.55,0.3c0.29,0.18,0.6,0.32,0.92,0.45c0.1,0.04,0.24,0.03,0.31-0.08c0.08-0.11,0.06-0.23-0.03-0.33
						c-0.05-0.07-0.11-0.12-0.19-0.16L57.43,11.66z"/>
					<path class="st0" d="M62.8,18.24c-0.18-0.11-0.23-0.28-0.19-0.53c0.06-0.3-0.03-0.57-0.3-0.77c-0.35-0.27-0.69-0.53-1.02-0.83
						c-0.2-0.17-0.4-0.2-0.63-0.11c-0.3,0.1-0.57,0.11-0.8-0.14c-0.16-0.16-0.15-0.29,0.06-0.36c0.44-0.15,0.9-0.22,1.33-0.36
						c0.48-0.15,0.96-0.28,1.44-0.41c0.06-0.02,0.13-0.03,0.2-0.05c0.32-0.04,0.53,0.16,0.54,0.5c0,0.17-0.05,0.34-0.06,0.5
						c-0.04,0.3-0.05,0.61-0.04,0.92c0.01,0.51-0.09,1.02-0.1,1.53C63.21,18.42,63.06,18.45,62.8,18.24z M62.15,16.05
						c0.08,0.07,0.16,0.14,0.26,0.2c0.19,0.12,0.29,0.08,0.29-0.15c0.01-0.17-0.01-0.33,0.03-0.49c0.03-0.16-0.04-0.23-0.19-0.17
						c-0.19,0.07-0.39,0.12-0.58,0.17c-0.14,0.04-0.16,0.13-0.06,0.24C61.97,15.92,62.06,15.98,62.15,16.05z"/>
					<path class="st0" d="M67.11,18.38c0.23,0.29,0.43,0.6,0.7,0.86c0.18,0.17,0.29,0.39,0.46,0.56c0.08,0.09,0.18,0.17,0.26,0.26
						c0.11,0.14,0.09,0.32-0.03,0.43c-0.14,0.12-0.25,0.1-0.42-0.03c-0.37-0.27-0.55-0.69-0.86-1c-0.21-0.21-0.39-0.45-0.59-0.67
						c-0.14-0.16-0.29-0.17-0.42-0.03c-0.16,0.15-0.16,0.28-0.01,0.43c0.38,0.42,0.7,0.89,1.1,1.3c0.12,0.13,0.11,0.34,0,0.45
						c-0.12,0.11-0.34,0.09-0.46-0.05c-0.27-0.32-0.57-0.62-0.81-0.97c-0.09-0.14-0.23-0.26-0.37-0.37
						c-0.12-0.09-0.25-0.1-0.37,0.01c-0.16,0.13-0.27,0.33-0.47,0.41c-0.15,0.06-0.26,0.11-0.38-0.04
						c-0.11-0.14-0.12-0.32,0.01-0.44c0.64-0.59,1.33-1.1,1.98-1.67c0.06-0.05,0.13-0.01,0.2,0.01L67.11,18.38z"/>
					<path class="st0" d="M69.42,23.28c-0.5,0.25-0.88,0.58-1.31,0.85c-0.12,0.08-0.27,0.1-0.39-0.04
						c-0.11-0.13-0.11-0.32,0.01-0.44c0.06-0.06,0.13-0.12,0.21-0.16c0.46-0.24,0.88-0.57,1.3-0.87c0.21-0.15,0.44-0.24,0.65-0.38
						c0.18-0.13,0.27,0.1,0.36,0.19c0.08,0.09,0.03,0.21-0.07,0.28C69.91,22.9,69.62,23.06,69.42,23.28z"/>
					<path class="st0" d="M72.78,26.8c-0.03,0.16,0.06,0.3,0.11,0.44c0.11,0.33,0.06,0.63-0.09,0.92c-0.07,0.14-0.26,0.18-0.41,0.07
						c-0.14-0.1-0.23-0.24-0.2-0.4c0.16-0.8-0.24-1.4-0.73-1.95c-0.14-0.16-0.34-0.23-0.55-0.18c-0.73,0.15-0.98,0.62-0.75,1.3
						c0.08,0.24,0.21,0.48,0.32,0.7c0.1,0.19,0.25,0.38,0.46,0.49c0.12,0.07,0.23,0.14,0.33,0.25c0.13,0.16,0.12,0.33,0.01,0.49
						c-0.1,0.16-0.25,0.09-0.39,0.04c-0.65-0.2-1.01-1.05-1.28-1.62c-0.29-0.64-0.34-1.59,0.42-1.95c0.15-0.07,0.29-0.13,0.42-0.21
						c0.41-0.25,0.8-0.17,1.2,0.01c0.16,0.07,0.27,0.2,0.35,0.33c0.11,0.18,0.28,0.31,0.38,0.5L72.78,26.8z"/>
					<path class="st0" d="M71.77,32.78c-0.1-0.44-0.22-0.87-0.16-1.34c0.06-0.45,0.33-0.71,0.68-0.9c0.21-0.11,0.45-0.17,0.69-0.21
						c0.63-0.11,1.19,0.23,1.43,0.83c0.1,0.25,0.21,0.5,0.29,0.75c0.2,0.58,0.28,1.18-0.09,1.73c-0.13,0.18-0.28,0.35-0.52,0.4
						c-0.25,0.06-0.47,0.19-0.74,0.22c-0.47,0.05-0.84-0.12-1.11-0.49C72.02,33.48,71.85,33.15,71.77,32.78z M72.78,31.03
						c-0.23,0.12-0.52,0.26-0.57,0.68c-0.02,0.31,0.07,0.59,0.13,0.87c0.07,0.3,0.16,0.6,0.44,0.81c0.35,0.27,0.82,0.31,1.15,0.03
						c0.18-0.16,0.25-0.41,0.25-0.65c0.01-0.45-0.16-0.86-0.32-1.28C73.69,31.06,73.25,30.88,72.78,31.03z"/>
				</g>
			</g>
			<circle class="st0" cx="74.99" cy="41.4" r="1.37"/>
			<circle class="st0" cx="8.66" cy="41.4" r="1.37"/>
		</g>
	</g>
</g>
</svg>
