<?xml version="1.0" encoding="utf-8"?>
<!-- Generator: Adobe Illustrator 27.0.0, SVG Export Plug-In . SVG Version: 6.00 Build 0)  -->
<svg version="1.1" id="Capa_1" xmlns="http://www.w3.org/2000/svg" xmlns:xlink="http://www.w3.org/1999/xlink" x="0px" y="0px"
	 viewBox="0 0 40.18 40.18" style="enable-background:new 0 0 40.18 40.18;" xml:space="preserve">
<style type="text/css">
	.st0{fill:#090E38;}
	.st1{fill:url(#SVGID_1_);}
	.st2{fill:#161A42;}
	.st3{fill:url(#SVGID_00000160894303789236957250000003264094103304893080_);}
	.st4{fill:url(#SVGID_00000106117145180990242450000011171513559878747784_);}
	.st5{fill:#FFFFFF;}
	.st6{fill:#E9E9EB;}
	.st7{fill:#2280C3;}
	.st8{fill:#263A6B;}
	.st9{fill:#13183B;}
	.st10{fill:#EBEBFF;}
	.st11{fill:#15336C;}
	.st12{fill:#121D3E;}
	.st13{fill:#D8CE9E;}
	.st14{fill:#5F485A;}
	.st15{fill:#17316F;}
	.st16{fill:#0A1C4F;}
	.st17{fill:#1E1A55;}
	.st18{fill:#12193B;}
	.st19{fill:#D8CD9C;}
	.st20{fill:#544A55;}
	.st21{fill:#E0E1E3;}
	.st22{fill:#15193A;}
	.st23{fill:#D6CC89;}
	.st24{fill:#434642;}
	.st25{fill:#131543;}
	.st26{fill:#3E3B38;}
	.st27{fill:#181940;}
	.st28{fill:#D7CE9D;}
	.st29{fill:#806D64;}
	.st30{opacity:0.7;fill:#6FC4D8;}
	.st31{fill:#805AE4;}
	.st32{fill:#ECB40A;}
	.st33{fill:#10B78E;}
	.st34{fill:url(#SVGID_00000060720054802295991900000001982656262970073773_);}
	.st35{fill:url(#SVGID_00000007388815395997729030000012133343492816110774_);}
	.st36{fill:url(#SVGID_00000101794440078868253720000003517101852762038188_);}
	.st37{fill:url(#SVGID_00000093159580040344561100000010455480396242406067_);}
	.st38{fill:url(#SVGID_00000044896135846498706370000003228752942985657734_);}
	.st39{fill:url(#SVGID_00000035497385405559291200000010311633118675228576_);}
	.st40{fill:url(#SVGID_00000117667497461085953610000006222854712470638480_);}
	.st41{fill:url(#SVGID_00000165193558920665551200000014375744884004200625_);}
	.st42{fill:url(#SVGID_00000062172913938010207580000000593267604720517279_);}
	.st43{fill:url(#SVGID_00000130627594033437526420000005552583481789297322_);}
	.st44{fill:url(#SVGID_00000085959713400643332050000000748420568166025600_);}
	.st45{fill:url(#SVGID_00000078030446306367264670000009780257885058252948_);}
	.st46{fill:url(#SVGID_00000138574605700010018270000010466070227662941340_);}
	.st47{fill:url(#SVGID_00000143599438824381803470000005356673477036082317_);}
	.st48{fill:url(#SVGID_00000122712385906646419700000008361175499628105135_);}
	.st49{fill:url(#SVGID_00000026877122802041427090000003010543981924981644_);}
	.st50{fill:url(#SVGID_00000150088188155354176600000004505578297382173836_);}
	.st51{fill:url(#SVGID_00000034057491800801449370000014289159990744554368_);}
	.st52{fill:url(#SVGID_00000163040713188086370700000015090261327661190807_);}
	.st53{fill:url(#SVGID_00000078750840901187246940000012929296421914626984_);}
	.st54{fill:url(#SVGID_00000134971668608969734620000002296944046969300637_);}
	.st55{fill:url(#SVGID_00000080202149132719984740000013507296648417127086_);}
	.st56{fill:url(#SVGID_00000013175714157956712930000009693802176184348082_);}
	.st57{fill:url(#SVGID_00000074403383310121517940000011162476533676453018_);}
	.st58{fill:url(#SVGID_00000166677873214010978250000010340583594079979658_);}
	.st59{fill:url(#SVGID_00000013880802288146322160000013962675994404212106_);}
	.st60{clip-path:url(#SVGID_00000170252972148723824270000011630420781356822174_);fill:#FFFFFF;}
	.st61{fill:none;stroke:#805AE4;stroke-miterlimit:10;}
	.st62{fill:url(#SVGID_00000033334720047946509550000001446770433650512799_);}
	.st63{fill:url(#SVGID_00000016778293780524001330000005516513475938225337_);}
	.st64{fill:url(#SVGID_00000001624171020145523740000002894862242628027289_);}
	.st65{fill:url(#SVGID_00000119823021536925224820000003658831175522620344_);}
	.st66{fill:url(#SVGID_00000005265830108762480600000013258451929906728114_);}
	.st67{fill:url(#SVGID_00000104695290496155136440000011691700087240600476_);}
	.st68{fill:url(#SVGID_00000180330309782176301030000012575245225769388443_);}
	.st69{fill:url(#SVGID_00000163074623690451284100000009878520154395245755_);}
	.st70{fill:url(#SVGID_00000161614116525410072650000016698001048833384354_);}
	.st71{fill:url(#SVGID_00000104704908717592646660000011959945865982992055_);}
	.st72{fill:url(#SVGID_00000173141313587093298450000015723332214647140231_);}
	.st73{fill:url(#SVGID_00000167366597557173255440000011552603266267649964_);}
	.st74{fill:#DDBB1B;}
	.st75{fill:#49CA80;}
	.st76{fill:#CF78C6;}
	.st77{fill:#BDACFF;}
	.st78{fill:#37368D;}
	.st79{fill:#E11E5E;}
	.st80{fill:#EB9F49;}
	.st81{fill:#FF6B6B;}
	.st82{fill:#38ABE6;}
	.st83{fill:url(#SVGID_00000170244502985025205980000000589212062141981628_);}
	.st84{fill:url(#SVGID_00000034088290042010201490000001100061722141314220_);}
	.st85{fill:url(#SVGID_00000147209001887280825830000015395527674114218424_);}
	.st86{fill:#E78A7E;}
	.st87{fill:#E69C78;}
	.st88{fill:#FF80E7;}
	.st89{fill:#E86480;}
	.st90{fill:url(#SVGID_00000114049400359076414110000011380237104085224622_);}
	.st91{fill:url(#SVGID_00000014634308545201279070000011702405291214888070_);}
	.st92{fill:url(#SVGID_00000183958485086223199630000010160955196111604637_);}
	.st93{fill:url(#SVGID_00000090273854432479159950000013529494044971325313_);}
	.st94{fill:url(#SVGID_00000171710990904358624950000012654311258654705849_);}
	.st95{fill:url(#SVGID_00000020388908157445691730000010286273078973941931_);}
	.st96{fill:url(#SVGID_00000031925794740663546980000001138009190185367959_);}
	.st97{fill:url(#SVGID_00000176002193045588456640000008599284423346199727_);}
	.st98{fill:url(#SVGID_00000018214885329916118170000002902341444314028195_);}
	.st99{fill:url(#SVGID_00000088120877953351192360000009538186457347492543_);}
	.st100{fill:url(#SVGID_00000077318952436652351790000008292962831898992285_);}
	.st101{fill:url(#SVGID_00000148643076848374726240000002016150444600692132_);}
	.st102{fill:url(#SVGID_00000053542899770630729890000007891797059968693410_);}
	.st103{fill:url(#SVGID_00000038390140460696730400000017034627911802919832_);}
	.st104{fill:url(#SVGID_00000129200987803729272870000002183886174085067656_);}
	.st105{fill:url(#SVGID_00000095297659485579469010000015951138288663602348_);}
	.st106{fill:url(#SVGID_00000036233331414760577200000013985581609591287699_);}
	.st107{fill:url(#SVGID_00000052814416635172532000000000379557564525201313_);}
	.st108{fill:url(#SVGID_00000072272060451482143670000005460984254723944363_);}
	.st109{fill:url(#SVGID_00000113324057601511886970000001765480075899319735_);}
	.st110{fill:url(#SVGID_00000017503903805049462220000017957572279160342670_);}
	.st111{fill:url(#SVGID_00000019649277810334751140000015937028295792100255_);}
	.st112{fill:url(#SVGID_00000119820552632480772420000010246436424338649248_);}
	.st113{fill:url(#SVGID_00000016765664823397010290000002197693372341824183_);}
	.st114{fill:url(#SVGID_00000016786022033886483040000008548750321798843027_);}
	.st115{fill:url(#SVGID_00000136413919626399945710000000922497870619105706_);}
	.st116{fill:url(#SVGID_00000088134121207181778020000016233382203720821661_);}
	.st117{fill:url(#SVGID_00000142876448441047329100000016670283628701319047_);}
	.st118{fill:url(#SVGID_00000106111712120147751440000000926947090638169998_);}
	.st119{fill:url(#SVGID_00000170985036647111931490000010654402375082147740_);}
	.st120{fill:url(#SVGID_00000137105079010902261340000017442307839801613501_);}
	.st121{fill:url(#SVGID_00000132793797403451743940000000439374840869531038_);}
	.st122{fill:url(#SVGID_00000020362217101408517430000003995544916955368888_);}
	.st123{fill:url(#SVGID_00000073708904423563057150000003308585906835483820_);}
	.st124{fill:url(#SVGID_00000008845066206670755860000015234144331742939019_);}
	.st125{fill:url(#SVGID_00000040576351833491115310000004350164093121848715_);}
	.st126{fill:url(#SVGID_00000155848448375901316570000011708179146922601903_);}
	.st127{fill:url(#SVGID_00000154423512695005824380000006037799181535148969_);}
	.st128{fill:url(#SVGID_00000046337494622445979680000013109392063867686803_);}
	.st129{fill:url(#SVGID_00000021821096794443688710000011263661396734976936_);}
	.st130{fill:url(#SVGID_00000021086039858858085220000017748410392930398142_);}
	.st131{fill:url(#SVGID_00000110470525040130892810000000538138663809785773_);}
	.st132{fill:url(#SVGID_00000020359386445884092090000007982634550674636974_);}
	.st133{fill:url(#SVGID_00000152962881018791549020000003176155874021915285_);}
	.st134{fill:url(#SVGID_00000089562923501320284800000012649029196007265671_);}
	.st135{fill:url(#SVGID_00000145019716550699528910000004629752742988617383_);}
	.st136{fill:url(#SVGID_00000137107549409764161210000014209831751765275835_);}
	.st137{fill:url(#SVGID_00000046315323087848694800000000692133026160758714_);}
	.st138{fill:url(#SVGID_00000155844122261688474930000016721735857417654463_);}
	.st139{fill:url(#SVGID_00000110465374519854022220000011475531256432992936_);}
	.st140{fill:url(#SVGID_00000090276703895247330050000000149738262883397002_);}
	.st141{fill:url(#SVGID_00000048479051410068322300000001865990285576445573_);}
	.st142{fill:url(#SVGID_00000151516690655584467190000000998428952935852708_);}
	.st143{fill:url(#SVGID_00000070798503499376818450000009612178754723676808_);}
	.st144{fill:url(#SVGID_00000085232322385721701400000015250265878995141035_);}
	.st145{fill:url(#SVGID_00000074431688043930177710000001251635496689531803_);}
	.st146{fill:url(#SVGID_00000049184506540056361210000017597278665319704986_);}
	.st147{fill:url(#SVGID_00000154423504171750829190000017671493309353763216_);}
	.st148{fill:url(#SVGID_00000083780783082312399370000016760519203037465493_);}
	.st149{fill:url(#SVGID_00000137828505766112755820000015441474892564817036_);}
	.st150{fill:url(#SVGID_00000074410491460060233930000013801261137897428927_);}
	.st151{fill:url(#SVGID_00000137121283551949904640000009460243296745518264_);}
	.st152{fill:url(#SVGID_00000020373106040585531860000004624453804252388737_);}
	.st153{fill:url(#SVGID_00000048498694586520784280000008871026402052366256_);}
	.st154{fill:url(#SVGID_00000170274902148965119870000003689317960870626724_);}
	.st155{fill:url(#SVGID_00000050632252336707990450000015476047224896981672_);}
	.st156{fill:url(#SVGID_00000121256833103350419700000010755142589873466035_);}
	.st157{fill:url(#SVGID_00000163764302885687970210000014739857176042894755_);}
	.st158{fill:url(#SVGID_00000022554481208119529610000009775750810902971326_);}
	.st159{fill:url(#SVGID_00000044145364959575353780000008042382541753471934_);}
	.st160{fill:url(#SVGID_00000172398795054920313650000007018634562263561377_);}
	.st161{fill:url(#SVGID_00000181046008830183933350000010568707782921646509_);}
	.st162{fill:url(#SVGID_00000113326981037919217050000014262082339734829972_);}
	.st163{fill:none;stroke:#090E38;stroke-width:2;stroke-miterlimit:10;}
	.st164{fill:#803CFF;}
	.st165{fill:none;stroke:#803CFF;stroke-miterlimit:10;}
	.st166{fill:#848698;}
	.st167{fill:url(#SVGID_00000101088920442894999940000011289706240701313672_);}
	.st168{fill:url(#SVGID_00000108990894318069409620000007550578240550087814_);}
	.st169{fill:url(#SVGID_00000120558505840112953630000001198327152597256111_);}
	.st170{fill:url(#SVGID_00000062160710482622883760000001144623433957774769_);}
	.st171{fill:url(#SVGID_00000088826485109727530860000013800369098117833115_);}
	.st172{fill:url(#SVGID_00000149382378966683382910000017258731176562065305_);}
	.st173{fill:url(#SVGID_00000015356456445596694320000003230511639044008833_);}
	.st174{fill:url(#SVGID_00000065071873322637597340000001892283542831422876_);}
	.st175{fill:#22274C;}
	.st176{fill:url(#SVGID_00000018935582685855970390000004420573017367629726_);}
	.st177{fill:url(#SVGID_00000023986771560527970960000003878239202756521118_);}
	.st178{fill:url(#SVGID_00000158745567229756119850000011207702224500360619_);}
	.st179{fill:url(#SVGID_00000062188122558286821430000018351654657705824432_);}
	.st180{fill:url(#SVGID_00000147202243130578134840000004484157948574374829_);}
	.st181{fill:url(#SVGID_00000147937463084225155200000018114478703948229781_);}
	.st182{fill:url(#SVGID_00000047767555764657626020000013294017807752957860_);}
	.st183{fill:url(#SVGID_00000155836434742312130710000004774613308059348353_);}
	.st184{fill:url(#SVGID_00000044168787003761038880000016816531942164552320_);}
	.st185{fill:url(#SVGID_00000134945348289011816020000017057803865715871376_);}
	.st186{fill:url(#SVGID_00000110431659024655652050000001520197997102039717_);}
	.st187{fill:url(#SVGID_00000181048089759042463760000001980923341173193635_);}
	.st188{fill:url(#SVGID_00000055677589403088801580000008114836458520706702_);}
	.st189{fill:url(#SVGID_00000046338302825800495290000014850886393801203378_);}
	.st190{fill:url(#SVGID_00000096760664609933889470000006808551435538177183_);}
	.st191{fill:url(#SVGID_00000075861319184055472670000010595876847357890238_);}
	.st192{fill:url(#SVGID_00000058561104897159591460000006535777708703779747_);}
	.st193{fill:url(#SVGID_00000183970896566612753410000006714966610363174334_);}
	.st194{fill:url(#SVGID_00000056414160576284445290000013542406389798997942_);}
	.st195{fill:url(#SVGID_00000181805328531850692230000001560450370161322382_);}
	.st196{fill:url(#SVGID_00000049901926748614763030000015601581459012628637_);}
	.st197{fill:url(#SVGID_00000051356619120679897090000014941005000245115276_);}
	.st198{fill:url(#SVGID_00000139291209077731961330000003589734842036058025_);}
	.st199{fill:url(#SVGID_00000078734042199974086210000015830558481864565391_);}
	.st200{fill:url(#SVGID_00000178884423433497362670000004612808149542357438_);}
	.st201{fill:url(#SVGID_00000062872282519643826420000008978394839091512455_);}
	.st202{fill:url(#SVGID_00000164515106868880347700000012871175082375238064_);}
	.st203{fill:url(#SVGID_00000182526311312050464920000013227357929403190160_);}
	.st204{fill:url(#SVGID_00000057840152970425992870000004994659135166297023_);}
	.st205{fill:url(#SVGID_00000118395835389337048400000014209558571426635680_);}
	.st206{fill:url(#SVGID_00000035512831342950181390000007524688022235436706_);}
	.st207{fill:url(#SVGID_00000098925546794288894420000002687881082581117061_);}
	.st208{fill:url(#SVGID_00000029026546104711440010000012166658522818925191_);}
	.st209{fill:url(#SVGID_00000021109832781818146200000011039735958809593277_);}
	.st210{fill:url(#SVGID_00000080924311348346703840000015827799126109271941_);}
	.st211{fill:url(#SVGID_00000125567898289331975900000004451150989656518814_);}
	.st212{fill:none;stroke:#FFFFFF;stroke-linecap:round;stroke-miterlimit:10;}
	.st213{fill:url(#SVGID_00000108290494178062134160000007682685473770548401_);}
	.st214{fill:url(#SVGID_00000005259798461571603920000015093836693869859763_);}
	.st215{fill:url(#SVGID_00000031209608173538912650000001519329479671385762_);}
	.st216{fill:url(#SVGID_00000080186355024378329230000010896403902601242038_);}
	.st217{fill:url(#SVGID_00000175319890771698162500000008693740615227686806_);}
	.st218{fill:url(#SVGID_00000119795794060663626030000003861137475352034435_);}
	.st219{fill:url(#SVGID_00000005254654552133836740000003425947755459000969_);}
	.st220{fill:url(#SVGID_00000061439458777708641740000001342518127103466377_);}
	.st221{fill:url(#SVGID_00000114765686818731048330000004501893668674036865_);}
	.st222{fill:url(#SVGID_00000079476024242261495950000001279081108413793427_);}
	.st223{fill:url(#SVGID_00000117653021319900616580000011985952490071629992_);}
	.st224{fill:url(#SVGID_00000129915321468889261840000016920628197861444234_);}
	.st225{fill:url(#SVGID_00000171701643479280173610000006912194988208997259_);}
	.st226{fill:url(#SVGID_00000096058917424698297400000013667677811411606190_);}
	.st227{fill:url(#SVGID_00000086659145167199816480000010462867539305764006_);}
	.st228{fill:url(#SVGID_00000087407052768050606010000003621578098505514397_);}
	.st229{fill:url(#SVGID_00000012473263920580620020000016645570108590845871_);}
	.st230{fill:url(#SVGID_00000054952861913562713040000002190777299788341402_);}
	.st231{fill:url(#SVGID_00000053504571002818862110000009147547638546333870_);}
	.st232{fill:url(#SVGID_00000175301211265890662940000012364254997777971598_);}
	.st233{fill:url(#SVGID_00000141448937271759585430000017291205154964378022_);}
	.st234{fill:none;stroke:#22274C;stroke-width:0.5;stroke-miterlimit:10;}
	.st235{fill:url(#SVGID_00000036939414719343656810000015216934913752139672_);}
	.st236{fill:none;stroke:#22274C;stroke-miterlimit:10;}
	.st237{fill:url(#SVGID_00000062174328600280335830000004743065013926003331_);}
	.st238{fill:url(#SVGID_00000127012404673589850990000009618866824251912362_);}
	.st239{fill:url(#SVGID_00000005945463842179505590000014527569828869971075_);}
	.st240{fill:url(#SVGID_00000140002514440443117440000009771421276085555105_);}
	.st241{fill:url(#SVGID_00000064315395838612628480000009878088714009010060_);}
	.st242{fill:url(#SVGID_00000034812090880391678600000017125923365631374526_);}
	.st243{fill:url(#SVGID_00000096763596308758922530000007852821240167255484_);}
	.st244{fill:url(#SVGID_00000033358562329306572760000006758075691717742510_);}
	.st245{fill:url(#SVGID_00000143600752460321541300000017663300026237148341_);}
	.st246{fill:url(#SVGID_00000173128925101009028870000016866320615020321969_);}
	.st247{fill:url(#SVGID_00000094592589560263093190000016052341912461925267_);}
	.st248{fill:url(#SVGID_00000160883232273918601360000002221215889576393869_);}
	.st249{fill:none;stroke:#E11E5E;stroke-miterlimit:10;}
	.st250{fill:url(#SVGID_00000021809043471820542330000000601628199696300476_);}
	.st251{fill:url(#SVGID_00000093892352516567792330000017459491995059642287_);}
	.st252{fill:url(#SVGID_00000096041194437591948640000000235076695577796482_);}
	.st253{fill:url(#SVGID_00000065773362198640087840000009713942825685944500_);}
	.st254{fill:url(#SVGID_00000168082791818529462930000008086865960905815426_);}
	.st255{fill:url(#SVGID_00000183216496345668196720000001446576810365076397_);}
	.st256{fill:url(#SVGID_00000000183706481019664760000006704816261699417738_);}
	.st257{fill:url(#SVGID_00000039818464259011633830000005091277152545453460_);}
	.st258{fill:url(#SVGID_00000112626834909987361600000003658445861652672427_);}
	.st259{fill:url(#SVGID_00000001662335055766917780000014370494485198657450_);}
	.st260{fill:url(#SVGID_00000049206674634110829710000010937557032416652713_);}
	.st261{fill:url(#SVGID_00000108295158070967692180000001251236571323867322_);}
	.st262{fill:url(#SVGID_00000076601898426297266680000015773216323437590148_);}
	.st263{fill:url(#SVGID_00000072975387293359752660000008604242368227827351_);}
	.st264{fill:url(#SVGID_00000097491783623451306010000017440460693983742606_);}
	.st265{fill:url(#SVGID_00000175292952454130054950000017259514763765505188_);}
	.st266{fill:url(#SVGID_00000109739301744995924530000005158607172446165675_);}
	.st267{fill:url(#SVGID_00000147218909909067853760000000224725623743405958_);}
	.st268{fill:url(#SVGID_00000005243651580730168130000009938001860957381257_);}
	.st269{fill:url(#SVGID_00000036223254930100792440000010556078755253577393_);}
	.st270{fill:url(#SVGID_00000031175647473549093900000007471126311202511295_);}
	.st271{fill:url(#SVGID_00000016041619925741368710000010629725682229084846_);}
	.st272{fill:url(#SVGID_00000083794267041035812330000017726257119234612113_);}
	.st273{fill:none;stroke:#FFFFFF;stroke-width:0.75;stroke-miterlimit:10;}
	.st274{fill:none;stroke:#FFFFFF;stroke-width:0.75;stroke-linecap:round;stroke-miterlimit:10;}
	.st275{fill-rule:evenodd;clip-rule:evenodd;fill:none;stroke:#FFFFFF;stroke-width:0.5;stroke-miterlimit:10;}
	
		.st276{fill-rule:evenodd;clip-rule:evenodd;fill:none;stroke:#FFFFFF;stroke-width:0.5;stroke-linecap:round;stroke-miterlimit:10;}
	.st277{fill:url(#SVGID_00000160910400778733023270000010891941581460588435_);}
	.st278{fill:url(#SVGID_00000107577041705817760210000000478343416428743326_);}
	.st279{fill:url(#SVGID_00000088132939073402043060000005980941859097601689_);}
	.st280{fill:url(#SVGID_00000045600856526077280430000002233595808628906125_);}
	.st281{fill:url(#SVGID_00000003083544470437926120000009875230108242543547_);}
	.st282{fill:url(#SVGID_00000034065274206036085420000013683159156442274460_);}
	.st283{fill:url(#SVGID_00000057134355003552027530000013263786453966397869_);}
	.st284{fill:url(#SVGID_00000012470822375257553670000006506284928768804249_);}
	.st285{fill:url(#SVGID_00000058554096829214161640000001585115777769567675_);}
	.st286{fill:url(#SVGID_00000099626500302333490250000013236228293388364217_);}
	.st287{fill:url(#SVGID_00000033336476981136858370000011655783533933382272_);}
	.st288{fill:url(#SVGID_00000121261726983761984470000017188870591059311550_);}
	.st289{fill:url(#SVGID_00000119802724454697815980000009445442952714868640_);}
	.st290{fill:url(#SVGID_00000155133116968306950360000016202580949947906722_);}
	.st291{fill:url(#SVGID_00000018915874837976907170000001400740922327909250_);}
	.st292{fill:url(#SVGID_00000143595519091793063330000000200975663271493533_);}
	.st293{fill:url(#SVGID_00000161600688917072058780000014445536092248561591_);}
	.st294{fill:url(#SVGID_00000048485485947693654930000003956952999315877257_);}
	.st295{fill:url(#SVGID_00000163065116099595178770000016052569739087354294_);}
	.st296{fill:url(#SVGID_00000109712195018866033220000016594493734622016147_);}
	.st297{fill:url(#SVGID_00000124874198902849076480000009724113252434328750_);}
	.st298{fill:url(#SVGID_00000109014244012891610960000016053493321501565354_);}
	.st299{fill:url(#SVGID_00000033352548464177490290000012673991347157586842_);}
	.st300{fill:url(#SVGID_00000028315140194882137030000000542121382568470668_);}
	.st301{fill:url(#SVGID_00000108303097795082113610000003375524833456616599_);}
	.st302{clip-path:url(#SVGID_00000026881037524940450830000006227566916951258270_);fill:#22264C;}
	.st303{clip-path:url(#SVGID_00000127005597834894775720000012244735206232881028_);fill:#FFFFFF;}
	.st304{clip-path:url(#SVGID_00000052092216826369062320000005526455806807277962_);fill:#FFFFFF;}
	.st305{clip-path:url(#SVGID_00000115510824744052728820000009168192037003566218_);fill:#FFFFFF;}
	.st306{clip-path:url(#SVGID_00000172404155246004316100000013528573673831032983_);fill:#FFFFFF;}
	.st307{clip-path:url(#SVGID_00000138541839287092335450000003860083345544012963_);fill:#FFFFFF;}
	.st308{clip-path:url(#SVGID_00000034052254878040076770000013809507355606332848_);fill:#FFFFFF;}
	.st309{clip-path:url(#SVGID_00000150814255319147831850000009678736941661288883_);fill:#FFFFFF;}
	.st310{clip-path:url(#SVGID_00000096773410655391507230000012620894788546086819_);fill:#FFFFFF;}
	.st311{clip-path:url(#SVGID_00000065064195762995199120000015194355795995065752_);fill:#FFFFFF;}
	.st312{clip-path:url(#SVGID_00000041282563896305368060000010457879172570316937_);fill:#FFFFFF;}
	.st313{clip-path:url(#SVGID_00000026156255687914319230000013243371644622351279_);fill:#FFFFFF;}
	.st314{fill:url(#SVGID_00000156549056741121554950000000752466042502049704_);}
	.st315{fill:url(#SVGID_00000168822383111660946100000001212214686490094522_);}
	.st316{fill:url(#SVGID_00000121969131732438454760000018267995874125345953_);}
	.st317{fill:url(#SVGID_00000086656931363445490850000009438660195717920686_);}
	.st318{fill:url(#SVGID_00000117652517521193030680000003128776882952596382_);}
	.st319{fill:url(#SVGID_00000065066972492822963280000008239020446666022791_);}
	.st320{fill:url(#SVGID_00000040556411075943630990000008183892655485775547_);}
	.st321{fill:url(#SVGID_00000052077979470038701790000017613340342620339132_);}
	.st322{fill:url(#SVGID_00000037663954008503743640000006652693625352297375_);}
	.st323{fill:url(#SVGID_00000036965674440367357270000000442976853670722188_);}
	.st324{fill:url(#SVGID_00000021820972837559579310000012214620234662777997_);}
	.st325{fill:url(#SVGID_00000126307179287393337000000015179588941576474525_);}
	.st326{fill:url(#SVGID_00000082336866572286158320000015352259903089939115_);}
	.st327{fill:url(#SVGID_00000151517797860568556710000001161259075531043003_);}
	.st328{fill:url(#SVGID_00000107587650764443593180000011701360823538988714_);}
	.st329{fill:url(#SVGID_00000145736609362029940410000007580268631171185082_);}
	.st330{fill:url(#SVGID_00000125564194529872000530000013630888276592348300_);}
	.st331{fill:url(#SVGID_00000032644810727571301520000002856644821777369475_);}
	.st332{fill:url(#SVGID_00000018229249149555650510000011607804176773526442_);}
	.st333{fill:url(#SVGID_00000153679640079012188050000014176086364114370964_);}
	.st334{fill:url(#SVGID_00000097459112609769414050000016184737961970497447_);}
	.st335{fill:url(#SVGID_00000026152494048642471680000008550111616331784593_);}
	.st336{fill:url(#SVGID_00000173145892898850273190000016547695790744485252_);}
	.st337{fill:url(#SVGID_00000163778657700549287230000005043277946952246671_);}
	.st338{fill:url(#SVGID_00000047020906332892222690000002773174155727080847_);}
	.st339{fill:url(#SVGID_00000177459927934331378180000006607600887053481372_);}
	.st340{fill:url(#SVGID_00000147211256287839428380000012557524704842369445_);}
	.st341{fill:url(#SVGID_00000150801044928811790600000014819379590486218668_);}
	.st342{fill:url(#SVGID_00000000916545458212408180000010774521362775666343_);}
	.st343{fill:url(#SVGID_00000168809391711781683800000008692746934352534688_);}
	.st344{fill:url(#SVGID_00000161603882354916623760000007052538243695162293_);}
	.st345{fill:url(#SVGID_00000030483885383069744360000013383121414637384122_);}
	.st346{fill:url(#SVGID_00000163046265085610128710000012897839242393008769_);}
	.st347{fill:url(#SVGID_00000031928565219228908900000000395600823681793718_);}
	.st348{fill:url(#SVGID_00000150091112915769851220000008979035546742224308_);}
	.st349{fill:url(#SVGID_00000039093317689618348070000008443204457655658942_);}
	.st350{fill:url(#SVGID_00000062186786146412746870000003406517729714324669_);}
	.st351{fill:url(#SVGID_00000107590651450154747540000012766089062227852721_);}
	.st352{fill:url(#SVGID_00000031183794274516902500000015253813280793495460_);}
	.st353{fill:url(#SVGID_00000050648634965175763290000001754993465622211988_);}
	.st354{fill:#8A8989;}
	.st355{fill:#616160;}
	.st356{fill-rule:evenodd;clip-rule:evenodd;fill:#FFFFFF;}
	.st357{fill-rule:evenodd;clip-rule:evenodd;fill:#8A8989;}
	.st358{fill-rule:evenodd;clip-rule:evenodd;fill:#797879;}
	.st359{clip-path:url(#XMLID_00000006694070665334120350000013656140801220460452_);}
	.st360{opacity:0.2;fill:#E1E3E7;}
	.st361{fill-rule:evenodd;clip-rule:evenodd;fill:#616160;}
	.st362{fill:#E1E3E7;}
	.st363{fill:#FFFFFF;stroke:#FFFFFF;stroke-width:4;stroke-miterlimit:10;}
	.st364{fill:#58595B;}
	.st365{fill:#80A926;}
	.st366{clip-path:url(#SVGID_00000000922188041793173580000007392585156066643632_);}
	.st367{clip-path:url(#SVGID_00000181790516650727520720000011086037183004026814_);}
	.st368{clip-path:url(#SVGID_00000049191293640054512800000017396909310476894865_);}
	.st369{clip-path:url(#SVGID_00000048477149025403499400000005215841189155796407_);}
	.st370{clip-path:url(#SVGID_00000166662309002542301390000003053691431988923800_);}
	.st371{clip-path:url(#SVGID_00000127001718272882903320000007046633597703843203_);}
	.st372{clip-path:url(#SVGID_00000067916285051411936840000018386313180735737990_);}
	.st373{clip-path:url(#SVGID_00000000199261426818965390000018403527902037922464_);}
	.st374{clip-path:url(#SVGID_00000007399664000470590650000004085656318897812924_);}
	.st375{clip-path:url(#SVGID_00000072279977607301099150000003293903594976965533_);}
	.st376{fill:#1D1E1C;}
	.st377{opacity:0.36;}
	.st378{opacity:0.57;}
	.st379{fill:none;}
	.st380{fill:#01CEA6;}
	.st381{fill:#01261F;}
	.st382{fill:#E68000;}
	.st383{fill:#261400;}
	.st384{fill:#E63D80;}
	.st385{fill:#2D0013;}
	.st386{fill:#3695BB;}
	.st387{fill:#032732;}
	.st388{fill:#CDE4EC;}
	.st389{fill:#DA80E7;}
	.st390{fill:#B072BD;}
	.st391{fill:#855994;}
	.st392{fill:#180024;}
	.st393{fill:#DD80EA;}
	.st394{fill:#BB80E7;}
	.st395{fill:#9B77C0;}
	.st396{fill:#C080ED;}
	.st397{fill:#1F0140;}
	.st398{fill:#80619A;}
	.st399{fill:url(#SVGID_00000147179309524886864450000007813078058991505291_);}
	.st400{fill:url(#SVGID_00000129175692967931766580000007054151072802449041_);}
	.st401{fill:url(#SVGID_00000170969093054549186730000015235183699825023623_);}
	.st402{fill:url(#SVGID_00000137129739829379025380000000527550236864736947_);}
	.st403{fill:url(#SVGID_00000130641890224242342370000013686482248882760582_);}
	.st404{fill:url(#SVGID_00000070835471875548504690000008068132926594246585_);}
	.st405{fill:url(#SVGID_00000106836751271748353810000002669895410071322030_);}
	.st406{fill:url(#SVGID_00000027584771236648458710000011459230695308599990_);}
	.st407{fill:url(#SVGID_00000171698908170255652510000010872700091478132668_);}
	.st408{fill:url(#SVGID_00000049913764797612112760000005394745146806394803_);}
	.st409{fill:url(#SVGID_00000048470451993572026240000010435513945297723055_);}
	.st410{fill:url(#SVGID_00000132060971124081121960000014481459828336620991_);}
	.st411{fill:none;stroke:#464A69;stroke-miterlimit:10;}
	.st412{fill:url(#SVGID_00000096763773542009599920000013106168344603154072_);}
	.st413{fill:url(#SVGID_00000150795285979189086180000014791859566011860414_);}
	.st414{fill:url(#SVGID_00000158017999563016181340000015019389153596025020_);}
	.st415{fill:url(#SVGID_00000160884705942276362980000018406996564986448281_);}
	.st416{fill:url(#SVGID_00000023968164892686260440000001833468359578678460_);}
	.st417{fill:url(#SVGID_00000128473542830634635530000010199794441929724596_);}
	.st418{fill:url(#SVGID_00000053537095774157339010000014800384151349241753_);}
	.st419{fill:url(#SVGID_00000168812392700732400620000010524135320456615811_);}
	.st420{fill:url(#SVGID_00000165926140575838897560000001719857971878614716_);}
	.st421{fill:url(#SVGID_00000121965973465163947230000014465419326650710159_);}
	.st422{fill:url(#SVGID_00000062904873698420704710000010371111760401413003_);}
	.st423{fill:url(#SVGID_00000065792189241359466760000014037086933764669363_);}
	.st424{fill:url(#SVGID_00000004522848519332036620000004967018185994098581_);}
	.st425{fill:url(#SVGID_00000157995952544752586790000014735432313233714330_);}
	.st426{fill:none;stroke:#22274C;stroke-width:0.75;stroke-miterlimit:10;}
	.st427{fill:none;stroke:#FFFFFF;stroke-width:2;stroke-miterlimit:10;}
	.st428{fill:url(#SVGID_00000027591295083541284150000016018525055074090890_);}
	.st429{fill:url(#SVGID_00000121261655854964660820000005915125115584949675_);}
	.st430{fill:url(#SVGID_00000105422828297744668470000001856636972667211139_);}
	.st431{fill:url(#SVGID_00000155132479954545614410000003356061134425311159_);}
	.st432{fill:url(#SVGID_00000181787649019052865320000007110764935769562030_);}
	.st433{fill:url(#SVGID_00000044881889002955185690000009452798580843945129_);}
	.st434{fill:url(#SVGID_00000108993719370548979900000005985825552080758962_);}
	.st435{fill:url(#SVGID_00000106109210603649753290000009208670141830260921_);}
	.st436{fill:url(#SVGID_00000022559190290478871740000016313217704402113670_);}
	.st437{fill:url(#SVGID_00000163790700997306594110000011851525898228065422_);}
	.st438{fill:url(#SVGID_00000145760402507480704060000005609432538553022644_);}
	.st439{fill:url(#SVGID_00000079458956936942430540000017446051968735453849_);}
	.st440{fill:url(#SVGID_00000139999902715964736990000004729987243426758051_);}
	.st441{fill:url(#SVGID_00000113337270978215833530000017474304301872119192_);}
	.st442{fill:url(#SVGID_00000089562014695288375080000010245868884177627030_);}
	.st443{fill:url(#SVGID_00000181782223280456396990000007392836065058395798_);}
	.st444{fill:url(#SVGID_00000016783092137102528270000015218317598026684830_);}
	.st445{fill:url(#SVGID_00000030461335300619622720000002479728551979106180_);}
	.st446{fill:url(#SVGID_00000116226639086438374990000011485593228219289498_);}
	.st447{fill:url(#SVGID_00000177455627165730544710000005634275984088525966_);}
	.st448{fill:url(#SVGID_00000128459606716510986540000004422037179042699655_);}
	.st449{fill:url(#SVGID_00000106867242707648686660000000610888290766959255_);}
	.st450{fill:url(#SVGID_00000078036733385236742640000006422322084858681770_);}
	.st451{fill:url(#SVGID_00000043431762211501758720000003439944240076657072_);}
	.st452{fill:url(#SVGID_00000009568832512669914730000016096776600275240629_);}
	.st453{fill:url(#SVGID_00000061447431261929229230000001115362785349948599_);}
	.st454{fill:url(#SVGID_00000034789868157338875240000018312024467554934423_);}
	.st455{fill:none;stroke:#8F8F8F;stroke-width:0.75;stroke-miterlimit:10;}
	.st456{fill:#8F8F8F;stroke:#8F8F8F;stroke-width:0.25;stroke-miterlimit:10;}
	.st457{fill:#8F8F8F;}
	.st458{fill:none;stroke:#8F8F8F;stroke-width:0.25;stroke-miterlimit:10;}
	.st459{fill:url(#SVGID_00000129179596127206770870000009985168116525466034_);}
	.st460{fill:url(#SVGID_00000008138531159572615950000007338290484650480558_);}
	.st461{fill:url(#SVGID_00000167355019134815379030000007854520419939675565_);}
	.st462{fill:url(#SVGID_00000171719086635179683220000015890808928564681872_);}
	.st463{fill:url(#SVGID_00000172402044012120979470000008052742812347747511_);}
	.st464{fill:url(#SVGID_00000031191683896063295620000011323775875267564479_);}
	.st465{fill:url(#SVGID_00000121257319873930791630000004531644569344186281_);}
	.st466{fill:url(#SVGID_00000083062845189485373180000005880878983790206348_);}
	.st467{fill:url(#SVGID_00000007427056168669430940000007948561574240882367_);}
	.st468{fill:url(#SVGID_00000117644457581459013150000007642050653281632184_);}
</style>
<circle class="st0" cx="20.09" cy="20.09" r="20.09"/>
<g>
	<g>
		<linearGradient id="SVGID_1_" gradientUnits="userSpaceOnUse" x1="34.9987" y1="34.9989" x2="5.1845" y2="5.1846">
			<stop  offset="0" style="stop-color:#F48061"/>
			<stop  offset="0.1229" style="stop-color:#EBC91B"/>
			<stop  offset="0.5" style="stop-color:#49D881"/>
			<stop  offset="1" style="stop-color:#38B9F4"/>
		</linearGradient>
		<path class="st1" d="M20.09,0c11.1,0,20.09,9,20.09,20.09s-9,20.09-20.09,20.09C9,40.18,0,31.19,0,20.09S9,0,20.09,0 M20.09-1
			C8.46-1-1,8.46-1,20.09s9.46,21.09,21.09,21.09s21.09-9.46,21.09-21.09S31.72-1,20.09-1L20.09-1z"/>
	</g>
</g>
<g>
	<path class="st5" d="M25.02,17.68c0,0.05,0,0.11,0,0.16c0,2.31,0,4.61,0,6.92c0,0.16,0.03,0.21,0.2,0.2c0.62-0.01,1.24,0,1.87,0
		c0.49,0,0.7,0.2,0.69,0.68c-0.01,0.55,0.04,1.11-0.03,1.66c-0.12,0.81-0.71,1.45-1.46,1.59c-0.13,0.02-0.27,0.02-0.4,0.02
		c-3.09,0-6.18-0.02-9.28,0.01c-1.21,0.01-1.91-0.91-1.96-1.88c0-0.09,0-0.18,0-0.27c0-3.1,0-6.2,0-9.29c0-0.18-0.05-0.22-0.22-0.22
		c-0.63,0.01-1.26,0.01-1.88,0c-0.44,0-0.65-0.21-0.65-0.65c0-0.49,0-0.99,0-1.48c0-1.1,0.72-1.82,1.82-1.82c2.52,0,5.04,0,7.56,0
		c0.15,0,0.23-0.03,0.3-0.18c0.15-0.37,0.46-0.56,0.86-0.58c0.27-0.01,0.33-0.07,0.34-0.34c0.02-0.41,0.22-0.71,0.59-0.87
		c0.38-0.16,0.73-0.1,1.04,0.17c0.24,0.21,0.28,0.21,0.52,0c0.3-0.26,0.65-0.32,1.02-0.17c0.37,0.15,0.57,0.44,0.6,0.84
		c0.02,0.31,0.06,0.34,0.37,0.37c0.4,0.03,0.69,0.23,0.85,0.6c0.16,0.37,0.09,0.72-0.17,1.02c-0.21,0.24-0.21,0.28,0,0.52
		c0.27,0.31,0.33,0.66,0.17,1.04c-0.16,0.38-0.46,0.57-0.87,0.59c-0.27,0.01-0.29,0.05-0.16,0.29c0.15,0.26,0.36,0.44,0.61,0.59
		c0.25,0.15,0.5,0.29,0.74,0.44c0.18,0.11,0.25,0.26,0.21,0.43c-0.04,0.17-0.18,0.27-0.4,0.28c-0.31,0.01-0.31,0.01-0.17,0.28
		c0.15,0.29,0.16,0.45,0.02,0.58c-0.19,0.17-0.39,0.09-0.58,0c-0.34-0.17-0.67-0.35-1-0.53C25.71,18.42,25.34,18.1,25.02,17.68z
		 M15.06,14.04c0.3,0.43,0.32,0.88,0.32,1.34c-0.01,2.77,0,5.54,0,8.31c0,1.07,0,2.13,0,3.2c0,0.36,0.09,0.69,0.33,0.96
		c0.38,0.43,0.96,0.44,1.35,0.02c0.25-0.27,0.34-0.6,0.34-0.96c0-0.41,0-0.83,0-1.24c0-0.52,0.19-0.71,0.7-0.71c2,0,4,0,6,0
		c0.15,0,0.19-0.04,0.19-0.19c0-2.32,0-4.63,0-6.95c0-0.05,0.03-0.11-0.04-0.16c-0.5,0.82-1.36,1.16-2.15,1.57
		c-0.05,0.03-0.1,0.04-0.15,0.05c-0.15,0.03-0.29,0.02-0.39-0.12c-0.1-0.13-0.09-0.27-0.02-0.41c0.02-0.04,0.05-0.09,0.07-0.13
		c0.14-0.27,0.14-0.27-0.17-0.28c-0.22-0.01-0.35-0.1-0.4-0.28c-0.05-0.17,0.02-0.31,0.21-0.42c0.25-0.15,0.5-0.3,0.76-0.45
		c0.24-0.15,0.46-0.33,0.6-0.58c0.14-0.24,0.12-0.27-0.15-0.28c-0.42-0.02-0.72-0.22-0.88-0.6c-0.16-0.38-0.09-0.73,0.18-1.04
		c0.09-0.1,0.18-0.18,0.12-0.33c-0.07-0.17-0.26-0.31-0.42-0.31c-2.05,0-4.1,0-6.15,0C15.23,14.04,15.17,14.04,15.06,14.04z
		 M17.75,28.17c0.05,0.01,0.07,0.01,0.09,0.01c2.74,0,5.47,0,8.21,0c0.16,0,0.31-0.05,0.45-0.14c0.29-0.19,0.45-0.46,0.51-0.79
		c0.08-0.44,0.01-0.89,0.04-1.33c0.01-0.18-0.03-0.23-0.22-0.23c-2.22,0.01-4.44,0.01-6.66,0.01c-0.63,0-1.26,0-1.88,0
		c-0.12,0-0.16,0.04-0.16,0.16c0.01,0.23,0,0.45,0,0.68C18.15,27.09,18.11,27.66,17.75,28.17z M27.1,13.52
		c-0.01-0.14-0.11-0.24-0.29-0.24c-0.6-0.02-0.98-0.39-1-0.99c-0.01-0.13-0.03-0.23-0.16-0.28c-0.13-0.05-0.22,0.01-0.31,0.1
		c-0.41,0.39-0.96,0.39-1.38,0c-0.1-0.09-0.19-0.15-0.32-0.09c-0.12,0.06-0.14,0.16-0.15,0.29c-0.01,0.55-0.42,0.96-0.96,0.97
		c-0.13,0-0.25,0.02-0.3,0.15c-0.06,0.13,0.01,0.23,0.1,0.32c0.38,0.41,0.38,0.96,0,1.37c-0.09,0.1-0.15,0.19-0.1,0.32
		c0.05,0.13,0.16,0.14,0.29,0.15c0.56,0.02,0.96,0.42,0.98,0.98c0,0.13,0.03,0.23,0.15,0.29c0.12,0.05,0.22,0,0.31-0.08
		c0.44-0.4,0.96-0.4,1.41,0.01c0.09,0.08,0.18,0.12,0.3,0.08c0.12-0.05,0.15-0.14,0.15-0.27c0.03-0.61,0.4-0.97,1.01-1
		c0.12-0.01,0.21-0.04,0.26-0.16c0.04-0.11,0-0.2-0.07-0.28c-0.42-0.47-0.42-0.95,0.01-1.43C27.07,13.66,27.1,13.6,27.1,13.52z
		 M13.63,16.53c0.29,0,0.58,0,0.88,0c0.1,0,0.14-0.03,0.14-0.13c-0.01-0.48,0.01-0.95-0.01-1.43c-0.01-0.53-0.46-0.94-1.02-0.93
		c-0.54,0-0.98,0.41-0.99,0.94c-0.01,0.47,0,0.94-0.01,1.41c0,0.12,0.04,0.14,0.15,0.14C13.05,16.53,13.34,16.53,13.63,16.53z
		 M26.72,18.15c-0.02-0.14-0.03-0.27,0.05-0.37c0.02-0.03,0.02-0.05-0.01-0.08c-0.15-0.13-0.29-0.28-0.46-0.37
		c-0.05-0.03-0.19,0.12-0.29,0.18c-0.01,0-0.01,0.01-0.02,0.01c-0.08,0.03-0.08,0.06-0.02,0.12C26.19,17.84,26.43,18,26.72,18.15z
		 M22.58,18.15c0.25-0.12,0.46-0.26,0.65-0.43c0.17-0.15,0.17-0.15-0.02-0.27c-0.05-0.03-0.09-0.06-0.13-0.1
		c-0.05-0.06-0.09-0.06-0.15,0c-0.1,0.12-0.23,0.22-0.36,0.31c-0.04,0.03-0.08,0.05-0.04,0.11C22.62,17.89,22.62,18.01,22.58,18.15z
		"/>
	<path class="st5" d="M19.83,21.89c-1.15,0-2.3,0-3.46,0c-0.07,0-0.15,0-0.22-0.01c-0.17-0.03-0.29-0.17-0.3-0.34
		c-0.01-0.16,0.1-0.32,0.26-0.36c0.08-0.02,0.16-0.02,0.24-0.02c2.33,0,4.66,0,6.99,0c0.05,0,0.11,0,0.16,0.01
		c0.19,0.03,0.32,0.18,0.32,0.36c0,0.19-0.15,0.34-0.35,0.36c-0.17,0.01-0.34,0-0.51,0.01C21.91,21.89,20.87,21.89,19.83,21.89z"/>
	<path class="st5" d="M19.83,23.11c-1.16,0-2.32,0-3.48,0c-0.34,0-0.51-0.12-0.51-0.36c0-0.24,0.17-0.37,0.5-0.37
		c2.32,0,4.63,0,6.95,0c0.33,0,0.51,0.13,0.51,0.36c0,0.24-0.17,0.37-0.51,0.37C22.15,23.11,20.99,23.11,19.83,23.11z"/>
	<path class="st5" d="M18.14,20.68c-0.62,0-1.23,0-1.85,0c-0.27,0-0.44-0.13-0.44-0.36c0-0.22,0.17-0.38,0.45-0.38
		c1.24,0,2.49,0,3.73,0c0.27,0,0.43,0.14,0.43,0.37c0,0.22-0.16,0.36-0.43,0.36C19.39,20.68,18.77,20.68,18.14,20.68z"/>
	<path class="st5" d="M18.03,16.5c0.6,0,1.19,0,1.79,0c0.16,0,0.27,0.07,0.34,0.21c0.07,0.13,0.05,0.26-0.04,0.38
		c-0.08,0.11-0.19,0.15-0.32,0.15c-1.18,0-2.36,0-3.55,0c-0.24,0-0.41-0.17-0.4-0.38c0.01-0.21,0.17-0.35,0.41-0.35
		C16.85,16.5,17.44,16.5,18.03,16.5z"/>
	<path class="st5" d="M17.43,15.32c0.38,0,0.76,0,1.13,0c0.26,0,0.42,0.13,0.43,0.35c0.01,0.22-0.16,0.38-0.42,0.38
		c-0.77,0-1.54,0-2.3,0c-0.25,0-0.42-0.15-0.42-0.37c0-0.21,0.16-0.36,0.41-0.36C16.65,15.32,17.04,15.32,17.43,15.32z"/>
	<path class="st5" d="M17.43,23.59c0.38,0,0.76,0,1.13,0c0.26,0,0.42,0.14,0.43,0.35c0.01,0.22-0.16,0.38-0.42,0.38
		c-0.77,0-1.54,0-2.3,0c-0.25,0-0.42-0.15-0.42-0.36c0-0.21,0.16-0.36,0.41-0.36C16.65,23.58,17.04,23.59,17.43,23.59z"/>
	<path class="st5" d="M24.66,12.83c0.91,0.01,1.65,0.73,1.64,1.62c-0.01,0.89-0.76,1.61-1.65,1.61c-0.91-0.01-1.64-0.73-1.63-1.62
		C23.02,13.54,23.75,12.82,24.66,12.83z M24.65,13.56c-0.51,0-0.91,0.39-0.9,0.88c0,0.49,0.41,0.88,0.91,0.88
		c0.5,0,0.91-0.41,0.91-0.89C25.57,13.95,25.15,13.56,24.65,13.56z"/>
</g>
</svg>
